<?xml version="1.0" encoding="utf-8"?>
<!-- Generator: Adobe Illustrator 26.0.2, SVG Export Plug-In . SVG Version: 6.00 Build 0)  -->
<svg version="1.1" id="图层_1" xmlns="http://www.w3.org/2000/svg" xmlns:xlink="http://www.w3.org/1999/xlink" x="0px" y="0px"
	 viewBox="0 0 1920 1080" style="enable-background:new 0 0 1920 1080;" xml:space="preserve">
<style type="text/css">
	.st0{fill:#FEFEFE;}
	.st1{fill:#033957;}
	.st2{fill:#053A58;}
	.st3{fill:#08AEB0;}
	.st4{fill:#043A57;}
	.st5{fill:#043A58;}
	.st6{fill:#3B82C3;}
	.st7{fill:#3C82C4;}
	.st8{fill:#0BAFB1;}
	.st9{fill:#093D5B;}
	.st10{fill:#063B59;}
	.st11{fill:#C0CED5;}
	.st12{fill:#FBFCFC;}
	.st13{fill:#FDFDFD;}
</style>
<g>
	<ellipse class="st0" cx="959.28" cy="539.51" rx="530.33" ry="238.29"/>
	<path class="st1" d="M710.1,485.68c0.65-0.65,1.12-1.12,1.67-1.67c15.23,0,30.56-0.16,45.87,0.13c3.09,0.06,6.45,0.33,9.41,1.32
		c2.89,0.97,5.86,1.75,8.64,3.3c5.05,2.81,8.85,6.54,11.63,11.58c2.52,4.56,4.31,9.19,5.16,14.42c0.5,3.07,0.73,6.07,0.76,9.12
		c0.03,3.98-1.37,7.79-2.19,11.62c-0.75,3.51-2.64,7.05-4.88,9.9c-4.5,5.71-9.98,10.68-17.29,12.28c-3.03,0.67-6.24,1.38-9.48,1.35
		c-8.83-0.07-17.66-0.03-26.5-0.03c-1.13,0-2.26,0-3.57,0c0,12.04,0,23.83,0,35.81c-5.95,0-11.73,0-17.78,0
		c-0.22-0.25-0.66-0.74-1.33-1.5c0-11.13,0-22.59,0-34.17c-4.62,0-9.07,0-13.88,0c0,11.84,0,23.75,0,35.75c-6.47,0-12.59,0-18.68,0
		c-0.38-0.38-0.73-0.73-1.26-1.26c0-11.27,0-22.72,0-34.53c-17.74,0-35.31,0-53,0c0-4.8,0-9.25,0-13.86
		c4.99-3.92,8.5-9.4,12.91-14.05c2.43-2.57,4.89-5.22,7.19-7.96c5.14-6.12,10.51-12.02,15.8-18c2.59-2.93,5.73-5.49,7.78-8.74
		c2.45-3.89,6.52-6.26,8.71-10.35c0.86-1.61,2.96-2.2,5.04-2.16c4.66,0.08,9.32,0.03,13.95,0.03c0.51,0.51,0.98,0.98,1.62,1.62
		c0,18.61,0,37.39,0,56.27c4.62,0,9.07,0,13.7,0C710.1,523.07,710.1,504.29,710.1,485.68z"/>
	<path class="st1" d="M1189.45,521.64c1.35-4.16,4.96-5.25,8.52-6.69c6.89-2.79,14.05-3.48,21.27-2.83
		c4.45,0.4,8.82,1.74,13.07,3.36c3.34,1.27,6.7,2.41,9.2,5.09c2.62-1.77,4.61-3.33,6.79-4.54c5.68-3.16,11.89-4.85,18.31-3.89
		c4.44,0.66,9.04,1.07,13.28,2.86c6.24,2.63,11.16,6.65,13.35,13.27c1.3,3.92,2.14,7.92,2.1,12.16c-0.15,16.67-0.06,33.33-0.06,50
		c0,1.46,0,2.93,0,4.47c-4.75,0-9.21,0-14,0c0-1.66,0-3.29,0-4.92c0-16.83-0.02-33.67,0.03-50.5c0.01-2.12-0.32-4.09-0.99-6.1
		c-0.89-2.69-2.32-4.65-4.99-5.88c-5.88-2.72-8.99-3.23-15.58-1.63c-2.01,0.48-3.87,0.98-5.77,1.82c-3.4,1.52-4.72,3.99-4.71,7.53
		c0.02,18.5,0.01,37,0.01,55.5c0,0.98,0,1.96,0,2.79c-0.51,0.51-0.86,0.86-1.36,1.36c-3.97,0-8.09,0-12.29,0
		c-0.39-0.39-0.86-0.86-1.35-1.35c0-20.65,0-41.32,0-61.97c-6.2-7.44-24.02-8.92-30.01-3.04c0,20.53,0.01,41.18-0.02,61.83
		c0,1.58,0.6,3.4-1.52,4.57c-4.21,0-8.66,0-13.29,0C1189.45,570.41,1189.45,545.96,1189.45,521.64z"/>
	<path class="st1" d="M1171.27,607.13c0.48,2.94-0.09,5.89-1.08,8.54c-1.65,4.4-3.57,8.85-8.02,11.29
		c-1.24,0.68-2.31,1.62-3.48,2.36c-2.83,1.79-6.01,3.13-9.02,3.45c-3.35,0.35-6.68,2.07-10.03,1.17c-4.11-1.1-8.4-0.78-12.49-2.39
		c-3.92-1.55-7.63-3.39-11.17-5.58c-1.38-0.85-2.44-2.2-4.12-3.77c1.3-3.87,4.98-5.39,6.72-8.12c2.11-0.36,3.32,0.88,4.73,1.49
		c1.7,0.73,3.52,1.38,4.93,2.51c1.64,1.31,3.67,1.17,5.35,1.5c3.41,0.68,6.95,2.35,10.41,1.31c2.61-0.78,5.5-0.84,7.89-2.75
		c0.97-0.78,1.78-1.32,2.47-2.47c1.84-3.06,2.47-6.3,3.1-9.76c0.68-3.73,0.76-7.39,0.82-11.11c0.01-0.63,0.23-1.35-0.76-1.91
		c-3.02,1.5-6.27,2.79-9.88,3.4c-4.13,0.7-8.17,0.86-12.79-0.16c-3.35-0.74-6.63-1.36-9.86-2.76c-4.44-1.92-7.92-4.79-11.06-8.26
		c-1.93-2.13-3.16-4.56-3.71-7.47c-0.38-2.03-0.72-4.04-1.05-6.08c-0.3-1.85-0.94-3.66-0.88-5.6c0.06-2.16,0.01-4.33,0.01-6.49
		c0-6.5-0.12-12.99,0.03-19.48c0.16-6.78,2.57-12.92,6.76-18.14c3.1-3.86,7.55-6.19,12.21-7.79c5.25-1.8,15.71-3.07,20.61-1.94
		c5.78,1.34,11.73,1.72,17.4,3.75c2.38,0.85,4.32,1.88,5.98,3.65c0,12.32,0.08,24.65-0.04,36.97"/>
	<path class="st1" d="M1047.35,515.98c0-10.16,0-19.94,0-29.85c4.62,0,9.07,0,13.73,0c0,34.4,0,68.83,0,103.54
		c-0.97,1.35-2.59,2.02-4.51,2.68c-5.06,1.73-10.16,2.93-15.45,3.82c-3.74,0.63-7.4,0.65-11.11,0.85c-5.67,0.3-11.1-1.26-16.17-3.22
		c-4.74-1.83-8.56-5.53-11.59-9.86c-2.32-3.31-3.44-6.83-4.2-10.82c-0.52-2.75-0.7-5.42-0.73-8.13c-0.1-7.83-0.03-15.66-0.04-23.49
		c0-1.92,0.21-3.73,0.86-5.63c0.53-1.55,0.62-3.36,1.03-5.06c0.48-1.98,1.63-3.33,2.64-4.94c3.55-5.62,8.42-9.49,14.67-11.53
		c5.18-1.7,10.57-3.11,16.01-2.22c4.4,0.72,8.95,1.37,12.97,3.6C1045.95,516,1046.35,515.96,1047.35,515.98z"/>
	<path class="st1" d="M846.03,547.9c0.98-5.11-0.68-11.5-2.7-15.35c-2.6-4.95-6.6-7.49-12.27-7.58c-6.13-0.09-11.96,0.73-17.35,3.98
		c-2.15,1.29-4.43,2.35-6.45,4.64c-1.97-3.38-4.62-5.68-7.24-8.35c3.27-4.85,7.81-8.18,13.01-10.1c5.45-2.01,11.24-3.2,17.18-3.18
		c2.6,0.01,4.93,1.15,7.57,1.21c2.51,0.06,5.05,1.33,7.45,2.35c2.27,0.97,4.69,1.95,6.48,3.55c4.36,3.9,7.56,8.58,7.56,14.8
		c0,18.48,0,36.95,0,55.26c-2.3,4.27-6.54,5.04-10.53,5.7c-1.59,0.26-2.82,1.47-4.56,1.22c-1.63-0.24-3.47-0.47-4.96,0.04
		c-3.18,1.09-6.39,0.98-9.6,0.88c-5.43-0.17-10.92-0.65-16.11-2.11c-4.89-1.38-9.26-4.31-12.2-8.65
		c-3.31-4.89-5.47-10.27-5.05-16.37c0.52-7.5,3.62-13.79,9.33-18.57c3.83-3.21,8.67-4.87,13.4-6.12c3.11-0.82,6.64,0.12,9.94-0.22
		c5.27-0.54,10.04,1.58,15.05,2.35C844.5,547.37,844.93,548.17,846.03,547.9z"/>
	<path class="st1" d="M931.3,533.63c-2.83-3.22-6.01-5.18-7.11-9.09c2.45-2.02,4.31-4.74,7.13-6.56c3.56-2.29,7.6-3.93,11.5-4.69
		c4.18-0.82,8.6-2.14,13.02-1.25c4.28,0.86,8.68,1.53,12.72,3.09c4.39,1.69,7.83,5.05,10.92,8.6c1.97,2.27,2.37,5.35,3.77,7.93
		c0.28,0.52,0.04,1.31,0.04,1.98c0,18.65,0,37.3,0,55.87c-1.15,1.15-2.21,2.21-3.27,3.27c-0.79,0.68-1.79,0.22-2.75,0.61
		c-3.79,1.54-7.79,2.43-11.91,2.62c-5.2,0.24-10.34,1.67-15.58,0.98c-5.74-0.75-11.63-1.1-16.82-4.01
		c-5.61-3.15-9.66-7.78-11.65-13.97c-2.09-6.51-1.58-13.12,1.14-19.18c1.81-4.03,5.08-7.38,9.04-9.86
		c3.46-2.17,7.36-3.16,11.07-4.68c0.71-0.29,1.59-0.26,2.38-0.27c4.17-0.02,8.34,0.18,12.49-0.09c1.91-0.12,3.33,0.95,5.07,1.21
		c2.41,0.36,4.94,0.71,7.07,2.01c0.32-0.37,0.6-0.57,0.7-0.84c0.81-2.2-1.26-3.89-1.06-6.09c0.19-2.03-0.36-4.07-0.75-6.11
		c-1.08-5.69-7.77-9.83-13.43-10.17c-6.42-0.39-12.2,1.3-17.86,4.03C934.98,530.02,933.13,531.45,931.3,533.63z"/>
	<path class="st1" d="M920.2,614.17c0,14.94,0,29.72,0,44.66c-16.18,0-32.29,0-48.42,0c-0.71-3.94-0.93-30.3-0.33-44.66
		C887.54,614.17,903.65,614.17,920.2,614.17z"/>
	<path class="st1" d="M913.03,511.92c0.88,1.49,1.51,2.57,2.25,3.82c0,2.76,0,5.76,0,8.79c-0.96,0.97-2.22,0.56-3.26,0.43
		c-3.95-0.47-7.63,1.67-11.57,1.05c-4.49,1.81-8.89,3.72-10.17,9.1c-0.51,2.16-1.07,4.26-1.06,6.57c0.1,17.62,0.05,35.25,0.05,53.1
		c-4.26,0-8.49,0-13,0c0-1.45,0-2.91,0-4.38c0-16.96,0.2-33.93-0.09-50.89c-0.13-7.6,2.08-13.74,7.79-18.8
		c2.29-2.03,4.44-4.07,7.32-5.27c2.74-1.14,5.57-1.84,8.42-2.62C904.14,511.6,908.47,512.43,913.03,511.92z"/>
	<path class="st2" d="M1093.1,593.68c-0.53,0.53-0.88,0.88-1.28,1.28c-3.94,0-7.93,0-12.04,0c-0.39-0.37-0.86-0.82-1.42-1.35
		c0-26.38,0-52.83,0-79.17c0.84-1.06,1.74-1.51,3.04-1.47c3.48,0.1,6.97,0.04,10.37,0.04c0.44,0.44,0.8,0.8,1.32,1.32
		C1093.1,540.6,1093.1,567.05,1093.1,593.68z"/>
	<path class="st3" d="M676.44,420.09c6.62,0,13.07,0,19.67,0c0,17.52,0,34.96,0,52.74c-6.38,0.39-12.95,0.05-19.67,0.21
		C676.44,455.4,676.44,437.96,676.44,420.09z"/>
	<path class="st3" d="M709.43,607.34c0.31-0.3,0.79-0.76,1.28-1.22c6.08,0,12.19,0,18.43,0c0,17.54,0,34.97,0,52.64
		c-6.44,0-13,0-19.71,0C709.43,641.71,709.43,624.62,709.43,607.34z"/>
	<path class="st4" d="M831.38,635.84c0,1.3,0,2.09,0,3.04c6.21,0,12.32,0,18.67,0c0,6.73,0,13.29,0,19.99c-2.77,0-5.56,0-8.69,0
		c0-4.82,0-9.73,0-14.75c-3.46,0-6.57,0-10.04,0c0,4.88,0,9.79,0,14.78c-3.46,0-6.58,0-9.87,0c0-4.82,0-9.6,0-14.2
		c-0.29-0.31-0.39-0.45-0.52-0.54c-0.12-0.08-0.28-0.16-0.43-0.16c-5.97-0.01-11.94-0.01-17.73-0.01c-0.53-0.53-0.88-0.88-1.37-1.37
		c0-3.31,0-6.76,0-10.56c6.5,0,13.07,0,19.46,0c0.61-1.11,0.4-1.9,0.28-2.89c-6.42,0-12.87,0-19.13,0
		c-1.39-1.29-0.35-2.64-0.96-4.02c16.13,0,31.89,0,48,0c0.57,1.5,0.11,3.31,0.19,5.06c0.09,1.8,0.02,3.62,0.02,5.59
		C843.34,635.84,837.56,635.84,831.38,635.84z"/>
	<path class="st5" d="M959.45,625.09c10.27,0,20.38,0,30.66,0c0,6.19,0,12.31,0,18.67c-4.93,0-10.03,0-15.35,0
		c-1.81-2-1.81-2-0.2-4.61c1.67,0,3.46,0,5.48,0c0-3.4,0-6.63,0-10.01c-3.44,0-6.89,0-10.55,0c0,8.51,0,17.07,0,25.81
		c7.5,0,14.95,0,22.47,0c0.47,1.39,0.41,2.63,0.11,3.97c-10.88,0-21.66,0-32.62,0C959.45,647.75,959.45,636.64,959.45,625.09z"/>
	<path class="st5" d="M1051.28,614.01c3.16,0,6.33,0,9.65,0c0.83,2.43,2.23,4.73,2.42,7.89c-1.97,0.04-3.89,0.09-5.81,0.11
		c-1.98,0.02-3.95,0-6.43,0c4.13,12.37,8.16,24.44,12.28,36.76c-3.68,0-7.25,0-10.69,0c-4.2-12.29-8-24.68-12.36-36.63
		c-0.65-0.09-0.81-0.13-0.97-0.13c-8.83,0-17.66,0-26.48,0c-1.35-0.89-2.02-2.05-1.42-3.86c8.78,0,17.56,0,26.18,0
		c1.27-1.24,0.1-2.74,0.95-4.01c3.02,0,6.14,0,9.31,0c0.82,0.74,1.76,1.48,1.37,2.87c0.67,0.61,1.33,0.61,2,0c0-0.33,0-0.67,0-1
		C1050.69,615.34,1050.72,614.67,1051.28,614.01z"/>
	<path class="st6" d="M709.44,442.34c0.51-0.51,0.86-0.86,1.23-1.23c6.09,0,12.2,0,18.45,0c0,10.53,0,20.96,0,31.81
		c-6.4,0.19-12.96,0.03-19.69,0.1C709.44,462.74,709.44,452.64,709.44,442.34z"/>
	<path class="st7" d="M696.11,637.9c-6.23,0-12.33,0-18.44,0c-0.35-0.35-0.71-0.71-1.23-1.23c0-9.58,0-19.34,0-29.38
		c0.26-0.22,0.76-0.64,1.44-1.21c5.85,0,11.95,0,18.22,0C696.11,616.71,696.11,627.26,696.11,637.9z"/>
	<path class="st5" d="M1041.28,655.15c0,1.35,0,2.35,0,3.35c-0.68,0.68-19.09,0.86-29.72,0.29c-0.55-1.08-0.22-2.23-0.22-3.71
		c3.23,0,6.48,0,9.83,0c0-8.47,0-16.59,0-24.9c-2.43,0-4.89,0-7.27,0c-0.99-1.34-0.56-2.62-0.48-4.03c8.82,0,17.61,0,26.53,0
		c0.96,1.04-0.06,2.34,0.53,3.75c-2.88,0-5.33,0-7.99,0c0,8.41,0,16.65,0,25.24C1035.48,655.15,1038.39,655.15,1041.28,655.15z"/>
	<path class="st8" d="M1078.43,486.09c4.93,0,9.7,0,14.66,0c0,6.58,0,13.13,0,19.6c-0.43,0.43-0.78,0.78-1.22,1.22
		c-4.01,0-8.12,0-12.18,0c-0.39-0.39-0.74-0.74-1.25-1.25C1078.43,499.4,1078.43,492.97,1078.43,486.09z"/>
	<path class="st9" d="M984.14,614.17c0.11,0.96,0.19,1.75,0.3,2.69c2.47,0,4.92,0,7.21,0c1.28,1.33,0.23,2.64,0.82,4.03
		c-2.86,0-5.31,0-7.8,0c-0.25,0.71-0.46,1.29-0.7,1.99c-3.07,0-6.18,0-9.38,0c-0.19-0.52-0.4-1.1-0.65-1.78c-5.06,0-10.17,0-15.25,0
		c-0.57,0.33-0.37,0.87-0.44,1.62c-1.63,0.64-3.45,0.17-5.19,0.26c-1.8,0.09-3.62,0.02-5.17,0.02c-0.82-0.47-0.55-1.02-0.67-1.83
		c-2.16,0-4.4,0-6.39,0c-0.94-1.41-0.26-2.59-0.8-4.04c2.49,0,4.73,0,7.14,0c0.07-1.12,0.12-1.9,0.18-2.91c3.07,0,6.17,0,9.57,0
		c0.62,0.45,1.51,1.13,1.5,2.61c5.1,0,10.2,0,15.59,0c0.8-0.48-0.12-1.68,0.53-2.66C977.54,614.17,980.66,614.17,984.14,614.17z"/>
	<path class="st2" d="M951.05,658.86c-3.68,0-7.13,0-10.65,0c2-5.11,3.95-10.06,5.96-15.2c-2.65-2.6-4.22-5.99-6.08-9.46
		c3.53,0,6.97,0,10.52,0c1.8,3.36,4.75,6.28,6.13,10.37C955.02,649.2,953,654.12,951.05,658.86z"/>
	<path class="st2" d="M824.28,622.01c0.5,0,0.99,0,1.44,0c1.69-2.63,3.37-5.23,5.15-8c2.77,0,5.92-0.63,8.66,0.15
		c3.84,1.09,7.67,0.52,11.39,0.96c0.59,0.86,0.28,1.67,0.28,2.46c-0.7,1.11-2.36-0.36-3.03,1.32c0.38,1.56,2.06,2.26,3.12,3.75
		c-1.54,0.73-3.15,0.27-4.68,0.34c-1.64,0.08-3.29,0.02-4.75,0.02c-1.84-0.91-1.41-3.48-3.82-4.1c-1.15,0.95-2.65,1.84-3.02,4.1
		c-3.55,0-7.15,0-10.76,0c-0.25-0.22-0.33-0.44-0.25-0.67C824.11,622.12,824.19,622.01,824.28,622.01z"/>
	<path class="st5" d="M824.28,622.01c0,0.33,0,0.67,0,1c-2.82,0-5.65,0-8.47,0c-0.67-1.67-1.72-3.02-3.24-4
		c-2.48-0.07-1.85,2.8-3.81,3.8c-2.81,0-6.04,0-9.57,0c2.62-2.82,3.79-6.39,6.41-8.64c6.57-1.1,12.77,1.78,19.02,0.73
		c1.21,0.89,0.28,1.92,0.87,2.85c-1.3,0.19-2.22,0.33-3.18,0.47C822.93,619.64,824.86,620.16,824.28,622.01z"/>
	<path class="st2" d="M806.33,645.12c3.47,0,6.58,0,9.87,0c-2.09,4.74-3.58,9.55-6,13.76c-3.44,0-6.55,0-9.79,0
		C802.45,654.15,804.42,649.56,806.33,645.12z"/>
	<path class="st10" d="M946.7,632.84c-2.53-1.96-4.44-4.69-6.37-7.66c3.54,0,6.98,0,10.62,0c2.37,2.01,3.52,5.37,6.93,7.66
		C953.69,632.84,950.25,632.84,946.7,632.84z"/>
	<path class="st11" d="M1051.28,614.01c0,0.67,0,1.33,0,2c-0.94,0.07-1.06-0.57-0.98-1.24
		C1050.35,614.26,1050.67,613.89,1051.28,614.01z"/>
	<path class="st11" d="M1051.28,617.01c0.07,0.94-0.57,1.06-1.24,0.98c-0.5-0.06-0.87-0.37-0.76-0.98
		C1049.94,617.01,1050.61,617.01,1051.28,617.01z"/>
	<path class="st0" d="M763.88,541.9c-11.77,0-23.55,0-35.46,0c0-13.54,0-26.98,0-40.57c1.25-0.69,2.75-0.29,4.19-0.3
		c7.66-0.05,15.31-0.01,22.97-0.02c11.4-0.02,18.67,8.29,18.7,18.41c0.01,2.16,0.14,4.34-0.02,6.49c-0.51,6.78-2.7,12.55-9.66,15.31
		C764.31,541.32,764.12,541.66,763.88,541.9z"/>
	<path class="st12" d="M677.12,541.93c-8.29,0-16.4,0-25.07,0c8.21-9.39,16.1-18.48,25.07-27.25
		C677.12,523.96,677.12,532.73,677.12,541.93z"/>
	<path class="st0" d="M1157.14,581.59c-3.95,1.6-8.03,0.91-11.82,2.33c-2.25,0.84-12.23-0.2-14.52-0.92
		c-2.01-0.63-5.32-3.94-7.52-7.61c0-1.52-0.05-3.33,0.01-5.14c0.27-8.37-1.71-16.64-1.03-25.03c0.32-3.95,0.92-7.84,2.03-11.64
		c1.28-4.4,4.05-6.29,8.57-7.71c3.58-1.12,7.07-0.66,10.6-0.85c1.75-0.1,3.12,1.47,5.09,1.06c1.5-0.31,3.08-0.16,4.63,0.82
		c0.93,0.59,2.53,0.11,3.97,0.11C1157.14,545.32,1157.14,563.41,1157.14,581.59z"/>
	<path class="st0" d="M1047.18,529.08c0,18.11,0,35.86,0,53.97c-6.11-0.52-11.94,1.48-18.01,1.04c-2.73-0.2-5.42-0.65-7.82-1.64
		c-5.01-2.07-6.21-1.8-8.33-7.18c-0.11-0.28-0.45-0.48-0.86-0.88c1.03-9.7-1.3-19.44-1.01-29.32c0.1-3.43,0.59-6.83,1.33-10.01
		c1.05-4.5,4.56-7.52,9.07-9.05c2.13-0.72,4.28-1.21,6.57-1.02c3.85,0.32,7.69-0.24,11.6,0.85
		C1042.36,526.59,1044.58,527.79,1047.18,529.08z"/>
	<path class="st0" d="M846.22,559.31c0,8.35,0,16.33,0,24.76c-3.32-0.84-6.15,1.34-9.49,1.01c-3.13-0.31-6.36-0.35-9.48,0.02
		c-2.87,0.34-5.43-0.74-8.07-1.22c-3.11-0.56-5.05-3.38-7.11-5.64c-1.28-1.41-1.81-3.18-1.87-5.23c-0.14-4.79,0.15-5.72,1.53-9.06
		c1.57-3.79,5.37-4.67,8.09-6.94c5.72-0.52,11.44-2.4,17.16,0c2.51-0.74,4.65,1.24,7.08,0.99
		C845.11,557.89,845.39,558.86,846.22,559.31z"/>
	<path class="st0" d="M968.7,557.93c0.82,0.82,1.18,1.18,1.46,1.46c0,8.17,0,16.26,0,24.25c-7,1.86-14.03,1.2-21.01,1.41
		c-3.98,0.12-7.4-1.53-10.53-3.41c-2.36-1.42-3.92-4.01-4.39-7.06c-0.37-2.42-2.21-4.77,0.05-7.15c0.88-6.06,5.43-8.4,10.39-10.46
		c2.48-1.03,5.01-1.14,7.57-0.93c2.53,0.22,5.26-1.03,7.56,0.96C962.92,556.3,965.69,558.79,968.7,557.93z"/>
	<path class="st13" d="M894.1,618.11c1.65,0,2.77,0,4.06,0c0,8.22,0,16.34,0,24.68c3.07,0,5.97,0,9.06,0c0-8.16,0-16.28,0-24.29
		c1.22-0.88,2.41-0.32,3.52-0.49c0.71,0.63,0.95,24.97,0.35,38c-5.1,0-10.23,0-15.35,0c-5,0-9.99,0-15.22,0c0-12.59,0-25.16,0-37.87
		c1.44,0,2.9,0,4.71,0c0,8.19,0,16.43,0,24.76c3.14,0,5.92,0,8.88,0C894.1,634.74,894.1,626.63,894.1,618.11z"/>
	<path class="st0" d="M819.82,639.92c-3.03,0-6.12,0-9.38,0c0-1.51,0-2.95,0-4.83c3.26,0,6.35,0,9.39,0"/>
	<path class="st0" d="M840.19,628.17c0,1.27,0,2.38,0,3.66c-2.84,0-5.88,0-8.85,0c-0.03-0.99-0.01-2.25,0.06-3.66
		C834.2,628.17,836.97,628.17,840.19,628.17z"/>
</g>
</svg>
