<?xml version="1.0" encoding="utf-8"?>
<!-- Generator: Adobe Illustrator 26.0.2, SVG Export Plug-In . SVG Version: 6.00 Build 0)  -->
<svg version="1.1" id="logo" xmlns="http://www.w3.org/2000/svg" xmlns:xlink="http://www.w3.org/1999/xlink" x="0px" y="0px"
	 viewBox="0 0 1920 1080" style="enable-background:new 0 0 1920 1080;" xml:space="preserve">
<style type="text/css">
	.st0{fill:#099DFD;}
</style>
<g>
	<g>
		<path class="st0" d="M1302.54,549.72c-20.81,0-37.73-16.93-37.73-37.73s16.93-37.73,37.73-37.73s37.73,16.93,37.73,37.73
			S1323.34,549.72,1302.54,549.72 M1302.54,443.56c-37.73,0-68.43,30.7-68.43,68.43c0,37.73,30.7,68.43,68.43,68.43
			c37.73,0,68.43-30.7,68.43-68.43C1370.97,474.26,1340.27,443.56,1302.54,443.56"/>
		<path class="st0" d="M1416.4,461.19l-0.86,0.83l-0.91,0.88l-0.6-1.12l-0.57-1.06c-4.93-9.16-14.01-15.47-24.29-16.87l-2.54-0.35
			v136.95l2.56-0.37c14.01-2.03,28.14-12.79,28.14-32.21V512c0-19.1,14.87-35.59,33.86-37.53l2.01-0.2v-30.72l-2.46,0.24
			C1438.83,444.95,1426.96,450.97,1416.4,461.19"/>
		<path class="st0" d="M995.67,549.77c-20.81,0-37.73-16.93-37.73-37.73c0-20.81,16.93-37.73,37.73-37.73s37.73,16.93,37.73,37.73
			C1033.4,532.84,1016.47,549.77,995.67,549.77 M1039.59,457.12l-0.54,0.75l-0.58,0.8l-0.78-0.59l-0.74-0.56
			c-11.98-9.1-26.26-13.9-41.29-13.9c-37.73,0-68.43,30.7-68.43,68.43s30.7,68.43,68.43,68.43c15.03,0,29.3-4.81,41.28-13.91
			l0.74-0.56l0.78-0.59l0.58,0.79l0.55,0.75c5.2,7.18,13.2,12,21.96,13.21l2.54,0.35V443.56l-2.54,0.35
			C1052.8,445.12,1044.79,449.93,1039.59,457.12"/>
		<path class="st0" d="M1529.3,549.77c-20.81,0-37.73-16.93-37.73-37.73c0-20.81,16.93-37.73,37.73-37.73
			c20.81,0,37.73,16.93,37.73,37.73C1567.03,532.84,1550.1,549.77,1529.3,549.77 M1595.18,443.91c-8.76,1.21-16.76,6.02-21.96,13.21
			l-0.54,0.75l-0.58,0.8l-0.78-0.59l-0.74-0.56c-11.98-9.1-26.26-13.9-41.29-13.9c-37.73,0-68.43,30.7-68.43,68.43
			c0,37.73,30.7,68.43,68.43,68.43c15.03,0,29.3-4.81,41.29-13.9l0.74-0.56l0.78-0.59l0.58,0.79l0.54,0.75
			c5.2,7.19,13.2,12,21.96,13.21l2.54,0.35V443.56L1595.18,443.91z"/>
		<path class="st0" d="M1150.16,474.26h0.05c20.79,0.01,37.7,16.94,37.7,37.73c0,20.81-16.93,37.73-37.73,37.73
			s-37.73-16.93-37.73-37.73C1112.46,491.19,1129.37,474.27,1150.16,474.26 M1192.93,565.37c15.64-12.55,25.68-31.81,25.68-53.38
			c0-14.2-4.35-27.41-11.79-38.35c-0.99-1.46-2.06-2.86-3.16-4.24c8.41-5.33,13.27-14.33,14.57-23.28l0.37-2.56h-68.73v0.01
			c-37.59,0.16-68.13,30.79-68.13,68.42c0,21.57,10.04,40.83,25.69,53.38c-2.94,2.36-5.68,4.94-8.2,7.74l20.87,22.87
			c6.9-9.08,17.81-14.97,30.07-14.97c20.81,0,37.73,16.93,37.73,37.73c0,13.49-7.12,25.35-17.8,32.02l20.88,22.88
			c16.75-12.49,27.62-32.44,27.62-54.89C1218.62,597.18,1208.58,577.92,1192.93,565.37"/>
	</g>
	<g>
		<path class="st0" d="M542.66,446.11v-24.84l-94.27,0v-14.91l-2.37,0.34c-8.68,1.26-17.4,6.12-22.21,14.57l-98.2,0v24.84h94.41
			l0,16.56l-81.32,0v24.84h191.01v-24.84l-81.31,0v-16.56H542.66z"/>
		<path class="st0" d="M791.24,446.89c-1.63-13.52-12.55-24.24-26.21-25.62H574.19l0,219.84l2.37-0.34
			c12.95-1.87,26.01-11.76,26.01-29.64l0-165.01H756.3c3.63,0,6.56,2.92,6.56,6.53c0,0,0.01,148.29,0.01,148.31
			c0,12.41-6.58,23.3-16.44,29.43l19.29,21.03c15.48-11.47,25.52-29.82,25.52-50.46L791.24,446.89z"/>
		<path class="st0" d="M755.74,474.04l-1.99-0.67c-10.9-3.68-25.12-1.11-32.3,12.91l-8.46,16.52l-8.72-17.02
			c-0.01-0.01-0.01-0.01-0.01-0.02c-2.4-4.69-5.6-8.09-9.18-10.41c-0.04-0.03-0.09-0.05-0.13-0.08c-3.57-2.16-7.76-3.41-12.23-3.41
			c-4.47,0-8.66,1.25-12.23,3.41c-0.14,0.08-0.28,0.18-0.42,0.27c-3.45,2.3-6.52,5.62-8.86,10.15c-0.01,0.01-0.01,0.02-0.01,0.02
			c-0.01,0.02-0.01,0.03-0.02,0.05l-8.73,17.04l-8.46-16.52c-7.18-14.02-21.39-16.58-32.3-12.91l-1.99,0.67l28.74,56.12
			l-28.74,56.12l1.99,0.67c10.91,3.68,25.12,1.11,32.3-12.91l8.46-16.52l8.73,17.04c0.01,0.02,0.02,0.03,0.02,0.05
			c0.01,0.01,0.01,0.01,0.01,0.02c2.34,4.53,5.41,7.85,8.86,10.15c0.14,0.09,0.28,0.18,0.42,0.27c3.57,2.16,7.76,3.41,12.23,3.41
			c4.47,0,8.66-1.25,12.23-3.41c0.05-0.03,0.09-0.05,0.13-0.08c3.59-2.31,6.78-5.72,9.18-10.41c0.01-0.01,0.01-0.01,0.01-0.02
			l8.72-17.02l8.46,16.52c7.17,14.02,21.39,16.58,32.3,12.91l1.99-0.67L727,530.16L755.74,474.04z M682.71,561.91l-16.26-31.75
			l16.26-31.75l16.26,31.75L682.71,561.91z"/>
		<path class="st0" d="M529.71,504.08l-191.01,0c0,0,0.01,96.75,0.01,96.88c0,12.41-6.58,23.3-16.44,29.43l19.29,21.03
			c15.48-11.47,25.52-29.82,25.52-50.46V577.4h136.35c13.62-1.38,24.54-12.05,26.21-25.52L529.71,504.08z M367.08,528.92h52.94
			l0,23.64h-52.94V528.92z M501.27,546.34c0,3.43-2.8,6.21-6.25,6.21H448.4v-23.64h52.87L501.27,546.34z"/>
	</g>
</g>
</svg>
