<svg xmlns="http://www.w3.org/2000/svg" viewBox="0 0 65.52 8.73"><g id="图层_2" data-name="图层 2"><g id="图层_1-2" data-name="图层 1"><path d="M8.62,8.59H6.73L6,6.64H2.55l-.71,2H0L3.35,0H5.18ZM5.43,5.19,4.24,2,3.08,5.19Z"/><path d="M13.62,8.59V7.66a2.32,2.32,0,0,1-.89.78,2.53,2.53,0,0,1-1.17.29,2.29,2.29,0,0,1-1.12-.27,1.67,1.67,0,0,1-.73-.78A3.61,3.61,0,0,1,9.49,6.3V2.37h1.65V5.23a7.88,7.88,0,0,0,.09,1.6.85.85,0,0,0,.33.47,1,1,0,0,0,.61.18,1.36,1.36,0,0,0,.76-.23,1.2,1.2,0,0,0,.45-.58A6.66,6.66,0,0,0,13.51,5V2.37h1.64V8.59Z"/><path d="M19.71,2.37V3.68H18.59V6.19a6.79,6.79,0,0,0,0,.89.35.35,0,0,0,.14.2.45.45,0,0,0,.28.09,2.31,2.31,0,0,0,.67-.16l.14,1.27a3.22,3.22,0,0,1-1.31.25,2.07,2.07,0,0,1-.8-.15,1.13,1.13,0,0,1-.52-.39A1.45,1.45,0,0,1,17,7.55a7,7,0,0,1-.06-1.16V3.68h-.75V2.37h.75V1.13l1.66-1v2.2Z"/><path d="M20.47,5.39a3.36,3.36,0,0,1,.41-1.59A2.8,2.8,0,0,1,22,2.63a3.42,3.42,0,0,1,1.66-.4A3.1,3.1,0,0,1,26,3.14a3.18,3.18,0,0,1,.9,2.32A3.2,3.2,0,0,1,26,7.8a3.06,3.06,0,0,1-2.29.93,3.59,3.59,0,0,1-1.63-.39,2.58,2.58,0,0,1-1.18-1.13A3.77,3.77,0,0,1,20.47,5.39Zm1.69.09A2.08,2.08,0,0,0,22.6,6.9a1.44,1.44,0,0,0,2.16,0,2.06,2.06,0,0,0,.44-1.43,2,2,0,0,0-.44-1.41,1.44,1.44,0,0,0-2.16,0A2.08,2.08,0,0,0,22.16,5.48Z"/><path d="M28.06,2.37h1.52v.85a2.44,2.44,0,0,1,1.94-1,2.09,2.09,0,0,1,1,.24,1.88,1.88,0,0,1,.73.75,2.78,2.78,0,0,1,.88-.75,2.21,2.21,0,0,1,1-.24,2.29,2.29,0,0,1,1.16.27,1.68,1.68,0,0,1,.71.82,3.44,3.44,0,0,1,.17,1.29v4H35.57V5a2.69,2.69,0,0,0-.17-1.19.78.78,0,0,0-.71-.35A1.14,1.14,0,0,0,34,3.7a1.16,1.16,0,0,0-.44.62,4.45,4.45,0,0,0-.13,1.28v3H31.82V5.18A4.55,4.55,0,0,0,31.73,4a.67.67,0,0,0-.27-.39.82.82,0,0,0-.5-.13,1.14,1.14,0,0,0-1.12.79,4.39,4.39,0,0,0-.13,1.29v3H28.06Z"/><path d="M38.47,5.39a3.36,3.36,0,0,1,.41-1.59A2.8,2.8,0,0,1,40,2.63a3.42,3.42,0,0,1,1.66-.4A3.1,3.1,0,0,1,44,3.14a3.18,3.18,0,0,1,.9,2.32A3.2,3.2,0,0,1,44,7.8a3.06,3.06,0,0,1-2.29.93,3.59,3.59,0,0,1-1.63-.39,2.58,2.58,0,0,1-1.18-1.13A3.77,3.77,0,0,1,38.47,5.39Zm1.69.09A2.08,2.08,0,0,0,40.6,6.9a1.44,1.44,0,0,0,2.16,0,2.06,2.06,0,0,0,.44-1.43,2,2,0,0,0-.44-1.41,1.44,1.44,0,0,0-2.16,0A2.08,2.08,0,0,0,40.16,5.48Z"/><path d="M49,2.37V3.68H47.91V6.19a6.79,6.79,0,0,0,0,.89.37.37,0,0,0,.15.2.45.45,0,0,0,.28.09A2.33,2.33,0,0,0,49,7.21l.14,1.27a3.14,3.14,0,0,1-1.3.25,2,2,0,0,1-.8-.15,1.23,1.23,0,0,1-.53-.39,1.59,1.59,0,0,1-.23-.64,9,9,0,0,1-.05-1.16V3.68H45.5V2.37h.76V1.13l1.65-1v2.2Z"/><path d="M50.18,1.52V0h1.65V1.52Zm0,7.07V2.37h1.65V8.59Z"/><path d="M55.22,8.59l-2.5-6.22h1.73l1.17,3.17L56,6.6c.09-.27.14-.44.17-.53s.11-.35.17-.53l1.19-3.17h1.69L56.71,8.59Z"/><path d="M63.79,6.61l1.64.27a2.66,2.66,0,0,1-1,1.38,3,3,0,0,1-1.71.47,2.77,2.77,0,0,1-2.4-1.06,3.56,3.56,0,0,1-.61-2.14,3.45,3.45,0,0,1,.81-2.43,2.65,2.65,0,0,1,2-.87,2.75,2.75,0,0,1,2.19.91A4.05,4.05,0,0,1,65.52,6H61.39a1.72,1.72,0,0,0,.4,1.14,1.26,1.26,0,0,0,1,.41,1,1,0,0,0,.65-.21A1.29,1.29,0,0,0,63.79,6.61ZM63.88,5a1.6,1.6,0,0,0-.36-1.09,1.2,1.2,0,0,0-1.75,0A1.57,1.57,0,0,0,61.42,5Z"/></g></g></svg>