<?xml version="1.0" encoding="utf-8"?>
<!-- Generator: Adobe Illustrator 26.0.3, SVG Export Plug-In . SVG Version: 6.00 Build 0)  -->
<svg version="1.1" id="图层_1" xmlns="http://www.w3.org/2000/svg" xmlns:xlink="http://www.w3.org/1999/xlink" x="0px" y="0px"
	 viewBox="0 0 200 200" style="enable-background:new 0 0 200 200;" xml:space="preserve">
<path d="M144.5,41.4l20.6,32.2c0.8,0,1.7-0.8,2.5-0.8h13.2c2.5,0,5,2.5,5,5s-2.5,5-5,5h-9.9l2.5,3.3h6.6c2.5,0,5,1.7,5,5v46.2
	c0,2.5-1.7,5-4.1,5v19.8c0,2.5-2.5,4.1-5,4.1l0,0h-20.6c-2.5,0-5-1.7-5-4.1v-0.8v-19h-5.8v-9.9h10.7c2.5,0,5,2.5,5,5V157h10.7v-19.8
	l0,0c0-2.5,1.7-4.1,4.1-4.1l0-38h-30.5v-9.9H161l-16.5-25.6V41.4L144.5,41.4z"/>
<path d="M54.5,42.2l3.3-5.8c0.8-1.7,2.5-2.5,4.1-2.5l0,0h75.1c1.7,0,2.5,1.7,4.1,2.5l0,0l3.3,5v18.2l-10.7-15.7l-69.3,0l-9.9,15.7
	V42.2L54.5,42.2z"/>
<polygon points="144.5,142.1 54.5,142.1 54.5,132.2 144.5,132.2 144.5,142.1 "/>
<polygon points="144.5,85.1 144.5,95 54.5,95 54.5,85.1 144.5,85.1 "/>
<path d="M25.6,86l1.7-3.3h-9.1c-2.5,0-5-2.5-5-5s2.5-5,5-5h13.2c0.8,0,1.7,0.8,1.7,0.8l21.5-31.4v17.3L37.2,85.1h17.3V95l-29.7,0
	v37.1l0,0c3.3,0,5,2.5,5,5V157h11.6v-19.8l0,0c0-2.5,1.7-5,5-5h8.3v9.9h-3.3v19.8c0,2.5-2.5,4.1-5,4.1l0,0H24.8
	c-2.5,0-4.1-1.7-4.1-4.1v-0.8v-19h-0.8c-2.5,0-5-1.7-5-5l0,0V90.9c0-3.3,2.5-5,5-5H25.6L25.6,86z"/>
<path d="M179.7,112.6h-23.4c-1.4,0-2.8-0.8-3.5-2l-10.5-18.5l7-4l9.4,16.5h21.1V112.6z"/>
<path d="M43.7,112.6H20.3v-8h21.1l9.4-16.5l7,4l-10.5,18.5C46.5,111.8,45.2,112.6,43.7,112.6z"/>
<path d="M116.7,122.4H83.4c-2.2,0-4-1.8-4-4s1.8-4,4-4h33.3c2.2,0,4,1.8,4,4S118.9,122.4,116.7,122.4z"/>
</svg>
