<?xml version="1.0" encoding="utf-8"?>
<!-- Generator: Adobe Illustrator 25.4.1, SVG Export Plug-In . SVG Version: 6.00 Build 0)  -->
<svg version="1.1" id="图层_1" xmlns="http://www.w3.org/2000/svg" xmlns:xlink="http://www.w3.org/1999/xlink" x="0px" y="0px"
	 viewBox="0 0 2048 550" style="enable-background:new 0 0 2048 550;" xml:space="preserve">
<style type="text/css">
	.st0{fill:none;}
	.st1{fill:#FFFFFF;}
	.st2{fill:#265787;}
	.st3{fill:#EA7600;}
	.st4{enable-background:new    ;}
	.st5{fill:#236192;}
</style>
<desc>A free and open source 3D computer graphics software</desc>
<g transform="translate(-7.7861)">
	<g id="vlpa" transform="matrix(1 0 0 .8352 7.7861 -42.991)">
		<rect y="51.5" class="st0" width="2048" height="658.5"/>
		<g transform="matrix(4.1667 0 0 4.9888 -191.11 2195)">
			<g transform="matrix(5.1923 0 0 5.1923 -1154.3 1375.3)">
				<path class="st1" d="M243.1-333.7c0.1-1.9,1-3.6,2.4-4.7c1.4-1.2,3.2-1.9,5.2-1.9c2,0,3.9,0.7,5.2,1.9c1.4,1.2,2.3,2.8,2.4,4.7
					c0.1,1.9-0.7,3.7-2,5.1c-1.4,1.4-3.4,2.2-5.6,2.2s-4.2-0.9-5.6-2.2C243.8-330,243-331.8,243.1-333.7L243.1-333.7z"/>
			</g>
			<g transform="matrix(2.6642 0 0 2.6642 -520.32 532.51)">
				<path class="st2" d="M243.1-333.7c0.1-1.9,1-3.6,2.4-4.7c1.4-1.2,3.2-1.9,5.2-1.9c2,0,3.9,0.7,5.2,1.9c1.4,1.2,2.3,2.8,2.4,4.7
					c0.1,1.9-0.7,3.7-2,5.1c-1.4,1.4-3.4,2.2-5.6,2.2s-4.2-0.9-5.6-2.2C243.8-330,243-331.8,243.1-333.7L243.1-333.7z"/>
				<path class="st3" d="M230.9-329.9c0,0.7,0.2,2.2,0.6,3.3c0.7,2.4,2,4.6,3.8,6.5c1.8,2,4,3.6,6.6,4.7c2.7,1.2,5.6,1.8,8.6,1.8
					c3,0,5.9-0.6,8.6-1.8c2.6-1.1,4.8-2.8,6.6-4.7c1.8-1.9,3-4.1,3.8-6.5c0.4-1.2,0.6-2.4,0.7-3.6c0.1-1.2,0.1-2.4-0.1-3.6
					c-0.3-2.4-1.1-4.6-2.4-6.6c-1.1-1.8-2.6-3.5-4.4-4.8l0,0l-17.7-13.6c0,0,0,0,0,0c-1.2-0.9-3.1-0.9-4.4,0
					c-1.3,0.9-1.4,2.4-0.3,3.3l0,0l7.4,6l-22.5,0h0c-1.9,0-3.6,1.2-4,2.8c-0.4,1.6,0.9,2.9,2.8,2.9l0,0l11.4,0l-20.4,15.6
					c0,0-0.1,0-0.1,0.1c-1.9,1.5-2.5,3.9-1.3,5.5c1.2,1.6,3.8,1.6,5.8,0l11.1-9.1C231.1-331.9,230.9-330.6,230.9-329.9L230.9-329.9z
					 M259.5-325.8c-2.3,2.3-5.5,3.7-9,3.7c-3.5,0-6.7-1.3-9-3.6c-1.1-1.1-1.9-2.4-2.4-3.8c-0.5-1.4-0.7-2.8-0.6-4.3
					c0.1-1.4,0.5-2.8,1.2-4c0.7-1.2,1.6-2.3,2.7-3.2c2.2-1.8,5.1-2.8,8-2.8c3,0,5.8,1,8,2.8c1.1,0.9,2.1,2,2.7,3.2
					c0.7,1.2,1.1,2.6,1.2,4c0.1,1.5-0.1,2.9-0.6,4.3C261.4-328.2,260.6-326.9,259.5-325.8L259.5-325.8z"/>
				<path class="st2" d="M364.5-333.8c0.2-1.9,1.6-3.1,3.9-3.1c2.3,0,3.7,1.2,3.9,3.1H364.5z M372-329c-0.6,1.4-1.9,2.3-3.8,2.3
					c-2.3,0-3.9-1.4-3.9-3.7h13.3v-0.7c0-5.7-3.4-8.9-9.4-8.9c-5.8,0-9.4,3.2-9.4,8.3c0,5.1,3.6,8.4,9.4,8.4c3.5,0,6.2-1.2,7.8-3.3
					L372-329L372-329z"/>
				<path class="st2" d="M305.5-333.7c0.2-1.9,1.7-3.1,3.9-3.1c2.3,0,3.7,1.2,3.9,3.1H305.5z M313-329c-0.6,1.4-1.9,2.3-3.8,2.3
					c-2.3,0-3.9-1.4-3.9-3.7h13.3v-0.7c0-5.7-3.4-8.9-9.4-8.9c-5.8,0-9.4,3.2-9.4,8.3c0,5.1,3.6,8.4,9.4,8.4c3.5,0,6.2-1.2,7.8-3.3
					L313-329L313-329z"/>
				<rect x="293.9" y="-343.6" class="st2" width="4.8" height="19.6"/>
				<path class="st2" d="M319.8-338.4h4.8v1.2c1.7-1.8,3.8-2.7,6.1-2.7c2.7,0,4.7,0.9,5.7,2.5c0.9,1.3,0.9,2.9,0.9,4.9v8.6h-4.8
					v-7.5c0-3.1-0.6-4.6-3.4-4.6c-2.8,0-4.5,1.7-4.5,4.4v7.7h-4.8V-338.4L319.8-338.4z"/>
				<path class="st2" d="M352.9-331.5c0,2.7-1.8,4.4-4.6,4.4c-2.8,0-4.6-1.7-4.6-4.4c0-2.8,1.8-4.5,4.6-4.5
					C351.1-336,352.9-334.2,352.9-331.5z M352.9-337.7c-1.2-1.3-3-2-5.4-2c-5.3,0-8.9,3.3-8.9,8.2c0,4.8,3.6,8.1,8.8,8.1
					c2.4,0,4.2-0.6,5.5-2v1.4h4.8v-20.9l-4.8,1.2V-337.7z"/>
				<path class="st2" d="M283-336c2.8,0,4.6,1.7,4.6,4.5c0,2.7-1.8,4.4-4.6,4.4c-2.8,0-4.6-1.8-4.6-4.4
					C278.4-334.2,280.2-336,283-336z M278.4-343.6l-4.8-1.2v20.9h4.8v-1.4c1.4,1.4,3.1,2,5.5,2c5.2,0,8.8-3.4,8.8-8.1
					c0-4.9-3.6-8.2-8.9-8.2c-2.5,0-4.2,0.7-5.4,2L278.4-343.6L278.4-343.6z"/>
				<path class="st2" d="M378.8-323.9v-14.4h4.8v0.9c1.4-1.7,3-2.6,4.7-2.6c0.3,0,0.8,0.1,1.4,0.1v4.1c-0.5-0.1-1-0.1-1.5-0.1
					c-2.8,0-4.5,1.9-4.5,5v7L378.8-323.9L378.8-323.9z"/>
			</g>
			<g transform="matrix(.27199 0 0 .27199 -78.096 -584.9)">
				<g class="st4">
					<path class="st5" d="M2244.6,779.8c-3.5,3.4-7.7,5.1-12.6,5.1c-5.1,0-9.3-1.7-12.8-5.2c-3.5-3.5-5.2-7.7-5.2-12.8
						c0-5.3,1.9-9.6,5.6-13.1c3.5-3.3,7.6-4.9,12.4-4.9c5,0,9.2,1.8,12.7,5.3c3.5,3.5,5.3,7.8,5.3,12.7
						C2250,772,2248.2,776.3,2244.6,779.8z M2221.5,756.4c-2.9,2.9-4.3,6.4-4.3,10.4c0,4.2,1.5,7.7,4.4,10.6
						c2.9,2.9,6.4,4.4,10.5,4.4c4.1,0,7.6-1.5,10.5-4.4c2.9-2.9,4.3-6.5,4.3-10.6c0-4-1.4-7.5-4.3-10.4c-2.9-3-6.4-4.5-10.5-4.5
						C2227.9,751.9,2224.4,753.4,2221.5,756.4z M2224.1,776.9v-19.9c1.2,0,3.1,0,5.6,0c2.5,0,3.8,0,4.1,0c1.6,0.1,2.9,0.5,3.9,1
						c1.8,1,2.7,2.6,2.7,4.8c0,1.7-0.5,2.9-1.4,3.6c-0.9,0.7-2.1,1.2-3.5,1.3c1.3,0.3,2.2,0.6,2.8,1.2c1.2,0.9,1.8,2.4,1.8,4.5v1.8
						c0,0.2,0,0.4,0,0.6c0,0.2,0.1,0.4,0.1,0.6l0.2,0.6h-5c-0.2-0.6-0.3-1.6-0.3-2.8c-0.1-1.2-0.2-2-0.3-2.4
						c-0.3-0.7-0.7-1.2-1.5-1.5c-0.4-0.2-1-0.3-1.8-0.3l-1.1-0.1h-1.1v7.1H2224.1z M2233.7,760.9c-0.7-0.3-1.7-0.4-3-0.4h-1.3v5.8h2
						c1.2,0,2.2-0.2,2.9-0.7s1-1.3,1-2.4C2235.3,762,2234.7,761.3,2233.7,760.9z"/>
				</g>
			</g>
		</g>
	</g>
</g>
</svg>
