<?xml version="1.0" encoding="utf-8"?>
<!-- Generator: Adobe Illustrator 25.2.1, SVG Export Plug-In . SVG Version: 6.00 Build 0)  -->
<svg version="1.1" id="图层_1" xmlns="http://www.w3.org/2000/svg" xmlns:xlink="http://www.w3.org/1999/xlink" x="0px" y="0px"
	 viewBox="0 0 3189 383" style="enable-background:new 0 0 3189 383;" xml:space="preserve">
<style type="text/css">
	.st0{fill:#FDFDFD;}
	.st1{fill:#007FCB;}
	.st2{fill:#383635;}
	.st3{fill:#3F9ED8;}
	.st4{fill:#FBFCFD;}
	.st5{fill:#FBFDFD;}
	.st6{fill:#393736;}
	.st7{fill:#7A7878;}
	.st8{fill:#FEFEFE;}
</style>
<g>
	<path class="st0" d="M368.6,0.1c938.4,0,1876.9,0,2815.3-0.1c4.3,0,5.1,1,5.1,5.1c-0.2,66.5-0.1,133-0.1,199.6
		c-3.6,2.5-7.1,0.4-10.5-0.5c-7.9-2.3-7.8-2.4-9.2,5.6c-1.4,8.1-7.6,12.6-15,10.9c-4.9-1.1-7.6-4-7.7-9c-0.2-18-0.2-35.9,0-53.9
		c0-5,1.3-6.2,6.3-6.3c6.8-0.2,13.7-0.3,20.5,0.1c3.1,0.2,4.3-1,4.1-4c-0.1-1.3,0-2.7,0-4c0-8.4-0.6-9.1-8.7-8
		c-10.6,1.4-21.3,0.6-31.9,0.7c-17.3,0.2-34.6-0.1-52,0.1c-5.2,0-10.3-1-15.4-1.1c-3.7-0.1-4.9,1.4-5.1,5
		c-0.4,11.1-0.5,11.1,10.5,11.1c3.2,0,6.3-0.1,9.5,0.1c2.9,0.1,4.9,1.5,4.9,4.5c-0.1,17.6-1.3,35-13.2,49.5
		c-6.6,8-15.2,12.8-25,15.7c-4.9,1.5-5,1.8-2.3,5.9c1.7,2.6,3.3,5.4,4.7,8.2c2.5,4.8,3.6,5.1,8.7,3.1c22.1-8.7,34.9-25.1,40.3-47.9
		c2.6-10.9,3.8-21.9,4.9-33c0.4-4.4,2.4-6.2,6.7-6.1c3.7,0.1,7.3,0,11,0.1c3.5,0.1,5.2,1.9,5.3,5.3c0.1,1.8,0.1,3.7,0.1,5.5
		c0,19.6,0,39.2,0,58.9c0,9.2,5,15.1,14.2,15.9c8.6,0.7,17.3,0.5,26,0.1c5.9-0.3,9.6-4.2,11.9-9.4c1.5-3.5,2.2-7.3,3.1-11
		c0.5-2,0.4-4.5,3.3-4.9c0,31.6,0,63.2,0,94.8c-2.4,0-2.3-2.1-2.8-3.5c-5.7-14.7-24.1-20.2-37.4-11.3c-16.6,11.1-18.3,40-3.5,51.5
		c3.5,2.7,7.2,5,11.4,5.8c7.9,1.6,15.9,1.5,23.8,0.2c4.3-0.7,6.3-4.2,5.7-8.4c-0.4-2.5-2-1.8-3.4-1.4c-5.4,1.3-10.9,1.8-16.4,1.3
		c-8.5-0.7-15.3-4.4-18.9-12.6c-2.2-4.9-1-6.4,4.3-7.1c10.5-1.4,20.9-0.8,31.4-0.9c2,0,4-0.1,5.7,1.4c0,19.3-0.1,38.6,0.1,57.9
		c0,2.5-0.5,3.5-3.1,3c-0.6-0.1-1.3,0-2,0c-938.8,0-1877.5,0-2816.3,0c-0.3-0.7-0.1-1.2,0.4-1.7c10.9-4.2,14.1-12.5,14.1-23.7
		c-0.2-110.3-0.2-220.6,0-330.9c0-10.3-1.9-18.8-12-23.6C369.2,2.1,368.4,1.3,368.6,0.1z"/>
	<path class="st1" d="M368.6,0.1c10.9,4,15,11.8,15,23.4c-0.2,112.5-0.1,225-0.1,337.5c0,11.3-5.7,18.8-15.6,20.4
		c-1.9,0.7-4,0.3-5.9,0.3c-113.1,0-226.2,0-339.3,0c-2,0-4-0.5-5.9,0.5c-0.7,0-1.3,0-2,0c-7.5-1.8-12.2-6.5-14-14
		c0-118.4,0-236.8,0-355.3c2.1-7.1,6.6-11.6,14-13C132.6,0.1,250.6,0.1,368.6,0.1z"/>
	<path class="st2" d="M3188.9,211.7c-2.5,4.2-2.5,9-4,13.5c-3,9.6-7.1,13.3-17.1,13.7c-7.8,0.3-15.7,0.2-23.4-0.4
		c-10.1-0.7-15.9-7.4-15.9-17.4c0-21.3-0.1-42.6,0.1-63.8c0-3.7-0.9-5-4.7-4.7c-4.8,0.4-11.2-1.5-13.9,0.9c-2.6,2.4-1.5,9-2,13.7
		c-1.3,11.9-3.3,23.7-7.6,34.9c-7.5,19.9-22,32.3-41.8,39.1c-2.2,0.8-3.6,0.7-4.7-1.8c-2.5-6.2-6.4-11.6-10.3-17
		c0.6-1.4,1.9-1.3,2.9-1.6c25-6.7,37.7-21.4,40.3-47c0.6-5.9,0.6-11.9,1-17.9c0.2-2.6-0.5-3.5-3.2-3.4c-6.3,0.2-12.7-0.2-18.9,0.9
		c-2.4,0.4-3.4-0.1-3.3-2.7c0.1-4.8,0.1-9.6,0-14.5c0-2,0.4-2.9,2.9-2.7c27.1,1.6,54.3,0.5,81.4,0.8c9.5,0.1,19,0.2,28.4-0.7
		c3.1-0.3,3.7,0.7,3.6,3.4c-0.2,4.5-0.2,9,0,13.5c0.1,2.8-0.7,3.3-3.4,2.9c-7.9-1.2-16-0.6-23.9-0.8c-2.6-0.1-3.4,0.7-3.4,3.4
		c0.1,18.8,0.1,37.6,0,56.4c0,2.7,0.8,5.2,3.5,6c4,1.3,8.1,2.3,11.9-0.6c2.8-2.2,4.1-5.1,4.5-8.6c0.3-3.3,0.7-6.6,1.1-10.2
		c6.6,2.7,12.8,5.8,19.9,5.7C3188.9,207,3188.9,209.4,3188.9,211.7z"/>
	<path class="st2" d="M3188.9,321.5c-13.8,0-27.6,0-41.5,0c2.3,14.2,13.3,22.5,40.2,15.5c0.9,3.5-0.8,6.9-0.7,10.3
		c0,1.8-1.3,2.2-2.6,2.5c-12.1,2.9-24.1,3.8-35.5-2.3c-14.7-7.8-19.8-28-11.5-44.6c6.6-13.2,18.2-19.1,32.5-16.3
		c9.6,1.9,15.4,8,18.1,17.2c0.3,0.9-0.2,2.1,1,2.6C3188.9,311.5,3188.9,316.5,3188.9,321.5z"/>
	<path class="st3" d="M16.7,382.3c1.3-1.6,3.1-1,4.7-1c114.3,0,228.6,0,343,0c1.2,0,2.3,0.1,3.5,0.1c0,0.3-0.1,0.6-0.2,0.9
		C250.6,382.3,133.6,382.3,16.7,382.3z"/>
	<path class="st4" d="M0.7,368.4c2.9,6.5,7.9,10.7,14,14c-4.7,0-11.2,1.8-13.5-0.5C-1.1,379.5,0.7,373,0.7,368.4z"/>
	<path class="st5" d="M14.7,0.1C8.4,2.7,4,7.4,0.7,13.1c0-4.3,0-8.6,0-13C5.3,0.1,10,0.1,14.7,0.1z"/>
	<path class="st2" d="M1102.6,194.2c6.6,3.9,12.7,7.4,19.3,10.1c1.6,0.6,1.9,1.6,1.5,3.1c-2.5,9.5-5.2,18.9-12.3,26.3
		c-3.6,3.7-7.9,5.4-13,5.3c-25.3,0-50.6,0.1-76,0c-12.7,0-21.1-8.6-21.2-21.4c-0.1-12-0.1-23.9,0.1-35.9c0.1-3.4-0.7-4.6-4.4-4.6
		c-12.7,0.2-25.3,0.2-38,0c-3.6-0.1-4.8,1.2-4.2,4.5c0.8,4.5-1,5.7-5.4,5.3c-5.3-0.4-10.7-0.2-16-0.1c-2.4,0.1-3.3-0.3-3.2-3.2
		c1.6-41.4,1.8-82.7,0-124.1c-0.2-3.7,1.8-2.7,3.6-2.6c21,1.8,42,0.5,62.9,1.1c3.9,0.1,4.8-1.1,4.6-4.7c-0.4-7.1-0.3-14.3-0.8-21.4
		c-0.2-2.8,0.2-3.9,3.3-3.8c6.2,0.2,12.3,0.2,18.5,0c2.8-0.1,3.2,0.9,2.9,3.5c-1.1,7.6-0.3,15.3-0.6,22.9c-0.1,3,1.1,3.5,3.7,3.5
		c22.8-0.5,45.6,0.9,68.4-1c3.4-0.3,4.4,0.2,4.2,4c-1.7,39.5-1.6,79.1,0,118.6c0.1,3.7-0.8,4.5-4.2,4.3c-5.7-0.3-11.3-0.1-17,0
		c-2.4,0-4-0.3-3.3-3.2c0.8-3.2-1.2-3.5-3.7-3.5c-14.8,0.1-29.7,0.1-44.5-0.1c-3.3,0-3.8,1.2-3.8,4.1c0.2,9.3,0,18.6,0.1,27.9
		c0.1,7.3,3.3,10.6,10.8,10.6c17,0.1,34,0,51,0.1c5.7,0,9.4-2.5,11.6-7.7C1100,206.6,1100.9,200.6,1102.6,194.2z"/>
	<path class="st2" d="M1784.2,79.2c6.5-0.4,12.9-0.8,19.4-1.3c2.5-0.2,3.2,0.6,3.1,3c-0.1,5.5-0.2,11,0,16.5c0.2,3.3-1.1,3.8-4,3.6
		c-24.3-1.6-48.6-1.2-72.9-1.2c-1.6,0-3.2,0-5.5,0c6.4,12.9,14,24.1,22.3,34.9c17.2,22.3,37.5,41.3,61.8,55.9
		c2.3,1.4,2.8,2.4,1.3,4.9c-3.2,5.2-6.3,10.6-8.9,16.1c-1.5,3.2-2.7,3-5.4,1.5c-19.4-11.7-36.4-26.3-51.7-42.8
		c-7.5-8-14.5-16.4-21.1-25.4c-1.5,2-0.9,3.8-0.8,5.6c0.3,28.6-0.9,57.2,1.1,85.7c0.2,2.4-0.7,2.7-2.7,2.7c-6.3-0.1-12.7-0.2-19,0
		c-3.3,0.1-4.2-0.8-4-4.1c1.9-28.7,0.8-57.5,1.1-86.2c0-1.7,0-3.3,0-5.9c-5.4,6.9-10.3,13.2-15.4,19.4c-16.5,19.7-35.3,37-56.2,52.1
		c-2.8,2-4,2.2-5.7-1.2c-2.6-5.1-6-10-9.4-14.7c-1.8-2.4-1.7-3.4,0.8-5.3c20.8-15.2,39.8-32.2,56.3-52c10.3-12.4,19.6-25.5,26.2-40
		c-0.4-1.2-1.2-1-1.8-1c-24.6,0.2-49.3-0.9-73.9,1.4c-3.7,0.4-4.6-0.7-4.4-4.2c0.3-4.6,0.2-9.3,0-14c-0.2-3.2,0.7-4.2,4.1-4
		c24.8,1.5,49.6,0.4,74.4,0.9c4.3,0.1,5.1-1.3,5.1-5.3c-0.1-13.6-0.3-27.3-1.2-40.8c-0.2-3.2,0.4-4.4,3.9-4.3c6.3,0.3,12.7,0.2,19,0
		c2.7-0.1,3.9,0.6,3.5,3.7c-0.7,6.6-1.1,13.2-1.5,19.9c-0.7,7.8,0,15.6-0.3,23.3c-0.1,3.5,2.1,3.1,4.2,3.1c14.5,0,28.9,0.1,43.4-0.1
		C1774.3,79.4,1779.2,79.8,1784.2,79.2z"/>
	<path class="st2" d="M652.5,123.4c0.1,15.3-0.3,30.6,1,45.8c0.3,3.5-0.2,5.1-4.3,4.8c-5.8-0.4-11.7-0.3-17.5,0
		c-3.2,0.1-4.3-1.1-3.5-4c0.9-3.7-0.8-4.4-4.2-4.4c-14.8,0.1-29.7,0.2-44.5,0c-3.3,0-4.2,1-4.1,4.2c0.6,22.3-1.1,44.6,1.1,66.8
		c0.3,2.9-0.6,3.8-3.4,3.7c-6.3-0.2-12.7-0.2-19,0c-3.2,0.1-3.9-1-3.6-4c2.2-22.1,0.6-44.2,1.2-66.3c0.1-3.5-0.9-4.4-4.4-4.4
		c-14.2,0.2-28.3,0.2-42.5,0c-3.4,0-5,0.7-4.4,4.3c0.6,3.2-0.7,4.3-4,4.2c-5.7-0.3-11.3-0.2-17,0c-3.1,0.1-4.3-0.5-4.1-4
		c1.7-23.1,0.6-46.2,0.9-69.3c0.1-8.2-0.3-16.3-0.9-24.4c-0.2-2.4,0.4-3.1,2.9-2.9c23.1,1.8,46.3,0.8,69.4,1.1c3.1,0,4-0.8,3.9-3.9
		c-0.4-12.4,0.7-24.9-1.1-37.3c-0.4-2.7,0.2-3.9,3.3-3.8c6.3,0.2,12.7,0.2,19,0c3.2-0.1,4.1,0.8,3.6,4c-1.9,12.4-0.5,24.9-1,37.3
		c-0.2,3.4,1.2,3.8,4.1,3.7c23.8-0.4,47.6,0.9,71.4-1.1c3.8-0.3,2.7,2,2.5,3.7C652.3,92.5,652.5,107.9,652.5,123.4z"/>
	<path class="st2" d="M2158.1,77.9c33.2-0.6,66.2,0.8,99.1-0.9c4.3-0.2,5.5,0.8,5.1,5c-0.4,4.9,1.6,11.6-0.9,14.4
		c-2.5,2.8-9.3,0.1-14.2,0c-9.2-0.1-18.3,0.1-27.5-0.1c-3-0.1-3.6,1.2-3.5,3.8c0.2,5.6,0.2,11.3,0,17c-0.1,2.9,0.9,3.7,3.7,3.6
		c9.5-0.3,19,0.6,28.4-0.7c3.9-0.6,5.2,0.7,4.6,4.4c-0.1,0.6,0,1.3,0,2c-0.3,4.6,2,11-0.9,13.3c-2.8,2.2-8.9,0-13.5-0.2
		c-6.3-0.2-12.7-0.1-19-0.3c-2.8-0.1-3.3,1.1-3.2,3.6c0.1,5.3,0.2,10.6,0,16c-0.2,3.2,1,3.9,4,3.9c10,0,20,0,29.9-1.1
		c3.5-0.4,4.2,0.8,4,3.9c-0.2,4-0.3,8,0,12c0.2,3.4-0.6,4.7-4.3,4.2c-9.8-1.5-19.6-0.7-29.4-1c-3.2-0.1-4.4,0.6-4.2,4
		c0.3,5.3,0.2,10.6,0,16c-0.1,3.2,0.7,4.4,4.1,4.3c14.3-0.4,28.6,0.6,42.9-0.9c2-0.2,3.1,0,3.1,2.4c-0.1,5-0.1,10,0,15
		c0,2.2-0.6,2.7-2.9,2.6c-32.4-2.1-64.9-0.7-97.4-1.2c-3.9-0.1-5.1,0.9-5,4.9c0.2,11.2,0.1,11.3-11.1,11.1c-3.8,0-8.9,1.7-11-0.9
		c-1.7-2.1,0.1-7,0.1-10.6c0-37.9,0-75.8,0-114.6c-4.2,5.4-8.1,10.2-11.8,15.1c-2.2,2.9-3.7,4-6.2,0c-2.9-4.6-6.7-8.7-10.9-12.3
		c-2.7-2.3-3.3-3.8-0.5-7c18.6-21.7,32.8-45.8,40.5-73.5c0.7-2.7,1.5-3.2,4-1.8c3.9,2.2,7.9,4.3,12,6c3.8,1.5,4.7,3.4,3.4,7.5
		c-2.9,8.8-6.1,17.5-9.9,26C2159,74.1,2157.9,75.5,2158.1,77.9z"/>
	<path class="st2" d="M706.6,38.9c52.8,2.1,105.6,0.5,158.4,0.9c5.3,0,10.7-0.4,15.9-1.3c3.5-0.6,3.8,0.6,3.6,3.6
		c-2.2,40.2-0.7,80.4-1,120.7c-0.1,22.8-0.8,45.5,1,68.3c0.3,3.4-0.8,4.3-4,4.1c-4.8-0.2-9.7-0.3-14.5,0c-3.8,0.3-5.3-0.9-4.6-4.6
		c0.9-4.1-0.7-5.2-4.9-5.2c-42.3,0.2-84.6,0.2-126.9,0c-4.2,0-5.7,1.2-5,5.3c0.6,3.3-0.5,4.8-4.2,4.5c-5.1-0.3-10.3-0.1-15.5-0.1
		c-2.1,0-3.2-0.2-3.1-3c2.3-40.7,0.8-81.4,1.1-122.1c0.2-21.9,0.3-43.9-0.6-65.8C701.7,38.5,701.7,38.5,706.6,38.9z"/>
	<path class="st2" d="M1494.8,134c-9.5-0.5-17.5-0.1-25.4,0.8c-2.9,0.4-4.2-0.3-4-3.6c0.3-4.5,0.3-9,0-13.5
		c-0.3-3.7,1.3-4.1,4.3-3.7c11.9,1.6,24,0.7,35.9,1.1c3.1,0.1,4-0.8,3.9-3.9c-0.2-7.1-0.3-14.3,0-21.4c0.1-3.6-0.7-4.9-4.6-4.8
		c-12.3,0.3-24.7-0.3-36.9,1c-3.3,0.3-4.4-0.5-4.2-3.9c0.3-5.1,0.1-10.3,0-15.5c-0.1-2.5,0.5-3.5,3.3-3.2
		c12.6,1.4,25.3,0.9,37.9,1.1c3.4,0.1,4.6-0.8,4.5-4.4c-0.4-10,0.6-20-0.8-29.9c-0.4-2.9,1.4-2.4,3-2.4c6.2,0,12.3,0.1,18.5-0.1
		c2.8-0.1,3.5,0.6,3.4,3.6c-0.4,9.6-0.2,19.3-0.5,28.9c-0.1,3.3,0.9,4.2,4.2,4.2c13.3-0.2,26.7,0.3,39.9-0.9c3.2-0.3,4.1,0.5,4,3.7
		c-0.2,5-0.2,10,0,15c0.1,3.1-0.8,4.1-3.9,3.7c-13.3-1.4-26.6-0.7-39.9-1c-3.1-0.1-4.4,0.6-4.3,4.1c0.3,7.5,0.2,15,0,22.4
		c-0.1,2.9,1,3.6,3.7,3.5c10.3-0.1,20.7-0.1,31-0.1c5.6,0,8.5,4,6.9,9.5c-6.3,21.6-16.8,41.1-29.8,59.3c-1.8,2.6-3.6,5.2-5.8,7.5
		c-2.4,2.4-1.5,3.6,0.8,5.3c12.6,9.2,26,16.7,40.7,21.9c3.3,1.1,4.7,1.9,2.2,5.5c-3.1,4.5-5.7,9.3-8.2,14.2
		c-1.3,2.6-2.4,3.3-5.2,2.1c-16.6-6.8-32-15.5-45.2-27.7c-3.1-2.8-4.7-3-8-0.3c-15.4,12.3-31.7,23-50.9,28.8
		c-3.6,1.1-5.7,0.7-7.4-2.9c-2.5-5.1-5.4-9.9-8.3-14.8c-1.5-2.5-0.9-3.2,1.8-3.9c16.2-4.2,31.6-10.3,45.4-19.8c9-6.1,9-6.1,2.8-14.6
		c-8.3-11.5-15.2-23.8-20.7-36.8c-1.4-3.4-0.8-4.9,2.3-6.5C1485.4,139.7,1489.5,137.1,1494.8,134z"/>
	<path class="st2" d="M1214.2,215.7c6.5,0,12.3-0.2,18-1.4c12.6-2.8,16.3-12.5,18.2-23.4c2.3-13.9,0.6-27.8,0.4-41.8
		c0-0.7-0.2-1.3-0.2-2c-0.2-3.6,1-8.4-0.9-10.6c-2.2-2.5-7.2-0.8-10.9-0.8c-24.8,0-49.6,0.1-74.5,0.1c-1.2,0-2.3,0.1-3.5,0.1
		c-8.4,0.5-8.4,0.5-8.4-8.2c0-3.2,0.2-6.3-0.1-9.5c-0.3-3.2,0.8-3.7,3.9-3.5c28.9,1.9,57.9,0.6,86.9,0.9c0.5,0,1-0.1,1.6-0.2
		c0.2-3.1-1.9-5.2-3.5-7.4c-5.2-6.8-11.5-12.5-18.5-17.4c-3.7-2.6-3.3-4.1-0.1-6.6c3.5-2.8,6.9-5.8,9.9-9.1c2.2-2.4,3.8-2.5,6.1-0.2
		c4.5,4.5,9.2,8.6,13.6,13.2c2.1,2.2,3.2,3,5.6,0.2c9-10.3,18.2-20.2,27.3-30.2c-0.2-1.1-0.9-1.1-1.5-1.1
		c-29.2,0.1-58.3,0.2-87.5,0.3c-3.3,0-6.7,0.4-9.9,0.8c-2.7,0.4-3.4-0.7-3.4-3.3c0.2-5.2,0.2-10.3,0-15.5c-0.1-2.9,0.8-3.6,3.7-3.4
		c30.1,2,60.3,0.7,90.4,1.1c10.2,0.1,20.3-0.2,30.4-1.1c2.3-0.2,3.7,0.4,4.9,2.3c2.4,3.8,4.9,7.6,7.6,11.1c1.9,2.4,1.3,3.8-0.6,5.8
		c-16.4,17.3-32.6,34.6-48.8,52c-1.4,1.5-3.8,2.5-2.3,5.7c1.4,3,3.5,3,6,2.9c24.6-0.4,49.3,0.9,73.9-1c2.7-0.2,3.9,0.2,3.8,3.3
		c-0.2,5.1-0.2,10.3,0,15.5c0.1,2.6-0.6,3.4-3.4,3.2c-23.6-2-47.3-0.5-70.9-1.1c-3.1-0.1-3.5,1.2-3.4,3.8c0.1,13.8,0.2,27.6,0,41.4
		c-0.1,10-1.2,19.9-4.9,29.3c-6.4,16.5-19,25.1-36.2,27.4c-3.9,0.5-8.5,2.4-11.7,0.5c-3.1-1.8-1.9-7-3.2-10.5
		C1216.8,223.8,1215.6,220,1214.2,215.7z"/>
	<path class="st2" d="M2597,224.9c16.8-10,29.1-23.1,35.6-41c4.8-13.1,6.4-26.7,7-40.6c0.1-2.7-0.6-3.9-3.6-3.7
		c-6.5,0.3-13-0.3-19.4,1c-3,0.6-3.7-0.3-3.6-3.2c0.2-5,0.1-10,0-15c0-2,0.5-2.6,2.6-2c6.5,1.6,13.2,0.9,19.9,1.1
		c2.7,0.1,3.8-0.5,3.8-3.5c-0.1-19.1-0.1-38.3,0-57.4c0-2.6-0.7-3.6-3.4-3.4c-5,0.4-10,0.5-14.9,1c-2.5,0.3-3.4-0.5-3.1-2.9
		c0-0.3,0-0.7,0-1c0-5.2-1.9-11.7,0.6-15.1c2.7-3.6,9.4-0.2,14.4-0.2c28.2-0.2,56.3-0.1,84.5-0.5c9.6-0.1,9.6-0.7,9.6,8.9
		c0,10.7,0,10.7-10.7,10.1c-10.1-0.6-10.1-0.6-10.1,9.7c0,16.6,0.1,33.3-0.1,49.9c0,3.5,0.9,4.6,4.4,4.4c6.1-0.3,12.4,0.3,18.4-1
		c2.7-0.6,2.7,0.6,2.7,2.5c0,5-0.1,10,0,15c0.1,2.8-1.2,2.9-3.4,2.5c-6.1-1.1-12.3-0.7-18.4-0.9c-2.6-0.1-3.8,0.3-3.8,3.4
		c0.6,30.6-1,61.2,1.1,91.7c0.2,3.4-0.8,4.2-4,4.1c-5.7-0.2-11.3-0.2-17,0c-2.5,0.1-3-0.7-2.9-3.1c2.1-30.9,0.4-61.8,1-92.7
		c0.1-2.7-0.8-3.4-3.4-3.3c-4.7,0.2-9.4,0.4-14,0c-4.7-0.5-6.1,1-6.1,5.8c0,13.8-1.9,27.5-5.8,40.8c-6.4,21.9-19.2,39.2-37.5,52.6
		c-1.7,1.2-2.7,1.2-4.2-0.1C2608,234.1,2602.6,229.7,2597,224.9z"/>
	<path class="st2" d="M2400.3,143.5c-6.6,2.6-12.6,5-18.6,7.3c-1.1,0.4-2.6,1.7-3.2-0.4c-2.2-7.9-6.6-14.7-10.4-21.8
		c9.8-2.9,19.1-5.8,28.5-8.4c3-0.8,3.8-2.2,3.8-5.2c-0.5-25.6,0.9-51.2-1.1-76.8c-0.2-2.7,0.4-3.8,3.4-3.7c6,0.2,12,0.3,18,0
		c3.8-0.2,4.8,0.9,4.4,4.7c-1.9,22.7-0.8,45.5-1.1,68.3c0,0.5,0.1,1,0.2,1.8c2.3,0,4-1.2,5.8-2.2c15.8-8.2,29.8-18.8,42-31.7
		c2.3-2.4,3.7-2.3,5.9-0.1c4.2,4.3,8.4,8.5,13,12.4c2.5,2.2,1.9,3.4-0.2,5.3c-14.5,13.1-31.2,23.1-48.3,32.5
		c-5.1,2.8-10.3,5.4-15.6,7.9c-2.1,1-2.9,2.2-2.9,4.5c0.1,21.6,0,43.2,0.1,64.8c0,6.4,4.2,11.1,10.7,11.6c8,0.6,16,0.7,24-0.1
		c7.1-0.6,11.4-5,13.4-11.6c1.8-5.7,2.8-11.6,3.2-17.6c0.2-3.4,0.7-5.3,4.8-3.3c4.7,2.3,9.9,2.7,15,3.3c2.7,0.3,4,0.8,3.3,4.2
		c-2.1,9.9-4.5,19.7-8.2,29.2c-3.9,9.8-11.4,14.9-21.9,15.3c-15.3,0.6-30.6,0.6-45.9,0c-13.4-0.5-21.9-9.2-21.9-22.5
		c0-20.8,0-41.6,0-62.3C2400.3,147.3,2400.3,145.7,2400.3,143.5z"/>
	<path class="st2" d="M2940.5,193.6c5.8,3.5,11.4,6.3,17.4,8.2c2.3,0.8,2.6,2.1,2,4.2c-2.6,7.9-5.3,15.8-9.3,23
		c-3.5,6.2-8.7,9.6-16.2,9.8c-11.3,0.3-22.6,0.3-33.9-0.1c-9.6-0.4-17.9-9.2-17.9-19.2c0-18.1,0.7-36.2,2.1-54.2
		c0.3-4.6-0.7-5.9-5.3-5.7c-9,0.4-18,0.3-27,0c-3.4-0.1-4.7,0.8-5.8,4.3c-11.4,37.2-35.2,62.8-72.1,76.2c-4.4,1.6-7,1.6-9-3.5
		c-2-5.2-5.7-9.7-9.5-15c36.2-5.6,55-30.2,68.3-61.9c-16.4,0.4-32.3-0.8-48.1,0.8c-4.1,0.4-5.7-0.1-5.2-4.6c0.4-4.1,0.2-8.3,0-12.5
		c-0.1-2.2,0.6-2.8,2.8-2.5c17.3,1.9,34.6,0.5,51.9,1c2.8,0.1,4-0.6,4.4-3.7c0.9-6.6,1.1-13.2,1-19.9c-0.1-2.8,0.6-3.8,3.6-3.2
		c5.2,1,10.5,1.9,15.8,2.3c3.3,0.3,3.7,1.6,3.4,4.4c-0.7,5.1-0.9,10.3-1.7,15.3c-0.5,3.5,0,4.9,4.1,4.8c17.9-0.5,35.9,0.7,54.3-1.1
		c-2.1,13.6-3.9,27-4.3,40.5c-0.3,10-0.3,19.9-0.5,29.9c-0.1,4.8,2.4,6.9,6.9,7.3c4.8,0.5,9.6,0.1,14.4-0.2c4-0.2,6.1-3.1,7.7-6.3
		C2937.7,206.6,2938.9,200.4,2940.5,193.6z"/>
	<path class="st2" d="M2540.3,142.4c-6.1,6.4-11.6,12.2-17.8,18.7c-1.3-9.3-2.5-17.8-3.8-26.2c-0.3-1.8,0.8-2.7,1.9-3.8
		c17.4-18.9,27-41.9,34.1-66.2c0.8-2.6,0.2-3.6-2.6-3.5c-7.5,0.2-15-0.4-22.4,0.7c-3.6,0.5-4.3-0.8-4.1-3.9c0.2-5-1.7-11.3,0.7-14.6
		c2.5-3.4,9.1-0.3,13.9-0.4c19.3-0.3,38.6-0.1,57.9-0.3c7.8-0.1,7.9-0.4,7.8,7.8c-0.1,3.8,1.7,8.8-0.8,11c-2,1.7-6.9-0.2-10.6-0.2
		c-5.2-0.1-11.1-1.5-15.3,0.5c-4.2,2.1-3,8.9-4.5,13.5c-2.9,9.2-5.7,18.4-9.5,27.2c-1.4,3.3-1.7,4.9,2.9,4.8
		c10.6-0.3,21.3,0.1,31.9-0.9c3-0.3,3.4,0.4,3.3,3.4c-1.2,33.5-1.6,67.1,0.4,100.6c0.2,3.4-0.4,4.4-3.8,4.2c-5-0.2-10-0.1-15-0.1
		c-1.5,0-3.3,0.2-2.9-2.2c0.6-3.7-1.5-3.9-4.4-3.8c-4.5,0.2-9,0-13.5,0c-1.6,0-3.3,0-3,2.2c0.6,3.8-1.6,3.9-4.4,3.8
		c-4.5-0.1-9-0.2-13.5,0c-3.2,0.2-3.8-0.9-3.6-3.9c1.4-21.9,0.5-43.9,0.7-65.8C2540.6,144.6,2540.4,143.9,2540.3,142.4z"/>
	<path class="st2" d="M2987.8,143.2c0-27.8,0-55.5,0-83.3c0-5.8-0.1-11.6-0.8-17.4c-0.2-1.5-0.8-3.3,2.2-3
		c19.3,1.6,38.6,0.5,57.9,0.8c6.9,0.1,10.8,5.2,8.6,11.6c-6.4,18.9-12.7,37.7-19.3,56.5c-1.2,3.4-1,5.4,1.8,8
		c13.4,12.3,21.9,27,20.7,46c-1.2,19-13.8,34.4-32.4,39.1c-1.9,0.5-3.1,0.5-3.7-1.8c-1.7-6.2-4.3-12.2-7.3-17.9
		c-1-1.9-1.2-3,1.4-3.2c1.5-0.1,2.9-0.7,4.3-1.1c13.4-4.2,18.9-14.9,14.9-29.1c-2.9-10.2-8.9-18.5-16.8-25.4
		c-5.9-5.2-6.3-7.2-3.7-15.1c4.9-14.8,9.4-29.7,14.5-44.5c1.5-4.4,0.2-5.1-3.8-4.9c-4.8,0.3-9.7,0.3-14.5,0c-3.4-0.2-4.1,1-4.1,4.2
		c0.1,21,0.1,41.9,0.1,62.9c0,32.8,0.1,65.5,0.2,98.3c0,4,0.4,8,0.8,11.9c0.2,2.4-0.4,3.2-2.9,3.2c-5.3-0.2-10.7-0.2-16,0
		c-2.8,0.1-3.4-0.9-3.1-3.4c0.9-9.3,0.9-18.6,0.9-27.9C2987.7,186.1,2987.8,164.6,2987.8,143.2z"/>
	<path class="st2" d="M1868.9,156.9c-5.7,10.7-12,20.8-19.6,30.1c-2.1,2.6-4.2,5-6.7,8c-2.1-8.7-3.9-16.8-7.1-24.4
		c-1.1-2.6,0.9-4,2.1-5.7c13.9-18.8,23.8-39.4,29.9-61.9c0.9-3.4,0.4-4.3-3.1-4.1c-7.3,0.3-14.7-0.4-21.9,0.9
		c-3.4,0.6-4.3-0.7-4.1-3.9c0.2-5,0.2-10,0-15c-0.1-2.7,0.4-3.6,3.5-3.3c7.6,0.6,15.3,0.5,22.9,0.9c3.4,0.2,4.6-0.7,4.5-4.3
		c-0.3-13.4,0.4-26.9-1.1-40.3c-0.4-3.6,0.7-4.6,4.2-4.4c5.1,0.3,10.3,0.4,15.5,0c4-0.3,4.7,1.3,4.3,4.8c-1.4,13.2-0.6,26.6-1,39.8
		c-0.1,3.6,1,4.7,4.5,4.4c5.6-0.4,11.3-0.2,16.9-0.9c3.6-0.5,3.8,0.8,3.7,3.6c-0.1,4.8-0.3,9.7,0,14.5c0.2,3.5-0.7,4.8-4.4,4
		c-5.7-1.2-11.6-0.7-17.4-0.8c-1.7,0-3.3-0.3-3.3,2.4c0.1,8.7,0,17.5,0,27.3c3.9-3,7.1-5.3,10.1-7.8c1.8-1.5,3-2.1,4.6,0.3
		c6.4,9.3,12.6,18.8,17.2,29.1c1.1,2.4,0.8,3.8-1.1,5.5c-4.1,3.6-8.1,7.4-12,11.3c-2,2-3.1,2.2-4.4-0.8c-3.8-8.3-8.1-16.2-14.3-24.8
		c0,2.8,0,4.3,0,5.9c0.4,29.4-1,58.8,0.9,88.2c0.2,2.8-0.8,3.3-3.3,3.3c-5.5-0.1-11-0.4-16.5,0.1c-4.1,0.3-4.5-1.3-4.2-4.8
		C1870.3,208.4,1868.7,182.7,1868.9,156.9z"/>
	<path class="st2" d="M1436.8,135.1c7.1-3.8,13.3-7.1,20.2-10.8c-0.6,7.4-1.2,14-1.7,20.5c-0.1,1.9-1.3,2.4-2.6,3.1
		c-5.3,2.7-12.1,4.6-15,9.3c-2.9,4.8-0.8,11.6-0.9,17.6c-0.1,15.3-0.2,30.6,0,45.9c0.1,7.2-3.2,11.9-9.4,15
		c-8.5,4.3-17.7,4.2-26.8,4.3c-1.8,0-2.2-0.8-2.4-2.4c-0.5-6.4-1.6-12.7-3.7-19.1c4.2,0,8,0.1,11.8,0c5.9-0.1,9-3,9-8.9
		c0.1-14.5,0-28.9,0-43.9c-5,1.7-8.9,4.7-13.2,6.9c-4.3,2.2-8.5,4.5-12.7,6.9c-1.9,1.1-2.8,1-3.4-1.4c-1.6-6.1-3.4-12.2-5.4-18.1
		c-0.9-2.7,0.2-3.4,2.4-4c10-2.7,19.4-6.9,29-10.7c2.6-1,3.4-2.4,3.4-5.2c-0.1-14.5-0.2-28.9,0-43.4c0-3.1-1-3.9-4-3.9
		c-8.3,0-16.6,0.3-24.9,1c-2.7,0.2-3.5-0.5-3.4-3.2c0.2-5.1,0.2-10.3,0-15.5c-0.1-2.9,0.7-3.8,3.6-3.4c8.1,1.1,16.3,0.9,24.4,1
		c3.1,0,4.4-0.5,4.3-4c-0.4-11.9,0.4-23.9-1.1-35.9c-0.4-2.8,0.4-3.8,3.4-3.7c5.7,0.2,11.3,0.2,17,0c2.8-0.1,3.2,1,3,3.5
		c-1.2,12.1-1,24.2-1.1,36.3c0,2.8,0.8,3.9,3.6,3.6c4.5-0.4,9-0.6,13.4-1c2.3-0.2,3.7-0.1,3.6,2.9c-0.3,5.5-0.2,11,0,16.5
		c0.1,2.2-0.7,2.9-2.9,2.7c-4.6-0.4-9.3-0.7-13.9-0.9c-1.8-0.1-3.8-0.5-3.8,2.4C1436.8,108.5,1436.8,121.4,1436.8,135.1z"/>
	<path class="st2" d="M2306.7,146.9c-3.1-8.3-6.3-15.7-10.4-22.8c-0.8-1.3-2.1-2.5-0.2-4.3c12.8-12,21.5-26.9,30.2-41.9
		c8.5-14.5,16.2-29.4,22.1-45c0.8-2.2,1.6-2.7,3.8-1.4c5.7,3.3,11.5,6.6,17.4,9.6c2.8,1.4,2.9,2.8,1.6,5.4
		c-7.4,15-14.6,30.1-22.2,45.7c7.2-1.4,6.2,3.2,5.9,7.6c-1.5,21.6-0.6,43.2-0.6,64.8c0,22.6-0.9,45.2,0.9,67.8
		c0.2,2.6-0.4,3.4-3.1,3.4c-6.7-0.2-13.3-0.1-20,0c-1.9,0-2.9-0.2-2.7-2.7c2.1-26.4,0.8-52.8,1.1-79.2c0.1-10.6,0-21.2,0-33
		C2322.2,129.8,2315.3,138.8,2306.7,146.9z"/>
	<path class="st2" d="M2865.7,59.2c12.1,0,24.2,0.1,36.3,0c16.6-0.2,33.3,0.9,49.9-1c2.6-0.3,3.1,0.6,2.9,2.9
		c-1.1,13.9-1.1,27.9,0,41.8c0.2,2.2,0,3.3-2.7,3.2c-6.2-0.2-12.3-0.2-18.5,0c-2.9,0.1-3-1.1-2.9-3.6c0.3-6.8,0-13.6,0.4-20.4
		c0.2-3.8-1.4-4.2-4.6-4.2c-23.3,0.1-46.7,0.1-70,0.1c-23.3,0-46.7,0.1-70-0.1c-3.4,0-4.6,0.8-4.4,4.4c0.4,6.8,0.2,13.6,0.4,20.4
		c0.1,2.5-0.6,3.5-3.3,3.4c-5.3-0.2-10.7-0.2-16,0c-2.5,0.1-3.5-0.5-3.3-3.3c0.9-13.8,1-27.6,0-41.3c-0.2-3.1,0.7-3.5,3.5-3.3
		c28.8,2,57.6,0.6,86.4,0.9c0.3,0,0.5-0.3,1.1-0.5c-3.2-8.2-7.7-15.7-12.9-23c5.9-3.4,11.6-6.7,17.3-10.1c1.8-1.1,2.7-0.9,4,0.8
		c5.1,7.4,10.3,14.7,14.5,22.6c1.3,2.5,1.6,4.1-1.5,5.4c-2.4,1-4.6,2.6-6.9,3.9C2865.6,58.5,2865.6,58.8,2865.7,59.2z"/>
	<path class="st2" d="M1944,220.5c4.2,0,7.6,0,11.1,0c6.5-0.1,9.4-2.9,9.9-9.3c0.1-2.2,0-4.3,0-6.5c0-25.4-0.1-50.9,0.1-76.3
		c0-3.6-0.7-4.9-4.6-4.7c-14.3,0.6-28.6-0.8-42.9,1.1c-2.2,0.3-3.3-0.1-3.3-2.7c0.2-5.6,0.2-11.3,0-17c-0.1-2.5,0.8-3.1,3.2-2.9
		c31.8,2.2,63.6,0.5,95.4,1c7.2,0.1,14.3,0.1,21.4-0.9c2.7-0.4,3.9,0.2,3.8,3.2c-0.2,5.5-0.2,11,0,16.5c0.1,2.5-0.8,3.2-3.2,2.9
		c-14.8-1.9-29.6-0.6-44.4-1.1c-3.5-0.1-4.4,0.9-4.4,4.4c0.1,31.4,0,62.9,0.2,94.3c0,7.7-3.5,12.5-10.1,15.6c-8.3,3.8-17.1,4-25.9,4
		c-2.5,0-2.6-1.7-2.7-3.3C1947.1,232.4,1946,226.4,1944,220.5z"/>
	<path class="st2" d="M3110.2,57.5c-3.8-6.6-7.4-12-11.7-16.8c-2.4-2.6-1.8-3.8,0.7-5.7c4.3-3.2,8.3-6.6,12.3-10.2
		c2-1.8,3.1-1.6,4.6,0.5c5.1,6.9,10.4,13.8,15.8,20.5c2.1,2.6,1.6,4.1-0.8,5.9c-1.9,1.3-3.4,3.1-5.1,4.5c0.4,1.6,1.6,1.2,2.5,1.1
		c17.1-0.3,34.3,0.8,51.4-0.9c2.6-0.3,2.6,0.6,2.4,2.7c-1.9,14.6-1,29.2,0.1,43.7c0.2,2.5-0.2,3.2-2.7,3.2c-5.8-0.1-11.7-0.2-17.5,0
		c-2.9,0.1-3.3-1-2.9-3.5c1.2-7.7,0.6-15.6,0.9-23.4c0.1-3-1.1-3.5-3.8-3.5c-24,0.1-48,0.1-72,0c-3.5,0-4.2,1.2-4,4.3
		c0.4,7.5,0.3,15,0.7,22.4c0.2,2.7-0.1,3.9-3.2,3.7c-5.3-0.2-10.7-0.3-16,0c-3.4,0.2-3.6-1.1-3.4-4c0.8-14.1,1.4-28.2,0-42.3
		c-0.3-3.2,0.5-3.4,3.4-3.1C3077.7,58.1,3093.5,57.2,3110.2,57.5z"/>
	<path class="st2" d="M2157.4,273.7c0,0.4-0.1-0.5-0.1-1.3c-0.4-11.5-0.4-11.3,11-11.8c3.7-0.2,4,1.2,3.8,4.2
		c-1.4,17.9-1.2,35.9-1,53.8c0.1,9.3,0.5,18.6,1.1,27.9c0.2,3.2-0.8,4.4-3.8,3.8c-3.2-0.6-7.4,2.6-9.5-2.5c-0.3-0.8-1.4,0.2-2.1,0.5
		c-24.1,10.6-44.1-3.4-42.6-29.7c1.2-23.2,18.3-35.9,40.7-30.4c2.6,0.6,3.3,0.3,3.1-2.3C2157.7,282.2,2157.6,278.5,2157.4,273.7z"/>
	<path class="st2" d="M1969,303.9c0.1,14.3-0.3,27.5,1.1,40.5c0.4,4.3-0.4,6.8-5.3,5.7c-2.6-0.6-6.5,2.5-7.8-2.5
		c-0.3-1.2-1.3,0-2,0.3c-10.9,5.3-22,6.3-31.9-1.5c-10.7-8.4-12.7-20.4-10.5-32.9c3.6-20.4,19.5-30.6,39.6-25.6
		c3.6,0.9,3.5-0.5,3.4-2.9c-0.2-6.1-0.4-12.3-0.6-18.4c0-1-0.5-2.2-0.1-3c3-5.4,8.3-1.8,12.4-3c2.8-0.8,2.8,1.2,2.6,3.2
		C1968.6,277.6,1969.2,291.4,1969,303.9z"/>
	<path class="st2" d="M891,308.7c0.6-12.6,0.9-25.3,0-37.9c-0.2-2.5,0.4-3.5,3.2-3.5c14.5,0.1,29,0.1,43.5,0c2,0,2.8,0.3,2.9,2.7
		c0.3,9.7,0.4,9.7-9.2,9.6c-7.7-0.1-15.3-0.1-23-0.4c-3.2-0.1-4,1-3.8,4c0.3,4.8,0.5,9.6,0.3,14.4c-0.1,2.9,0.9,3.8,3.8,3.6
		c7.1-0.4,14.3-0.4,21.4-0.9c3.1-0.2,3.9,0.7,4,3.8c0,9.3,0.2,9.2-9.3,8.7c-5.3-0.3-10.7-0.1-16-0.4c-3.2-0.2-4,1.1-3.9,4
		c0.3,6.1,0.4,12.3,0.4,18.4c0,2.9,1.1,3.6,3.8,3.4c10-0.4,20-0.5,29.9-1.1c4.5-0.3,5.3,1.3,4.9,5.3c-0.7,7.6-0.5,7.6-8.4,7.6
		c-13.7,0-27.3-0.1-41,0.1c-2.8,0-3.7-0.7-3.7-3.6C891.1,334,891,321.4,891,308.7z"/>
	<path class="st2" d="M568.1,292.7c4.7-2.9,9.2-5.2,14.2-5.6c18.4-1.7,27,5.8,26.7,22.1c-0.2,12.3-0.5,24.6,0.1,36.9
		c0.2,3.2-0.8,4.3-4.2,4.2c-11-0.1-11,0.1-10.1-10.6c0.8-9.3,0.8-18.6,0.7-27.9c-0.1-9.6-4.7-13.6-14.3-12.5
		c-1.8,0.2-3.6,0.5-5.3,1.1c-7.3,2.4-7.6,2.9-7.5,10.5c0,11.8,0,23.6,0.3,35.4c0.1,3.1-0.7,3.9-3.8,3.9
		c-10.4,0.1-10.3,0.2-10.3-10.2c0-25.3,1.1-50.5-1.2-75.7c-0.2-2.4,0.3-3.5,2.7-3.4c0.3,0,0.7-0.1,1-0.1
		c11.5-1.1,11.4-1.1,11.1,10.4C567.9,278.2,568.1,285.1,568.1,292.7z"/>
	<path class="st2" d="M1975.7,63.9c-16.6,0.5-33.3-0.9-49.9,1.3c-2.4,0.3-2.8-0.5-2.8-2.6c0.1-5.8,0.2-11.6,0-17.5
		c-0.1-2.7,1-2.6,3.3-2.5c33.3,1.4,66.6,1.4,99.8,0c3-0.1,3.8,0.4,3.7,3.3c-0.2,5.5-0.1,11,0,16.5c0.1,2.5-0.7,3.1-3.2,2.8
		C2009.6,63,1992.6,64.4,1975.7,63.9z"/>
	<path class="st2" d="M1669.6,266.6c2.3,0,4.7-0.1,7,0c11.4,0.5,12.1,1.5,9.9,12.6c-0.6,2.8-1.5,2.6-3.6,1.9c-6.4-2-13-2.9-19.7-2.5
		c-1.8,0.1-3.6,0.4-5.4,0.8c-3.3,0.7-5.9,2.4-6.6,6c-0.8,3.9,0.7,7,4,9c3.2,2,6.7,3.6,10.2,5.2c5,2.3,10,4.5,14.6,7.4
		c10,6.4,14.2,15.7,12,26.8c-1.8,9.4-9.4,15.7-21.1,17.6c-10,1.6-19.9,1-29.8-0.9c-3.5-0.7-4.5-2-3.5-5.7c2.3-8.3,2-8.3,10.3-6.4
		c8,1.9,16.1,2.6,24.1,0.1c8.3-2.6,9.9-10,3.5-16.1c-3.3-3.2-7.6-4.7-11.6-6.7c-4.4-2.3-9.1-4.2-13.3-6.7c-10.3-6-14.4-14.8-12-24.9
		c2.3-9.7,10.5-16.4,21.8-17.4C1663.6,266.4,1666.6,266.6,1669.6,266.6z"/>
	<path class="st2" d="M779.7,346.4c-6.4,3.9-12.5,5.4-19.2,5.2c-9.8-0.2-16.4-4.6-18.5-12.7c-2.3-8.8,1.7-17.9,9.9-22.4
		c6.6-3.7,13.9-4.2,21.2-5c2-0.2,5.3,1.4,5.8-1.9c0.5-3.7-0.4-7.5-4.6-9c-6.8-2.5-13.8-1.3-20.7-0.7c-0.5,0-1,0.3-1.5,0.3
		c-9,1.6-9,1.6-7.2-7.7c0.4-2.1,1.4-3.1,3.4-3.5c8.5-1.7,17-3,25.7-1.7c13.2,2,18.8,8.6,18.5,22c-0.2,10.4-1.3,20.9,0,31.3
		c0,0.3,0,0.7,0.1,1c0.7,8.8,0.7,8.6-8.2,9C781.2,350.7,780.1,349.7,779.7,346.4z"/>
	<path class="st2" d="M2345.1,322.8c-0.8,7.8-0.4,15.6,0.9,23.3c0.5,2.8,0.3,4.5-3.2,4.2c-2.1-0.2-4.3,0.1-6.5,0.2
		c-0.7,0-1.8,0.2-1.9-0.1c-2.9-6.7-6.5-0.9-9.4-0.2c-5.9,1.3-11.8,2.2-17.8,0.7c-7.6-1.9-12.2-7.4-12.9-14.7
		c-0.8-8.7,3.6-16.6,11.5-20.4c6.3-3,13.1-3.6,19.8-4.4c2.1-0.2,5.8,1.7,6.1-1.9c0.3-3.7-0.6-7.7-5.2-9.2c-3.6-1.2-7.2-1.4-10.8-1.2
		c-5.3,0.2-10.6,0.6-15.8,2.1c-2.3,0.7-3.1,0.4-3-2.4c0.6-9.3,0.6-9.6,9.6-10.9c7.4-1.1,14.8-1.8,22.4-0.3
		c10.4,2,16.1,8.4,16.2,18.9C2345.2,311.9,2345.1,317.4,2345.1,322.8z"/>
	<path class="st2" d="M2040.2,322.9c-0.7,7.8-0.4,15.6,0.9,23.3c0.5,2.8,0.2,4.5-3.3,4.2c-2.1-0.2-4.3,0.1-6.5,0.2
		c-0.7,0-1.8,0.2-1.9-0.1c-3-6.7-6.5-0.9-9.5-0.2c-5.9,1.3-11.8,2.2-17.7,0.7c-6.4-1.6-10.9-5.5-12.3-12.3
		c-1.6-7.6,0.3-14.2,6.1-19.4c6.3-5.7,14.4-6.4,22.3-7.5c0.8-0.1,1.7,0.1,2.5-0.2c2.1-0.7,5.8,1.6,6.1-2.1c0.3-3.5-0.5-7.4-4.8-8.9
		c-6.7-2.3-13.5-1.3-20.2-0.7c-1.5,0.1-2.9,0.5-4.4,0.8c-5.6,1.1-5.4,1.1-5-4.9c0.3-4.6,1.9-7,6.9-7.5c8.1-0.9,16.1-2.2,24.3-0.7
		c11,2,16.6,8.4,16.7,19.5C2040.2,312.2,2040.2,317.6,2040.2,322.9z"/>
	<path class="st2" d="M2105.9,132c6.8,5.1,13.4,10,20.1,14.9c1.7,1.2,0.9,2.5,0.4,3.9c-8.4,24.1-21.1,45.7-37.5,65.2
		c-1.5,1.8-2.5,2.1-4.2,0c-4.6-5.6-9.5-11.1-14.3-16.6c-1.3-1.5-2.1-2.6-0.3-4.6C2086.2,176.7,2097.4,155.6,2105.9,132z"/>
	<path class="st2" d="M1305.7,315.7c2,23.9-18,41.8-40,35.8c-14.1-3.8-21.6-15.5-21.1-32.6c0.7-22.6,20.7-37.7,41.3-31.2
		C1297.8,291.3,1304.4,300.7,1305.7,315.7z"/>
	<path class="st2" d="M2517.2,318.3c0,23.1-18.3,38.6-39.5,33.1c-11.3-2.9-18.5-10.3-20.6-21.9c-2.2-11.7-1-23,7.1-32.4
		c9-10.4,22.6-13.7,34.9-9.1C2511,292.7,2517.2,303,2517.2,318.3z"/>
	<path class="st2" d="M1052.3,336.9c-0.3,3.5-0.8,6.7-1,10c-0.1,2.2-1.7,2.7-3.3,3.1c-10,2.3-20.1,3-30-0.3
		c-17.8-6-25.5-26.8-17-45.4c6.3-13.9,17.6-20,32.6-17.7c11.4,1.8,19.3,11,19.6,24.1c0.3,13.5,1.6,10.5-9.9,10.9
		c-9.6,0.4-19.3,0.6-28.9,0.7c-2.7,0-2.9,0.9-2.2,3.2c2.5,8,10,13.7,18.7,13.9c3.6,0.1,7.3-0.1,10.9-0.5
		C1045.2,338.5,1048.6,337.6,1052.3,336.9z"/>
	<path class="st2" d="M1816.1,350.5c-3.7,0-7.2,0-10.6,0c-0.8,0-2.1,0.3-2.2-0.6c-1.1-5.2-3.7-1.9-5.8-1c-6.5,2.8-13.3,3.5-20,2.1
		c-6.6-1.4-11.6-5.3-13.1-12.2c-1.8-8.1,0.3-15.2,7-20.4c6.9-5.5,15.3-5.9,23.6-7c2.1-0.3,5.6,1.7,6.1-2c0.6-4-0.5-7.7-5-9.1
		c-6.9-2.2-13.8-1.1-20.8-0.4c-0.2,0-0.3,0.1-0.5,0.1c-9.5,1.8-10,1.2-7.5-8.5c0.4-1.6,1.4-2.1,2.7-2.4c10-2.3,20-3.6,30.1-1.2
		c10,2.4,14.5,8.6,14.6,19.7c0.1,11.9-1.3,23.9,0.5,35.8C1815.5,345.5,1815.7,347.7,1816.1,350.5z"/>
	<path class="st2" d="M681.3,293c7.3-4.8,15.1-7.4,24-5.8c11.2,2,16.6,7.5,17,19.2c0.4,13.6,0.2,27.3,0.2,40.9c0,0.2,0.1,0.4,0,0.5
		c-3.2,5.2-8.2,1.3-12.2,2.4c-2.9,0.7-2.7-1.5-2.5-3.4c1.2-11.1,1.3-22.2,1.2-33.3c0-5.4-0.2-10.8-6.4-13.3
		c-5.6-2.3-15.4-0.5-19.4,3.4c-1.5,1.4-1.1,3-1.1,4.6c0.1,12.5,0.1,24.9,0.4,37.4c0.1,3.6-0.6,4.9-4.6,4.8
		c-10.4-0.2-10.4,0-9.9-10.4c0.8-15.9,1.4-31.9-1.8-47.7c-0.2-0.8-0.4-2.1-0.1-2.3c3.9-2.1,8.3-2,12.6-2.3
		C681.6,287.5,679.8,290.9,681.3,293z"/>
	<path class="st2" d="M2786,326.6c0,6.6-0.1,13.3,0.1,19.9c0.1,2.7-0.6,3.7-3.5,3.7c-11,0.2-10.9,0.3-10.6-10.4
		c0.3-9.3,1-18.6,0.5-27.8c-0.5-11.1-7-15.3-17.9-12.4c-7.5,2-9,3.9-9,11.6c0.1,11.5,0,22.9,0.4,34.4c0.1,3.9-1.1,4.7-4.8,4.6
		c-10.3-0.2-10.3,0-9.7-10.1c1-15.9,1.4-31.9-1.7-47.6c-0.5-2.7,0.1-3.6,2.6-3.9c2.8-0.3,5.6-0.7,8.4-1.1c2-0.3,3.2,0.1,3.2,2.4
		c0,3.7,1.8,2.5,3.7,1.3c7.4-4.7,15.5-5.6,24-3.6c9.2,2.2,14,8.5,14.3,19C2786.1,313.4,2786,320,2786,326.6z"/>
	<path class="st2" d="M1892.2,326.2c0,6.8-0.1,13.6,0.1,20.4c0.1,2.8-0.8,3.8-3.6,3.6c-3.5-0.3-7.9,1.1-10.2-0.6
		c-2.6-1.9-0.1-6.4-0.2-9.8c-0.2-9.8,1.5-19.5,0.4-29.3c-1-9-5.4-12.3-14.5-11.3c-2.5,0.3-4.8,1-7.2,1.9c-3.6,1.5-5.2,3.6-5.1,7.9
		c0.4,12.4,0.1,24.9,0.3,37.4c0,3-0.7,3.9-3.8,4c-11.2,0-11,0.2-10.5-11.2c0.6-15.4,1.4-30.9-1.8-46.2c-0.7-3.2,0.2-4.1,3.2-4.3
		c2.5-0.2,5-0.6,7.4-1c2.1-0.3,3.5-0.2,3.6,2.5c0.1,3.8,2,2.3,3.8,1.2c6.8-4.3,14.1-5.5,22-3.9c10.3,2,15.7,7.9,16.1,18.4
		C1892.4,312.6,1892.2,319.4,1892.2,326.2z"/>
	<path class="st2" d="M1339.8,293.2c8.3-6.2,17.4-8,27.3-5.3c9.1,2.5,13.7,8.3,13.6,19.5c-0.1,13.1-0.2,26.3,0.2,39.4
		c0.1,3-1.2,3.5-3.9,3.5c-11.2,0.2-11.2,0.3-10.3-10.8c0.7-9,0.6-17.9,0.6-26.9c0-10.3-4.9-14.5-15.1-13.3c-2.5,0.3-4.8,1.1-7.1,2.1
		c-3.4,1.5-4.9,3.6-4.8,7.6c0.4,12.5,0.1,24.9,0.3,37.4c0.1,3-0.8,3.9-3.9,3.9c-10.6,0-10.7,0.2-10.3-10.5
		c0.7-15.9,1.5-31.9-1.9-47.6c-0.2-0.8-0.2-2.2,0.1-2.3c3.8-1.9,8-1.8,12.1-2.2c3-0.3,1.6,3,2.5,4.5
		C1339.4,292.4,1339.5,292.7,1339.8,293.2z"/>
	<path class="st2" d="M2551.3,293.2c7.5-5.3,15.4-7.6,24.6-5.9c11.7,2.2,16.8,9,16.6,22.2c-0.2,12.5-0.2,24.9,0,37.4
		c0,2.8-0.7,3.3-3.3,3.4c-11.7,0.4-11.8,0.5-10.9-11.3c0.7-8.6,0.8-17.3,0.8-25.9c0-5.5-0.6-10.8-6.8-13.1
		c-5.6-2.1-15.8-0.1-19.3,3.7c-1.2,1.3-0.8,2.8-0.8,4.2c0,12.6,0,25.3,0.2,37.9c0.1,3.4-0.8,4.6-4.4,4.5c-10.2-0.1-10.2,0-9.9-10.4
		c0.5-15.9,1.5-31.9-1.9-47.7c-0.1-0.6-0.4-1.7-0.1-1.9c3.4-2.9,7.9-1.7,11.8-2.7c3.1-0.8,2.2,2.1,2.8,3.5
		C2550.9,291.7,2551,292.4,2551.3,293.2z"/>
	<path class="st2" d="M536.2,336.5c0.2,0.5,0.4,0.6,0.4,0.8c-0.8,14,1.4,12.3-12.8,14.2c-6,0.8-12,0.5-17.9-0.7
		c-20.7-4.2-34-22.2-32-43.3c2.7-28.9,27.1-46.5,55.5-40.1c2.9,0.6,3.5,1.7,2.9,4.4c-0.8,3.2-1.3,6.5-1.9,9.7
		c-18-4.6-29.5-2-36.5,8.1c-7.3,10.6-7.6,26.7-0.2,37.1C504.8,342.2,520,341.1,536.2,336.5z"/>
	<path class="st2" d="M3067.9,315.3c-0.2,10.1-0.3,20.3,1,30.4c0.4,3.1-0.1,5.4-3.9,4.6c-3.3-0.7-8.2,3-9.7-3.4
		c-0.1-0.6-1.8,0.4-2.6,0.9c-6.7,3.9-13.9,4.3-21.3,3.5c-8.7-0.9-13.7-5.8-15.6-14.4c-0.9-4.3-1.1-8.6-1.1-12.9
		c0.1-10.3,0.6-20.6-0.8-30.9c-0.5-3.4,0.8-4.2,4-4.3c11-0.3,11.1-0.4,10.4,10.8c-0.6,9.1-0.5,18.3,0.6,27.3c0.5,4.5,0.4,9.8,6,11.6
		c6.2,1.9,12.2,0.8,17.8-2.3c1.9-1,1.3-2.9,1.3-4.5c0-12.8,0-25.6-0.3-38.4c-0.1-3.5,0.9-4.5,4.4-4.6c9.9-0.2,9.9-0.3,9.8,9.4
		c0,2.8,0,5.7,0,8.5C3067.9,309.6,3067.9,312.5,3067.9,315.3z"/>
	<path class="st2" d="M1935.6,148.7c4,1.7,8.1,3.5,12.2,5.3c8.3,3.6,8.3,3.6,4.9,12.2c-8,20.4-18.8,39.1-32.3,56.4
		c-2.2,2.9-3.5,3.6-6.2,0.3c-4.1-5.1-9.6-8.7-15.1-12.1c-2.3-1.4-2.5-2.4-0.5-4.3c15.9-15.8,27.8-34.2,34.7-55.6
		C1933.7,149.9,1933.8,148.5,1935.6,148.7z"/>
	<path class="st2" d="M2259.1,301.7c-9.3,0-17.8-0.3-26.2,0.1c-3.4,0.2-3.8-0.8-3.8-3.7c0.1-9.5,0-9.5,9.5-9.5
		c10.8,0,21.6,0.1,32.5-0.1c3.6-0.1,4.3,1,4.3,4.5c-0.1,5-1.4,9-4.9,13c-8.5,9.7-16.6,19.9-24.3,31.1c8.5,0,16.5-0.1,24.5,0
		c2.1,0,5.6-1.8,6.2,0.5c0.9,3.7,0.7,7.9-0.3,11.8c-0.3,1.1-1.7,0.8-2.7,0.8c-14,0-28,0-42,0c-2.3,0-3-0.5-3.1-3.1
		c-0.1-5.9,1.5-10.5,5.7-15C2243.2,322.7,2251.3,312.6,2259.1,301.7z"/>
	<path class="st2" d="M2026.4,224.8c-9.4-24.1-19.7-46-32.3-66.7c-1.1-1.7-0.7-2.5,0.9-3.4c5.2-2.9,10.5-5.8,15.6-8.8
		c2-1.2,2.7-0.4,3.8,1.3c11.1,18.1,20.5,37.1,29.6,56.3c0.7,1.5,0.7,2.5-0.7,3.9C2037.8,212.8,2032.5,218.5,2026.4,224.8z"/>
	<path class="st2" d="M2832.5,287c2.3,0.2,3.8,0.3,5.3,0.4c11.1,0.8,11.1,1,8.4,11.6c-0.7,2.8-1.7,2.4-3.7,1.7
		c-5.4-1.9-11-2.7-16.7-2c-2.7,0.3-6,0.6-6.6,4.2c-0.6,3.4,2,5.1,4.6,6.3c5.4,2.6,11,4.7,16.3,7.5c5.7,3,9.7,7.5,10,14.5
		c0.4,11.5-6,18.5-18.9,20c-7.8,0.9-15.6,0.1-23.3-1.4c-2.8-0.6-3-1.7-2.5-4.1c1.6-8.9,1.6-8.9,10.1-6.9c5.2,1.2,10.5,1.6,15.9,0.7
		c2.7-0.4,5.3-1.3,5.9-4.5c0.6-3.2-1.5-4.9-3.9-6.3c-6.2-3.5-13.4-5.1-19.3-9.3c-5.4-3.8-8.4-9-7.6-15.8c0.9-7.2,4.9-12.3,11.7-14.9
		C2822.9,286.9,2828.1,286.9,2832.5,287z"/>
	<path class="st2" d="M1530.4,287.1c1.5,0.1,3,0.2,4.5,0.3c10.8,0.8,10.7,0.7,8.4,11c-0.6,2.5-1.2,3.3-3.9,2.3
		c-5.5-2.1-11.3-2.8-17.2-2c-2.6,0.4-5.5,0.8-6.1,4.1c-0.5,3.2,1.7,4.8,4.2,6.1c5.9,3.1,12.4,4.8,18,8.5c6.4,4.2,9.6,9.9,8.5,17.7
		c-1.2,8.2-6.1,13-13.9,15.1c-1.6,0.4-3.2,0.8-4.9,0.9c-8,0.6-15.9,0.1-23.8-1.6c-2.1-0.5-3-1-2.2-3.2c0.2-0.5,0.1-1,0.2-1.5
		c1.6-8.2,1.6-8.2,9.7-6.2c5.1,1.2,10.2,1.5,15.3,0.9c3.1-0.4,6.2-1.1,6.8-4.7c0.6-3.4-2-5-4.5-6.4c-5.7-3.1-12.1-4.7-17.6-8.2
		c-9.9-6.3-11.8-17.9-4.3-26.5c3.1-3.6,7.2-5.4,11.7-6.1c3.6-0.5,7.3-0.6,10.9-0.8C1530.4,286.9,1530.4,287,1530.4,287.1z"/>
	<path class="st2" d="M3123.9,337.7c-0.3,3.5-0.7,6.5-0.8,9.5c-0.1,2-1.3,2.4-2.7,2.9c-14.9,5.5-26.8-1.7-28.6-17.4
		c-1-8.6-0.8-17.2-0.3-25.9c0.2-3.8-0.4-6.3-5-5c-4.5,1.2-6-0.7-5-5c0.2-0.8,0.3-1.7,0.2-2.5c-0.5-4.2,1.4-5.7,5.3-4.6
		c4.3,1.1,5.8-0.5,5.2-4.7c-0.2-1.6,0.2-3.3,0.3-5c0.3-7,0.3-7,7.1-7.8c6.7-0.8,6.7-0.8,6,5.9c-1.3,12-1.3,11.9,10.6,11.5
		c2.1-0.1,5.6-1.1,5.9,0.6c0.7,3.6,0.1,7.6-0.4,11.3c-0.1,1-1.8,0.4-2.7,0.4c-4-0.1-8-0.1-12-0.4c-2.2-0.1-2.9,0.8-2.9,2.9
		c0.2,8.3-0.4,16.6,0.7,24.9c1.1,8.4,5,11.3,13.3,9.6C3119.8,338.6,3121.6,338.2,3123.9,337.7z"/>
	<path class="st2" d="M2874,317.6c0-2.5,0-5,0-7.5c-0.1-2.6,0.7-5.8-0.5-7.8c-1.3-2.1-4.6-0.2-7-0.3c-1.5-0.1-2.6-0.1-2.5-2
		c0.1-2.8,0-5.6,0.2-8.5c0.2-3.1,2.6-1.9,4.2-1.9c6.5,0,6.5,0.1,6.6-6.5c0-0.3,0-0.7,0-1c0.1-10.1,1.1-10.9,11.5-10.6
		c2.5,0.1,2,1.3,1.9,2.8c-0.3,4.1-0.4,8.3-0.8,12.4c-0.2,2.5,0.8,3.3,3.1,3.1c3.8-0.2,7.6-0.2,11.5-0.5c2.1-0.2,3.2,0.4,2.9,2.6
		c0,0.3,0,0.7,0,1c-0.8,10.1,1.7,9.3-9.6,8.6c-8.4-0.5-8.5-0.6-8.4,7.6c0.1,7.1-0.7,14.3,0.6,21.4c1.3,7.1,4.8,9.6,11.9,8.5
		c1.5-0.2,2.9-0.6,4.4-0.9c0.8-0.1,1.6-0.7,2.3,0.2c1.5,1.8-1.1,11-3.3,11.7c-6.1,1.7-12.1,1.8-18.1-0.3c-6.1-2.2-8.5-7.1-9.7-12.9
		C2873.7,330.6,2874,324.1,2874,317.6z"/>
	<path class="st2" d="M1176,337.8c-0.2,1.6-0.3,2.7-0.4,3.8c-0.8,8.6-1.9,9.6-10.9,9.8c-13.2,0.2-18.6-4.2-20.7-17.1
		c-1.5-9.2-0.6-18.6-0.6-27.9c0-3.9-0.8-5.6-4.9-4.6c-3.8,1-6,0-5-4.5c0.2-1,0.1-2,0-3c-0.2-3.6,1.1-5.7,5.1-4.6
		c4.8,1.2,6.4-0.8,5.7-5.4c-0.1-0.7,0-1.3,0-2c0.3-10.1,1.2-10.9,11.4-10.7c2.3,0,2.3,0.9,2.1,2.7c-0.4,4.1-0.4,8.3-0.8,12.4
		c-0.2,2.7,0.9,3.5,3.5,3.2c2-0.2,4-0.3,6-0.3c8-0.2,7.7-0.2,7.7,7.9c0,4-1.4,4.8-4.9,4.5c-4.1-0.3-9.6-2.3-12,0.2
		c-2.9,2.9-0.8,8.5-0.9,12.9c-0.1,5.3-0.4,10.6,0.7,15.9c1.3,6.5,4.5,9,11.2,8.2C1170.8,339,1173.2,338.4,1176,337.8z"/>
	<path class="st2" d="M2372.1,317.4c0-3.8-0.2-7.7,0.1-11.5c0.2-3.4-0.7-4.9-4.4-4.2c-1.8,0.4-5,1.2-5.3-0.4
		c-0.7-3.6-1.1-7.8,0.7-11.2c0.8-1.5,3.8-0.6,5.6-0.3c3.6,0.7,4.5-0.9,4.3-4c-0.1-1.2,0-2.3,0-3.5c0.2-10.3,0.8-10.8,11.3-10.7
		c2.3,0,2.3,0.9,2.2,2.6c-0.3,3.6-0.2,7.3-0.7,10.9c-0.5,3.9,0.5,5.5,4.7,4.7c3.2-0.5,6.6-0.2,10-0.4c1.9-0.1,2.8,0.4,2.5,2.4
		c0,0.2,0,0.3,0,0.5c-0.6,11.5,1.4,9.9-9.9,9.3c-8.1-0.5-8.2-0.5-8.1,7.5c0.1,7-0.6,14,0.5,20.9c1.3,8.2,5.1,10.6,13.3,9.1
		c1.8-0.3,4.3-2.5,5.5,0.2c1.6,3.4-1.1,10.2-3.7,11c-4.4,1.3-8.9,1.6-13.3,0.8c-8.5-1.4-12.6-5.8-14.3-14.4
		C2371.8,330.3,2372.2,323.8,2372.1,317.4z"/>
	<path class="st2" d="M2996.6,337.9c0.5,12.1,0.6,13-11.7,13.4c-12.8,0.4-19.1-5.4-19.9-18.4c-0.6-8.9-0.4-17.9-0.2-26.8
		c0.1-4-1.4-5.1-4.9-4.2c-4.7,1.2-5.9-0.9-5.2-5.1c0.1-0.5,0.2-1,0.1-1.5c-0.9-5,1.3-6.6,5.9-5.5c3.4,0.8,5.1-0.1,4.6-3.9
		c-0.1-1.3,0.2-2.6,0.3-4c0.5-9.8,0.5-9.7,10.5-10.2c2.2-0.1,3,0.3,2.7,2.6c-0.4,3.6-0.4,7.3-0.9,10.9c-0.5,3.6,0.4,5.3,4.4,4.7
		c3.4-0.5,7-0.3,10.4-0.5c1.8-0.1,2.6,0.3,2.7,2.4c0.5,10,0,10.5-9.9,9.8c-8.4-0.6-8.4-0.6-8.4,7.8c0,6.1,0,12.3,0.4,18.4
		c0.6,10,4.7,12.9,14.4,10.8C2993.7,338.4,2995.1,338.2,2996.6,337.9z"/>
	<path class="st2" d="M1749.1,337.8c-0.2,12,1.3,13.2-12.8,13.5c-12.1,0.2-18.2-5.9-19-18.9c-0.5-8.6-0.4-17.3-0.2-25.9
		c0.1-3.9-0.8-5.5-5-4.8c-1.6,0.3-4.6,1.9-4.9-1c-0.4-3.5-1-7.4,0.8-10.7c0.4-0.7,3.2-0.6,4.7-0.3c4.2,1,5.3-0.9,5.2-4.6
		c0-3,0.3-6,0.2-9c-0.1-2.5,0.7-3.4,3.3-3.7c10.4-1.1,10.4-1.2,9.5,9.4c-0.6,7.9-0.6,7.9,7.4,7.8c0.5,0,1,0,1.5,0
		c8.2-0.2,8.1-0.2,7.8,7.8c-0.1,3.3-0.7,5.1-4.8,4.7c-4.1-0.4-9.3-2.3-12,0.2c-2.8,2.5-0.8,7.9-1,11.9c-0.3,5.3-0.1,10.6,0.5,15.9
		c0.8,7.5,5.1,10.3,12.5,8.9C1745,338.8,1746.9,338.3,1749.1,337.8z"/>
	<path class="st2" d="M1071.2,320c0-20.8,16.8-35.4,38-33.1c9.8,1.1,11.3,3.7,7.6,13c-0.7,1.8-1.5,1.8-3,1.3
		c-2.1-0.6-4.1-1.4-6.3-1.7c-16.4-2.4-26.7,10.2-21.5,26c3.4,10.4,12.7,15.6,24.6,13.6c0.7-0.1,1.3-0.3,1.9-0.5
		c8.8-1.9,8.8-1.9,7.9,7c-0.2,2.1-1,3.3-3,4C1098.5,356.4,1071.1,348.1,1071.2,320z"/>
	<path class="st2" d="M1472.3,286.7c0.4,0,1.9,0.1,3.4,0.3c9,1.1,8.8,1.1,7.7,10c-0.5,4.6-2.1,4.7-6,3.5c-13.8-4.1-23.7,0.9-26,12.8
		c-3.2,16.5,8.7,28.6,25.3,25.9c0.7-0.1,1.3-0.4,1.9-0.5c8.8-1.9,8.6-1.9,7.9,7.1c-0.3,3.2-2.3,3.7-4.4,4.5
		c-12.2,4.4-28.8,0.7-36.9-8.5c-9.5-10.7-10.4-23-5.1-35.8C1445.2,293.6,1456.9,286.6,1472.3,286.7z"/>
	<path class="st2" d="M2869.9,99.7c2.2-2.2,4-4.2,5.9-6c3.1-2.9,5.8-8.1,9.6-8.1c3.7,0,7.4,3.9,11,6.3c13.7,8.8,26.7,18.6,39.3,28.9
		c2.5,2.1,3.2,3.5,1.2,6.4c-2.9,4-5.6,8.3-8,12.6c-1.7,3-2.9,3-5.3,0.7c-14.8-14.1-31-26.6-48.4-37.4
		C2873.6,101.9,2871.9,100.9,2869.9,99.7z"/>
	<path class="st2" d="M2772.9,120.1c13.2-6.5,25.2-14.2,35.7-24c3.8-3.5,7.6-7,11-10.9c1.8-2,2.9-2,4.9-0.6
		c4.2,2.8,8.4,5.4,12.7,7.8c2.1,1.2,2.5,2.1,0.6,4c-13.6,14-27.7,27.3-44.3,37.8c-2.5,1.6-4,1.8-6.3-0.6
		C2782.8,129,2777.9,124.8,2772.9,120.1z"/>
	<path class="st2" d="M962.3,319.3c0.5-17.8,1-35.6-0.9-53.3c-0.4-3.8,0.6-5.2,4.5-5.4c11.1-0.5,11-0.7,10.7,10.4
		c-0.7,25.1-1.1,50.2,0.7,75.2c0.2,3-0.7,4-3.8,4c-11.6,0.1-11.5,0.3-11.2-11C962.5,332.6,962.3,326,962.3,319.3z"/>
	<path class="st2" d="M2076.2,293.3c6.9-7.3,15.2-7.7,24.2-4.9c2.5,0.8,3.4,1.7,2.2,4.2c-0.2,0.4-0.3,1-0.4,1.4
		c-0.7,2.6-0.7,5.8-2.3,7.5c-2,2.1-4.7-0.8-7.2-1.1c-10.5-1.2-16.5,4.1-16.3,14.7c0.2,10.3,0.4,20.6,0.7,30.8c0.1,3-0.4,4.4-4,4.4
		c-10.4,0-10.3,0.2-10.1-10c0.4-16.2,1.4-32.5-2.2-48.6c-0.2-0.8-0.7-2,0.2-2.2c4-0.8,8.1-1.8,12.2-1.9
		C2076.2,287.6,2074.4,291.3,2076.2,293.3z"/>
	<path class="st2" d="M1206.4,293.6c7.1-7.9,15.5-7.9,24.5-5.2c2.3,0.7,3.1,1.6,2.2,3.9c-0.4,0.9-0.5,1.9-0.8,2.9
		c-1.9,6.6-1.9,6.6-8.5,5.4c-11.9-2.1-17.5,5.5-16.9,13.9c0.7,10.6,0.2,21.3,0.6,31.9c0.1,3.1-0.6,3.9-3.8,3.9
		c-10.5,0-10.5,0.2-10.2-10.5c0.4-15.9,1.4-31.9-2.1-47.7c-0.1-0.6-0.5-1.7-0.3-1.9c3.7-2.6,8.2-1.9,12.4-2.6
		c2.7-0.5,1.7,2.2,2.2,3.6C1205.8,291.8,1206,292.4,1206.4,293.6z"/>
	<path class="st2" d="M2705.1,308.5c-0.2,12.6-0.4,25.3,0.5,37.9c0.2,3-0.8,3.9-3.9,4c-11.2,0.1-11,0.2-10.8-10.8
		c0.4-22.8,0.9-45.6-0.4-68.3c-0.2-3.3,0.6-3.9,3.7-3.9c11.5-0.1,11.4-0.2,11.1,11.2C2704.9,288.5,2705.1,298.5,2705.1,308.5z"/>
	<path class="st2" d="M1784.2,79.2c-1.3,1.1-2.8,0.7-4.3,0.7c-18,0-35.9-0.1-53.9,0.1c-3.7,0-5.1-1-4.8-4.8
		c0.6-7.4-0.9-14.9,0.8-22.2c-0.1,7.6-0.2,15.3-0.3,22.9c0,2,0.1,3.5,2.8,3.5c14.8-0.1,29.7-0.1,44.5-0.2c0.2,0,0.5-0.3,1-0.8
		c-9.1-9.5-18.7-18.4-29-26.4c-3-2.3-3.6-3.8-0.2-6.1c1.9-1.3,3.6-3,5.3-4.6c8.6-7.7,8.6-7.7,18.1-0.7c7.5,5.6,14.5,11.7,21.6,17.8
		c3,2.6,3.6,4.2,0.1,7c-5,4-9.5,8.6-14.9,13.6C1776,79.2,1780.1,79.2,1784.2,79.2z"/>
	<path class="st2" d="M3125.9,114c-11.6,0.1-23.3-0.5-34.9,0.9c-2.9,0.4-3.8-0.6-3.7-3.4c0.2-4.8-1.7-10.9,0.6-14.1
		c2.5-3.4,8.8-0.1,13.4-0.3c16.4-0.6,32.9,0.9,49.3-1c1.5-0.2,2.2,0.1,2.1,1.7c0,0.3,0,0.7,0,1c0,5.1,1.8,11.6-0.6,15.1
		c-2.4,3.4-9.1-0.1-13.9,0.1C3134.2,114.1,3130.1,114,3125.9,114z"/>
	<path class="st2" d="M2120.5,70.6c-0.8,0.9-1.4,1.7-2.1,2.4c-4.3,4.9-8.7,9.6-12.8,14.6c-1.5,1.8-2.4,2.2-4.1,0.2
		c-7.2-8.3-14.9-16.1-23.5-23c-1.8-1.5-1.6-2.4-0.1-3.9c4.7-4.5,9.4-9,13.9-13.6c1.4-1.5,2.5-1.7,4.2-0.2c7.9,6.9,15.6,14,22.9,21.5
		C2119.5,69.2,2120,69.9,2120.5,70.6z"/>
	<path class="st2" d="M2436.1,319c0,9.1-0.2,18.3,0.1,27.4c0.1,3.1-0.7,3.9-3.8,4c-10.5,0.1-10.5,0.2-10.3-10.4
		c0.3-15.9,1.1-31.9-1.7-47.7c-0.3-1.8-0.1-2.5,1.9-3c13.9-3.5,14.1-3.3,13.4,10.8c-0.3,6.3-0.1,12.6-0.1,18.9
		C2435.8,319,2436,319,2436.1,319z"/>
	<path class="st2" d="M2924,324.9c0.2-11,0.4-21.9-1.7-32.8c-0.4-1.8,0-2.5,2-3c13.8-3.5,13.9-3.5,13.2,10.9
		c-0.7,15.3-0.4,30.5,0.5,45.8c0.2,3.4-0.7,4.5-4.3,4.4c-10.1-0.2-10,0-9.8-9.9C2924,335.3,2924,330.1,2924,324.9z"/>
	<path class="st2" d="M2220.4,63.1c0.6,1.7-0.9,1.9-1.8,2.4c-5.7,2.8-11.4,5.5-17,8.3c-1.8,0.9-2.6,0.4-3.2-1.3
		c-3.4-9.9-7.6-19.5-12.4-28.8c-1-2-0.3-2.6,1.3-3.3c5.8-2.5,11.5-5.2,17.3-7.8c1.1-0.5,1.9-1.1,3,0.2
		C2209.2,34.9,2220.3,60.5,2220.4,63.1z"/>
	<path class="st2" d="M2208.7,316.5c0,9.9-0.2,19.9,0.1,29.8c0.1,3.1-0.5,4-3.6,4c-11.3,0.2-11.2,0.3-10.6-11.1
		c0.9-15.2,1-30.5-1.4-45.6c-0.5-3,0-4.5,3.4-4.7c3.8-0.2,8.5-2.4,11.1-0.9c2.9,1.8,0.4,6.9,0.5,10.5c0.3,6,0.1,11.9,0.1,17.9
		C2208.4,316.5,2208.6,316.5,2208.7,316.5z"/>
	<path class="st2" d="M644.9,314.9c-0.3,10.4-0.8,20.9,0.5,31.3c0.4,3.3-0.7,4.2-4,4.1c-10.9-0.1-10.6,0.1-10.2-10.8
		c0.6-15.4,1.1-30.9-1.6-46.1c-0.5-3,0.2-4.3,3.3-4.4c1.5,0,3-0.4,4.4-0.5c8.2-1,8-1,7.6,7C644.7,301.9,644.9,308.4,644.9,314.9z"/>
	<path class="st2" d="M1416.5,314.5c-0.1,10.6-0.5,21.2,0.7,31.8c0.3,2.8-0.2,4-3.6,4c-11,0-10.7,0.2-10.5-10.9
		c0.4-15.4,1-30.8-1.6-46.1c-0.5-2.6,0-3.7,2.9-4.2c12.7-2.4,12.6-2.5,12.2,10.1C1416.4,304.2,1416.5,309.4,1416.5,314.5z"/>
	<path class="st6" d="M2429.4,281.7c-5.2,0-8.3-3.2-8.4-8.4c0-5.4,4-9.5,9.3-9.6c4.7,0,8.5,3.8,8.5,8.6
		C2438.9,277.8,2434.9,281.7,2429.4,281.7z"/>
	<path class="st6" d="M2931.2,281.7c-5-0.1-8.3-3.4-8.4-8.4c0-6,4.3-9.3,12.6-9.4c2.1,0,5.4,5.2,5.4,8.7
		C2940.7,277.8,2936.6,281.8,2931.2,281.7z"/>
	<path class="st6" d="M2202.1,281.7c-5.2,0-8.4-3.1-8.5-8.3c-0.1-5.3,4-9.6,9.2-9.7c4.8-0.1,8.4,3.6,8.4,8.5
		C2211.4,278,2207.8,281.7,2202.1,281.7z"/>
	<path class="st6" d="M638.5,281.7c-5.1,0-8.4-3.2-8.5-8.3c-0.1-5.2,4.1-9.5,9.3-9.6c4.9-0.1,8.3,3.4,8.3,8.5
		C647.7,278.1,644.3,281.7,638.5,281.7z"/>
	<path class="st6" d="M1410.4,281.7c-5.1,0-8.4-3.2-8.6-8.3c-0.1-5.1,4.1-9.5,9.4-9.7c4.8-0.1,8.4,3.5,8.5,8.5
		C1419.7,277.8,1416,281.6,1410.4,281.7z"/>
	<path class="st7" d="M706.6,38.9c-4.2-0.5-4.2,2.4-4.3,5.3C700.8,37.8,701.1,37.5,706.6,38.9z"/>
	<path class="st8" d="M317,109.4c-8.3,0-16.7-0.1-25,0.1c-3.1,0.1-5.3-0.8-7.4-3.1c-19.3-21-43-34.5-71.2-39
		c-40.2-6.5-76.2,3.5-106.7,30.9c-22.4,20.2-35.7,45.6-39.9,75.4c-8.9,64.5,32.3,125.4,96,139.6c47.6,10.6,88.6-2.7,122.3-38.2
		c1.6-1.7,3.2-2.5,5.6-2.5c17.3,0.1,34.7,0.2,52,0c4.3,0,4.3,1.2,2.4,4.4c-26.1,44.5-63.9,73.9-114.4,85.2
		c-55.6,12.5-106.3,0.4-150.6-35.3c-34.9-28.3-56-65.2-62.5-109.8C10,164,23.9,116.7,58.8,76c27-31.4,61.4-50.9,102.4-57.9
		c51.8-8.8,98.5,3.5,140,35.6c18.2,14.1,32.6,31.6,44.1,51.6c1.7,3,1.7,4.3-2.3,4.2C334.3,109.3,325.6,109.4,317,109.4z"/>
	<path class="st8" d="M112.6,191.2c0-16.8,0.1-33.6-0.1-50.4c0-3.3,0.9-4.2,4.1-4.1c25.5,0.1,51,0.1,76.5,0c3.5,0,4.7,0.9,4.4,4.4
		c-0.3,4.8-0.3,9.7,0,14.5c0.2,3.4-1.1,4.2-4.3,4.1c-15-0.2-30,0.1-45-0.2c-3.8-0.1-4.7,0.9-4.7,4.7c0.1,13,0,13,12.9,13
		c11,0,22,0.1,33-0.1c3.2-0.1,4.4,0.8,4.2,4.2c-0.3,4.6-0.3,9.3,0,14c0.3,3.5-1.2,4.1-4.3,4.1c-13.7-0.1-27.3,0.1-41-0.1
		c-3.6,0-5.2,0.7-4.8,4.6c0.4,4.3,0.3,8.7,0,13c-0.3,3.6,1.2,4.4,4.5,4.4c15.5-0.2,31,0,46.5-0.1c3.4,0,4.8,0.8,4.6,4.4
		c-0.3,5.5-0.2,11,0,16.5c0.1,2.7-0.6,3.8-3.6,3.8c-26.5-0.1-53-0.1-79.5,0c-3.4,0-3.7-1.3-3.7-4.1
		C112.6,224.8,112.6,208,112.6,191.2z"/>
	<path class="st8" d="M263.8,134.8c5.8-0.1,13.8,0.8,21.4,4.1c10.8,4.6,16.2,13.1,18.4,24.3c0.5,2.8,0.1,4.2-3.2,4.3
		c-7.3,0.2-14.6,0.8-21.9,1.4c-2.8,0.2-4-0.6-4.9-3.4c-2.8-9.1-12-13.2-20.6-9.6c-3.1,1.3-5.2,3.5-5.4,7.1c-0.2,3.8,1.9,5.8,5,7.1
		c6.8,2.8,14.1,3.7,21.1,5.8c7.7,2.3,15.3,4.6,21.8,9.5c19.2,14.7,15.3,46.4-7.7,57c-17.7,8.2-36.4,7.6-54.2-0.2
		c-12.2-5.4-16.7-16.8-18.9-29.3c-0.4-2.5,0.6-3,3-3.1c7.6-0.4,15.3-1,22.9-1.8c2.8-0.3,3.8,0.4,4.6,3.4c2.9,11.9,10.2,16.6,22,14.6
		c5-0.9,9-4.6,9.7-8.8c0.8-5.5-1.4-9.7-6.6-12.1c-6.5-3-13.7-4-20.5-6.1c-6.2-1.9-12.2-4.2-17.7-7.7c-18.5-12-18.1-38.2,0.7-49.7
		C241.4,135.9,251.3,134.8,263.8,134.8z"/>
	<path class="st8" d="M358.6,191.5c0,16.6-0.1,33.2,0.1,49.8c0,3.5-0.9,4.5-4.4,4.4c-8-0.3-16-0.2-24,0c-2.9,0.1-3.6-0.9-3.6-3.7
		c0.1-33.9,0.1-67.8,0-101.7c0-2.9,0.9-3.7,3.7-3.6c8.2,0.2,16.3,0.2,24.5,0c3.2-0.1,3.8,1,3.8,4
		C358.5,157.6,358.6,174.5,358.6,191.5z"/>
	<path class="st0" d="M3160.4,311.5c-3.3,0-6.6,0-9.9,0c-1.8,0-2.7-0.1-2.3-2.4c1.9-8.9,11.7-14.1,20.1-10.6c2,0.8,3.8,2.1,4.8,4.1
		c1.2,2.4,2.8,5.1,1.7,7.4c-1.1,2.1-4.1,1.2-6.4,1.3c-2.6,0.1-5.3,0-7.9,0C3160.4,311.4,3160.4,311.4,3160.4,311.5z"/>
	<path class="st8" d="M1049.9,109.4c-7.3,0-14.6-0.1-22,0.1c-2.7,0.1-3.8-0.6-3.8-3.5c0.2-8.1,0.1-16.3,0-24.4
		c0-2.6,0.7-3.4,3.4-3.4c15.1,0.1,30.3,0.1,45.4,0c2.8,0,3.3,1,3.3,3.5c-0.1,8.1-0.1,16.3,0,24.4c0,2.6-0.9,3.5-3.4,3.4
		C1065.2,109.3,1057.6,109.4,1049.9,109.4z"/>
	<path class="st8" d="M1049.9,158c-7.3,0-14.6-0.1-22,0.1c-2.6,0.1-3.8-0.5-3.8-3.5c0.2-7.5,0.2-14.9,0-22.4
		c-0.1-2.7,0.8-3.3,3.4-3.3c15.1,0.1,30.3,0.1,45.4,0c2.7,0,3.4,0.9,3.3,3.4c-0.1,7.5-0.2,14.9,0,22.4c0.1,2.7-0.9,3.4-3.4,3.4
		C1065.2,157.9,1057.6,158,1049.9,158z"/>
	<path class="st8" d="M977.4,109.4c-6.5,0-13-0.1-19.5,0.1c-2.9,0.1-4.2-0.6-4.1-3.8c0.2-8,0.2-16,0-23.9c-0.1-2.9,1.1-3.6,3.8-3.6
		c13.2,0.1,26.3,0.1,39.5,0c2.7,0,3.9,0.6,3.8,3.6c-0.2,8-0.2,16,0,23.9c0.1,3.2-1.1,3.9-4.1,3.8
		C990.4,109.2,983.9,109.4,977.4,109.4z"/>
	<path class="st8" d="M977.5,158c-6.6,0-13.3-0.1-19.9,0.1c-2.8,0.1-3.7-0.8-3.6-3.6c0.2-7.5,0.1-14.9,0-22.4c0-2.3,0.5-3.2,3-3.2
		c13.6,0.1,27.3,0.1,40.9,0c2.4,0,3.2,0.7,3.1,3.1c-0.1,7.6-0.2,15.3,0,22.9c0.1,2.8-1.1,3.3-3.5,3.2
		C990.8,157.9,984.1,158,977.5,158z"/>
	<path class="st8" d="M602,95.9c7.7,0,15.3,0.1,23-0.1c2.8-0.1,3.6,0.8,3.6,3.6c-0.1,14-0.1,27.9,0,41.9c0,2.8-0.8,3.6-3.6,3.6
		c-15.3-0.1-30.6-0.1-45.9,0c-2.8,0-3.6-0.8-3.6-3.6c0.1-14,0.1-27.9,0-41.9c0-2.8,0.8-3.6,3.6-3.6C586.7,96,594.4,95.9,602,95.9z"
		/>
	<path class="st8" d="M526,95.9c7.2,0,14.3,0.1,21.5-0.1c3-0.1,4.3,0.4,4.3,4c-0.2,13.8-0.2,27.6,0,41.4c0,2.7-0.5,3.7-3.5,3.7
		c-14.8-0.2-29.6-0.2-44.4,0c-3,0-3.5-1-3.5-3.7c0.1-13.8,0.2-27.6,0-41.4c-0.1-3.5,1.3-4,4.3-4C511.7,96,518.9,95.9,526,95.9z"/>
	<path class="st0" d="M2177.6,96.4c4.5,0,9,0.1,13.5-0.1c2.7-0.1,3.4,0.9,3.3,3.4c-0.2,5.8-0.2,11.6,0,17.4c0.1,3-1.1,3.5-3.8,3.5
		c-8.6-0.1-17.3-0.1-25.9,0c-2.4,0-3.6-0.4-3.5-3.2c0.2-6,0.2-12,0-17.9c-0.1-2.9,1.1-3.3,3.5-3.2
		C2168.9,96.5,2173.2,96.4,2177.6,96.4z"/>
	<path class="st0" d="M2177.8,162.6c-4,0-8-0.2-12,0.1c-3.5,0.3-5.1-0.5-4.8-4.5c0.4-5.1,0.2-10.3,0-15.4c-0.1-2.5,0.5-3.6,3.2-3.5
		c9,0.2,18,0.1,26.9,0c2.5,0,3.1,1,3.1,3.2c-0.1,5.6-0.2,11.3,0,16.9c0.1,2.8-1.1,3.3-3.6,3.2
		C2186.5,162.5,2182.2,162.6,2177.8,162.6z"/>
	<path class="st8" d="M2177.6,180.7c4.2,0,8.3,0.2,12.5-0.1c3-0.2,4.5,0.4,4.3,3.9c-0.3,5.6-0.2,11.3,0,16.9
		c0.1,2.6-0.7,3.4-3.4,3.4c-8.8-0.1-17.6-0.1-26.4,0c-2.4,0-3.6-0.4-3.5-3.2c0.2-6,0.2-12,0-17.9c-0.1-2.4,0.7-3.2,3.1-3.1
		C2168.7,180.9,2173.2,180.7,2177.6,180.7z"/>
	<path class="st8" d="M861.3,132.8c0,23.1-0.1,46.2,0.1,69.3c0,3.8-1,4.6-4.7,4.6c-42.5-0.1-84.9-0.1-127.4,0
		c-3.7,0-4.7-0.8-4.7-4.6c0.1-46.2,0.1-92.4,0-138.6c0-3.8,1-4.6,4.7-4.6c42.5,0.1,84.9,0.1,127.4,0c3.7,0,4.7,0.8,4.7,4.6
		C861.2,86.6,861.3,109.7,861.3,132.8z"/>
	<path class="st8" d="M1547.6,134c-3.2,11.4-16.9,34.6-25.7,43.6c-9.7-13.5-17.5-27.9-23.5-43.6C1515,134,1531.1,134,1547.6,134z"/>
	<path class="st8" d="M2684.2,89.2c0,9.3-0.1,18.6,0.1,27.9c0.1,3-0.5,4.5-4,4.3c-5.1-0.3-10.3-0.1-15.5,0c-2.4,0-3.6-0.4-3.6-3.2
		c0.1-19.3,0.1-38.5,0-57.8c0-2.8,1.2-3.3,3.6-3.2c5.3,0.1,10.7,0.2,16,0c3-0.1,3.6,1.1,3.5,3.8
		C2684.1,70.3,2684.2,79.8,2684.2,89.2z"/>
	<path class="st8" d="M2581.2,159.3c0,9.8-0.1,19.6,0.1,29.4c0.1,3-0.8,4.1-3.9,3.9c-4.1-0.3-8.3-0.2-12.5,0
		c-2.2,0.1-2.9-0.7-2.9-2.8c0.1-20.4,0.1-40.9,0-61.3c0-2.2,0.7-3.1,2.8-2.8c0.2,0,0.3,0,0.5,0c5.1,0.2,11.7-2.1,14.9,0.9
		c3.1,2.8,0.8,9.4,0.9,14.3C2581.3,147,2581.2,153.2,2581.2,159.3z"/>
	<path class="st8" d="M2159,318.9c0,4.5-0.1,9,0.1,13.4c0.1,2.7-1,4.2-3.3,5.4c-12.1,6.3-24.6,0.2-26.7-13.3
		c-0.7-4.8-0.5-9.6,1-14.2c3.5-10.5,13.4-15.3,23.9-11.5c2.8,1,4.4,2.6,4.2,5.8c-0.2,4.8,0,9.6,0,14.4
		C2158.4,318.9,2158.7,318.9,2159,318.9z"/>
	<path class="st8" d="M1956.7,319c0,4.5-0.2,9,0.1,13.4c0.2,3.3-1.4,5-4.2,5.9c-11.9,4-23.6,1.7-26.1-15.7c-2-14.6,7-25.6,19.9-24.8
		c7.7,0.5,9.5,2.2,9.7,9.9c0.1,3.8,0,7.6,0,11.4C1956.3,319,1956.5,319,1956.7,319z"/>
	<path class="st8" d="M778.9,328.7c0.2,7.8-0.6,9-7.8,10.4c-3.1,0.6-6.3,0.5-9.4,0.3c-2.8-0.1-5.3-1.1-6.3-4c-0.9-2.9-0.3-5.6,1.6-8
		c2.7-3.5,16.8-7.7,20.5-5.6C780,323.3,778.2,326.7,778.9,328.7z"/>
	<path class="st0" d="M2331.6,328.6c0.4,7.7-0.7,9.4-7.9,10.6c-2.8,0.5-5.6,0.4-8.5,0.3c-2.9-0.1-5.9-0.8-6.9-3.9
		c-1-3.2-0.5-6.4,2.1-8.7c5.7-5.1,13-4.4,19.9-5c1.3-0.1,1.3,1.3,1.3,2.3C2331.6,325.7,2331.6,327.4,2331.6,328.6z"/>
	<path class="st0" d="M2026.6,328.7c0.6,7.6,0,8.4-6.8,10.2c-3.1,0.8-6.3,0.7-9.4,0.6c-3-0.1-5.9-0.8-7-3.9
		c-1.2-3.4-0.5-6.8,2.3-9.1c5.6-4.8,12.7-4.2,19.5-4.8c1.4-0.1,1.4,1.2,1.4,2.2C2026.7,325.8,2026.6,327.6,2026.6,328.7z"/>
	<path class="st8" d="M1291.5,320.1c0.2,5.4-1.2,10.3-4.2,14.7c-5.9,8.8-18.6,8.9-24.1-0.1c-6.1-9.8-6.5-20.1-0.7-30.1
		c5.7-9.9,19-9.7,24.9,0.1C1290.4,309.4,1291.8,314.6,1291.5,320.1z"/>
	<path class="st8" d="M2503.2,320.5c0.1,4.4-1.2,9.3-4,13.8c-5.8,9.2-18.6,9.6-24.4,0.4c-6.1-9.7-6.6-20.1-0.7-30.1
		c5.8-9.9,18.9-9.8,25,0C2501.8,309,2503.2,314,2503.2,320.5z"/>
	<path class="st0" d="M1025,311.5c-2.6,0-5.3,0-7.9,0c-5.4,0-5.6-0.4-3.4-5.5c2.8-6.1,8.4-9.3,15.3-8.5c5.6,0.6,8.9,4,10.1,9.9
		c0.5,2.5,0,3.7-2.8,3.7c-3.8-0.1-7.6,0-11.4,0C1025,311.3,1025,311.4,1025,311.5z"/>
	<path class="st0" d="M1801.2,329.3c0,7.6-0.8,8.7-8.2,9.9c-2.6,0.4-5.3,0.4-8,0.3c-3.3-0.1-6.5-0.9-7.5-4.5c-1-3.8,0.6-6.9,3.6-9.1
		c3.6-2.7,7.9-3.2,12.3-3.6C1801.2,321.6,1801.2,321.5,1801.2,329.3z"/>
	<path class="st2" d="M828.2,139.9c5.1,5.3,9.7,10.4,14.5,15.2c3,3,3.4,5.4,0.4,8.7c-3,3.2-5.4,7-8.3,10.9c5.1,0,9.6,0.4,13.9-0.1
		c3.8-0.4,4.6,0.9,4.3,4.3c-0.3,3.3-0.1,6.6-0.1,10c0,6.3,0,6.4-6.1,5.7c-11-1.2-22-0.5-33-0.6c-23.8,0-47.6,0-71.5,0.4
		c-9,0.2-9,0.7-9-8.5c0-11.7,0-11.4,11.5-11c11.6,0.4,23.3,0.2,35,0.4c2.6,0,3.5-0.8,3.4-3.4c-0.1-9.8-0.2-19.6,0-29.4
		c0.1-3.1-1.3-3.5-3.9-3.5c-11.5,0-23-0.2-34.4,1.1c-3.3,0.4-4-0.7-3.8-3.6c0.2-4.1,0.2-8.3,0-12.5c-0.1-2.7,0.8-3.4,3.4-3.1
		c11.4,1.3,23,0.7,34.4,1c3.2,0.1,4.4-0.7,4.3-4.1c-0.2-7.6-0.2-15.3,0-22.9c0.1-3.2-0.9-3.9-3.9-3.8c-13.6,0.4-27.3-0.5-41,0.7
		c-2.6,0.2-3.7-0.2-3.6-3c0.2-4.5,0.1-9,0-13.5c0-2.2,0.7-2.6,3-2.5c36.3,1.5,72.6,1.3,108.9,0.1c2.5-0.1,3.3,0.4,3.2,2.8
		c-0.1,4.3-0.1,8.6,0,13c0.1,2.6-0.6,3.4-3.4,3.1c-13.3-1.3-26.6-0.3-39.9-0.7c-2.6-0.1-3.4,0.7-3.4,3.3c0.2,8,0.2,16,0,23.9
		c-0.1,2.9,0.9,3.7,3.7,3.6c11.5-0.2,23,0.4,34.4-0.9c3.1-0.4,4.2,0.5,4,3.6c-0.3,4-0.3,8,0,12c0.2,3.3-1.1,3.8-4.1,3.6
		C837.1,139.7,832.9,139.9,828.2,139.9z"/>
	<path class="st8" d="M831.2,175.2c-9.2,0-17.3,0-25.4,0c-2,0-2.6-0.8-2.5-2.7c0.1-10.3,0-20.6,0-30.9c0-1.8,0.5-2.7,2.5-2.7
		c6.1,0.1,12.2,0,19.6,0c-3.8,4-6.7,7.4-9.9,10.3c-2.9,2.6-3.5,4.2-0.1,7.2C821.2,161.7,826.1,167.8,831.2,175.2z"/>
</g>
</svg>
