<svg xmlns="http://www.w3.org/2000/svg" viewBox="0 0 469.55 341.12"><defs><style>.cls-1{fill:#00a2fe;}.cls-2{fill:#00c7db;}.cls-3{fill:#006efe;}.cls-4{fill:#00304c;}.cls-5{fill:#4c4c4c;}.cls-6{fill:#24c3ec;}.cls-7{fill:#1bc5e7;}.cls-8{fill:#fdfdfd;}.cls-9{fill:#063a59;}.cls-10{fill:#1ebcf1;}.cls-11{fill:#99b9ca;}.cls-12{fill:#a2cce2;}.cls-13{fill:#35aaf2;}.cls-14{fill:#00213f;}.cls-15{fill:#525252;}.cls-16{fill:#464646;}.cls-17{fill:#3f3f3f;}</style></defs><g id="图层_2" data-name="图层 2"><g id="图层_1-2" data-name="图层 1"><path class="cls-1" d="M290.44,341.12c-57.7-.11-115.4-.11-173.1-.47-6.53,0-13.25.74-19.7-1.32-3.19-.88-2.34-2.57-.74-4.2,4.51-4.59,8.81-9.41,14-13.24,3.19-2.89,6.13-6,9.16-9.07,5.34-4.54,9.22-10.69,15.55-14.15q22-21.33,44-42.67c27.88-27.15,55.54-54.52,83.65-81.43,12.88-12.33,25.47-25.07,40.58-34.9,20.76-13.5,43.6-19.69,67.94-16.73,37.66,4.6,66.11,24,84.7,57.36,10.19,18.26,14.18,38,12.75,58.74-1.14,16.59-5.53,32.37-14.67,46.54-1.17-1-1.2-2.32-1.26-3.64-.92-20-9.39-36-25.8-47.66A5.09,5.09,0,0,1,426,231.7c-.78-7.58-1.24-15.13-3.87-22.5-8.92-25-33.07-41.88-59.53-42.62-20.68-.58-36.2,9-50.75,21.94C298,200.8,285.58,214.52,272,227a12.39,12.39,0,0,0-3.57,3.16,13,13,0,0,1-3.3,2.45,59.81,59.81,0,0,0-19.66,19,13.07,13.07,0,0,1-2.48,3.34,21.75,21.75,0,0,0-4.18,3.66c-12.37,12.45-24.83,24.82-38,38.1,12.64,1.15,24.44-.23,36.13.83a4.3,4.3,0,0,1,1.33.68c1.63,1.55,2.14,3.7,3,5.67,8.78,20.76,24.53,32.28,46.68,35.36a6.74,6.74,0,0,1,2.38.65A.75.75,0,0,1,290.44,341.12Z"/><path class="cls-2" d="M133.35,124.65c3.13,2.32,7,2.72,10.51,4,14.71,5.19,27.28,13.93,39,23.83,11.55,9.71,22.68,19.91,34.07,29.8,2.18,1.89,2.61,3.06.2,5.31q-12.72,11.91-25,24.29c-2,2-2.93,1.65-4.9-.08-12.94-11.37-25.57-23.09-39.29-33.56-36.19-27.6-88.13-10.16-101.41,30.07-9.19,27.84-3.63,52.58,17.64,73.1,8.89,8.57,20.05,13.15,32.24,15.09a136,136,0,0,0,21.21,2.14c4.9.87,9.88-.08,16.16.7-4.62,5.36-9.19,9.5-13.5,13.85-2.82,2.91-5.67,5.79-8.61,8.58-5.79,4-10.11,9.61-15.27,14.3-1.11,1-1.66,3.11-3.87,2.43-18.91-1.89-35.51-9.45-50.33-21-21.43-16.73-35-38.68-40.13-65.2C-4.35,218.73,4.08,188.63,25.51,162c11.37-14.12,25.78-24,42.1-31.36,7.46-3.34,15.52-5,23.38-7.15,1.66-1.9,4-2.28,6.27-2.35a153,153,0,0,1,20.65.19,21.36,21.36,0,0,0,7.59.76C128.31,122.35,131.21,122.34,133.35,124.65Z"/><path class="cls-3" d="M118.68,122.56c-9.24,0-18.51-.73-27.69,1A147.91,147.91,0,0,1,104.32,82a145.55,145.55,0,0,1,25.55-36.82A142,142,0,0,1,163,19.43a152.14,152.14,0,0,1,46.4-17,137.72,137.72,0,0,1,65.73,3.5,143.65,143.65,0,0,1,74.09,50.28c9.47,12.06,16.5,25.32,22.36,39.36,1.34,3.21.07,3.78-2.68,3.73a177.79,177.79,0,0,0-25.37,1,62.19,62.19,0,0,0-10.06,2.35c-3.51,1-4.71-.16-6.07-2.9-12.48-25.16-32.33-42.09-58.55-51.62a98.34,98.34,0,0,0-61.06-2.26c-32.93,9.27-56.4,30.11-69.31,62.28-2.16,5.39-3.38,11-5.12,16.47l-7.65-1.11C123.51,122.15,120.9,123.75,118.68,122.56Z"/><path class="cls-4" d="M427.69,233.41c14.45,8.84,22.35,22.07,25.77,38.33,1,4.58,1,9.21,1.14,13.84-.42,1.3-.84,2.61-1.25,3.91-1.47,5.66-5.1,10.06-8.79,14.3A107.83,107.83,0,0,1,381.36,340c-4.91.91-9.94.75-14.88.8-24.43.23-48.86.11-73.29.1-1,0-2,.23-2.86-.5-22.81.33-46.22-18.42-52.26-41.85.44-1.73,1.88-1.68,3.17-1.66,12.38.15,24.77-.13,37.15.15a10.86,10.86,0,0,1,3.86.75c5.16,2.93,8.6,7.69,12.35,12.06,4.27,5,4.13,5.09,9.32.87.77-.63,1.47-1.35,2.23-2,2.29-1.92,2.94-3.87.48-6.23-1.2-1.15-2.14-2.59-1.43-4.46,1.76-1.94,4-1,6.09-1,4.3-.11,8.6,0,12.9-.08,2.06,0,4.11-.08,4.48,2.69.07,4.36-2.84,7.66-4.2,11.52-1,2.82-.47,4.1,2.63,4a18.27,18.27,0,0,1,3.47,0c5.77.92,8.85-1.91,10.82-7,1.45-3.79,2.38-8,6-10.66a21.94,21.94,0,0,1,9.72-1.36,73.51,73.51,0,0,0,30-5.36c1.37-.54,2.73-1.25,4.26-.53,1.43,2.31-.33,3.78-1.59,5.14-2.27,2.45-4.21,5.17-6.48,7.59-1.75,1.87-1.66,3.47.18,5.12.24.22.47.47.7.71,6.06,6.43,6.06,6.43,12,0,5.54-6,10.9-12.11,16.36-18.15,2.66-2.93,2.64-5-.23-7.46a9.58,9.58,0,0,1-2.83-4.06c-1-2.49-.11-4.45,1.53-6.35a60.11,60.11,0,0,0,14.43-35.33C425.47,235.83,425,233.63,427.69,233.41Z"/><path class="cls-5" d="M290.33,340.4q35.21,0,70.41-.1c20.35,0,39.4-4.88,56.86-15.42,14.74-8.9,26.44-20.95,35.75-35.39C451,312.16,432.7,333,410.43,338.62A80.45,80.45,0,0,1,390.85,341c-33.47.09-66.94.06-100.41.08A1.37,1.37,0,0,0,290.33,340.4Z"/><path class="cls-6" d="M119.64,313.43l12.73-13.55c-5.23-1.26-10.13.65-14.68-1.27l18,.06a164.32,164.32,0,0,1-15,14.78C120.33,313.85,120,313.86,119.64,313.43Z"/><path class="cls-7" d="M92.6,338.47c4.88-4.7,9.75-9.42,14.65-14.1,1.29-1.23,2.3-2.92,4.39-3,.32.22.43.45.33.68s-.21.34-.32.34c-4.56,4.41-9.11,8.84-13.71,13.21-1.28,1.21-2.47,2.28-.3,3.7C95.93,339.24,94.09,339.84,92.6,338.47Z"/><path class="cls-5" d="M427.69,233.41c-2.06,5.07-1.35,10.6-2.93,15.84-2.78,9.17-6.68,17.62-13.2,24.66a4.29,4.29,0,0,0-1,5.24c-2.3,1.25-2.71-1.08-3.69-2.08-4.89-5-9.21-10.46-14-15.49-1.47-1.52-2.53-2-4.11-.52a7.94,7.94,0,0,1-.8.6c-7.12,5.26-7.25,6.21-1.7,13,2.74,3.34,6.22,6,8.48,9.78,2.16,3.59,1.15,5.77-3.11,6.75-3.26-1.12-5.55,1.5-8.13,2.46-10.93,4-22.33,3.58-33.62,4.29a22,22,0,0,0-2.41.39c-1.27-3.05.67-5.43,1.77-7.93,6.45-14.71,13.34-29.23,19.95-44.37a91.32,91.32,0,0,0-12.55-.18c-2.65,0-3.49,2.07-4.44,4.08-6.53,14-12.83,28.07-19.16,42.15-1.31,2.92-1.45,6.91-5.36,8.24-.31-.81.24-2.3-1.27-2.18a180.24,180.24,0,0,1-20.13.09c-.22,0-.47.76-.71,1.17-3.58.26-4.45-3-6.19-5-6.82-7.78-6.79-7.83.38-15.28,2.54-2.63,4.51-5.76,7.21-8.25,1.9-1.76,1.62-3.46-.26-5.05l-.76-.65c-6.65-5.82-6.47-5.64-12.59.56-4.91,5-9.24,10.45-14.16,15.41-5.45,5.48-5.22,6.13,0,11.75,1.73,1.87,5,3,4.22,6.52a20.13,20.13,0,0,0-6.78-1.06c-12.84.12-25.68.13-38.52.18a2.2,2.2,0,0,1-.54-.25c-3.72-6-3.52-12.66-3.2-19.25.36-7.33,2.41-14.34,5.11-21.15.79-1.43,2.15-2.4,3-3.76l2.16-2.7a116.23,116.23,0,0,1,20-19.63l3-2.13c1.45-1.36,3.35-2,5-3a20.91,20.91,0,0,1,5.1-1.43c2.95.07,5.67-.93,8.42-1.83a12.27,12.27,0,0,1,3.52-.38q55.38,0,110.74,0a11.46,11.46,0,0,1,3.54.38c2.48,1,5,2,7.77,1.74,5.32,1.48,10.85,2.52,14.89,6.82Z"/><path class="cls-8" d="M238.65,257.38a1.71,1.71,0,0,1,2.2,0c-4.44,12.52-7.09,25.19-3.35,38.44a9.53,9.53,0,0,1,0,2.45c-11.93.06-23.87.14-35.81.17-1.06,0-2.53.6-3.06-.84s.88-1.95,1.67-2.73"/><path class="cls-9" d="M264.65,231.81c-6.37,6.86-13,13.44-20,19.63A47.1,47.1,0,0,1,264.65,231.81Z"/><path class="cls-10" d="M111.65,322.42c0-.34,0-.68,0-1a40,40,0,0,1,8-8l1,0A48.6,48.6,0,0,1,111.65,322.42Z"/><path class="cls-11" d="M270.52,226.64l2.17,1a8.83,8.83,0,0,1-5.06,2A5.24,5.24,0,0,1,270.52,226.64Z"/><path class="cls-12" d="M240.85,257.41l-2.2,0a8.22,8.22,0,0,1,3.82-3.24C242.11,255.32,242.13,256.68,240.85,257.41Z"/><path class="cls-13" d="M118.68,122.56c2.36.2,4.9-.94,7,1C123.35,123.25,120.81,124.38,118.68,122.56Z"/><path class="cls-14" d="M321.65,317.69h16.7v.44h-16.7Z"/><path class="cls-15" d="M288.48,224.41c1.78-1.32,3.85-.76,5.77-.76q50.83-.08,101.68,0c1.92,0,4-.55,5.77.77Z"/><ellipse class="cls-16" cx="238.17" cy="281.91" rx="0.33" ry="14.66"/><path class="cls-17" d="M370.34,243.15H353.65v-.47h16.72Z"/><path class="cls-15" d="M277.57,226.45a15,15,0,0,1,8-1.84A12.09,12.09,0,0,1,277.57,226.45Z"/><path class="cls-15" d="M404.61,224.63a16.32,16.32,0,0,1,7.25,1.73C409.25,226.57,406.66,226.73,404.61,224.63Z"/></g></g></svg>