<svg id="Layer_1" data-name="Layer 1" xmlns="http://www.w3.org/2000/svg" viewBox="0 0 260.78 38.7777"><defs><style>.cls-1{fill:#002d42;}.cls-2{fill:#15a3a6;}.cls-3{fill:#fff;fill-rule:evenodd;}</style></defs><path class="cls-1" d="M64.535,32.11852a11.69293,11.69293,0,0,1-5.904-1.45125,9.67835,9.67835,0,0,1-3.859-4.15588,13.99435,13.99435,0,0,1-1.35231-6.33276A13.78619,13.78619,0,0,1,54.772,13.87886,9.67723,9.67723,0,0,1,58.631,9.723a11.69189,11.69189,0,0,1,5.904-1.45125,12.45936,12.45936,0,0,1,4.08991.65966,10.3803,10.3803,0,0,1,3.39726,1.847,1.8922,1.8922,0,0,1,.5937.69265,2.14609,2.14609,0,0,1,.16492.89054A1.89169,1.89169,0,0,1,72.385,13.582a1.18838,1.18838,0,0,1-.95651.49475,2.43937,2.43937,0,0,1-1.3523-.46177,9.39254,9.39254,0,0,0-2.63865-1.45125,8.11265,8.11265,0,0,0-2.70462-.42878,6.38742,6.38742,0,0,0-5.21133,2.1439q-1.74816,2.1438-1.7481,6.29977,0,4.18881,1.7481,6.33276a6.38773,6.38773,0,0,0,5.21133,2.14391,7.622,7.622,0,0,0,2.60567-.42878,12.41066,12.41066,0,0,0,2.7376-1.45126,4.61111,4.61111,0,0,1,.65966-.32983,1.84627,1.84627,0,0,1,.69264-.13193,1.18837,1.18837,0,0,1,.95651.49474,1.8915,1.8915,0,0,1,.39581,1.22038,2.295,2.295,0,0,1-.16492.89054,1.89378,1.89378,0,0,1-.5937.69265,10.88318,10.88318,0,0,1-3.39726,1.88A13.05909,13.05909,0,0,1,64.535,32.11852Zm21.90214,0a11.57834,11.57834,0,0,1-5.904-1.45125,9.73869,9.73869,0,0,1-3.826-4.15588,13.99422,13.99422,0,0,1-1.3523-6.33276,14.07509,14.07509,0,0,1,1.31932-6.29977,9.676,9.676,0,0,1,3.859-4.15588,11.57735,11.57735,0,0,1,5.904-1.45125,11.39745,11.39745,0,0,1,5.871,1.45125,9.477,9.477,0,0,1,3.826,4.15588,13.78091,13.78091,0,0,1,1.35241,6.29977,13.98884,13.98884,0,0,1-1.35241,6.33276,9.67847,9.67847,0,0,1-3.859,4.15588A11.331,11.331,0,0,1,86.43715,32.11852Zm0-3.39726a6.03759,6.03759,0,0,0,4.98045-2.20987,9.74643,9.74643,0,0,0,1.81407-6.33276q0-4.12293-1.81407-6.29977A6.03728,6.03728,0,0,0,86.43715,11.669a6.16831,6.16831,0,0,0-5.04642,2.20987q-1.78109,2.17689-1.78108,6.29977a9.874,9.874,0,0,0,1.78108,6.33276A6.16861,6.16861,0,0,0,86.43715,28.72126ZM118.704,9.4921a1.802,1.802,0,0,1,1.7481-1.12142,2.31164,2.31164,0,0,1,1.48425.52773,1.62345,1.62345,0,0,1,.65966,1.31932,2.13017,2.13017,0,0,1-.1979.82458L113.2618,30.70025a2.2238,2.2238,0,0,1-.92353.98949,2.606,2.606,0,0,1-1.28634.32983,2.79657,2.79657,0,0,1-1.31932-.32983,2.28106,2.28106,0,0,1-.89055-.98949L99.73872,11.04231a2.07731,2.07731,0,0,1-.1979-.7916,1.6576,1.6576,0,0,1,.65966-1.3523,2.49589,2.49589,0,0,1,1.55021-.52773,1.84929,1.84929,0,0,1,1.02247.29684,1.73375,1.73375,0,0,1,.75861.82458l7.58612,16.85438Zm9.35484,22.52748a2.09607,2.09607,0,0,1-1.5502-.5937,2.16413,2.16413,0,0,1-.56072-1.55021V10.51458a2.0486,2.0486,0,0,1,.56072-1.51722,2.09607,2.09607,0,0,1,1.5502-.5937,2.02994,2.02994,0,0,1,1.55021.5937,1.98708,1.98708,0,0,1,.5937,1.51722V29.87567a2.09673,2.09673,0,0,1-.5937,1.55021A2.03,2.03,0,0,1,128.05886,32.01958Zm10.24126-.1979a2.12432,2.12432,0,0,1-1.51722-.52773,2.00842,2.00842,0,0,1-.52772-1.48424V10.58055a2.00815,2.00815,0,0,1,.52772-1.48424,2.12383,2.12383,0,0,1,1.51722-.52773h6.53066q5.70658,0,8.83948,3.06743,3.16639,3.03433,3.16639,8.54262,0,5.54117-3.16639,8.6086-3.13389,3.03435-8.83948,3.03445Zm6.2668-3.46323q8.0149,0,8.0149-8.17982,0-8.14693-8.0149-8.14683H140.51V28.35845Zm33.55723,3.76007a17.21636,17.21636,0,0,1-4.81554-.65966,10.77763,10.77763,0,0,1-3.66113-1.84705,2.0099,2.0099,0,0,1-.3628-2.77059,1.25262,1.25262,0,0,1,.9895-.52772,2.68025,2.68025,0,0,1,1.35231.46176A9.88543,9.88543,0,0,0,174.595,28.2595a11.98518,11.98518,0,0,0,3.43025.46176,6.86445,6.86445,0,0,0,3.69411-.82457,2.79259,2.79259,0,0,0,1.28634-2.47374,2.07675,2.07675,0,0,0-1.22038-1.913,15.078,15.078,0,0,0-3.99095-1.31932,23.72418,23.72418,0,0,1-4.71659-1.45126,6.65369,6.65369,0,0,1-2.73761-2.11092,5.456,5.456,0,0,1-.92352-3.26533A6.14182,6.14182,0,0,1,170.571,11.702a7.49853,7.49853,0,0,1,3.19937-2.50671,11.32856,11.32856,0,0,1,4.65061-.92353,11.5042,11.5042,0,0,1,7.68507,2.50672,2.1686,2.1686,0,0,1,.5937.72563,1.6501,1.6501,0,0,1,.1979.85756,1.88117,1.88117,0,0,1-.42879,1.22037,1.18937,1.18937,0,0,1-.9565.49475,1.96551,1.96551,0,0,1-.62668-.099,5.39839,5.39839,0,0,1-.72562-.36282,10.5595,10.5595,0,0,0-2.63865-1.45125A8.48883,8.48883,0,0,0,178.421,11.669a6.10689,6.10689,0,0,0-3.56217.92353,2.87373,2.87373,0,0,0-1.28634,2.50672,2.31461,2.31461,0,0,0,1.1544,2.07793,13.52535,13.52535,0,0,0,3.925,1.35231,24.98893,24.98893,0,0,1,4.74957,1.48424,6.79766,6.79766,0,0,1,2.80357,2.045,4.9,4.9,0,0,1,.9895,3.1334,6.00371,6.00371,0,0,1-1.1544,3.62814,7.45828,7.45828,0,0,1-3.19937,2.44076,12.11644,12.11644,0,0,1-4.71659.85756Zm22.05539-16.82139q5.6726,0,5.6731,6.62961v8.11385a1.89543,1.89543,0,0,1-.56072,1.45126,2.00593,2.00593,0,0,1-1.48425.52773,2.12432,2.12432,0,0,1-1.51722-.52773,1.89543,1.89543,0,0,1-.56072-1.45126V21.92674a3.69048,3.69048,0,0,0-.72562-2.5397,2.73014,2.73014,0,0,0-2.20987-.82458,3.81709,3.81709,0,0,0-2.86953,1.12143,4.19968,4.19968,0,0,0-1.05546,3.00146v7.35524a1.89543,1.89543,0,0,1-.56072,1.45126,2.44488,2.44488,0,0,1-3.03445,0,1.96266,1.96266,0,0,1-.52772-1.45126V10.31668a1.81286,1.81286,0,0,1,.56072-1.38529,2.19876,2.19876,0,0,1,1.51722-.52773,2.16256,2.16256,0,0,1,1.48425.49475,1.70963,1.70963,0,0,1,.56072,1.3523v7.68507a5.303,5.303,0,0,1,2.17688-1.946A6.90964,6.90964,0,0,1,200.17954,15.29713Zm11.90587,16.72245a2.2401,2.2401,0,0,1-1.48424-.49475,1.93827,1.93827,0,0,1-.56072-1.48424V17.3091a1.83179,1.83179,0,0,1,.56072-1.45125,2.47374,2.47374,0,0,1,2.96849,0,1.78129,1.78129,0,0,1,.5937,1.45126V30.04059a1.88236,1.88236,0,0,1-.5937,1.48424A2.24013,2.24013,0,0,1,212.08541,32.01958Zm0-19.592a2.56087,2.56087,0,0,1-1.78108-.59369,2.12849,2.12849,0,0,1-.65966-1.61618,2.02452,2.02452,0,0,1,.65966-1.58319,2.56087,2.56087,0,0,1,1.78108-.59369,2.51482,2.51482,0,0,1,1.74811.59369,1.98051,1.98051,0,0,1,.69264,1.58319,2.13223,2.13223,0,0,1-.65966,1.61618A2.56444,2.56444,0,0,1,212.08541,12.4276Zm19.09413,14.97434a1.06635,1.06635,0,0,1,.89055.42878,1.73232,1.73232,0,0,1,.36282,1.15441,2.00026,2.00026,0,0,1-1.22039,1.71512,11.57861,11.57861,0,0,1-2.5397,1.02248,10.92365,10.92365,0,0,1-2.70461.36282,8.4032,8.4032,0,0,1-6.16784-2.24285,8.22181,8.22181,0,0,1-2.27582-6.13486,9.412,9.412,0,0,1,.9895-4.38676,7.22727,7.22727,0,0,1,2.77058-2.96848,7.98064,7.98064,0,0,1,4.08991-1.05546,7.31049,7.31049,0,0,1,3.793.95651,6.48719,6.48719,0,0,1,2.50673,2.70461,8.97428,8.97428,0,0,1,.89054,4.12289q0,1.41823-1.25336,1.41828h-9.73a5.26341,5.26341,0,0,0,1.28635,3.36428,4.37065,4.37065,0,0,0,3.16638,1.05546,5.85236,5.85236,0,0,0,1.84707-.26387,17.65637,17.65637,0,0,0,1.84706-.72563,3.63714,3.63714,0,0,1,1.45126-.52773Zm-5.70607-9.20229a3.593,3.593,0,0,0-2.70461,1.05546,5.04249,5.04249,0,0,0-1.18739,3.03445h7.45418a4.63544,4.63544,0,0,0-.9895-3.03445A3.24005,3.24005,0,0,0,225.47347,18.19965Zm12.50885,13.81993a2.2401,2.2401,0,0,1-1.48424-.49475,1.93827,1.93827,0,0,1-.56072-1.48424V10.34966a1.83179,1.83179,0,0,1,.56072-1.45125,2.47372,2.47372,0,0,1,2.96848,0,1.78129,1.78129,0,0,1,.5937,1.45125V30.04059a1.88238,1.88238,0,0,1-.5937,1.48424A2.24016,2.24016,0,0,1,237.98232,32.01958ZM257.76911,8.40366a2.19867,2.19867,0,0,1,1.5172.52773,1.7646,1.7646,0,0,1,.59369,1.38529V30.04059a1.85738,1.85738,0,0,1-.56072,1.41827,2.35109,2.35109,0,0,1-2.96849,0,1.85366,1.85366,0,0,1-.56072-1.41827V29.216a5.14291,5.14291,0,0,1-2.11092,2.11092,6.23172,6.23172,0,0,1-3.10041.75861,6.76449,6.76449,0,0,1-3.72709-1.05546,7.16478,7.16478,0,0,1-2.5397-2.96848,10.59133,10.59133,0,0,1-.89055-4.45272,10.14514,10.14514,0,0,1,.89055-4.38675,6.97294,6.97294,0,0,1,2.5397-2.90252,6.81844,6.81844,0,0,1,3.72709-1.02248,6.45722,6.45722,0,0,1,3.10041.72563,5.04137,5.04137,0,0,1,2.07794,2.045v-7.817a1.72007,1.72007,0,0,1,.52773-1.31933,2.0748,2.0748,0,0,1,1.48424-.52773Zm-6.10188,20.48252a3.62121,3.62121,0,0,0,3.03445-1.35231,6.0191,6.0191,0,0,0,1.08844-3.859,5.87753,5.87753,0,0,0-1.08844-3.826,3.58585,3.58585,0,0,0-3.00147-1.3523,3.75383,3.75383,0,0,0-3.06743,1.31932,5.81963,5.81963,0,0,0-1.08844,3.79306,6.16265,6.16265,0,0,0,1.08844,3.892A3.64076,3.64076,0,0,0,251.66723,28.88618Z"/><path class="cls-2" d="M17.66023.9,1.16866,5.02289V17.39156c0,12.36867,16.49157,20.61445,16.49157,20.61445s16.49156-8.24578,16.49156-20.61445V5.02289Z"/><path class="cls-3" d="M11.47589,17.39156A6.185,6.185,0,0,1,22.964,14.20931l3.53589-2.12154a10.30723,10.30723,0,1,0,0,10.60758L22.964,20.57381a6.185,6.185,0,0,1-11.48812-3.18225Z"/></svg>