<svg id="Layer_1" data-name="Layer 1" xmlns="http://www.w3.org/2000/svg" viewBox="0 0 3379.52422 1022.47984"><defs><style>.cls-1{fill:#6dc612;fill-rule:evenodd;}.cls-2{fill:#00746d;}</style></defs><g id="covid-green-logo-inverse"><g id="Group"><g id="knot"><g id="Combined-Shape"><path class="cls-1" d="M935.05467,83.89026a148.01674,148.01674,0,0,1,0,209.32727l-37.3201,37.32017a420.14548,420.14548,0,0,0-31.85895-57.45077l24.39893-24.40226A88.81016,88.81016,0,0,0,765.72509,122.05824l-1.0469,1.03008-196.13455,196.133-39.07472-39.07472L725.72741,83.89026A148.01672,148.01672,0,0,1,935.05467,83.89026Z"/><path class="cls-1" d="M790.89213,228.0528C900.96859,338.12926,932.24984,497.234,884.83889,635.50937l-47.68465-47.68322c27.21355-110.37824-2.18081-231.71386-88.2512-317.78426a336.3293,336.3293,0,0,0-48.869-40.45L742.67,186.95875A396.42,396.42,0,0,1,790.89213,228.0528Z"/><path class="cls-1" d="M779.81872,358.00642a332.45879,332.45879,0,0,1,27.40061,59.12148L573.0759,651.27l-43.261-43.261Zm78.783,7.73776-5.56294,5.56369q-4.55523-10.55607-9.75445-20.88949Z"/></g><g id="Group-2" data-name="Group"><g id="Combined-Shape-2" data-name="Combined-Shape"><path class="cls-1" d="M932.35488,935.09988a148.01673,148.01673,0,0,1-209.32727,0l-37.32018-37.3201a420.14441,420.14441,0,0,0,57.45077-31.85895l24.40226,24.39893A88.81016,88.81016,0,0,0,894.18689,765.7703l-1.03008-1.0469-196.133-196.13455,39.07472-39.07472L932.35487,725.77262A148.01672,148.01672,0,0,1,932.35488,935.09988Z"/><path class="cls-1" d="M788.19234,790.93734C678.11588,901.0138,519.0111,932.29505,380.73576,884.8841L428.419,837.19945c110.37824,27.21355,231.71387-2.18081,317.78426-88.2512a336.3293,336.3293,0,0,0,40.45-48.869l42.63317,42.63591A396.42077,396.42077,0,0,1,788.19234,790.93734Z"/><path class="cls-1" d="M658.23872,779.86394a332.45986,332.45986,0,0,1-59.12149,27.4006L364.97515,573.12111l43.261-43.261Zm-7.73776,78.783-5.56369-5.56294q10.55606-4.55523,20.88948-9.75445Z"/></g></g><g id="Group-3" data-name="Group"><g id="Combined-Shape-3" data-name="Combined-Shape"><path class="cls-1" d="M84.34017,932.33423a148.01672,148.01672,0,0,1,0-209.32727l37.3201-37.32017a420.14441,420.14441,0,0,0,31.85895,57.45077l-24.39893,24.40225A88.81016,88.81016,0,0,0,253.66974,894.16625l1.04691-1.03008,196.13455-196.133,39.07472,39.07472L293.66743,932.33423A148.01672,148.01672,0,0,1,84.34017,932.33423Z"/><path class="cls-1" d="M228.5027,788.17169C118.42624,678.09523,87.145,518.99046,134.556,380.71511l47.68465,47.68322c-27.21355,110.37825,2.18081,231.71387,88.2512,317.78426a336.32884,336.32884,0,0,0,48.869,40.45l-42.63592,42.63317A396.42238,396.42238,0,0,1,228.5027,788.17169Z"/><path class="cls-1" d="M239.57611,658.21807a332.45921,332.45921,0,0,1-27.4006-59.12149L446.31894,364.95451l43.261,43.26095Zm-78.783-7.73776,5.56294-5.56369q4.55523,10.55606,9.75445,20.88949Z"/></g></g><g id="Group-4" data-name="Group"><g id="Combined-Shape-4" data-name="Combined-Shape"><path class="cls-1" d="M85.64444,79.729a148.01674,148.01674,0,0,1,209.32727,0l37.32017,37.32011a420.14334,420.14334,0,0,0-57.45077,31.859l-24.40225-24.39893A88.81016,88.81016,0,0,0,123.81242,249.05859l1.03008,1.0469L320.97553,446.24l-39.07472,39.07472L85.64444,289.05628A148.01673,148.01673,0,0,1,85.64444,79.729Z"/><path class="cls-1" d="M229.807,223.89155C339.88344,113.81509,498.98821,82.53384,637.26356,129.94479l-47.68322,47.68465c-110.37825-27.21354-231.71387,2.18081-317.78426,88.25121a336.32831,336.32831,0,0,0-40.45,48.869l-42.63317-42.63592A396.42086,396.42086,0,0,1,229.807,223.89155Z"/><path class="cls-1" d="M359.7606,234.965a332.45855,332.45855,0,0,1,59.12149-27.40061L653.02416,441.70779l-43.261,43.261Zm7.73776-78.783,5.56369,5.56294q-10.55606,4.55523-20.88949,9.75446Z"/></g></g></g></g></g><path id="COVID" class="cls-2" d="M1396.03535,519.65486q53.3268,0,92.36432-17.23535a163.89339,163.89339,0,0,0,64.96427-51.11722h0l-39.47943-41.54179a19.22124,19.22124,0,0,0-6.77631-4.5666,19.79129,19.79129,0,0,0-15.615.5892,34.83967,34.83967,0,0,0-7.6602,4.86129,121.93838,121.93838,0,0,1-17.53,12.81609,96.07408,96.07408,0,0,1-18.26667,8.39684,102.15175,102.15175,0,0,1-20.7709,4.5666,211.53562,211.53562,0,0,1-24.7483,1.32574,107.90624,107.90624,0,0,1-44.19346-9.1332,103.76767,103.76767,0,0,1-36.09122-26.66342q-15.4678-17.53-24.4537-43.16223t-8.986-58.63q0-31.52463,8.986-56.86221t25.0429-43.16223a108.52377,108.52377,0,0,1,38.44828-27.4q22.39132-9.57506,49.4966-9.57524a138.72122,138.72122,0,0,1,27.25262,2.357,124.18876,124.18876,0,0,1,20.32905,5.74517,89.29954,89.29954,0,0,1,15.02572,7.36561q6.33437,3.97749,11.63761,7.36561a110.74736,110.74736,0,0,0,10.01717,5.74518,22.10079,22.10079,0,0,0,10.01718,2.357q7.95484,0,12.37415-3.38821a42.76265,42.76265,0,0,0,7.66021-7.51295h0l33.587-45.07726a164.73142,164.73142,0,0,0-27.69456-23.12787,187.81381,187.81381,0,0,0-34.17619-17.972A222.48993,222.48993,0,0,0,1456.875,85.23349a231.89359,231.89359,0,0,0-45.5192-4.272q-49.79119,0-91.03849,16.2043t-70.85679,45.37185a205.81112,205.81112,0,0,0-46.1084,69.38361q-16.499,40.21616-16.49889,88.23958,0,47.13981,14.43652,87.35568,14.43648,40.21616,41.39445,69.531,26.958,29.315,65.7009,45.96124T1396.03535,519.65486Zm471.12591,0q50.086,0,91.18575-16.7935,41.09994-16.79349,70.26768-46.40309A208.7692,208.7692,0,0,0,2073.8392,386.78q16.057-40.06861,16.057-86.61914,0-46.25574-16.057-86.32446a207.1567,207.1567,0,0,0-45.22451-69.53095q-29.16774-29.46225-70.26768-46.40309-41.09967-16.9409-91.18575-16.94084-50.08571,0-91.33309,16.79349-41.24719,16.7935-70.56219,46.25584a206.0412,206.0412,0,0,0-45.37185,69.53086q-16.057,40.0689-16.05695,86.61915,0,46.55052,16.05695,86.61914a207.63816,207.63816,0,0,0,45.37185,69.6783q29.315,29.6095,70.56219,46.40309T1867.16126,519.65486Zm0-82.4944q-28.87295,0-51.41172-9.28054a100.5944,100.5944,0,0,1-38.00625-26.95811q-15.46765-17.6773-23.71706-43.16223-8.2495-25.48476-8.2495-57.59875,0-31.81912,8.2495-57.30406,8.24922-25.485,23.71706-43.16223a102.02186,102.02186,0,0,1,38.00625-27.10527q22.53887-9.42809,51.41172-9.42808,28.57845,0,50.96987,9.42808A102.28079,102.28079,0,0,1,1955.99,199.69454q15.46766,17.67729,23.71725,43.16223,8.24949,25.48475,8.24931,57.30406,0,32.11391-8.24931,57.59875-8.24951,25.485-23.71725,43.16223a100.83728,100.83728,0,0,1-37.85891,26.95811Q1895.73981,437.16047,1867.16126,437.16046ZM2414.3,514.94091,2586.35966,85.67543H2505.633q-12.37425,0-20.91825,6.62907T2473.22444,107.183h0L2390.73,336.98868q-5.303,15.02591-10.75363,32.70311-5.45058,17.67756-9.57523,37.12254-5.00854-19.44516-10.75381-37.12254-5.74509-17.6773-11.343-32.70311h0L2265.22076,107.183a32.28239,32.28239,0,0,0-11.78486-15.615q-8.24949-5.89246-21.21293-5.89252h-80.13743l172.0599,429.26548Zm383.91766,0V85.67543H2698.04583V514.94091Zm313.79733,0q50.086,0,91.18556-16.057,41.09994-16.057,70.26768-44.78266a200.9248,200.9248,0,0,0,45.22451-68.05787q16.057-39.33208,16.05714-85.8826,0-46.25574-16.05714-85.58791a199.35877,199.35877,0,0,0-45.22451-67.91053q-29.16773-28.57845-70.26768-44.78266-41.0994-16.2042-91.18556-16.2043H2945.25837V514.94091Zm0-76.60187h-66.58479V162.27731h66.58479q28.57845,0,50.96969,9.57541a102.99539,102.99539,0,0,1,37.85908,27.39978q15.4674,17.82483,23.71725,43.45692,8.249,25.63229,8.24913,57.45141,0,32.11391-8.24913,57.74609-8.24949,25.63229-23.71725,43.45692a102.99787,102.99787,0,0,1-37.85908,27.4q-22.39134,9.57506-50.96969,9.57524Z"/><path id="GREEN" class="cls-2" d="M1326.96028,941.86741a252.71263,252.71263,0,0,0,31.251-1.79934,171.4333,171.4333,0,0,0,26.98958-5.49251,145.13244,145.13244,0,0,0,23.675-9.186,150.56882,150.56882,0,0,0,21.30752-12.87922h0V808.3402h-83.33617v20.834a6.801,6.801,0,0,0,2.17816,5.11378,8.00883,8.00883,0,0,0,5.77665,2.08338h42.04695V896.222q-7.19726,3.78786-14.39441,6.72375a118.05857,118.05857,0,0,1-15.34152,5.01909,128.23189,128.23189,0,0,1-17.33012,3.12508,179.8115,179.8115,0,0,1-20.17115,1.04169,105.73625,105.73625,0,0,1-40.15284-7.38671,88.6907,88.6907,0,0,1-31.44049-21.40211,96.98594,96.98594,0,0,1-20.54988-34.18684q-7.29194-20.17123-7.29194-45.92949,0-24.62214,7.0078-44.41438a94.71888,94.71888,0,0,1,20.07647-33.71342,87.73563,87.73563,0,0,1,31.62985-21.40212q18.56122-7.4813,41.47867-7.48139a130.915,130.915,0,0,1,27.17895,2.4623,115.11271,115.11271,0,0,1,19.887,5.9661,90.82315,90.82315,0,0,1,14.29973,7.29184q5.87142,3.78813,10.60647,6.4397a13.42268,13.42268,0,0,0,6.629,2.08339q5.11383,0,8.33363-5.114h0l10.417-16.66707a133.64879,133.64879,0,0,0-18.75064-14.29982,119.5553,119.5553,0,0,0-21.87571-10.79584,139.898,139.898,0,0,0-25.66375-6.81843,177.54856,177.54856,0,0,0-29.92529-2.36743q-31.81926,0-57.483,10.03819a121.74858,121.74858,0,0,0-71.59333,72.16152q-9.75423,25.569-9.75414,56.63082,0,30.68267,9.94351,56.25191a128.97958,128.97958,0,0,0,27.74713,43.84611,124.73669,124.73669,0,0,0,42.42568,28.41009Q1297.41377,941.8675,1326.96028,941.86741Zm428.28581-3.0304V825.57555h27.84182q7.576,0,11.36411,1.9887a20.52241,20.52241,0,0,1,7.00779,6.53438h0l70.45687,96.97294q4.73494,7.76535,14.77323,7.76544h32.57686l-79.16931-107.76877a38.80476,38.80476,0,0,0-12.12157-11.55348,104.07144,104.07144,0,0,0,28.12586-10.60646,78.75028,78.75028,0,0,0,21.02357-16.9513,71.034,71.034,0,0,0,13.16326-22.444,78.1044,78.1044,0,0,0,4.5455-26.8948,79.44132,79.44132,0,0,0-5.87124-31.15626A60.29213,60.29213,0,0,0,1870.875,687.692q-12.21626-9.84864-30.96689-15.05728-18.75074-5.20838-44.50907-5.20846h-76.7072V938.837Zm38.44828-139.9669h-38.44828V696.40448H1795.399q31.62975,0,47.63414,12.31112,16.00438,12.31094,16.00429,36.55426a55.35246,55.35246,0,0,1-4.16677,21.781,45.5639,45.5639,0,0,1-12.4058,16.9513,57.61048,57.61048,0,0,1-20.4551,10.9852q-12.21654,3.88281-28.31542,3.88272ZM2354.371,938.837v-29.9252H2224.06357V816.295h105.496V787.50618h-105.496V697.35149H2354.371v-29.9252H2187.13057V938.837Zm448.36219,0v-29.9252H2672.42575V816.295h105.496V787.50618h-105.496V697.35149H2802.7332v-29.9252H2635.49276V938.837Zm313.31988,0V745.45923q0-3.78813-.18937-8.33354-.18936-4.54587-.56828-9.28073h0l157.01308,204.363a18.41188,18.41188,0,0,0,5.77673,5.11377,15.78726,15.78726,0,0,0,7.29166,1.51529h18.56146V667.42629H3271.74V859.6677q0,4.35623.18937,8.9965.18991,4.64026.75783,9.56477h0L3115.4848,673.67644a18.86783,18.86783,0,0,0-5.39782-5.0191q-2.36762-1.23114-7.292-1.231h-18.94V938.837Z"/></svg>