<svg xmlns="http://www.w3.org/2000/svg" viewBox="0 0 275.68 113.47"><defs><style>.cls-1{fill:#002eed;}.cls-2{fill:#010101;}.cls-3{fill:#030303;}.cls-4{fill:#fefefe;}.cls-5{fill:#fdfdfd;}</style></defs><g id="图层_2" data-name="图层 2"><g id="图层_1-2" data-name="图层 1"><path class="cls-1" d="M75,43.3c-6.7-1.51-14.67,3.18-20-5.41-3.48,5.85-6.83,11.42-10.1,17a3.66,3.66,0,0,0,.31,3.88c3.18,5.32,6.33,10.66,9.7,16.36C60.11,66.69,68.19,71.47,75,70c.18,1.64-.72,2.45-1.26,3.36-6.93,11.76-14,23.45-20.83,35.25a8.72,8.72,0,0,1-8.48,4.84c-13.22-.21-11.28,1.27-18.1-10.21C18.14,89.43,10.06,75.61,1.74,61.93c-2.28-3.75-2.35-6.86,0-10.64q14-23.07,27.56-46.41C31.33,1.34,33.84-.13,38,0,51.79.45,48.83-2,56.26,10.39Q65,24.91,73.53,39.54C74.13,40.55,75.11,41.46,75,43.3Z"/><path class="cls-1" d="M62.51,113.36,80.6,82.81c.45-.75.9-1.49,1.34-2.24,7-11.81,7.53-12,22.09-10l-5.11,8.65c-5.63,9.51-11.37,18.94-16.82,28.54-2.27,4-5.12,6.14-9.89,5.69C69.24,113.13,66.23,113.36,62.51,113.36Z"/><path class="cls-1" d="M63.4.1c4.13,0,8.34,0,12.55,0a4.92,4.92,0,0,1,4.31,2.55C88.15,15.82,96,29,104.19,42.81h-15a2.23,2.23,0,0,1-2-1.41Q75.22,21,63.23.71C63.19.63,63.29.47,63.4.1Z"/><path class="cls-2" d="M159.83,47.33c-3.17,1.62-5.3,1.76-7.56-2.1-3.45-5.88-12.73-5.44-17,.23-4,5.28-4.13,15.32-.28,20.76a10.79,10.79,0,0,0,10.38,4.64c4.26-.39,7.48-2.69,8.51-6.73s3.09-2.26,5.15-1.67c3.26.94.91,2.85.46,4-2.46,6.23-8.06,9.44-15.57,9.23-8.23-.22-14.32-4.31-16.76-11.32a24.83,24.83,0,0,1,0-16.77A17.75,17.75,0,0,1,144.63,36,15.59,15.59,0,0,1,159.83,47.33Z"/><path class="cls-2" d="M275.46,67.5c.26,1.55-.76,2.61-1.62,3.6-4.3,4.93-10,5.15-15.8,4.08-5.21-1-8.58-4.17-10-9.39-3.15-12,5.23-21.11,17.28-18.83,8.31,1.57,10.37,8.66,10.3,14.65,0,2.08-1.6,1.49-2.71,1.5-5.61,0-11.22.15-16.83,0-2.79-.09-2.82,1.18-2.23,3.15,1.6,5.35,10.19,7.76,13.77,3.37C270.17,66.53,272.4,66.55,275.46,67.5Z"/><path d="M186.34,70.2c-3.08,4.15-6.26,5.54-10.13,5.45-5.77-.14-9.16-3.06-9.49-8.82s-.11-11.66-.28-17.48c-.06-2.35,1.35-2.16,2.91-2.18s2.89-.15,2.82,2.19c-.16,4.84-.1,9.68,0,14.52s2,7.37,5.79,7.69a7.17,7.17,0,0,0,8-6.67,122.54,122.54,0,0,0,.27-14.85c-.05-2.26.54-2.94,2.9-2.95s2.83,1,2.8,3.08c-.11,7,0,13.9-.07,20.84,0,1.7,1.07,4-2.5,4.08C186.14,75.2,186,73.58,186.34,70.2Z"/><path class="cls-2" d="M230.93,70.73c2.3-6.6,4.76-12.78,6.55-19.15,1.17-4.17,3.33-5.26,7.56-3.95-3.52,8.71-7,17.41-10.56,26.08-.94,2.28-3,1-4.61,1.24a2.34,2.34,0,0,1-3-1.53q-4.74-12.3-9.61-24.54c-.44-1.12-.36-1.61.9-1.68,2.76-.14,5.08-.32,6.09,3.43C226.08,57.3,228.59,63.79,230.93,70.73Z"/><path class="cls-3" d="M204.29,51.12C208,46.8,210.57,45.75,214.4,47c1.46.47,2.75,1,1.61,2.76-.72,1.09,0,3.58-3.13,2.58-4.81-1.57-8.21,1.27-8.51,6.84-.24,4.45-.23,8.93-.05,13.38.11,2.46-1.14,2.46-2.94,2.47s-3-.12-3-2.53c.14-7.18,0-14.37.06-21.55,0-1.88-.68-3.91,2.73-3.87C204.31,47.12,204.84,48.38,204.29,51.12Z"/><path class="cls-4" d="M45.78,87c1.24,2.09-2.45,10.37-4.6,10.38-1.15-.16-1.63-1.05-2.13-1.91Q28.21,77.23,17.36,59a4.29,4.29,0,0,1,0-4.86Q28.26,35.9,39.06,17.63c1.51-2.57,2.52-2.22,4.29,0,3.37,4.24,3.47,7.79.28,12.45-5.18,7.57-9.45,15.74-14.23,23.59"/><path class="cls-5" d="M261.78,59.08c-1.61,0-3.23,0-4.85,0-3.73,0-4.13-.64-2.54-4,1.52-3.17,4.78-4.83,8.7-4.3a7.17,7.17,0,0,1,6.55,5.68c.47,1.78.46,2.83-1.88,2.63C265.78,59,263.78,59.08,261.78,59.08Z"/></g></g></svg>