<svg xmlns="http://www.w3.org/2000/svg" xmlns:xlink="http://www.w3.org/1999/xlink" viewBox="0 0 603.77 169.2"><defs><style>.cls-1{fill:url(#linear-gradient);}.cls-2{fill:url(#linear-gradient-2);}.cls-3{fill:url(#linear-gradient-3);}.cls-4{fill:#002038;}</style><linearGradient id="linear-gradient" x1="671.17" y1="-434.67" x2="770.39" y2="-434.67" gradientTransform="translate(-437.42 745.44) rotate(-20.57)" gradientUnits="userSpaceOnUse"><stop offset="0.15" stop-color="#e94709"/><stop offset="0.7" stop-color="#751485"/><stop offset="0.79" stop-color="#830d84"/><stop offset="1" stop-color="#9e0083"/></linearGradient><linearGradient id="linear-gradient-2" x1="683.21" y1="-434.67" x2="819.69" y2="-434.67" xlink:href="#linear-gradient"/><linearGradient id="linear-gradient-3" x1="638.65" y1="-434.67" x2="795.04" y2="-434.67" xlink:href="#linear-gradient"/></defs><g id="图层_2" data-name="图层 2"><g id="Layer_1" data-name="Layer 1"><path class="cls-1" d="M114.44,104.47,70.18,119.62c-2,.73-3.64,1-4.37-.92s.74-2.84,2.69-3.57l43.29-17.71A21,21,0,1,0,97.06,58.17L33.89,80.42c-1.95.73-3.64,1-4.37-.92s.74-2.84,2.69-3.57l62.2-24.81a28.49,28.49,0,0,1,20,53.35Z"/><path class="cls-2" d="M131.76,150.63l-51.9,18c-2,.73-3.64,1-4.37-.92s.74-2.84,2.69-3.57l50.93-20.58A70.26,70.26,0,1,0,79.74,12L27.84,30c-1.95.73-3.64,1-4.37-.92s.74-2.83,2.68-3.56L77.09,5a77.8,77.8,0,0,1,54.67,145.67Z"/><path class="cls-3" d="M123.1,127.55,29.48,161.23c-1.95.73-3.64,1-4.37-.92s.74-2.84,2.69-3.57l92.65-36.24a45.61,45.61,0,1,0-32-85.4L4.56,65.1c-1.95.73-3.64,1-4.37-.92s.74-2.84,2.68-3.57L85.75,28a53.14,53.14,0,0,1,37.35,99.51Z"/><path class="cls-4" d="M230.92,34.08h25.36c25.93,0,43.65,16.44,43.65,40.52s-17.72,40.53-43.65,40.53H230.92Zm24.43,75.72c24.08,0,38.67-14.13,38.67-35.2s-14.59-35.2-38.67-35.2H236.71v70.4Z"/><path class="cls-4" d="M256.28,116.14H229.9V33.06h26.38c13,0,24.13,4,32.24,11.5s12.42,17.94,12.42,30-4.29,22.5-12.42,30S269.26,116.14,256.28,116.14Zm-24.34-2h24.34c12.46,0,23.13-3.79,30.85-11s11.78-17,11.78-28.55-4.07-21.39-11.78-28.55S268.74,35.1,256.28,35.1H231.94Zm23.41-3.29H235.69V38.39h19.66c12,0,22,3.44,29.06,10S295,63.87,295,74.6s-3.68,19.81-10.63,26.25S267.32,110.82,255.35,110.82Zm-17.62-2h17.62c11.45,0,21-3.26,27.67-9.42s10-14.61,10-24.76-3.45-18.71-10-24.75-16.22-9.43-27.67-9.43H237.73Z"/><path class="cls-4" d="M338.22,34.08H372c16.21,0,25.13,8.91,25.13,21.88S388.24,78,372,78H344v37.17h-5.79Zm33.23,38.55c12.74,0,19.92-6,19.92-16.67S384.19,39.4,371.45,39.4H344V72.63Z"/><path class="cls-4" d="M345,116.14h-7.82V33.06H372c16.13,0,26.14,8.78,26.14,22.9,0,6.81-2.35,12.55-6.81,16.62S380.08,79,372,79H345Zm-5.79-2H343V76.94h29c7.54,0,13.74-2,18-5.87,4-3.67,6.15-8.89,6.15-15.11S394,44.55,390,40.91c-4.2-3.8-10.41-5.81-18-5.81H339.24Zm32.21-40.46H343V38.39h28.45c13.31,0,20.94,6.4,20.94,17.57S384.76,73.65,371.45,73.65Zm-26.42-2h26.42c12.19,0,18.9-5.56,18.9-15.66s-6.71-15.54-18.9-15.54H345Z"/><path class="cls-4" d="M432.79,34.08h25.36c25.93,0,43.65,16.44,43.65,40.52s-17.72,40.53-43.65,40.53H432.79Zm24.43,75.72c24.09,0,38.67-14.13,38.67-35.2s-14.58-35.2-38.67-35.2H438.58v70.4Z"/><path class="cls-4" d="M458.15,116.14H431.78V33.06h26.37c13,0,24.14,4,32.24,11.5s12.43,17.94,12.43,30-4.3,22.5-12.43,30S471.14,116.14,458.15,116.14Zm-24.34-2h24.34c12.46,0,23.13-3.79,30.86-11s11.77-17,11.77-28.55S496.71,53.21,489,46.05,470.61,35.1,458.15,35.1H433.81Zm23.41-3.29H437.57V38.39h19.65c12,0,22,3.44,29.06,10s10.63,15.52,10.63,26.25-3.67,19.81-10.63,26.25S469.19,110.82,457.22,110.82Zm-17.62-2h17.62c11.45,0,21-3.26,27.68-9.42s10-14.61,10-24.76-3.45-18.71-10-24.75-16.23-9.43-27.68-9.43H439.6Z"/><path class="cls-4" d="M540.1,34.08h5.79V69.74l40.75-35.66h8L552.37,71.24l48.75,43.89h-8.69l-46.54-42v42H540.1Z"/><path class="cls-4" d="M603.77,116.14H592l-.29-.26L546.9,75.39v40.75h-7.82V33.06h7.82V67.5l39.36-34.44h11.07L553.9,71.25Zm-10.95-2h5.65L550.84,71.24,591.93,35.1H587L545.53,71.4Zm-51.7,0h3.75v-79h-3.75Z"/></g></g></svg>