<svg id="图层_1" data-name="图层 1" xmlns="http://www.w3.org/2000/svg" viewBox="0 0 309.92 134.76"><defs><style>.cls-1{fill:#38b3fd;}.cls-2{fill:#58c0fd;}.cls-3{fill:#d0ecfd;}.cls-4{fill:#e9f6fd;}.cls-5{fill:#73cafd;}.cls-6{fill:#b2e1fd;}.cls-7{fill:#e2f3fd;}.cls-8{fill:#a5dcfd;}.cls-9{fill:#bfe6fd;}.cls-10{fill:#fdfefe;}</style></defs><path class="cls-1" d="M893.25,536.21c1,.67,1.87,1.48,2.83,2.15a19.89,19.89,0,0,1,3,3.1,27.36,27.36,0,0,1,2.37,3.42,32.31,32.31,0,0,1,2.56,5.78c.14.34,0,.72.24,1.1a1.26,1.26,0,0,1-.18,1.2c-.7,1.12-1.42,2.22-2.19,3.29a24.33,24.33,0,0,1-2,2.26,14.11,14.11,0,0,1-1,1.24,48.65,48.65,0,0,1-4.77,3.82c-.5.32-1,.61-1.54.91s-.89.54-1.35.78-.95.42-1.4.66c-1,.56-2.19.89-3.28,1.35a24.79,24.79,0,0,1-3,.8,42.27,42.27,0,0,0-4.15,1,9.94,9.94,0,0,0-3.67,2.15,9,9,0,0,0-2.36,3.09,16.76,16.76,0,0,0-.93,3.22,9.1,9.1,0,0,0-.13,3,27.1,27.1,0,0,1,.18,4.22c0,1.43,0,2.87,0,4.3a6.86,6.86,0,0,1-.25,1.58c-.1.52.21,1.11-.24,1.58.16,1.1-.37,2.09-.52,3.14a16.38,16.38,0,0,1-1,3.39,44.59,44.59,0,0,1-2.52,5.54c-.39.72-.8,1.43-1.2,2.14-.43,0-.39-.2-.24-.48a6.62,6.62,0,0,1,.28-1.56,23.81,23.81,0,0,0,.73-2.94c.17-.57,0-1.17.28-1.67s0-1.17.16-1.73c.48-2.11.13-4.25.22-6.37a10.05,10.05,0,0,0-.23-1.7,4.93,4.93,0,0,0-.2-1.72,5.48,5.48,0,0,1-.24-1.56,25.09,25.09,0,0,0-1.26-5,39,39,0,0,0-2.3-5.52,49.43,49.43,0,0,0-2.9-4.78,29.63,29.63,0,0,0-4.14-4.88c-.59-.54-1.14-1.12-1.7-1.69a29.92,29.92,0,0,0-4.71-3.67,42.38,42.38,0,0,0-6-3.18,38,38,0,0,0-5-1.75,4,4,0,0,1,.63-.1c.72,0,1.44,0,2.16,0a6.46,6.46,0,0,1,1.7.24,10.29,10.29,0,0,1,1.6.2,12.53,12.53,0,0,0,1.92.26,40.78,40.78,0,0,1,6.32,1.83,32,32,0,0,1,4,1.81,36.33,36.33,0,0,1,4.94,3.12,11.29,11.29,0,0,0,3.15,1.65,5.5,5.5,0,0,0,1.6.46,25.52,25.52,0,0,0,3.71,0,7.07,7.07,0,0,0,2-.64c.62-.25,1.21-.55,1.81-.84a19.24,19.24,0,0,0,3.48-2.3,27,27,0,0,0,3.71-3.21c1-1.09,1.84-2.26,2.75-3.4a24.65,24.65,0,0,0,3-5,20.67,20.67,0,0,0,1.75-5.14c.42-.41.05-1,.34-1.41s-.15-1.06.38-1.41a6.68,6.68,0,0,1,0-1.55c.48-2,.07-3.93.26-6a21.4,21.4,0,0,0-6.87-1.43,13.62,13.62,0,0,0-5.19,0c-.53.07-1.11-.19-1.58.24-1.32-.09-2.5.56-3.78.73a2.89,2.89,0,0,0-1,.25c-1.14.57-2.43.66-3.6,1.15a5.21,5.21,0,0,1-1.33.22,10.29,10.29,0,0,1-2.42.31,7.71,7.71,0,0,0-1.75.32c.8-.75,1.44-1.32,2.05-1.93a10.2,10.2,0,0,0,2.66-4.89,7.44,7.44,0,0,0,.18-2.19c0-.68.24-1.41-.22-2a4.47,4.47,0,0,0-.72-2.46c-.09,0-.15-.14-.28-.1a.29.29,0,0,0,0,.34c.08.65.19,1.29.23,1.94s0,1.35,0,2a7.55,7.55,0,0,1-.62,2.74,10.58,10.58,0,0,1-7.4,6.49,12.32,12.32,0,0,1-4.1.17,9.8,9.8,0,0,1-3.66-1.23c-.17-.09-.27-.29-.43-.48a1.69,1.69,0,0,1-.41.26,10.39,10.39,0,0,1-3.59.27,28.22,28.22,0,0,1-3.27-.77,13.38,13.38,0,0,0-3.21-.67c-.85,0-1.68-.22-2.54-.24a9.67,9.67,0,0,0-1.46.28c-.45.06-.89-.12-1.37.19a3.13,3.13,0,0,1-1.38.19,11.34,11.34,0,0,1,8.65-4.5,16.72,16.72,0,0,0-6.55-5.22,16.06,16.06,0,0,0-4-1.25,14.66,14.66,0,0,0-2.79-.19c-2.88,0-5.77.17-8.63,0-3.89-.3-7.77-.1-11.65-.2a12.9,12.9,0,0,0-3.42-.26,2.32,2.32,0,0,1,2.32-1.19c2.61.21,5.2-.37,7.81-.21,1.39.08,2.73-.27,4.1-.26a24.39,24.39,0,0,0,4.19,0c2-.33,4,.06,5.89-.24s3.88,0,5.78-.24c1.33-.17,2.67-.06,4-.24.64-.08,1.31-.09,1.93-.22s1.29-.37,2-.48A7.9,7.9,0,0,0,845,519c.57-.25,1.15-.49,1.71-.78a21.15,21.15,0,0,0,3.6-2.34,37.53,37.53,0,0,0,2.83-2.66,40.6,40.6,0,0,1,4.1-3.42,12,12,0,0,0,2.23-1.61,4.76,4.76,0,0,0-.23-2.18v-4.43c.4-.74.16-1.53.24-2.3,0-.41.16-.81.24-1.22a3.44,3.44,0,0,1,.19-1.24,5.15,5.15,0,0,0,.25-1.56,31.42,31.42,0,0,1,1.76-6.71,37.75,37.75,0,0,1,2.78-6.28c1-1.71,2-3.43,3.14-5,.61-.84,1.27-1.64,1.92-2.45s1.38-1.5,2.16-2.37a11.36,11.36,0,0,0,.52,3.1,8.7,8.7,0,0,0,.58,1.79,15.38,15.38,0,0,0,2.14,3.77,14.41,14.41,0,0,0,3,2.83,37.9,37.9,0,0,0,4,2c1,0,2,.62,3,.51a2.44,2.44,0,0,1,1,.12,4.48,4.48,0,0,0,1.59,0c.23,0,.45-.11.67-.12a13,13,0,0,0,6.82-2.34,14.86,14.86,0,0,0,2.53-2,20.94,20.94,0,0,0,2.7-3.91c0-.09,0-.24,0-.36.21-.05.33,0,.24.24-.08.88-.19,1.76-.24,2.65s0,1.75,0,2.63c0,.64.15,1.28.22,1.93s.32,1.16.42,1.73a17.83,17.83,0,0,0,1.81,4.64,17,17,0,0,0,1.34,2.07,19.92,19.92,0,0,0,7.52,6.05,10.51,10.51,0,0,0,2,.76l2.06.51a22.65,22.65,0,0,0,5.87.23,9.35,9.35,0,0,1,1.58-.2.14.14,0,0,1,.06.16c0,.05,0,.08-.06.08a3.82,3.82,0,0,0-.85.26,23.7,23.7,0,0,0-4,2.76,15.81,15.81,0,0,0-2.64,3,14.07,14.07,0,0,0-1.83,3.9,10,10,0,0,0-.51,2.67c0,.48-.19,1-.21,1.45a12.08,12.08,0,0,0,.19,2.54c.13.79.34,1.55.48,2.32a11.67,11.67,0,0,0,1.25,3.32,27.09,27.09,0,0,0,2,3c.9,1.24,2.21,1.9,3.25,2.91a4.55,4.55,0,0,0,1.06.6l1.11.51c0,.59-.51.29-.8.34-.44.09-.92-.11-1.36.14a12.31,12.31,0,0,0-5.23,1.52,8.28,8.28,0,0,0-2.34,1.59,5.8,5.8,0,0,1-.94.65,1.82,1.82,0,0,1-.38-1.29,7.23,7.23,0,0,0-.28-1.91c-.21-.61-.26-1.24-.41-1.86s-.4-1.11-.52-1.7a11.13,11.13,0,0,0-.83-2.28,31.49,31.49,0,0,0-2.66-5.12c-.75-1.1-1.5-2.18-2.3-3.24a31.17,31.17,0,0,0-4.11-4.25,19.1,19.1,0,0,0-4.52-3.21c-.46-.22-.8-.7-1.38-.71-.16-.15-.46,0-.59-.33.06.28.3.37.35.57,1,.67,1.89,1.44,2.83,2.17a21.1,21.1,0,0,1,2.9,2.76,32,32,0,0,1,3.9,5.19,24,24,0,0,0,1.38,2.32,11.57,11.57,0,0,1,1.17,2.61,19.11,19.11,0,0,1,.82,2.31c.21.82.44,1.65.65,2.47.27,1.07.35,2.18.55,3.26a19.52,19.52,0,0,1,.18,3.14c0,1,0,2.07,0,3.11a10.43,10.43,0,0,1-.23,1.34c-.08.44.2,1-.24,1.33.1,1.33-.49,2.52-.74,3.77a23.89,23.89,0,0,1-.86,2.71l-1.45-2.12c-.31-.47-.6-1-.94-1.41a23.61,23.61,0,0,0-3.57-3.77A28.12,28.12,0,0,0,895,536.7c-.5-.25-.86-.78-1.5-.73a.56.56,0,0,0-.42-.1C893.07,536,893.22,536.08,893.25,536.21Z" transform="translate(-805.25 -472.36)"/><path class="cls-1" d="M984.72,548.42l2.95-6.94h1.05c4.27,0,8.55,0,12.82,0a25.57,25.57,0,0,0,3.61-.26,3.06,3.06,0,0,0,2.14-1.18,4,4,0,0,0,1.07-2.75l-.36-.35h-.49c-2.36,0-4.72,0-7.07,0a27.28,27.28,0,0,1-3.73-.25,7.67,7.67,0,0,1-2.08-.47,4.58,4.58,0,0,1-2.88-3c0-.14-.16-.26-.17-.4a11.78,11.78,0,0,1,.56-4.44,19.81,19.81,0,0,1,2.59-4.9,9.45,9.45,0,0,1,2.28-2.27,12.69,12.69,0,0,1,4.57-2.25l1.74-.44a17.56,17.56,0,0,1,4.34-.2c5.31,0,10.63,0,16,0l-2.95,7h-15.87a5.18,5.18,0,0,0-4.64,3.45v1c.39.46.94.39,1.47.39,2.68,0,5.36,0,8,0a18,18,0,0,1,3.37.26,5.63,5.63,0,0,1,2.92,1.3,3.88,3.88,0,0,1,1.21,2.59c0,.69.22,1.42-.22,2.06a12.17,12.17,0,0,1-1.7,4.8,13.5,13.5,0,0,1-4,4.67,11.12,11.12,0,0,1-4.56,2c-.42.51-1.08.11-1.62.43s-1.11,0-1.65.06a32.32,32.32,0,0,1-6.14.21c-2,.05-4.07,0-6.11,0Z" transform="translate(-805.25 -472.36)"/><path class="cls-1" d="M964.12,530c-.92,2.31-1.91,4.45-2.81,6.66H944.67a12.91,12.91,0,0,0-1,2.12,23.23,23.23,0,0,1-1,2.35,17.56,17.56,0,0,0-.88,2.14c-.2.77-.66,1.4-.86,2.17a17.18,17.18,0,0,1-1.39,3h-7.92a10.29,10.29,0,0,1,.55-1.57,28,28,0,0,0,1.58-3.55c.77-2,1.71-4,2.52-6,.57-1.43,1.2-2.85,1.84-4.27s1.21-2.86,1.93-4.22a19.32,19.32,0,0,1,3.21-4.79c.33-.31.55-.74.87-1.07s.67-.5,1-.77a15.15,15.15,0,0,1,4.75-2.7,18.71,18.71,0,0,1,3.57-.91,14.48,14.48,0,0,1,2.29-.29h13.38L966.28,525h-10a7.56,7.56,0,0,0-2,.2c-.58.14-1.15.38-1.72.48a6.42,6.42,0,0,0-2.51,1.45,11.31,11.31,0,0,0-2.39,2.64.62.62,0,0,0,.07.17s.06.08.08.08Z" transform="translate(-805.25 -472.36)"/><path class="cls-1" d="M1093.84,518.26h7.37a12.09,12.09,0,0,1-.39,1.16c-.69,1.48-1.22,3-1.89,4.49s-1.17,2.79-1.83,4.16a13,13,0,0,0-.72,1.86c-.2.63-.69,1.12-.76,1.85A3.85,3.85,0,0,1,1095,533s.08.08.12.09.09,0,.11,0l9.84-7.4h10.14l-15.48,11.38c.61,1.31,1.23,2.61,1.83,3.92,1,2.28,2,4.59,3.21,6.82a1.78,1.78,0,0,1,0,.59h-9.27l-3.41-8.35a40.73,40.73,0,0,0-1.92,4.26c-.57,1.36-1.15,2.72-1.68,4.06H1081c.21-.57.37-1.1.6-1.6.68-1.48,1.26-3,1.9-4.49s1.22-2.77,1.81-4.16c.75-1.76,1.61-3.48,2.2-5.32.2-.62.56-1.2.81-1.82.56-1.44,1.18-2.87,1.86-4.26.42-.87.72-1.78,1.1-2.66a26.57,26.57,0,0,0,1-2.57A26,26,0,0,1,1093.84,518.26Z" transform="translate(-805.25 -472.36)"/><path class="cls-1" d="M1043.71,525.67h10.57c.72,0,1.44,0,2.15,0a9.63,9.63,0,0,1,1.94.25c1.43.38,2.84.87,3.55,2.35a3.14,3.14,0,0,1,.41,1.63,7.64,7.64,0,0,0,0,1.07,8.19,8.19,0,0,1-.79,3.51c-.75,1.92-1.64,3.78-2.4,5.71-.46,1.16-1,2.28-1.49,3.45-.6,1.51-1.35,3-1.87,4.49,0,.1-.16.17-.28.29h-8c-2,0-3.91,0-5.87,0a22.11,22.11,0,0,1-4-.51,2,2,0,0,1-.87-.48,4.63,4.63,0,0,1-1.56-2.24c0-.47,0-1.19,0-1.9a6.85,6.85,0,0,1,.5-2.19,9,9,0,0,1,.71-1.62,11.08,11.08,0,0,1,5.5-4.75,31.7,31.7,0,0,1,3.17-.75,29,29,0,0,1,4.46-.18c1.51-.05,3,0,4.52,0,.13-.44.25-.84.36-1.24a1.76,1.76,0,0,0-1.62-.68h-11.58c0-.19-.08-.41,0-.56.76-1.56,1.38-3.18,2.08-4.76Z" transform="translate(-805.25 -472.36)"/><path class="cls-1" d="M1027.78,542.2H1033l-2.67,6.22c-1.93,0-3.88.07-5.82,0a7.71,7.71,0,0,1-1.57-.22,4.4,4.4,0,0,1-3-2.35,5.39,5.39,0,0,1-.4-2.7c.52-.39,0-1.1.46-1.49a12.5,12.5,0,0,1,1-2.68c.52-1.34,1.11-2.65,1.64-4,.41-1.06,1-2.08,1.49-3.2-1.24-.21-2.46,0-3.76-.15.86-2,1.69-3.92,2.53-5.89h3.72l3.18-7.42h7.5c-1,2.47-2.06,4.88-3.1,7.32h0a.21.21,0,0,0,.1,0h5.63l-2.56,6h-5.81a3.25,3.25,0,0,1-.15.68c-.89,2-1.82,4-2.7,6.07-.38.88-.71,1.78-1,2.69A4.88,4.88,0,0,0,1027.78,542.2Z" transform="translate(-805.25 -472.36)"/><path class="cls-1" d="M1088.17,525.73c-.89,2.1-1.79,4.19-2.74,6.4h-8.34a9.43,9.43,0,0,0-2.28.58,7.72,7.72,0,0,0-3.38,3.47,22.69,22.69,0,0,0-1.41,3.73,1.6,1.6,0,0,0,.93,1.78,5.16,5.16,0,0,0,1.33.29c3-.05,5.91,0,9,0-.92,2.15-1.81,4.26-2.75,6.46h-1.1c-1.84,0-3.68-.06-5.51,0a23.08,23.08,0,0,1-3.73-.31,7.83,7.83,0,0,1-4.34-1.92,5.78,5.78,0,0,1-1.54-2.84,6.1,6.1,0,0,1-.19-2.54,13.78,13.78,0,0,1,.71-2.81,21.49,21.49,0,0,1,1.64-3.63,18.53,18.53,0,0,1,2-3c.42-.46.75-1,1.2-1.42a15.89,15.89,0,0,1,6-3.52,20.58,20.58,0,0,1,3-.63,43,43,0,0,1,5.67-.17c1.87-.06,3.75,0,5.63,0A.83.83,0,0,1,1088.17,525.73Z" transform="translate(-805.25 -472.36)"/><path class="cls-1" d="M969,533.38h15.18l-2.92,6.85H966.1C967.09,537.9,968,535.63,969,533.38Z" transform="translate(-805.25 -472.36)"/><path class="cls-2" d="M920.35,530.94c.1-.08.2-.23.31-.23.51,0,1,0,1.54,0,.11,0,.21-.15.31-.23l.72.24c.07,0,.09.1.07.16s0,.08-.07.08Z" transform="translate(-805.25 -472.36)"/><path class="cls-3" d="M894.21,509.37l-1.35-.9a2.19,2.19,0,0,1,1.59.66Z" transform="translate(-805.25 -472.36)"/><path class="cls-4" d="M893.25,536.21l-1-.64a1,1,0,0,1,1.22.4Z" transform="translate(-805.25 -472.36)"/><path class="cls-5" d="M866.39,605.92c0,.18-.12.46.24.48l-.6.72C866.11,606.68,866,606.21,866.39,605.92Z" transform="translate(-805.25 -472.36)"/><path class="cls-6" d="M923.23,501.23V501c.25-.44.61-.17,1-.08Z" transform="translate(-805.25 -472.36)"/><path class="cls-7" d="M866.87,523.27c-.33,0-.2-.26-.24-.43s-.13-.31-.28-.67a2.78,2.78,0,0,1,.51.37,2.51,2.51,0,0,1,.25.49Z" transform="translate(-805.25 -472.36)"/><path class="cls-8" d="M900.69,478l-.24-.24.36-.71C900.85,477.38,901.13,477.74,900.69,478Z" transform="translate(-805.25 -472.36)"/><path class="cls-9" d="M923.23,530.94v-.24l.94.36C923.84,531.11,923.48,531.38,923.23,530.94Z" transform="translate(-805.25 -472.36)"/><path class="cls-10" d="M850,524.93c-.47-.34-1.2-.25-1.55-.79a12.89,12.89,0,0,1-.76-1.45l.28-1.17.92-1a2.48,2.48,0,0,1,2.3-.23,5.35,5.35,0,0,0,.53.63,2.23,2.23,0,0,1-1,3.76C850.55,524.76,850.35,524.83,850,524.93Z" transform="translate(-805.25 -472.36)"/><path class="cls-10" d="M1051.56,539.8c-.27.74-.5,1.4-.76,2-.06.13-.22.23-.34.35h-7l-.33-.31c.3-.55.46-1.23,1-1.56a3.44,3.44,0,0,1,1.46-.5C1047.6,539.77,1049.55,539.8,1051.56,539.8Z" transform="translate(-805.25 -472.36)"/></svg>