<svg xmlns="http://www.w3.org/2000/svg" viewBox="0 0 767.9 981.81"><defs><style>.cls-1{fill:#7bddd7;}.cls-2{fill:#7cb8e4;}.cls-3{fill:#7bb8e4;}.cls-4{fill:#7cddd7;}.cls-5{fill:#77858f;}.cls-6{fill:#acd2ee;}.cls-7{fill:#adeae6;}.cls-8{fill:#ade9e6;}.cls-9{fill:#aeeae6;}.cls-10{fill:#daebf7;}.cls-11{fill:#dcf5f4;}.cls-12{fill:#daf5f3;}.cls-13{fill:#dbf5f4;}.cls-14{fill:#00beb2;}.cls-15{fill:#0076cb;}.cls-16{fill:#353535;}</style></defs><g id="图层_2" data-name="图层 2"><g id="图层_1-2" data-name="图层 1"><path class="cls-1" d="M469,981.81H1.25a1.27,1.27,0,0,1,.6-1.67c2.34-1.19,4.87-.95,7.35-.95q225.95,0,451.89,0c2.48,0,5-.25,7.36.94A1.28,1.28,0,0,1,469,981.81Z"/><path class="cls-2" d="M.25,368.93Q.25,186.71.32,4.49C.32,3-.84,1.11,1.25,0A7,7,0,0,1,2.31,1.7c.79,2.43.56,5,.56,7.43q0,175.29,0,350.58c0,2.81.37,5.68-.94,8.36A1.79,1.79,0,0,1,.25,368.93Z"/><path class="cls-3" d="M1.29,1.1l0-1.1H346.1a1.27,1.27,0,0,1-.6,1.67c-2.34,1.19-4.87,1-7.35,1q-164.59,0-329.2,0C6.33,2.61,3.57,3,1.29,1.1Z"/><path class="cls-4" d="M1.29,980.71l0,1.1c-2.09-1.11-.93-3-.93-4.5Q.22,841.59.25,705.86l1.1.12c1.74,1.93,1.52,4.34,1.52,6.64q0,130.73,0,261.47C2.87,976.4,3.06,978.8,1.29,980.71Z"/><path class="cls-5" d="M.25,368.93c.28-.17.57-.33.86-.47a3.76,3.76,0,0,1,1.19,1.59c.77,2.43.57,4.94.57,7.43q0,113.83,0,227.66c0,2.93.62,6.05-1.54,8.63l-1.07.11Z"/><path class="cls-4" d="M767.9,666.87v16a1.1,1.1,0,0,1-1.54-.42,27.45,27.45,0,0,1,0-15.17A1.1,1.1,0,0,1,767.9,666.87Z"/><path class="cls-6" d="M346.16.8c0-.27,0-.53-.06-.8h9a1.09,1.09,0,0,1-.41,1.54C351.73,2.63,348.82,3.17,346.16.8Z"/><path class="cls-7" d="M767.9,666.87l-.4-.07h-.41c-2.35-2.66-1.82-5.56-.74-8.52a1.1,1.1,0,0,1,1.55-.41Z"/><path class="cls-8" d="M767.08,682.93a2.81,2.81,0,0,0,.82-.06v9a1.09,1.09,0,0,1-1.54-.4C765.27,688.5,764.75,685.59,767.08,682.93Z"/><path class="cls-9" d="M469,981.81l.06-.84c2.67-2.31,5.58-1.8,8.53-.71a1.11,1.11,0,0,1,.41,1.55Z"/><path class="cls-10" d="M355.11.93c0-.31,0-.62,0-.93h5V1A3.39,3.39,0,0,1,355.11.93Z"/><path class="cls-11" d="M767.9,657.87l-.94,0a3.4,3.4,0,0,1-.08-5h1Z"/><path class="cls-12" d="M767,691.89l.93,0v5h-1A3.38,3.38,0,0,1,767,691.89Z"/><path class="cls-13" d="M478,981.81c0-.31,0-.63,0-.94a3.4,3.4,0,0,1,5-.08v1Z"/><path class="cls-14" d="M478.05,980.87l-8.95.1c-2.16-.05-4.32-.15-6.48-.15l-454.34,0c-2.33,0-4.66-.06-7-.09L1.35,706c2.16-.06,4.32-.17,6.48-.17H339.54C487.37,705.8,626.3,620.13,692.8,488c1.32-2.63,2.24-5.53,4.57-8.05a290.75,290.75,0,0,1,28.07,40.11,303.88,303.88,0,0,1,40.68,127.37c.16,1.82.5,3.63.76,5.44,0,1.66,0,3.31.08,5,0,3,.09,6,.13,8.95q0,8.07,0,16.13,0,4.47-.11,9c0,1.65-.05,3.31-.08,5-2.32,24.42-6,48.66-14.17,71.84Q693,937.38,518.12,976"/><path class="cls-15" d="M355.11.93l5,.08C384,3.3,407.73,6.8,430.49,14.67,541.65,53.08,611.66,129.43,638.25,244c13.21,57,8.08,113.5-11.81,168.57-.45,1.24-1.09,2.41-1.64,3.61-2.54.41-4.49-1-6.46-2.19-41.42-25.37-86.61-39-134.78-43.35-2.83-.26-5.66-.19-8.49-.19q-232,0-464.09,0c-3.24,0-6.72.87-9.57-1.63l-.3-.36c0-2.17.14-4.33.14-6.49q0-180.44,0-360.87c2.17,0,4.33-.1,6.49-.1H339.69c2.16,0,4.32-.12,6.47-.19Z"/><path class="cls-16" d="M1.41,368.82c1.66,0,3.32-.1,5-.1q229.73,0,459.45.1c57.5.11,110.38,16.79,158.95,47.4a291.38,291.38,0,0,1-57,94.36q-73.73,82.34-183,99.91A266.07,266.07,0,0,1,342.09,614H5.3c-1.32,0-2.65-.11-4-.17q0-121.74,0-243.46A14.72,14.72,0,0,1,1.41,368.82Z"/></g></g></svg>