<svg xmlns="http://www.w3.org/2000/svg" viewBox="0 0 287.65 140.82"><defs><style>.cls-1{fill:#fff;}.cls-2{fill:#1c1714;}.cls-3{fill:#fefefe;}.cls-4{fill:#b5afaa;}.cls-5{fill:#b6b0ab;}.cls-6{fill:#b6b0ac;}.cls-7{fill:#b8b2ae;}.cls-8{fill:#b3ada9;}.cls-9{fill:#b1aba7;}.cls-10{fill:#f2f1f0;}.cls-11{fill:#e84569;}.cls-12{fill:#050202;}.cls-13{fill:#050101;}.cls-14{fill:#060303;}.cls-15{fill:#191316;}.cls-16{fill:#050000;}.cls-17{fill:#0f0d0b;}.cls-18{fill:#241b17;}.cls-19{fill:#1d1619;}.cls-20{fill:#221a1a;}.cls-21{fill:#141010;}.cls-22{fill:#392022;}.cls-23{fill:#3a2726;}.cls-24{fill:#0f0d0c;}.cls-25{fill:#4e1c26;}.cls-26{fill:#312121;}.cls-27{fill:#372525;}.cls-28{fill:#141312;}.cls-29{fill:#322b28;}.cls-30{fill:#0e0d0d;}.cls-31{fill:#6c4848;}.cls-32{fill:#382a29;}.cls-33{fill:#4c3232;}.cls-34{fill:#513032;}.cls-35{fill:#43302f;}.cls-36{fill:#10100f;}.cls-37{fill:#3b302e;}.cls-38{fill:#131111;}.cls-39{fill:#1d1614;}.cls-40{fill:#231b1c;}.cls-41{fill:#f1da8a;}.cls-42{fill:#33201f;}.cls-43{fill:#1e1b17;}.cls-44{fill:#f1df95;}.cls-45{fill:#726750;}.cls-46{fill:#463f3b;}.cls-47{fill:#403730;}.cls-48{fill:#f29600;}.cls-49{fill:#f8cb79;}.cls-50{fill:#eedb8e;}.cls-51{fill:#382826;}.cls-52{fill:#cf7757;}.cls-53{fill:#ee8a60;}.cls-54{fill:#c73758;}.cls-55{fill:#28141b;}.cls-56{fill:#da4f90;}.cls-57{fill:#ca3659;}.cls-58{fill:#e9a00d;}.cls-59{fill:#f9f9f8;}.cls-60{fill:#2d161a;}.cls-61{fill:#cb365a;}.cls-62{fill:#b34b94;}.cls-63{fill:#de4778;}.cls-64{fill:#e34266;}.cls-65{fill:#c1427e;}.cls-66{fill:#3e2225;}.cls-67{fill:#1e151c;}.cls-68{fill:#c29a97;}.cls-69{fill:#341c1d;}.cls-70{fill:#38161d;}.cls-71{fill:#2a1c1c;}.cls-72{fill:#1c1516;}.cls-73{fill:#542f36;}.cls-74{fill:#7e3841;}.cls-75{fill:#341a19;}.cls-76{fill:#5a2930;}.cls-77{fill:#75353d;}.cls-78{fill:#662131;}.cls-79{fill:#772537;}.cls-80{fill:#b43f56;}.cls-81{fill:#5c2932;}.cls-82{fill:#572e2d;}.cls-83{fill:#171314;}.cls-84{fill:#c43d70;}.cls-85{fill:#cc3c68;}.cls-86{fill:#e6476a;}.cls-87{fill:#9b6eab;}.cls-88{fill:#a96eab;}.cls-89{fill:#d87b92;}.cls-90{fill:#865399;}.cls-91{fill:#e38567;}.cls-92{fill:#4c364b;}.cls-93{fill:#d97c89;}.cls-94{fill:#b16092;}.cls-95{fill:#de8589;}.cls-96{fill:#c675ad;}.cls-97{fill:#9e62a5;}.cls-98{fill:#cd76ab;}.cls-99{fill:#3c253b;}.cls-100{fill:#9460a1;}.cls-101{fill:#a066a4;}.cls-102{fill:#eca899;}.cls-103{fill:#e1845f;}.cls-104{fill:#b36991;}.cls-105{fill:#cc8fbd;}.cls-106{fill:#c2748e;}.cls-107{fill:#131010;}.cls-108{fill:#ec8e00;}.cls-109{fill:#df862d;}.cls-110{fill:#cc7643;}.cls-111{fill:#50392c;}.cls-112{fill:#e9942a;}.cls-113{fill:#f29400;}.cls-114{fill:#e78834;}.cls-115{fill:#c55a9d;}.cls-116{fill:#a766a3;}.cls-117{fill:#9d6ba8;}.cls-118{fill:#aa6aa4;}.cls-119{fill:#c0777e;}.cls-120{fill:#755748;}.cls-121{fill:#e24768;}.cls-122{fill:#d77d11;}.cls-123{fill:#99354b;}.cls-124{fill:#151212;}.cls-125{fill:#f39700;}.cls-126{fill:#a23950;}.cls-127{fill:#db863c;}.cls-128{fill:#b76d6c;}.cls-129{fill:#dd7e79;}.cls-130{fill:#e3835c;}.cls-131{fill:#e1883e;}.cls-132{fill:#c87197;}.cls-133{fill:#a56f7d;}.cls-134{fill:#e18369;}.cls-135{fill:#36272a;}.cls-136{fill:#da7c8f;}.cls-137{fill:#9e72af;}.cls-138{fill:#996ca9;}.cls-139{fill:#9768a9;}.cls-140{fill:#cf76ab;}.cls-141{fill:#bf75ae;}.cls-142{fill:#a871ae;}.cls-143{fill:#b373ad;}.cls-144{fill:#a7669b;}.cls-145{fill:#9261a5;}.cls-146{fill:#f49f11;}.cls-147{fill:#f8f5ea;}.cls-148{fill:#f9efc4;}.cls-149{fill:#a172af;}.cls-150{fill:#f19200;}.cls-151{fill:#e8476b;}.cls-152{fill:#e3928e;}.cls-153{fill:#ec6a71;}.cls-154{fill:#e68260;}.cls-155{fill:#d77a7b;}.cls-156{fill:#dc808e;}.cls-157{fill:#f4a887;}.cls-158{fill:#df7f76;}.cls-159{fill:#e7a298;}.cls-160{fill:#ea7173;}.cls-161{fill:#f6cb79;}.cls-162{fill:#5a5339;}.cls-163{fill:#eb8800;}.cls-164{fill:#f0dd91;}.cls-165{fill:#373224;}.cls-166{fill:#e48a07;}.cls-167{fill:#eb676f;}.cls-168{fill:#412224;}.cls-169{fill:#f08200;}.cls-170{fill:#e96836;}.cls-171{fill:#e8751d;}.cls-172{fill:#9f73b0;}.cls-173{fill:#9160a5;}.cls-174{fill:#de4c77;}.cls-175{fill:#9e71ae;}.cls-176{fill:#da6aa2;}.cls-177{fill:#c373ac;}.cls-178{fill:#a84c96;}.cls-179{fill:#b6426f;}.cls-180{fill:#241e21;}.cls-181{fill:#371f37;}.cls-182{fill:#c94980;}.cls-183{fill:#fae2bd;}.cls-184{fill:#e6883d;}.cls-185{fill:#b12d4f;}.cls-186{fill:#d4559a;}.cls-187{fill:#dd4f90;}.cls-188{fill:#e04d8a;}.cls-189{fill:#2d1e26;}.cls-190{fill:#bf468a;}.cls-191{fill:#d8506a;}.cls-192{fill:#5c3135;}.cls-193{fill:#693e41;}.cls-194{fill:#af71ac;}.cls-195{fill:#a870ad;}.cls-196{fill:#1a131d;}.cls-197{fill:#342136;}.cls-198{fill:#472a4e;}.cls-199{fill:#d6799a;}.cls-200{fill:#ce749d;}.cls-201{fill:#c16b9f;}.cls-202{fill:#cf7697;}.cls-203{fill:#99559d;}.cls-204{fill:#b973ad;}.cls-205{fill:#c374ac;}.cls-206{fill:#dd8083;}.cls-207{fill:#ebabab;}.cls-208{fill:#f0b9b1;}.cls-209{fill:#a573af;}.cls-210{fill:#c58fbe;}.cls-211{fill:#e59aa1;}.cls-212{fill:#de8e96;}.cls-213{fill:#e2b5c6;}.cls-214{fill:#b277b0;}.cls-215{fill:#b3679b;}.cls-216{fill:#ad63a1;}.cls-217{fill:#cf75a9;}.cls-218{fill:#f19797;}.cls-219{fill:#d84778;}.cls-220{fill:#e9526e;}.cls-221{fill:#f0902e;}.cls-222{fill:#e54669;}.cls-223{fill:#e2826e;}.cls-224{fill:#a45ea2;}.cls-225{fill:#d87b90;}.cls-226{fill:#e96572;}.cls-227{fill:#ee8c8f;}.cls-228{fill:#b370ab;}.cls-229{fill:#d47c91;}.cls-230{fill:#d277a2;}.cls-231{fill:#e96a74;}.cls-232{fill:#e4576d;}.cls-233{fill:#b46ca9;}.cls-234{fill:#ce75a7;}.cls-235{fill:#653c43;}.cls-236{fill:#9d61a4;}.cls-237{fill:#c874ac;}.cls-238{fill:#3d2e38;}.cls-239{fill:#e35869;}.cls-240{fill:#af74af;}.cls-241{fill:#15120d;}.cls-242{fill:#a56aa8;}.cls-243{fill:#b96596;}.cls-244{fill:#ea8b00;}.cls-245{fill:#f29300;}.cls-246{fill:#421f27;}.cls-247{fill:#b874a7;}.cls-248{fill:#cb77a1;}.cls-249{fill:#8f4a4c;}.cls-250{fill:#663e40;}.cls-251{fill:#4f3a2f;}.cls-252{fill:#cf7a8d;}.cls-253{fill:#48373a;}.cls-254{fill:#5d3b50;}.cls-255{fill:#1e191c;}.cls-256{fill:#201a1f;}.cls-257{fill:#f6b484;}.cls-258{fill:#101010;}.cls-259{fill:#565142;}.cls-260{fill:#9260a5;}.cls-261{fill:#b97bb2;}.cls-262{fill:#a171ad;}.cls-263{fill:#9961a5;}.cls-264{fill:#edbecf;}.cls-265{fill:#cc79ae;}.cls-266{fill:#d38ab9;}.cls-267{fill:#dd92b7;}.cls-268{fill:#c18bbc;}.cls-269{fill:#3c2741;}.cls-270{fill:#382b35;}.cls-271{fill:#f2a197;}.cls-272{fill:#eb6273;}.cls-273{fill:#f4ae9c;}.cls-274{fill:#e17f7c;}.cls-275{fill:#e47e6f;}.cls-276{fill:#ee847d;}.cls-277{fill:#f29e84;}.cls-278{fill:#e9777d;}.cls-279{fill:#cf739b;}.cls-280{fill:#eab1be;}.cls-281{fill:#da819c;}.cls-282{fill:#d97f96;}.cls-283{fill:#f7d483;}.cls-284{fill:#a980b5;}.cls-285{fill:#191818;}.cls-286{fill:#443343;}.cls-287{fill:#392d36;}.cls-288{fill:#a2549d;}.cls-289{fill:#a26fad;}.cls-290{fill:#b081b7;}.cls-291{fill:#d5789f;}.cls-292{fill:#f3c7c5;}.cls-293{fill:#a262a5;}.cls-294{fill:#a863a5;}.cls-295{fill:#c473ac;}.cls-296{fill:#ec6e77;}.cls-297{fill:#dc7c8c;}.cls-298{fill:#bf6da9;}.cls-299{fill:#a05da2;}.cls-300{fill:#cf75ac;}.cls-301{fill:#d399c3;}.cls-302{fill:#d299c3;}.cls-303{fill:#d17aaf;}.cls-304{fill:#c687b9;}.cls-305{fill:#c38dbd;}.cls-306{fill:#e6b1ce;}.cls-307{fill:#d67ea7;}.cls-308{fill:#e0a6c9;}.cls-309{fill:#e9b2c6;}.cls-310{fill:#e5adcb;}.cls-311{fill:#ce76ac;}</style></defs><g id="图层_2" data-name="图层 2"><g id="图层_1-2" data-name="图层 1"><g id="SacHuT.tif"><path class="cls-1" d="M242.71,140.82h-12a7.54,7.54,0,0,1-1-1.6,55.21,55.21,0,0,1-.2-15.35,7.75,7.75,0,0,1,8.51-7.25c3.73.28,5.86,2.75,6,7.74s.59,9.93-.36,14.87A7.33,7.33,0,0,1,242.71,140.82Z"/><path class="cls-2" d="M64,3.21c3.36-2.07,8.06.42,11-3.21h3C79,2,81,1.19,82.62,1.44a61,61,0,0,1,23.43,8.7c1.57,1,1.55,3.4,3.73,3.6a2.2,2.2,0,0,1,.83,1.23,6.75,6.75,0,0,1-1.43,5c-1.08.64-1.87.08-2.63-.63A31.27,31.27,0,0,1,105,16.13c-2.8-3.49-7.27-4.23-10.89-6.34A36.85,36.85,0,0,0,83.45,6.11a13.76,13.76,0,0,0-7.09-.33c-3.11-.19-6.22-.54-9.34-.52C65.73,5,64.16,5.1,64,3.21Z"/><path class="cls-3" d="M277.66,140.82h-11a6.07,6.07,0,0,1-.89-1.35c-.73-3.09-.41-6.22-.31-9.33,0-1.27,0-2.81,1.6-3.29,1.28-.39,2.22.57,2.91,1.46,2.81,3.61,6.3,6.73,8.19,11A2,2,0,0,1,277.66,140.82Z"/><path class="cls-4" d="M277.66,140.82c0-.37,0-.73.08-1.1,3.23-2.18,6.48-1.55,9.74-.08l.17,1.18Z"/><path class="cls-5" d="M266.52,139.65c.05.39.1.78.16,1.17h-8l.15-1.17A6.54,6.54,0,0,1,266.52,139.65Z"/><path class="cls-5" d="M242.71,140.82l.15-1.17a6.54,6.54,0,0,1,7.68,0l.16,1.17Z"/><path class="cls-6" d="M230.62,139.71l.1,1.11h-8l.28-1.28A6.63,6.63,0,0,1,230.62,139.71Z"/><path class="cls-7" d="M206.75,140.82l.14-1.17a6.67,6.67,0,0,1,7.57-.1c.1.42.19.84.28,1.27Z"/><path class="cls-8" d="M163.64,139.65l.16,1.17h-8l.1-1.12A6.51,6.51,0,0,1,163.64,139.65Z"/><path class="cls-9" d="M190.77,140.82l0-1a5.35,5.35,0,0,1,6.94,0l0,1Z"/><path class="cls-10" d="M0,86.89a3.93,3.93,0,0,1,.84,0c1.63,1.68,1.64,3.35,0,5H.41l-.41,0Z"/><path class="cls-11" d="M119,135.37a1.72,1.72,0,0,1-1.13,1.61c-7.71,1.91-15.56.91-23.35,1.07-15.54-.54-31.09-.08-46.62-.24-1.7.09-3.33-.67-5-.51-3.21-.77-6.25-2.11-9.43-3a43,43,0,0,1-10.47-5.94c-2-1.53-4.16-2.74-6-4.42l-1.05-1.17c-2.2-2-3.61-4.6-5.5-6.84-.56-1.69-2.69-2.89-1.6-5.1a1.84,1.84,0,0,1,1.34-.33c4.2,2.3,7.64,6.21,13,6.22a17.29,17.29,0,0,1,8.08,4c.61.3.93,1.17,1.79.92.11,0,0-.55,0-.87a19.43,19.43,0,0,1-.06-4,10.14,10.14,0,0,1,1.43-4.13,13.22,13.22,0,0,1,5.67-4.6c1.38-.44,2.75-1.08,4.23-.35,1.8,2.72.46,7.07,4.52,8.72,1.18-1.45-.12-2.85,0-4.23a22,22,0,0,1,.87-8.3C52,93.2,59.38,87,69.14,83.09a73.37,73.37,0,0,1,14.3-4.29c8.87-1.58,16.88-4.67,23.09-11.66,2.6-2.93,5.83-5.18,10-2.23a16.68,16.68,0,0,1,2.31.94c1.66-.47.61-2,1.1-2.9a6.48,6.48,0,0,1,.42-1.29c1.15-1.36,1.22-3.67,3.52-4,1,.36,1.31,1.4,2,2.06,1.74,1.06,3.76,1.27,5.63,1.93,4.44,1.58,8.14,4.41,9.74,8.7,2.12,5.72,5.19,11.43,3.69,18,.12,2.4-2,3.45-3.09,5.12L138.9,94c-2.81,2.42-6.44,2-9.72,2.85a25,25,0,0,1-3.39.92c-1.72-.13-3.23.66-4.83,1.07a10.37,10.37,0,0,1-4.17-.54,43.45,43.45,0,0,0-5.32-1,13.67,13.67,0,0,1-5.86-3.89c3.15,6.9,7.78,8.12,17.61,4.84a6.92,6.92,0,0,1,3-.28,18.25,18.25,0,0,0,6.79-.08c2.94-.57,5.92-.56,7.93,2.35,2.7,4.53,2.25,7.09-1.63,9.41a5.71,5.71,0,0,1-2.14,0c-1.89-.44-3.78-1-5.65.09-1.66,1.15-2.46,3.21-4.32,4.16a35.9,35.9,0,0,1-3.91,2c-3.47,1.47-7.11,1.32-10.75,1.21a9.41,9.41,0,0,1-2.23-.4c-1.58-.59-3.08-1.38-4.68-1.94a6.8,6.8,0,0,1-3.73-4c-.35-.73-.46-1.6-1.27-2-.23,5.73,2.16,9.34,7.47,11.33,1.81.68,4,.64,5.11,2.67a3.75,3.75,0,0,1-1,3.31c-1.47,1.17-3.4,1.73-4.6,3.27,4-.17,8.54-2.83,11.22,2.62A6.24,6.24,0,0,1,119,135.37Z"/><path class="cls-12" d="M266.52,139.65h-7.68c0-13.13.05-26.25-.18-39.37-.05-3.24,1.06-3.85,4-3.81s4.19.36,4.06,3.73c-.28,7.43-.08,14.88-.08,23,6.5-4.49,9.57-14.24,20.22-10.48-3.24,3.25-6.3,6.56-9.64,9.56-2.17,1.94-2.48,3.21-.23,5.47,3.73,3.74,7,7.91,10.51,11.89l-9.74.08L266.52,126Z"/><path class="cls-13" d="M163.64,139.65l-7.73,0c0-12.31,0-24.61-.15-36.92,0-2.67.45-3.85,3.48-3.75,7,.22,14,.19,21,0,2.8-.07,3.69.71,3.68,3.59s-1,3.32-3.46,3.22c-4.31-.18-8.66.18-13-.13-3.21-.23-4.16.89-3.75,3.89a18.73,18.73,0,0,1,0,4.49c-.23,2.21.62,2.87,2.8,2.79,4.49-.15,9,.12,13.47-.1,2.8-.14,2.7,1.34,2.8,3.34.11,2.31-.81,2.81-2.89,2.75-4.16-.13-8.34.2-12.47-.12-3.26-.25-3.9,1-3.74,3.92C163.9,131,163.67,135.32,163.64,139.65Z"/><path class="cls-14" d="M230.62,139.71l-7.61-.17c0-7.79-.08-15.58,0-23.37,0-1.47-.87-3.82,1.63-4,1.92-.1,4.77-1.47,5.71,1.26,1,2.89,1.82.69,2.59.23,8.56-5.18,17.09-.92,17.62,9.05.3,5.61,0,11.26,0,16.89h-7.68c0-5.13-.08-10.26-.09-15.39,0-3.46-.79-6.35-5-6.58s-6.62,2.3-6.94,6.15C230.43,129.09,230.67,134.41,230.62,139.71Z"/><path class="cls-15" d="M123.83,58c-1.78.8-.77,3.64-3,4.11-.68-.54-.56-1.83-1.13-2-1.12-.35-1.47.88-2,1.64-.82,1.24,0,2.9-1,4.11-5.94-2.95-8.83,1.54-12.14,5-5.35,5.58-12.47,7.34-19.61,9-5.83,1.31-11.64,2.61-17.09,5.14-8.36,3.87-14.63,9.67-17.11,18.88-1.29.1-1.5-.89-1.82-1.78-.29-3.54-2.5-3.1-4.85-2.34-1.63.43-3.33,1.15-4.27-1.08.7-2.75,3.1-2.73,5.17-2.94a9.76,9.76,0,0,0,7.83-4.58c.16-.26,1.64-.38.29-1a6.23,6.23,0,0,0-1.48-.2c-1-.29-1.86-.66-1.89-1.88,3.55-3.15,8.84-2.34,12.42-5.44A33.45,33.45,0,0,1,65.25,81l2.43-1.19c1.8-1,3.88-.88,5.76-1.58.41-.18.83-.34,1.25-.5a13.79,13.79,0,0,1,2.58-.81,59.13,59.13,0,0,1,5.91-.7,4.35,4.35,0,0,1,1.82.44c0-.85-1.56-.18-1.32-1.31.8-1.59,2.33-1.54,3.77-1.7a17.86,17.86,0,0,0,4.89-.42A22.82,22.82,0,0,0,96.11,72a28.69,28.69,0,0,0,4.27-2.78c2.14-1.81,4-3.88,6-5.86A24.19,24.19,0,0,0,110,58.75a24.41,24.41,0,0,0,1.3-2.2c.53-1.1,1.22-2.15,1.06-3.45-.31-1.06-1.37-1.58-1.84-2.53-.17-.66-.23-1.48.31-1.82,4.82-3,7.24-8.17,11-12.12a1.55,1.55,0,0,1,1.32.41c.66,1.93,1.28,4.12-.54,5.51-4.62,3.53-3.95,9.46-7.5,14.11,3.25.23,5.24-3.43,7.83-1C123.27,56.43,124.52,56.84,123.83,58Z"/><path class="cls-16" d="M197.74,139.79H190.8c-.07-13.42-.07-26.83-.27-40.24,0-2.77,1.05-3.33,3.51-3.26s4.06,0,4,3.27C197.8,113,197.82,126.38,197.74,139.79Z"/><path class="cls-17" d="M214.46,139.55l-7.57.1c0-8,0-15.94-.15-23.91-.06-2.75.63-3.87,3.58-3.75,2.61.11,4.39.13,4.28,3.64C214.34,123.6,214.48,131.57,214.46,139.55Z"/><path class="cls-18" d="M123.14,37,122,37a9.47,9.47,0,0,0-6.21,2.91c-4.24,4.55-9.66,4.89-15.25,5a3,3,0,0,1-.24-2.79c1.16-2.06,3.37-2.67,5.22-3.78A43.31,43.31,0,0,1,113.9,35c.31.16-.33-1.27-.4-.61,0,.13-.16.07-.48,0a1.76,1.76,0,0,1-1.47-1.1c-.07-1.9,1.4-3.55.92-5.52-.33-1.21-1.29-2.1-1.68-3.28a13.4,13.4,0,0,1-.65-1.84,5.44,5.44,0,0,1,0-2.69,7.64,7.64,0,0,1,1.48-3.09c2-.58,1.44,1.27,2,2,3,.8,2.75.83,3.24,5,.37,3.23,1.45,6.38,2.21,9.57,2,.86,2.73-1.67,4.63-1.5A6.32,6.32,0,0,1,123.14,37Z"/><path class="cls-19" d="M8.91,110.76l2.22,4.84c.32,1.08-.17,1.4-1.17,1.26-6-7.25-8.77-15.66-9.13-25v-5a29.74,29.74,0,0,1,2.28-11,1.29,1.29,0,0,1,1.36-.09,3.39,3.39,0,0,1,1.33,1.74,8.78,8.78,0,0,1,0,4.38c-.7,2-.47,4.17-.87,6.24-.59,2,.13,3.83.65,5.7.29,1.62-.49,3.39.69,4.89.3,1.44-.12,3,.53,4.36C7.4,105.7,9,108,8.91,110.76Z"/><path class="cls-20" d="M144.12,87.9C146.47,78.35,138.46,64.63,129,62c-1.5-.41-3.49.13-4-2.15.19-.47.26-1,.89-1.16,11.33,1.87,17.79,8.14,19.11,19.89.43,3.77,3,7.31.5,11.2C143.86,90.08,144.6,88.54,144.12,87.9Z"/><path class="cls-21" d="M95.13,137.69l22.71-.71c-.89,1.84-2.64,1.81-4.27,1.81q-31.8,0-63.62-.14c0-1.12.79-1.3,1.67-1.29C66.12,137.53,80.63,136.89,95.13,137.69Z"/><path class="cls-22" d="M111.93,115.89a39.54,39.54,0,0,0,11.82-1.11c.93-.51,1.25.1,1.5.83a7.26,7.26,0,0,1-1,4c0,1-2.14-1-1.3,1a3.35,3.35,0,0,1,.17,3.09,2.29,2.29,0,0,1-.38.26,1.79,1.79,0,0,1-.47,0,10.81,10.81,0,0,0,4.69,5.82c2.19,1.47,3.19,3.24,1.79,5.79a11.52,11.52,0,0,1-.92,1.05c-2.63-1.47-2.61-5.31-5.79-6.37-.74-.25-1.32-.85-2.18-.46a3,3,0,0,1-1-1,12,12,0,0,1-.9-8.19c.73-3-1.32-2.27-2.84-2.32a6.36,6.36,0,0,1-3.32-1.23A.92.92,0,0,1,111.93,115.89Z"/><path class="cls-23" d="M138.68,109c4.84-1.67,2.68-5.07,2-8.11a.9.9,0,0,1,1.36-.13.74.74,0,0,1,.76.35c.89,1.7.54,3.43.15,5.16,3.27,3.08,4.35,6.9,3.88,11.28a26.93,26.93,0,0,0,.41,5.81c.34,3.15-.07,6.7-4.44,7.42l-.39-.52a1.84,1.84,0,0,1,.31-1.81c.73-.73,1.9-1.32-.14-1.79a3.56,3.56,0,0,0-.35-3.61c.1-2.94,1.89-5.62,1.28-8.66C144.26,110.5,139.79,111.26,138.68,109Z"/><path class="cls-24" d="M210.69,107.17c-2.65-.11-4.71-1.29-4.77-4s1.83-4.17,4.54-4.25c2.9-.08,5,1.27,5,4.25C215.46,105.9,213.27,107,210.69,107.17Z"/><path class="cls-25" d="M95.13,137.69c-13.3.06-26.6.1-39.89.21-1.77,0-3.68-.57-5.29.75-1.79.16-3.59.42-5.21-.68.43-.94,1.55-.42,2.15-1H91.81C93,137,94.16,136.82,95.13,137.69Z"/><path class="cls-26" d="M119.9,129a6.32,6.32,0,0,0,0,.87,2.26,2.26,0,0,1,.05.82c.57,1.71.56,2.91-1.8,2.08-1.27-4.55-4.82-3-7.79-2.83-1.71.11-3.16,1.87-5.49.79,1.58-2.78,3.64-4.58,6.79-5A8.74,8.74,0,0,1,119.9,129Z"/><path class="cls-27" d="M142.05,100.78l-1.36.13c-2.34-2.86-5.46-2.69-8.37-1.59a7.2,7.2,0,0,1-6.44-.53,1.2,1.2,0,0,1,0-1.89l3-1c3,.72,6.25-.7,9.21.8A4,4,0,0,1,142.05,100.78Z"/><path class="cls-28" d="M142.81,130.8c-1.6,3.12-6.69,2.87-7,7.5-.07,1-2.56.59-4,.42a1,1,0,0,1-.28-.81c.05-.29.1-.44.17-.44,1.26-5.09,1.26-5.09,7.47-6.69,1.22-.31,2.44-1.1,3.62.09Z"/><path class="cls-29" d="M113.68,19l-1.56-2c-.74-.24-.37-1.37-1.22-1.51a1.16,1.16,0,0,1-.9-.24l-.22-1.51c.28-1.74,1.77-2.26,3-3,.73-.43,1.46-.82,2.27-.19s.42,1.42.06,2.17A15.16,15.16,0,0,0,113.68,19Z"/><path class="cls-30" d="M23,127.79l10,5.93q.53.34.33.66c-.12.21-.25.31-.37.31-4.38-.63-7.54-3.54-11-5.93C21.83,127.92,22,127.45,23,127.79Z"/><path class="cls-31" d="M138.05,96.72c-3-.81-6.37,2.13-9.21-.8L138.9,94C138.61,94.91,137.09,95.43,138.05,96.72Z"/><path class="cls-32" d="M10,116.86l1.17-1.26c1.62,2.37,4.55,3.88,4.73,7.19C12.54,122.16,11.65,119.12,10,116.86Z"/><path class="cls-30" d="M33,134.69c0-.32,0-.64,0-1a24.23,24.23,0,0,1,9,3c.33.22.44.42.32.62s-.24.28-.35.28A30.31,30.31,0,0,1,33,134.69Z"/><path class="cls-33" d="M23,127.79l-1,1c-2.08-1.19-4.34-2.19-5.08-4.8C19.86,123.78,21.2,126.15,23,127.79Z"/><path class="cls-34" d="M118.13,132.78c1.34-.06,1.71-.94,1.8-2.08,1.2,1.87,2.13,3.68-1,4.67C118.26,134.65,117.61,133.9,118.13,132.78Z"/><path class="cls-35" d="M144.12,87.9c.48.64,1,1.27,1.43,1.91-.48,2-1.94,3-3.72,3.62C142.18,91.42,144.45,90.2,144.12,87.9Z"/><path class="cls-30" d="M125.94,58.72l-.89,1.16L123.83,58l-.9-2.34A3.59,3.59,0,0,1,125.94,58.72Z"/><path class="cls-36" d="M131.92,137.64l-.08,1.08a7.36,7.36,0,0,0-4-2c0-.35,0-.7.05-1.05C130.07,134.63,131.94,134.21,131.92,137.64Z"/><path class="cls-37" d="M143,106.29l-.15-5.16C144.54,102.8,143.87,104.54,143,106.29Z"/><path class="cls-38" d="M42,137.63q0-.45,0-.9l4.91.24-2.16,1Z"/><path class="cls-39" d="M22.91,46.83c1.74-2,1.95-2.13,3.05-.38.94,1.5,1.77.48,2.4.14,5.1-2.72,10.58-4.51,16-6.44,4.77-1.7,4.63-5.78,4.69-10A4,4,0,0,1,52,33.83c1.06,1.49-.08,2.57-.69,3.75a18.45,18.45,0,0,1-3.59,5.7C46.3,44.67,44.87,46,43.5,47.47c-1.72,1.68-3.44,3.35-5.06,5.14-1.15,1-1.79,2.74-3.69,2.77A2,2,0,0,1,33.3,54c-.46-2.38,1.05-4,2.17-5.93a41.78,41.78,0,0,0-5.65,2.79c-2.55,1.59-3.44,4.52-5.31,6.66-1,.81-1.7.46-2.23-.58a4.67,4.67,0,0,1-.21-2.1,21.47,21.47,0,0,0,.7-5.41C23,48.6,22.37,47.68,22.91,46.83Z"/><path class="cls-40" d="M3.93,75.91H3.12c0-3.58-.65-7.26,1.46-11.19l.79,4.86A55,55,0,0,1,21.1,51a.83.83,0,0,1,1.2.14c.8,1.46-.39,2.76-.33,4.16a17.69,17.69,0,0,1-.6,4.22,33.15,33.15,0,0,1-.57,3.57,13.61,13.61,0,0,0,.07,7.87c.28,2,1.37,4,.26,6-5.13-.71-4-5.32-5.23-8.43a14.57,14.57,0,0,1-.15-2.19c0-.67,0-1.34,0-2-.29-.49.56-2.09-1.17-1.16A14.71,14.71,0,0,0,13,65.44a11.78,11.78,0,0,1-.65,1c-.6.82-1.17,1.66-1.7,2.52-.33.52-.7,1-1.07,1.51-.88,1.18-1.31,2.61-2.23,3.76C6.38,75.2,5,75.21,3.93,75.91Z"/><path class="cls-41" d="M54,23.81l-1.26-1.68c-.35-2,.91-3.05,2.43-3.92,7.59-2.61,15.32-.21,23-.62,2.1,1.08,4.19.67,6.29-.06,2.31.46,4.08,1.42,3.9,4.2-1,2.79-3.37,3.38-6,3.56-3.87.26-7.63-.54-11.39-1.21a37.1,37.1,0,0,0-15.35.19A2.11,2.11,0,0,1,54,23.81Z"/><path class="cls-42" d="M50,37c.61-1.08,2.17-1.55,2-3.12,1.17,1.53,2,1,2.88-.36,1.25-2,1.14-4.08.93-6.24-.47-.93,0-1.4.82-1.73a2.32,2.32,0,0,1,1.46.27,4.43,4.43,0,0,1,1,2.72,14.65,14.65,0,0,0,.55,3.35,7.43,7.43,0,0,1,.3,2,7.09,7.09,0,0,1-.26,1.94,15.69,15.69,0,0,0-.57,2.46,12.13,12.13,0,0,1-.46,2.46C58.19,41.87,57.56,43,57,44.1a8.05,8.05,0,0,1-.62,1.11,11.25,11.25,0,0,1-1.26,1.5c-1.14,1.06-2.08,2.39-3.71,2.82a2,2,0,0,1-1.87-.73c-.85-2.22,1-4,1-6.06C50.36,40.81,51.58,38.73,50,37Z"/><path class="cls-43" d="M64,3.21c.8,1,1.92.73,3,.78.27,2.37-2.11,1.75-3.06,2.74-.72.51-1.3,1.16-2,1.73-4.44,3-9.77,4.54-13.63,8.45-.29.35-.6.67-.91,1-1,1-1.91,2.06-3.49,1.16-.92-3.05,1.32-4.83,3-6.62C51.41,7.41,57.3,4.55,64,3.21Z"/><path class="cls-44" d="M54.9,19.14l-2.13,3-1.94-1.37c-.84-1.73-5,0-3.91-3.74l.26,0a19.19,19.19,0,0,1,8.25-3.77c1.75-.31,3.55-.75,4.81,1.09C60.49,18.25,56.46,17.3,54.9,19.14Z"/><path class="cls-45" d="M46.92,17c0,2.65,3.49,1.58,3.91,3.74-2.23-1-4.9-.1-7-1.69C45.46,19.25,46,17.85,46.92,17Z"/><path class="cls-46" d="M21.63,51l-.27,0L21.1,51a5.39,5.39,0,0,1,1.81-4.15l1,2.19C23.22,49.79,23,51.09,21.63,51Z"/><path class="cls-47" d="M57,25.91,55.8,27.23q-.88-1.69-1.77-3.42l1.55-.39C56.53,24,57.48,24.54,57,25.91Z"/><path class="cls-48" d="M83.85,4.94c4.75,2.13,10.33,2.25,14.48,5.84a7.09,7.09,0,0,0,4.32,1.83c2.26.07,2.94,1.33,3.31,3.14a1.32,1.32,0,0,1,.08,1.38c-4,2.31-8.37,2.19-12.72,2.42a12.14,12.14,0,0,1-5.39-2.88,3.24,3.24,0,0,1-.6-1.22C87.6,11.48,84.83,8.5,83.85,4.94Z"/><path class="cls-49" d="M63.05,6c.63-1.95,3-.49,3.86-2a32.84,32.84,0,0,1,9.83.91c6.14,1.13,9.42,5.16,11,10.88l.18.15c.22,1.82-1.08,1.68-2.12,1.45A42.54,42.54,0,0,1,81.35,16c-1.43-.67-3.1-.74-4.38-1.8a2.3,2.3,0,0,1-.41-1.25c-1.62-4.09-5.56-4.19-9-5.18C66.08,7.12,64.22,7.41,63.05,6Z"/><path class="cls-50" d="M87.78,15.78a28.91,28.91,0,0,0-11-10.88c2.38-2.29,4.74-.19,7.11,0C87,7.88,89.34,11.12,87.78,15.78Z"/><path class="cls-51" d="M107,19l1.68,1c1.15,1.5.24,3.19.43,4.78a18.73,18.73,0,0,1-.29,3.42c-.09.4-.46.79-.13,1.23a1.25,1.25,0,0,1,1-.92,2.38,2.38,0,0,1,1.35.33c1.16,2.9-.59,4.61-2.56,6.24a1.69,1.69,0,0,1-1.49,0c-1.13-.95-1.23-2.28-1.35-3.61s-.07-2.76-.1-4.14C105.84,24.49,104.59,21.4,107,19Z"/><path class="cls-52" d="M108.06,24.92a8.25,8.25,0,0,1,.62-5L110,15.24a5.1,5.1,0,0,0,.86-.38c.9.88.42,1.95.39,2.95a9.24,9.24,0,0,0-.84,5.33C110.4,24.76,110,25.82,108.06,24.92Z"/><path class="cls-53" d="M107,19c-.2,3-.41,6-.61,9a1,1,0,0,1-1.11-.47,5.53,5.53,0,0,1-.41-1.31,26.17,26.17,0,0,1-.2-2.8,20.43,20.43,0,0,1,.26-5.06,7.38,7.38,0,0,1,.71-1.29l.32-1.24C107.47,16.45,106.65,17.9,107,19Z"/><path class="cls-54" d="M111.93,115.89a1.12,1.12,0,0,0,0,1c1.94,1.09,2.24,3,2.39,4.92a1.46,1.46,0,0,1-1.34,1.42c-3.55-2.19-8.22-1.92-11.13-5.73a14,14,0,0,1-2.88-10.08c.11-1.35,1-1.59,2-.63a2.72,2.72,0,0,0,1.74,2.91,6,6,0,0,0,3.42,4.35,6.49,6.49,0,0,0,3.91,1.8Z"/><path class="cls-55" d="M31,121.81c-2.6-1.38-4.8-3.55-7.88-4-2.37-1-5.28-1.35-5.37-4.85,3.27-.22,1-1.71.63-2.77-1-1.89-1.53-4-2.86-5.73-.77-1.12-1.21-2.27-.16-3.48,1.05-.63.08-1.67.47-2.45a2,2,0,0,1,1.55-.94c2,.9,2,3.09,2.94,4.65.82,0-1,2.26,1.06,1.27a1.43,1.43,0,0,1,1,.6,5.06,5.06,0,0,1,.37,1.26c.27,3.09,2,5.53,3.61,8a14.66,14.66,0,0,0,3.22,4c1,1.14,2.7,1.76,2.8,3.6C32.19,121.66,31.91,122.27,31,121.81Z"/><path class="cls-56" d="M16.11,103.83c2,1.43,2.39,3.7,3.07,5.82.08,2.37-1.35,1.14-2.33,1-1.85-2.42-1.61,1-2.61,1a4.47,4.47,0,0,1-4.24-.72l-1.09-.11a15.65,15.65,0,0,1-3.12-7.5c-.29-2.47,1.55-2.06,2.89-2A16.53,16.53,0,0,1,16.11,103.83Z"/><path class="cls-57" d="M116.61,97l4.34.9c.47.71,1.66.12,2,1.11-8.48,4.78-17.38,1.8-18.9-6.36a2.37,2.37,0,0,1,.88-2.57,27.4,27.4,0,0,0,7,6.93C113.49,97.11,115.05,97.8,116.61,97Z"/><path class="cls-58" d="M138.68,109c3.24.08,6.08.63,5.93,4.85a1.35,1.35,0,0,1-1.2.16c-2.19-.53-1.65,2.37-3.24,2.6-4,.79-7.93,1.22-10.53-3-.6-1.74.44-2.86,1.5-4,1.72-1.94,3.84-.93,5.84-.78Z"/><path class="cls-59" d="M113,123.19l1-1.06c0-1.47-.46-3.06,1-4.22,1.78-1.26,3.75-.55,6-.91-3.3,4.09-1.9,8.07-1,12-2.53-1.67-5.87-1.29-8.26-3.28C112.07,124.88,112.51,124,113,123.19Z"/><path class="cls-60" d="M135.82,75.91c2.53,2.19,3.09,5.57.81,7.21a6.36,6.36,0,0,1-8.76-1.24,2.7,2.7,0,0,1,1-2.31c1-.51,2.18.16,3.17-.41,1.22-.51,1.69-1.63,2.23-2.71C134.63,75.9,135.09,75.48,135.82,75.91Z"/><path class="cls-61" d="M50,113c.13.48.24,1,.4,1.43.5,1.42,1.24,3.19-.29,4-1.84,1-2.91-.93-4-2-2.36-2.33-2.25-5.36-2.18-8.35a1.06,1.06,0,0,1,1.17-.38c1.33,1.16,2.68,2.32,3.92,3.58A11.39,11.39,0,0,0,50,113Z"/><path class="cls-62" d="M44.92,107.82l-1,.23-3.85.88a6,6,0,0,1-3.45.54c-.83-1.55-2-3-2.21-4.8a1.85,1.85,0,0,1,1.53-1.22c3.88,1.09,7.71.19,11.56-.29a3.25,3.25,0,0,1,1.37.33,1.63,1.63,0,0,1,.5,1.27A4.62,4.62,0,0,1,44.92,107.82Z"/><path class="cls-63" d="M10,110.87l5,0a1.11,1.11,0,0,1,1.13-.32A3.36,3.36,0,0,1,18,112.88c.55,2.82,3.59,3.07,5.08,4.92C17.52,117.81,13.52,114.79,10,110.87Z"/><path class="cls-64" d="M116.7,65.85c-2.64-5.18,1.27-6.93,5-9.55-.37,2.37-.64,4.09-.9,5.81l.1.45c-1.15,1.25-.59,3.39-2.27,4.36Z"/><path class="cls-65" d="M35.93,108.86l4.12.07-5,3.94c-.63.59-1.11,1.6-2.24.8a2.41,2.41,0,0,1-.33-2C33.21,110.22,33.67,108.41,35.93,108.86Z"/><path class="cls-66" d="M88.92,93.77,83.06,92.7c-.62-.36-1.75-.42-.89-1.6a17.81,17.81,0,0,1,8,1.61C90,93.41,89.4,93.49,88.92,93.77Z"/><path class="cls-67" d="M48.75,105v-1.16c-.52-1.16-.35-2,1.06-2.19l.93,2.14c-.25,3.05-.51,6.1-.76,9.15l-1.18-1.11A6.34,6.34,0,0,1,48.75,105Z"/><path class="cls-68" d="M132,79.93c-1.2,1.64-2-.88-3.05-.32a1,1,0,0,1-.3-1.58l1-1.78c.6-1,1.43-.87,2.31-.46A3.27,3.27,0,0,1,132,79.93Z"/><path class="cls-69" d="M131.82,109.81l-2,3a1.94,1.94,0,0,1-2,1.49c-.71-.19-1.23-.51-1-1.38l3.63-4.24C131.66,108.23,131.93,108.79,131.82,109.81Z"/><path class="cls-70" d="M118.65,66.92c0-1.83.34-3.52,2.27-4.36a24.52,24.52,0,0,1-.17,4.38C120.15,69.83,119.36,67.46,118.65,66.92Z"/><path class="cls-71" d="M131.82,109.81l-1.3-1.09c2.17-.7,4.36-1.69,6.46.19C135.51,110.67,133.3,108.11,131.82,109.81Z"/><path class="cls-72" d="M88.92,93.77l1.25-1.06c1.52.38,3.1.67,3.54,2.85C91.68,95.83,90.42,94.45,88.92,93.77Z"/><path class="cls-73" d="M128.67,78l.3,1.58c-.12.88-.21,1.77-1.1,2.27C126.24,80.21,125.94,78.8,128.67,78Z"/><path class="cls-74" d="M122.92,99c-.74-.23-1.68-.09-2-1.11l4.91-1,0,1.89Z"/><path class="cls-75" d="M131.79,76l-2.08.26c1.89-2.82,4-1.86,6.11-.34l-1,1C133.47,77.59,132.67,76.68,131.79,76Z"/><path class="cls-76" d="M110,115.81c-2,.86-3.51.76-3.91-1.8A5.16,5.16,0,0,1,110,115.81Z"/><path class="cls-77" d="M102.66,109.66c-2.24,0-3.3-.66-1.74-2.91Z"/><path class="cls-78" d="M126.33,62.64c.81,2.37.67,3.69-.91,4.93C124.62,65.85,125.88,64.69,126.33,62.64Z"/><path class="cls-79" d="M116.61,97c-1.56,1.44-3.12,1.24-4.68,0C113.49,96.07,115.05,97,116.61,97Z"/><path class="cls-80" d="M82.17,91.1l.89,1.6c-1.17,0-2.87.88-3.24-.68C79.58,91,81.15,90.91,82.17,91.1Z"/><path class="cls-81" d="M31,121.81l.94-.91a.75.75,0,0,1,.92-.42c.5.32.66.93,1.13,1.28l.49,1.69C32.88,123.84,31.94,122.82,31,121.81Z"/><path class="cls-82" d="M126.89,113l1.2,1a1.35,1.35,0,0,1-.25,1.21c-.9.67-1.81,1.26-3,.6l-1.11-1Z"/><path class="cls-83" d="M99.32,102.94c-1.71-.59-1.71-1.72-1.83-3.08C99.09,100.51,99.28,101.54,99.32,102.94Z"/><path class="cls-84" d="M33,113.88l2-1c-.36,1.32-.72,2.64-1.09,4l-.56.39a1.59,1.59,0,0,1-1-.86,2.63,2.63,0,0,1,.14-2Z"/><path class="cls-85" d="M33,116.87l.93,0c0,1.64,0,3.28.05,4.92l-1.06-.82C32.14,119.57,31.7,118.2,33,116.87Z"/><path class="cls-86" d="M100.86,44.65c2.2-.47,3.68-3.53,6.87-1,1.23,1,3.59-2.34,5.57-3.44C116,38.69,117.86,34.64,122,37c-2.22,5.08-5.31,9.42-10.44,12-1,.49-.87,1.24-.71,2.06l-.53.5a6,6,0,0,1-4.28.29,2.08,2.08,0,0,1-1.43-1.35c0-.66.56-1,1-1.29a2.2,2.2,0,0,1-.47.26,4.88,4.88,0,0,1-3.21.31c-1.4-.44-2.93-.56-4.1-1.6C97.5,45.78,98.69,44.79,100.86,44.65Z"/><path class="cls-87" d="M63.17,83c-3.64,3.65-8.58,3.89-13.18,5-2.14,2.11-5.1,1.82-7.69,2.63-2,.48-4.17.55-6.18,1.24-.85.25-1.7.52-2.52.85a9.66,9.66,0,0,1-1.88.63c-1.62-.11-3,.88-4.52,1.09-.79-.1-1.47-.32-1.5-1.3.74-2.77,3.18-3.67,5.36-4.76,7.85-3.93,16.45-4.7,25-5.85C58.39,82.85,60.91,80.92,63.17,83Z"/><path class="cls-88" d="M47.92,103.84c-4,1-8,2.94-12,.09-.55-2.87,2.42-3.22,3.5-4.92l.6-.26c1.18,1.81,2.33-.44,3.5,0C49.09,98.23,49.26,98.43,47.92,103.84Z"/><path class="cls-89" d="M96.87,72.64A5.14,5.14,0,0,1,93.12,74a3,3,0,0,1-2.18.21,1.91,1.91,0,0,1-1.18-2.4c1-.75,2-.3,2.88-.29-.28-.66-1.52.13-2.12-.55-1.38-2.07-5-3.58-1.69-6.82a4.52,4.52,0,0,1,3.8.29C94,67.2,97.84,68.67,96.87,72.64Z"/><path class="cls-90" d="M52.11,89h3c-3.65,6.91-3.65,6.94-10.79,7.87-1.64.21-3.26.29-4.26,1.88l-.09.17a1.75,1.75,0,0,1-2.1.15,2,2,0,0,1-.41-1.4c1.78-3.73,5.92-2.73,8.75-4.38.82-.34,1.65-.68,2.44-1.1a5.07,5.07,0,0,0,2.64-2.38A1.58,1.58,0,0,1,52.11,89Z"/><path class="cls-91" d="M112.27,57,111,59c-1.31.58-2.25,1.78-3.67,2.18a7.92,7.92,0,0,1-3.66.59,3.85,3.85,0,0,1-1.43-.56c-3-4.08-2.75-4.43,3.27-6,1.62-.37,3.2-1.17,4.94-.67C111.21,55.22,111.09,56.59,112.27,57Z"/><path class="cls-92" d="M73.94,79c-1.74,1.57-4.26.57-6.08,1.85-4.37.43-8.81,0-13.14,1-2.3.13-4.83,1-6.15-2,.32-2,1.89-2.12,3.4-2.38,3.27-.27,6.55,0,9.83-.07,2.67,0,5.35,0,8,0C71.34,77.63,72.89,77.63,73.94,79Z"/><path class="cls-93" d="M96.87,72.64c-.28-3.12-4.74-4.08-4-7.72l.47-.43a3,3,0,0,1,1.88,0,9.32,9.32,0,0,1,2.93,1.23c1.06,1.32,2.37,2.5,2.74,4.26A8.92,8.92,0,0,1,96.87,72.64Z"/><path class="cls-94" d="M110.86,54.88l-5,1.23a16.83,16.83,0,0,1-5.62.21c-1.31-2.33,1-2.18,2-2.68,2.75-1.32,5.9-1.44,8.67-2.75l0,.09c1.24.22,3.34-.84,2.88,1.93C113.12,54.06,112.37,55,110.86,54.88Z"/><path class="cls-95" d="M100.91,69.93c-1.6-.88-3-2-3-4,.83-1.11,2.2-1.07,3.31-1.59a9,9,0,0,0,2-1.33,2.33,2.33,0,0,1,1.13-.48,3.49,3.49,0,0,1,2.27.92c.11.18.21.36.31.54C105,66.07,103.6,68.64,100.91,69.93Z"/><path class="cls-96" d="M76.9,77.93l-2,.74c-1.35-.79-2.89-.73-4.37-1A3.5,3.5,0,0,1,69.36,77c-1.68-3,1.15-2.91,2.6-3.78a6.53,6.53,0,0,1,2.2-.28,5.8,5.8,0,0,1,4,1.88C78.89,76.29,78.05,77.17,76.9,77.93Z"/><path class="cls-97" d="M63.17,83l-7.25.88A2.35,2.35,0,0,1,56,80.63c3.3.18,6.81-1.51,9.86,1.07Z"/><path class="cls-98" d="M76.9,77.93l1-3A3.07,3.07,0,0,1,80,73.86a4.57,4.57,0,0,1,4.23,1.89l3.12.53C83.11,77.24,80.12,78.21,76.9,77.93Z"/><path class="cls-99" d="M52.11,89a4.23,4.23,0,0,0-.24.68c-2.45,2.25-5.57,1.86-8.53,2.15a3.41,3.41,0,0,1-1.5-.71,1.29,1.29,0,0,1,0-1.55L50,88Z"/><path class="cls-100" d="M65.87,81.7c-3.21-1.6-6.62-.46-9.92-.76a.91.91,0,0,1-1.27-.17,26.62,26.62,0,0,1,13.18.1Z"/><path class="cls-101" d="M47.92,103.84c.54-3.4-.45-5.5-4.36-5.11,2.76-.45,6.71-3.42,6.26,3l-1.06,2.19Q48.34,103.87,47.92,103.84Z"/><path class="cls-102" d="M106.83,60,111,59c-1.35,1.69-1.67,4.22-4.09,5l-.17-.43C105.69,62.35,106.06,61.18,106.83,60Z"/><path class="cls-103" d="M110.86,54.88l2.88-2c.3,1.65-.7,2.84-1.47,4.12C110.65,57.07,110.09,56.41,110.86,54.88Z"/><path class="cls-104" d="M84.25,75.75l-4.32-.9a.92.92,0,0,1,.16-1.35,8,8,0,0,1,4.52-.82,5.93,5.93,0,0,1,3,.73.94.94,0,0,1,.3,1.33C86.71,75.17,85.19,74.41,84.25,75.75Z"/><path class="cls-105" d="M70.91,76.94c1.64-.15,3.11.12,4,1.73l-1,.35-4-.25C69.38,77.7,70.36,77.43,70.91,76.94Z"/><path class="cls-106" d="M87.89,74.74c0-.26,0-.51,0-.77.93-1,1.94-.74,3-.18l2.28.22C91.51,75.16,89.69,74.87,87.89,74.74Z"/><path class="cls-107" d="M100.86,44.65c-1.07.9-2.25,1.7-2.71,3.13a2.87,2.87,0,0,1-.36,2.4,12.57,12.57,0,0,0-.46,3.11,5.69,5.69,0,0,1-1.38,3c-1.32.94-3,.66-4.4,1.52-2.19,1.56-4.22,3.35-6.51,4.77-2,1.09-4.11,2.11-6.21,3.1-1.34.51-2.71.95-4.1,1.34-2.61.75-5.32,1.06-7.94,1.78-2.22.47-4.51.49-6.71,1.13a18.48,18.48,0,0,1-3.79.22,4.63,4.63,0,0,1-3.38-1.22,1.36,1.36,0,0,1,0-1.31,5.85,5.85,0,0,1,1.58-1.2,11,11,0,0,0,3-2.1A17.92,17.92,0,0,1,60.42,62a14.15,14.15,0,0,1,2.72-1.64,3.62,3.62,0,0,1,1.93.11c2.81.91,3.91-1.38,5.42-2.9a2.57,2.57,0,0,1,2.41-.88,4.92,4.92,0,0,1,1.16,1.49c3.07.5,2.59-2.53,3.81-3.84a22.63,22.63,0,0,0,1.3-3.82A12.86,12.86,0,0,0,76,37.63a2.44,2.44,0,0,1-.21-2.83c5.94-.47,7.86,3.91,9.88,8.17a12.3,12.3,0,0,1-.41,7.49,11.16,11.16,0,0,1-.46,1.34,30.74,30.74,0,0,0-1.26,3.35c1.61-.48,2.51-1.64,3.56-2.56.46-.48.93-1,1.39-1.44C90.53,48.79,92,46,94,43.58a10,10,0,0,0,1.24-3,10.21,10.21,0,0,0,.06-6c-.34-1.06-.78-2-2-2.36a1.91,1.91,0,0,1-.91-1.6c.5-2.67-1.49-3-3.3-3.46-1.08-.39-2.31-.6-2.37-2.11a3.4,3.4,0,0,1,4.39-.64c-.84-1.32-2.36-2.06-2.92-3.54a8.55,8.55,0,0,0-4.23-2.69,5.6,5.6,0,0,1-4.22-.8,2.42,2.42,0,0,1-1-1.9c.58-1.25,1.54-1,2.55-.66,2.4-.52,4.17,2.88,6.77,1.09l5,2.86a5.37,5.37,0,0,1,4.51,3.7,11.93,11.93,0,0,0,1.22,2.14c.69.73,1.4.5,2.13.06a2,2,0,0,1,1.27.12,6.26,6.26,0,0,1,1.15,1.6c2.32,2.22.09,5.17,1.23,7.59.44,2.31-1.4,3.59-2.37,5.27-.5.91-1.25,1.7-1.22,2.83Z"/><path class="cls-108" d="M112,33.2c1.22,2.26,2.92-2.64,3.66.09.57,2.12-1.61,3.3-3.32,3.56-2.32.36-4.08,1.92-6.31,2.33-.79-.8-.37-1.62-.07-2.45a4.15,4.15,0,0,1,1.78-1.88l.3.15c1.78-.48,1.77-3.31,4.07-3.11A1.36,1.36,0,0,1,112,33.2Z"/><path class="cls-109" d="M106.81,36.85c-.27.77-.55,1.55-.82,2.33l-5.13,2.92c-1.85-1.09-.43-2,.16-3a8.93,8.93,0,0,1,4.55-2.78A2,2,0,0,1,106.81,36.85Z"/><path class="cls-110" d="M108.06,24.92c1.28,0,1.78-.77,1.82-1.94.34-.5.71-.49,1.09-.05l.83.95c-.84,1.62-.19,3.79-1.89,5.09-.64-.42-1.58,2.77-2-.12A23.53,23.53,0,0,1,108.06,24.92Z"/><path class="cls-111" d="M109.91,29a7,7,0,0,1,1.89-5.09c-.16,1.59,1.33,1.9,2.13,2.73a9.26,9.26,0,0,1-.71.94c-.6.72-1,1.85-2.27,1.46Z"/><path class="cls-112" d="M110.8,17.88l.06-3c.28-.78,1.19-1.68,1.58-1.29,1,1-.36,2.24-.32,3.43-.53,1,.27,2.48-1.21,3.09A1.68,1.68,0,0,1,110.8,17.88Z"/><path class="cls-113" d="M112.88,27.06l1.05-.45a6.48,6.48,0,0,1-2,6.59c0-.41-.07-.83-.11-1.24C110.83,30,112.47,28.68,112.88,27.06Z"/><path class="cls-114" d="M110.8,17.88l.11,2.21.06,2.84-1.09.05C110,21.25,109.34,19.37,110.8,17.88Z"/><path class="cls-115" d="M16.11,103.83c-2.63.4-5-.85-7.49-1.28-1.16-.19-2.16-.66-2.83.71-1-1.33-1.42-2.68,0-4-.19-5,3.16-2.69,5.42-2.62,1.73.62,3.48,1.24,3.47,3.56Z"/><path class="cls-116" d="M12,97.86c-2,.93-5.07-3.22-6.25,1.37-3.91-1-.07-3.63-1.08-5.24,1.13-1.43,2.76-1.52,4.38-1.62C11.74,93.28,13.21,94.86,12,97.86Z"/><path class="cls-117" d="M9,92.89c-1.16,1.49-2.87.81-4.33,1.1-.58-1.68-2-3.24-.78-5.19,1.17-.6,1.48-2.78,3.46-1.9C8.66,88.69,10.41,90.36,9,92.89Z"/><path class="cls-118" d="M7,86.9c-1,.62-1.49,2.22-3.1,1.9.36-2.32-1-5,1.41-6.89a.79.79,0,0,1,1,.07,4.15,4.15,0,0,1,.55,1,9.17,9.17,0,0,1,.67,2.87A1.8,1.8,0,0,1,7,86.9Z"/><path class="cls-119" d="M6,81.9l-.36,0-.36,0c-.14-1.67-.27-3.33-.41-5a1.81,1.81,0,0,1,2-.41,3.35,3.35,0,0,1,1.48,3A4,4,0,0,1,6,81.9Z"/><path class="cls-120" d="M6.84,76.59l-1.95.33-1-1c-.28-2.47,2.26-.81,2.87-2A1.57,1.57,0,0,1,6.84,76.59Z"/><path class="cls-121" d="M131.92,137.64c-.09-3.2-2.74-1.21-4-2,.93-2.19,1-3.91-1.76-5s-4.1-3.68-4.86-6.36c-.46-1.64,1-.28,1.49-.6,1.18-.59,2.18,0,3.21.49a14.4,14.4,0,0,0,5.28,2.29c.64.08,1.28.18,1.91.28,1.86.37,3.7,1.1,5.64.32a6.45,6.45,0,0,1,4,0c3,1.22-1.31,2.55,0,3.79-3.4.41-6.31,3.23-10.39,1.84C134.73,134.93,136.76,136.92,131.92,137.64Z"/><path class="cls-122" d="M124.86,115.81l3-1c1.34,2.83.4,5.13-1.67,7.17-1.69.25-2.58-.36-2.34-2.18C124,118.43,123.51,116.88,124.86,115.81Z"/><path class="cls-123" d="M123.81,119.8l2,2.12a2.05,2.05,0,0,1,.71,1.07,2,2,0,0,1-.61,1.8c-1.26.27-2.14-.55-3.12-1.08C123.85,122.61,119.6,120.08,123.81,119.8Z"/><path class="cls-124" d="M114.9,117.91c-.24,1.42.46,3.06-1,4.22q-1-2.64-2-5.28C113,116.86,114.2,116.71,114.9,117.91Z"/><path class="cls-125" d="M126,122.74c0-.27-.1-.55-.16-.82.68-2.37,1.35-4.74,2-7.11a6.41,6.41,0,0,0,.27-.81l1.73-1.15c2.8,3.87,7,2.91,10.8,3,1.59.15,1.82-1.9,3.26-2,.24,0,.48,0,.73,0,.71,3.53-.57,6.68-1.91,9.82-.49,2.11-2.14,2.5-3.94,2.69-2.09-.33-4.23-.22-6.31-.65C130.37,124.56,127.39,125.31,126,122.74Z"/><path class="cls-126" d="M138.87,125.75l3.83-2.06c.84.14,2-1.24,2.48.23.58,1.89-2.4,1.47-2.41,3.16-1,1.26-2.49.54-3.73.85-2.07.3-4.11-1.09-6.19-.13l-2-.08c-.7-1.4-.21-2.15,1.28-2.36C134.34,125.54,136.65,124.93,138.87,125.75Z"/><path class="cls-127" d="M29,50.24a22.52,22.52,0,0,1,8.86-4.17l-4,7.62a.86.86,0,0,1-.93.67,7.44,7.44,0,0,1-3.09-1.09A2.74,2.74,0,0,1,29,50.24Z"/><path class="cls-128" d="M29,50.24l.82,2.84c.46,2.1-.73,3.36-2.24,4.47a3.11,3.11,0,0,1-3.6-.64A12.2,12.2,0,0,1,29,50.24Z"/><path class="cls-129" d="M37.8,51.86a17.9,17.9,0,0,1,5-5c1.22-.72,2.47-1.14,3.83-.37.55,4.45-3.34,4.75-5.89,6.31A3.07,3.07,0,0,1,37.8,51.86Z"/><path class="cls-130" d="M47.07,47l-4.23-.1,4.11-4a3.42,3.42,0,0,1,3.71-.45C51.25,45.4,49.83,46.73,47.07,47Z"/><path class="cls-131" d="M51,42.93H47c1.16-1.91,2.9-3.53,3-6,3.72,1,1.45,3.87,1.8,5.92C51.52,43.39,51.27,43.43,51,42.93Z"/><path class="cls-132" d="M37.8,51.86h3.13c-.9,3.48-3.1,5.34-6.74,5.39-1-1.2-.12-1.76.79-2.3Z"/><path class="cls-133" d="M24,56.91l3.81.05c.63,1,0,1.69-.67,2.35a5.94,5.94,0,0,1-1.22.58c-1.49.06-2.64,1.9-4.36.85a2.86,2.86,0,0,1-.41-2c.35-.82.25-2.08,1.74-1.79C23.28,57.45,23.65,57.56,24,56.91Z"/><path class="cls-134" d="M21.63,51c.76-.66,1.51-1.33,2.26-2,.3,2.06.32,4.07-1,5.87a1,1,0,0,1-1.73,0C20.88,53.54,22.36,52.41,21.63,51Z"/><path class="cls-135" d="M35,54.94l-.73,1.93a2,2,0,0,1-1.4,2.32,1.7,1.7,0,0,1-1.57-1.36A3.54,3.54,0,0,1,33.07,54c.26-.11.53-.21.8-.3Z"/><path class="cls-136" d="M21.18,54.88h1.73v2c-.37.68-.74,1.37-1.1,2.06a.94.94,0,0,1-1.54,0Z"/><path class="cls-137" d="M16.86,67.91c1.24,3,.71,6.77,3.93,8.89,1.85-.52,2.37.69,2.75,2.09C22.4,81.8,22,85.75,17.14,83.4c-3-4.83-5.21-9.9-4.08-15.81A2.94,2.94,0,0,1,16.86,67.91Z"/><path class="cls-138" d="M23,79a3.65,3.65,0,0,0-2.23-2.23c-.31-1.89-.61-3.78-.92-5.68-.71-1.89-.28-3.84-.32-5.76A3.69,3.69,0,0,1,22,63.22a3.49,3.49,0,0,1,3.18.56c-.13,5,1.9,10,.82,15.06A2.13,2.13,0,0,1,23,79Z"/><path class="cls-139" d="M6.84,76.59c0-.88,0-1.77,0-2.65A7.1,7.1,0,0,1,9,69.79c1.41,1.15,1.05,2.95,1.62,4.41a12.33,12.33,0,0,1,.37,1.32c.43,4.58,3.32,7.94,5.73,11.54a5.79,5.79,0,0,1,.16,3.61,2.14,2.14,0,0,1-1.47,1.5c-2.89-.75-3.64-3.49-5.16-5.51q-1.12-2.09-2.11-4.23c-.31-.84-.72-1.68-.17-2.57Z"/><path class="cls-139" d="M9.84,68.53a2.77,2.77,0,0,1,2-2.65c1.18-.17,1.42.39,1.09,1.39-.57,2.41.22,4.8.16,7.2,0,1.29,0,3-1.43,3.24-2,.31-.58-2.17-1.71-2.81h0A10.73,10.73,0,0,1,9.84,68.53Z"/><path class="cls-140" d="M22.08,63.9a1.6,1.6,0,0,1-1.88.81c-.92-.5-.73-1.14-.24-1.82.1-1.32.21-2.64.31-4l1.54,0c.07.63.14,1.26.22,1.9A2.27,2.27,0,0,1,22.08,63.9Z"/><path class="cls-141" d="M13.86,62.68c.16-1.43.86-2.94,2.3-2.54,2.09.58.52,2.47.69,3.77C15.37,64.66,14,65.18,13.86,62.68Z"/><path class="cls-142" d="M13,66.93l-1.09-1.05.29-1c1.84-1,3.22,0,4.64,1l.05,2H13c-.29-.21-.39-.43-.3-.65S12.88,66.93,13,66.93Z"/><path class="cls-143" d="M16.81,65.91l-4.64-1c.05-1.13.9-1.66,1.69-2.23.63,1.29,1.82,1.23,3,1.23Z"/><path class="cls-144" d="M20,62.89l.24,1.82-.33,6.41A11.56,11.56,0,0,1,20,62.89Z"/><path class="cls-145" d="M9.84,68.53,10,74.9c-1.69-1.43-.73-3.4-1-5.11Z"/><path class="cls-146" d="M88.14,20.89a6.77,6.77,0,0,1,4.09,3.64l-5.29.65c-1.5,1.37-3.4,1.77-5.29,2.2-4.91,1.57-10,.74-15,.95a44.54,44.54,0,0,0-5.42.14c-1.83.14-2.3-1.72-3.56-2.42a2.49,2.49,0,0,1-.72-.14c-.48-.83-1-1.66-1.42-2.49,6.84-3.25,13.63-.6,20.45.1C80.3,24,85,25.93,88.14,20.89Z"/><path class="cls-147" d="M54.9,19.14c.7-2.56,3.76-2.35,5-4.27A5.07,5.07,0,0,1,63.16,13a25.74,25.74,0,0,1,4.56-.26,14.6,14.6,0,0,1,3.72.42,15.9,15.9,0,0,1,2.7,1.13c1.64.95,3.54,1.43,5,2.71a1.45,1.45,0,0,1-.31,1.93C70.87,19.32,62.87,17.55,54.9,19.14Z"/><path class="cls-148" d="M78.85,18.89V17.06a.87.87,0,0,1,1.35-.2l3.71,1.34C82.52,20.59,80.73,20.1,78.85,18.89Z"/><path class="cls-149" d="M32.86,58.86c.46-.66.92-1.33,1.39-2,2.89-.79,4.45-3.34,6.68-5L47.07,47A12.31,12.31,0,0,0,51,42.93a7,7,0,0,0,.79-.06L50.1,49a2.41,2.41,0,0,1-.74,2.45,14.46,14.46,0,0,1-3.88,2.47,32.35,32.35,0,0,0-4.89,2.94A10.82,10.82,0,0,0,38.2,59c-2.31,2.64-2.76,4.61,1.72,4.82,3.73.18,7.66,2.64,11-1a3.6,3.6,0,0,1,.91-1.07,1.64,1.64,0,0,1,1.36.24c1.16,1.78,1,3.69.6,5.64A1.73,1.73,0,0,1,53,68c-1.06,2.1-3.33,1.88-5.07,2.66-.61.25-1.22.48-1.84.67a8.29,8.29,0,0,1-1.3.18,23.38,23.38,0,0,0-5.17,1.19A55,55,0,0,0,32.26,75c-1.31.35-2.48.33-3.1-1.15-.67-2.12-.37-4.35-.69-6.51,0-1.71,1.29-3,1.75-4.5C30.85,61.31,31.2,59.64,32.86,58.86Z"/><path class="cls-150" d="M57.71,26.05c1.67-.38,2.15,1.35,3.3,1.88,1.6-1.23,3.37.44,5-.31a2.66,2.66,0,0,1,1.31.14c1.6.26,3.18.67,4.8.84,4.94.53,9.94.83,14.2,3.84,2.39,3.33,6.22,6.26,3.14,11.14A4.84,4.84,0,0,1,84.39,43c-1.62-3.83-4.07-6.8-8.29-7.89-1.72,1.12-3.35.23-5-.19-2.23-.81-4.6-1.13-6.81-2-.86-.34-1.68-.75-2.5-1.17-1.39-.75-2.87-1.4-3.69-2.87Z"/><path class="cls-151" d="M71,58.18c-.69,2-2.49,3-4.1,4.14s-1.9-.14-2-1.41c-1-3.24.74-6.89-1.47-9.94-.61-.94-1.34-1.78-2-2.69-.5-.74-1-1.49-1.54-2.18-1.29-1.61-2.63-3.21-2.1-5.51l.46-2.71a2.7,2.7,0,0,1,1.91,1c2.21,2.48,4.89,4.55,6.88,7.19C69.74,49.57,72.7,53.16,71,58.18Z"/><path class="cls-152" d="M59,38.77l-.7-.89c.18-.69.36-1.38.53-2.06a5.85,5.85,0,0,1,3.63,1.57c2.08,2,5.06,2.94,6.77,5.43A1.77,1.77,0,0,1,69,44.15a2.78,2.78,0,0,1-1.34.42C63.93,43.87,61.77,40.84,59,38.77Z"/><path class="cls-153" d="M62,30.9c.8,0,1.58.1,2,1,.62,1.93-.72,2.73-2,3.54-1.54.42-2.36-.46-3-1.65L58.77,32A2.7,2.7,0,0,1,62,30.9Z"/><path class="cls-154" d="M57.81,40.59,60.9,46c.42,1.54-.69,1.42-1.62,1.5-1.83-.51-2.61-1.95-3.16-3.59Z"/><path class="cls-155" d="M56.12,43.88l2.82,3c.73.58,1.59,1.06,1.68,2.14A2.19,2.19,0,0,1,59.8,51a2.51,2.51,0,0,1-2.57-1c-1.19-1.6-2.38-3.2-1.42-5.37A.7.7,0,0,1,56.12,43.88Z"/><path class="cls-156" d="M48.91,51l1.19-2,1.72-.05c1.67-.43,1.56.78,1.67,1.8a3.67,3.67,0,0,1-2.44,2.9,2.84,2.84,0,0,1-2.26-.46A1.77,1.77,0,0,1,48.91,51Z"/><path class="cls-157" d="M58.91,33.77l3,1.25c1.48,0,2.46.61,2.42,2.27-.53,1.16-1.31,1.48-2.4.68L58.8,35.82C58.84,35.14,58.87,34.45,58.91,33.77Z"/><path class="cls-158" d="M55.81,44.59l2.11,5.32a2,2,0,0,1-1.4,1.56,2.1,2.1,0,0,1-2-.67,3.27,3.27,0,0,1-.5-1.42,5.85,5.85,0,0,1,.87-3.63Z"/><path class="cls-159" d="M54.86,45.75,55,49.92c-.55.61-.91,1.6-2.05,1a1.93,1.93,0,0,0-1.08-2Z"/><path class="cls-160" d="M62,30.9,58.77,32c-.86-.94-.71-2.08-.67-3.2Z"/><path class="cls-161" d="M63.05,13.72l-3.14,1.15c-2.94-2.09-5.48.32-8.16.82-1.53.28-2.88,1.43-4.57,1.37,3.7-5,9.26-7.06,14.76-9.2l.76-.09C67.89,8.26,73.36,8,77,12.9l-.18.27a3.19,3.19,0,0,1-2.73.8,19.55,19.55,0,0,0-4.88-.5,5.22,5.22,0,0,1-1.31-.16,7.81,7.81,0,0,0-3.75-.2A4.3,4.3,0,0,0,63.05,13.72Z"/><path class="cls-162" d="M63.05,6c1.55.37,3.4-.81,4.69.92C66.05,8.42,64,8.36,61.9,8.23l0-.37A2.06,2.06,0,0,1,63.05,6Z"/><path class="cls-163" d="M96.8,23.15c-.37-2.26-2.66-2.83-3.86-4.36l12.7-1.8a2.76,2.76,0,0,1,0,1C103.41,20.88,98.85,19.85,96.8,23.15Z"/><path class="cls-164" d="M61.9,8.23l5.84-1.36a13.38,13.38,0,0,1,9.87,4.35c1,1,.88,1.63-.65,1.68C72.4,9.87,67,9.6,61.9,8.23Z"/><path class="cls-165" d="M73.85,13.18h2.92c1.21,1.25,3.29.21,4.42,1.67l-2.27,1c-2,1.39-3.42-.7-5.17-.8l-2-.95C72.22,13.23,73.24,13.68,73.85,13.18Z"/><path class="cls-166" d="M112.88,27.06c-.34,1.63-.68,3.26-1,4.9-1.32,1-1.7,3.12-3.85,3,1-2,3-3.51,3-6Z"/><path class="cls-167" d="M106.12,28l.27-.06.36,3.69c-.74,1.07.15,2.64-1.09,3.56-1.46-.15-1.26-1.5-1.72-2.37C104,30.89,103.83,28.88,106.12,28Z"/><path class="cls-168" d="M105.7,34.89l1-3.28c.2,1.12-.15,2.4,1,3.24-.29.67-.59,1.33-.89,2l-.45.08-.46,0A1.44,1.44,0,0,1,105.7,34.89Z"/><path class="cls-169" d="M96.8,23.15c-.15-2.63,1.39-3.72,3.73-4.14,1.72-.3,3.44-.68,5.16-1,0,2,.07,3.94.11,5.9-1.13,1.17-2.37,1.92-4,1.17l-.33,0h-.33a3.09,3.09,0,0,1-3.39,0C96.83,24.69,96.76,24,96.8,23.15Z"/><path class="cls-170" d="M106.12,28a6.35,6.35,0,0,0-1.29,4.85c-.35.48-.44,1.22-1.24,1.25-1.67-.69-1.76-1.88-.72-3.08,1.61-1.85-.66-2.66-.91-4a2.72,2.72,0,0,1,3.84-.08Z"/><path class="cls-171" d="M105.8,26.92,102,27l-.21-1.95,4-1.16Z"/><path class="cls-172" d="M51.94,78.65A4.8,4.8,0,0,0,48.71,80a1.55,1.55,0,0,1-1.87,1.26c-.61-.18-1.19-.45-1.79-.65-2.14-.11-4.15.19-5.7,1.87a2,2,0,0,1-.66,1c-1.37.74-2.71,1.51-4.07,2.25-8.12,3-12.76,9.06-14.71,17.34-1.95-1.19-1.23-3.87-2.92-5.2-1.56-1.58-1.36-3.43-.81-5.33a22.68,22.68,0,0,1,6.25-9.65C30.06,76.64,39.17,74.3,48.66,73a4.78,4.78,0,0,1,2.93.44C52.63,75.08,53.16,76.8,51.94,78.65Z"/><path class="cls-173" d="M19.91,103.06C18.09,94.69,28.3,85.6,35.09,84.84c1.24-1.47,3.46-1,4.73-2.35a11.65,11.65,0,0,1,3.11-1.3,10.18,10.18,0,0,1,4-.27l1.78-1c1.74,2.08,4,.28,6,.82l1.27.17,0,2.94c-8.71,1.34-17.61,1.94-25.59,6.3-1.74.95-3.58,1.75-4.33,3.8.73,2.6-1.51,4.06-2.3,6.08a16.47,16.47,0,0,1-2.57,3.83l-.6.63Z"/><path class="cls-174" d="M38,98.69l2,.23c.3,3-3.38,2.77-4,5l-1,.88c-1.07,1.62-1.29,3.6-2.24,5.27a6.1,6.1,0,0,0-.76,3.57c.06,1.14-.26,2.4.93,3.22H33c0,1.36,0,2.71-.07,4.07l-.49-.06-.5,0L29,118c-1.51-2.3-1.56-4.87-1.39-7.49a14.06,14.06,0,0,1,1-4.83C30.85,102.2,33,98.54,38,98.69Z"/><path class="cls-175" d="M11,85.86,15,92c1.91,2,1.58,4.43,1.14,6.84-.26.74.77,3-1.54,1.32L12,97.86c-.35-2-1-3.92-3-5l-2-6c0-.34,0-.68,0-1C8.32,84.67,9.64,85,11,85.86Z"/><path class="cls-176" d="M25.86,114.28c-2.22-2.75-4.9-5.32-3.74-9.41,2.36-1.17,3.67.12,4.72,2a9.82,9.82,0,0,1,.44,3.41C27.25,111.79,27.15,113.25,25.86,114.28Z"/><path class="cls-177" d="M26,106.91a5.4,5.4,0,0,0-3.89-2l-.25-1a3.93,3.93,0,0,1,1.94-3.76,6.36,6.36,0,0,1,3-.39,4.16,4.16,0,0,1,2.09.77c1.07,2.11-.47,3.71-1.09,5.49C27.37,106.64,26.87,107.13,26,106.91Z"/><path class="cls-178" d="M25.86,114.28l.22-4.42a1.8,1.8,0,0,1,2.68,0L29,118C27.73,117,26.29,116,25.86,114.28Z"/><path class="cls-179" d="M18,112.88l-2.07-2c-.27-.94-.05-1.38,1-1,.76.22,1.59,1,2.21-.23l2.54,3.79Z"/><path class="cls-180" d="M16.18,98.85,15,92l1.21-1.09c1,0,1.28.38.85,1.27,0,1.89-.07,3.78-.11,5.67Z"/><path class="cls-181" d="M23.9,100.83l-2,3.07h-.74a7.83,7.83,0,0,1,1.37-4.13,1.34,1.34,0,0,1,1.36-.18.79.79,0,0,1,.29.82C24.07,100.69,24,100.83,23.9,100.83Z"/><path class="cls-182" d="M17,109.88l-1,1-1,0-2.22-3.42A7.37,7.37,0,0,1,17,109.88Z"/><path class="cls-183" d="M143.88,113.86c-1,1-.18,3.4-2.41,3.51-.26,0-.56-1-.85-1.52.09-.49.15-1,.28-1.46.29-1.14-1.16-3,.77-3.36C143.41,110.71,143,113,143.88,113.86Z"/><path class="cls-184" d="M131.79,76c1.18-.26,2.07.41,3,1,.48,2.28-.6,3.11-2.75,3C131.94,78.61,131.87,77.3,131.79,76Z"/><path class="cls-185" d="M48.75,105l.06,6.83c-1.64-1-3.86-1.47-3.89-4Z"/><path class="cls-186" d="M32,109.83c.35-2.06,1.08-3.9,3-5-.27,1.49,3,2.14,1,4-1.55.46-1.72,2.23-2.9,3C31.16,112,31.34,111,32,109.83Z"/><path class="cls-187" d="M32,109.83A2.2,2.2,0,0,0,33,111.91v2l-.1,0a1.24,1.24,0,0,1-1.91,0C31.09,112.44,30.56,110.91,32,109.83Z"/><path class="cls-188" d="M31,113.83l1.91,0c0,1,0,2,0,3C29.41,117.61,31.61,114.86,31,113.83Z"/><path class="cls-189" d="M95.86,55.74c0-1-.18-2.09.82-2.81.79-.65,2,.24,2.7-.74a19.1,19.1,0,0,1,6.74-1.14l4.79-.16c-3.15,3.21-7.79,3-11.46,5a2.28,2.28,0,0,1-1.14.79A2.11,2.11,0,0,1,95.86,55.74Z"/><path class="cls-190" d="M96.62,50l1.53-2.18c1.28.42,3.11-.34,3.65,1.69a1.64,1.64,0,0,1-.86,1.15C99.43,50.88,97.71,52.46,96.62,50Z"/><path class="cls-191" d="M106.12,51.05c-2.18,1.57-4.71,1.93-7.3,2.08-.48-2.37,1.72-1.85,2.77-2.58,1.08-.28,2.07-1.37,3.31-.4Z"/><path class="cls-192" d="M104.9,50.15,102,51c-1.1.43-1.31-.11-1.15-1.06l.92-.52c1.32-.53,2.63-1.18,4.11-.5l-.06-.05Z"/><path class="cls-193" d="M105.91,49c0-1.89,1.3-2.12,3-2.64-.26,2.35-1.69,2.41-3,2.59Z"/><path class="cls-194" d="M47.05,93.94c-2.58,2.4-6.7,1.18-9.15,3.89a.78.78,0,0,1-1.14.13c-.59-1.16-1.17-2.23-2.66-2.62C32.21,94.86,31.9,93.59,33,92l1.94-1.09a4.19,4.19,0,0,0,2,.78C40.23,92.87,44,91.67,47.05,93.94Z"/><path class="cls-195" d="M33,92c-.26,1.59.25,2.44,2,2.5,2.23.07,2.57,1.45,2,3.3a1.24,1.24,0,0,1-1.07.52c-1-.14-2.08-.34-3.14-.43a5.35,5.35,0,0,1-4-2.12,1.72,1.72,0,0,1,.08-1.3c.68-1.1,1.82-1.21,2.94-1.39Z"/><path class="cls-196" d="M23.88,99.84l-1.38-.08L26,94l1.87-.17c1-.4,1.15.12,1,.94L29,95C27.83,97.17,26.46,99.14,23.88,99.84Z"/><path class="cls-197" d="M36,92.05c-.55-.2-1.12-.39-1.08-1.15l6.91-1.33c0,.39.08.77.11,1.15C40.33,92.81,38.18,92.52,36,92.05Z"/><path class="cls-198" d="M28.87,94.75l-1-.94c1-1.79,2.35-2,3.95-.74Z"/><path class="cls-199" d="M88.89,64.91c-2.08,2.92,2.8,3.48,2,6a6.49,6.49,0,0,1-4.24-.14,3.76,3.76,0,0,1-1.21-.84c-.65-2.07-2.3-3.89-1.49-6.31a4.17,4.17,0,0,1,3-.68C88,63.21,89.14,63.39,88.89,64.91Z"/><path class="cls-200" d="M85.91,69.9l1,0c.73,1.08,2.33.87,3,2,.3.62.61,1.24.91,1.85l-3,.18-3-.1a3.92,3.92,0,0,1-1.57-3A2.24,2.24,0,0,1,84,69.6,1.64,1.64,0,0,1,85.91,69.9Z"/><path class="cls-201" d="M89.93,71.94c-1.42-.06-2.94,0-3-2a7.19,7.19,0,0,1,4,1l2.14.26-.07.6Z"/><path class="cls-202" d="M88.89,64.91a2.07,2.07,0,0,0-2-1A1,1,0,0,1,87,62.55c2.16-1.11,4.06-.55,5.81.93a1.12,1.12,0,0,1,.07,1.43h-4Z"/><path class="cls-203" d="M35.93,97.84l1,0c.31,0,.61,0,.92,0,0,.28.06.57.07.86-3.26,1.77-6.49,3.57-8.16,7.15a1.89,1.89,0,0,1-2.82,0c.08-1.9,1.22-3.35,2.1-4.9C30.69,98.41,32.88,97.19,35.93,97.84Z"/><path class="cls-204" d="M36,92.05l5.94-1.33L43,91c1.87,1.11,4.69-.72,6.05,2a2.19,2.19,0,0,1-2,1C43.29,93.74,39.38,94.47,36,92.05Z"/><path class="cls-205" d="M49,92.93,43,91l8.89-1.29C52.69,92.31,50.67,92.45,49,92.93Z"/><path class="cls-206" d="M99.07,55.94l.38-.08,6.43.25c-1.14,1.5-7.4-.21-3,4.77-1.94,1.95-4.42,1.22-6.73,1.39A9.57,9.57,0,0,1,93.49,62c-2.5-.94-3-2.64-1.91-5C93.92,55.57,96.71,57.27,99.07,55.94Z"/><path class="cls-207" d="M95.9,61l7-.08,1,.12a1.37,1.37,0,0,1,0,2v0a2.81,2.81,0,0,1-2.41.77c-1.57-.5-2.86.49-4.28.82a2,2,0,0,1-1.83-.86A2.35,2.35,0,0,1,95.9,61Z"/><path class="cls-208" d="M103.93,63c0-.67,0-1.33,0-2l2.94-1c0,1.19-.06,2.37-.08,3.55C105.67,64.05,104.82,63.44,103.93,63Z"/><path class="cls-209" d="M51.94,78.65c.27-1.58-1.1-3.16,0-4.73.94-1.1,2.2-1.14,3.49-1.06a5.49,5.49,0,0,1,1.39.37c.72.37,1.8,1,1.65,1.55-1,3.52,2.16,1.77,3.18,2.67a.87.87,0,0,1,.4.74c0,.29-.06.44-.13.44Z"/><path class="cls-210" d="M61.92,78.63l0-.74c2.42-2.34,5.09-2.74,8-1l1,0-1,1.83Z"/><path class="cls-211" d="M95.9,61v3a.83.83,0,0,1,.3.74c0,.27-.1.41-.17.41a.91.91,0,0,1-1.16-.15l-2,0c0-.33,0-.67,0-1-1.14-1.48-.08-2.23,1-3Z"/><path class="cls-212" d="M94.88,64.94l1.05-.07c2-.47,4-1.85,6,.19-1.13,1.26-2.65.73-4,.87C96.79,65.87,95.61,66.09,94.88,64.94Z"/><path class="cls-213" d="M101.91,65.06l-6-.19c0-.31,0-.62,0-.93l2,0a4.71,4.71,0,0,1,3-1l3,0C104,64.36,103.07,64.83,101.91,65.06Z"/><path class="cls-214" d="M69.91,76.91c-2.77-.49-5.31.94-8,1-.48,0-1,0-1.43,0-1.52-.08-3.92.82-2.55-2.42.13-.33-.63-1-1-1.56,1.35-1.48,3.18-1.28,4.92-1.39,2.31,0,4.61,0,6.92.07a4.06,4.06,0,0,1,3.14,1.34C71.6,75.17,68.44,74.47,69.91,76.91Z"/><path class="cls-215" d="M79.91,73.88c0,.32,0,.65,0,1l-2,.07-4-1a1,1,0,0,1,.13-1.39,5,5,0,0,1,3.07-.76C78.36,72.06,80,71.87,79.91,73.88Z"/><path class="cls-216" d="M73.92,72.9v1l-2,0-3,0a1.68,1.68,0,0,1,0-2.29C71,70.56,72.72,70.64,73.92,72.9Z"/><path class="cls-217" d="M79.91,73.88c-.74-1.13-1.92-.93-3-1-1.38-1.19-4.25-1.52-2.58-4.48,3.5-.43,6.81-.15,9.54,2.43.34,1,.67,2,1,3Z"/><path class="cls-218" d="M94.89,43.94c-1.86,2.84-3.26,6-5.89,8.29a2.77,2.77,0,0,1-1.09-2A11.07,11.07,0,0,1,89,45.59c3-4.2.29-7.87-1.07-11.67a3.64,3.64,0,0,1,.8-3.07C94.34,32.39,96.27,36.51,94.89,43.94Z"/><path class="cls-219" d="M59,38.77,68,44c3.47,1.49,5.18,4.44,6.46,7.75a4.45,4.45,0,0,1,.12,2,4.13,4.13,0,0,1-1.74,2.8L71,58.18c-.61-6-3.48-10.71-7.93-14.65C61.52,42.15,59.73,40.87,59,38.77Z"/><path class="cls-220" d="M71,33.87l5.15,1.2c.26.74.52,1.47.79,2.21,1.48,2.5-.14,4.1-1.66,5.73-2.44.69-3.89-1.44-5.88-2.06-1.25-.73-2.65-1.32-3-3C66.79,35.35,68.49,34.19,71,33.87Z"/><path class="cls-221" d="M66.8,28A7,7,0,0,1,66,28a.55.55,0,0,1-.36-.54q0-.36.12-.36C71.15,26.6,76.64,27.72,82,26c2.71.23,5.42.72,8.14.05,2.19,1.14,6.3,1.3,2.73,5.37-2.32.21-4.2-1.56-6.5-1.43a17.06,17.06,0,0,0-5.51-.64C76.14,28.83,71.37,29.41,66.8,28Z"/><path class="cls-222" d="M74.9,43c-.08-2.15,2.54-3.36,2-5.68,4.21,3.86,5.19,8.43,3,13.7-.93-.62-1.15-1.68-1.6-2.59a6.44,6.44,0,0,0-2.26-2.75C75.3,44.91,74.33,44.27,74.9,43Z"/><path class="cls-223" d="M90,45.91l-1.1,4c-1.22,2.09-2.78,2.57-4.77,1,.33-2.64,1.29-5.26.29-7.95l5.38-.16A2.56,2.56,0,0,1,90,45.91Z"/><path class="cls-224" d="M83.86,70.83,73.94,69c-1.41,1.37-3.08,1.17-4.79.8a4,4,0,0,1-2.61-2A27,27,0,0,1,74.92,66a31.1,31.1,0,0,1,6,1A6.54,6.54,0,0,1,84,68.59a1.16,1.16,0,0,1,0,1.31C83.93,70.21,83.9,70.52,83.86,70.83Z"/><path class="cls-225" d="M93.88,60.92c-.33,1-.66,2-1,3-2-.3-3.87-1.35-6-1-1.47.71-2.31.43-2.16-1.39L91,57c.42-.45.72-.39.9.2C92,58.68,91.32,60.66,93.88,60.92Z"/><path class="cls-226" d="M78.92,47.92c1.17.74.92,1.95,1,3.06.23,1.52-.64,2.69-1.27,3.93-1.54,1-2.62,3.23-5,1.91A3.38,3.38,0,0,1,73.86,54l0-2c.14-.18.27-.35.39-.53C76,50.51,77.32,49,78.92,47.92Z"/><path class="cls-227" d="M86.9,29.07c2.31-.08,3.9,1.68,5.92,2.34l.64.61c1.52.22,1.45,1.75,2.15,2.64,1,1.79.81,3.7.66,5.62-.36,1.26-.19,2.72-1.38,3.66,0-5.25-1.18-9.95-6-13C87.27,31.34,86.75,30.56,86.9,29.07Z"/><path class="cls-228" d="M66.54,67.74c.89.19,1.84.26,2.39,1.16-.89,1-.24,2.66-1.41,3.58-2.31.82-4.41.1-6.47-.9-.87-.66-1.55-1.41-1.12-2.62C62,67.58,64.3,68,66.54,67.74Z"/><path class="cls-229" d="M88,53.19c-1.63,2.16-3.85,3.48-6.73,4.74.13-2.56,1.46-4.25,2.48-6C85.33,51.85,87.46,50,88,53.19Z"/><path class="cls-230" d="M84.74,61.52a2.13,2.13,0,0,0,2.16,1.39c0,.34,0,.67,0,1h-3c-1,1.68,1.79,3.37,0,5l-3-1.07c-.91-1-2.2-1.65-2.35-3.17Z"/><path class="cls-231" d="M63.91,49.94c3.08,3.41,2.42,7.15,1,11l-2.1.32a2.75,2.75,0,0,1-.58-2.08,23.2,23.2,0,0,0,.46-5.06,12.76,12.76,0,0,1,.16-2.22A3.05,3.05,0,0,1,63.91,49.94Z"/><path class="cls-232" d="M74.09,56.92l4.56-2a36,36,0,0,1-2.85,5C74.59,61.4,73.17,62,73,59.05,73.58,58.46,73.12,57.32,74.09,56.92Z"/><path class="cls-233" d="M60.83,62.73,58,65.17a6.66,6.66,0,0,1-3.28-2,2.61,2.61,0,0,1-.27-1.29c.33-1.29.53-2.66,2-3.21,1.2,0,2,.88,2.79,1.56C60,60.94,61.19,61.36,60.83,62.73Z"/><path class="cls-234" d="M78.56,64.72a3.34,3.34,0,0,1,2.35,3.17,9.91,9.91,0,0,1-6-1.92A5.74,5.74,0,0,1,78.56,64.72Z"/><path class="cls-235" d="M100.88,50,102,51c-.69,1.27-2.84.32-3.21,2.09-.82,1.08-1.41-.3-2.14-.2-.1-1-1.56-2-.06-3C98,51.55,99.46,49.55,100.88,50Z"/><path class="cls-236" d="M55,62c0,.32,0,.63,0,.94a2.89,2.89,0,0,1,0,4l-1.1.73c-1.27-1.74-.83-3.77-.94-5.7-.2-1,.35-1.28,1.15-1.39C54.81,60.69,55.42,61,55,62Z"/><path class="cls-237" d="M60.83,62.73l-1.91-1.81a1.78,1.78,0,0,1-.2-2.15,3.31,3.31,0,0,1,3.69-.4l.58.54c-.07.77-.13,1.54-.19,2.32C62.28,61.92,62,62.85,60.83,62.73Z"/><path class="cls-238" d="M47,69.92,53,68c.74,1.16,2,.65,3,.9.13,1.51-1,1.73-2.07,2.1C51.57,70.85,48.75,73.53,47,69.92Z"/><path class="cls-239" d="M103.59,34.08c.41-.42.82-.84,1.24-1.25l.87,2.06c.07.67.14,1.34.2,2L101,39.13C101.21,37.11,103.93,36.37,103.59,34.08Z"/><path class="cls-240" d="M54,70.05l2-1.11,4,0c.33.65.66,1.3,1,2a2.75,2.75,0,0,1-1.23.87,8.43,8.43,0,0,1-4.54,0C54.43,71.41,53.84,71,54,70.05Z"/><path class="cls-241" d="M90.09,26c-2.72.74-5.44,1.84-8.14-.05l5-.81C87.79,26.18,89,25.91,90.09,26Z"/><path class="cls-242" d="M54.94,66.85c0-1.32,0-2.64,0-4A3.15,3.15,0,0,1,58,65.17,4,4,0,0,1,54.94,66.85Z"/><path class="cls-243" d="M91.89,57.15A6.54,6.54,0,0,0,91,57c1.3-1.71,3.29-.65,4.87-1.21l3.21.2C96.9,57.66,94.25,56.53,91.89,57.15Z"/><path class="cls-244" d="M96.27,40.28l-1.13-5.41A1.53,1.53,0,0,1,96,33.78C97.71,35.87,97.23,38.07,96.27,40.28Z"/><path class="cls-227" d="M88,53.19c-1-1.74-2.76-1.12-4.25-1.3l.33-1a7.09,7.09,0,0,0,4.77-1c0,.78.08,1.56.13,2.34Z"/><path class="cls-41" d="M73.75,15l5.17.8,1.28,1-1.35.2C77,16.76,75.08,16.63,73.75,15Z"/><path class="cls-245" d="M96,33.78l-.84,1.09L93.46,32C95.32,31.14,95.52,32.64,96,33.78Z"/><path class="cls-171" d="M97.7,25.06h3.39c-.15,1.13-.48,2.53-1.62,2.51C98.87,27.57,98.29,26,97.7,25.06Z"/><path class="cls-246" d="M74.09,56.92,73,59.05c-.07-.83-.13-1.66-.19-2.49.17-.93-.26-2.12,1.08-2.57C73.94,55,74,55.94,74.09,56.92Z"/><path class="cls-247" d="M11,85.86l-4,0c-.32-1-.63-2-1-3,.77-.8,1.57-1.49,2.8-1Z"/><path class="cls-248" d="M8.85,81.89l-2.8,1,0-1c-.06-1.33.65-1.94,1.9-2Z"/><path class="cls-249" d="M132,125.71a2.36,2.36,0,0,0-1.19,2c-1.61-1-4.14-.49-4.91-2.93l.06-2.05c1.77,1.38,4.34.4,6,2.05q.39.28.27.6C132.16,125.6,132.07,125.71,132,125.71Z"/><path class="cls-250" d="M132.85,127.8c2.09-1.59,4.15-1.41,6.19.13C136.94,129.57,134.9,128.32,132.85,127.8Z"/><path class="cls-251" d="M132,125.71a4.75,4.75,0,0,1,0-.92c2.26.61,4.84-1,6.91,1Z"/><path class="cls-252" d="M33.07,54l-1.22,3.85c-.45,1.57-.12,3.46-1.85,4.51a2.78,2.78,0,0,1-3.3-1.11,1.94,1.94,0,0,1,.11-2.12l1-2.16,2-3.88C31.06,52.92,32.26,52.79,33.07,54Z"/><path class="cls-144" d="M22.08,63.9l-.06-3c1.18-1,2.21-2.37,4.09-1.84a4.4,4.4,0,0,1-.17,4,2.75,2.75,0,0,1-1.09.88Z"/><path class="cls-253" d="M25.24,63l.87-4a4.06,4.06,0,0,1,.7.09c.08.64.17,1.27.25,1.9.82,1.42,1.23,2.81-.32,4C25,65.28,25.75,63.69,25.24,63Z"/><path class="cls-254" d="M30.13,62c.57-1.38,1.14-2.75,1.72-4.13l1,1c-.63,1.33-.55,3-1.89,4C30.05,63.17,29.73,62.91,30.13,62Z"/><path class="cls-145" d="M13,66.93l0,1c1.59,5,1.95,10.46,5,15-.75,1.27,1,3.78-1.95,4a14.17,14.17,0,0,1-6-12L11.5,77C13,73.75,10.63,70,13,66.93Z"/><path class="cls-255" d="M16,86.89c2-.65-.16-3.35,1.95-4,.52,1.14,1.22,1.39,2,.3,1-1.37,2-2.8,3-4.2l2.77-.25c.14.17.27.34.41.5-.35,2.13-2.38,3-3.48,4.52L17.1,92.19l-.85-1.27Z"/><path class="cls-256" d="M25.24,63,26,65c2.28,2.24,1.2,5.77,3.11,8.15a9.2,9.2,0,0,1,.94.82L32,74a1.59,1.59,0,0,1,.49,1.36C31,77.78,29.28,79.76,26,78.93l-.21-.15C24.64,73.89,23.7,69,24.85,64,25,63.64,25.1,63.33,25.24,63Z"/><path class="cls-257" d="M65.77,27.07A4.79,4.79,0,0,1,66,28c-1.68,1.56-3.33-.53-5,0C62.32,26.11,64.18,27.35,65.77,27.07Z"/><path class="cls-258" d="M73.85,13.18l-2.09.9L68,13.89c-.28-.15-.38-.31-.3-.49s.16-.27.25-.27Z"/><path class="cls-259" d="M67.92,13.13c0,.25,0,.51,0,.76l-4.92-.17L63,13.34c1.47-1.65,3.27-.63,4.94-.62Z"/><path class="cls-260" d="M26,78.93c2.34-.77,4.53-1.78,6-3.86,2.48-1.81,5.44-2.23,8.32-2.89a35.24,35.24,0,0,1,4.95-1.27,3.33,3.33,0,0,1,.63,0c1.09.92,4.21-.18,3,3-3.32.71-6.66,1.36-10,2.15-6,1.42-11.18,4.44-16.25,7.74C23,81.64,25.24,80.78,26,78.93Z"/><path class="cls-261" d="M51.93,62.9c.14,2-.56,3.31-2.77,3-3-.48-6.13.19-9.17-.84-1.77-.6-4.64-.19-5.08-1.93s1-4,3-5.19a2.13,2.13,0,0,1,.69,1.64c0,.89.34,1.34,1.31,1a2.57,2.57,0,0,1,1.14,0,6.93,6.93,0,0,1,1.47,1A1.09,1.09,0,0,0,44,61.28a7.91,7.91,0,0,1,.79-.93,2.07,2.07,0,0,1,2.32-.53,5.61,5.61,0,0,1,1,1.61C48.91,63.2,50.83,62,51.93,62.9Z"/><path class="cls-262" d="M29.1,73.94c-.93,1.26-1.77.74-2-.39-.51-2.84-.78-5.73-1.14-8.59,1.15-1.1.59-2.66,1.07-3.94l3.06.95.85.87c.38,1.87-.81,3-2,4A12.87,12.87,0,0,1,29.1,73.94Z"/><path class="cls-263" d="M48.94,73.91c.19-2.2-2.34-1.69-3-3l1-1c2.29,2.53,4.69-1.15,7,.13l1,.87c1.08.74,2.15,1.49,1,3l-4,0Z"/><path class="cls-264" d="M48.91,51l.08,2a3.86,3.86,0,0,1-.79,2.47,3.72,3.72,0,0,1-1.65,1.19,2.89,2.89,0,0,1-2.66-.47c-.59-1.4.41-2.17,1.19-3Z"/><path class="cls-180" d="M40.87,72.65,32,75.07,32,74a14.26,14.26,0,0,1,7.71-2.24C40.61,71.34,41,71.69,40.87,72.65Z"/><path class="cls-265" d="M53.81,60.84l-.91,1c-.32,0-.64.07-1,.08a2.1,2.1,0,0,1-.69-1,4.16,4.16,0,0,1,0-1.27,9.55,9.55,0,0,1,1.28-3A3.85,3.85,0,0,1,54,55.43a3,3,0,0,1,1.36,0,1.82,1.82,0,0,1,1,.89C56.62,58.41,55,59.53,53.81,60.84Z"/><path class="cls-266" d="M37.93,59.92c0-.67,0-1.34,0-2A3.41,3.41,0,0,1,40,56a4.32,4.32,0,0,1,1.56,2,3.8,3.8,0,0,1,.13,1.92,2.13,2.13,0,0,1-.73,1H40C38.85,61.48,38.33,60.82,37.93,59.92Z"/><path class="cls-267" d="M41,57.91A1.89,1.89,0,0,1,40,56a14.72,14.72,0,0,1,5.1-2.91L44,55.93a3.33,3.33,0,0,1-.79,1A4.25,4.25,0,0,1,41,57.91Z"/><path class="cls-268" d="M51.92,60.91c0,.35,0,.7,0,1.05s0,.63,0,.94c-1.84.57-4,2.65-5-1A4.51,4.51,0,0,1,51.92,60.91Z"/><path class="cls-269" d="M29.1,73.94c-.05-2.36-.09-4.71-.14-7.07,2.16,2.08.61,4.72,1.08,7.06H29.1Z"/><path class="cls-270" d="M40.87,72.65l-1.2-.9a5.8,5.8,0,0,1,5.63-.84C44.24,72.54,42.27,71.88,40.87,72.65Z"/><path class="cls-271" d="M86.9,29.07l2,1.89v3c-1.36.58-2.17-.75-3.31-.93-4.54-2.3-9.53-2.8-14.46-3.51,1.77-2.13,4.11-.82,6.16-.9,1.59-.06,3.23.89,4.66-.53C83.68,28,85.41,27.91,86.9,29.07Z"/><path class="cls-272" d="M71,33.87C69.78,35.43,67.58,36,66.89,38c-1.46,1-2.29.2-3-1.06l-2-1.92L64,31.88A20.54,20.54,0,0,1,71,33.87Z"/><path class="cls-273" d="M81.94,28.1c.56,3.51-2.14,1.79-3.09,1.57-2.61-.6-5.12-1.24-7.73-.14-1.51-.34-3.26,0-4.32-1.58Z"/><path class="cls-227" d="M85.58,33l3.31.93c1.57,3.87,3.31,7.73,1.08,12-.07-1-.13-2.08-.2-3.12C89.73,39,87.71,36,85.58,33Z"/><path class="cls-274" d="M63.91,49.94v2c-1.32.71-2.44,0-3.57-.53l-.39-.5v-2A2.55,2.55,0,0,1,62,47.87Z"/><path class="cls-275" d="M62,47.87a2.09,2.09,0,0,1-2.05,1.05c-.34-.66-.67-1.32-1-2a2,2,0,0,0,2-1A2.12,2.12,0,0,1,62,47.87Z"/><path class="cls-276" d="M74.9,43l2,2c.32.88-.22,1.34-.83,1.78C72.38,49,70.89,45.92,69,43.92l-.06-1c-1-1.4-.35-2.27,1-2.91Z"/><path class="cls-277" d="M69.86,40c-.32,1-.65,1.94-1,2.91-2.55-1.35-5.19-2.56-7-5a2.13,2.13,0,0,0,2-1l3,1.06Z"/><path class="cls-278" d="M69,43.92c2.5.07,3.8,4.21,7,2-.25,2.12-1.32,4-2,6l0,.05-6-8Z"/><path class="cls-279" d="M63.84,54c-.11,1.67.66,3.49-.85,4.91h-.17c-1.11-1.38-3.2-1.09-4.3-2.49a6,6,0,0,1-1.42-2.21c-.31-1.07-.83-2.12-.13-3.23l1-1.08,2,1,0,0C60.92,52.36,62.79,52.65,63.84,54Z"/><path class="cls-280" d="M52.9,50.91l2.05-1c0,.34.07.67.1,1,.85,1.39.76,2.6-.66,3.57a3.43,3.43,0,0,1-3.19-.13A.93.93,0,0,1,51,53Z"/><path class="cls-281" d="M51,53c0,.32,0,.65-.05,1a2,2,0,0,1-1.24,1.5,1.79,1.79,0,0,1-1.85-.53l1.14-2Z"/><path class="cls-282" d="M54,53.94c1.13-.73.85-2,1.06-3L57,51c.32,1,.63,2,1,2.95a3.6,3.6,0,0,1-3.07,1.44C54.07,55.2,53.57,54.85,54,53.94Z"/><path class="cls-283" d="M67.93,12.72,63,13.34C64.39,11.18,66.15,11.82,67.93,12.72Z"/><path class="cls-284" d="M38.92,81.9c1.81-2.52,4.09-3.4,7-2-.86,1.38-2.47,1.23-3.72,1.84C41.14,81.9,40.09,82.94,38.92,81.9Z"/><path class="cls-285" d="M42,81.16,46,79.87l1,1c-1.06,1.19-2.52.9-3.87,1C42.07,82.53,42,82,42,81.16Z"/><path class="cls-286" d="M40.06,83a9.35,9.35,0,0,1-5,1.89c.53-1.68,1.82-2.11,3.41-2.06A1.05,1.05,0,0,1,40.06,83Z"/><path class="cls-287" d="M40.06,83l-1.56-.17c.14-.29.29-.58.42-.88L42,81.16l1,.8C42.32,83.08,41.17,82.94,40.06,83Z"/><path class="cls-288" d="M27,105.85h2.82c-.35,1.33-.7,2.66-1,4l-2.69,0c0-1,0-2-.07-3Z"/><path class="cls-289" d="M23.88,99.84C25.46,98.08,26.72,96,29,95A5.69,5.69,0,0,0,33,96.87c-.93,3-4.11,2.49-6,3.95h-3A3.29,3.29,0,0,0,23.88,99.84Z"/><path class="cls-290" d="M26.94,100.82c1.15-2.62,4.3-2.2,6-3.95,1.08,0,2.26-.2,3,1-2.71.1-4.31,2.61-6.84,3.11Z"/><path class="cls-291" d="M83.88,69c.32-1.68-2.17-3.37,0-5,1.34,1.77,2.42,3.63,2,6H84C83.93,69.59,83.9,69.27,83.88,69Z"/><path class="cls-292" d="M100.91,62.91c-.71,1.17-1.88,1-3,1C98.65,62.74,99.22,61.15,100.91,62.91Z"/><path class="cls-293" d="M55.92,73.89l-1-3h5c.83.88,2.76,1,2,3l-5,0Z"/><path class="cls-294" d="M61.92,73.9l-2-3h1l7,1a.66.66,0,0,1,1,0c0,.67,0,1.33,0,2Z"/><path class="cls-295" d="M68.92,71.91l-1,0c-.3-.88-1.87-1-1.48-2.19s1.61-.66,2.49-.8l5,0,3,3.93-3,0A8.23,8.23,0,0,0,68.92,71.91Z"/><path class="cls-296" d="M73.93,51.91c-.77-2.46.21-4.34,2-6l1-1a2.91,2.91,0,0,1,2.06,2.94C78.49,50.79,76.76,52.05,73.93,51.91Z"/><path class="cls-297" d="M63.84,54c-2.07,0-4.25.08-3.93-3a6.19,6.19,0,0,1,4,1Z"/><path class="cls-298" d="M54.88,54.93l3-1,1,2a2.19,2.19,0,0,1,0,3c0,.66,0,1.33,0,2a3.45,3.45,0,0,1-2-2c-1.05-.75,0-2.29-1.11-3l-1,0c-.26-.24-.34-.46-.23-.67S54.78,54.93,54.88,54.93Z"/><path class="cls-299" d="M55.81,55.91c1.34.64,1.06,1.88,1.11,3l-2,3-1.15-1.11C53.84,58.94,56.09,57.94,55.81,55.91Z"/><path class="cls-300" d="M58.94,58.92c0-1,0-2,0-3,1.2,1.13,3.89.31,3.89,3Z"/><path class="cls-301" d="M51.92,60.91a7.82,7.82,0,0,1-5,1l0-2c-.29-1,.27-1.27,1-1.44a5.27,5.27,0,0,1,4,1.4Z"/><path class="cls-302" d="M40.94,60.93v-1c.44-.45.65-1.11,1.31-1.33a3.75,3.75,0,0,1,2.94,1.19A.89.89,0,0,1,45,60.91c0,.33,0,.66,0,1a2.14,2.14,0,0,1-3,0Z"/><path class="cls-303" d="M45,60.91l0-1c-1.17-2,.15-2.77,1.73-3.4a1.79,1.79,0,0,1,1.45.3,1.68,1.68,0,0,1-.19,2.11l-1,1.05Z"/><path class="cls-304" d="M37.93,59.92l2,1c-.19.9-.32,2.07-1.65,1.46C37.17,61.88,36.66,61,37.93,59.92Z"/><path class="cls-305" d="M41.93,61.94l3,0c-.11.81-.18,1.69-1.22,1.83C42.36,63.91,42.09,63,41.93,61.94Z"/><path class="cls-306" d="M46.86,56.88a3.28,3.28,0,0,0-1.94,3l-2.91-1c-.54-1.3.38-2.07,1.07-2.92.31,0,.61,0,.92,0l2.84,0c.29.21.39.43.3.65S47,56.88,46.86,56.88Z"/><path class="cls-307" d="M46.86,56.88a4.59,4.59,0,0,0,0-1l1-1,2,0A1.17,1.17,0,0,1,50.23,56,2.67,2.67,0,0,1,49,57.27.94.94,0,0,1,48,57Z"/><path class="cls-308" d="M48,57l.91-.06c1.35.23,2.72-.85,4.06,0l-1,3c-1.39-.12-3,.47-4-1Z"/><path class="cls-309" d="M49.83,55.89c0-.32.05-.64.05-1l1.06-1H54l.89,1a5.18,5.18,0,0,1-.08,1l-.89,0C52.55,56.59,51.18,57,49.83,55.89Z"/><path class="cls-310" d="M49.83,55.89l4.08,0c-.32.33-.63.67-.94,1-1.36.46-2.73,1.83-4,0Z"/><path class="cls-311" d="M43.08,56c-.36,1-.71,1.95-1.07,2.92l-1.06,1v-2A3,3,0,0,1,43.08,56Z"/></g></g></g></svg>