<?xml version="1.0" encoding="utf-8"?>
<!-- Generator: Adobe Illustrator 26.0.3, SVG Export Plug-In . SVG Version: 6.00 Build 0)  -->
<svg version="1.1" id="图层_1" xmlns="http://www.w3.org/2000/svg" xmlns:xlink="http://www.w3.org/1999/xlink" x="0px" y="0px"
	 viewBox="0 0 200 200" style="enable-background:new 0 0 200 200;" xml:space="preserve">
<style type="text/css">
	.st0{fill:#231815;}
</style>
<path class="st0" d="M183.7,131.4C183.7,131.4,183.7,131.4,183.7,131.4c-6.5-18.8-12.8-34.1-18.6-45.3c-8.3-16-15.3-23.4-22.1-23.4
	h-34.8l-1.5-10.6c-0.1-0.9-0.5-1.7-1.2-2.3V37.4c0-1.4-1.2-2.6-2.6-2.6h-5.8c-1.4,0-2.6,1.2-2.6,2.6v12.4c-0.6,0.6-1,1.4-1.2,2.3
	l-1.5,10.6H57c-6.8,0-13.9,7.5-22.1,23.4c-5.8,11.2-12.1,26.5-18.6,45.3c-3.4,9.8-0.9,21,6.1,27.8l0.2,0.2c3.9,3.8,8.9,5.8,14,5.8
	c5,0,9.9-2,13.8-5.6L75.8,136c3.7-3.4,8.4-5.3,13.4-5.3h21.5c5,0,9.8,1.9,13.4,5.3l25.3,23.6c3.9,3.6,8.8,5.6,13.8,5.6
	c5.1,0,10.1-2.1,14-5.8l0.2-0.2C184.6,152.4,187.1,141.2,183.7,131.4z M99.9,55.6h0.1l1,7.1h-2.2L99.9,55.6z M172.7,154.1l-0.2,0.2
	c-2.6,2.5-5.8,3.9-9.1,3.9c-3.2,0-6.4-1.3-9-3.7L129,130.9c-5-4.6-11.4-7.2-18.2-7.2H89.2c-6.8,0-13.3,2.5-18.2,7.2l-25.3,23.6
	c-2.6,2.4-5.7,3.7-9,3.7c-3.3,0-6.6-1.4-9.2-3.9l-0.2-0.2c-5.1-4.9-6.9-13.1-4.4-20.4c16.4-47.2,28.6-64,34-64h86
	c5.5,0,17.7,16.8,34,64C179.6,141,177.8,149.2,172.7,154.1z"/>
<path class="st0" d="M79.2,89.1h-3.3c-1,0-1.8-0.8-1.8-1.8V84c0-3.1-2.5-5.6-5.6-5.6h-4.8c-3.1,0-5.6,2.5-5.6,5.6v3.3
	c0,1-0.8,1.8-1.8,1.8H53c-3.1,0-5.6,2.5-5.6,5.6v4.8c0,3.1,2.5,5.6,5.6,5.6h3.3c1,0,1.8,0.8,1.8,1.8v3.3c0,3.1,2.5,5.6,5.6,5.6h4.8
	c3.1,0,5.6-2.5,5.6-5.6v-3.3c0-1,0.8-1.8,1.8-1.8h3.3c3.1,0,5.6-2.5,5.6-5.6v-4.8C84.8,91.6,82.3,89.1,79.2,89.1z M70.3,106.9v3.3
	c0,1-0.8,1.8-1.8,1.8h-4.8c-1,0-1.8-0.8-1.8-1.8v-3.3c0-3.1-2.5-5.6-5.6-5.6H53c-1,0-1.8-0.8-1.8-1.8v-4.8c0-1,0.8-1.8,1.8-1.8h3.3
	c3.1,0,5.6-2.5,5.6-5.6V84c0-1,0.8-1.8,1.8-1.8h4.8c1,0,1.8,0.8,1.8,1.8v3.3c0,3.1,2.5,5.6,5.6,5.6h3.3c1,0,1.8,0.8,1.8,1.8v4.8
	c0,1-0.8,1.8-1.8,1.8h-3.3C72.8,101.3,70.3,103.8,70.3,106.9z"/>
<g>
	<path class="st0" d="M66.1,89.5c-4.2,0-7.6,3.4-7.6,7.6c0,4.2,3.4,7.6,7.6,7.6c4.2,0,7.6-3.4,7.6-7.6
		C73.7,92.9,70.3,89.5,66.1,89.5z M66.1,93.3c2.1,0,3.8,1.7,3.8,3.8s-1.7,3.8-3.8,3.8s-3.8-1.7-3.8-3.8S64,93.3,66.1,93.3z"/>
	<path class="st0" d="M131.6,97.3c-4.3,0-7.8,3.5-7.8,7.8c0,4.3,3.5,7.8,7.8,7.8c4.3,0,7.8-3.5,7.8-7.8
		C139.4,100.8,135.9,97.3,131.6,97.3z M131.6,109.2c-2.2,0-4-1.8-4-4c0-2.2,1.8-4,4-4c2.2,0,4,1.8,4,4
		C135.6,107.4,133.8,109.2,131.6,109.2z"/>
	<path class="st0" d="M144.8,81.3c-4.3,0-7.8,3.5-7.8,7.8s3.5,7.8,7.8,7.8c4.3,0,7.8-3.5,7.8-7.8S149.1,81.3,144.8,81.3z
		 M144.8,85.1c2.2,0,4,1.8,4,4c0,2.2-1.8,4-4,4c-2.2,0-4-1.8-4-4C140.8,86.9,142.6,85.1,144.8,85.1z"/>
	<path class="st0" d="M126.2,89.1c0-4.3-3.5-7.8-7.8-7.8c-4.3,0-7.8,3.5-7.8,7.8s3.5,7.8,7.8,7.8C122.7,96.9,126.2,93.4,126.2,89.1z
		 M118.4,93.1c-2.2,0-4-1.8-4-4c0-2.2,1.8-4,4-4c2.2,0,4,1.8,4,4C122.4,91.3,120.6,93.1,118.4,93.1z"/>
</g>
</svg>
