<svg xmlns="http://www.w3.org/2000/svg" viewBox="0 0 43.33 11.26"><g id="图层_2" data-name="图层 2"><g id="图层_1-2" data-name="图层 1"><path d="M4.29,5.58V4.13H8V7.55a4.74,4.74,0,0,1-1.58.93,5.66,5.66,0,0,1-2.09.4A4.78,4.78,0,0,1,2,8.32,3.64,3.64,0,0,1,.5,6.7,5.29,5.29,0,0,1,0,4.41,5,5,0,0,1,.56,2,3.81,3.81,0,0,1,2.21.43,4.39,4.39,0,0,1,4.27,0,4,4,0,0,1,6.76.67,3,3,0,0,1,7.92,2.53L6.2,2.85a1.82,1.82,0,0,0-.68-1,2,2,0,0,0-1.25-.37,2.36,2.36,0,0,0-1.81.72,3,3,0,0,0-.67,2.14,3.35,3.35,0,0,0,.68,2.3,2.25,2.25,0,0,0,1.78.76,3,3,0,0,0,1.09-.21,4,4,0,0,0,.94-.52V5.58Z"/><path d="M10.85,4.41,9.36,4.14a2.32,2.32,0,0,1,.86-1.33,3.17,3.17,0,0,1,1.83-.44,4,4,0,0,1,1.64.26,1.64,1.64,0,0,1,.76.67,3.28,3.28,0,0,1,.22,1.47l0,1.92a6.89,6.89,0,0,0,.08,1.21,3.72,3.72,0,0,0,.3.84H13.4c0-.11-.1-.28-.16-.49a1.07,1.07,0,0,0-.06-.19,2.87,2.87,0,0,1-.9.61,2.52,2.52,0,0,1-1,.21,2.17,2.17,0,0,1-1.52-.52A1.74,1.74,0,0,1,9.19,7a1.74,1.74,0,0,1,.25-.94,1.64,1.64,0,0,1,.71-.64,5.71,5.71,0,0,1,1.31-.38,9,9,0,0,0,1.59-.4V4.51a.86.86,0,0,0-.23-.68,1.44,1.44,0,0,0-.88-.2,1.13,1.13,0,0,0-.69.18A1.17,1.17,0,0,0,10.85,4.41Zm2.2,1.34c-.21.07-.54.15-1,.25a2.89,2.89,0,0,0-.89.29.67.67,0,0,0-.33.58.79.79,0,0,0,.26.59.9.9,0,0,0,.66.26,1.42,1.42,0,0,0,.85-.3A1,1,0,0,0,13,6.88a3.48,3.48,0,0,0,.06-.8Z"/><path d="M16.17,2.51h1.52v.85a2.44,2.44,0,0,1,1.94-1,2.16,2.16,0,0,1,1,.25,1.9,1.9,0,0,1,.72.74,2.85,2.85,0,0,1,.88-.74,2.26,2.26,0,0,1,1-.25,2.34,2.34,0,0,1,1.16.28,1.71,1.71,0,0,1,.7.82,3.37,3.37,0,0,1,.17,1.29v4H23.68V5.18A2.71,2.71,0,0,0,23.51,4a.79.79,0,0,0-.71-.35,1.14,1.14,0,0,0-.65.21,1.2,1.2,0,0,0-.44.62,4.48,4.48,0,0,0-.13,1.29v3H19.93V5.33a5.49,5.49,0,0,0-.08-1.18.76.76,0,0,0-.28-.39.9.9,0,0,0-.5-.13,1.16,1.16,0,0,0-.68.21,1.07,1.07,0,0,0-.44.59,4.36,4.36,0,0,0-.13,1.28v3H16.17Z"/><path d="M27,1.67V.15h1.65V1.67Zm0,7.07V2.51h1.65V8.74Z"/><path d="M36,8.74H34.31V5.56a4.94,4.94,0,0,0-.1-1.3.91.91,0,0,0-.35-.46.94.94,0,0,0-.57-.17,1.27,1.27,0,0,0-.76.24,1.12,1.12,0,0,0-.47.62,5.48,5.48,0,0,0-.13,1.43V8.74H30.29V2.51h1.53v.92a2.52,2.52,0,0,1,3-.86,1.76,1.76,0,0,1,.69.5,1.82,1.82,0,0,1,.32.69A5.23,5.23,0,0,1,36,4.87Z"/><path d="M37.48,9.15l1.88.23a.68.68,0,0,0,.21.45,1.33,1.33,0,0,0,.74.17,1.94,1.94,0,0,0,1-.19.89.89,0,0,0,.33-.42,2.54,2.54,0,0,0,.07-.75V7.73a2.23,2.23,0,0,1-1.86,1,2.31,2.31,0,0,1-2-1.06,3.65,3.65,0,0,1-.57-2.09A3.44,3.44,0,0,1,38,3.2a2.44,2.44,0,0,1,1.87-.83,2.28,2.28,0,0,1,1.91,1V2.51h1.54V8.1a5.57,5.57,0,0,1-.18,1.64,2,2,0,0,1-.51.86,2.25,2.25,0,0,1-.88.49,4.8,4.8,0,0,1-1.38.17,3.6,3.6,0,0,1-2.25-.54,1.7,1.7,0,0,1-.66-1.37A1.41,1.41,0,0,1,37.48,9.15ZM39,5.5A2.29,2.29,0,0,0,39.33,7a1.21,1.21,0,0,0,1,.46,1.31,1.31,0,0,0,1-.48,2.08,2.08,0,0,0,.41-1.39,2.15,2.15,0,0,0-.4-1.44,1.26,1.26,0,0,0-1-.47,1.24,1.24,0,0,0-1,.46A2.22,2.22,0,0,0,39,5.5Z"/></g></g></svg>