<?xml version="1.0" encoding="utf-8"?>
<!-- Generator: Adobe Illustrator 26.0.3, SVG Export Plug-In . SVG Version: 6.00 Build 0)  -->
<svg version="1.1" id="图层_1" xmlns="http://www.w3.org/2000/svg" xmlns:xlink="http://www.w3.org/1999/xlink" x="0px" y="0px"
	 viewBox="0 0 200 200" style="enable-background:new 0 0 200 200;" xml:space="preserve">
<path d="M80.4,128.9c-30.5,0-55.4-24.8-55.4-55.4V33.7c0-5.1,4.1-9.2,9.2-9.2h12.9c2.2,0,4,1.8,4,4s-1.8,4-4,4H34.2
	c-0.7,0-1.2,0.5-1.2,1.2v39.9c0,26.1,21.2,47.4,47.4,47.4c26.1,0,47.4-21.2,47.4-47.4V33.7c0-0.7-0.5-1.2-1.2-1.2h-14.6
	c-2.2,0-4-1.8-4-4s1.8-4,4-4h14.6c5.1,0,9.2,4.1,9.2,9.2v39.9C135.7,104.1,110.9,128.9,80.4,128.9z"/>
<path d="M119.6,182.2c-11.4,0-21.6-4.4-29.5-12.7c-9.8-10.4-14.8-26-13.8-42.9l8,0.5c-0.9,14.7,3.4,28.2,11.6,37
	c6.3,6.7,14.5,10.2,23.6,10.2c20.7,0,37.5-19.2,37.5-42.7h8C165.1,159.5,144.7,182.2,119.6,182.2z"/>
<path d="M161,137.4c-12.3,0-22.4-10-22.4-22.4s10-22.4,22.4-22.4s22.4,10,22.4,22.4S173.3,137.4,161,137.4z M161,100.6
	c-7.9,0-14.4,6.4-14.4,14.4s6.4,14.4,14.4,14.4s14.4-6.4,14.4-14.4S168.9,100.6,161,100.6z"/>
</svg>
