<svg xmlns="http://www.w3.org/2000/svg" viewBox="0 0 60.01 8.73"><g id="图层_2" data-name="图层 2"><g id="图层_1-2" data-name="图层 1"><path d="M0,8.59V0H1.73V3.38h3.4V0H6.87V8.59H5.13V4.83H1.73V8.59Z"/><path d="M12.25,6.61l1.64.27a2.66,2.66,0,0,1-1,1.38,2.94,2.94,0,0,1-1.7.47A2.78,2.78,0,0,1,8.78,7.67a3.56,3.56,0,0,1-.61-2.14A3.45,3.45,0,0,1,9,3.1a2.67,2.67,0,0,1,2-.87,2.75,2.75,0,0,1,2.19.91A4.05,4.05,0,0,1,14,6H9.86a1.67,1.67,0,0,0,.39,1.14,1.26,1.26,0,0,0,.95.41,1,1,0,0,0,.65-.21A1.29,1.29,0,0,0,12.25,6.61ZM12.35,5A1.66,1.66,0,0,0,12,3.86a1.2,1.2,0,0,0-1.75,0A1.57,1.57,0,0,0,9.88,5Z"/><path d="M16.55,4.27,15.06,4a2.33,2.33,0,0,1,.87-1.34,3.16,3.16,0,0,1,1.82-.43,3.8,3.8,0,0,1,1.64.26,1.57,1.57,0,0,1,.76.66,3.34,3.34,0,0,1,.22,1.47V6.54a7.05,7.05,0,0,0,.07,1.21,4.28,4.28,0,0,0,.3.84H19.1c0-.11-.09-.27-.16-.49a.7.7,0,0,0-.06-.19,3.09,3.09,0,0,1-.9.62,2.69,2.69,0,0,1-1,.2,2.13,2.13,0,0,1-1.52-.52,1.74,1.74,0,0,1-.55-1.32A1.76,1.76,0,0,1,15.14,6a1.56,1.56,0,0,1,.71-.63,5.32,5.32,0,0,1,1.31-.39,9.18,9.18,0,0,0,1.6-.4V4.37a.84.84,0,0,0-.24-.68,1.35,1.35,0,0,0-.88-.2,1.16,1.16,0,0,0-.69.17A1.2,1.2,0,0,0,16.55,4.27ZM18.76,5.6a9.16,9.16,0,0,1-1,.25,3.2,3.2,0,0,0-.89.29.67.67,0,0,0-.32.58.82.82,0,0,0,.25.6.89.89,0,0,0,.66.25,1.45,1.45,0,0,0,.85-.29,1,1,0,0,0,.39-.55,3.32,3.32,0,0,0,.07-.8Z"/><path d="M22,8.59V0h1.64V8.59Z"/><path d="M28.18,2.37V3.68H27.06V6.19a6.79,6.79,0,0,0,0,.89.33.33,0,0,0,.15.2.43.43,0,0,0,.28.09,2.33,2.33,0,0,0,.66-.16l.14,1.27a3.17,3.17,0,0,1-1.3.25,2.09,2.09,0,0,1-.81-.15,1.19,1.19,0,0,1-.52-.39,1.45,1.45,0,0,1-.23-.64,7.43,7.43,0,0,1-.05-1.16V3.68h-.76V2.37h.76V1.13l1.65-1v2.2Z"/><path d="M31,0V3.16a2.42,2.42,0,0,1,1.9-.93,2.46,2.46,0,0,1,1,.21,1.64,1.64,0,0,1,.68.54,1.94,1.94,0,0,1,.32.72A6.2,6.2,0,0,1,35,4.94V8.59H33.34V5.3a5.08,5.08,0,0,0-.09-1.24.92.92,0,0,0-.33-.42,1.11,1.11,0,0,0-.6-.15,1.29,1.29,0,0,0-.73.2,1.1,1.1,0,0,0-.47.6A3.51,3.51,0,0,0,31,5.47V8.59H29.32V0Z"/><path d="M42.08,4.21l-1.62.29a1.21,1.21,0,0,0-.37-.73,1.12,1.12,0,0,0-.76-.25,1.22,1.22,0,0,0-1,.43A2.18,2.18,0,0,0,38,5.37a2.48,2.48,0,0,0,.37,1.56,1.21,1.21,0,0,0,1,.46,1.07,1.07,0,0,0,.76-.27,1.65,1.65,0,0,0,.43-.91l1.61.27a2.86,2.86,0,0,1-1,1.68,3,3,0,0,1-1.92.57,2.88,2.88,0,0,1-2.18-.86,3.36,3.36,0,0,1-.81-2.39,3.34,3.34,0,0,1,.82-2.4,2.88,2.88,0,0,1,2.2-.85,3,3,0,0,1,1.81.49A2.63,2.63,0,0,1,42.08,4.21Z"/><path d="M44.56,4.27,43.07,4a2.27,2.27,0,0,1,.86-1.34,3.17,3.17,0,0,1,1.83-.43,3.82,3.82,0,0,1,1.64.26,1.62,1.62,0,0,1,.76.66,3.34,3.34,0,0,1,.22,1.47l0,1.92a6.81,6.81,0,0,0,.08,1.21,3.72,3.72,0,0,0,.3.84H47.11c0-.11-.1-.27-.16-.49l-.06-.19a3.09,3.09,0,0,1-.9.62,2.7,2.7,0,0,1-1,.2,2.1,2.1,0,0,1-1.51-.52,1.74,1.74,0,0,1-.55-1.32A1.76,1.76,0,0,1,43.15,6a1.58,1.58,0,0,1,.7-.63,5.46,5.46,0,0,1,1.31-.39,8.94,8.94,0,0,0,1.6-.4V4.37a.84.84,0,0,0-.23-.68,1.39,1.39,0,0,0-.89-.2,1.12,1.12,0,0,0-.68.17A1.14,1.14,0,0,0,44.56,4.27Zm2.2,1.33a8.32,8.32,0,0,1-1,.25,3.08,3.08,0,0,0-.89.29.69.69,0,0,0-.33.58.83.83,0,0,0,.26.6.89.89,0,0,0,.66.25,1.48,1.48,0,0,0,.85-.29,1,1,0,0,0,.39-.55,3.48,3.48,0,0,0,.06-.8Z"/><path d="M51.58,8.59H49.93V2.37h1.53v.88a2.53,2.53,0,0,1,.71-.82,1.25,1.25,0,0,1,.71-.2A2,2,0,0,1,54,2.54L53.46,4a1.47,1.47,0,0,0-.78-.27.94.94,0,0,0-.58.19,1.32,1.32,0,0,0-.38.69,9.88,9.88,0,0,0-.14,2.09Z"/><path d="M58.28,6.61l1.64.27a2.72,2.72,0,0,1-1,1.38,3,3,0,0,1-1.71.47,2.77,2.77,0,0,1-2.4-1.06,3.57,3.57,0,0,1-.62-2.14A3.45,3.45,0,0,1,55,3.1a2.68,2.68,0,0,1,2-.87,2.77,2.77,0,0,1,2.19.91A4.1,4.1,0,0,1,60,6H55.88a1.67,1.67,0,0,0,.4,1.14,1.25,1.25,0,0,0,.95.41,1,1,0,0,0,.65-.21A1.35,1.35,0,0,0,58.28,6.61ZM58.37,5A1.56,1.56,0,0,0,58,3.86a1.11,1.11,0,0,0-.85-.37,1.14,1.14,0,0,0-.89.39A1.52,1.52,0,0,0,55.91,5Z"/></g></g></svg>