<svg xmlns="http://www.w3.org/2000/svg" viewBox="0 0 450.31 123.24"><defs><style>.cls-1{fill:#012c53;}.cls-2{fill:#096dd9;}</style></defs><g id="图层_2" data-name="图层 2"><g id="图层_1-2" data-name="图层 1"><path class="cls-1" d="M44,38.87V89.65a33.37,33.37,0,0,1-33,33.59,11.17,11.17,0,0,1,.27-22.34H10.7a11,11,0,0,0,11-11.25V38.87A11.29,11.29,0,0,1,32.91,27.63,11.09,11.09,0,0,1,44,38.87ZM21.67,11.24A11.29,11.29,0,0,1,32.91,0,11.09,11.09,0,0,1,44,11.24a11.07,11.07,0,0,1-11.1,11.11A11.28,11.28,0,0,1,21.67,11.24Z"/><path class="cls-1" d="M57.56,11.92a11.11,11.11,0,1,1,22.21,0,11.11,11.11,0,0,1-22.21,0Z"/><path class="cls-1" d="M79.77,39V84.37a11.11,11.11,0,1,1-22.21,0V39a11.11,11.11,0,0,1,22.21,0Z"/><path class="cls-1" d="M161.16,61.73h0a.12.12,0,0,1-.13-.13V39.12h0a11.3,11.3,0,0,0-11.24-11.24A10.73,10.73,0,0,0,143.27,30a10.87,10.87,0,0,0-1.51,1.28c-5.42-3.23-14.45-3.36-14.45-3.36a34,34,0,0,0-16.82,4.42c-.27.1-.53.2-.79.32l-2.3,1.49A33.81,33.81,0,0,0,93.5,58.18l0,.3c0,.46-.08.93-.1,1.39s0,.74,0,1.1,0,.42,0,.63v.13h0v.14c0,.21,0,.42,0,.62,0,.37,0,.74,0,1.1s.06.94.1,1.4l0,.3a33.83,33.83,0,0,0,13.9,24.07l2.3,1.49a7.61,7.61,0,0,0,.79.31,33.87,33.87,0,0,0,16.82,4.43s9-.13,14.45-3.36a10.87,10.87,0,0,0,1.51,1.28,10.73,10.73,0,0,0,6.52,2.08A11.3,11.3,0,0,0,161,84.35h0V61.87a.13.13,0,0,1,.13-.14ZM127.31,72.84A11.36,11.36,0,0,1,116,63.21a13.9,13.9,0,0,1-.11-1.48,14.1,14.1,0,0,1,.11-1.48,11.36,11.36,0,0,1,11.27-9.62,11.15,11.15,0,0,1,11.1,11.1h0A11.15,11.15,0,0,1,127.31,72.84Z"/><path class="cls-1" d="M242.42,61.62V84.24a11.24,11.24,0,1,1-22.48,0V61.62a11.31,11.31,0,0,0-22.61,0V84.24a11.31,11.31,0,0,1-22.62,0V61.62a33.86,33.86,0,1,1,67.71,0Z"/><path class="cls-2" d="M369.05,61.76V84.37a11.31,11.31,0,0,1-22.62,0V61.76a11.38,11.38,0,1,0-22.75,0V84.37a11.18,11.18,0,0,1-11.24,11.11,11.3,11.3,0,0,1-11.37-11.11V61.76A11.22,11.22,0,0,0,290,50.38a11.45,11.45,0,0,0-11.38,11.38V84.37a11.18,11.18,0,0,1-11.24,11.11A11.3,11.3,0,0,1,256,84.37V61.76a34,34,0,0,1,34-34,33.2,33.2,0,0,1,22.48,8.67,33.56,33.56,0,0,1,22.62-8.67A34.1,34.1,0,0,1,369.05,61.76Z"/><path class="cls-2" d="M382.6,61.62V39a11.24,11.24,0,0,1,22.48,0V61.62a11.33,11.33,0,0,0,11.38,11.24A11.21,11.21,0,0,0,427.7,61.62V39a11.31,11.31,0,0,1,22.61,0V61.62a33.86,33.86,0,1,1-67.71,0Z"/></g></g></svg>