<svg xmlns="http://www.w3.org/2000/svg" viewBox="0 0 925.42 310.15"><defs><style>.cls-1{fill:#ef4e97;}.cls-2{fill:#3ebdaf;}.cls-3{fill:#353535;}.cls-4{fill:#019a8e;}.cls-5{fill:#010101;}.cls-6{fill:#ee4491;}.cls-7{fill:#33b9aa;}.cls-8{fill:#fefefe;}</style></defs><g id="图层_2" data-name="图层 2"><g id="图层_1-2" data-name="图层 1"><path class="cls-1" d="M.63,116.52q0-57.46,0-114.94c1.56-.87,3.26-.46,4.9-.46q110.09,0,220.18.08c1.53,0,4.19-1.75,4.81,1.6Q216.29,20.1,202,37.38q-43.25,52.12-86.52,104.23a2.29,2.29,0,0,1-1.58.44c-7.31-2.24-14.16-5.66-21.36-8.21-23.14-8.2-46.85-13.55-71.41-15-5.3-.32-10.58-1-15.9-.89C3.59,118,1.91,117.85.63,116.52Z"/><path class="cls-2" d="M141.44,156.61c37.38,23.86,65.79,55.21,81.31,97.31a158.63,158.63,0,0,1,9.55,48.66,3.31,3.31,0,0,0-.36,1.94c.69,4-1.28,4.58-4.8,4.57-37-.12-73.92-.07-110.89-.07H18.87c-2.14.21-3.26-.44-2.29-2.81a14.51,14.51,0,0,1,2.61-3.62q44.49-53.46,89.18-106.76C119.33,182.71,130,169.35,141.44,156.61Z"/><path class="cls-3" d="M.63,116.52a270.13,270.13,0,0,1,110.58,23.27c1.21.53,2.32,1.27,3.47,1.91.38,2.29-1.14,3.7-2.41,5.22q-44.4,53.24-88.79,106.5C17.21,261,11.11,268.64,4.62,276c-1.06,1.2-1.84,2.9-3.94,2.43C.61,271.6.49,264.77.49,258Q.54,187.24.63,116.52Z"/><path d="M527.06,197.29c-.64,1.38-1.11,2.24-1.44,3.15-1.1,3-.77,7.89-3.47,8.71-4.27,1.31-9.22.52-13.87.41-2.82-.07-1.66-2.46-1.67-3.83-.07-19-.05-38-.05-56.94,0-25.3.07-50.61-.09-75.91,0-3.49.84-4.64,4.37-4.38a92.18,92.18,0,0,0,13,0c3.4-.23,4.52.68,4.46,4.3-.25,16,.31,31.94-1.18,47.87a6.17,6.17,0,0,0,.2,1.48c1.79.06,1.92-1.59,2.66-2.51,15.85-19.66,50.59-15.62,61,7.86,9.27,20.9,9.2,42.6-.39,63.59-11.64,25.46-47.18,25.06-60.6,9A38,38,0,0,0,527.06,197.29Z"/><path class="cls-4" d="M.68,278.43C9.81,267.66,19,257,28.05,246.12q34.05-40.78,68-81.65c6.27-7.54,12.43-15.18,18.64-22.77.27,0,.55-.07.83-.09,8.66,5,17.74,9.21,25.93,15-3,7.21-9,12.19-13.77,18-16.47,20.16-33.25,40.07-50,60C63.2,252,48.51,269.07,34.17,286.48c-6,7.28-12.58,14.11-17.8,22a1.44,1.44,0,0,1-.92.88c-4.88.07-11,2.12-14.22-.84C-1,306.46.52,300.16.5,295.74.49,290,.61,284.2.68,278.43Z"/><path d="M369.49,156.36c11.67-16.34,25.71-29.59,38.58-43.88,2.18-2.42,4.36-3.61,7.7-3.48,6.43.27,12.87.08,20.43.08-7,7.53-13.32,14.26-19.6,21C410.7,136.4,405,142.9,398.84,149c-2.66,2.63-2.31,4.25-.26,6.94,12.69,16.63,25.21,33.39,37.8,50.11.67.9,1.62,1.64,1.57,3.4-7.42,0-14.84-.09-22.25.05-2.28,0-3.15-1.36-4.22-2.85-9.14-12.65-18.34-25.26-27.42-38-1.71-2.39-2.59-2.91-5.52-.94-6.92,4.64-9.82,10.32-8.77,18.73.78,6.23,0,12.64.23,19,.13,3.38-1.07,4.27-4.27,4.07a117.09,117.09,0,0,0-13,0c-3.07.16-4.31-.48-4.3-4q.19-66.67,0-133.37c0-2.68.47-3.9,3.49-3.75a139.87,139.87,0,0,0,14.48,0c3-.15,3.57,1,3.52,3.73-.54,27.44,1,54.92-1.18,82.34C368.76,154.71,369,155,369.49,156.36Z"/><path d="M905.63,195c-6,7.73-12.81,13.09-22,15.08-9.47,2.06-18.81,2.29-27.85-1.6-11.26-4.84-16.22-14.14-15.77-28.95.39-12.8,6.7-21.35,19.42-26,12.57-4.61,25.73-5,38.87-4.79,4.95.09,6.45-1,6.13-6.19-.74-12.19-6.21-17.81-18.31-18.14-8.9-.24-17,2.43-24.86,6.13-3.17,1.5-4.39.64-5.3-2.27a34.25,34.25,0,0,0-1.64-3.61c-3.82-8.5-3.85-8.61,4.85-11.65,13.85-4.84,28-6.85,42.53-3.42,15.82,3.72,23,14.27,23.38,29.26.59,22.31.14,44.65.25,67,0,2.73-.6,3.65-3.53,3.69-11.5.15-11.5.26-15-10.63C906.47,197.84,906.17,196.79,905.63,195Z"/><path d="M679.92,195.22c-5.82,7.38-12.4,13-21.53,14.8-12.63,2.55-25,2.84-35.3-6.31-16.26-14.46-9.86-42.59,11.21-50.28,12.57-4.59,25.73-4.92,38.87-4.71,4.65.07,5.59-1.34,5.61-5.76.06-18-12.47-20.12-27.15-17.87a56.45,56.45,0,0,0-15.91,5.44c-2.66,1.3-4.29,1-5.18-1.9a16,16,0,0,0-.68-1.86c-4.77-10.73-4.85-11,6.26-14.57,15-4.82,30.16-6.6,45.35-1,11.58,4.28,17.51,13.31,17.78,25.16.54,23.14.14,46.3.26,69.45,0,2.8-.74,3.61-3.59,3.65-11.32.16-11.31.27-14.55-10.56C681.05,197.85,680.56,196.83,679.92,195.22Z"/><path d="M730.35,158.83c0-15.32.08-30.64-.08-46,0-3,.71-4.35,3.82-3.8a9.38,9.38,0,0,0,1.5,0c11.08,0,11.07,0,13.8,10.65.19.76.41,1.83,1,2.13,1.15.61,1.6-.67,2.23-1.35a42,42,0,0,1,49.14-9.36c11.63,5.5,16,15.78,16.28,27.55.61,22.46.26,45,.43,67.43,0,2.63-.74,3.45-3.36,3.34-5-.19-10-.27-15,0-3.33.2-3.76-1.17-3.75-4,.1-20.65.19-41.3-.07-62-.09-7.18-2.15-13.77-9.55-17.21-13.62-6.34-29.83,1.12-33.51,15.52-1.71,6.66-1.9,13.47-1.91,20.29,0,14.32-.13,28.64.09,43,.05,3.61-1,4.64-4.48,4.3-5.41-.54-12.69,2.31-15.75-1.12-2.68-3-.78-10.14-.8-15.45C730.32,181.48,730.35,170.15,730.35,158.83Z"/><path d="M475.74,159.58c0,15.14-.09,30.29.08,45.43,0,3.38-.71,4.75-4.34,4.48a128.76,128.76,0,0,0-13.47,0c-2.46.08-3.52-.5-3.51-3.27q.13-46.68,0-93.37c0-2.68.83-3.41,3.39-3.31,4.82.18,9.66.24,14.48,0,3-.16,3.46,1,3.44,3.66C475.68,128.62,475.74,144.1,475.74,159.58Z"/><path class="cls-5" d="M465.49,70.65c7.63,0,11.92,4.18,11.93,11.51,0,7.71-4.34,12.17-11.9,12.19-7.22,0-12-4.6-12-11.63C453.45,75.12,457.94,70.61,465.49,70.65Z"/><path class="cls-6" d="M230.54,2.8c-1.69-2.07-4-1.17-6.07-1.17Q112.56,1.56.65,1.58C1.8-.31,3.65.64,5.13.64Q116.42.56,227.7.72C228.42.72,232.66-1.88,230.54,2.8Z"/><path class="cls-7" d="M15.45,309.39l.93-.88q103.67,0,207.34.13c4.79,0,8.36-.26,8.58-6.06.4,7,.4,7-6.46,7H21.44C19.44,309.57,17.45,309.45,15.45,309.39Z"/><path class="cls-8" d="M527.68,158.64c.21-6.82.49-13.61,2.79-20.11,3-8.45,10-13.38,19.18-13.91,9.7-.56,17.4,2.65,21.56,11.78,4.67,10.27,4.9,21.21,3.73,32.21a44,44,0,0,1-2.65,11.58c-3.77,9.63-10.6,14.3-20.56,14.08-11.64-.26-17.78-4.56-21.3-15a36.08,36.08,0,0,1-1.81-7.19C528.12,167.6,528,163.11,527.68,158.64Z"/><path class="cls-8" d="M895.15,161.62c8.67-.17,8.42-.17,8.53,8.84.24,19.06-15.69,26.52-30.79,23.75-6.41-1.18-9.85-4.86-10.52-10.33-1-7.92,1.79-14.22,7.66-17.5C875.46,163.35,883.33,161.86,895.15,161.62Z"/><path class="cls-8" d="M668.54,161.64c9.87-.2,9.82-.2,9.82,8.52,0,22.1-20,27.63-33.53,23.31-9.43-3-11.12-17.35-3.19-24.9,4.08-3.89,9.3-5.12,14.52-5.83C660.57,162.14,665,161.07,668.54,161.64Z"/></g></g></svg>