<svg xmlns="http://www.w3.org/2000/svg" viewBox="0 0 79.66 23.28"><g id="图层_2" data-name="图层 2"><g id="图层_1-2" data-name="图层 1"><path d="M17.31,8.74V.15h2.6L21.47,6,23,.15h2.6V8.74H24V2L22.29,8.74H20.62L18.92,2V8.74Z"/><path d="M30.92,6.76,32.56,7a2.71,2.71,0,0,1-1,1.38,2.94,2.94,0,0,1-1.7.47,2.81,2.81,0,0,1-2.41-1.06,3.57,3.57,0,0,1-.61-2.15,3.42,3.42,0,0,1,.81-2.42,2.68,2.68,0,0,1,2-.88,2.75,2.75,0,0,1,2.19.92,4.05,4.05,0,0,1,.77,2.81H28.53a1.67,1.67,0,0,0,.39,1.14,1.28,1.28,0,0,0,.95.41,1,1,0,0,0,.65-.21A1.33,1.33,0,0,0,30.92,6.76ZM31,5.09A1.68,1.68,0,0,0,30.65,4a1.17,1.17,0,0,0-.86-.37,1.13,1.13,0,0,0-.89.4,1.49,1.49,0,0,0-.34,1.06Z"/><path d="M39.7,8.74H38.17V7.82a2.44,2.44,0,0,1-.9.8,2.32,2.32,0,0,1-1,.26A2.36,2.36,0,0,1,34.39,8a3.5,3.5,0,0,1-.77-2.41,3.45,3.45,0,0,1,.75-2.4,2.41,2.41,0,0,1,1.88-.83,2.31,2.31,0,0,1,1.8.87V.15H39.7ZM35.31,5.49a2.91,2.91,0,0,0,.27,1.44,1.26,1.26,0,0,0,1.11.65,1.19,1.19,0,0,0,1-.49,2.19,2.19,0,0,0,.4-1.44,2.45,2.45,0,0,0-.39-1.55,1.27,1.27,0,0,0-2,0A2.11,2.11,0,0,0,35.31,5.49Z"/><path d="M41.32,1.67V.15H43V1.67Zm0,7.07V2.51H43V8.74Z"/><path d="M45.89,4.41l-1.5-.27a2.33,2.33,0,0,1,.87-1.33,3.17,3.17,0,0,1,1.83-.44,4,4,0,0,1,1.64.26,1.69,1.69,0,0,1,.76.67,3.44,3.44,0,0,1,.22,1.47l0,1.92a6.89,6.89,0,0,0,.08,1.21,3.29,3.29,0,0,0,.3.84H48.44a4,4,0,0,1-.16-.49l-.06-.19a2.87,2.87,0,0,1-.9.61,2.53,2.53,0,0,1-1,.21,2.14,2.14,0,0,1-1.51-.52,1.83,1.83,0,0,1-.3-2.26,1.61,1.61,0,0,1,.7-.64,5.87,5.87,0,0,1,1.31-.38,9.18,9.18,0,0,0,1.6-.4V4.51a.9.9,0,0,0-.23-.68,1.45,1.45,0,0,0-.89-.2,1.12,1.12,0,0,0-.68.18A1.11,1.11,0,0,0,45.89,4.41Zm2.2,1.34c-.21.07-.54.15-1,.25a2.88,2.88,0,0,0-.9.29.69.69,0,0,0-.32.58.79.79,0,0,0,.26.59.89.89,0,0,0,.65.26,1.4,1.4,0,0,0,.85-.3,1.06,1.06,0,0,0,.4-.54,3.48,3.48,0,0,0,.06-.8Z"/><path d="M62.28,7.69,61.28,9a5.84,5.84,0,0,1-1.41-1,3.36,3.36,0,0,1-1.1.7,4.16,4.16,0,0,1-1.4.22A3.07,3.07,0,0,1,55,8a2.34,2.34,0,0,1-.63-1.61,2.44,2.44,0,0,1,.49-1.48,4,4,0,0,1,1.47-1.15,5,5,0,0,1-.66-1,2.12,2.12,0,0,1-.22-.9A1.7,1.7,0,0,1,56,.54,2.65,2.65,0,0,1,57.81,0a2.5,2.5,0,0,1,1.74.57A1.8,1.8,0,0,1,60.18,2a1.78,1.78,0,0,1-.31,1A4.39,4.39,0,0,1,58.61,4l1.2,1.57a4,4,0,0,0,.36-1L61.66,5a9.18,9.18,0,0,1-.39,1.15,2.33,2.33,0,0,1-.35.61,5.85,5.85,0,0,0,.71.57A5.71,5.71,0,0,0,62.28,7.69ZM57.15,4.8a2.33,2.33,0,0,0-.85.7,1.4,1.4,0,0,0-.28.82,1.12,1.12,0,0,0,.35.87,1.25,1.25,0,0,0,.93.34,1.93,1.93,0,0,0,.75-.15,3.41,3.41,0,0,0,.78-.51ZM57.79,3l.45-.34a1,1,0,0,0,.49-.76.71.71,0,0,0-.24-.54.87.87,0,0,0-.64-.22.9.9,0,0,0-.61.2.59.59,0,0,0-.23.45,1.27,1.27,0,0,0,.38.74Z"/><path d="M0,23.14V14.55H6.37V16H1.73v1.9H6.05v1.45H1.73v2.34h4.8v1.45Z"/><path d="M13.65,23.14H12V20a4.79,4.79,0,0,0-.11-1.3.89.89,0,0,0-.34-.46A1,1,0,0,0,11,18a1.3,1.3,0,0,0-.77.24,1.17,1.17,0,0,0-.47.62,5.62,5.62,0,0,0-.12,1.43v2.82H8V16.91H9.51v.92a2.48,2.48,0,0,1,2.05-1.06,2.51,2.51,0,0,1,1,.2,1.72,1.72,0,0,1,.68.5,1.82,1.82,0,0,1,.32.69,5.23,5.23,0,0,1,.09,1.11Z"/><path d="M18.18,16.91v1.32H17.05v2.5a6.67,6.67,0,0,0,0,.89.35.35,0,0,0,.15.21.51.51,0,0,0,.28.08,2,2,0,0,0,.66-.16L18.31,23a3.35,3.35,0,0,1-1.3.25,2,2,0,0,1-.8-.15,1.17,1.17,0,0,1-.53-.39,1.5,1.5,0,0,1-.23-.64,9,9,0,0,1,0-1.16V18.23h-.76V16.91h.76V15.68l1.65-1v2.19Z"/><path d="M22.92,21.16l1.64.27a2.71,2.71,0,0,1-1,1.38,2.94,2.94,0,0,1-1.7.47,2.81,2.81,0,0,1-2.41-1.06,3.57,3.57,0,0,1-.61-2.15,3.42,3.42,0,0,1,.81-2.42,2.64,2.64,0,0,1,2-.88,2.75,2.75,0,0,1,2.19.92,4.05,4.05,0,0,1,.77,2.81H20.53a1.67,1.67,0,0,0,.39,1.14,1.26,1.26,0,0,0,.95.41,1,1,0,0,0,.65-.21A1.33,1.33,0,0,0,22.92,21.16Zm.1-1.67a1.68,1.68,0,0,0-.37-1.09,1.17,1.17,0,0,0-.86-.37,1.12,1.12,0,0,0-.89.4,1.54,1.54,0,0,0-.35,1.06Z"/><path d="M27.57,23.14H25.92V16.91h1.53v.89a2.59,2.59,0,0,1,.71-.83,1.31,1.31,0,0,1,.71-.2,2.14,2.14,0,0,1,1.08.31l-.51,1.44a1.41,1.41,0,0,0-.77-.27.91.91,0,0,0-.59.19,1.31,1.31,0,0,0-.37.69,9.17,9.17,0,0,0-.14,2.08Z"/><path d="M33.52,16.91v1.32H32.39v2.5a6.67,6.67,0,0,0,0,.89.35.35,0,0,0,.15.21.51.51,0,0,0,.28.08,2,2,0,0,0,.66-.16L33.65,23a3.35,3.35,0,0,1-1.3.25,2,2,0,0,1-.8-.15,1.17,1.17,0,0,1-.53-.39,1.5,1.5,0,0,1-.23-.64,9,9,0,0,1-.05-1.16V18.23H30V16.91h.76V15.68l1.65-1v2.19Z"/><path d="M35.89,18.81l-1.5-.27a2.33,2.33,0,0,1,.87-1.33,3.17,3.17,0,0,1,1.83-.44,4,4,0,0,1,1.64.26,1.69,1.69,0,0,1,.76.67,3.28,3.28,0,0,1,.22,1.47l0,1.92a6.89,6.89,0,0,0,.08,1.21,3.29,3.29,0,0,0,.3.84H38.44a4,4,0,0,1-.16-.49l-.06-.19a2.87,2.87,0,0,1-.9.61,2.53,2.53,0,0,1-1,.21,2.14,2.14,0,0,1-1.51-.52,1.83,1.83,0,0,1-.3-2.26,1.61,1.61,0,0,1,.7-.64,6,6,0,0,1,1.31-.38,9.18,9.18,0,0,0,1.6-.4v-.17a.9.9,0,0,0-.23-.68A1.45,1.45,0,0,0,37,18a1,1,0,0,0-1.08.78Zm2.2,1.34c-.21.07-.54.15-1,.25a2.88,2.88,0,0,0-.9.29.69.69,0,0,0-.32.58.79.79,0,0,0,.26.59.9.9,0,0,0,.66.26,1.37,1.37,0,0,0,.84-.3,1.06,1.06,0,0,0,.4-.54,3.48,3.48,0,0,0,.06-.8Z"/><path d="M41.33,16.07V14.55H43v1.52Zm0,7.07V16.91H43v6.23Z"/><path d="M50.33,23.14H48.68V20a4.79,4.79,0,0,0-.11-1.3.89.89,0,0,0-.34-.46,1,1,0,0,0-.57-.17,1.32,1.32,0,0,0-.77.24,1.15,1.15,0,0,0-.46.62,5.07,5.07,0,0,0-.13,1.43v2.82H44.65V16.91h1.53v.92a2.54,2.54,0,0,1,3-.86,1.65,1.65,0,0,1,.68.5,1.84,1.84,0,0,1,.33.69,5.23,5.23,0,0,1,.09,1.11Z"/><path d="M51.87,16.91h1.52v.85a2.44,2.44,0,0,1,1.94-1,2.05,2.05,0,0,1,1,.25,1.9,1.9,0,0,1,.72.74A2.85,2.85,0,0,1,58,17a2.14,2.14,0,0,1,1-.25,2.34,2.34,0,0,1,1.16.28,1.79,1.79,0,0,1,.71.82A3.58,3.58,0,0,1,61,19.16v4H59.38V19.58a2.71,2.71,0,0,0-.17-1.2.79.79,0,0,0-.7-.35,1.12,1.12,0,0,0-.65.21,1.14,1.14,0,0,0-.44.62,4.41,4.41,0,0,0-.14,1.29v3H55.63V19.73a4.88,4.88,0,0,0-.08-1.18.76.76,0,0,0-.28-.39.9.9,0,0,0-.5-.13,1.16,1.16,0,0,0-.68.21,1.07,1.07,0,0,0-.44.59,4.36,4.36,0,0,0-.13,1.28v3H51.87Z"/><path d="M66.27,21.16l1.64.27a2.71,2.71,0,0,1-1,1.38,3,3,0,0,1-1.71.47,2.8,2.8,0,0,1-2.4-1.06,3.57,3.57,0,0,1-.61-2.15,3.46,3.46,0,0,1,.8-2.42A2.65,2.65,0,0,1,65,16.77a2.77,2.77,0,0,1,2.19.92A4.05,4.05,0,0,1,68,20.5H63.87a1.67,1.67,0,0,0,.4,1.14,1.26,1.26,0,0,0,1,.41,1,1,0,0,0,.65-.21A1.33,1.33,0,0,0,66.27,21.16Zm.09-1.67A1.57,1.57,0,0,0,66,18.4a1.15,1.15,0,0,0-.85-.37,1.12,1.12,0,0,0-.89.4,1.49,1.49,0,0,0-.35,1.06Z"/><path d="M75,23.14H73.35V20a4.94,4.94,0,0,0-.1-1.3,1,1,0,0,0-.34-.46,1,1,0,0,0-.58-.17,1.27,1.27,0,0,0-.76.24,1.12,1.12,0,0,0-.47.62A5.48,5.48,0,0,0,71,20.32v2.82H69.33V16.91h1.53v.92a2.52,2.52,0,0,1,3-.86,1.69,1.69,0,0,1,.69.5,1.82,1.82,0,0,1,.32.69A5.23,5.23,0,0,1,75,19.27Z"/><path d="M79.52,16.91v1.32H78.4v2.5a6.67,6.67,0,0,0,0,.89.35.35,0,0,0,.15.21.49.49,0,0,0,.28.08,2,2,0,0,0,.66-.16L79.66,23a3.35,3.35,0,0,1-1.3.25,2.09,2.09,0,0,1-.81-.15,1.19,1.19,0,0,1-.52-.39,1.5,1.5,0,0,1-.23-.64,7.43,7.43,0,0,1,0-1.16V18.23H76V16.91h.76V15.68l1.65-1v2.19Z"/></g></g></svg>