<?xml version="1.0" encoding="utf-8"?>
<!-- Generator: Adobe Illustrator 26.0.3, SVG Export Plug-In . SVG Version: 6.00 Build 0)  -->
<svg version="1.1" id="图层_1" xmlns="http://www.w3.org/2000/svg" xmlns:xlink="http://www.w3.org/1999/xlink" x="0px" y="0px"
	 viewBox="0 0 200 200" style="enable-background:new 0 0 200 200;" xml:space="preserve">
<path d="M110.5,101.4l-15.3-8.9c-1.6-1-3.8-1-5.4,0c-1.7,1-2.8,2.8-2.8,4.7v17.7c0,1.9,1,3.8,2.7,4.8c0.9,0.5,1.8,0.7,2.7,0.7
	c0.9,0,1.7-0.2,2.8-0.7l15.3-8.9c1.7-1,2.8-2.8,2.8-4.7C113.2,104,112.2,102.2,110.5,101.4z M94,112V99.9l10.6,6.1L94,112z"/>
<g>
	<path d="M159.8,174.6H40.5c-8.8,0-16-7.2-16-16V39.3c0-8.8,7.2-16,16-16h119.3c8.8,0,16,7.2,16,16v119.3
		C175.8,167.4,168.6,174.6,159.8,174.6z M40.5,31.3c-4.4,0-8,3.6-8,8v119.3c0,4.4,3.6,8,8,8h119.3c4.4,0,8-3.6,8-8V39.3
		c0-4.4-3.6-8-8-8H40.5z"/>
	<path d="M171.8,61.7H28.5c-2.2,0-4-1.8-4-4s1.8-4,4-4h143.3c2.2,0,4,1.8,4,4S174,61.7,171.8,61.7z"/>
	<g>
		<path d="M138,61.7c-1,0-1.9-0.3-2.7-1c-1.6-1.5-1.7-4-0.3-5.7l26.4-29c1.5-1.6,4-1.7,5.7-0.3c1.6,1.5,1.7,4,0.3,5.7l-26.4,29
			C140.2,61.3,139.1,61.7,138,61.7z"/>
		<path d="M116.8,61.7c-1,0-1.9-0.3-2.7-1c-1.6-1.5-1.7-4-0.3-5.7l26.4-29c1.5-1.6,4-1.7,5.7-0.3c1.6,1.5,1.7,4,0.3,5.7l-26.4,29
			C118.9,61.3,117.8,61.7,116.8,61.7z"/>
		<path d="M95.5,61.7c-1,0-1.9-0.3-2.7-1c-1.6-1.5-1.7-4-0.3-5.7l26.4-29c1.5-1.6,4-1.7,5.7-0.3c1.6,1.5,1.7,4,0.3,5.7l-26.4,29
			C97.7,61.3,96.6,61.7,95.5,61.7z"/>
		<path d="M74.3,61.7c-1,0-1.9-0.3-2.7-1c-1.6-1.5-1.7-4-0.3-5.7l26.4-29c1.5-1.6,4-1.7,5.7-0.3c1.6,1.5,1.7,4,0.3,5.7l-26.4,29
			C76.5,61.3,75.4,61.7,74.3,61.7z"/>
		<path d="M53,61.7c-1,0-1.9-0.3-2.7-1c-1.6-1.5-1.7-4-0.3-5.7l26.4-29c1.5-1.6,4-1.7,5.7-0.3c1.6,1.5,1.7,4,0.3,5.7L56,60.4
			C55.2,61.3,54.1,61.7,53,61.7z"/>
		<path d="M31.8,61.7c-1,0-1.9-0.3-2.7-1c-1.6-1.5-1.7-4-0.3-5.7l26.4-29c1.5-1.6,4-1.7,5.7-0.3c1.6,1.5,1.7,4,0.3,5.7l-26.4,29
			C34,61.3,32.9,61.7,31.8,61.7z"/>
	</g>
</g>
</svg>
