<svg xmlns="http://www.w3.org/2000/svg" viewBox="0 0 2400.84 361.77"><defs><style>.cls-1{fill:#c62c48;}.cls-2{fill:#f0c9d0;}.cls-3{fill:#f0cad0;}.cls-4{fill:#d45d73;}.cls-5{fill:#d46075;}.cls-6{fill:#e1919f;}.cls-7{fill:#e398a5;}.cls-8{fill:#f1ccd2;}.cls-9{fill:#fefefe;}</style></defs><g id="图层_2" data-name="图层 2"><g id="图层_1-2" data-name="图层 1"><path class="cls-1" d="M2083.81,360.93c-48.13-2.81-95.11-11-139.66-30.21-30.62-13.19-58.14-30.88-79.8-56.71-47.26-56.34-44.95-137.66,5.33-191.28,26.25-28,58.78-45.9,94.47-58.61,37.09-13.2,75.51-19.82,114.72-22.22,7.3-.45,14.61-.74,21.92-1.11,9.27-.63,18.55-.1,27.82-.28a401,401,0,0,1,136.8,21.77C2296.09,32.77,2324.52,47.47,2349,69c25.29,22.27,42.87,49.35,49.72,82.77,1.48,7.2,1.67,14.5,1.62,21.82V189c.16,34.92-13.55,64.31-36.26,90-26.24,29.63-59.81,47.76-96.52,60.82-31.89,11.33-64.85,17.71-98.46,20.78a174.73,174.73,0,0,1-22.43.7h-11.73c-3.35.29-6.76-.61-10.06.51h-19c-3.3-1.13-6.7-.22-10-.51H2089C2087.24,361.13,2085.49,361.56,2083.81,360.93Z"/><path class="cls-2" d="M0,36a2.17,2.17,0,0,1,.84,0c2.48,2.44,1.76,5.6,1.77,8.51q.09,45.69,0,91.4,0,104.9,0,209.79c0,3.1.65,6.38-1.58,9.13l-1,0Z"/><path class="cls-3" d="M2129.86,0a4.1,4.1,0,0,0,0,.86L2100.79.79a4.15,4.15,0,0,1,.07-.79Z"/><path class="cls-2" d="M2400.84,189.88l-.41.09-.41,0,0-17.12a1,1,0,0,1,.79.07Z"/><path class="cls-4" d="M2095.73,360.94c3.39.15,6.89-1.18,10.13.83h-10c-.28-.14-.39-.31-.34-.51S2095.65,360.94,2095.73,360.94Z"/><path class="cls-5" d="M2124.86,361.77c3.21-2,6.72-.63,10.09-.88.26.23.33.43.22.62s-.22.26-.32.26Z"/><path class="cls-6" d="M2095.73,360.94c.05.28.09.56.13.83h-7c-.31-.17-.42-.36-.34-.56s.18-.31.28-.31Z"/><path class="cls-7" d="M2134.85,361.77a6.59,6.59,0,0,1,.1-.88l7,0c.3.22.39.42.28.62s-.22.28-.33.28Z"/><path class="cls-2" d="M2088.8,360.9a4.25,4.25,0,0,1,.06.87h-5a5.92,5.92,0,0,0-.05-.84Z"/><path class="cls-8" d="M2141.85,361.77a3.41,3.41,0,0,1,.05-.9l5,0a4.18,4.18,0,0,0-.05.86Z"/><path class="cls-1" d="M1,354.76Q1,198.58,1,42.41C1,40.25.9,38.09.84,35.93,3.55,20.24,16.83,8.47,33.41,7A46.11,46.11,0,0,1,59.86,12.5q134,72,268.13,143.91c6.4,3.43,11.91,3.38,18.29,0Q481,84,615.77,11.83c18.21-9.75,41.28-5,52.11,10.44A30.1,30.1,0,0,1,673.52,40q0,155.13.07,310.27c0,3.7-.9,4.75-4.7,4.74q-62.73-.22-125.47,0c-4,0-4.54-1.29-4.53-4.81.11-47.46-.33-94.93.35-142.38.17-12.18-11.48-18.12-21.25-13-31.35,16.47-62.92,32.53-94.4,48.75C401.42,255,379.39,266.75,357,277.78c-16.23,8-32.87,7.73-48.94-.84q-63.15-33.69-126.16-67.68c-8.49-4.56-17-9.16-25.52-13.61-11.45-6-21.26,0-21.26,12.85q0,70.69,0,141.39c0,3,.29,5.18-4.18,5.16-42.66-.19-85.32-.11-128-.12C2.36,354.93,1.7,354.82,1,354.76Z"/><path class="cls-1" d="M1583.73,167.4c0,50.8-.3,101.6.16,152.4.17,19.12-14.44,32.68-31.65,35a45.07,45.07,0,0,1-25.69-4.26q-175.4-81.76-350.82-163.43a31,31,0,0,0-3.7-1.47c-9.18-2.89-17.45,2.9-17.51,12.48-.12,17.16,0,34.31,0,51.47,0,33.48-.06,67,.09,100.43,0,3.88-1,5-5,5q-63-.22-126,0c-3.54,0-4.79-.6-4.79-4.54q.2-154.91.13-309.8c0-17.52,14.19-32,32.6-33.63a46.24,46.24,0,0,1,24.27,4.21Q1250.4,93,1425,174.6c2.72,1.27,5.4,2.48,8.54,2.48,8.3,0,13.49-4.91,13.49-13.18q0-75.7-.09-151.41c0-4.51,1.06-5.79,5.69-5.77q63,.29,126,0c4.18,0,5.2,1.14,5.19,5.26Q1583.61,89.7,1583.73,167.4Z"/><path class="cls-1" d="M779,181.35q0-84.69-.1-169.36c0-4,.82-5.28,5.1-5.26q62.47.27,125,0c4,0,5,1,5,5q-.17,169.37,0,338.71c0,4.08-.94,5.31-5.18,5.29q-62.48-.25-125,0c-4.07,0-4.87-1.22-4.86-5Q779,266,779,181.35Z"/><path class="cls-1" d="M1689,181.41c0-56.27.08-112.53-.12-168.79,0-5,1.42-6,6.09-5.9,17.15.29,34.31.24,51.46,0,3.81,0,4.66,1,4.65,4.73q-.15,169.79,0,339.58c0,3.83-1.1,4.69-4.77,4.65q-26.23-.29-52.46,0c-4,0-5-1.14-4.94-5Q1689.14,266.05,1689,181.41Z"/><path class="cls-9" d="M2108.17,315.24c-37.3-.23-80.43-5.22-121.66-21.33-24.15-9.43-46.29-22.18-63.53-42-40.15-46.12-34.83-113.32,11.76-152.9,25.63-21.77,55.69-34.44,88-41.64,68.82-15.35,137.45-14.62,205.29,5.73,27,8.11,51.75,20.85,72.64,40.39a106.28,106.28,0,0,1-2.13,157.67c-25.7,22.87-56.39,35.42-89.22,43.55C2178.28,312.42,2146.68,315.25,2108.17,315.24Z"/></g></g></svg>