<?xml version="1.0" encoding="utf-8"?>
<!-- Generator: Adobe Illustrator 25.2.1, SVG Export Plug-In . SVG Version: 6.00 Build 0)  -->
<svg version="1.1" id="图层_1" xmlns="http://www.w3.org/2000/svg" xmlns:xlink="http://www.w3.org/1999/xlink" x="0px" y="0px"
	 viewBox="0 0 3000 1455" style="enable-background:new 0 0 3000 1455;" xml:space="preserve">
<style type="text/css">
	.st0{fill:#FEFEFE;}
	.st1{fill:#009FE7;}
	.st2{fill:#009FE8;}
	.st3{fill:#81A9D2;}
	.st4{fill:#40A1D9;}
	.st5{fill:#99CDEB;}
	.st6{fill:#99CCEA;}
	.st7{fill:#9BD9F5;}
	.st8{fill:#42B8EE;}
	.st9{fill:#3EB6EE;}
	.st10{fill:#7FCEF3;}
	.st11{fill:#0052A4;}
	.st12{fill:#0061B1;}
	.st13{fill:#0152A5;}
	.st14{fill:#009AE3;}
	.st15{fill:#0067B5;}
	.st16{fill:#008AD4;}
	.st17{fill:#0083CE;}
	.st18{fill:#006BB9;}
	.st19{fill:#0096E0;}
	.st20{fill:#0090DA;}
	.st21{fill:#006FBC;}
	.st22{fill:#0074C1;}
	.st23{fill:#007DC9;}
	.st24{fill:#006CB9;}
	.st25{fill:#0079C4;}
	.st26{fill:#0074C0;}
	.st27{fill:#0081CC;}
	.st28{fill:#0093DD;}
	.st29{fill:#0079C5;}
	.st30{fill:#007EC9;}
	.st31{fill:#9ABADB;}
	.st32{fill:#B7CEE4;}
	.st33{fill:#0097E0;}
	.st34{fill:#0087D1;}
	.st35{fill:#008FD9;}
	.st36{fill:#008BD6;}
	.st37{fill:#FDFEFE;}
	.st38{fill:#0076C2;}
	.st39{fill:#006EBC;}
	.st40{fill:#0066B5;}
	.st41{fill:#008BD5;}
	.st42{fill:#0094DD;}
	.st43{fill:#0060AF;}
	.st44{fill:#0090D9;}
	.st45{fill:#0098E1;}
	.st46{fill:#006CBA;}
	.st47{fill:#007AC5;}
	.st48{fill:#0096DF;}
	.st49{fill:#008DD7;}
	.st50{fill:#0088D2;}
	.st51{fill:#008CD7;}
	.st52{fill:#0068B6;}
	.st53{fill:#007DC8;}
	.st54{fill:#0082CD;}
	.st55{fill:#0085CF;}
	.st56{fill:#0084CF;}
	.st57{fill:#007AC6;}
	.st58{fill:#0097E1;}
	.st59{fill:#0089D3;}
	.st60{fill:#0073C0;}
	.st61{fill:#0072BF;}
	.st62{fill:#0091DB;}
	.st63{fill:#006AB8;}
	.st64{fill:#0094DE;}
</style>
<g>
	<path class="st0" d="M2969.9,956c0,92.6,0,185.3,0.1,277.9c0,3.3-0.6,4.1-4.1,4.1c-976.6-0.1-1953.3-0.1-2929.9,0
		c-3.6,0-4-0.9-4-4.2c0.1-159.6,0.1-319.2,0.1-478.8c0.6-0.3,1.1-0.2,1.5,0.4c1.4,5.6,1.3,11.4,1.9,17.1c0.2,1.8,0,3.6,0.6,5.4
		c2.2,22.1,5.6,44,10.8,65.6c4.9,22.5,12,44.3,20,65.9c9.6,25.3,21.3,49.6,34.9,73c14.6,25.1,31.1,48.8,49.8,70.9
		c14.2,17.4,29.7,33.5,46.3,48.6c6.9,6.3,13.9,12.3,20.9,18.3c24.4,19.9,50.2,37.6,77.7,52.9c5.2,2.9,10.6,5.5,16,8.1
		c47.9,24.5,98.5,40.5,151.5,48.8c25,3.9,50.2,5.6,75.6,5.7c36.5,0.2,72.5-3.4,108-11c35.8-7.7,70.4-19,103.7-34.2
		c6.5-3,12.6-6.8,19.2-9.5c11.9-4.9,22.8-11.7,33.8-18.3c20.9-12.8,40.9-26.9,59.9-42.5c4.7-3.9,9.3-8,14-12
		c10.7-10.1,21.8-19.8,31.8-30.7c7.6-8.3,14.3-17.4,22.2-25.4c15.8-18.6,30.3-38.3,42.5-59.5c0.8-1.4,1.6-2.9,2.6-4.2
		c12.1-19.5,22.6-39.8,31-61.2c0.9-2.3,1.7-4.7,3-6.8c9.2-21.4,16.7-43.4,21.7-66.2c0.6-2.6,1.2-5.2,2.2-7.7
		c5.9-23.3,9.6-47,11.9-70.9c0.7-2.2,0.8-4.4,0.6-6.7c0-2.1,0-4.1,0.3-6.2c0.4-16.1,2-32.1,1-48.3c-1.1-17.4-1.8-34.9-4.2-52.2
		c-1.4-15.6-4.6-30.9-8.1-46.2c-4.6-20.3-10.3-40.3-17.5-59.8c-9.5-28-22.4-54.4-36.9-80c-10.7-18.5-22-36.6-35.6-53.2
		c-1.3-1.5-2.4-3.2-3.5-4.9c-7.9-11.3-17.2-21.6-26.4-31.8c-10.5-11.7-21.8-22.8-33.4-33.4c-31.4-28.2-65.3-52.9-102.8-72.5
		c-4.9-2.5-9.9-4.7-14.6-7.5c-24.6-12.1-49.9-22.2-76.1-30.1c-28.4-8.7-57.3-14.8-86.8-18.5c-8.3-1-16.6-1.6-24.8-2.5
		c-1.6-0.2-3.3,0-4.8-1c-0.5-0.4-0.6-0.9-0.3-1.4c130,0,260,0,390,0c-0.4,2.7-2.8,2.4-4.5,2.9c-21.4,6.5-35.4,20.4-40.1,42.4
		c-7.1,33.4,16,61.3,44.9,66.2c34,5.8,62.7-20.9,64.6-50.1c1.8-26.9-14.6-50.6-39.9-58.1c-2.1-0.6-5.2-0.1-6-3.3
		c661,0,1322,0,1983-0.1c3.8,0,5,0.4,5,4.7c-0.1,240.1-0.1,480.2-0.1,720.2c-0.5,0.4-1,0.8-1.6,1c-8.9,1.2-17.9,0.3-26.9,0.5
		c-5,0.1-10,0.1-15-0.1c-3.8-0.1-5.9-1.9-5.9-5.8c-0.2-9.2-0.2-18.3,0-27.5c0.1-4.3,2.6-5.7,6.5-5.8c8.8-0.1,17.7,0.1,26.5-0.1
		c2.1,0,4.5,0.3,5.5-2.4c1.3-3.6-0.3-6.2-4.3-6.3c-8.5-0.2-17,0-25.5-0.1c-7.6-0.1-8.6-1.1-8.7-8.7c-0.1-5.8-0.1-11.7,0-17.5
		c0.1-6.7,1.3-7.9,7.9-8c10.7-0.1,21.3,0,32-0.1c2.1,0,4.5,0.5,5.6-2.1c1.5-3.4-0.2-6.5-4-6.6c-15.7-0.2-31.3-0.1-47-0.1
		c-4.1,0-4.4,2.7-4.4,5.7c0,11.8,0,23.6,0,35.5c0,16.8,0,33.6,0,50.5c0,2.3-0.3,4.7,0.9,6.8c1.7,2,3.9,1.5,6,1.5
		c15.3,0,30.6,0,45.8,0C2965.5,954.6,2967.9,954.2,2969.9,956z"/>
	<path class="st0" d="M32.1,701c0-159.2,0-318.4-0.1-477.7c0-3.6,0.7-4.3,4.3-4.3c158.2,0.1,316.5,0.1,474.7,0.1
		c-0.6,2.8-2.9,2.2-4.7,2.3c-27.4,2.1-54.6,6-81.4,12.4c-38.9,9.3-76.2,22.7-111.9,40.8c-32.6,16.1-62.9,35.9-91,58.8
		c-7.6,6.2-15.3,12.3-22.2,19.2c-22,19.2-41.3,40.9-59.2,63.9c-15.2,18.8-28.2,39.1-40.4,60c-1.4,2.4-3,4.8-4.2,7.4
		c-12.2,21.8-22.4,44.5-31,67.9c-8.3,21.9-14.6,44.3-19.6,67.1c-5.9,26.4-9.3,53.2-11.2,80.2c-0.1,0.6-0.4,1.1-0.7,1.6
		C33.2,701.2,32.7,701.3,32.1,701z"/>
	<path class="st1" d="M311.9,274c18.7-10.3,38.4-18.3,58.4-25.4c44.6-16,90.5-25.5,137.7-28.5c1.1-0.1,2.4,0.4,3.1-1
		c0.7,0,1.3,0,2,0c2,1.1,4.1,0.3,6.1,0.5c2.3-0.3,4.7,0.6,6.9-0.5c10.3,0,20.7,0,31,0c2.4,1.1,5,0.2,7.4,0.5
		c2.9,0.2,5.8-0.4,8.6,0.4c67.2,4.2,130.9,21.1,191.4,50.5c0.9,0.4,1.7,1,2.5,1.6c0,3.4-2.8,3.2-4.9,3.4c-3.9,0.3-7.8,0.1-11.8,0.1
		c-2,0-3.9-0.1-5.7,1c-1.8,0.4-3.3-0.3-4.8-1c-33.9-14.7-68.8-26-105.2-32.8c-19.2-3.6-38.5-5.9-57.9-7.4
		c-20.8-1.6-41.6-1.6-62.3-0.6c-39.5,1.8-78.4,8.7-116.3,20.3c-19,5.8-37.6,12.5-55.7,20.7c-2.1,1-4.3,1.9-6.7,2
		c-5.5-0.5-10.9,0.1-16.4-0.2C316.6,277.4,313.4,277.4,311.9,274z"/>
	<path class="st2" d="M982,219.1c5.6,2.4,11.6,3.4,17,6.3c23.6,12.5,35.7,40.1,28.4,65.6c-7.4,26-32.2,43.7-58.2,41.6
		c-27.9-2.3-49.7-22.6-53.1-49.7c-3.6-29,15.2-55.8,43.9-62.7c1-0.2,2.4,0.4,3-1.2C969.4,219.1,975.7,219.1,982,219.1z"/>
	<path class="st3" d="M2969.9,956c-18.6,0-37.3,0-55.9,0c-1.7,0-3.7,0.9-5-1c2.1-1.8,4.7-1.5,7.1-1.5c14.4,0,28.8,0,43.2,0
		c6.9,0,6.9,0,8.4-6.9c0.2-0.8,0.5-1.6,1.1-2.2c0.4-0.1,0.8-0.2,1.2-0.3C2969.9,948,2969.9,952,2969.9,956z"/>
	<path class="st4" d="M32.1,743c0-10,0-20,0-30c0.7-0.3,1.2-0.1,1.6,0.5c1.5,9.7,1.5,19.3,0,29C33.3,743.1,32.8,743.3,32.1,743z"/>
	<path class="st5" d="M32.9,712.9c-0.3,0-0.6,0-0.8,0.1c0-4,0-8,0-12c0.3,0,0.6-0.1,0.9-0.1C35.4,704.9,35.5,708.9,32.9,712.9z"/>
	<path class="st6" d="M32.1,743c0.3,0.1,0.5,0.2,0.8,0.1c2.6,4,2.5,7.9,0,11.9c-0.3,0-0.6,0-0.9-0.1C32.1,751,32.1,747,32.1,743z"/>
	<path class="st7" d="M573.1,220c-3,0-6,0-8.9,0c-0.4-0.1-0.6-0.3-0.5-0.5c0.1-0.2,0.2-0.3,0.3-0.3c3,0,6,0,9,0
		C573,219.4,573.1,219.7,573.1,220z"/>
	<path class="st8" d="M564.1,219.1c0,0.3,0.1,0.6,0.1,0.9c-2.4-0.1-4.9,1-7.1-0.9C559.4,219.1,561.7,219.1,564.1,219.1z"/>
	<path class="st9" d="M526.1,219.1c-2.2,1.9-4.7,0.7-7.1,0.9c-0.3-0.2-0.3-0.4-0.2-0.6c0.1-0.2,0.2-0.3,0.3-0.3
		C521.4,219.1,523.7,219.1,526.1,219.1z"/>
	<path class="st10" d="M519.1,219.1c0,0.3,0,0.6-0.1,0.9c-2-0.2-4.2,0.9-5.9-0.9C515.1,219.1,517.1,219.1,519.1,219.1z"/>
	<path class="st11" d="M1932.1,498.9c30.7,0,61.3,0,92,0c10.6,0,14,3.4,14,14c0,1.8,0.1,3.7,0,5.5c-0.3,6-4.4,10.2-10.5,10.5
		c-1.5,0.1-3,0-4.5,0.1c-6.8,0.4-11.3,4.7-11.3,11.5c-0.1,32.6-0.1,65.3,0,97.9c0,7.3,4.7,11.7,11.9,11.9
		c11.3,0.2,14.4,3.3,14.4,14.8c0,1.3,0,2.7,0,4c-0.2,7-4.3,11.1-11.2,11.2c-11.5,0.3-15.1,3.9-15.1,15.4c0,27.8,0,55.6,0,83.5
		c0,9.7-4.2,14-14,14c-1.2,0-2.3,0-3.5,0c-8.1-0.1-12.5-4.5-12.5-12.7c0-28.5,0-57,0-85.5c0-10.5-4-14.6-14.4-14.6
		c-23.2,0-46.3,0-69.5,0c-10.2,0-14.1,4.1-14.1,14.3c0,20.2-0.9,40.4,0.3,60.5c0.9,16-18.7,39.4-35.7,38.6c-3.7-0.2-7.3,0.1-11,0
		c-1.6,0-3.4-0.3-4.9-0.9c-5.9-2.1-8.2-8.5-7-19c0.6-5.6,4.2-9.4,9.9-10.2c1.8-0.3,3.7-0.2,5.5-0.2c8.7,0,12.8-4,12.9-12.8
		c0.1-19,0.1-38,0-57c-0.1-8.8-4.6-13.1-13.3-13.3c-13.3-0.2-20-11.9-13.6-23.9c2.4-4.5,6.3-6,11.2-6.1c12.7-0.2,15.8-3.4,15.8-16.1
		c0-30,0-60,0-90c0-11.7-3.6-15.3-15.2-15.3c-9.1,0-13-3.9-13.2-13c0-0.8,0-1.7,0-2.5c0-10.8,3.6-14.5,14.2-14.5c27.5,0,55,0,82.5,0
		C1925.5,498.9,1928.8,498.9,1932.1,498.9z"/>
	<path class="st11" d="M2752.4,634.5c0-40.1,0-80.3,0-120.4c0-11.9,3.3-15.2,15.1-15.2c61.1,0,122.3,0,183.4,0
		c5.4,0,10.8,0.1,13.3,5.7c2.8,6.3,2.8,13-0.4,19.3c-2.1,4-6.2,5.1-10.6,5.1c-36.5-0.1-73,0-109.5,0c-15.8,0-31.7,0-47.5,0
		c-9.7,0-13.7,4-13.7,13.6c0,69,0,137.9,0,206.9c0,10.3,3.6,13.8,13.8,13.8c51.3,0,102.6,0,153.9,0c13.6,0,20.7,12.1,14.2,24.2
		c-1.6,3.1-4.2,5.2-7.7,5.7c-2.3,0.3-4.6,0.4-7,0.4c-52.5,0-105-0.7-157.4,0.4c-19,0.4-41-21.2-40.3-40.5
		C2753.4,713.8,2752.4,674.1,2752.4,634.5z"/>
	<path class="st11" d="M2222.1,629.3c0-23,0-46,0-69c0-10.2,3.6-13.8,13.7-13.8c23.2,0,46.3,0,69.5,0c5.4,0,10.9,0.5,14.7-5.2
		c0.9-1.4,3.9-2,5.9-2.1c4.8-0.3,9.7-0.5,14.5-0.1c7.5,0.7,10.7,6,6.5,12.2c-8.5,12.5-18.9,22.8-35.8,22.7c-15.8-0.1-31.7,0-47.5,0
		c-3,0-6,0.3-8.7,1.8c-3.6,2-3.7,5-0.2,7.4c2.8,1.8,5.9,2,9.1,2c23.5,0,47,0,70.5,0c10.5,0,14.4,4,14.4,14.5c0,22.7-0.7,45.3,0.2,68
		c0.7,17.7-20.1,37.7-35.7,37.4c-6.9-0.1-11.3,4.8-11.4,11.8c0,13.2-0.4,26.3,0.1,39.5c0.6,15-13.2,31.1-24.3,35.6
		c-8.7,3.5-15.1-0.4-15.6-9.7c-0.2-4,0-8,0.4-12c0.4-3.3,1.2-6.3,5.3-7.6c3.2-1,3.7-4.8,3.7-7.6c0.3-13.3,0.4-26.7,0.1-40
		c-0.1-6-5.3-10.1-11.5-10.2c-10.7-0.1-21.3-0.2-32-0.1c-4.4,0-6.3-1.2-6.2-6.2C2222.3,675.6,2222.1,652.4,2222.1,629.3z"/>
	<path class="st11" d="M2582.4,672c0-25.7,0-51.3,0-77c0-9.9-4-14-13.9-14c-6.8,0-13.7,0.1-20.5,0c-6.9-0.1-11.1-4.3-11.2-11.3
		c0-0.3,0-0.7,0-1c-0.1-14.8,2.6-17.5,17.3-17.5c5.5,0,11,0,16.5,0c7.6-0.1,11.7-4.1,11.8-11.7c0.1-9,0-18,0-27
		c0-9.3,4.1-13.2,13.5-13.3c1.7,0,3.3,0,5,0c7.1,0.2,11.5,4.6,11.5,11.7c0.1,9,0,18,0,27c0,9.5,3.9,13.3,13.4,13.3
		c6.3,0,12.7-0.1,19,0c8.5,0.1,12.8,4.6,12.9,13.1c0,1.8,0.1,3.7,0,5.5c-0.3,6.8-4.7,11.1-11.5,11.2c-7,0.1-14,0-21,0
		c-8.2,0.1-12.8,4.4-12.8,12.6c-0.1,52.2-0.1,104.3,0,156.5c0,8.8,4.2,12.8,12.9,12.9c6.8,0,13.7-0.1,20.5,0
		c7.1,0.1,11.5,4.3,11.8,11.4c0.1,2.7,0.2,5.3-0.1,8c-0.6,6.5-5.1,10.6-11.6,10.6c-32.7,0-65.3,0-98,0c-6.5,0-11-4.4-11.3-10.8
		c-0.7-14,0.6-20.2,18.4-19.2c4.7,0.3,9.3,0,14,0c9.1,0,13.2-4,13.2-13C2582.4,724,2582.4,698,2582.4,672z"/>
	<path class="st11" d="M1329.8,675.9c0,34.2,0,68.3,0,102.5c0,5.5-0.7,10.7-6,13.3c-5.9,2.9-12.4,2.8-18.3,0
		c-4.4-2.1-5.8-6.2-5.8-11.2c0.1-68.2,0.1-136.3,0.1-204.5c0-13.1-3.8-16.9-17-16.9c-21,0-42,0-63,0c-8.1,0-12.2-4.1-12.4-12.2
		c0-1.8,0-3.7,0-5.5c0.1-8,4.3-12.2,12.5-12.2c20.5,0,41,0,61.5,0c15.8,0,18.4-2.4,18.3-18.2c0-4.7,1.6-8.1,5.6-10.3
		c11.9-6.8,24.9,0.3,24.3,13.7c-0.5,11.1,5.8,15.2,15,15c21.2-0.5,42.3-0.2,63.5-0.1c7.1,0,11.3,2.5,13.2,7.7
		c2.3,6.5,0.6,16.1-3.5,19.7c-2.6,2.3-5.6,2.6-8.8,2.6c-21.5-0.1-43,0-64.5,0c-10.7,0-14.7,4-14.7,14.8
		C1329.8,608,1329.8,641.9,1329.8,675.9z"/>
	<path class="st11" d="M2948,580.3c2.2,15.5-3.6,28.2-13.2,40c-9.8,12-18.7,24.7-28,37.1c-5.5,7.4-5.5,14.1,0.2,21.5
		c6.6,8.6,13.2,17.2,19.8,25.7c5.9,7.6,13.6,11.5,23.3,11.3c1.8,0,3.7-0.1,5.5,0c5.2,0.3,9.6,4.2,10.1,9.3c0.3,3.6,0.3,7.3,0,11
		c-0.5,5.3-5.1,9.4-11.1,9.6c-7.3,0.3-14.7,0.4-22-0.1c-7.2-0.5-13.3-3.7-17.9-9.6c-8.9-11.4-18-22.7-27.1-34
		c-4.7-5.8-9.8-5.7-14.3,0.4c-7.9,10.5-15.9,21-23.5,31.7c-5.7,8-13.2,11.8-22.9,11.7c-5.7-0.1-11.3,0.1-17,0
		c-8.2-0.2-12.5-4.6-12.6-12.8c0-2.3-0.1-4.7,0.1-7c0.5-5.9,5.1-10.5,11-10c13.8,1,23.5-4.7,30.8-16.3c4.7-7.5,10.4-14.2,15.6-21.4
		c4.6-6.4,4.6-13.1-0.3-19.3c-11.6-15-23.3-30-35.1-44.9c-6.4-8-9.8-16.8-9.4-27.2c0.2-6.2,0-12.3,0.1-18.5
		c0.1-7.9,4.8-12.7,12.7-13c1.8-0.1,3.7-0.1,5.5,0c7.4,0.3,11.6,4.6,11.8,12c0.1,3.8-0.1,7.7,0,11.5c0.2,8,2.5,15.5,7.3,21.9
		c8.3,11,16.9,21.8,25.6,32.6c5.1,6.3,9.8,6.2,14.5-0.2c7.3-9.8,14.4-19.6,21.7-29.3c6-8,9.1-16.9,8.9-27c-0.1-3.3-0.1-6.7,0-10
		c0.2-6.7,4.6-11.2,11.3-11.6c2.5-0.2,5-0.2,7.5,0c6.6,0.5,11,5,11.2,11.7C2948.2,571.6,2948,576,2948,580.3z"/>
	<path class="st11" d="M2456.7,718c0-20.5,0-41,0-61.5c0-3-0.3-6-1.3-8.8c-1-2.6-2.3-4.8-5.5-5.2c-0.9-0.1-2.1-0.4-2.7-1.1
		c-5.6-6.2-4.4-13.7-3.1-20.9c0.9-5.3,5.7-8,12.3-8c9.7,0,19.3,0,29,0c8.2-0.1,12.3-4.2,12.4-12.3c0-2,0-4,0-6
		c-0.1-8.5-4.1-12.6-12.5-12.6c-9.3,0-18.7,0.1-28,0c-10.6-0.1-14-4-13.9-16c0.1-10.2,4.1-14.3,14.2-14.3c18.7,0,37.3,0,56,0
		c10.4,0,14.4,4,14.4,14.5c0,13.5,0,27,0,40.5c0,8.2-2.8,15.3-8.5,21.2c-4.4,4.5-8.3,9.6-14.2,12.4c-3.2,1.5-6.5,2.4-10,2.8
		c-5.5,0.6-8.4,3.8-8.4,8.7c0,4.6,3.3,8.6,8.3,8.9c10.5,0.7,18.5,5.6,25.2,13.4c4.8,5.6,7.6,11.8,7.6,19c0.1,25.8,0.1,51.6,0,77.5
		c0,8.1-4.4,12.3-12.9,12.4c-9.2,0.1-14.2-4-14.2-12.2c-0.1-23.5-0.1-47,0-70.5c0-3.2-0.2-6.3-2-9.1c-2.7-4.3-7.2-4.3-10.1,0
		c-1.9,2.8-1.9,5.9-1.9,9.1c0,26.3,0,52.6,0.1,79c0,5.5-0.7,10.8-6.1,13.1c-6.3,2.7-13,2.9-19.2-0.6c-3.8-2.1-4.8-6-4.8-10.3
		C2456.8,760,2456.7,739,2456.7,718z"/>
	<path class="st11" d="M2182.4,646c0-44,0-88,0-131.9c0-2.3,0-4.7,0.4-7c0.9-5.1,4.5-8.2,9.7-8.2c48.1,0,96.3-0.1,144.4,0
		c7,0,10.8,4.4,11.1,11.4c0.7,15-2.1,18.9-18.5,18.7c-34.1-0.4-68.3-0.1-102.5-0.1c-11,0-14.7,3.7-14.7,14.6
		c0,78.3,0,156.6,0.1,234.9c0,5.5-0.5,10.6-5.9,13.2c-5.9,2.9-12.4,2.9-18.3,0.1c-4.9-2.3-6-7.1-5.9-12.3c0.1-21.3,0-42.6,0-64
		C2182.4,692.4,2182.4,669.2,2182.4,646z"/>
	<path class="st11" d="M1622.5,763.2c30.3,0,60.6,0,90.9,0c11,0,14.7,3.6,14.7,14.6c0,3.3,0.7,6.7-1.2,9.8c-2.9,4.6-7.2,6.1-12.3,6
		c-10-0.1-20,0-30,0c-50.8,0-101.6-0.3-152.4,0.2c-17,0.2-17.8-12.3-14.4-24.1c1.6-5.5,7-6.5,12.3-6.5
		C1560.9,763.2,1591.7,763.2,1622.5,763.2z"/>
	<path class="st11" d="M1369.8,664.5c0-25.8,0-51.7,0-77.5c0-9.9,4.4-14,15-14c10.4,0,15,4.4,15,14.3c0,49,0,98,0,147
		c0,10.1,2.3,12.9,12.3,14.6c1,0.2,2,0.3,2.9,0.7c8.4,3.9,6.5,11.5,6.4,18.3c-0.1,5.3-3.5,9.1-8.5,10.4c-4.1,1.1-8.2,0.4-12.4-0.1
		c-12.7-1.4-31.7-21.9-31-36.7C1370.7,715.9,1369.8,690.2,1369.8,664.5z"/>
	<path class="st11" d="M1259.2,665c0,23.3-0.6,46.6,0.2,69.9c0.5,13.9-3.7,24.7-14.1,34c-7.4,6.7-15.4,10.1-25.2,10
		c-8.3-0.1-12.5-4.4-12.6-12.7c0-2.3-0.1-4.7,0-7c0.4-5.8,3.8-9.4,9.6-10.3c9.5-1.6,12-4.7,12-14.4c0-48.9,0.1-97.9-0.1-146.8
		c0-5.8,1.3-11,6.9-13.2c6.1-2.4,12.8-2.7,18.7,1.2c3.8,2.5,4.6,6.6,4.6,11C1259.1,612.7,1259.2,638.8,1259.2,665z"/>
	<path class="st11" d="M1622.5,657.8c30.8,0,61.6,0,92.5,0c9.6,0,13.2,3.6,13.2,13.3c0,1.5,0,3,0,4.5c-0.1,7.6-4.3,12.1-12,12.2
		c-10.5,0.1-21,0-31.5,0c-51.3,0-102.6,0-153.9,0c-5.5,0-11-0.7-13-6.3c-2.3-6.4-2.9-13.4,1.1-19.7c2.3-3.5,6.1-4.1,10.1-4.1
		C1560.2,657.9,1591.3,657.8,1622.5,657.8z"/>
	<path class="st11" d="M1622.4,568c30.8,0,61.7,0,92.5,0c9.4,0,13.2,3.9,13.2,13.4c0,1.8,0.1,3.7,0,5.5c-0.2,5-3.7,9.2-8.7,10.1
		c-1.9,0.4-4,0.5-6,0.5c-60.8,0-121.7,0-182.5,0c-3.9,0-7.7-0.1-10.8-2.9c-3.7-3.4-5.4-14-2.9-19.8c2.4-5.5,7-6.9,12.7-6.8
		C1560.8,568.1,1591.6,568,1622.4,568z"/>
	<path class="st12" d="M772,1181.7c-17.3,9-35.1,16.9-53.3,23.6c-66.1,24.5-134.3,34.8-204.6,31.1c-70-3.7-136.4-21.1-199.1-52.4
		c-1.3-0.7-2.6-1.5-3.9-2.2c1.9-3.7,5.6-2.9,8.7-3.2c4.9-0.5,10,0.2,14.9-0.8c3.6,0.1,6.6,2.2,9.8,3.6c45.5,19.8,93,32.3,142.4,37.8
		c11.7,1.3,23.5,2.5,35.3,2.4c7.6,0,15.2,1.2,22.9,0.9c48.7-1.3,96.5-7.9,143-22.6c18.6-5.9,36.7-12.9,54.7-20.5
		c1.8-0.8,3.6-1.7,5.7-1.7c6.3,1,12.6,0.4,18.9,0.8C769.3,1178.6,772.4,1177.9,772,1181.7z"/>
	<path class="st11" d="M2172.8,695.9c0,20.3,0,40.6,0,61c0,8.2-2.7,15.3-8.6,21.1c-5,4.9-9.2,10.6-15.8,13.6
		c-8.2,3.7-12.9,1.2-13.8-7.7c-0.5-5-0.4-10,0.3-14.9c0.3-1.8,0.6-4.1,2.3-4.8c5.7-2.2,5.4-7.1,5.5-11.6c0.1-17.7,0.1-35.3,0.1-53
		c0-21.8,0-43.6,0-65.5c0-9.7,3.9-13.5,13.7-13.6c3,0,6-0.3,8.9,0.6c4.8,1.5,7.4,5.7,7.4,11.8
		C2172.8,653.9,2172.8,674.9,2172.8,695.9z"/>
	<path class="st11" d="M1276.2,873.1c-8.1,22.5-16.2,45-24.2,67.5c-1.2,3.3-2.6,4.6-6.3,4.7c-3.8,0-5-1.6-6.1-4.8
		c-8.2-23-16.6-45.9-25.5-68.8c0.4,8.1,0.9,16.2,1,24.3c0.2,18.7,0,37.3,0.2,56c0,2.9-1,3.9-3.8,3.6c-1.5-0.1-3-0.2-4.5,0
		c-3.1,0.4-3.9-1-3.9-4c0.1-31.5,0.1-63,0-94.4c0-3.5,1.4-4,4.4-4c11.5,0,11.5-0.1,15.4,10.7c7.3,20.5,14.5,41,21.8,61.5
		c0.4,1,0.2,2.4,2,3.1c5.2-17.1,11.4-33.8,17.4-50.6c2.6-7.2,5.3-14.3,7.7-21.6c0.8-2.3,1.9-3,4.3-3.1c12.6-0.4,12.6-0.5,12.6,12.3
		c0,28.3-0.1,56.6,0.1,84.9c0,4.1-0.9,5.5-5.2,5.3c-8.7-0.4-7.3,0.7-7.2-7.1c0.1-24.1-0.7-48.3,0.9-72.4c0.6-1,0.4-2.1,0.1-3.1
		c0-0.1,0.5-1.4-0.6-0.6C1276.5,872.5,1276.4,872.9,1276.2,873.1z"/>
	<path class="st11" d="M2179.8,878.1c1.4,24,0.8,47.9,1.1,71.9c0,4.3-1,6.2-5.5,5.5c-1.1-0.2-2.3-0.1-3.5,0c-3.1,0.4-3.9-1-3.9-4
		c0.1-15.8,0.1-31.7,0.1-47.5c0-15.5,0.1-31-0.1-46.5c0-3.4,0.9-4.2,4.4-4.6c6.9-0.8,10.6,1.7,13.9,7.9
		c13.7,25.3,29.3,49.5,42.1,75.3c0.2,0.4,0.6,0.7,1.5,1.9c-0.4-8.8-1.1-16.8-1.2-24.8c-0.2-19-0.2-38-0.3-57c0-2.4,0.9-3,3.2-3.1
		c9.3-0.4,9.3-0.5,9.3,8.9c0,29.7-0.1,59.3,0.1,89c0,3.9-1.2,4.3-4.7,4.7c-6.8,0.8-10.3-2.1-13.4-7.9
		c-13.8-25.1-28.9-49.3-42.1-74.8C2178.1,874.3,2179.8,876.4,2179.8,878.1z"/>
	<path class="st11" d="M1671.7,871.7c1.3,26.3,0.1,52.5,0.4,78.6c0,1.7,1.4,4.6-1.5,5c-3.4,0.5-7,0.9-10.3-0.4
		c-0.5-0.2-0.5-2.1-0.5-3.3c0-31.5,0-63-0.1-94.5c0-2.9,0.7-3.8,3.8-4.1c6.8-0.6,10.9,1.4,14.4,7.9c13.5,25.2,29.1,49.3,41.9,74.9
		c0.4,0.8,0.7,1.5,1.8,1.8c-2.6-26.4-1.4-52.9-1.9-79.3c-0.1-4.2,1-5.8,5.2-5.1c1.1,0.2,2.3,0.2,3.5,0c3-0.4,4.1,0.8,4,3.9
		c-0.2,6.2-0.1,12.3-0.1,18.5c0,24.8-0.1,49.7,0.1,74.5c0,4.2-0.8,5.5-5.3,5.8c-6.2,0.3-9.4-1.9-12.3-7.2
		c-13.7-24.9-28.9-49-41.8-74.3C1672.7,873.3,1672.2,872.5,1671.7,871.7z"/>
	<path class="st11" d="M2760.3,955.5c-4.2,0-8.3,0-12.4,0c-2.4,0-2.9-1.9-3.8-3.5c-7-12.1-14-24.2-20.8-36.4
		c-1.5-2.7-3.2-3.9-6.3-3.5c-4.4,0.5-10.3-1.9-12.9,1.1c-2.2,2.6-0.8,8.3-0.8,12.6c-0.1,8.3-0.2,16.7,0.1,25c0.1,3.5-0.6,5-4.6,4.9
		c-8.9-0.2-8.9,0-8.9-9c0-29.5,0.1-58.9-0.1-88.4c0-4.3,1.2-5.3,5.3-5.1c12.1,0.5,24.3-0.5,36.4,0.9c15,1.7,24.2,9.8,26,23.1
		c2.1,15.6-4.6,27.4-19.1,32.7c-3.6,1.3-2.9,2.5-1.5,4.8c7.1,12,14.1,24.1,21.2,36.1C2759.1,952,2760.3,953.2,2760.3,955.5z"/>
	<path class="st11" d="M2526.5,901.7c0,16.2-2.7,29.2-11.4,40.3c-17.2,22.1-53,20.3-67.1-4.1c-12.5-21.7-12.5-44.6-0.6-66.7
		c8.2-15.1,22.3-20.9,39.1-19.7c17.1,1.3,28.6,10.6,35.2,26.2C2525.3,886.1,2526.6,895,2526.5,901.7z"/>
	<path class="st11" d="M1914.2,908.3c-0.6,13.1-3.8,25.4-12.7,35.4c-16.3,18.5-45.4,18.2-61.8-0.3c-16.7-18.8-16.9-59.2-0.4-78.2
		c20.6-23.6,58.7-16.5,70.6,13.1C1913.7,888,1914.7,898,1914.2,908.3z"/>
	<path class="st11" d="M1349.8,890.8c0.7,10.3-1.3,23,1.1,35.6c2.5,12.7,10.2,19.4,22.2,19.4c12.1,0,20-6.6,22.8-18.9
		c1.2-5.4,1.4-10.9,1.4-16.4c0.1-17.5,0.1-35-0.1-52.5c0-3.8,0.9-5.6,4.9-5c1.3,0.2,2.7,0.2,4,0c2.7-0.3,3.8,0.5,3.8,3.5
		c-0.1,20.5,0,41-0.2,61.5c0,3.6-0.6,7.3-1.4,10.9c-5.7,25.6-33.5,37.1-55.9,23.1c-10.8-6.7-14.7-17.5-15.5-29.3
		c-1.6-22.1-0.3-44.3-0.7-66.4c0-2.2,0.6-3.2,3.1-3.3c10.3-0.6,10.3-0.7,10.3,9.5C1349.8,871.2,1349.8,879.9,1349.8,890.8z"/>
	<path class="st13" d="M2065.4,903.9c0-15.5,0.1-31-0.1-46.5c0-3.5,1-4.5,4.5-4.4c16.8,0.2,33.6,0.3,50.5-0.1
		c5.2-0.1,4.4,2.8,4.5,5.9c0.2,3.5,0.2,5.9-4.7,5.7c-12.5-0.4-25,0-37.5-0.2c-3,0-4,0.8-3.9,3.9c0.2,8.2,0.2,16.3,0,24.5
		c-0.1,2.7,0.8,3.4,3.4,3.4c10.3-0.1,20.7,0.2,31-0.2c4.9-0.2,4.5,2.4,4.4,5.5c-0.1,3,1.1,6.3-4.3,6.1c-10.1-0.4-20.3,0-30.5-0.2
		c-3,0-4,0.7-4,3.9c0.2,9.7,0.2,19.3,0,29c-0.1,3.1,0.8,3.9,3.9,3.9c13-0.2,26,0.2,39-0.2c5.2-0.2,4.6,2.6,4.6,5.8
		c0,3.3,0.5,5.9-4.6,5.8c-17.1-0.3-34.3-0.2-51.4,0c-3.7,0-4.9-0.9-4.8-4.7C2065.5,935.2,2065.4,919.6,2065.4,903.9z"/>
	<path class="st11" d="M2568.7,889.5c0-10.7,0.1-21.3-0.1-32c-0.1-3.5,1-4.5,4.4-4.4c8.8,0.2,8.8,0,8.8,9c0,17.8,0,35.6,0,53.5
		c0,4.9,0.6,9.6,2,14.3c3.1,10.3,10.3,15.8,20.9,16c11,0.2,18.5-4.9,22.2-15c1.8-5.1,2.4-10.4,2.4-15.7c0-19,0.1-38-0.1-57
		c0-3.8,0.8-5.7,4.9-5c1.1,0.2,2.3,0.2,3.5,0c3.5-0.5,4.5,0.8,4.5,4.4c-0.2,19.3,0,38.6-0.1,58c0,8.4-1.3,16.5-5,24.2
		c-4.3,8.8-11.3,14.2-20.8,16.4c-6.4,1.5-12.9,1.6-19.3,0.5c-17-3-27-15.7-27.9-35.6c-0.5-10.5-0.1-21-0.1-31.5
		C2568.9,889.5,2568.8,889.5,2568.7,889.5z"/>
	<path class="st11" d="M2968.7,944.2c0.7,10.7,0.7,10.7-9.8,10.7c-16.6,0-33.3,0-49.9,0c-0.1-32.8-0.1-65.6-0.2-98.4
		c0-2.6,0.7-3.4,3.4-3.4c17.5,0.1,35,0.1,52.5,0c2.6,0,3.7,0.7,3.4,3.4c-0.2,1.5-0.2,3,0,4.5c0.4,2.9-0.9,3.6-3.7,3.6
		c-12.7-0.1-25.3,0.1-38-0.1c-3.4-0.1-4.6,0.7-4.5,4.3c0.3,7.7,0.3,15.3,0,23c-0.1,3.4,0.7,4.6,4.3,4.5c10.2-0.3,20.3,0.2,30.5-0.2
		c4.6-0.2,4.3,2.3,4.1,5.2c-0.2,2.7,1.7,6.5-4,6.3c-10.3-0.3-20.7,0-31-0.2c-3.1-0.1-3.9,0.9-3.9,3.9c0.2,9.7,0.2,19.3,0,29
		c-0.1,3.1,0.9,3.9,3.9,3.9C2940,944.1,2954.4,944.2,2968.7,944.2z"/>
	<path class="st11" d="M1584,853c5.1-1.7,7,1.9,8.7,7.2c10,30.1,20.2,60.1,30.5,90.1c1.4,4,1.4,5.5-3.5,5.3
		c-8.7-0.3-8.8-0.1-11.3-8.3c-2-6.5-4.2-13-6.1-19.5c-0.7-2.6-1.8-3.8-4.8-3.8c-10,0.2-20,0.2-30,0c-2.7-0.1-3.8,1.1-4.5,3.4
		c-2.3,7.6-5.1,15.1-7.1,22.8c-1.1,4.1-2.9,6-7.2,5.2c-0.8-0.1-1.7-0.1-2.5,0c-5.2,0.9-5.1-1.3-3.7-5.4
		c10.6-30.9,21.2-61.9,31.4-92.9C1576,851.9,1579.5,853.4,1584,853z"/>
	<path class="st11" d="M1957,903.9c0-15.5,0.1-31-0.1-46.4c0-3.5,0.8-4.6,4.4-4.4c11.6,0.4,23.3-0.4,34.9,0.8
		c18.3,2,27.8,11.5,28.3,28.6c0.5,16.9-9.2,28.3-26.4,31.5c-7.9,1.5-15.9,0.9-23.9,0.8c-3.6,0-4.4,1.1-4.3,4.5
		c0.2,10.5-0.1,21,0.2,31.5c0.1,3.5-0.6,4.9-4.5,4.8c-8.5-0.3-8.5,0-8.5-8.7C1957,932.6,1957,918.2,1957,903.9z"/>
	<path class="st11" d="M1571.2,548c-6.3,0-12.6,0-19,0c-7.9,0-14.6-2.9-20.1-8.3c-5.2-5.1-11.2-9.6-13.5-17c-0.8-2.5-1.6-5.1-2-7.7
		c-1.5-11.1,4.3-16.8,14.1-15.9c3.9,0.4,8.1-0.4,11.5,2.3c2.1,1.7,3.6,3.7,4,6.6c0.9,6.8,4.5,9.9,11.3,9.9c11.1,0.1,22.3,0,33.4,0
		c8.3,0,12.5,4.2,12.6,12.6c0,2.7,0.1,5.3-0.3,7.9c-0.9,5.8-5.2,9.4-11,9.4C1585.1,548.1,1578.1,548,1571.2,548z"/>
	<path class="st11" d="M1673.6,548c-6.7,0-13.3,0-20,0c-1.5,0-3,0-4.4-0.4c-6.4-1.9-9.5-9.6-7.9-19.5c1-6.3,5.2-10,11.7-10
		c11.2-0.1,22.3,0,33.5,0c7.9,0,10.9-2.7,12.4-10.5c1.2-6.5,6.4-8.9,18.4-8.3c5.9,0.3,10.5,4.3,10.9,9.7c0.7,9.5-2,17.7-9,24.4
		c-2.2,2.1-4.2,4.2-6.4,6.4c-5.6,5.5-12.2,8.4-20.1,8.4C1686.3,548,1680,548,1673.6,548z"/>
	<path class="st11" d="M2370.6,957.1c-13.3,0.1-23.9-4.1-33.3-11.7c-2.9-2.3-3.5-4-0.6-7c4.8-4.9,4.6-5,10-1c9.3,6.9,19.5,10,31,7.4
		c7.4-1.7,12.4-6.9,13.2-13.2c1-7.6-1.6-12.7-9.2-16.6c-7.1-3.6-14.5-6.7-21.8-9.9c-3.7-1.6-7.2-3.4-10.4-5.8
		c-15.3-11.5-14.3-33.2,2.1-43.1c13.8-8.3,36-5.6,47.4,5.7c1.7,1.7,2,2.8,0.2,4.4c-0.9,0.8-1.6,1.7-2.2,2.7
		c-1.7,2.8-3.2,3.2-6.1,0.9c-8-6.4-17.1-8.7-27.2-6.1c-6.2,1.5-10.5,5.2-11.6,11.6c-1.1,6.5,2,11.3,7.4,14.6
		c6.7,4.1,14.2,6.4,21.3,9.7c3.2,1.5,6.4,2.8,9.4,4.5c9.9,5.6,14.8,14.1,14,25.5c-0.7,11.4-6.9,19.1-17,23.9
		C2381.7,956.4,2375.6,957.4,2370.6,957.1z"/>
	<path class="st11" d="M2497.1,540c-2.5,0-5-0.3-7.5,0c-15.4,2.1-27.6-3.5-37.6-15c-3.5-4-6.3-8.2-7.7-13.2
		c-1.8-6.4,1.3-11.6,7.8-12.4c4.9-0.6,10-0.8,14.9,0.2c3.4,0.7,5.9,1.9,7.1,5.9c1.4,4.2,5.9,4.4,9.7,4.4c10.2,0.1,20.3,0,30.5,0
		c9.6,0,13.5,4,13.5,13.7c0,1.7,0,3.3,0,5c-0.2,6.9-4.5,11.2-11.3,11.3C2510.1,540.1,2503.6,540,2497.1,540z"/>
	<path class="st11" d="M2806.8,902.9c0,10.1,1.3,18.2,5.1,25.9c9.3,18.7,31.4,22.8,46.8,8.8c1.8-1.6,3.4-4.3,5.6-0.6
		c1.6,2.7,6.9,4.2,2,9c-16,15.5-43.3,15.2-59-1c-19.5-20.2-18.7-62.9,1.7-82.2c15.1-14.3,39.6-14.9,54.7-1.8c5.3,4.6-0.3,6.2-1.7,9
		c-2,3.8-3.7,1.4-5.6-0.2c-14.4-12-35-7.6-44,9.3C2808.1,887,2806.7,895.6,2806.8,902.9z"/>
	<path class="st11" d="M2257.5,742.2c0,3.7-0.2,7.3,0,11c1.1,15.8-7.2,26.7-18.8,35.8c-1.9,1.5-4.3,2.6-6.6,3.5
		c-6.1,2.2-10.6-0.1-12.2-6.3c-1.6-6.1-1.1-12.2,0.3-18.3c0.4-1.7,1.2-3.8,3.2-4.1c5.8-1.1,6.5-5.6,6.6-10.2
		c0.2-8.8,0-17.6,0.1-26.4c0-8.6,4.3-13,12.7-13.1c9.9-0.1,14.4,3.8,14.6,12.7C2257.6,731.9,2257.5,737,2257.5,742.2z"/>
	<path class="st11" d="M2312.4,741.7c0-5.2-0.1-10.3,0-15.5c0.2-8.6,4.8-12.3,14.6-12.3c8.2,0.1,12.7,4.3,12.7,12.5
		c0.1,8.5,0,17,0,25.4c0,4.9,0.5,9.1,5.7,12.1c5.5,3.3,4.2,24.6-1.3,28.1c-2.8,1.8-6,1.4-8.5-0.3c-12.9-8.3-22.9-18.7-23.3-35.3
		C2312.3,751.7,2312.4,746.7,2312.4,741.7z"/>
	<path class="st14" d="M745,276c-0.9-2.4,0.8-1.9,2.1-1.9c5,0,9.9,0,14.9,0c2,0,4.1,0.3,5.1-2c41.5,20,79.1,45.9,113.4,76.6
		c1.2,1.1,2.4,2.3,3.5,3.5c-1.1,2.5-3.4,2.2-5.5,2.3c-3.3,0.2-6.5-0.2-9.7,1c-2.6,0.5-4.4-1.1-6.2-2.6
		c-34-29.5-71.7-53.3-112.2-72.7C748.4,279.1,745.9,278.6,745,276z"/>
	<path class="st11" d="M1458,903.8c0-15.5,0.1-31-0.1-46.4c0-3.6,1-4.4,4.5-4.4c8.8,0.2,8.8,0,8.8,9c0,25.8,0.1,51.6-0.1,77.4
		c0,3.6,0.7,4.9,4.6,4.8c11.5-0.3,23,0.1,34.4-0.2c4.4-0.1,5.9,0.9,5.9,5.6c0,4.9-1.4,6-6.1,5.9c-15.3-0.3-30.6-0.3-45.9,0
		c-4.6,0.1-6.2-0.8-6.1-5.8C1458.2,934.5,1458,919.2,1458,903.8z"/>
	<path class="st15" d="M772,1181.7c-0.7-2.7-2.9-1.7-4.5-1.7c-6.5-0.2-13.1,0.6-19.6-1.1c0.4-2.9,3.1-3.3,5-4.2
		c24.7-11.4,47.9-25.3,70.2-40.7c11.9-8.2,23.3-17.1,34.6-26.2c1.5-1.2,3-2.7,5.2-2.6c3.7,0.5,7.5,0.1,11.3,0.4c2,0.2,4.5,0,4.8,3
		c-23.3,21.4-49,39.7-76,56.1C792.9,1170.8,782.7,1176.7,772,1181.7z"/>
	<path class="st15" d="M335,1178.9c-4.4,1.6-8.9,0.9-13.3,1c-3.6,0-7.2,0.4-10.6,1.9c-21.2-10.1-41-22.5-60.2-35.8
		c-11.3-7.8-22.3-16.1-32.8-25c-1-3.7,2-3.2,3.8-3.4c3.9-0.4,7.9-0.1,11.8-0.7c2.5-0.1,4.4,1.2,6.3,2.6
		c28.6,22.2,59.6,40.8,92.2,56.5C333.4,1176.7,335.4,1176.7,335,1178.9z"/>
	<path class="st16" d="M1020,555c7.8,19.6,13.3,39.9,18,60.4c3.4,15,6.5,30.1,7.9,45.5c-4,2.6-8.5,1.1-12.8,1.5
		c-2.3-0.7-2.2-2.7-2.5-4.4c-4.7-32.8-12.6-64.9-23.7-96.1c-0.7-1.9-1.4-3.8-0.7-5.8C1009.5,552.9,1014.6,552.5,1020,555z"/>
	<path class="st17" d="M1033,662.1c4.1-2.3,8.6-0.5,12.9-1.1c2.4,14,3.3,28.1,4.1,42.2c1,17.5,0.7,34.9-0.1,52.4
		c-0.1,2.5,0,5-0.9,7.4c-4.3,2.4-8.7,2.1-13.2,0.3c-2.4-4.2-1.4-8.7-1-13.2c1-14.8,0.8-29.5,0.1-44.3c-0.7-13.1-1.8-26.1-3.1-39.2
		C1031.5,665,1031.6,663.3,1033,662.1z"/>
	<path class="st18" d="M235.2,1117.9c-4.2,1.5-8.5,0.9-12.8,1.1c-1.7,0.1-3.9-0.7-4.3,2c-23.9-19.2-45.2-41.1-65.4-64
		c-0.7-0.8-1.2-2-1.8-3c4.6-2.9,9.9-0.8,14.8-1.9c6.2,2.6,10,8,14.2,12.8c10.5,12,22.4,22.6,34.2,33.3c6.2,5.6,12.5,10.9,19,16.1
		C234.3,1115.2,235.6,1116.1,235.2,1117.9z"/>
	<path class="st19" d="M868,355.3c0.9-2.3,3-2.1,4.9-2.2c3.7-0.2,7.5,0.9,11.1-1c22.1,19.6,42.2,41.2,59.8,65
		c-4.2,3.4-9.3,1.9-13.9,2.5c-2.4,0.2-3.5-1.6-4.8-3.1c-13.8-17.1-29.2-32.7-44.9-48.1c-2.6-2.6-5.2-5.1-8.1-7.4
		C870.3,359.6,867.9,358.2,868,355.3z"/>
	<path class="st20" d="M1020,555c-3.1,0-6.2,0-9.3,0c-1.6,0-3.4-0.2-3.7,2.1c-2.6-0.3-2.7-2.7-3.4-4.4
		c-9.3-24.6-20.6-48.2-33.7-70.9c-1.1-1.9-2.3-3.7-1.5-6.1c4.7-3.6,9.5-2.7,14.4-0.7C997.9,500.5,1010.4,527.1,1020,555z"/>
	<path class="st21" d="M166.9,1052.9c-5.2,1.9-10.7,0.6-16,1.1c-13.9-15.5-25.8-32.6-37.2-50c-4.5-6.8-9.4-13.5-12.6-21.1
		c0.2-2.7,2.5-2.2,4-2.3c2.9-0.3,5.9-0.2,8.8-0.3c2.3,0.2,3.4,1.9,4.4,3.6c13.6,22,28.6,42.9,45.2,62.8
		C165.1,1048.5,167.7,1049.9,166.9,1052.9z"/>
	<path class="st22" d="M114.9,981c-2.6,1.7-5.5,0.7-8.2,1c-1.9,0.2-4-0.7-5.6,1c-11.9-19.1-21.3-39.4-30-60c-1.8-4.3-3.3-8.7-4.9-13
		c-1-2.9,1.3-3,2.9-3.2c2.9-0.4,5.9-0.4,8.9,0c2.5,0.4,3.4,2.5,4.2,4.5c9.3,22.4,19.8,44.1,31.9,65.2
		C114.9,977.7,116,979.2,114.9,981z"/>
	<path class="st23" d="M1036.1,763c4.3,0,8.6,0,12.9,0c-0.1,2-0.2,4-0.2,6.1c-0.8,1.9,0.3,4.1-0.7,6c-0.9,18.2-4.1,36-7.6,53.8
		c-1.2,6.2-2.1,12.4-4.4,18.4c-4.3-1.5-9.1,0.2-13.2-2c-0.8-1.2-0.7-2.6-0.4-3.9c5.1-21.7,8.6-43.7,10.8-65.9c0.1-1,0.3-2,0.6-2.9
		c0.8-2.1,0.8-4.3,0.8-6.5C1034.9,764.8,1035.1,763.7,1036.1,763z"/>
	<path class="st24" d="M879,1108.6c-1.3-2.1-3.4-1.6-5.3-1.7c-3.9-0.3-7.9,0.9-11.6-1c0.9-4.5,5-6.2,7.9-8.9
		c14-12.7,27.4-25.9,40-40c2.4-2.7,4.6-5.7,8.1-7.1c3.3-0.6,6.5-0.5,9.8-0.3c2.1,0.1,4.4,0.3,5,3c-11.4,13.7-23,27.2-36,39.5
		C891.1,1097.8,885.4,1103.6,879,1108.6z"/>
	<path class="st25" d="M1023.2,845c3.1,0,6.2,0,9.3,0c1.7,0,3.3,0,3.6,2.2c-5.1,24.1-12.9,47.3-22.1,70.1c-0.5,1.4-1.3,2.6-1.9,4
		c-4.3-1.1-8.8-0.2-13-1.8c-1.7-1.9-0.5-3.8,0.3-5.6c8.5-21,15.5-42.4,21.1-64.4C1021,847.7,1021.3,845.9,1023.2,845z"/>
	<path class="st21" d="M933,1052.6c-4.9-3.3-10.4-1-15.6-1.7c-1.2-1.8,0.4-2.7,1.2-3.7c14.9-17.5,28.5-36,40.8-55.4
		c1.1-1.7,2.2-3.4,4.1-4.3c5-1,10.1-2.5,14.6,1.5c-12.4,21.9-27.2,42.1-43.1,61.6C934.4,1051.3,933.7,1051.9,933,1052.6z"/>
	<path class="st26" d="M978.1,989c-5.1-1.3-10.1-1.8-15.2,0c-1.2-1.6-0.1-2.9,0.7-4.1c10.1-17,19.8-34.2,27.8-52.3
		c1.3-2.9,2.4-5.8,3.8-8.7c0.9-1.9,1.5-4.1,3.9-4.9c4.4,0.7,9.3-1.8,13.1,2.3c-8.2,21.6-18.8,42-30.2,62
		C980.8,985.2,979.4,987.1,978.1,989z"/>
	<path class="st27" d="M33,755.1c0-4,0-7.9,0-11.9c0-10.1,0-20.2,0-30.3c0-4,0-7.9,0-11.9c0-0.3,0.1-0.6,0.3-0.9
		c4.7-2.2,9.3-2.9,13.6,0.8c1,2.2,0.8,4.6,0.8,6.9c0,11.3,0.1,22.6,0,33.9c-0.1,9.5,1,18.9,1.6,28.3c0.1,1.7,0.4,3.3-0.2,4.9
		c-0.9,2.3-2.6,1.2-4.1,0.9c-3.7-0.7-7.1-0.5-9.9,2.5C33.6,770.5,33.5,762.8,33,755.1z"/>
	<path class="st28" d="M982.9,475c-3.4,0-6.8,0-10.2,0c-1.6,0-3.4-0.2-3.7,2.1c-2.3,0-2.9-1.9-3.8-3.4c-10.2-17-21.5-33.2-33.5-48.9
		c-1.3-1.7-3-3.2-2.6-5.7c4.7-2.2,10-0.6,14.8-2.1C958.6,435.2,971.5,454.6,982.9,475z"/>
	<path class="st29" d="M79.2,907.9c-3.1,0-6.2,0-9.3,0c-1.6,0-3.4-0.5-3.8,2c-8.6-21.3-15.5-43.2-20.2-65.7
		c-0.3-2.8,1.7-3.3,3.7-3.6c2.9-0.4,5.9-0.5,8.8,0.4c2,1,2.5,3,3,4.9c4.7,18.9,10.4,37.5,17.3,55.8
		C79.4,903.8,80.8,905.7,79.2,907.9z"/>
	<path class="st30" d="M58.8,842c-2.8,0-5.6,0-8.4,0c-1.9,0-3.6,0.3-4.5,2.3c-5.6-21.7-9.4-43.7-10.9-66.1c1.1-4.9,8.2-6.1,12.9-2.2
		c2.2,2,2.2,4.8,2.5,7.3c1.9,17.7,5,35.2,8.7,52.5C59.5,837.9,60.7,840,58.8,842z"/>
	<path class="st11" d="M2174.1,521.5c0.1,6.8-9.2,16.5-16,16.7c-6.9,0.1-16.9-9.6-16.9-16.4c0-6.3,9.9-16.5,16.2-16.7
		C2164.3,504.8,2173.9,514.4,2174.1,521.5z"/>
	<path class="st11" d="M2174.1,582.8c-0.1,7.2-9.8,16.6-16.8,16.4c-6.4-0.2-16.3-10.4-16.2-16.7c0.1-6.8,9.8-16,16.8-16
		C2165.2,566.6,2174.2,575.6,2174.1,582.8z"/>
	<path class="st31" d="M1276.2,873.1c-0.2-1.4,0.7-2.3,1.7-3.9c0.2,2.9,0.5,5-0.7,6.9C1276.6,875.1,1277.3,873.8,1276.2,873.1z"/>
	<path class="st32" d="M2179.8,878.1c-1.2-1.7-0.5-3.7-0.8-5.6c-0.1-0.6,0-1.5,0.9-1.1c0.5,0.2,0.7,1,1,1.5
		C2179.3,874.5,2180.5,876.5,2179.8,878.1z"/>
	<path class="st17" d="M1048,775.1c0.2-2-0.7-4.1,0.7-6C1048.9,771.1,1049,773.1,1048,775.1z"/>
	<path class="st14" d="M311.9,274c4,2.8,8.5,1.9,12.9,2.1c3.7,0.2,7.6-0.9,11.2,0.7c-1.3,2.4-3.9,3.1-6.1,4.1
		c-19,8.2-36.4,19.2-53.8,30.2c-19,12-37,25.3-54.1,39.9c-2,1.7-3.9,3.8-6.9,3.5c-3.5-0.9-7.1-1.1-10.7-1.1c-1.9,0-4,0.2-5.5-1.5
		c14.2-13.9,29.9-26,45.9-37.6c19.9-14.4,40.8-27.2,62.6-38.6C308.9,275.1,310.2,274,311.9,274z"/>
	<path class="st33" d="M198.9,352c5.7,0.7,11.7-1.4,17.2,1.9c-3.3,6.1-8.7,10.5-13.8,14.8c-11.2,9.6-20.5,20.8-30.5,31.5
		c-4.6,4.9-8.8,10-13,15.1c-1.3,1.6-3,2.7-5.1,2.9c-3,0.3-6,0.3-9,0.1c-2-0.1-4-0.3-5-2.6C157.4,392.7,177,371.3,198.9,352z"/>
	<path class="st34" d="M46.1,701.1c-4.1-2.3-8.6-0.5-12.9-1.1c0.5-19.7,3.1-39.3,6.4-58.7c1.3-7.8,3.1-15.6,4.7-23.4
		c4.3-4.2,9-2.6,13.8-1.3c1.5,2,0.8,4.2,0.3,6.2c-4.7,21.4-7.6,43.1-9.7,64.9c-0.3,2.8-0.1,5.6-0.3,8.4
		C48.3,698.1,48.9,700.4,46.1,701.1z"/>
	<path class="st28" d="M139.7,415.9c5.1,2.3,10.5,0.6,15.7,1.3c-1.5,5.1-5.4,8.7-8.3,12.8c-12,16.9-23.9,33.9-34.2,52
		c-1,1.7-2,3.6-4.4,3.6c-2.8-0.2-5.6-0.1-8.4-0.3c-1.8-0.1-3.7-0.4-4.7-2.3C108.1,459.3,122.8,436.9,139.7,415.9z"/>
	<path class="st35" d="M95.4,483.1c2.8,1.1,5.8,1,8.8,1c1.7,0,3.7-0.7,5,1.2c0.7,2-0.3,3.6-1.1,5.2c-9.7,18.4-18.9,37.1-26.5,56.5
		c-0.8,2-1.3,4.2-3.7,5.1c-4.5-0.1-9.1-0.4-13.6-0.9C72.6,527.4,83,504.8,95.4,483.1z"/>
	<path class="st36" d="M64.2,551c4.6-2.5,9.3,0,13.9,0c0.9,1.8,0.2,3.6-0.4,5.3c-6.3,17.9-11.9,35.9-16.4,54.4
		c-0.6,2.3-0.4,5.1-3.3,6.3c-4.5,0.4-9.2-1-13.6,1C49.3,595.1,55.6,572.7,64.2,551z"/>
	<path class="st0" d="M58,617c5.1-19.3,10.3-38.5,17.1-57.3c1-2.9,2-5.8,3-8.7c6.5-14.8,12.4-29.9,19.9-44.3
		c3.7-7.2,7.4-14.4,11.1-21.5c12-20.6,25.5-40.3,39.4-59.7c2.1-2.9,4.6-5.6,6.8-8.4c12.2-14,24.2-28.3,37.7-41.2
		c7.7-7.4,15.4-14.7,23-22c11.4-8.9,22.5-18,34.1-26.5c23-16.8,47.1-32,72.7-44.5c4.3-2.1,8.8-4,13.2-6
		c29.7-13.1,60.2-23.9,91.9-31.3c35-8.1,70.4-12.5,106.3-13c72.8-1,142.4,13.3,209,42.8c0.6,0.3,1.2,0.4,1.9,0.6
		c15.7,8.3,32,15.7,47.3,24.8c25.3,15.1,49.3,32.1,71.7,51.4c1.3,1.1,2.6,2,3.9,3c12.4,11.7,25.1,23.2,36.5,35.9
		c8.3,9.2,16.4,18.7,24.5,28c14.1,18.8,27.8,37.9,40,58c4.7,8.7,9.4,17.4,14,26.1c9.2,17.4,16.5,35.7,24,53.9
		c5.2,16.2,10.8,32.3,14.9,48.9c4.4,17.7,8.1,35.5,10.4,53.7c0.1,0.8,0.5,1.6,0.7,2.3c1,11.9,2.2,23.8,3,35.7
		c1.5,20.1,1.4,40.2,0.1,60.2c-0.1,1.7,0,3.3,0,5c0,0.9-0.1,1.9-0.1,2.8c-1,2,0,4.1-0.7,6.1c-2.4,24.6-6.4,49-12,73
		c-3.3,11.4-6.4,22.9-9.8,34.3c-4,13.5-9.5,26.5-14.3,39.7c-8.2,17.9-16.4,35.8-26.2,52.8c-3.3,5.7-6.6,11.4-9.9,17.2
		c-14,21.6-29.1,42.3-45.6,62c-17.3,19.5-35.7,37.8-55.3,55c-20.2,16.4-41.1,32-63.4,45.6c-16.4,10-33.6,18.7-50.8,27.3
		c-17.5,7.2-34.9,14.6-52.9,20.4c-44.9,14.5-90.9,22.6-138.1,24.1c-76.7,2.3-150.1-12.3-220.1-43.9c-0.6-0.3-1.2-0.4-1.9-0.6
		c-18.7-9.4-37.4-18.9-55.1-30c-15.4-9.6-30-20.4-44.6-31c-16.1-13.5-32.2-27.1-46.8-42.3c-7.2-7.5-14.4-15.1-21.5-22.7
		c-9.8-12.7-20.4-24.8-29.4-38.1c-7.6-11.2-15-22.6-22.6-33.9c-9.6-17.7-19.4-35.4-27.4-53.9c-2.8-6.4-5.5-12.7-8.3-19.1
		c-5.9-17.1-12.1-34-16.6-51.5c-1.2-4.8-2.5-9.6-3.8-14.4c-4.9-21.8-8.5-43.8-10.9-66c-2.4-24.9-2.1-49.9-1.8-74.9
		c1.2-11.5,2.3-23.1,3.5-34.6C51.4,649.8,55,633.5,58,617z"/>
	<path class="st0" d="M1021.2,275.7c0,27-21.4,48.7-48.3,48.8c-26.9,0.1-49-21.9-48.9-48.9c0.1-26.7,22-48.6,48.8-48.5
		C999.5,227.1,1021.2,248.8,1021.2,275.7z"/>
	<path class="st0" d="M1883.8,589.5c0-16,0-32,0-47.9c0-8.4,4.1-12.7,12.5-12.7c24.3-0.1,48.6-0.1,72.9,0c8.3,0,12.5,4.4,12.6,12.7
		c0,31.8,0,63.6,0,95.4c0,9-4.2,13.2-13.1,13.2c-24,0-47.9,0-71.9,0c-9,0-13-4.1-13-13.2C1883.8,621.2,1883.8,605.4,1883.8,589.5z"
		/>
	<path class="st0" d="M2284.9,678.2c-7,0-14,0.1-21,0c-6.8-0.1-12-4.9-11.8-10.9c0.1-6.1,5.1-10.4,12.2-10.4c14,0,28,0,42,0
		c7.4,0,11.8,4,11.8,10.5c0,6.5-4.4,10.7-11.7,10.8C2299.2,678.3,2292.1,678.2,2284.9,678.2z"/>
	<path class="st0" d="M2285.2,612.2c7.2,0,14.3-0.1,21.5,0c6.7,0.1,11.1,3.7,11.4,9.3c0.3,6.2-3.8,11.1-10.7,11.2
		c-14.8,0.3-29.6,0.3-44.4,0c-6.4-0.1-11.1-5.3-10.9-10.8c0.3-5.8,4.9-9.7,11.7-9.8C2270.9,612.1,2278.1,612.2,2285.2,612.2z"/>
	<path class="st0" d="M2703.4,882.5c0-5.1,0-10.3,0-15.4c0-1.8,0-3.2,2.5-3.1c8.3,0.3,16.6-0.7,24.8,1c8.5,1.7,13.1,6.5,14,14.6
		c1,9-2.7,16.2-10.5,19.5c-9.4,4-19.3,2-29,2.3c-2.3,0.1-1.8-2-1.8-3.4C2703.4,892.8,2703.4,887.7,2703.4,882.5z"/>
	<path class="st0" d="M2452.7,904.1c-0.1-8.7,1.2-17.2,5.2-25.1c5.1-10,13-15.8,24.5-16c11.7-0.2,20.3,5.3,25.1,15.6
		c8.1,17.4,7.9,35.2-0.7,52.3c-4.8,9.6-13.2,14.9-24.2,14.8c-11-0.1-18.8-5.7-24-15.2C2454.1,922.3,2452.8,913.3,2452.7,904.1z"/>
	<path class="st0" d="M1840.5,904.4c0.2-9.7,1.4-19,6.3-27.5c10.9-18.6,36.5-19.2,47.1-0.5c10.4,18.5,10.2,38.2-0.6,56.5
		c-10.4,17.7-34.4,17.1-45.5-0.2C1842.2,924.1,1840.8,914.3,1840.5,904.4z"/>
	<path class="st37" d="M1582.8,864.4c5.1,16.9,10,32.9,15,49.4c-9.5,0-18.6,0-27.7,0c-3.7,0-1.8-2.2-1.3-3.7
		C1573.3,895.2,1578,880.2,1582.8,864.4z"/>
	<path class="st0" d="M1970,884c0-5.5,0.1-11-0.1-16.4c-0.1-2.7,0.5-3.8,3.5-3.7c7.4,0.4,14.9-0.4,22.4,1c10.3,1.9,15,7,15.6,17.5
		c0.6,10.5-4.2,17.8-13.6,20.4c-8.5,2.4-17.2,1-25.8,1.3c-2.4,0.1-1.9-1.7-2-3.1C1969.9,895.3,1970,889.7,1970,884z"/>
	<path class="st17" d="M1035.3,771.9c-0.1-2.1-0.1-4.2,0.7-6.1C1035.8,767.9,1036.7,770,1035.3,771.9z"/>
	<path class="st30" d="M873.1,792.1c-0.8,6.1-4.3,9.9-10.1,11.8c-2.4-1.1-4.9-0.4-7.4-0.4c-30.3-0.1-60.6,0-90.9,0
		c-97.4-0.1-194.9,0.4-292.3,0.1c-83.8-0.2-167.5,0.2-251.3-0.2c-0.7,0-1.3,0.2-1.9,0.4c-6.6-2.8-10-7.8-10-15
		c0-10.6,0.1-21.2,0.2-31.8c2.7-2.3,6-1.6,9.1-1.6c52.7,0,105.3,0,158,0c58.7,0,117.3,0.2,176,0.1c103.6-0.1,207.3,0,310.9-0.1
		c3.3,0,6.7-0.7,9.7,1.3c1.2,7,0.4,14.1,0.5,21.2C873.5,782.6,874.1,787.4,873.1,792.1z"/>
	<path class="st38" d="M149.8,852c3.5,9.3,8.1,12.4,18.1,12.4c97.4,0,194.8-0.1,292.2,0.1c8.5,0,14.4-3.1,18.1-10.6
		c2.1-3.3,5.5-2.6,8.6-2.6c26.9-0.1,53.8,0,80.7,0c9.8,0,19.6,0,29.4,0c2.5,0,5-0.2,7.1,1.6c3.5,7.9,9.4,11.5,18.3,11.5
		c97.4-0.1,194.7-0.1,292.1,0c8,0,13.9-2.6,17.8-9.6c1.4-2.4,3.8-2.5,6.1-2.5c16.5-0.1,33-0.1,49.4,0c2,0,4,0,5.6,1.6
		c-4.1,16.4-9.5,32.4-16.2,47.9c-3.1-1.2-6.4-1.5-9.8-1.5c-11.9,0-23.9,0.1-35.8,0.1c-7.5-8-17.2-8-27.2-8
		c-240.2,0.1-480.4,0.1-720.6,0c-10.3,0-20.7-0.7-30.1,4.8c-4.6-1.2-9.2-0.8-13.9-0.8c-9.8-0.1-19.6,0-29.4,0c-2.5,0-5,0.2-7.1-1.6
		c-5.9-13.6-10.3-27.7-13.9-42c2.2-2.1,5-1.5,7.6-1.5c17.1-0.1,34.2,0.2,51.3-0.2C148.7,851.3,149.3,851.5,149.8,852z"/>
	<path class="st39" d="M956.1,947c-7,13.3-13.9,26.7-23.1,38.7c-4.5-0.1-9-0.1-13.5-0.1c-249.9,0-499.7,0-749.6,0
		c-6.7,0-13.3-0.2-20,0.6c-9.9-14-18.5-28.7-25.9-44.2c-0.1-1.9,1.5-2.2,2.7-2.3c7.5-0.4,15-0.8,22.4,0.2c1,0.1,1.9,0.7,2.7,1.3
		c5.6,6.8,13,8.2,21.5,8.2c245.2-0.1,490.3-0.1,735.5,0c7,0,13.5-1.3,19.8-4.3c7.5,0.2,14.9,0.3,22.4,0.3
		C952.8,945.4,954.7,945.5,956.1,947z"/>
	<path class="st40" d="M876,1055.8c-1.5,3.1-4.5,4.6-6.9,6.7c-7.1,6.4-14,13.2-21,19.7c-5.7,5.4-11.5,8.9-20.4,8.9
		c-192.8-0.4-385.6-0.3-578.3-0.2c-3.8,0-6.6-1-9.4-3.5c-11.7-10.1-23.2-20.4-34-31.5c-1-2.4,0.8-2.9,2.4-3.3c1.9-0.5,4-0.4,6-0.4
		c217.7,0,435.4,0,653.1,0c2,0,4-0.1,6,0.4C875,1053.1,876.9,1053.4,876,1055.8z"/>
	<path class="st27" d="M872.9,757c-221.2,0-442.5,0-663.7,0c0-8,0-16,0-24c2.7-2.3,6-1.6,9.1-1.6c61.8,0,123.6,0,185.4,0
		c32.7,0,65.3,0,98,0c2.8,0,5.7-0.3,8.4,0.7c2.8,2.1,0.6,5.3,1.6,7.8c1.1,7.2,6.2,12.3,13.3,13.4c11,0.4,21.9,0.5,32.9-0.1
		c9.6-3.3,13-8.2,13-18.4c0-7.9,0.1-15.8,0.2-23.8c2.7-2.3,6-1.6,9.1-1.6c60.5,0,120.9,0,181.4,0c34.2,0,68.3,0,102.5,0
		c9.3,0,9.3,0,9.3,9.3c0,11.2,0,22.3,0,33.5C873.5,753.8,874,755.5,872.9,757z"/>
	<path class="st35" d="M97.3,576c7.3-22.5,16.6-44.2,27.9-64.9c2.2-1.6,4.6-1.7,7.2-1.7c93.3,0,186.7,0,280,0c2.3,0,4.7-0.2,6.7,1.3
		c0.5,0.7,0.5,1.5,0.5,2.4c0,20,0,40,0,60.1c0,0.7-0.1,1.3-0.3,1.9c-2.8,2.2-6.1,1.5-9.2,1.5c-71.3,0-142.6,0-213.9,0
		c-31.2,0-62.3,0-93.5,0C100.8,576.7,99,576.9,97.3,576z"/>
	<path class="st41" d="M97.3,576c1.8-1.2,3.8-1,5.8-1c105.3,0,210.5,0,315.8,0c0.9,0.8,0.7,1.8,0.7,2.8c0,16,0,32,0,47.9
		c0,0.8,0,1.7-0.4,2.4c-2.8,2.1-6.1,1.4-9.2,1.4c-77.6,0-155.2,0-232.8,0c-28.6,0-57.3,0-85.9,0c-2.9,0-6.1,0.7-8.5-1.7
		C86.5,610.3,91,592.9,97.3,576z"/>
	<path class="st42" d="M418.9,511.1c-97.9,0-195.8,0-293.7,0c8.3-16.8,17.9-32.9,28.9-48c1.4-0.8,2.8-0.8,4.4-0.8
		c83.8,0.3,167.6,0.1,251.5,0.2c3.1,0,6.4-0.6,9.2,1.3c1.1,6.1,0.4,12.2,0.5,18.2c0.1,8.1,0.1,16.2,0,24.3
		C419.5,507.9,420.1,509.6,418.9,511.1z"/>
	<path class="st43" d="M339.9,1150.6c134.4,0,268.8,0,403.2,0c-65.9,32.1-135.5,47.3-208.6,46.2
		C466.3,1195.9,401.3,1180.8,339.9,1150.6z"/>
	<path class="st42" d="M928.8,463.1c10.6,14.9,20.2,30.5,28.2,47c-2.7,2.4-6,1.6-9.1,1.6c-60.3,0-120.5,0-180.8,0
		c-31.8,0-63.6,0-95.4,0c-2.9,0-6.1,0.6-8.6-1.6c0-15.3,0-30.7,0-46c2.9-2.4,6.4-1.6,9.6-1.6c77.1,0,154.2,0,231.3,0
		c6.8,0,13.7,0.2,20.5-0.2C926.1,462.1,927.5,462.1,928.8,463.1z"/>
	<path class="st44" d="M663.2,510c97.9,0,195.9,0,293.8,0c7.5,13.1,13.8,26.8,19,41c-0.9,2-2.7,2.3-4.6,2.5
		c-1.8,0.2-3.7,0.2-5.5,0.2c-97.9,0-195.8,0-293.7,0c-3.1,0-6.4,0.7-9.1-1.6C663.2,538,663.2,524,663.2,510z"/>
	<path class="st45" d="M418.9,511.1c0-15.7,0-31.3,0-47c-1.6-2-1.4-4.4-1.4-6.7c-0.1-5.7,0-11.3,0-17c0-3.1-1.3-4.6-4.5-4.7
		c-2,0-4-0.1-6-0.1c-73.4,0-146.8,0-220.2,0c-3.7,0-7.8,1-10.7-2.6c11.6-14.6,24.3-28.3,37.5-41.4c1.6-1.6,3.3-2.5,5.7-2.5
		c61.4,0.1,122.9,0,184.3,0.1c8.8,0,15.4,6.6,16,15.3c0.1,0.7,0,1.3,0,2c0,73.9,0,147.8,0,221.8c0,1.3-0.3,2.6-0.4,3.9
		c-1.4-1.3-1.3-2.7-0.3-4.2c0-17.7,0-35.3,0-53C418.9,553.7,418.9,532.4,418.9,511.1z"/>
	<path class="st2" d="M292.8,329.5c19.3-12.2,38.4-22.2,58.2-31c46.6-20.7,95.3-33.2,146.1-38.3c1.7-0.2,3.3-0.2,5-0.3
		c9.7-0.6,9.7-0.6,9.7,9.4c0,14.3,0,28.6,0,43c0,10.8-6.6,17.6-17.4,17.6c-66.3,0.1-132.6,0-198.9,0
		C294.9,329.9,294.4,329.8,292.8,329.5z"/>
	<path class="st2" d="M790.3,329.9c-2.9,0-4.5,0-6,0c-64.5,0-128.9,0-193.4,0c-13.7,0-19.8-6.1-19.8-19.8c0-15.7,0.1-31.3-0.1-47
		c0-2.9,0.5-4.1,3.8-3.8c57.1,4.4,111.8,18.2,163.8,42.3c16,7.4,31.5,15.7,46.6,24.9C786.6,327.3,787.9,328.3,790.3,329.9z"/>
	<path class="st46" d="M150,986.1c0.7-1.6,1.9-2.2,3.6-2.2c1.2,0,2.3,0,3.5,0c256.6,0,513.2,0,769.8,0.1c2,0,4.8-1.5,6.1,1.6
		c-8.3,12.1-16.1,24.5-25.8,35.6c-23.3,0.7-46.7,0.2-70,0.2c-1.5,0-3-0.2-4.2-1.2c-1.9-2.5-1.4-5.4-1.5-8.2
		c-0.2-14.3-5.4-19.5-19.7-19.5c-107.4,0-214.9,0-322.3,0c-72.3,0-144.6,0-216.9,0c-17.3,0-20.8,3.5-20.8,20.8c0,5.3,0,10.7,0,16
		c0,2.2,0.1,4.4-1.2,6.3c-4-0.4-2.4-3.6-2.8-5.8c-0.3-4.3-0.1-8.6-0.1-13c-0.1-7.1-0.3-7.4-7.2-7.4c-19.1,0-38.2,0-57.4,0
		c-5.6,0-11.3,0.4-16.9-0.4C160,1001.9,154.4,994.4,150,986.1z"/>
	<path class="st45" d="M663.2,427.1c0-7.2-0.3-14.3-0.1-21.5c0.3-9.9,7.1-16.4,17-16.4c60.9,0,121.9,0,182.8,0
		c1.8,0,3.5-0.1,5.1,1.4c11.8,11.5,23.3,23.3,33.4,36.3c-2.6,2.5-6,1.7-9,1.7c-62.4,0.1-124.8,0-187.1,0c-11.6,0-23.3,0-34.9,0
		C667.9,428.7,665.3,429,663.2,427.1z"/>
	<path class="st47" d="M604,853c-39.9,0-79.7,0-119.6,0c-2.1,0-4.3-0.3-6.3,1c1.5-11.6,0.9-23.3,0.5-34.9c-0.3-7.7-7.2-13.3-15.6-14
		c-1.7-0.1-3.3-0.1-5-0.1c-77.2,0-154.5,0-231.7,0c-2.5,0-5,0.3-7.2-1.2c0.8-1.3,1.9-1.8,3.3-1.8c1.3,0,2.7,0,4,0
		c209.8,0,419.5,0,629.3,0c2.5,0,5.5-1.2,7.2,1.9c-2.3,1.3-4.8,1.1-7.3,1.1c-77.6,0-155.1,0-232.7,0c-6.9,0-13.6,0.7-17.1,7.9
		c-1.5,3-2.1,6.2-2,9.6C604,832.7,604,842.8,604,853z"/>
	<path class="st34" d="M418.9,628c0.1,1.4,0.2,2.8,0.3,4.2c-3.7,10.9-7.9,13.9-19.4,13.9c-76.7,0-153.3,0.1-230-0.1
		c-14.3,0-20.4,7.5-20.3,20.5c0.4,59.3,0.2,118.6,0.2,178c0,2.5,0.1,5,0.2,7.5c0,0-0.4,0-0.4,0l-0.4,0c-1.6-1.5-1.6-3.6-1.6-5.6
		c0-11.1-0.2-22.3,0.1-33.4c-0.2-18.3-0.2-36.6,0-54.9c-0.2-16.3-0.2-32.6,0-48.9c-0.3-11,0-21.9-0.1-32.9c-0.1-6.2-0.4-6.6-6.5-6.6
		c-19.1-0.1-38.2,0-57.4,0c-2.6,0-5.4,0.5-7.6-1.6c0.6-11.8,3.4-23.3,5.3-34.9c0.3-1.8,0.8-3.5,1.2-5.2c2.5,0,5,0.1,7.5,0.1
		C199.7,628,309.3,628,418.9,628z"/>
	<path class="st48" d="M176.1,433.1c2.7,0.9,5.5,1,8.3,1c76.1,0,152.1,0,228.2,0c6.4,0,6.4,0,6.4,6.5c0,7.8-0.1,15.6-0.2,23.5
		c-85.5,0-171,0-256.5,0c-2.8,0-5.6-0.2-8.3-1C160.7,452.5,168,442.5,176.1,433.1z"/>
	<path class="st49" d="M663.2,552c101.9,0,203.7,0,305.6,0c2.5,0,5,0.4,7.3-1c4.1,8.4,7.1,17.1,9.8,26c-1.7,0.9-3.6,0.7-5.4,0.7
		c-102.6,0-205.1,0-307.7,0c-3.2,0-6.7,0.8-9.6-1.6C663.2,568,663.2,560,663.2,552z"/>
	<path class="st50" d="M1000,629c2.9,12.5,5.6,25.1,6.8,37.9c-20.9-0.8-41.9-0.2-62.8-0.4c-8.3-0.1-8.3,0-8.4,8.1
		c-0.1,11.5,0.1,22.9-0.1,34.4c0.2,18.3,0.2,36.5,0,54.8c0.2,17,0.2,33.9,0,50.9c0.2,9.7,0.1,19.4,0,29.1c0,2.1,0.6,4.8-2.2,6
		c0-25.5-0.1-50.9-0.1-76.4c0-36-0.2-71.9,0.1-107.9c0.1-11.4-6.3-19.4-19.6-19.4c-77.8,0.1-155.5,0-233.3,0
		c-10.5,0-17.3-6.5-17.1-16.1c2.7-2.3,6-1.6,9.1-1.6c50.5,0,101,0,151.4,0c57.5-0.1,115,0.2,172.4-0.1
		C997.5,628.2,998.9,628.1,1000,629z"/>
	<path class="st27" d="M510.9,733c-100.5,0-201.1,0-301.6,0c0-7.7,0-15.3,0-23c2.7-2.3,6-1.6,9.1-1.6c60.5,0,120.9,0,181.4,0
		c34.3,0,68.6,0,103,0c2.8,0,5.7-0.5,8.2,1.3C511.8,717.4,512.1,725.2,510.9,733z"/>
	<path class="st51" d="M663.2,576c68.5,0,137,0,205.5,0c37,0,73.9,0,110.9,0c2.1,0,4.4-0.3,6.3,1c1.2,6.9,5.4,12.9,6.1,20
		c-2.7,2.4-6,1.6-9.1,1.6c-49.1,0.1-98.2,0-147.3,0c-54.4,0-108.9,0-163.3,0c-3.1,0-6.4,0.7-9.1-1.6C663.2,590,663.2,583,663.2,576z
		"/>
	<path class="st16" d="M1000,629c-2.7,0.9-5.5,1-8.4,1c-109.5,0-219,0-328.4,0c0-6,0-12,0-18c2.7-2.3,6-1.6,9.1-1.6
		c48.9,0,97.9,0,146.8,0c55.9,0,111.9,0,167.8,0c3.1,0,6.4-0.6,9.1,1.6C998.1,617.5,999.5,623.2,1000,629z"/>
	<path class="st52" d="M833.1,1019.9c22.9,0,45.7,0,68.6,0c1.9,0,4-0.8,5.5,1.3c-8.3,9.7-16.6,19.4-25,29c-1.8,2.1-3.5,4.4-6.1,5.6
		c-0.2-1.1-0.8-1.8-2-1.9c-1.3,0-2.7,0-4,0c-219.2,0-438.5,0-657.7,0.1c-2.1,0-5.2-1.8-6.3,2c-7.9-8.6-16.4-16.5-23.2-26
		c1.8-1.9,4.2-1.7,6.5-1.7c17.7-0.1,35.4-0.1,53.1,0c2.3,0,4.7-0.2,6.6,1.6c0.4,2-0.6,4.2,0.9,6c1.4,0.8,2,2.2,2.7,3.5
		c3.1,6.5,8.2,8.9,15.3,8.9c182.1-0.1,364.3-0.1,546.4-0.1c11.5,0,16.6-5.3,17.2-16.8C831.6,1027.6,830.3,1023.5,833.1,1019.9z"/>
	<path class="st41" d="M996.1,612c-111,0-221.9,0-332.9,0c0-5,0-10,0-15c109.6,0,219.2,0,328.8,0C994,601.8,995.4,606.8,996.1,612z"
		/>
	<path class="st48" d="M928.8,463.1c-4.4,1.3-8.9,1-13.3,1c-84.1,0-168.2,0-252.3,0c0-6.3,0-12.7,0-19c2.9-2.4,6.4-1.6,9.6-1.6
		c77.7,0,155.4,0,233.1,0c3,0,6-0.4,8.9,0.6C920.3,449.8,924.6,456.4,928.8,463.1z"/>
	<path class="st19" d="M914.9,444.1c-2.1,1.4-4.5,1-6.8,1c-81.6,0-163.2,0-244.8,0c0-6,0-12,0-18c77.1,0,154.1,0,231.2,0
		c2.3,0,4.7-0.1,7-0.1C906.3,432.3,911.2,437.7,914.9,444.1z"/>
	<path class="st27" d="M934.1,764c0-18.3,0-36.7,0-55c1.9-1.8,4.3-1.6,6.6-1.6c20.9,0,41.9,0,62.8,0c2.3,0,4.7,0,6.6,1.6
		c1.4,18.4,0.8,36.7-1.1,55c-1.9,1.7-4.3,1.6-6.6,1.6c-20.6,0-41.2,0-61.7,0C938.4,765.6,936,765.8,934.1,764z"/>
	<path class="st53" d="M148.9,758c0,18.3,0,36.7,0,55c-1.9,1.8-4.3,1.6-6.6,1.6c-18.5,0.1-37.1,0-55.6,0c-2.3,0-4.7,0.1-6.6-1.6
		c-3.3-14.8-5.3-29.8-6-44.9c-1.1-2.2,0.1-4.8-0.8-7c0-0.7,0-1.4,0-2c2.1-2.4,4.9-2.5,7.8-2.6c20.8-0.1,41.5-0.1,62.3,0
		C145.3,756.4,147.3,756.4,148.9,758z"/>
	<path class="st54" d="M148.9,758c-22.6,0-45.2,0-67.8-0.1c-2.7,0-5.2,0.9-7.8,1.1c-1.6-15-1.3-30-1-45c0.7-6.2,1-6.5,7.3-6.5
		c20.9-0.1,41.8,0,62.8,0c2.3,0,4.7-0.3,6.6,1.6C148.9,725.3,148.9,741.7,148.9,758z"/>
	<path class="st53" d="M934.1,764c25,0,50,0,74.9,0c-0.8,17.6-3.1,34.9-7,52.1c-1.6,0.5-3.3,0.5-4.9,0.5c-18.5-0.1-37,0-55.4-0.1
		c-2.6,0-5.4,0.4-7.6-1.6C934.1,798,934.1,781,934.1,764z"/>
	<path class="st55" d="M1010.1,709c-25.3,0-50.7,0-76,0.1c0-13.3,0-26.6-0.1-39.8c0-3.3,1.1-4.2,4.3-4.2c21.2,0.1,42.5,0.1,63.8,0
		c1.9,0,3.6,0.2,4.7,2C1008.7,680.9,1010.2,694.9,1010.1,709z"/>
	<path class="st56" d="M148.9,709c-23.2,0-46.4,0.1-69.6-0.1c-4.2,0-6.4,1-7,5.1c0.3-6.7,0.7-13.3,1-20c0.9-2.3-0.4-4.8,0.8-7
		c0.1-1.7,0.2-3.3,0.3-5c0.7-1.6-0.3-3.5,0.7-5.1c0.3-3-0.8-6.1,1-8.9c22.6,0,45.2,0.1,67.7-0.1c4.1,0,5.5,1,5.4,5.2
		C148.9,685.1,149,697.1,148.9,709z"/>
	<path class="st56" d="M872.9,757c0-13.3-0.2-26.7,0.2-40c0.1-4.8-1.2-6.1-6-6.1c-73,0.2-145.9,0.1-218.9,0.1c-25.7,0-51.3,0-77,0
		c0-15.7,0-31.3,0-47c0.2-0.2,0.5-0.6,0.8-0.6c10.3-1.4,20.6-1.9,30.9,0.2c1.4,6.2,0.3,12.6,0.6,18.8c0.2,3.2-0.2,6.3,0.2,9.5
		c2.7,9.8,8.1,13.9,18.5,13.9c81.8,0,163.6,0,245.4,0c7.1,0,6.2-1,6.3,6.5c0,24.7,0,49.3,0,74c0,2,0.5,4-0.8,5.8
		C873,780.4,873,768.7,872.9,757z"/>
	<path class="st57" d="M80.1,813c22.9,0,45.9,0,68.8,0c0.1,13,0.1,26,0.2,39c-1.9,1.2-4.1,1-6.3,1c-17.9,0-35.7,0-53.6,0
		C85.2,839.9,82,826.6,80.1,813z"/>
	<path class="st56" d="M510.9,710c-100.5,0-201.1,0-301.6,0c-1.3-4.7,1.9-4.2,4.8-4.2c81.8,0,163.6,0,245.5,0
		c13.6,0,19.6-5.9,19.6-19.3c0-6.8,0.1-13.7,0.2-20.5c0.6-0.3-0.3-0.2,0.4-0.3c10.5-2,21.1-2.3,31.6,0.1
		C511.6,680.6,512.2,695.3,510.9,710z"/>
	<path class="st58" d="M510.9,710c0-14.7,0-29.3,0-44c-1.2-1.5-1.4-3.3-1.4-5.2c0-11.6-0.2-23.2,0.1-34.8c-0.2-17.3-0.2-34.7,0-52
		c-0.2-20.9-0.2-41.9,0-62.8c-0.2-13.9,0-27.9-0.1-41.8c0-6.5-0.3-6.8-6.7-6.8c-5.8,0-11.6,0-17.4,0c-2.1,0-4.4,0.1-6.1-1.6
		c-0.1-18.7-0.2-37.3-0.1-56c0.1-9,7.2-15.7,16-15.9c8.8-0.1,15.9,6.4,16.5,15.4c0.1,1.5,0,3,0,4.5c0,105.8,0,211.6,0,317.3
		c0,4.5,0.1,9,0.1,13.5c-1.5-2.1-0.3-4.7-0.9-6.9C510.9,725.3,510.9,717.7,510.9,710z"/>
	<path class="st29" d="M934.1,815c20.8,0,41.6,0,62.4,0c1.9,0,4-0.8,5.6,1.1c-2.6,12.7-4.9,25.5-8.8,37.9c-18.8,0-37.5,0-56.3-0.1
		c-1.7,0-3.3,0.1-4.8,1c0.4-1.7,0.8-3.4,1.2-5.1c1.5-5.5,0.5-11.1,0.7-16.6C934.2,827.2,934.1,821.1,934.1,815z"/>
	<path class="st58" d="M603.8,691.9c-1.6-7.1-0.3-14.3-0.7-21.5c-0.1-2.1-0.1-4.3-0.1-6.4c-1.4-1.6-1.5-3.6-1.5-5.6
		c0-18.4-0.2-36.8,0.1-55.3c-0.2-18-0.2-36,0-54c-0.2-17.3-0.2-34.6,0-51.8c-0.2-13.6,0-27.2-0.1-40.8c0-6.5-0.3-6.7-6.7-6.8
		c-5.8,0-11.6,0-17.4,0c-2.1,0-4.4,0.1-6.1-1.6c-0.1-14.3-0.3-28.6-0.1-43c0.1-8.6,6.7-15.2,15-15.8c8.6-0.6,15.8,5.1,17.3,13.9
		c0.3,1.6,0.4,3.3,0.4,5c0,93.6,0,187.3,0,280.9C603.9,689.9,603.8,690.9,603.8,691.9z"/>
	<path class="st35" d="M510.9,511.1c0,21,0,42,0,63c-0.4,0.3-0.7,0.8-1.2,0.9c-9.7,1.2-19.5,1.2-29.2,0c-0.5-0.1-0.8-0.5-1.2-0.9
		c0-21,0-42,0-63c0.4-0.3,0.7-0.8,1.2-0.9c9.7-1.2,19.5-1.2,29.2,0C510.2,510.3,510.5,510.7,510.9,511.1z"/>
	<path class="st59" d="M603,603c0,20.3,0,40.7,0,61c-10.6,0-21.2,0-31.8,0c0-20.3,0-40.7,0-61C575.9,600.7,598.3,600.7,603,603z"/>
	<path class="st49" d="M603,603c-10.6,0-21.2,0-31.8,0c0-18,0-36,0-54c4.6-2.3,27.1-2.3,31.8,0C603,567,603,585,603,603z"/>
	<path class="st60" d="M151,942c-9-1.6-18-1.7-27,0c-8.3-15.1-15.4-30.7-21-47c15.1,0,30.3,0,45.4,0c1.6,0,3.8-1,4.6,1.7
		c0.1,2.8-1.9,4.8-2.2,7.5c-0.5,11.2-0.8,22.5,0.2,33.7C151.4,939.2,152.1,940.6,151,942z"/>
	<path class="st61" d="M956.1,947c-9.1-0.5-18.2,1.1-27.2-1.1c4.4-14.1,2.4-28.6,2.2-43c0-1,0-2,0.6-2.9c1.4-0.4,2.8-1,4.3-1
		c12.3-0.1,24.5,0,36.8-0.1c2.2,0,4,0.3,4.3,3C971,917.4,964.5,932.6,956.1,947z"/>
	<path class="st62" d="M603,549c-10.6,0-21.2,0-31.8,0c0-17.3,0-34.7,0-52c4.6-2.3,27.1-2.3,31.8,0C603,514.4,603,531.7,603,549z"/>
	<path class="st41" d="M479.2,574c10.5,0,21.1,0,31.6,0c0,17.3,0,34.7,0,52c-0.4,0.3-0.7,0.8-1.2,0.9c-9.7,1.2-19.5,1.2-29.2,0
		c-0.5-0.1-0.8-0.5-1.2-0.9C479.2,608.7,479.2,591.4,479.2,574z"/>
	<path class="st63" d="M249,1029.9c-22.1,0-44.1,0.1-66.2,0.1c-6.1-6.6-11.7-13.5-16.8-20.9c1.4-1.8,3.3-1.1,5.1-1.1
		c24.2,0,48.4,0.1,72.7-0.1c4,0,5.7,0.8,5.4,5.2C248.8,1018.7,249,1024.3,249,1029.9z"/>
	<path class="st42" d="M510.9,511.1c-10.6,0-21.1,0-31.7,0c0-16.7,0-33.3,0-50c9.2,0,18.3,0.1,27.5-0.1c3.1-0.1,4.5,0.7,4.4,4.1
		C510.9,480.4,510.9,495.7,510.9,511.1z"/>
	<path class="st64" d="M603,497c-10.6,0-21.2,0-31.8,0c0-16.3,0-32.7,0-49c9,0,18,0.1,27-0.1c3.5-0.1,5,0.7,5,4.6
		C602.9,467.4,603,482.2,603,497z"/>
	<path class="st50" d="M479.2,626c10.5,0,21.1,0,31.6,0c0,13.3,0,26.7,0,40c-10.5,0-21.1,0-31.6,0
		C479.2,652.7,479.2,639.3,479.2,626z"/>
	<path class="st27" d="M558,753.2c-4.5,1.8-9.1,0.7-13.7,0.7c-6.4,0-12.8,0.9-19.2-0.6C536.1,753.2,547.1,753.2,558,753.2z"/>
	<path class="st54" d="M73.3,761c1.6,2.2,0.5,4.7,0.8,7C73.1,765.8,73.2,763.4,73.3,761z"/>
	<path class="st34" d="M74.1,686.9c-0.3,2.3,0.8,4.8-0.8,7C73.3,691.6,73.1,689.2,74.1,686.9z"/>
	<path class="st34" d="M75.1,676.9c-0.1,1.7,0.6,3.5-0.7,5.1C74.2,680.2,74.2,678.5,75.1,676.9z"/>
	<path class="st2" d="M949,275.6c0-7.3,0-14.6,0-22c0-5.7,1.9-7.5,7.4-7.6c7-0.1,14-0.1,21,0c9.1,0.1,16.4,5.2,19.2,13.2
		c2.9,8.4,0.3,17.3-7.1,22.5c-2.7,1.9-2.1,2.9-0.5,4.9c2.5,2.9,4.8,6,7,9c2.2,2.9,2.5,6-0.5,8.4c-3.2,2.6-6.2,1.6-8.6-1.5
		c-2.7-3.6-6.1-6.8-8.1-10.7c-3.6-7-9.5-6.6-15.7-6.3c-2.5,0.1-2.5,1.6-2.5,3.4c0,3.5,0.1,7-0.1,10.5c-0.2,3.7-2.1,6.1-5.9,6
		c-3.8-0.1-5.5-2.7-5.5-6.4c0-0.2,0-0.3,0-0.5C949,290.9,949,283.3,949,275.6z"/>
	<path class="st0" d="M931.7,900.1c2.9,9.4,0.8,19,1.4,28.6c0.4,6.2,0,12.2-4.3,17.3c-4.4,3.7-9.5,4.9-15.2,4.9
		c-248.1-0.1-496.2-0.1-744.4,0c-7.8,0-14-2.2-18.3-8.9c-0.4-1-0.7-2-1.1-3c-0.6-12-0.5-24,0-35.9c-0.1-2.7,2-4.3,3.1-6.3
		c4.9-4.3,10.5-5.6,17-5.6c247.8,0.1,495.7,0.1,743.5,0C921.3,891.1,927.5,893.3,931.7,900.1z"/>
	<path class="st0" d="M833.1,1019.9c-0.1,4.7-0.1,9.3-0.2,14c-0.2,9.6-6.8,16.2-16.4,16.5c-0.8,0-1.7,0-2.5,0
		c-181.8,0-363.5,0-545.3,0c-11,0-16.9-4.5-18.8-14.4c0-8.2,0-16.3,0-24.5c0-15.7,4.8-20.5,20.3-20.5c117.8,0,235.5,0,353.3,0
		c63,0,125.9,0,188.9,0c14.6,0,20.4,5.9,20.4,20.5C832.9,1014.3,833,1017.1,833.1,1019.9z"/>
	<path class="st38" d="M149.9,903c-0.5,12-0.5,24,0,35.9c-1.7-2.4-0.9-5.2-0.8-7.7C149.5,921.8,148,912.3,149.9,903z"/>
	<path class="st37" d="M970.1,274.2c-9.5,0-9.5,0-9.5-9.2c0-1.2,0.1-2.3,0-3.5c-0.4-3.2,0.7-4.6,4.1-4.3c4.1,0.3,8.3-0.1,12.5,0.1
		c5.7,0.3,9,3.5,9,8.6c0,5-3.3,8.1-9.1,8.3C974.7,274.3,972.4,274.2,970.1,274.2z"/>
</g>
</svg>
