<?xml version="1.0" encoding="utf-8"?>
<!-- Generator: Adobe Illustrator 25.2.1, SVG Export Plug-In . SVG Version: 6.00 Build 0)  -->
<svg version="1.1" id="图层_1" xmlns="http://www.w3.org/2000/svg" xmlns:xlink="http://www.w3.org/1999/xlink" x="0px" y="0px"
	 viewBox="0 0 3104.9 499" style="enable-background:new 0 0 3104.9 499;" xml:space="preserve">
<style type="text/css">
	.st0{fill:#1A1F2A;}
	.st1{fill:#28A8A7;}
	.st2{fill:url(#SVGID_1_);}
	.st3{fill:url(#SVGID_2_);}
	.st4{fill:url(#SVGID_3_);}
	.st5{fill:url(#SVGID_4_);}
</style>
<g id="图层_3">
	<path class="st0" d="M890.8,163.7c0-76.3,70.8-114.2,142.7-114.2c71.3,0,143.2,37.9,143.2,114.2v134.2
		c0,76.3-71.8,114.7-143.2,114.7c-71.8,0-142.7-38.4-142.7-114.7V163.7z M948.2,297.4c0,37.9,42.4,57.4,85.3,57.4
		c43.4,0,85.8-19.5,85.8-57.4V164.7c0-40.4-42.9-57.4-85.8-57.4c-42.9,0.5-85.3,18-85.3,57.4V297.4z"/>
	<path class="st0" d="M1228.6,165.2c27.9-12.5,64.8-21.4,99.3-21c54.9,0.5,104.8,24,104.8,90.3v91.3c0,57.4-50.9,86.3-100.8,86.8
		c-16.6,0.3-33.1-2.7-48.4-9V492h-54.9V165.2z M1283.4,358.3c12.7,4.3,26,6.3,39.4,6c26.9,0,52.4-10.5,54.9-38.4v-92.3
		c0-29.9-25.4-41.4-52.9-41.4c-14.5,0-29.4,3-41.4,8.5V358.3z"/>
	<path class="st0" d="M1671.1,359.8c-20,35.4-58.9,52.9-92.8,52.9c-50.9,0-102.3-29.4-102.3-88.8v-90.8c0-60.4,51.4-88.8,102.3-88.8
		c49.4,0,100.8,28.4,100.8,88.8v70.8h-147.7v18c0,23.4,22.4,37.4,45.9,37.4c19,0,38.4-6.5,47.9-25.9L1671.1,359.8z M1626.2,234.1
		c0-23.9-23.4-36.4-47.4-36.4c-24.4,0-48.4,12-47.4,37.4v23.4h94.8V234.1z"/>
	<path class="st0" d="M1725.4,165.2c25.4-13,57.4-20.4,88.3-21c58.9-0.5,113.8,25.4,113.8,91.8v171.7h-54.4V236.6
		c-1.5-28.9-29.4-40.9-55.9-40.9c-14,0-27.4,3-36.9,9v203h-54.9L1725.4,165.2z"/>
	<path class="st1" d="M2263.3,49.5h57.4v295.4h162v57.9h-219.4V49.5z"/>
	<path class="st1" d="M2901.8,347.4h79.8c37.9,1,65.4-13.5,65.4-51.9s-25.4-53.9-65.4-53.4H2844v-51.9h137.7
		c28.9,0,50.4-13,50.4-45.4c0-26.9-22.5-39.9-50.4-39.9H2844V49.5h137.7c58.9,0,107.3,31.9,107.3,97.3c0,23.9-9.5,51.9-32.4,66.9
		c38.4,16.5,48.4,48.4,48.4,83.8c-1.5,77.8-54.4,105.3-123.7,105.3H2844v-55.4H2901.8z"/>
	<path class="st1" d="M2663.8,49.5h-159V50c0,31.7,25.7,57.4,57.4,57.4h101.6c39.4,0,74.3,16,74.3,53.4v132.7
		c0,36.9-34.9,51.4-74.3,51.4h-73.4V206.6c0-31.7-25.7-57.4-57.4-57.4c0,0,0,0,0,0v253.5h130.8c68.9,0,132.2-32.4,132.2-109.3V160.8
		C2796,83.4,2732.7,49.5,2663.8,49.5z"/>
	<path class="st1" d="M2217.6,234.3L2159.8,360h-45.4L2056,234.3l-29.4-84.8h-5l10.5,97.8v161.6h-57.4V55.7h64.3l97.3,229.5
		l74.7-174.4l6.7-15.7"/>
	
		<linearGradient id="SVGID_1_" gradientUnits="userSpaceOnUse" x1="312.9" y1="250.64" x2="750.54" y2="250.64" gradientTransform="matrix(1 0 0 -1 0 502)">
		<stop  offset="0.2" style="stop-color:#1BA7A3"/>
		<stop  offset="0.25" style="stop-color:#02645C"/>
		<stop  offset="0.99" style="stop-color:#087874"/>
	</linearGradient>
	<path class="st2" d="M534.4,388.6V3.7L398,267.8V480c0,10.5,8.5,19,19,19l0,0h180c10.5,0,19-8.5,19-19l0,0v-91.2L534.4,388.6z"/>
	
		<linearGradient id="SVGID_2_" gradientUnits="userSpaceOnUse" x1="-26.1276" y1="498.2049" x2="262.2424" y2="-233.3952" gradientTransform="matrix(1 0 0 -1 0 502)">
		<stop  offset="0.11" style="stop-color:#005C58"/>
		<stop  offset="1" style="stop-color:#087874"/>
	</linearGradient>
	<path class="st3" d="M135,499V0H0v478.8C0,490,9,499,20.2,499H135z"/>
	
		<linearGradient id="SVGID_3_" gradientUnits="userSpaceOnUse" x1="177.385" y1="1137.86" x2="177.385" y2="-835.87" gradientTransform="matrix(1 0 0 -1 0 502)">
		<stop  offset="0.3273" style="stop-color:#5CB6B6"/>
		<stop  offset="0.3354" style="stop-color:#0A7B79"/>
		<stop  offset="0.6" style="stop-color:#0D928C"/>
	</linearGradient>
	<path class="st4" d="M351.9,362.5l-175-345.2C170.6,6.6,159,0,146.5,0H2.9l247.7,483c5.7,11.1,19.4,15.5,30.5,9.8
		c4.3-2.2,7.7-5.7,9.9-10L351.9,362.5z"/>
	
		<linearGradient id="SVGID_4_" gradientUnits="userSpaceOnUse" x1="83.1697" y1="367.1904" x2="1081.0897" y2="360.9104" gradientTransform="matrix(1 0 0 -1 0 502)">
		<stop  offset="0.33" style="stop-color:#5CB6B6"/>
		<stop  offset="0.34" style="stop-color:#0A7B79"/>
		<stop  offset="0.6" style="stop-color:#0D928C"/>
	</linearGradient>
	<path class="st5" d="M398,270.7v-248c0-10.5,8.5-19,19-19h117.4L398,270.7z"/>
</g>
</svg>
