<svg xmlns="http://www.w3.org/2000/svg" viewBox="0 0 205.67 38.49"><defs><style>.cls-1{fill:#f48220;}.cls-2{fill:#0c3766;}.cls-3{fill:#f48322;}.cls-4{fill:#0c3666;}.cls-5{fill:#f48221;}.cls-6{fill:#0d3867;}.cls-7{fill:#f1f4f6;}.cls-8{fill:#fdf5ee;}</style></defs><g id="图层_2" data-name="图层 2"><g id="图层_1-2" data-name="图层 1"><path class="cls-1" d="M29.13,35.31c-1.43-4.51-2-8.36.34-12.67s.07-9.47-3.93-12.23a10.83,10.83,0,0,0-13,.61C8.76,14.19,7,19.55,9.69,23.53c2.85,4.26,1.14,7.75.11,11.71C2.65,31.26-1.33,22.93.41,16,2.82,6.4,10.53,0,19.55,0A19.57,19.57,0,0,1,37.88,14.33C40.2,22.48,36.83,30.77,29.13,35.31Z"/><path class="cls-2" d="M185.07,20.73c0-6.11-.08-10.73,0-15.33.06-2-1.21-4.73,2.92-4.77,3.88,0,3.24,2.29,3.25,4.55,0,7.79.05,15.58-.06,23.37,0,1.44,1.07,3.72-1.38,4.12-2.2.36-4.47.54-6-2.15-2.7-4.75-5.74-9.3-8.73-13.88-.77-1.18-1.13-2.74-3.2-3.57,0,5.63,0,11,0,16.39,0,2-.09,3.42-2.84,3.38-2.6,0-3.45-.8-3.41-3.4.14-8.12,0-16.25.1-24.37,0-1.47-1-3.78,1.3-4.19,2.12-.39,4.49-.8,6.09,1.9,3,5.13,6.44,10,9.7,15C183.3,18.46,183.8,19.05,185.07,20.73Z"/><path class="cls-3" d="M104.87,19.35c0-4.09,0-8.18,0-12.28,0-1.91.35-3.1,2.69-3.17,2.59-.08,3,1.16,3,3.33-.08,7.3,0,14.6-.06,21.89,0,1.31.79,3.23-1.51,3.59-2.07.31-3.81,0-4.92-2.25a116.12,116.12,0,0,0-8.72-15.2c0,4.67,0,9.34,0,14,0,1.93.11,3.55-2.72,3.56-2.66,0-2.93-1.3-2.91-3.4.06-7.13,0-14.26.06-21.39,0-1.44-1-3.65,1.6-4,2.29-.31,4.55-.46,5.87,2.35,2.11,4.46,4.55,8.77,6.85,13.15Z"/><path class="cls-3" d="M75.81,32.76c-10.17-.08-10.17-.08-10.17-10,0-5.15.12-10.29,0-15.43-.09-2.64.85-3.5,3.44-3.4,4.31.16,8.64.13,13,0,2.32-.07,3.32.71,3.26,3.12S83.89,9.73,82,9.67c-2.16-.07-4.32,0-6.48,0-1.76,0-3.28,0-3.31,2.48s1.27,2.74,3.16,2.63c.83,0,1.67.05,2.49,0,2-.15,3,.39,3.14,2.68s-1,2.84-3,2.73c-1.16-.07-2.32,0-3.49,0-2.59-.05-2.3,1.81-2.3,3.46S72,27.08,74.59,27s5,.06,7.47,0c2.2-.06,3.86.05,3.82,3.06,0,2.81-1.66,2.73-3.59,2.69C80.13,32.72,78,32.76,75.81,32.76Z"/><path class="cls-2" d="M149.83.74c7.72,0,11.22,2.1,12.46,7.32,1.41,5.94-2.19,11.5-8.67,12-4.34.35-5.36,2-4.79,5.81.17,1.13-.07,2.33,0,3.48.24,2.44-.45,3.49-3.24,3.5-3.06,0-3-1.58-3-3.75,0-8.13.2-16.28-.06-24.41-.11-3.46,1.16-4.42,4.29-4A22.93,22.93,0,0,0,149.83.74Z"/><path class="cls-4" d="M113.64,1.23C118.48-.29,120.92,1.09,122,6s3.12,9.75,5.17,15.92c2-6.1,4-11,5.27-16.15,1.11-4.53,3.37-6,8.21-4.51Q135.37,16.11,130.12,31c-.55,1.56-1.65,1.76-3.1,1.8-1.66.05-2.3-.73-2.81-2.16C120.73,20.82,117.17,11,113.64,1.23Z"/><path class="cls-5" d="M43.52,17.83a35.21,35.21,0,0,1,0-4c.37-3.22-1.6-8.38,1-9.27a19.35,19.35,0,0,1,15,.88c3.71,1.93,4.53,5.58,3.89,9.45C62.75,19,60.08,21.84,56,21.65c-5.48-.24-6.91,2-6.26,6.94.27,2.08.53,4.24-3,4.26-3.35,0-3.29-1.75-3.24-4.08C43.57,25.13,43.52,21.48,43.52,17.83Z"/><path class="cls-6" d="M19.33,38.48c-3.51.13-5.23-.68-4-4.87,1.13-3.85,3-7.91-1.15-11.8-2-1.88-1-5.09,1.35-7a5.59,5.59,0,0,1,7.74,0c2.29,1.89,3.5,5.11,1.41,7-4.27,3.91-2.17,7.94-1,11.73C25.12,38.15,22.62,38.44,19.33,38.48Z"/><path class="cls-7" d="M151.47,6.49c2.75.2,4.5,1.37,4.39,4.29s-1.83,4.13-4.53,4.16c-4.24.05-2.11-3.23-2.45-5.07S148.63,6,151.47,6.49Z"/><path class="cls-8" d="M49.73,13.24c.13-2.08-.74-4.61,2.88-4.4,2.69.16,4.47,1.22,4.59,4,.14,3.18-1.92,4.12-4.75,4.27C49.19,17.29,49.85,15,49.73,13.24Z"/><path class="cls-2" d="M199.66,12.88a6,6,0,1,1,6-6A6,6,0,0,1,199.66,12.88Zm0-11a5,5,0,1,0,5,5A5,5,0,0,0,199.66,1.85Z"/><path class="cls-2" d="M202.75,10.9h-1.2l-2.43-3.76h-1.07V10.9h-1V2.63h2.34a2.79,2.79,0,0,1,1.86.57A1.94,1.94,0,0,1,202,4.79a2,2,0,0,1-.49,1.34,2.48,2.48,0,0,1-1.38.8Zm-4.7-4.6h1.22a1.83,1.83,0,0,0,1.23-.41,1.32,1.32,0,0,0,.48-1c0-.92-.56-1.38-1.69-1.38h-1.24Z"/></g></g></svg>