<svg xmlns="http://www.w3.org/2000/svg" viewBox="0 0 168.85 168.87"><defs><style>.cls-1{fill:#fefefe;}.cls-2{fill:#fdfdfd;}.cls-3{fill:#474747;}.cls-4{fill:gray;}.cls-5{fill:#018001;}</style></defs><g id="图层_2" data-name="图层 2"><g id="图层_1-2" data-name="图层 1"><path d="M84.55,168.83c-24.79,0-49.59,0-74.38,0-3.48,0-6.3-1-8.41-3.74A10.38,10.38,0,0,1,0,158.68q0-19.38,0-38.75Q0,65.29,0,10.63C0,6.88,1,3.5,4.56,1.47A10.36,10.36,0,0,1,9.69,0Q84.54,0,159.4,0c5.17,0,9.52,3.44,9.45,9.71-.13,14,0,28.06,0,42.09q0,53.46,0,106.91c0,4.27-1.37,7.41-5.27,9.4-1.6.82-3.25.66-4.89.66Q121.62,168.86,84.55,168.83Z"/><path class="cls-1" d="M38.6,96.33q0-19.6,0-39.21c0-6.38,3.07-9.42,9.51-9.42q39.09,0,78.19,0c3.44,0,6.57.72,8.44,4.11.91,1.63.81,3.4.81,5.09q.09,39.47,0,78.91c0,3.28-.51,6.31-3.93,8a11.77,11.77,0,0,1-5.31,1c-26.06,0-52.13,0-78.19,0-7,0-9.69-4-9.62-9.78C38.71,122.16,38.6,109.25,38.6,96.33Z"/><path class="cls-2" d="M54.82,19.27c0,4.48-3.94,8.63-8.36,8.43-5.41-.24-8.1-3.39-8.22-8.3C38.11,13.79,42.33,11,46.51,11A8.33,8.33,0,0,1,54.82,19.27Z"/><path class="cls-2" d="M76.3,19.18c0-5.63,4.29-7.94,8.15-8.19,4.41-.28,8.43,3.87,8.49,8.37.07,4.32-4.06,8.4-8.48,8.37A8.17,8.17,0,0,1,76.3,19.18Z"/><path class="cls-2" d="M132,22.37c-2.8,4.69-5.48,5.83-10.18,4.95-3.31-.63-5.79-4.75-6.06-7.46-.32-3.26,2.2-6.85,5.22-8.19,4-1.78,8.78.23,11,4.45A8.11,8.11,0,0,1,132,22.37Z"/><path class="cls-2" d="M156.93,19.15c-.48,5.73-3.13,8.17-8,8.54-4.55.34-8.41-3.63-8.33-8.31.1-5.79,3.82-8.13,8.06-8.34A7.79,7.79,0,0,1,156.93,19.15Z"/><path class="cls-2" d="M14.14,16.08c2.59-6,11-7,14.56-1.14,2.46,4,1.82,8.47-2.83,11.67A7.88,7.88,0,0,1,15,24c-.24-.39-.52-.76-.79-1.14A8.21,8.21,0,0,1,14.14,16.08Z"/><path class="cls-3" d="M132,22.37a25.63,25.63,0,0,0,0-6.25A5.14,5.14,0,0,1,132,22.37Z"/><path class="cls-4" d="M14.14,16.08a15.48,15.48,0,0,0,.06,6.74C12.78,21.1,12.74,17.61,14.14,16.08Z"/><path class="cls-5" d="M87.39,80c5.74,0,11.48,0,17.22.06,1.94,0,2.59-.1,2.36-2.33a21.78,21.78,0,0,1,.06-3.52c0-.65-.4-1.56.5-1.91.64-.25,1.19.34,1.69.69,4.2,3,8.41,5.92,12.56,9,3.83,2.8,3.8,2.84-.12,5.52-4.26,2.92-8.58,5.74-12.76,8.77-1.49,1.08-1.82.9-1.91-.82s.83-4.17-.43-5.28c-1.41-1.22-3.82-.38-5.78-.39-10.2,0-20.4-.07-30.6,0-1.84,0-2.45-.6-2.27-2.3A15,15,0,0,0,68,85.24C67.88,79.9,68,79.91,74,80c4.47.05,8.93,0,13.39,0Z"/><path class="cls-5" d="M50.19,105.2c5.23-3.38,10.26-7,15.3-10.69.58-.42,1.08-1.41,2-1s.46,1.41.46,2.13c0,5.94,0,5.93,6,5.91,10.2-.05,20.4-.05,30.59-.16,1.6,0,2.34.32,2.21,2.07a29,29,0,0,0,.17,4c.21,3.34.16,3.4-3.1,3.4H71.08c-3.12,0-3.07,0-3.14,3.15,0,1.4.68,3.46-.41,4-1.27.68-2.45-1.2-3.63-2-4.32-2.79-8.52-5.75-12.77-8.65C50.45,106.86,49.13,106.53,50.19,105.2Z"/></g></g></svg>