<?xml version="1.0" encoding="utf-8"?>
<!-- Generator: Adobe Illustrator 26.0.3, SVG Export Plug-In . SVG Version: 6.00 Build 0)  -->
<svg version="1.1" id="Layer_1" xmlns="http://www.w3.org/2000/svg" xmlns:xlink="http://www.w3.org/1999/xlink" x="0px" y="0px"
	 viewBox="0 0 516 550" style="enable-background:new 0 0 516 550;" xml:space="preserve">
<style type="text/css">
	.st0{fill:#FFFFFF;}
	.st1{fill:#040000;}
	.st2{fill:#658033;}
	.st3{fill:#618134;}
	.st4{fill:#668033;}
	.st5{fill:#677F32;}
	.st6{fill:#648033;}
	.st7{fill:#667F32;}
	.st8{fill:#638033;}
	.st9{fill:#628133;}
	.st10{fill:#FAFBEF;}
	.st11{fill:#6A8235;}
	.st12{fill:#6A8134;}
	.st13{fill:#DCE6C1;}
	.st14{fill:#D9E2C1;}
	.st15{fill:#E2EAC3;}
	.st16{fill:#CBD2A3;}
	.st17{fill:#FEFEFE;}
	.st18{fill:#EDEDEE;}
	.st19{fill:#F3F3F4;}
	.st20{fill:#D8D6D7;}
	.st21{fill:#F0F0F0;}
	.st22{fill:#E5E4E3;}
	.st23{fill:#F4F4F4;}
	.st24{fill:#FEFEFC;}
	.st25{fill:#FDFDFA;}
	.st26{fill:#E2E7C6;}
	.st27{fill:#FDFEFD;}
	.st28{fill:#FBFCF6;}
	.st29{fill:#D3DDB5;}
	.st30{fill:#FFFEFD;}
</style>
<g id="mg4SS9.tif">
	<g>
		<path class="st0" d="M0.5,275c0-90.3,0-180.6-0.1-270.9C0.4,0.7,1,0,4.4,0C173.7,0.1,343,0.1,512.3,0c3.4,0,4.1,0.7,4.1,4.1
			c-0.1,180.6-0.1,361.2,0,541.8c0,3.4-0.7,4.1-4.1,4.1c-169.3-0.1-338.5-0.1-507.8,0c-3.4,0-4.1-0.7-4.1-4.1
			C0.5,455.6,0.5,365.3,0.5,275z"/>
		<path class="st1" d="M413.9,197.9c2.7,2.4,3.7,5,4.5,7.6c9.9,29.7,9.6,59.5,1.2,89.4c-7.6,27.1-18.2,52.9-34.8,75.8
			c-14.4,19.8-31.6,36.6-56.5,42.8c-15.7,3.9-31.2,2.3-46.1-3.4c-8.2-3.1-12.9-10.4-16-18.3c-2.3-5.9,0.7-11.3,7.6-15
			c8.5-4.6,14.5-11.3,18.6-20.1c2.8-6.1,1.4-11.3-2.5-16.2c-4.1-5.1-9.2-9.1-13.8-13.7c-1-1-3.1-1.5-2.4-3.3
			c0.5-1.4,2.4-0.9,3.6-1.1c13.7-2,27.3-4.2,41-5.8c23.4-2.8,42-13.9,56.7-32C395.5,259.4,407.6,230.3,413.9,197.9z"/>
		<path class="st1" d="M222.9,416.8c-18.6,0.4-34.2-6.5-47-18.7c-22.5-21.6-38.5-47.4-46.1-78c-6-23.8-4.3-47.6,1-71.2
			c0.7-2.9-0.5-7.5,3.9-8.3c4.3-0.8,4.8,3.9,6.8,6.2c4.1,4.6,7,10,9.7,15.6c6.8,14.1,16.3,26.2,29.3,34.6
			c18.7,12.2,33.2,28.7,48.6,44.3c8.2,8.3,16.1,16.9,24.1,25.3c8.3,8.6,11.7,18.6,7.8,30.2c-3.9,11.4-12.9,16.7-24.3,18.8
			C232.1,416.4,227.3,417,222.9,416.8z"/>
		<path class="st1" d="M49.9,328.6c0.9-14.5,2.7-31.8,12.2-47.3c2.2-3.6,4.9-6.6,8.2-9c6.9-5,14.8-2.9,20.3,5.6
			c3.9,6,7.4,12.2,11.3,18.3c2,3.2,4.1,6.7,8.8,6.2c2.4-0.2,2.5,1.8,3.1,3.2c11.1,26.2,22.2,52.3,33.3,78.5c0.7,1.6,2,3.5-1.3,4
			c-17.7,3-34.9,8.2-52.5,11.8c-16.9,3.5-26.5-2.8-33-18.3C53.5,365.7,50.1,349,49.9,328.6z"/>
		<path class="st1" d="M489.4,327.6c-0.1,21.3-4.3,39.1-11.6,56c-5.6,13-16.9,18.3-31.8,14c-17-4.9-34.2-8.4-51.4-12.4
			c-3.4-0.8-4-1.7-2.4-4.9c12.3-25.1,24.3-50.3,36.5-75.5c0.6-1.3,1-3.1,2.8-3.2c4.8-0.2,6.2-3.8,7.7-7.4c2.9-6.7,5.3-13.7,9.6-19.7
			c5-7.1,11.7-8.5,19.1-3.8c7,4.4,11.8,10.7,14.6,18.5C487.4,302.4,489.6,316.2,489.4,327.6z"/>
		<path class="st1" d="M258.8,286.2c-14.2,0.1-29.9-10.9-35.7-26.2c-7.3-19.3-7-38.5,3.3-56.8c7.4-13,19.1-20.3,33.9-21.8
			c19.8-1.9,34,15.5,28.7,34.7c-1.1,4-2.4,8-3.6,11.9c-2.2,7.1-1.8,14.1,0.4,21.1C291.5,267.5,278,286,258.8,286.2z"/>
		<path class="st1" d="M141.6,96.4c11.5-0.3,23.1,4.5,34.6,10.1c3,1.5,1.5,2.8,0.1,4.5c-12.8,14.5-22.5,30.8-28.1,49.5
			c-0.9,3-1.7,6.1-2.5,9.1c-1.2,4.3-4.2,6.7-8.4,5.9c-15.9-3-29.5-12.9-34.5-32c-4.3-16.4,1.7-31.9,15.5-40.9
			C123.9,98.9,130.9,96.9,141.6,96.4z"/>
		<path class="st2" d="M505.2,499c7.9,14.7-1.4,32.1-20.5,32.8c-10.3,0.3-20.6,0.1-31,0.1c-5.9,0-8.5-2.6-8.6-8.6
			c-0.1-12,0-24-0.1-36c0-8.7-0.1-17.3-0.1-26c0-5.3,3.1-8.7,8.2-8.7c9.7-0.1,19.3,0,29,0c6.9,0.1,13,2.4,18,7.3
			c7.6,9,5.9,18.2-5.7,29.7C498.5,492.3,502.7,494.7,505.2,499z"/>
		<path class="st1" d="M400.2,205.9c-0.5,10.9-5.3,23.2-16.8,32.2c-6.9,5.3-13.1,3.5-15.3-4.8c-5.2-20.2-16.7-36.8-29.3-52.8
			c-1.2-1.6-2.4-3.2-3.6-4.8c-5.9-8.4-6.3-15.4-1.2-23.1c4.8-7.2,10.7-9.1,21-6.7C380.7,151.8,400,176,400.2,205.9z"/>
		<path class="st3" d="M367.2,492c0-10.1-0.1-20.3,0-30.4c0-6.4,2.4-8.9,8.7-9c8.8-0.1,17.6-0.2,26.4,0.2c15.5,0.7,26.5,8.7,31,23.7
			c4,13.4,3.6,27.1-3.7,39.6c-5.5,9.6-14.4,14.8-25.3,15.5c-9.9,0.7-19.9,0.4-29.9,0.3c-4.7,0-6.9-2.7-7-8.4
			C367.1,512.9,367.2,502.5,367.2,492C367.2,492,367.2,492,367.2,492z"/>
		<path class="st1" d="M350.4,71.1c-0.3,2.9-0.9,8.2-1.6,13.4c-0.8,5.6-2.2,6.2-7.3,3.1c-6.4-3.9-12.8-7.8-19.8-10.5
			c-13.4-5.2-27.2-8.8-41-12.3c-1.9-0.5-3.8-1.1-5.6-2c-1.7-0.8-2.5-2.3-1.6-4.1c6.4-12,13.2-23.9,27.1-28.5
			C325,22.1,350.5,42,350.4,71.1z"/>
		<path class="st4" d="M276.4,524.8c-11.4,9.7-21.2,10.9-31,4.1c-6.6-4.6-9.2-11.7-10.5-19.2c-1.5-8.5-0.6-17,3.2-24.9
			c6.9-14.3,24-17.3,35.9-6.6c0.6,0.5,1.3,1,3.1,2.3c0-5.7,0-10.3,0-15c0-2,0-4,0-6c0.2-5.1,3.3-8.4,7.9-8.4c4.8,0.1,8,3.1,8.1,8.2
			c0.1,19.5,0.1,38.9,0.1,58.4c0,2.2,0,4.3,0,6.5c-0.1,5.4-2.3,8.3-6.7,8.9c-4.8,0.6-7.9-1.6-9.5-6.7
			C277,526,276.8,525.6,276.4,524.8z"/>
		<path class="st5" d="M265.5,363.7c-22.5-23.3-45.1-46.6-67.6-70c-5.3-5.5-11.1-10.6-17.3-15c-2.7-2-2.5-3.3-0.1-5.2
			c3.4-2.7,6.7-5.4,9.9-8.4c3.1-2.9,5.1-1.6,7.4,1c9.7,11.2,19.8,22,30.8,32c16.3,14.7,32.5,29.4,48.7,44.2
			c6.2,5.6,6.5,7.5,3.1,14.5c-1.3,2.5-3,4.7-5,6.6C271.8,366.7,269.6,366.8,265.5,363.7z"/>
		<path class="st6" d="M188.3,254.7c0,1.4-13.8,13.7-15,13.5c-1.3-0.2-1.8-1.4-2.4-2.3c-12.2-19.6-29.2-34.8-45.9-50.2
			C111.6,203.2,98.8,190,86,177c-8.5-8.7-17.3-17.1-27.2-24.2c-3.2-2.3-2.7-3.9-0.2-6.2c7.6-7,7.6-7.2,15,0
			c28.2,27.5,56.4,55.1,84.5,82.8c8.3,8.2,16.5,16.4,26.9,22C186.3,252.3,187.9,253.1,188.3,254.7z"/>
		<path class="st7" d="M338.9,524.9c-6.7,7-14.5,9.6-24,7.2c-7.1-1.8-12.7-7.6-13.3-14.4c-0.8-8.7,2.4-14.3,9.8-17.8
			c6.7-3.2,14-2.5,21-3.4c2.4-0.3,6.6,1.8,6.9-3.3c0.2-4.7-2.9-8.4-7.5-9.1c-4.8-0.7-8.9,0.4-12.2,4.1c-0.8,0.9-1.6,1.7-2.5,2.4
			c-3.4,2.7-7.2,3.2-10.5,0.3c-3.4-3-2.1-6.8-0.1-10c3.1-5.1,8.3-7,13.7-8.4c8-2,15.9-1.7,23.5,1.4c8.1,3.4,11.6,10.2,11.8,18.7
			c0.1,10,0,20-0.1,30c-0.1,6.6-2.2,9.8-6.3,10.4C343.7,533.9,341.1,531.9,338.9,524.9z"/>
		<path class="st8" d="M135.4,531.9c-7.8,2-15.4,2-21.9-3.7c-6.5-5.6-7.7-12.9-3.9-22c2.6-5.7,7.6-8.1,13.3-9.4
			c5.1-1.1,10.2-1.4,15.4-1.3c2,0,4.3,0.3,5.1-2.1c0.8-2.5-0.6-4.5-2.5-6.1c-3.3-2.8-8.9-2.4-12.9,0.8c-1.8,1.5-3.3,3.3-5.3,4.5
			c-3.3,1.9-6.6,2.4-9.8-0.2c-3.1-2.6-3.4-6.1-2-9.6c1.8-4.8,5.5-7.9,10.3-9.4c8.8-2.7,17.7-3.9,26.8-0.7c8.4,3,13.2,8.6,13.9,17.3
			c1,11.3,0.5,22.6,0.4,33.9c0,8.5-5.1,11.7-13.3,9.3c-3.1-5.6-7-6.3-11.8-2.1C136.7,531.6,135.9,531.4,135.4,531.9z"/>
		<path class="st9" d="M188.8,480.1c6.8-7.8,15-10.2,24.5-7.3c7.6,2.3,13,8.5,13.2,16.4c0.4,12.5,0.2,25,0.1,37.5
			c0,3.8-3.5,6.5-7.9,6.6c-5,0.1-8.1-2.5-8.2-7.3c-0.2-9.7,0-19.3-0.2-29c-0.2-8.6-5.1-12.5-13.4-11.1c-5.4,0.9-8.6,5.3-8.7,12.3
			c-0.1,8.5,0,17-0.1,25.5c-0.1,6.3-2.9,9.5-8.3,9.5c-5.2,0.1-8-2.9-8.1-9.1c-0.2-13.8-0.1-27.6-0.1-41.5c0-7,1.5-9.9,5.8-10.7
			C182.9,470.8,185.6,472.6,188.8,480.1z"/>
		<path class="st1" d="M352.4,277.6c2.2-1,3.9-2,5.8-2.7c1.3-0.5,2.7-2.1,4-0.6c1,1.2,0.1,2.9-0.5,4.2c-2.5,5.9-7.7,8.6-13.3,10.4
			c-7.8,2.5-15.3,1.9-23.3-3.3c5.8-1.4,10.7-2.6,15.5-3.7c1-0.2,2-0.3,2.9-0.7c1.5-0.7,3.3-1.6,3.4-3.3c0.1-1.8-1.8-2.9-3.3-3.3
			c-5-1.3-10-2.3-15-3.6c-4.8-1.2-10.6-2.1-12-7.6c-1.5-5.7,3.3-9.4,7.1-12.9c9.2-8.3,20.2-8.7,31.5-6.6c3.9,0.7,5.6,4.8,4.1,9.2
			c-1.2,3.5-2.7,6.8-4.3,10.1C352.9,267.7,351.7,272.1,352.4,277.6z"/>
		<path class="st10" d="M148.4,531.8c8,3.2,12.6,0.3,12.8-8.4c0.2-10,0.3-20,0-30c-0.3-12-4.5-18-16.2-20.8
			c-10.6-2.5-21.3-2.1-30.1,5.8c-4.1,3.7-5,9.5-2.3,12.4c2.8,3.1,8.2,2.5,12.1-2c3.7-4.2,8-5.7,13.4-4.8c3.4,0.5,5.7,2.5,6.7,5.9
			c1.4,4.9,0.5,6.3-4.7,6.6c-4.5,0.3-9,0.7-13.4,0.9c-7.1,0.3-12.7,3.5-17.3,8.6c-0.6-3.7,2.4-5.7,4.4-7.9c1.9-2.2,1.6-2.6-1-3.5
			c-6.5-2.1-6.8-1.6-10.6,4c-3.3,5.1-9.1,7.5-14.8,9c-4.6,1.2-9.3,1.8-14.2,1.3c-6.1-0.7-8.6,2.5-7.3,8.3c1.7,7.9-1.4,14.8-8.3,18.5
			c-3.1,1.7-5.9,1.5-8.5-1.3c-3.6-3.8-5.2-7.6-5.3-13.4c-0.2-12.9,1.4-25.9,0.1-38.7c-0.8-8.3,0.1-16.1,1.2-24.1
			c0.9-6.2,3.3-8.5,9.3-8.5c11.3,0.1,22.6-0.7,33.7,1.9c8.2,1.9,14,6.3,17.1,14.1c1.1,2.7,3.2,5,3.3,8.2c0,1.4,1.7,2.2,3.1,1.4
			c6.2-3.6,13.7-2.9,20.1-6.3c2.7-1.5,6.3,0.1,9.2,0.6c7.8,1.3,14.7,5,19.9,11.3c2.8,3.4,1.4,7.4,1.7,11.1c1,12.1,1.7,24.2-0.4,36.3
			c-1.3,7.3-8.6,9.7-14.8,5.4c-2.2-1.5-4.5-2.9-7.3-2.9c2.3-4.5,2.9-4.6,5.9-0.8C146.8,530.8,147.6,531.4,148.4,531.8z"/>
		<path class="st6" d="M52.3,173.2c15,6.8,29.2,14.7,40.7,28.4c-6.5,0.6-11.4-1.5-16.2-3.2c-17.7-6-33.3-15.6-47.5-27.6
			c-1-0.9-3.1-1.5-2.2-3.3c0.7-1.3,2.4-0.6,3.7-0.6c3.7,0,7.2,0.9,10.7,2.1C45.2,170.1,48.9,171.2,52.3,173.2z"/>
		<path class="st2" d="M28,256.7c17.6-16.8,35.7-32.9,61.1-36.9C74.9,242.2,51.1,248.9,28,256.7z"/>
		<path class="st11" d="M6.4,196c22.8,2,44.7,3.3,66.1,12C60.7,215,14.4,206.4,6.4,196z"/>
		<path class="st12" d="M358.9,425.8c-3.2-1.2-7.6-1.4-8.6-4.5c-1-2.9,1.2-6.5,3.7-8.7c3.5-3,7.5-5.4,11.3-8c1-0.7,2-0.9,3.1,0.1
			c3.8,3.4,4.1,8.8,0.7,12.7C366.1,420.8,363.1,424,358.9,425.8z"/>
		<path class="st13" d="M505.2,499c-3.8-4-7.8-7.6-14.5-8.9c3-1.9,5.2-2.9,7-4.4c6.6-5.6,8.1-14.9,4-22.7c-0.5-1-1.1-2-1.6-3
			c5.6,3.8,7,13.1,3.2,20.9c-1.2,2.4-2.7,4.6-4.9,6.2c-2.5,1.8-1.8,2.9,0.2,4.4C501.3,493.6,504.7,495.1,505.2,499z"/>
		<path class="st14" d="M265.5,363.7c6.3,2.3,7.6,1.9,11.9-3.6c0.9-1.1,1.9-2.1,2.9-3.2c-0.7,3.9-5.5,9.2-9,9.9
			C268.6,367.3,266.5,366.6,265.5,363.7z"/>
		<path class="st15" d="M148.4,531.8c-1.1,0.1-2-0.3-2.5-1.2c-2-3.9-3.8-2.5-5.6,0.2c-1.5,0.9-3.1,1.4-5,1c1.1-0.7,2.1-1.6,3.3-2.1
			c2.4-1,3.7-4.8,6.2-4C146.5,526.4,147.3,529.7,148.4,531.8z"/>
		<path class="st16" d="M52.3,173.2c-3.7-1.2-7.5-2.2-10.9-4.2C45.5,169.2,49.4,170,52.3,173.2z"/>
		<path class="st17" d="M85.4,355.9c-1.1,6-2.1,11.6-4.3,16.8c-2.2,5.1-7,5.7-10.5,1.2c-2.8-3.6-4.3-7.9-5.1-12.3
			c-1.4-7.4-1.7-14.8-0.1-22.2c0.5-2.3,1.6-4.3,3.2-6.1c3.3-3.5,6.5-3.5,8.9,0.5C81.7,340.8,83.3,348.7,85.4,355.9z"/>
		<path class="st18" d="M78.8,296.5c0,0.8-0.1,1.7,0,2.5c0.3,3-0.8,6.1-3.7,6c-3.4,0-4.1-3.3-3.6-6.4c0.3-2.1,0.8-4.2,1.2-6.3
			c0.3-1.6,0.4-3.4,2.8-3.4c2.5,0,3,1.5,3,3.6c0,1.3,0,2.7,0,4C78.6,296.5,78.7,296.5,78.8,296.5z"/>
		<path class="st19" d="M81.8,313.4c-1.5-4.7-2.5-9.2,0.4-13.7c0.7-1.1,1.7-2.3,3-2.3c1.5,0,1.9,1.6,2.4,2.8
			C89.8,305.4,87.8,309.9,81.8,313.4z"/>
		<path class="st20" d="M68.4,303.6c0,0.3,0.1,0.7,0,1c-0.4,1.9,1.3,5.2-1.1,5.5c-2.2,0.3-3.1-3-4-5.1c-0.3-0.7-0.5-1.6-0.4-2.4
			c0.3-2.5-0.1-6.2,3.2-6.3c4-0.1,1.7,3.7,2.3,5.8C68.5,302.6,68.4,303.2,68.4,303.6z"/>
		<path class="st17" d="M457,354.9c0.3-8.3,2.1-15.2,5.9-21.3c3.9-6.3,8.9-6,11.7,0.8c2.8,7.1,5,14.5,2.1,22.2
			c-1.8,4.8-3.5,9.7-5.5,14.4c-1,2.4-2.8,4.1-5.8,3.9c-2.9-0.2-4.3-2.1-5.3-4.5C457.9,365.1,457.2,359.6,457,354.9z"/>
		<path class="st21" d="M462.3,294.9c0-2.9,0.5-5.9,3.4-7.1c1.7-0.7,5.4,5,5.4,8.1c0,3.5-1.6,6.2-4.6,7.7
			C465,304.4,462.3,298.9,462.3,294.9z"/>
		<path class="st22" d="M453.7,302.8c0.2-0.9,0.3-1.8,0.6-2.5c1-1.9,1.8-4.7,4-4.6c2.6,0.1,1.5,3.2,2.1,4.9c0.8,2.5,1.1,5.2,1.6,7.8
			c0.2,0.9,0.7,2.1-0.3,2.7c-0.9,0.5-1.9-0.1-2.8-0.6C455.9,308.8,453.5,306.6,453.7,302.8z"/>
		<path class="st23" d="M477.2,301.1c0,2,0,3.9,0,5.9c0,0.9-0.4,1.7-1.4,1.7c-1,0-1.4-0.7-1.4-1.6c0-3.6,0-7.2,0-10.8
			c0-1,0.2-2,1.6-1.9c1,0.1,1.2,1,1.2,1.8C477.3,297.8,477.3,299.4,477.2,301.1C477.3,301.1,477.2,301.1,477.2,301.1z"/>
		<path class="st17" d="M272.6,217.6c0,9-5,14.6-12.8,14.5c-5.2,0-8.9-2.5-10.8-7.3c-2.4-6.1-2.3-12.1,1.7-17.5
			c3.2-4.3,7.8-4.9,12.6-3.8C269.3,204.8,272.7,210,272.6,217.6z"/>
		<path class="st24" d="M461.9,508.1c0-11.3,0-11.3,11.3-11.2c2.8,0,5.7-0.1,8.4,0.5c6.2,1.3,8.9,4.8,8.9,10.8c0,5.8-3,9.8-9,10.7
			c-5.6,0.7-11.3,0.5-16.9,0.7c-2,0.1-2.5-1.3-2.5-2.9C461.9,513.7,461.9,510.9,461.9,508.1z"/>
		<path class="st25" d="M462,475c0.1-9.8,0.1-9.8,10.1-9.8c2,0,4,0,6,0.2c5.8,0.6,9.2,3.9,9.4,9c0.3,5.1-3.2,9.6-8.6,10.6
			c-4.7,0.9-9.6,0.6-14.4,0.3c-1.9-0.1-2.6-1.1-2.5-2.9C462,479.9,462,477.4,462,475z"/>
		<path class="st17" d="M347.1,175.1c0.1-7.3,5.2-12.7,11.9-12.7c7.8,0,14.6,7.6,14.4,16.1c-0.1,7.7-5.3,13.3-12.1,13
			C353.5,191.3,347,183.7,347.1,175.1z"/>
		<path class="st0" d="M405.4,516.1c-6.1,3.1-12.7,1.6-19.1,1.8c-2.3,0.1-2.4-1.9-2.4-3.6c0-14.8,0.1-29.6,0.1-44.3
			c0-1.7,0.1-3.5,2.5-3.5c5.5,0.1,11-0.7,16.3,1c8.5,2.6,13.5,8.5,14.8,17.5c1,6.5,0.9,12.9-1.2,19.1
			C414.3,509.4,410.2,513.1,405.4,516.1z"/>
		<path class="st26" d="M405.4,516.1c4.1-3.7,7.9-7.6,11.1-12.1C415,510.1,411.5,514.3,405.4,516.1z"/>
		<path class="st27" d="M251.4,502c-0.2-3.2,0.6-6.6,2.1-9.8c3.9-8.5,15.2-9.6,20.3-1.8c4.7,7.3,4.4,15.3,0.9,22.9
			c-2.2,4.7-6.4,7-11.9,6.5c-5.4-0.5-8.1-4.1-10.1-8.5C251.5,508.3,251.4,505.3,251.4,502z"/>
		<path class="st28" d="M326.6,520.9c-5.4,0-8.4-2.1-8.7-6.2c-0.3-3.8,2.7-6.8,7.7-7.4c3.3-0.4,6.6-0.4,9.9-0.8
			c3.3-0.4,4,1.3,3.8,4.2C338.8,516.7,333.6,520.9,326.6,520.9z"/>
		<path class="st29" d="M128.3,520c-3.4-0.4-4.8-2.7-4.9-5.8c0-3.1,1.6-5.3,4.6-6.4c4.8-1.7,9.7-1.6,14.7-1.7c2.6,0,2.7,1.8,2.8,3.8
			C145.8,518.5,135.2,523.8,128.3,520c1.2-1.5,2.9-1.3,4.6-1.4c2.2-0.2,4.2-1.1,6-2.2c2-1.3,4-3,3.2-5.6c-0.7-2.4-3.4-1.3-5.2-1.6
			c-0.8-0.1-1.7,0-2.5,0c-7,0.3-8.4,2.5-6,8.9C128.6,518.8,128.8,519.4,128.3,520z"/>
		<path class="st9" d="M68.1,452.7c7.8,0.2,15.6-1,23.1,2.4c10.1,4.6,14.4,13,14.9,23.5c0.4,11-3.9,19.7-13.8,25.2
			c-7.4,4.1-15.5,3.5-23.4,3.2c-4.8-0.2-6.2,1.5-5.9,5.9c0.3,4.1,0.2,8.3,0,12.5c-0.2,4.9-3.6,7.8-8.5,7.8c-4.8-0.1-8.1-3.2-8.1-8.1
			c0-21.3,0-42.6,0.1-63.9c0-5.7,2.4-8.1,8.2-8.4C59.1,452.5,63.6,452.7,68.1,452.7z"/>
		<path class="st24" d="M128.3,520c-1.9-2.5-4.3-5.1-2.6-8.5c1.7-3.4,5.4-3.4,8.7-3.6c1.3-0.1,2.7-0.2,4,0c2,0.2,4.8-1,5.5,1.9
			c0.5,2.5-0.6,4.9-2.6,6.6C137.6,519.7,133,520.2,128.3,520C128.3,520,128.3,520,128.3,520z"/>
		<path class="st30" d="M63.1,479.7c0-0.8,0-1.7,0-2.5c0-11.2,0-11.2,5.3-11.3c14.8-0.2,20,3.2,20.3,13.1
			c0.3,9.4-4.3,14.3-13.6,14.7c-11.8,0.4-11.8,0.4-11.9-11.5C63.1,481.4,63.1,480.5,63.1,479.7C63.1,479.7,63.1,479.7,63.1,479.7z"
			/>
	</g>
</g>
</svg>
