<?xml version="1.0" encoding="utf-8"?>
<!-- Generator: Adobe Illustrator 26.0.3, SVG Export Plug-In . SVG Version: 6.00 Build 0)  -->
<svg version="1.1" id="图层_1" xmlns="http://www.w3.org/2000/svg" xmlns:xlink="http://www.w3.org/1999/xlink" x="0px" y="0px"
	 viewBox="0 0 1200 500" style="enable-background:new 0 0 1200 500;" xml:space="preserve">
<style type="text/css">
	.st0{fill:#FDFDFD;}
	.st1{fill:#00ADDC;}
	.st2{fill:#319A00;}
	.st3{fill:#FEFEFE;}
</style>
<g>
	<path class="st0" d="M0.1,499.9c0-165.1,0-330.2-0.1-495.3C0,0.8,0.8,0,4.6,0c396.9,0.1,793.9,0.1,1190.8,0c3.7,0,4.6,0.8,4.6,4.6
		c-0.1,163.6-0.1,327.2,0,490.8c0,3.7-0.8,4.6-4.6,4.6C797,499.9,398.5,499.9,0.1,499.9z"/>
	<path class="st1" d="M194.1,258.3c0-15.2-0.2-30.3,0.1-45.5c0.1-4.4-1.3-4.8-5.1-3.9c-9.7,2.4-16,9-21.8,16.5
		c-1,1.3-1.5,2.9-3.7,2.8c-2.3-0.1-3.4-0.4-2.6-3.1c2.2-6.6,3.9-13.5,6.4-19.9c6-15.1,17.8-22.7,33.7-22.9c32.7-0.5,65.3-0.2,98-0.3
		c2.3,0,3.3,0.6,3.2,3.1c-0.1,6.7-0.1,13.3,0,20c0,2.5-0.9,3.2-3.2,3.1c-3.7-0.1-7.3,0.1-11-0.1c-2.5-0.1-3.5,0.6-3.5,3.3
		c0.1,21.7-0.1,43.3,0.2,65c0.1,9.7,2.8,12,12.4,12.1c11.7,0.1,23.3,0,35,0.2c3.2,0.1,3.8-1.7,4.8-3.9c5.1-11.8,16.7-18,29.2-15.9
		c12.3,2.1,21.4,11.9,22.5,24.6c1.2,14.3-10.6,27.7-25.4,28.5c-2.7,0.1-3.9,1.1-5.3,3.3c-29.7,48-73,72.3-129.1,68.1
		c-54.2-4-92.9-33.2-115.6-82.7c-7.5-16.4-10.6-33.9-10.9-51.9c-0.1-5.3,2.7-9.3,6.9-10.4c5.8-1.6,11.1,2.8,11.1,9.4
		c0.2,20.5,5,39.9,15.3,57.7c19.5,33.6,48.6,54.2,87,59.3c44.8,6,81.7-9.7,110.3-44.6c1.2-1.4,2.2-2.9,3.2-4.4
		c7.5-10.7,7.4-10.7,0.3-21.1c-1.1-1.7-2.4-1.4-3.8-1.4c-14,0-28-0.3-42,0c-23.5,0.5-32.3-7.8-32.3-31.3c-0.1-19.7-0.1-39.3,0.1-59
		c0-3.5-0.6-4.9-4.6-4.8c-9.7,0.3-19.3,0.2-29,0c-3.1-0.1-3.9,0.8-3.9,3.9c0.1,14.7,0,29.3,0,44c-1.1,1.1-2.5,0.8-3.8,0.7
		c-6.7-0.3-13.3-0.7-19.7,1.8C196.4,258.9,195.2,258.9,194.1,258.3z"/>
	<path class="st2" d="M238.6,104.8c52.1,2.4,92.7,25.5,119.2,71.7c10.9,18.9,15.9,39.7,16.6,61.5c0.2,5.5-3.6,9.8-8.8,10
		c-5.4,0.2-9.3-3.6-9.4-9.4c-0.4-23.5-7.4-44.8-20.8-64c-18.9-27.1-44.6-44.3-77.1-49.5c-50.8-8-90.8,10.4-120.4,52.1
		c-0.2,0.3-0.4,0.6-0.6,0.8c-3.9,4.8-4.6,8.7-0.1,14.4c7.5,9.5,6.2,22.1-1.7,31.8c-7.1,8.7-20,11.9-30.3,7.6
		c-11.1-4.6-18.2-16-17.1-27.3c1.2-11.8,9.9-21.7,21.5-23.7c4.5-0.8,6.8-2.7,9.2-6.7c23.6-39.8,58.5-62.5,104.4-68.3
		C228.1,105.4,233,105.2,238.6,104.8z"/>
	<path d="M1012.6,245.6c-6.7,19.6-13.1,38.5-19.5,57.3c-3.7,11-7.5,22-11.1,33.1c-0.8,2.6-1.9,3.8-4.9,3.6
		c-4.6-0.4-10.2,1.3-13.7-0.8c-3.6-2.2-3.2-8.4-4.5-12.8c-8.4-27.8-16.6-55.7-25-83.6c-2.3-7.7-5.7-14-15.3-14.4
		c-4.1-0.2-1.3-4.2-1.9-6.4c-0.5-1.8,0.1-3.1,2.5-3.1c16.8,0.1,33.7,0.1,50.5,0c3.4,0,2.9,2.3,2.6,4c-0.4,2,2.2,5.2-2.4,5.7
		c-14.8,1.7-16.3,4-12.4,18.5c6.5,24,14,47.8,18.9,72.4c2.2-8.7,4.7-17.3,7.6-25.7c8.2-23.9,16.4-47.8,24.5-71.7
		c0.7-2,1.7-2.4,3.6-2.4c11.5-0.4,11.3-0.5,15.1,10.7c7,21,14.3,41.8,21.2,62.8c2.8,8.5,5.1,17.2,7.9,26.8
		c3.6-15.3,8-29.3,12.3-43.4c3.2-10.5,6.6-20.9,9.2-31.5c2.7-10.8-0.9-15.7-11.8-16.2c-5.9-0.2-3.3-4-3.7-6.5
		c-0.7-3.8,2-3.3,4.3-3.3c13.3,0,26.7,0.1,40,0c2.8,0,4.7,0.3,4,3.7c-0.5,2.4,2,6.4-3.6,6c-7.8-0.6-12,4.3-14.1,10.9
		c-8.3,26-16.2,52-24.3,78c-2.1,6.7-4.1,13.3-6.2,20c-0.5,1.6-1.2,2.7-3.1,2.4c-1.1-0.2-2.3,0-3.5,0c-12.7,0-12.6,0-16.6-12.2
		c-7.1-21.4-14.4-42.8-21.6-64.2C1015.9,257.6,1014.5,252,1012.6,245.6z"/>
	<path d="M424.4,178.5c11,0.4,24.2-1.2,37.3,1.2c33.8,6,49.5,34.6,36.9,66.8c-7.2,18.2-22,26.2-40.1,29.5
		c-8.7,1.6-17.6,1.3-26.4,1.1c-3.2-0.1-4.7,0.4-4.6,4.2c0.3,11.2,0,22.3,0.1,33.5c0.1,9.8,3.5,13.5,13.1,14.8c2.5,0.3,5,0.6,7.5,0.3
		c4.8-0.7,5.7,1.4,5.6,5.8c-0.1,3.5-1.3,4-4.4,4c-20.5-0.1-41-0.1-61.5,0c-2.9,0-5.3,0.2-4.8-4c0.4-3-0.8-6.1,4.5-5.9
		c6,0.3,12.2-0.4,15.4-6.9c1.6-3.2,1.9-6.7,1.9-10.2c0-36,0-72,0-107.9c0-11.5-4.7-16.2-16.4-16.7c-1.7-0.1-4.3,1.2-4.9-0.9
		c-0.7-2.3-0.5-5-0.1-7.4c0.4-2,2.5-1,3.9-1C398.9,178.5,410.6,178.5,424.4,178.5z"/>
	<path d="M648.7,178.5c17.5,0,35,0.1,52.5-0.1c3.9-0.1,4.7,1.1,4.7,4.7c0,10,0.3,20,0.9,30c0.3,4.1-1.1,5-4.9,4.8
		c-6.9-0.3-6.9-0.1-7.7-7.2c-1.8-15.5-7.8-20.9-23.4-20.9c-10.3,0-20.7,0.1-31-0.1c-3.1-0.1-3.9,0.8-3.8,3.9
		c0.1,19.1,0.2,38.3,0,57.4c0,3.5,1.1,4,4.2,4c15.3-0.1,30.7,0.2,46-0.2c4.9-0.1,4.5,2.3,4.3,5.4c-0.2,2.8,1.5,6.2-4.1,6.1
		c-15.3-0.4-30.6,0-46-0.2c-3.6,0-4.4,1-4.4,4.4c0.2,14.3,0,28.6,0.1,43c0,10.9,4.3,15.4,15.1,16.3c2.2,0.2,4.4,0.4,6.5,0.1
		c3.9-0.6,4.5,1,4.6,4.6c0.1,4.2-1.1,5.2-5.3,5.1c-20.2-0.2-40.3-0.2-60.5,0c-3.1,0-5-0.2-4.6-4.1c0.3-3.2-0.5-5.7,4.6-5.7
		c13,0,16.7-4.1,16.7-17.2c0-35.6,0-71.3,0-106.9c0-13.2-3.9-17.4-17.3-17.4c-4.8,0-3.7-2.6-4-5.3c-0.4-3.6,0.9-4.4,4.4-4.4
		C613.8,178.6,631.3,178.5,648.7,178.5z"/>
	<path d="M798.7,276.9c-0.1-9.6,1.3-20,4.9-30.2c4.7-13.2,13.3-22.4,26.6-27c12.8-4.4,25.9-4.5,38.8-1.1
		c14.7,3.9,24.8,13.6,29.7,27.8c7.7,22.3,7.8,44.9-0.6,67c-6.6,17.3-20.4,25.9-38.7,27.6c-13.3,1.2-26.3,0.4-37.9-7.2
		c-13.4-8.8-18.8-22.3-21.5-37.3C798.9,290.4,798.7,284.3,798.7,276.9z"/>
	<path d="M761.9,244c0,23,0,46,0,68.9c0,12,4.3,16.4,16.4,17c1.6,0.1,4.1-0.8,4.6,0.7c0.7,2.4,0.4,5.3,0.1,7.9c-0.2,1.6-1.9,1-2.9,1
		c-19.3,0-38.6-0.1-57.9,0.1c-3.8,0-3.1-2.4-2.8-4.3c0.3-2-1.9-5.1,2.7-5.5c16.3-1.3,18.6-4,18.6-20.3c0-37.8,0-75.6,0-113.4
		c0-13.9-3.7-18-17.5-18.2c-4.8-0.1-3.7-2.8-3.9-5.5c-0.3-3,0.3-4.4,4-4.3c11.5,0.3,23,0.3,34.5,0c3.6-0.1,4.4,1,4.4,4.4
		C761.8,196.4,761.9,220.2,761.9,244z"/>
	<path class="st2" d="M194.1,258.3c8.7-3.8,17.6-4.7,26.9-2.4c19.7,6.6,26.9,23.3,26.3,36.9c-0.6,14.5-9.7,27.3-23.7,32.8
		c-13.5,5.3-29.3,1.7-39.4-8.9c-10.2-10.7-13.1-26.5-7.3-39.8C180.4,268.6,186.4,262.7,194.1,258.3z"/>
	<path d="M558.9,268.8c0,14.5,0,29,0,43.4c0,12.7,4.2,17.4,16.9,17.4c4.7,0,4.6,2.1,4.8,5.6c0.3,4.4-1.9,4.3-5.1,4.3
		c-18.3-0.1-36.6-0.1-54.9,0c-3.3,0-4.9-0.6-4.5-4.3c0.3-2.8-1-6.1,4.2-5.5c3.7,0.4,7.7,0,11.2-1.9c4.7-2.6,6.3-7.2,6.4-12.2
		c0.1-24.3,0.2-48.6,0-72.9c-0.1-9.4-4.7-13.9-15.3-14.4c-5.7-0.2-3.5-3.8-3.9-6.4c-0.6-3.6,1.6-3.5,4.2-3.5
		c10.7,0.1,21.3,0.2,32-0.1c3.7-0.1,4.3,1.2,4.3,4.5C558.8,238.2,558.9,253.5,558.9,268.8z"/>
	<path class="st2" d="M565.2,184.4c0.1,12.8-9.5,22.6-22.2,22.7c-12.6,0.1-22.5-9.6-22.7-22.2c-0.2-12.4,9.8-22.6,22.3-22.7
		C555.2,162,565.1,171.9,565.2,184.4z"/>
	<path class="st3" d="M427.5,227.6c0-11.3,0.1-22.6-0.1-33.9c0-3,0.7-4.1,3.8-3.9c8.1,0.4,16.3-0.6,24.3,1.3
		c9.4,2.2,16.4,7.3,19.4,16.7c4.5,14.3,4.3,28.5-1.5,42.4c-3.1,7.4-9.1,11.7-16.7,13.8c-8.8,2.4-17.8,2-26.8,2.1
		c-3.1,0-2.5-1.8-2.5-3.6C427.5,250.9,427.5,239.2,427.5,227.6z"/>
	<path class="st3" d="M882.2,276c-0.1,14.9-0.6,26.6-5.3,37.8c-4.3,10.1-11.7,15.7-22.9,16.3c-11.8,0.6-21.2-3-26.9-14
		c-3.5-6.8-5-14-5.6-21.6c-1.2-15.3-1.7-30.7,2.6-45.6c5.7-19.6,27.7-27.9,43.6-16.8c9.1,6.4,11.4,16.4,13.2,26.4
		C882.1,265.3,882.2,272.2,882.2,276z"/>
	<path class="st3" d="M227.2,291.3c-0.1,9.4-7.5,16.7-16.8,16.6c-9.1-0.1-16.4-7.4-16.5-16.5c-0.1-9.4,7.3-16.8,16.6-16.8
		C220,274.6,227.2,281.8,227.2,291.3z"/>
</g>
</svg>
