<?xml version="1.0" encoding="utf-8"?>
<!-- Generator: Adobe Illustrator 26.0.3, SVG Export Plug-In . SVG Version: 6.00 Build 0)  -->
<svg version="1.1" id="图层_1" xmlns="http://www.w3.org/2000/svg" xmlns:xlink="http://www.w3.org/1999/xlink" x="0px" y="0px"
	 viewBox="0 0 200 200" style="enable-background:new 0 0 200 200;" xml:space="preserve">
<path d="M171.3,154.2h-118c-2,0-3.7-1.5-4-3.5L33.8,23.6h-28c-2.2,0-4-1.8-4-4s1.8-4,4-4h31.6c2,0,3.7,1.5,4,3.5l15.6,127.2h114.5
	c2.2,0,4,1.8,4,4S173.5,154.2,171.3,154.2z"/>
<path d="M162.9,127.4h-112c-2.2,0-4-1.8-4-4s1.8-4,4-4h112c2.2,0,4.1-1.6,4.4-3.8l7.3-55.8c0.2-1.7-0.3-3.4-1.4-4.8
	c-1.2-1.3-2.8-2.1-4.5-2.1H40.9c-2.2,0-4-1.8-4-4s1.8-4,4-4h127.6c4,0,7.9,1.7,10.5,4.8c2.7,3,3.9,7.1,3.4,11.1l-7.3,55.8
	C174.3,122.8,169.1,127.4,162.9,127.4z"/>
<path d="M174.8,80.9H44.4c-2.2,0-4-1.8-4-4s1.8-4,4-4h130.4c2.2,0,4,1.8,4,4S177,80.9,174.8,80.9z"/>
<path d="M69.9,192.7c-9.4,0-17.1-7.7-17.1-17.1s7.7-17.1,17.1-17.1S87,166.2,87,175.6S79.3,192.7,69.9,192.7z M69.9,166.6
	c-5,0-9.1,4.1-9.1,9.1s4.1,9.1,9.1,9.1s9.1-4.1,9.1-9.1S74.9,166.6,69.9,166.6z"/>
<path d="M150,192.7c-9.4,0-17.1-7.7-17.1-17.1s7.7-17.1,17.1-17.1s17.1,7.7,17.1,17.1S159.4,192.7,150,192.7z M150,166.6
	c-5,0-9.1,4.1-9.1,9.1s4.1,9.1,9.1,9.1s9.1-4.1,9.1-9.1S155,166.6,150,166.6z"/>
</svg>
