<svg xmlns="http://www.w3.org/2000/svg" viewBox="0 0 362.26 57.45"><defs><style>.cls-1{fill:#f5b21a;}.cls-2{fill:#283272;}</style></defs><g id="图层_2" data-name="图层 2"><g id="Layer_1" data-name="Layer 1"><path class="cls-1" d="M32.14,18c0,8.35-5.07,15.94-14.93,17.72L31.13,52.13l1.26-1.76L57.45,14.93V0H16.71C27.07,1,32.14,9.61,32.14,18Z"/><path class="cls-2" d="M3.55,28.09h9.61C20.24,28.09,23.79,23,23.79,18S20.24,8.09,13.16,8.09H0V57.45H24.55l-21-25.31ZM39.22,54.91,57.69,29.1V57.45H37.37Z"/><rect class="cls-2" x="141.97" y="9.61" width="8.35" height="39.23"/><path class="cls-2" d="M200.1,40.26l-43.45,0v8.61h43.78A12.11,12.11,0,0,0,212.33,37a11.55,11.55,0,0,0-3.55-8.36,11.49,11.49,0,0,0-8.35-3.53l-31.85-.24a3.43,3.43,0,0,1-3.41-3.41h0A3.42,3.42,0,0,1,168.6,18l43.73,0V9.61H168.55a11.52,11.52,0,0,0-8.36,3.55,11.62,11.62,0,0,0,0,16.7,11.25,11.25,0,0,0,8.36,3.29h31.81a3.41,3.41,0,0,1,3.41,3.43h0A3.67,3.67,0,0,1,200.1,40.26Z"/><path class="cls-2" d="M235.85,9.61h36.2V18h-36.2A10.52,10.52,0,0,0,228,21.25a10.52,10.52,0,0,0-3.29,7.85A10.55,10.55,0,0,0,228,37a10.56,10.56,0,0,0,7.84,3.28h36.2v8.61H235.87A18.8,18.8,0,0,1,222.19,43a18.49,18.49,0,0,1-5.57-13.66,18.5,18.5,0,0,1,5.57-13.67A18.11,18.11,0,0,1,235.85,9.61Z"/><path class="cls-2" d="M123.5,25.37l-34.93-.06V18.23l35.28-.07a3.44,3.44,0,0,1,3.45,3.43h0A3.8,3.8,0,0,1,123.5,25.37Zm12.4,23.47L124.76,33.4a10.74,10.74,0,0,0,7.59-3.54,11.6,11.6,0,0,0,0-16.7A11.5,11.5,0,0,0,124,9.61H80.22V48.84h8.35V33.4h25.82l11.13,15.44Z"/><polyline class="cls-1" points="313.8 48.84 290.87 9.61 300.69 9.61 318.61 40.74 336.54 9.61 346.2 9.61 323.41 48.84"/><rect class="cls-1" x="277.11" y="25.55" width="16.45" height="7.6"/><path class="cls-2" d="M362.26,15.87a6.19,6.19,0,1,1-6.17-6A6,6,0,0,1,362.26,15.87Zm-10.83,0a4.66,4.66,0,0,0,4.7,4.81,4.61,4.61,0,0,0,4.59-4.77,4.65,4.65,0,1,0-9.29,0ZM355.14,19h-1.4V13a12.08,12.08,0,0,1,2.31-.19,3.84,3.84,0,0,1,2.1.44,1.69,1.69,0,0,1,.58,1.33A1.53,1.53,0,0,1,357.49,16v.07a1.8,1.8,0,0,1,1.1,1.47A4.46,4.46,0,0,0,359,19h-1.51a5.19,5.19,0,0,1-.47-1.47c-.12-.66-.48-1-1.25-1h-.66Zm0-3.42h.66c.77,0,1.4-.25,1.4-.88s-.41-.92-1.29-.92a3.13,3.13,0,0,0-.77.08Z"/></g></g></svg>