<svg xmlns="http://www.w3.org/2000/svg" xmlns:xlink="http://www.w3.org/1999/xlink" viewBox="0 0 240.95 240.94"><defs><style>.cls-1{fill:none;}.cls-2{fill:#3d3a39;}.cls-3{fill:url(#未命名漸層_147);}.cls-4{opacity:0.7;fill:url(#linear-gradient);}.cls-5{fill:url(#linear-gradient-2);}.cls-6{fill:url(#未命名漸層_147-2);}.cls-7{fill:#fff;}.cls-8{fill:url(#linear-gradient-3);}.cls-9{fill:url(#linear-gradient-4);}.cls-10{fill:url(#linear-gradient-5);}.cls-11{fill:url(#linear-gradient-6);}.cls-12{fill:url(#linear-gradient-7);}.cls-13{fill:url(#linear-gradient-8);}.cls-14{fill:url(#linear-gradient-9);}.cls-15{fill:url(#linear-gradient-10);}.cls-16{fill:url(#未命名漸層_8);}.cls-17{fill:url(#linear-gradient-11);}.cls-18{fill:url(#linear-gradient-12);}.cls-19{fill:url(#未命名漸層_8-2);}.cls-20{fill:url(#linear-gradient-13);}.cls-21{fill:url(#linear-gradient-14);}</style><linearGradient id="未命名漸層_147" x1="118.54" y1="95.67" x2="203.57" y2="95.67" gradientUnits="userSpaceOnUse"><stop offset="0" stop-color="#246cb5"/><stop offset="0.32" stop-color="#2966ae"/><stop offset="0.79" stop-color="#35559b"/><stop offset="1" stop-color="#3d4b90"/></linearGradient><linearGradient id="linear-gradient" x1="118.54" y1="98.72" x2="201.38" y2="98.72" gradientUnits="userSpaceOnUse"><stop offset="0" stop-color="#243780"/><stop offset="0.31" stop-color="#243a83"/><stop offset="0.58" stop-color="#24458c"/><stop offset="0.84" stop-color="#25579c"/><stop offset="1" stop-color="#2566a9"/></linearGradient><linearGradient id="linear-gradient-2" x1="-183.43" y1="24.31" x2="-169.54" y2="24.31" gradientTransform="matrix(1.02, -0.06, 0.1, 0.92, 291.77, 79.68)" xlink:href="#未命名漸層_147"/><linearGradient id="未命名漸層_147-2" x1="171.57" y1="113.86" x2="179.23" y2="103.42" xlink:href="#未命名漸層_147"/><linearGradient id="linear-gradient-3" x1="176.7" y1="-55.52" x2="191.57" y2="-55.52" gradientTransform="translate(55.29 254.64) rotate(-34.61)" gradientUnits="userSpaceOnUse"><stop offset="0" stop-color="#3588b3"/><stop offset="0.28" stop-color="#3684b1"/><stop offset="0.57" stop-color="#3977aa"/><stop offset="0.86" stop-color="#3d639f"/><stop offset="1" stop-color="#405698"/></linearGradient><linearGradient id="linear-gradient-4" x1="150.05" y1="367.47" x2="230.74" y2="367.47" gradientTransform="translate(16.24 -294.56) rotate(12.03)" xlink:href="#linear-gradient"/><linearGradient id="linear-gradient-5" x1="125.29" y1="85.23" x2="139.97" y2="85.23" gradientUnits="userSpaceOnUse"><stop offset="0" stop-color="#3e8fb5" stop-opacity="0.3"/><stop offset="0.09" stop-color="#479ab9" stop-opacity="0.46"/><stop offset="0.21" stop-color="#4fa5bd" stop-opacity="0.63"/><stop offset="0.33" stop-color="#57aec0" stop-opacity="0.76"/><stop offset="0.46" stop-color="#5cb5c3" stop-opacity="0.87"/><stop offset="0.6" stop-color="#60bac5" stop-opacity="0.94"/><stop offset="0.77" stop-color="#62bdc6" stop-opacity="0.99"/><stop offset="1" stop-color="#63bec6"/></linearGradient><linearGradient id="linear-gradient-6" x1="-68.38" y1="-21.99" x2="-63.65" y2="-30.18" gradientTransform="translate(213.26 125.55) rotate(-15.31)" xlink:href="#linear-gradient-3"/><linearGradient id="linear-gradient-7" x1="-36.34" y1="63.64" x2="-16.51" y2="63.64" gradientTransform="matrix(0.99, -0.13, 0.13, 0.99, 98.72, 37.22)" gradientUnits="userSpaceOnUse"><stop offset="0.01" stop-color="#3588b3" stop-opacity="0.2"/><stop offset="0.28" stop-color="#4499ba" stop-opacity="0.66"/><stop offset="0.45" stop-color="#4ca2bd" stop-opacity="0.75"/><stop offset="0.82" stop-color="#5db6c4" stop-opacity="0.93"/><stop offset="1" stop-color="#63bec6"/></linearGradient><linearGradient id="linear-gradient-8" x1="125.27" y1="109.7" x2="160.6" y2="103.39" gradientUnits="userSpaceOnUse"><stop offset="0.01" stop-color="#3588b3" stop-opacity="0.2"/><stop offset="0.11" stop-color="#3a8eb5" stop-opacity="0.3"/><stop offset="0.54" stop-color="#50a8be" stop-opacity="0.67"/><stop offset="0.85" stop-color="#5eb8c4" stop-opacity="0.91"/><stop offset="1" stop-color="#63bec6"/></linearGradient><linearGradient id="linear-gradient-9" x1="128.38" y1="112.68" x2="145.47" y2="112.68" xlink:href="#linear-gradient-5"/><linearGradient id="linear-gradient-10" x1="85.35" y1="67.03" x2="97.01" y2="67.03" gradientUnits="userSpaceOnUse"><stop offset="0" stop-color="#44448f"/><stop offset="0.29" stop-color="#434791"/><stop offset="0.51" stop-color="#415196"/><stop offset="0.71" stop-color="#3e619e"/><stop offset="0.9" stop-color="#3878ab"/><stop offset="1" stop-color="#3588b3"/></linearGradient><linearGradient id="未命名漸層_8" x1="-168.18" y1="163.7" x2="-88.4" y2="163.7" gradientTransform="translate(160.59 -124.63) rotate(-15.77)" gradientUnits="userSpaceOnUse"><stop offset="0" stop-color="#3588b3"/><stop offset="0.25" stop-color="#3a73a8"/><stop offset="0.74" stop-color="#415196"/><stop offset="1" stop-color="#44448f"/></linearGradient><linearGradient id="linear-gradient-11" x1="-203.36" y1="-143.2" x2="-183.29" y2="-143.2" gradientTransform="translate(284.06 141.62) rotate(-27.81)" gradientUnits="userSpaceOnUse"><stop offset="0" stop-color="#3588b3"/><stop offset="0.28" stop-color="#3685b2"/><stop offset="0.49" stop-color="#387cad" stop-opacity="0.98"/><stop offset="0.69" stop-color="#3b6da5" stop-opacity="0.96"/><stop offset="0.87" stop-color="#3f599a" stop-opacity="0.93"/><stop offset="1" stop-color="#44448f" stop-opacity="0.9"/></linearGradient><linearGradient id="linear-gradient-12" x1="-182.53" y1="-156.22" x2="-105.78" y2="-156.22" gradientTransform="translate(284.06 141.62) rotate(-27.81)" gradientUnits="userSpaceOnUse"><stop offset="0" stop-color="#44448f"/><stop offset="0.16" stop-color="#424b93" stop-opacity="0.91"/><stop offset="0.46" stop-color="#3e5e9d" stop-opacity="0.66"/><stop offset="0.85" stop-color="#387cad" stop-opacity="0.26"/><stop offset="1" stop-color="#3588b3" stop-opacity="0.1"/></linearGradient><linearGradient id="未命名漸層_8-2" x1="-159.54" y1="-178.07" x2="-135.05" y2="-178.07" gradientTransform="translate(284.06 141.62) rotate(-27.81)" xlink:href="#未命名漸層_8"/><linearGradient id="linear-gradient-13" x1="133.67" y1="36.87" x2="142.21" y2="26.41" gradientTransform="matrix(0.96, -0.26, 0.26, 0.96, -57.64, 68.1)" xlink:href="#linear-gradient-3"/><linearGradient id="linear-gradient-14" x1="-227.97" y1="-190.18" x2="-182.07" y2="-190.18" gradientTransform="translate(342.33 120.06) rotate(-30.8)" xlink:href="#linear-gradient-12"/></defs><title>sodalogo_c</title><g id="圖層_2" data-name="圖層 2"><g id="圖層_1-2" data-name="圖層 1"><rect class="cls-1" width="240.95" height="240.94"/><path class="cls-2" d="M59.68,164.05a9.24,9.24,0,0,1-3.38,8,11.45,11.45,0,0,1-8.64,3.08,11.1,11.1,0,0,1-7.55-3.46,10.48,10.48,0,0,1-3-7.52h5v1.14a5.2,5.2,0,0,0,2,3.62,6,6,0,0,0,4.26,1.8A6.83,6.83,0,0,0,53,168.94a5.68,5.68,0,0,0,1.63-4.07c0-2.91-1.69-4.91-5.21-6l-4.19-1.27q-6.57-2-6.88-8.53a8.32,8.32,0,0,1,2.79-6.74,10.86,10.86,0,0,1,7.2-3,10.15,10.15,0,0,1,6.81,2.24,8,8,0,0,1,3.43,6v1h-5v-.79a3.45,3.45,0,0,0-1.6-2.93,6.29,6.29,0,0,0-3.67-1.11,5.28,5.28,0,0,0-3.47,1.38,4.49,4.49,0,0,0-1.54,3.3c-.16,2.43,1.36,4.17,4.58,5.21L52,155Q59.18,157.31,59.68,164.05Z"/><path class="cls-2" d="M107.29,157.19a16.93,16.93,0,0,1-5.61,12.68,18.66,18.66,0,0,1-25.93-.27,16.89,16.89,0,0,1-5.17-12.35,17.1,17.1,0,0,1,5.58-12.8,17.67,17.67,0,0,1,13.28-5.1,18.07,18.07,0,0,1,12.65,5.46A17,17,0,0,1,107.29,157.19Zm-4.76-.36a13.28,13.28,0,0,0-4-9.23,12.78,12.78,0,0,0-9.33-3.83,13.34,13.34,0,0,0-9.73,3.8,12.68,12.68,0,0,0-4.08,9.32,12.83,12.83,0,0,0,3.71,9.44,13,13,0,0,0,9.35,4.22,12.75,12.75,0,0,0,10.08-3.89A13.08,13.08,0,0,0,102.53,156.83Z"/><path class="cls-2" d="M203.75,157.13v17.06H199v-5.31a18.43,18.43,0,0,1-26.77.66A16.9,16.9,0,0,1,167,157.19a17.1,17.1,0,0,1,5.58-12.8,17.55,17.55,0,0,1,13.34-5,18.36,18.36,0,0,1,12.78,5.46A15.92,15.92,0,0,1,203.75,157.13ZM199,156.8a13.39,13.39,0,0,0-13.37-13,13.62,13.62,0,0,0-9.74,3.82,12.6,12.6,0,0,0-4.08,9.27,12.77,12.77,0,0,0,3.74,9.42,13.27,13.27,0,0,0,9.32,4.27A13.61,13.61,0,0,0,199,156.8Z"/><path class="cls-2" d="M41.4,188.4H38.54v9.47H37v-11a3.28,3.28,0,0,1,1.11-2.66,4.27,4.27,0,0,1,2.86-.94h.4v1.29H41a2.67,2.67,0,0,0-1.7.53,2.2,2.2,0,0,0-.76,1.53v.46H41.4Z"/><path class="cls-2" d="M61.67,192.47a5.36,5.36,0,0,1-1.78,4,5.65,5.65,0,0,1-4.23,1.62,5.59,5.59,0,0,1-4-1.7A5.35,5.35,0,0,1,50,192.49a5.44,5.44,0,0,1,1.77-4.07A5.61,5.61,0,0,1,56,186.8a5.72,5.72,0,0,1,4,1.74A5.37,5.37,0,0,1,61.67,192.47Zm-1.51-.12a4.21,4.21,0,0,0-1.29-2.93,4,4,0,0,0-3-1.21,4.22,4.22,0,0,0-3.09,1.2,4,4,0,0,0-1.29,3,4.07,4.07,0,0,0,1.17,3,4.12,4.12,0,0,0,3,1.34,4,4,0,0,0,3.2-1.24A4.09,4.09,0,0,0,60.16,192.35Z"/><path class="cls-2" d="M80.59,193.23a4.73,4.73,0,0,1-1.42,3.5,5.3,5.3,0,0,1-7.18,0,4.7,4.7,0,0,1-1.43-3.5v-6.16h1.52v6.34a3.08,3.08,0,0,0,1,2.34,3.55,3.55,0,0,0,4.9,0,3.08,3.08,0,0,0,1-2.34v-6.34h1.51Z"/><path class="cls-2" d="M99.65,197.87H98.13v-6.31a3.12,3.12,0,0,0-1-2.35,3.45,3.45,0,0,0-2.45-1,3.49,3.49,0,0,0-2.47,1,3.12,3.12,0,0,0-1,2.35v6.31H89.6v-6.16a4.7,4.7,0,0,1,1.43-3.5,5,5,0,0,1,3.6-1.39,4.94,4.94,0,0,1,3.58,1.39,4.68,4.68,0,0,1,1.44,3.5Z"/><path class="cls-2" d="M120.47,192.53a5.12,5.12,0,0,1-1.75,4,6,6,0,0,1-8.26-.08,5.36,5.36,0,0,1-1.64-3.93,5.43,5.43,0,0,1,1.76-4.06,5.61,5.61,0,0,1,4.21-1.62,5.72,5.72,0,0,1,4.17,1.91v-5.43h1.51Zm-1.51-.12a4.13,4.13,0,0,0-1.27-2.93,4.07,4.07,0,0,0-3-1.22,4.25,4.25,0,0,0-3.08,1.21,4,4,0,0,0-1.3,3,4.32,4.32,0,0,0,4.16,4.34,4.29,4.29,0,0,0,4.47-4.36Z"/><path class="cls-2" d="M141.08,192.45v5.42h-1.51v-1.69a5.86,5.86,0,0,1-8.5.21,5.36,5.36,0,0,1-1.65-3.92,5.46,5.46,0,0,1,1.77-4.07,5.62,5.62,0,0,1,4.24-1.6,5.81,5.81,0,0,1,4.06,1.74A5.08,5.08,0,0,1,141.08,192.45Zm-1.51-.11a4.25,4.25,0,0,0-4.25-4.13,4.31,4.31,0,0,0-3.09,1.21,4,4,0,0,0-1.29,2.94,4,4,0,0,0,1.18,3,4.21,4.21,0,0,0,3,1.36,4.32,4.32,0,0,0,4.49-4.37Z"/><path class="cls-2" d="M154.17,198.09c-2.76,0-4.14-1.11-4.14-3.35V183.28h1.51v3.77h2.63v1.35h-2.63v6.1c0,1.6.88,2.4,2.63,2.4Z"/><path class="cls-2" d="M164.37,185.78h-1.51v-2.52h1.51Zm0,12.09h-1.51v-10.8h1.51Z"/><path class="cls-2" d="M185,192.47a5.36,5.36,0,0,1-1.78,4,5.93,5.93,0,0,1-8.23-.08,5.35,5.35,0,0,1-1.64-3.92,5.44,5.44,0,0,1,1.77-4.07,5.61,5.61,0,0,1,4.21-1.62,5.72,5.72,0,0,1,4,1.74A5.37,5.37,0,0,1,185,192.47Zm-1.51-.12a4.21,4.21,0,0,0-1.29-2.93,4,4,0,0,0-3-1.21,4.22,4.22,0,0,0-3.09,1.2,4,4,0,0,0-1.29,3,4.07,4.07,0,0,0,1.17,3,4.12,4.12,0,0,0,3,1.34,4,4,0,0,0,3.2-1.24A4.09,4.09,0,0,0,183.53,192.35Z"/><path class="cls-2" d="M203.94,197.87h-1.51v-6.31a3.12,3.12,0,0,0-1.05-2.35,3.55,3.55,0,0,0-4.92,0,3.12,3.12,0,0,0-1.05,2.35v6.31h-1.52v-6.16a4.68,4.68,0,0,1,1.44-3.5,5.33,5.33,0,0,1,7.18,0,4.7,4.7,0,0,1,1.43,3.5Z"/><path class="cls-2" d="M154.93,133.2a13.35,13.35,0,0,1-3.92-3.52v15.88a18.06,18.06,0,0,0-13.13-6,17.62,17.62,0,0,0-13.25,5.1,17.13,17.13,0,0,0-5.57,12.8,16.93,16.93,0,0,0,5.17,12.35,17.78,17.78,0,0,0,12.62,5.37,18.1,18.1,0,0,0,13.41-5.1,16.21,16.21,0,0,0,5.51-12.68V133.55A4.67,4.67,0,0,1,154.93,133.2ZM147,166.84A12.73,12.73,0,0,1,137,170.73a13.65,13.65,0,0,1-13.13-13.66,12.63,12.63,0,0,1,4.12-9.32,13.34,13.34,0,0,1,9.7-3.8,12.83,12.83,0,0,1,9.38,3.83,13.37,13.37,0,0,1,0,19.06Z"/><path class="cls-3" d="M202.93,103.63c-.4-.3-1.29-.36-1.54-.77s-.08-.88-.08-1.24a2.31,2.31,0,0,0-.6-1.5,15.07,15.07,0,0,0-4.09-2.93A72.38,72.38,0,0,0,174.42,89c-4.27-4-8.8-7.85-14.88-8.2-2.56-.14-4.74-.24-4.85.62,0,.26.5.43,1,.74a7.46,7.46,0,0,1,3.11,2.91c.26.56.71,2.25-5.53,3.53-7.46,1.54-24.14,11.2-30.95,16.24s-2.85,5.93-.88,5.71,15.59-5.27,31-5.93c4.12-.17,11.57-.29,11.57-.29v0c4.7-.07,8.93.11,13.72.26,6.48.21,12.86,1.41,19.33,1.56a25,25,0,0,0,4.58-.2c.55-.1,1.76-.25,1.92-.95A1.35,1.35,0,0,0,202.93,103.63Z"/><path class="cls-4" d="M121.33,105.68c-.26.21-.5.41-.71.6l-.12.1a12.08,12.08,0,0,0-1.08,1.11l0,.05L119,108l0,0a2.34,2.34,0,0,0-.45,1.18c2.22-.74,5-1.81,8.43-3.27a205.79,205.79,0,0,1,23.54-8.52l0,0a44.74,44.74,0,0,1,7.38-1.7c.55-.06,1-.14,1.68-.22,1.28-.15,2.64-.27,4.1-.35l.94,0h.29l2.37,0h0c15.59,0,18.15,5,26.89,7.11a23.8,23.8,0,0,0,4.6.79,8.38,8.38,0,0,0,2.29-.12l.29-.07a2.83,2.83,0,0,1-.07-1.23,2.31,2.31,0,0,0-.6-1.5,15.07,15.07,0,0,0-4.09-2.93c-1.65-.91-3.4-1.81-5.21-2.65a67.71,67.71,0,0,0-17-5.51h0a89.93,89.93,0,0,0-21.11-.4c-7.46,1.54-24.14,11.2-30.95,16.24l-.89.69Z"/><path class="cls-5" d="M108.29,114.49c-1.12.3-2-1-1.13-1.69a22.73,22.73,0,0,1,10.31-4.64c5.61-1.17,2.7,5.43.52,9.4a1.71,1.71,0,0,1-3.16-.72v-.09c0-3.25-3.06-3.29-4.79-2.82C109.37,114.11,108.79,114.36,108.29,114.49Z"/><path class="cls-6" d="M183.62,104a27.8,27.8,0,0,0-1.86,2.72,9.11,9.11,0,0,1-3.64,2.85c-1.44.67-6.12,2.53-4.67-1a20.87,20.87,0,0,0,1.21-5.61C177.58,103.24,180.79,103.12,183.62,104Z"/><path class="cls-7" d="M195,100.73l4.05,2.4a2.89,2.89,0,0,1-.76.56,3,3,0,0,1-2.2-.37,2.4,2.4,0,0,1-1-1.55A2.82,2.82,0,0,1,195,100.73Z"/><path class="cls-8" d="M176.15,100.31c-3.34,2.62-5.05,4.41-8,6.28a.56.56,0,0,0,.13.91c5,2.29,18.06-5.66,13.83-6.79C180.7,100.34,177.18,99.49,176.15,100.31Z"/><path class="cls-9" d="M86.12,99c7.81-7.16,17.42-12.82,27.95-14a42.51,42.51,0,0,1,22.1,3.68A56.07,56.07,0,0,1,154.27,102a46.57,46.57,0,0,1,6.77,9.25,11.53,11.53,0,0,1,1.82,5,9.43,9.43,0,0,1-1.54,5.53,8,8,0,0,1-.48.66,6.53,6.53,0,0,1,1.38,4.93,3.87,3.87,0,0,1-5.79,2.71c-2.86-1.56-4.53-4.47-6.47-7-5.38-6.9-13.41-11.21-21.55-14.42a119,119,0,0,0-35-8c-2.54-.18-9.75.48-7.37-1.68Z"/><path class="cls-10" d="M138.28,91.92A1.6,1.6,0,0,0,139.94,90a15.33,15.33,0,0,0-6.89-9.54c-1.3-.71-7.94-3.31-7.76-1s4.94,3.26,4.41,8C129.32,91,135.12,91.76,138.28,91.92Z"/><path class="cls-11" d="M141.25,113.77a17.45,17.45,0,0,1-1.18,1.76c-1.18,1.26-2.75,1.47-4.34,1.86-.81.19-2.88.61-2.64,1.85.34,1.76,5.21,2.08,6.45,2.12a22.13,22.13,0,0,0,6.07-.6c6.36-1.65,8-2.84,5.27-5.67Z"/><path class="cls-12" d="M82.55,111.7c1.36.69,3.15-.58,4.12-1.91,1.85-2.53,4.58-6.87,3.45-10.21-1.74-5.18-13.8-4.74-19-2.33-3.51,1.63,2.51,2.32,5.34,3s4,2.91,4.38,5.59c.24,1.59,0,3.66.9,5.07A2.17,2.17,0,0,0,82.55,111.7Z"/><path class="cls-13" d="M161.32,121.74a9.43,9.43,0,0,0,1.54-5.53,11.53,11.53,0,0,0-1.82-5c-.45-.84-.94-1.65-1.45-2.44-.22-.34-.46-.67-.69-1s-.6-.89-.92-1.33-.65-.84-1-1.26-.5-.65-.76-1-.72-.83-1.08-1.25c-.24-.27-.47-.55-.72-.82a8.45,8.45,0,0,1-2.9.82v.06a13.12,13.12,0,0,1-4.12-.11l-.77-.16a11.38,11.38,0,0,1-7.6-9.76,11.79,11.79,0,0,1,.14-2.92h0c-.64-.35-1.29-.67-1.95-1a11.38,11.38,0,0,0-6.2,11.12c0,.31.08.62.13.93,0,0-14.18-3.93-14.74-16.43-.79,0-1.58.09-2.37.18A41.11,41.11,0,0,0,104,87.48l-.59.25a28.18,28.18,0,0,0-1.92,13.83c2,.29,4.1.63,6.13,1l.19,0c1.35.27,2.69.55,4,.86l.52.13c1.22.29,2.44.59,3.66.92.35.09.69.2,1,.3,1,.29,2.08.59,3.12.91l1.84.6c.76.25,1.53.5,2.3.77q2.07.72,4.11,1.53c8.14,3.21,16.17,7.52,21.55,14.42,1.94,2.5,3.61,5.41,6.47,7a3.87,3.87,0,0,0,5.79-2.71,6.53,6.53,0,0,0-1.38-4.93A8,8,0,0,0,161.32,121.74Z"/><path class="cls-7" d="M155,115.28a2.15,2.15,0,1,1-2.14-2.15A2.14,2.14,0,0,1,155,115.28Z"/><path class="cls-14" d="M141.24,109.55c-5.21.32-8.2.94-12.54.75-.42,0-.74.59-.5,1,3.44,5.79,21,5.67,17.45,1.57C144.52,111.55,142.86,109.45,141.24,109.55Z"/><path class="cls-15" d="M95.19,59.8a21.52,21.52,0,0,1-4.57,7.75c-1.79,2.15-3.54,4.51-5.45,6.54a.56.56,0,0,0,.39,1c4.1.14,7.17-1.88,9.84-4.84,2.48-2.75,4.16-7.44,1.83-10.67a1.13,1.13,0,0,0-2,.27Z"/><path class="cls-16" d="M118.2,51a3.06,3.06,0,0,0-.58-1.75c-2.07-2.66-5.44.46-8-.66-1.44-.64-2.26-2.12-3.34-3.18a8.8,8.8,0,0,0-3.93-2.34c-3.07-.78-6.48.22-9.4,1.15-1.59.51-3.19,1-4.76,1.58C67.12,53.44,45.88,70.36,47.93,95.2a2,2,0,0,0,3.52,1.06c4.47-5.77,14.15-16.84,27.66-24.2,7-3.83,14.37-7,21.72-10.21,3.52-1.51,7.29-2.87,10.8-4.55a18.76,18.76,0,0,0,5.58-3.45A4,4,0,0,0,118.2,51Z"/><path class="cls-17" d="M39.6,109.91a1.57,1.57,0,0,1-2.46-1.8c1.08-2.51,3.92-7.63,10.54-12.57s6.7,6.29,6.24,13.27a2.35,2.35,0,0,1-4.5.76.69.69,0,0,1-.05-.13c-1.89-4.7-5.89-3-7.85-1.33C40.77,108.75,40.17,109.43,39.6,109.91Z"/><path class="cls-18" d="M117.75,53a9.27,9.27,0,0,1-4.18,2.84c-4.3,1.73-9.47,1.88-14,2.64C81.19,61.6,65.28,72,56,88.22,55,90.1,54.19,92.85,52.85,94.5c4.92-6,14-15.76,26.26-22.44,7-3.83,14.37-7,21.72-10.21,3.52-1.51,7.29-2.87,10.8-4.55a18.76,18.76,0,0,0,5.58-3.45A3.15,3.15,0,0,0,117.75,53Z"/><path class="cls-19" d="M82.58,49.09a17.1,17.1,0,0,0-9.2-1.38A21.39,21.39,0,0,0,62,53.11c-.42.39-4.51,4.87-1.8,4.65,2.45-.2,7.58-3.27,10.29-1.59S79.71,53.34,82.58,49.09Z"/><path class="cls-7" d="M95.94,50.15l1-1.68v0s2.31,1.17,2.31,1.17,1.49-2.59,2.17-1.13c0,0,.79,2.08-2.44,2.6A5.12,5.12,0,0,1,95.94,50.15Z"/><path class="cls-20" d="M90.09,57.92A20.7,20.7,0,0,1,83,62.05c-2.53,1-5.22,2.13-7.82,2.94a.53.53,0,0,0-.12,1c5.35,3.27,17.62.57,16.82-7.29a1.07,1.07,0,0,0-1.81-.74Z"/><path class="cls-21" d="M83,53.41a60.35,60.35,0,0,0-18.61,6.17A52,52,0,0,0,51.25,77c2.57-2.5,5.19-5,7.91-7.31,10.82-9.32,23.42-14.53,31-17.06C88.09,53.33,85.17,53.07,83,53.41Z"/><path class="cls-7" d="M159.51,130.28a4.21,4.21,0,0,1-.77-.84c-.12-.17-.25-.33-.37-.52s-.19-.4-.29-.61a3.43,3.43,0,0,1-.26-.68,5.6,5.6,0,0,1-.21-.73c-.05-.25-.11-.51-.16-.78s-.08-.54-.13-.82l-.24-1.7c-.08-.58-.2-1.17-.31-1.74a11.11,11.11,0,0,0-.54-1.66,7.13,7.13,0,0,0-.77-1.45,8.41,8.41,0,0,0-.94-1.13c-.34-.31-.68-.55-1-.78a4.84,4.84,0,0,0-.8-.45L152,116l.61.53a5.8,5.8,0,0,1,.68.61l.76.85a13,13,0,0,1,.72,1.13,8,8,0,0,1,.57,1.37,14,14,0,0,1,.42,1.55c.09.55.2,1.1.26,1.68s.19,1.15.28,1.72a12.07,12.07,0,0,0,.4,1.68,5.77,5.77,0,0,0,.29.79,5.37,5.37,0,0,0,.36.72l.42.65c.16.19.34.36.49.53a3.13,3.13,0,0,0,.83.66,4.54,4.54,0,0,0,.5-.12A1.09,1.09,0,0,1,159.51,130.28Z"/></g></g></svg>