<?xml version="1.0" encoding="utf-8"?>
<!-- Generator: Adobe Illustrator 26.0.3, SVG Export Plug-In . SVG Version: 6.00 Build 0)  -->
<svg version="1.1" id="图层_1" xmlns="http://www.w3.org/2000/svg" xmlns:xlink="http://www.w3.org/1999/xlink" x="0px" y="0px"
	 viewBox="0 0 200 200" style="enable-background:new 0 0 200 200;" xml:space="preserve">
<style type="text/css">
	.st0{fill:none;stroke:#000000;stroke-width:8;stroke-linecap:round;stroke-linejoin:round;stroke-miterlimit:10;}
</style>
<path class="st0" d="M33,80.1c0,0,24.2-26,69-25.3c44.9,0.7,65.7,25.3,65.7,25.3"/>
<path class="st0" d="M56.5,100c0,0,15.9-16.1,44.8-16.1c29.4,0,44.8,16.1,44.8,16.1"/>
<path class="st0" d="M73.8,122.2c0,0,10.6-10.8,27.2-10.3s27.1,10.3,27.1,10.3"/>
<path d="M111.7,141.4c0.1,0.4-0.1,0.9-0.4,1.2c-1.6,1.4-6.4,5.8-8.4,7.4c-0.5,0.4-1.2,0.4-1.7,0l-8.7-7.6c-0.2-0.1-0.3-0.4-0.2-0.6
	c0.3-3.3,5.6-5.2,9.7-5.2C106,136.7,111,138.5,111.7,141.4z"/>
</svg>
