<svg xmlns="http://www.w3.org/2000/svg" viewBox="0 0 69.36 23.13"><g id="图层_2" data-name="图层 2"><g id="图层_1-2" data-name="图层 1"><path d="M13.51,8.59V1.45H11V0h6.83V1.45H15.24V8.59Z"/><path d="M21.61,6.61l1.64.27a2.72,2.72,0,0,1-1,1.38,3,3,0,0,1-1.71.47,2.77,2.77,0,0,1-2.4-1.06,3.57,3.57,0,0,1-.62-2.14,3.45,3.45,0,0,1,.81-2.43,2.68,2.68,0,0,1,2.05-.87,2.77,2.77,0,0,1,2.19.91A4.05,4.05,0,0,1,23.33,6H19.21a1.62,1.62,0,0,0,.4,1.14,1.25,1.25,0,0,0,.95.41,1,1,0,0,0,.65-.21A1.35,1.35,0,0,0,21.61,6.61ZM21.7,5a1.56,1.56,0,0,0-.37-1.09,1.11,1.11,0,0,0-.85-.37,1.17,1.17,0,0,0-.9.39A1.56,1.56,0,0,0,19.24,5Z"/><path d="M24.68,8.59V0h1.64V8.59Z"/><path d="M31.61,6.61l1.64.27a2.7,2.7,0,0,1-1,1.38,3,3,0,0,1-1.71.47,2.77,2.77,0,0,1-2.4-1.06,3.57,3.57,0,0,1-.62-2.14,3.45,3.45,0,0,1,.81-2.43,2.67,2.67,0,0,1,2-.87,2.78,2.78,0,0,1,2.2.91A4.05,4.05,0,0,1,33.34,6H29.22a1.62,1.62,0,0,0,.4,1.14,1.25,1.25,0,0,0,.95.41,1,1,0,0,0,.65-.21A1.35,1.35,0,0,0,31.61,6.61ZM31.71,5a1.6,1.6,0,0,0-.37-1.09,1.14,1.14,0,0,0-.86-.37,1.15,1.15,0,0,0-.89.39A1.51,1.51,0,0,0,29.25,5Z"/><path d="M40.11,4.21l-1.62.29a1.21,1.21,0,0,0-.37-.73,1.12,1.12,0,0,0-.76-.25,1.21,1.21,0,0,0-1,.43A2.18,2.18,0,0,0,36,5.37a2.47,2.47,0,0,0,.38,1.56,1.2,1.2,0,0,0,1,.46,1.09,1.09,0,0,0,.76-.27,1.65,1.65,0,0,0,.43-.91l1.61.27a2.91,2.91,0,0,1-1,1.68,3,3,0,0,1-1.92.57,2.87,2.87,0,0,1-2.18-.86,3.36,3.36,0,0,1-.81-2.39,3.34,3.34,0,0,1,.82-2.4,2.88,2.88,0,0,1,2.2-.85,3,3,0,0,1,1.81.49A2.68,2.68,0,0,1,40.11,4.21Z"/><path d="M41,5.39a3.35,3.35,0,0,1,.4-1.59,2.76,2.76,0,0,1,1.15-1.17,3.36,3.36,0,0,1,1.65-.4,3.12,3.12,0,0,1,2.32.91,3.18,3.18,0,0,1,.9,2.32,3.2,3.2,0,0,1-.91,2.34,3.08,3.08,0,0,1-2.3.93,3.59,3.59,0,0,1-1.63-.39,2.58,2.58,0,0,1-1.18-1.13A3.77,3.77,0,0,1,41,5.39Zm1.69.09A2.08,2.08,0,0,0,43.1,6.9a1.44,1.44,0,0,0,1.09.49,1.41,1.41,0,0,0,1.08-.49,2.11,2.11,0,0,0,.44-1.43,2.07,2.07,0,0,0-.44-1.41,1.38,1.38,0,0,0-1.08-.49,1.41,1.41,0,0,0-1.09.49A2.08,2.08,0,0,0,42.67,5.48Z"/><path d="M48.57,2.37h1.51v.85a2.45,2.45,0,0,1,1.94-1,2.13,2.13,0,0,1,1,.24,1.93,1.93,0,0,1,.72.75,2.81,2.81,0,0,1,.89-.75,2.18,2.18,0,0,1,1-.24,2.31,2.31,0,0,1,1.16.27,1.73,1.73,0,0,1,.71.82,3.66,3.66,0,0,1,.17,1.29v4H56.07V5a2.69,2.69,0,0,0-.17-1.19.77.77,0,0,0-.7-.35,1.15,1.15,0,0,0-1.09.83A4.38,4.38,0,0,0,54,5.6v3H52.33V5.18A4.55,4.55,0,0,0,52.24,4,.72.72,0,0,0,52,3.62a.84.84,0,0,0-.5-.13,1.17,1.17,0,0,0-.69.2,1.2,1.2,0,0,0-.44.59,4.77,4.77,0,0,0-.13,1.29v3H48.57Z"/><path d="M0,16.77H1.52v.85a2.44,2.44,0,0,1,1.94-1,2.09,2.09,0,0,1,1,.24,1.8,1.8,0,0,1,.72.75,2.92,2.92,0,0,1,.89-.75,2.21,2.21,0,0,1,1-.24,2.29,2.29,0,0,1,1.16.27,1.68,1.68,0,0,1,.71.82A3.44,3.44,0,0,1,9.15,19v4H7.51V19.43a2.69,2.69,0,0,0-.17-1.19.78.78,0,0,0-.71-.35A1.14,1.14,0,0,0,6,18.1a1.16,1.16,0,0,0-.44.62A4.45,4.45,0,0,0,5.41,20v3H3.76V19.58a4.55,4.55,0,0,0-.09-1.17A.67.67,0,0,0,3.4,18a.82.82,0,0,0-.5-.13,1.21,1.21,0,0,0-.69.2,1.18,1.18,0,0,0-.43.59A4.39,4.39,0,0,0,1.65,20v3H0Z"/><path d="M14.89,23v-.93a2.48,2.48,0,0,1-.89.78,2.53,2.53,0,0,1-1.17.29,2.23,2.23,0,0,1-1.13-.28,1.63,1.63,0,0,1-.72-.77,3.43,3.43,0,0,1-.22-1.38V16.77H12.4v2.86a6.9,6.9,0,0,0,.1,1.6.85.85,0,0,0,.33.47,1,1,0,0,0,.61.18,1.3,1.3,0,0,0,.75-.23,1.22,1.22,0,0,0,.46-.58,6.85,6.85,0,0,0,.12-1.68V16.77h1.65V23Z"/><path d="M23.78,23H22.14V19.81a4.84,4.84,0,0,0-.11-1.3.89.89,0,0,0-.34-.46,1,1,0,0,0-.57-.16,1.29,1.29,0,0,0-.77.23,1.21,1.21,0,0,0-.47.62,5.67,5.67,0,0,0-.12,1.43V23H18.11V16.77h1.53v.91a2.58,2.58,0,0,1,3.05-.86,1.65,1.65,0,0,1,.68.5,1.94,1.94,0,0,1,.32.7,5.06,5.06,0,0,1,.09,1.1Z"/><path d="M25.45,15.92V14.4H27.1v1.52Zm0,7.07V16.77H27.1V23Z"/><path d="M34.21,18.61l-1.62.29a1.16,1.16,0,0,0-.37-.73,1.12,1.12,0,0,0-.76-.25,1.22,1.22,0,0,0-1,.43,2.18,2.18,0,0,0-.36,1.42,2.48,2.48,0,0,0,.37,1.56,1.21,1.21,0,0,0,1,.46,1.11,1.11,0,0,0,.77-.27,1.58,1.58,0,0,0,.42-.92l1.61.28a2.86,2.86,0,0,1-1,1.68,3,3,0,0,1-1.92.57,2.85,2.85,0,0,1-2.17-.86,3.32,3.32,0,0,1-.82-2.39,3.39,3.39,0,0,1,.82-2.4,2.89,2.89,0,0,1,2.2-.85,3,3,0,0,1,1.81.49A2.63,2.63,0,0,1,34.21,18.61Z"/><path d="M36.69,18.67,35.2,18.4a2.32,2.32,0,0,1,.86-1.34,3.17,3.17,0,0,1,1.83-.43,3.82,3.82,0,0,1,1.64.26,1.57,1.57,0,0,1,.76.66A3.34,3.34,0,0,1,40.51,19l0,1.92a6.81,6.81,0,0,0,.08,1.21,3.72,3.72,0,0,0,.3.84H39.24c0-.11-.1-.27-.16-.49a1.47,1.47,0,0,0-.06-.19,3.09,3.09,0,0,1-.9.62,2.69,2.69,0,0,1-1,.2,2.13,2.13,0,0,1-1.52-.52A1.74,1.74,0,0,1,35,21.29a1.76,1.76,0,0,1,.25-.94,1.56,1.56,0,0,1,.71-.63,5.22,5.22,0,0,1,1.3-.39,8.94,8.94,0,0,0,1.6-.4v-.16a.84.84,0,0,0-.23-.68,1.37,1.37,0,0,0-.88-.2,1.14,1.14,0,0,0-.69.17A1.2,1.2,0,0,0,36.69,18.67ZM38.89,20a8.32,8.32,0,0,1-1,.25,3.2,3.2,0,0,0-.89.29.69.69,0,0,0-.33.58.83.83,0,0,0,.26.6.89.89,0,0,0,.66.25,1.48,1.48,0,0,0,.85-.29,1,1,0,0,0,.39-.55,3.48,3.48,0,0,0,.06-.8Z"/><path d="M45,16.77v1.31H43.86v2.51a4.76,4.76,0,0,0,0,.89.35.35,0,0,0,.14.2.45.45,0,0,0,.28.09,2.33,2.33,0,0,0,.66-.16l.14,1.27a3.14,3.14,0,0,1-1.3.25A2.07,2.07,0,0,1,43,23a1.13,1.13,0,0,1-.52-.39,1.45,1.45,0,0,1-.24-.64,9,9,0,0,1,0-1.16V18.08h-.75V16.77h.75V15.53l1.65-1v2.2Z"/><path d="M46.13,15.92V14.4h1.65v1.52Zm0,7.07V16.77h1.65V23Z"/><path d="M49.08,19.79a3.36,3.36,0,0,1,.41-1.59A2.8,2.8,0,0,1,50.63,17a3.42,3.42,0,0,1,1.66-.4,3.1,3.1,0,0,1,2.31.91,3.15,3.15,0,0,1,.91,2.32,3.2,3.2,0,0,1-.92,2.34,3.06,3.06,0,0,1-2.29.93,3.59,3.59,0,0,1-1.63-.39,2.58,2.58,0,0,1-1.18-1.13A3.77,3.77,0,0,1,49.08,19.79Zm1.69.09a2.08,2.08,0,0,0,.44,1.42,1.42,1.42,0,0,0,1.08.49,1.44,1.44,0,0,0,1.09-.49,2.11,2.11,0,0,0,.43-1.43,2.07,2.07,0,0,0-.43-1.41A1.41,1.41,0,0,0,52.29,18a1.39,1.39,0,0,0-1.08.49A2.08,2.08,0,0,0,50.77,19.88Z"/><path d="M62.46,23H60.81V19.81a4.84,4.84,0,0,0-.11-1.3.89.89,0,0,0-.34-.46,1,1,0,0,0-.57-.16,1.29,1.29,0,0,0-.77.23,1.14,1.14,0,0,0-.46.62,5.12,5.12,0,0,0-.13,1.43V23H56.78V16.77h1.53v.91a2.51,2.51,0,0,1,2-1.05,2.48,2.48,0,0,1,1,.19,1.65,1.65,0,0,1,.68.5,1.79,1.79,0,0,1,.32.7,5,5,0,0,1,.1,1.1Z"/><path d="M63.54,21.21,65.2,21a1.21,1.21,0,0,0,.42.73,1.45,1.45,0,0,0,.91.25,1.7,1.7,0,0,0,1-.23.54.54,0,0,0,.22-.44.41.41,0,0,0-.12-.31,1.34,1.34,0,0,0-.55-.22,9,9,0,0,1-2.53-.8,1.62,1.62,0,0,1-.74-1.4,1.73,1.73,0,0,1,.64-1.36,3,3,0,0,1,2-.55,3.53,3.53,0,0,1,1.9.41,2.14,2.14,0,0,1,.86,1.23l-1.56.29a1,1,0,0,0-.37-.56,1.39,1.39,0,0,0-.8-.19,1.81,1.81,0,0,0-.93.18.42.42,0,0,0-.19.34.36.36,0,0,0,.17.29,6.08,6.08,0,0,0,1.53.47,4.59,4.59,0,0,1,1.84.73A1.5,1.5,0,0,1,69.36,21a1.91,1.91,0,0,1-.72,1.48,3.14,3.14,0,0,1-2.11.61,3.46,3.46,0,0,1-2-.52A2.42,2.42,0,0,1,63.54,21.21Z"/></g></g></svg>