<svg xmlns="http://www.w3.org/2000/svg" viewBox="0 0 231.45 45.59"><defs><style>.cls-1{fill:#0d123d;}.cls-2{fill:#e54927;}.cls-3{fill:#e85b26;}.cls-4{fill:#e33e28;}.cls-5{fill:#ea6825;}.cls-6{fill:#e85e25;}.cls-7{fill:#e85f25;}.cls-8{fill:#e12e29;}.cls-9{fill:#e75a26;}.cls-10{fill:#e23a28;}.cls-11{fill:#0e133d;}.cls-12{fill:#e23629;}.cls-13{fill:#e23928;}.cls-14{fill:#e75526;}.cls-15{fill:#e0292a;}.cls-16{fill:#e96425;}.cls-17{fill:#ea6725;}.cls-18{fill:#e44228;}.cls-19{fill:#e65027;}.cls-20{fill:#e44627;}.cls-21{fill:#0e133e;}.cls-22{fill:#e65127;}.cls-23{fill:#e13329;}.cls-24{fill:#e33f28;}.cls-25{fill:#e96225;}.cls-26{fill:#e54b27;}.cls-27{fill:#e44428;}.cls-28{fill:#e75a28;}.cls-29{fill:#e23529;}.cls-30{fill:#e44727;}.cls-31{fill:#e64d27;}.cls-32{fill:#e64e28;}.cls-33{fill:#e54d28;}.cls-34{fill:#e2372a;}.cls-35{fill:#e64f28;}.cls-36{fill:#e44728;}.cls-37{fill:#121741;}.cls-38{fill:#fefefe;}.cls-39{fill:#fefdfd;}</style></defs><g id="图层_2" data-name="图层 2"><g id="图层_1-2" data-name="图层 1"><path class="cls-1" d="M34.26,8.29C36.25,4,39.38,1.1,44.1.18A8.62,8.62,0,0,1,51,1.7c.66.48.68.84.08,1.4-1.44,1.38-2.86,2.79-4.26,4.21a1,1,0,0,1-1.36.21,3,3,0,0,0-4.21,1.13,6.59,6.59,0,0,0-.85,2q-2.55,9.53-5.11,19.06a3.78,3.78,0,0,0,0,.55c1.67,0,3.31,0,4.94,0,.87,0,1.13.22.85,1.12-.49,1.59-.89,3.22-1.29,4.85a1.19,1.19,0,0,1-1.43,1.06c-1.27-.07-2.56.07-3.83,0-1-.09-1.36.31-1.57,1.25-.44,2-1.05,3.93-1.53,5.9-.21.86-.57,1.3-1.54,1.25-1.52-.07-3,0-4.55,0-1,0-1.29-.23-1-1.25C25,42,25.64,39.65,26.3,37.19H17.35c-.2-1.14.61-2.06.68-3.14.37-1.21.66-2.43,1-3.64a.86.86,0,0,1,.44-.38c2.23-.25,4.47-.06,6.7-.11,1.7,0,1.71-.06,2.18-1.72,1.21-4.23,2.18-8.52,3.49-12.71a9.14,9.14,0,0,0,.47-1.6c.27-.92.55-1.83.76-2.77A18.73,18.73,0,0,1,34,8.52Z"/><path class="cls-1" d="M189.81,29.61c-.2.77-.33,1.31-.48,1.84-.21.73-.81.57-1.29.49s-.23-.56-.15-.85q2.73-10.28,5.5-20.55a1.86,1.86,0,0,1,.28-.77,1.08,1.08,0,0,1,1.13-.13c.6.17.17.62.1.89-.84,3.26-1.73,6.51-2.6,9.79.46.26.67-.16.92-.33a9,9,0,0,1,4.45-1.6,5,5,0,0,1,5.59,6A9.41,9.41,0,0,1,194.45,32,5.43,5.43,0,0,1,189.81,29.61Z"/><path class="cls-2" d="M109.32,18.51c.55.07.86.55,1.32.78.53-.32.11-1.26,1-1.39,2.06-.28,2.24-.14,1.71,1.85-1,4-2.07,7.93-3.19,11.87a9.52,9.52,0,0,1-7.58,7c-.4-1,.25-1.82.72-2.63,1.81-.89,3.39-2,4-4.06.12-.38.54-.87.13-1.19s-.69.2-1,.34-.63.28-.94.42c-.66-.93.2-1.72.24-2.59.25-.58.81-.84,1.24-1.24a5.12,5.12,0,0,0,2-4.22c-.06-.95-.81-1.52-1.08-2.34C108.2,20.16,108.17,19,109.32,18.51Z"/><path class="cls-3" d="M33.32,11.07A14.43,14.43,0,0,1,32.58,14c-.33.58-.9.6-1.46.6q-9.66,0-19.32,0a1.51,1.51,0,0,1-1.22-.37,13.07,13.07,0,0,1,.75-2.89c.33-.57.9-.6,1.46-.61,6.44,0,12.87,0,19.31,0A1.51,1.51,0,0,1,33.32,11.07Z"/><path class="cls-4" d="M132.46,14.71c1.52,0,1.52,0,1.15,1.37a7.4,7.4,0,0,1-.21.81c-.32.82,0,1.05.81,1,.39,0,1.23-.27,1.09.4s.12,2-1.13,2.24a1.94,1.94,0,0,1-.72,0c-.79-.14-1.13.23-1.31,1-.51,2.05-1.09,4.08-1.62,6.12-.34,1.33-.18,1.45,1.2,1.48.9,0,.77,1,1.12,1.5s-.09.71-.47.88c-1.25.55-2.55.84-3.75,0s-1.23-2.14-.87-3.46c.58-2.16,1.1-4.33,1.73-6.47.25-.84,0-1-.77-1-.41,0-1.29.35-1.11-.5s-.13-2.19,1.2-2.07c1.62.14,2-.71,2.13-2C131.05,15,131.51,14.44,132.46,14.71Z"/><path class="cls-5" d="M63.11,14.75c1.31-.29,1.44.3,1,1.28-.06.15-.07.32-.13.46-.44,1-.29,1.59,1,1.4.78-.11.9.19.74,1-.25,1.21-.67,2-2.1,1.72-.5-.1-.77.13-.91.67-.57,2.24-1.21,4.46-1.79,6.7-.28,1.08,0,1.41,1.1,1.25s.89.89,1.26,1.38-.06.77-.48.95c-1.27.55-2.56.81-3.75-.08s-1.18-2.09-.84-3.37c.57-2.19,1.11-4.4,1.75-6.58.23-.8,0-.95-.73-.95-.41,0-1.14.4-1.22-.47s.66-2.27,1.31-2.16c1.45.25,1.88-.53,2-1.74C61.55,15.18,61.87,14.33,63.11,14.75Z"/><path class="cls-6" d="M33.32,11.07H12.84a2.52,2.52,0,0,0-1.51.23c.85-3.54.32-2.89,3.67-3,1.14,0,2.36.43,3.44-.33a2.24,2.24,0,0,1,1.47-.37c1.28,0,2.56,0,3.83,0,.36,0,.81-.08,1.05.15.9.86,2,.55,3,.59,2.14.09,4.29-.14,6.43.12Z"/><path class="cls-1" d="M183,30.07a7.81,7.81,0,0,1-5.5,1.89c-2.33-.18-3.34-1.57-2.78-3.82A5.09,5.09,0,0,1,178,24.53a12,12,0,0,1,5.54-.67c.89.09,1.09-.26,1.22-1,.34-2-.41-3-2.47-3a6.1,6.1,0,0,0-3.42.91c-.54.35-.88.24-1.17-.24s.15-.78.51-1a8.18,8.18,0,0,1,5.5-1.13A2.88,2.88,0,0,1,186.42,22c-.28,2.59-1.35,5-1.68,7.58-.06.48-.18.94-.23,1.42-.07.69-.31,1.09-1.11,1-1-.12-.32-.79-.45-1.18A4.2,4.2,0,0,1,183,30.07Z"/><path class="cls-7" d="M70.74,29.28c2.65.54,4.56-.65,5.29-3.31.68-2.46,1.33-4.92,2-7.38.2-.72,2.17-1.25,2.7-.74.24.24.11.53,0,.79Q79.1,24.92,77.4,31.2c-.18.69-2.39,1.13-2.71.48s-.67-.29-1-.18a5.57,5.57,0,0,1-4.15.17A2.91,2.91,0,0,1,70.74,29.28Z"/><path class="cls-8" d="M161.35,20.61a4.34,4.34,0,0,0-5,3.41c-.65,2.3-1.24,4.62-1.86,6.93a2.3,2.3,0,0,1-2.8.95c-.26-.2-.08-.42,0-.64,1.14-4.23,2.26-8.47,3.41-12.69.38-1.4,1.52-.59,2.31-.72s.23.72.47,1c1.47-.59,2.9-1.22,4.5-.64A5.38,5.38,0,0,0,161.35,20.61Z"/><path class="cls-9" d="M90.62,20.49A4.43,4.43,0,0,0,86.3,24c-.66,2.3-1.26,4.61-1.89,6.92a2.15,2.15,0,0,1-2.73,1.05c-.32-.22-.17-.51-.1-.75,1.11-4.2,2.24-8.39,3.35-12.58.15-.55.45-.91,1-.75s1.57-.6,1.82.6c.13.63.46.23.69.15a5.92,5.92,0,0,1,2.9-.52A2.91,2.91,0,0,1,90.62,20.49Z"/><path class="cls-10" d="M16.87,38a9.85,9.85,0,0,1-3,4c-3.42-.08-6.84,0-10.26,0-.71,0-1.46.1-2-.6l3.16-3.21a.72.72,0,0,1,1-.14c1.46,1,2.76.58,4-.47a35.72,35.72,0,0,1,6-.09A1,1,0,0,1,16.87,38Z"/><path class="cls-11" d="M177.22,9.83a2.65,2.65,0,0,1,1.28.25c.32.18.94.28.65.77s-.5,1.12-1.36.8a2.24,2.24,0,0,0-3.22,1.43c-.55,1.54-.89,3.15-1.34,4.72-.11.37,0,.51.36.5s.72,0,1.08,0,.9-.2.87.45c0,.5-.08,1.08-.8,1.14h-.12c-.66.16-1.52-.4-2,.31a6.64,6.64,0,0,0-.55,1.93l-2.37,8.77a2.06,2.06,0,0,1-.32.89,1.08,1.08,0,0,1-1.13.14c-.52-.17-.2-.62-.12-.91.89-3.39,1.82-6.77,2.71-10.16.09-.32.61-1-.38-1-.35,0-.9.17-.81-.5.06-.5.11-1.18.84-1.07,1.08.16,1.21-.52,1.39-1.29.3-1.24.62-2.48,1-3.69A4.7,4.7,0,0,1,177.22,9.83Z"/><path class="cls-12" d="M1.7,41.29A6.84,6.84,0,0,0,4,41.53q4.39,0,8.79,0c.39,0,.91-.23,1.09.4-3.08,3.55-9,4.64-12.73,2.35-1.53-.94-1.54-1-.29-2.3C1.15,41.75,1.43,41.52,1.7,41.29Z"/><path class="cls-11" d="M224.55,32c-3.65,0-5.85-2.66-5.22-6.18.81-4.63,5.85-8.26,10.18-7.31a5.48,5.48,0,0,1,1.23.44c.37.17,1,.33.58.91-.3.42-.56,1.1-1.4.61-3.58-2.08-9.2,1.77-9.11,6.3a3.94,3.94,0,0,0,4.86,3.65,6.7,6.7,0,0,0,1.6-.47c.5-.21.88-.37,1.15.28s-.18.84-.63,1.05A7.09,7.09,0,0,1,224.55,32Z"/><path class="cls-13" d="M138.82,31.42A4.62,4.62,0,0,1,136,27.56c-.57-3.8,3.06-8.64,6.89-9.27.58.9-.24,1.65-.27,2.48-.38.69-1.1,1-1.66,1.47a8.89,8.89,0,0,0-1.5,2A1.12,1.12,0,0,1,141,24c.07,1-.71,1.74-.71,2.7-.44.12-1.22.17-1.26.36-.11.6.37,1.07.8,1.49.08.08.15.17.23.26A2.85,2.85,0,0,1,138.82,31.42Z"/><path class="cls-14" d="M90.62,20.49a9.67,9.67,0,0,1,.73-2.42c2.84.22,4.53,2.33,3.92,5.07s-1.36,5.4-2,8.1c-.1.4-.24.78-.77.73s-1.38.19-2-.17c-.2-.12,0-.52.09-.78.65-2.34,1.3-4.68,1.92-7C93,22,92.49,21.07,90.62,20.49Z"/><path class="cls-15" d="M161.35,20.61a1.78,1.78,0,0,1,1-2.37c2.31.48,3.59,2.53,3,5.11s-1.37,5.31-2.08,8c-.16.57-2.32,1-2.69.54-.23-.29,0-.61.09-.9.62-2.34,1.27-4.68,1.89-7C163,22.19,162.82,21.63,161.35,20.61Z"/><path class="cls-16" d="M70.74,29.28l-1.19,2.39A3.92,3.92,0,0,1,67,27c.65-2.84,1.43-5.64,2.18-8.45.17-.63,2.25-1.09,2.67-.6.24.28,0,.6-.06.9-.67,2.46-1.31,4.93-2,7.38A2.58,2.58,0,0,0,70.74,29.28Z"/><path class="cls-17" d="M19.24,4.83l1-3.93A1,1,0,0,1,21.3,0c1.75,0,3.51,0,5.26,0,.74,0,.92.26.71.93-.38,1.21-.72,2.43-1.08,3.65a1.2,1.2,0,0,1-.65.29A39,39,0,0,1,19.24,4.83Z"/><path class="cls-18" d="M120.4,23.28c.32.15.65.28,1,.45,2.82,1.49,3.28,3.81,1.22,6.27a6.32,6.32,0,0,1-6.54,1.69c0-1.36.35-2.1,1.28-2.43a6.3,6.3,0,0,0,2.25,0,1.82,1.82,0,0,0,1.5-1.49c.11-.79-.56-1.08-1-1.45-.28-.21-.6-.36-.89-.54A2.08,2.08,0,0,1,120.4,23.28Z"/><path class="cls-14" d="M15.3,19.44l1.06-3.82a.85.85,0,0,1,.89-.79,47.36,47.36,0,0,1,5.46,0,.85.85,0,0,1,.61.33A6,6,0,0,1,22,20a30.68,30.68,0,0,1-5.42.06A1.51,1.51,0,0,1,15.3,19.44Z"/><path class="cls-19" d="M15.3,19.44c2.25.51,4.54.16,6.81.27.36.44.19.91.05,1.36-.23.79-.4,1.61-.63,2.4-.13.41-.22.86-.77.93H15.68A2,2,0,0,1,14.13,24Z"/><path class="cls-20" d="M120.4,23.28c-.85.6-.89,1.61-1.25,2.46-2.17-1-3-2-2.82-3.52a4.93,4.93,0,0,1,3.86-4.08,5.16,5.16,0,0,1,4.54.78c.52.39.63.75,0,1.2-.82.61-1.52,1.45-2.66.51a1.87,1.87,0,0,0-1.51-.15c-.75.12-1.43.43-1.59,1.24s.55,1,1,1.3Z"/><path class="cls-21" d="M209.35,19.65c.55.14.82-.24,1.16-.41a5.67,5.67,0,0,1,3.08-.76c.33,0,1-.26.89.39,0,.44-.17,1.09-.87,1.1-3.36.07-4.94,2.07-5.65,5.1-.47,2-1,4-1.58,6-.12.43-.16.93-.86.93s-.93-.16-.73-.88c1.09-4,2.18-8,3.22-12,.2-.79.7-1,1.3-.79C210.06,18.64,209.45,19.18,209.35,19.65Z"/><path class="cls-22" d="M99.27,30.69c-1.77-1.43-2-3.35-1.55-5.39a9.47,9.47,0,0,1,5.86-6.72c.38.43.07.82-.08,1.21a3,3,0,0,0-.31,1.72,1.23,1.23,0,0,1-.49.66,4.89,4.89,0,0,0-1.86,5.09,1,1,0,0,1,0,.59C100.07,28.68,100.1,29.91,99.27,30.69Z"/><path class="cls-23" d="M146.73,18.26c3,1.46,4,3.62,3.09,6.85-.16.55-.38.9-1,.91-1,0-2,.11-3,.17-1.93.27-2.09,0-1.22-2.25a2,2,0,0,1,1.6-.65c.86-.1.87-.49.5-1.12s-.83-.76-1.06-1.28A3.27,3.27,0,0,1,146.73,18.26Z"/><path class="cls-24" d="M16.87,38c-.93-.49-1.93-.19-2.9-.27-1.36-.11-2.75.25-4.09-.22a9.45,9.45,0,0,0,1.45-3.14,1,1,0,0,1,1-.57c1.74-.07,3.49-.09,5.23,0a1,1,0,0,1,.73.33,11.47,11.47,0,0,1-.92,3.09Z"/><path class="cls-25" d="M19.24,4.83c1.06-.48,2.18-.17,3.27-.22s2.45,0,3.68,0c-.21.84-.35,1.71-.63,2.53s-.16,1.2.85,1.17c2.61-.06,5.23,0,7.85,0a.11.11,0,0,1,0,.14c-5.29.36-10.53-.65-15.81-.49A16.71,16.71,0,0,1,19.24,4.83Z"/><path class="cls-26" d="M14.13,24c1.85,0,3.7,0,5.55,0,.41,0,.88-.16,1.21.26A3.89,3.89,0,0,1,19.78,28H14.55c-.5,0-1,.05-1.43-.4Z"/><path class="cls-27" d="M18.27,34.1h-5.8a1.89,1.89,0,0,0-1.14.24l1-3.6a1.06,1.06,0,0,1,1-.57c1.74-.07,3.47-.08,5.2,0a1,1,0,0,1,.74.33A13.64,13.64,0,0,1,18.27,34.1Z"/><path class="cls-28" d="M23.29,15.43c-.29-.4-.71-.27-1.09-.28-1.53,0-3.07,0-4.6,0a1.27,1.27,0,0,0-1.24.48c-.78-.59-1.67-.18-2.5-.25a20.82,20.82,0,0,0-2.62,0c-1,0-1.11-.4-.66-1.17H31.07A2.55,2.55,0,0,0,32.58,14a2.8,2.8,0,0,1-.45,1.42,1.66,1.66,0,0,1-1.21.38c-2.18,0-4.35,0-6.52,0A1.58,1.58,0,0,1,23.29,15.43Z"/><path class="cls-29" d="M138.82,31.42c.41-.88.81-1.77,1.22-2.65,2.14,1.07,4,.43,5.73-1a1.78,1.78,0,0,1,2.43.55c.1.22,0,.37-.14.52C146,31.33,141.68,32.93,138.82,31.42Z"/><path class="cls-21" d="M214.36,32c-.76.15-.88-.18-.71-.79,1.09-4,2.18-8,3.22-12a.9.9,0,0,1,1.24-.75c.7.16.32.73.23,1.07q-1.53,5.84-3.12,11.66C215.1,31.58,215,32.16,214.36,32Z"/><path class="cls-30" d="M19.2,30.5H13.56a2.09,2.09,0,0,0-1.27.24l.83-3.14c1.86,0,3.72,0,5.58,0,.42,0,.89-.16,1.23.25a2.21,2.21,0,0,1-.48,2.32Z"/><path class="cls-31" d="M99.27,30.69c.45-1,.34-2.22,1.47-2.84a.54.54,0,0,1,.53.16,3.64,3.64,0,0,0,3.72.77c.33-.09.68-.25,1,.08.22.95-.66,1.72-.46,2.67C103.3,32.26,101.17,32.34,99.27,30.69Z"/><path class="cls-32" d="M103.15,21.4c-.47-.16-.4-.44-.26-.83a6.72,6.72,0,0,0,.69-2,6.64,6.64,0,0,1,5.74-.07,8.21,8.21,0,0,0-1.19,2.65c-.07.05-.15.12-.21.11C106.32,20.75,104.74,21.16,103.15,21.4Z"/><path class="cls-33" d="M103.34,36c0,1-.72,1.69-.72,2.63a5.26,5.26,0,0,1-4.82-.9,2.58,2.58,0,0,1,1.42-2.69c.71,1,1.78,1,2.83,1A11.18,11.18,0,0,0,103.34,36Z"/><path class="cls-12" d="M144.81,23.79a4.28,4.28,0,0,1-.07.81c-.47,1.56-.48,1.55,1.08,1.59a35.63,35.63,0,0,1-5.55.47c-.57-1.08.31-1.77.71-2.59A4.22,4.22,0,0,1,144.81,23.79Z"/><path class="cls-34" d="M146.73,18.26l-1,2.6a9.26,9.26,0,0,1-3.36,0c-.21-.93.61-1.68.48-2.6A5.1,5.1,0,0,1,146.73,18.26Z"/><path class="cls-35" d="M99.22,35.06a7.41,7.41,0,0,0-1.42,2.69,4.17,4.17,0,0,1-.47-.36c-.55-.57-1.33-1.2-1.1-2s1.3-.93,2-1.25S99,34.66,99.22,35.06Z"/><path class="cls-36" d="M117.33,29.26c-.88.57-.82,1.63-1.28,2.43a1.31,1.31,0,0,1-.35,0c-.71-.33-1.8-.64-1.72-1.39s1.19-1.29,2-1.69C116.48,28.3,116.85,29.05,117.33,29.26Z"/><path class="cls-37" d="M218.86,15.18c-.66,0-1-.26-1-.85A1.34,1.34,0,0,1,219.29,13a.71.71,0,0,1,.82.79A1.35,1.35,0,0,1,218.86,15.18Z"/><path class="cls-38" d="M19.45,30.2l.48-2.32a17.78,17.78,0,0,0,1-3.59,28.61,28.61,0,0,0,1.22-4.58,35.2,35.2,0,0,0,1.18-4.28l8.84,0c-1.24,4.64-2.49,9.28-3.69,13.94-.19.74-.51.92-1.22.91C24.63,30.19,22,30.21,19.45,30.2Z"/><path class="cls-38" d="M197.66,19.91a3.84,3.84,0,0,1,4,4.61,7.45,7.45,0,0,1-6.74,6,3.9,3.9,0,0,1-4.1-4.58A7.38,7.38,0,0,1,197.66,19.91Z"/><path class="cls-38" d="M103.15,21.4a5.08,5.08,0,0,1,5-.24c1.91,2.21,1.46,5-1.11,6.94l-1,.76a17.34,17.34,0,0,1-2.3.46,3.61,3.61,0,0,1-2.94-1.47,4.84,4.84,0,0,1,1.43-5.59Z"/><path class="cls-38" d="M182,25.25c.78,0,1.69-.21,1.95.28s-.22,1.34-.59,1.95a6.05,6.05,0,0,1-4.13,3c-1.41.26-2.73-.2-3-1a2.91,2.91,0,0,1,1.55-3.28A9.76,9.76,0,0,1,182,25.25Z"/><path class="cls-39" d="M142.41,20.89a5.74,5.74,0,0,1,3.36,0,3.27,3.27,0,0,1,1.55,2c.07.46,0,.65-.51.68-.67,0-1.33.16-2,.24a28.9,28.9,0,0,0-3.83.28h-1.65C139.84,22.49,141.11,21.67,142.41,20.89Z"/></g></g></svg>