<svg xmlns="http://www.w3.org/2000/svg" xmlns:xlink="http://www.w3.org/1999/xlink" viewBox="0 0 484.61 124.01"><defs><style>.cls-1{fill:none;}.cls-2{fill:#9e9e9f;}.cls-3{fill:#231815;}.cls-4{fill:#e60027;}.cls-5{clip-path:url(#clip-path);}.cls-6{fill:url(#未命名的渐变_8);}.cls-7{clip-path:url(#clip-path-2);}.cls-8{fill:url(#未命名的渐变_8-2);}.cls-9{clip-path:url(#clip-path-3);}.cls-10{fill:url(#未命名的渐变_8-3);}.cls-11{clip-path:url(#clip-path-4);}.cls-12{fill:url(#未命名的渐变_8-4);}.cls-13{clip-path:url(#clip-path-5);}.cls-14{fill:url(#未命名的渐变_8-5);}.cls-15{clip-path:url(#clip-path-6);}.cls-16{fill:url(#未命名的渐变_8-6);}.cls-17{clip-path:url(#clip-path-7);}.cls-18{fill:url(#未命名的渐变_8-7);}.cls-19{clip-path:url(#clip-path-8);}.cls-20{fill:url(#未命名的渐变_8-8);}</style><clipPath id="clip-path"><path class="cls-1" d="M389.3,60.12a4,4,0,1,0,0,8h76.94a4,4,0,0,0,0-8Z"/></clipPath><linearGradient id="未命名的渐变_8" x1="-647.03" y1="133.31" x2="-645.38" y2="133.31" gradientTransform="translate(33901.09 -6841.5) scale(51.8)" gradientUnits="userSpaceOnUse"><stop offset="0" stop-color="#00dfff"/><stop offset="0.17" stop-color="#00d4ff"/><stop offset="0.46" stop-color="#00b6ff"/><stop offset="0.85" stop-color="#0085ff"/><stop offset="1" stop-color="#0070ff"/></linearGradient><clipPath id="clip-path-2"><path class="cls-1" d="M403.5,9.73a4,4,0,0,0,0,8H452a4,4,0,1,0,0-8Z"/></clipPath><linearGradient id="未命名的渐变_8-2" x1="-679.28" y1="126.81" x2="-677.63" y2="126.81" gradientTransform="translate(-22371.54 4275.04) rotate(180) scale(33.61)" xlink:href="#未命名的渐变_8"/><clipPath id="clip-path-3"><path class="cls-1" d="M403.5,76.92a4,4,0,0,0,0,8H452a4,4,0,1,0,0-8Z"/></clipPath><linearGradient id="未命名的渐变_8-3" x1="-679.28" y1="126.02" x2="-677.63" y2="126.02" gradientTransform="translate(-22371.54 4315.73) rotate(180) scale(33.61)" xlink:href="#未命名的渐变_8"/><clipPath id="clip-path-4"><path class="cls-1" d="M452.66,43.32a4,4,0,0,0,0,8h27.95a4,4,0,1,0,0-8Z"/></clipPath><linearGradient id="未命名的渐变_8-4" x1="-691.18" y1="124.05" x2="-689.53" y2="124.05" gradientTransform="translate(-14284.95 2697.94) rotate(180) scale(21.37)" xlink:href="#未命名的渐变_8"/><clipPath id="clip-path-5"><path class="cls-1" d="M375.2,43.32a4,4,0,1,0,0,8h26.38a4,4,0,1,0,0-8Z"/></clipPath><linearGradient id="未命名的渐变_8-5" x1="-691.11" y1="123.75" x2="-689.46" y2="123.75" gradientTransform="translate(-13716.64 2575.96) rotate(180) scale(20.43)" xlink:href="#未命名的渐变_8"/><clipPath id="clip-path-6"><path class="cls-1" d="M385.52,29.22A4,4,0,0,0,388,34.29l48.93,16.82a4,4,0,0,0,2.6-7.55l-49-16.82a3.9,3.9,0,0,0-1.3-.22,4,4,0,0,0-3.77,2.7"/></clipPath><linearGradient id="未命名的渐变_8-6" x1="-640.49" y1="127.6" x2="-638.84" y2="127.6" gradientTransform="matrix(32.06, 11.91, -11.91, 32.06, 22438.48, 3568.61)" xlink:href="#未命名的渐变_8"/><clipPath id="clip-path-7"><path class="cls-1" d="M389.3,26.52a4,4,0,1,0,0,8h76.94a4,4,0,0,0,0-8Z"/></clipPath><linearGradient id="未命名的渐变_8-7" x1="-672.74" y1="127.91" x2="-671.08" y2="127.91" gradientTransform="translate(-33492.54 6488) rotate(180) scale(50.48)" xlink:href="#未命名的渐变_8"/><clipPath id="clip-path-8"><path class="cls-1" d="M436.94,43.51,388,60.33a4,4,0,1,0,2.59,7.55l48.95-16.82a4,4,0,0,0-1.3-7.77,4.24,4.24,0,0,0-1.31.22"/></clipPath><linearGradient id="未命名的渐变_8-8" x1="-675.79" y1="140.83" x2="-674.14" y2="140.83" gradientTransform="matrix(-33.58, 11.54, 10.92, 31.78, -23790.14, 3369.37)" xlink:href="#未命名的渐变_8"/></defs><g id="图层_2" data-name="图层 2"><g id="图层_1-2" data-name="图层 1"><path class="cls-2" d="M242.6,64.28a2.6,2.6,0,0,1-2.71-2.64,2.72,2.72,0,0,1,2.76-2.79,2.72,2.72,0,1,1,0,5.43Z"/><path class="cls-2" d="M243.11,123.08h-.91V82.65h.91Zm0-82.75h-.91V0h.91Z"/><path class="cls-3" d="M30.19,102.05c-3.9,0-5.21,2.16-5.21,2.16l-.18-1.91H21.26v16.36h4.09v-9.89c0-2.17,1.24-3.84,3.52-3.84,2.47,0,3.15,2.11,3.15,3.84v9.89h3.86v-9.61c0-5-2.73-6.92-5.69-7"/><path class="cls-4" d="M40.84,76.38A2.2,2.2,0,1,1,40.9,72a2.12,2.12,0,0,1,2.24,2.21,2.15,2.15,0,0,1-2.24,2.19Z"/><path class="cls-4" d="M40.84,100.58a2.13,2.13,0,0,1-2.21-2.14,2.21,2.21,0,0,1,2.27-2.27,2.21,2.21,0,1,1,0,4.41Z"/><path class="cls-3" d="M99.26,102.13a7,7,0,0,0-5.57,2.56,4.91,4.91,0,0,0-4.27-2.56,5.78,5.78,0,0,0-5,2.12l-.16-2H80.59v16.36h4.15V108.8c0-2.13,1.12-3.83,3.27-3.83s2.85,2.12,2.85,3.83v9.86h3.77v-9.61c.05-2.78,1.3-4.08,3.21-4.08,2.21,0,2.87,2.12,2.87,3.83v9.86h3.77v-9.58c0-5-2.49-6.87-5.22-7"/><rect class="cls-4" x="38.96" y="102.3" width="3.85" height="16.36"/><path class="cls-3" d="M70.36,104.77a3.92,3.92,0,0,0-3.24,1.61,6.12,6.12,0,0,0-1.33,4.07,6.47,6.47,0,0,0,1.29,4.21,4,4,0,0,0,3.27,1.54,4,4,0,0,0,3.27-1.57A6.22,6.22,0,0,0,75,110.45a6.59,6.59,0,0,0-1.31-4.12,4.16,4.16,0,0,0-3.33-1.56m-.29-2.85a8.37,8.37,0,0,1,4.31,1.16,7.9,7.9,0,0,1,3.16,3.09,8.79,8.79,0,0,1,1.17,4.27,8.56,8.56,0,0,1-1.17,4.32,7.85,7.85,0,0,1-3.1,3.13A8.37,8.37,0,0,1,70.09,119a8,8,0,0,1-6-2.46,8.16,8.16,0,0,1-2.48-6.09,8.62,8.62,0,0,1,8.43-8.54"/><path class="cls-3" d="M61.34,115.46a7.67,7.67,0,0,1-2.74,2.47,8.75,8.75,0,0,1-4.42,1.15,8.41,8.41,0,0,1-6-2.5,8.09,8.09,0,0,1-2.55-6,8.3,8.3,0,0,1,2.85-6.37A8.43,8.43,0,0,1,54.18,102a8.76,8.76,0,0,1,4.37,1.17,8.32,8.32,0,0,1,2.76,2.43l-3.05,2.21a3.77,3.77,0,0,0-.75-1.19,4.17,4.17,0,0,0-6.47,0,5.76,5.76,0,0,0-1.32,4,5.85,5.85,0,0,0,1.32,4,4.2,4.2,0,0,0,6.43,0,4.36,4.36,0,0,0,.8-1.25Z"/><path class="cls-3" d="M75.05,90a4.6,4.6,0,0,1-3.56,1.46A4.48,4.48,0,0,1,68.1,90a5.31,5.31,0,0,1-1.3-3.77,5.11,5.11,0,0,1,1.32-3.64,4.42,4.42,0,0,1,3.43-1.5,4.47,4.47,0,0,1,3.5,1.5,5.11,5.11,0,0,1,1.38,3.71A5.37,5.37,0,0,1,75.05,90m1.12-11.9V80a7.38,7.38,0,0,0-5.37-2.33A7.61,7.61,0,0,0,65,80.12a8.56,8.56,0,0,0-2.33,6.1A8.75,8.75,0,0,0,65,92.42a7.82,7.82,0,0,0,11.13.25v1.75h4V78.14Z"/><path class="cls-3" d="M21.29,70.77h4.18V80a5.89,5.89,0,0,1,4.72-2.12c2.95,0,5.7,2,5.7,7v9.66H32.07v-10c0-1.71-.66-3.83-3.08-3.83s-3.52,1.73-3.52,3.83v10H21.29V70.77Z"/><path class="cls-3" d="M19.79,90.46a11,11,0,0,1-3.46,3.15A11.18,11.18,0,0,1,10.79,95a10.67,10.67,0,0,1-7.62-3.13A10.43,10.43,0,0,1,0,84.2a10.24,10.24,0,0,1,3.59-8,10.5,10.5,0,0,1,7.19-2.83,11.63,11.63,0,0,1,5.53,1.47A11,11,0,0,1,19.79,78l-3.53,2.55a5.67,5.67,0,0,0-1-1.65,5.77,5.77,0,0,0-4.51-2,5.66,5.66,0,0,0-4.45,2.08A7.74,7.74,0,0,0,4.49,84.2a8,8,0,0,0,1.79,5.42,5.58,5.58,0,0,0,4.45,2,5.75,5.75,0,0,0,4.51-2.06,8.73,8.73,0,0,0,1-1.66l3.53,2.55"/><path class="cls-3" d="M55.11,77.88C51.17,77.79,49.92,80,49.92,80l-.2-1.91H46.2v16.4h4.08V84.54a3.55,3.55,0,0,1,3.56-3.86c2.43,0,3.17,2.16,3.17,3.86v9.95h3.77V84.85c0-5-2.71-7-5.67-7"/><rect class="cls-4" x="38.96" y="78.02" width="3.85" height="16.46"/><path class="cls-3" d="M9,118.87c3.91.06,5.2-2.12,5.2-2.12l.22,1.9H18V102.3H13.83v9.93c0,2.11-1.19,3.85-3.54,3.85s-3.38-2.16-3.38-3.85V102.3H2.76v9.6c0,5,3.28,6.94,6.24,7"/><path class="cls-3" d="M182.76,102.67a13.57,13.57,0,0,0-3.06-3.13l-1.56,1.11,2.63,3.53Zm12.79,4.41h-3.12v-1.33h3.12Zm0,3.22h-3.12V109h3.12Zm-5.79-3.22h-3.08v-1.33h3.08Zm0,3.22h-3.08V109h3.08Zm.92-7.27a19.58,19.58,0,0,0-2.7-1.48l-1,1.33,1,.91h-4v11.79h.81a1.77,1.77,0,0,0,1.87-1.76v-1.63h3.08v3.39h.86a1.67,1.67,0,0,0,1.81-1.79v-1.6h3.12V113c0,.35-.45.6-.8.6h-1.21l.53,2H196a2.36,2.36,0,0,0,2.38-2.37v-7.79a1.64,1.64,0,0,0-1.62-1.62h-3.12l4.13-2.46V99.1H183.84V101H194Zm-7,13.48a1.3,1.3,0,0,1-1.29-1.3V105H178v2h1.48v9a2.49,2.49,0,0,0,2.38,2.46h16.87v-2h-15Z"/><path class="cls-3" d="M172,110h3.45v-2h-3.84v-3h3.84v-2H173l2.26-2.83-2.15-1.54-2.78,4.37h-2l1.66-1.2a28.16,28.16,0,0,0-2.62-3.17l-1.56,1,2,3.41h-2.5v2h3.29v3h-3.29v2h2.91l-3.42,8.82h1.46a2.15,2.15,0,0,0,1.89-1.25l2.11-5.25,2.88,6.5H176Zm-10.78-1.5h-2.41v-2.4h2.41Zm0,4.37-2.41.66v-3h2.41Zm4.12-1.14-1.32.37v-11a1.77,1.77,0,0,0-1.68-2h-7v2h5.86v3h-2.41v-2h-2.63v12.19l-1.15.35v2.17l6.19-1.75v4h1.11c.86,0,1.45-.55,1.68-1.61v-3.15l1.32-.37v-2.21Z"/><path class="cls-3" d="M125.32,110.19a1.27,1.27,0,0,1-1.28,1.27h-3.91v-8h5.19Zm1.23-8.73h-6.42V98.71h-3.38v2.75h-4.2v2h4.2v8h-5.2v-10h-3.37v12h8.58v5.68h.53c1.91-.08,2.77-.91,2.85-2.33v-3.35h5.67a2.91,2.91,0,0,0,2.88-2.78v-7.15a2.18,2.18,0,0,0-2.14-2"/><path class="cls-3" d="M147.76,112.67h-1.5l1-1.26a15.54,15.54,0,0,0-2.35-1.81l-1.17,1.17,1.69,1.9h-2.3v-3.3h4.55v-2h-4.55V105h4.55v-2H135.93v2H140v2.44h-4.11v2H140v3.3h-4.19v2h11.92v-2Zm2-13.58H135.84V101h13V115.3a1.24,1.24,0,0,1-1.25,1.25H134.8V99.09h-3.09v19.43h17.38a2.82,2.82,0,0,0,2.82-2.82V101.21a2.13,2.13,0,0,0-2.15-2.12"/><path class="cls-4" d="M199.37,50.5a5.08,5.08,0,0,1-7.21,0l-3.6-3.6,3.6-3.6a5.1,5.1,0,0,1,7.21,0,5.12,5.12,0,0,1,0,7.2m6.85-14a14.78,14.78,0,0,0-20.93,0l-3.6,3.61-5.45-5.45-6.85,6.85,5.45,5.45-5.45,5.45,6.85,6.86,5.45-5.45,3.6,3.6a14.8,14.8,0,0,0,20.93-20.92"/><path class="cls-4" d="M106.28,46.9A5.1,5.1,0,0,1,115,43.3l3.6,3.6L115,50.5a5.1,5.1,0,0,1-8.71-3.6m-9.69,0a14.79,14.79,0,0,0,25.25,10.45l3.61-3.59,5.45,5.45,6.86-6.86-5.47-5.45,5.47-5.45-6.86-6.84-5.45,5.45-3.61-3.61A14.79,14.79,0,0,0,96.59,46.9"/><path class="cls-4" d="M171.24,78.63a5.1,5.1,0,0,1-7.21,0L160.43,75l5.45-5.45L159,62.72l-5.45,5.45-5.45-5.45-6.85,6.85L146.72,75l-3.6,3.61a5.1,5.1,0,1,1-7.21-7.21l17.67-17.66,17.66,17.66a5.1,5.1,0,0,1,0,7.21M135.9,22.38a5.1,5.1,0,1,1,7.21-7.21l3.6,3.61-5.45,5.45,6.85,6.85,5.45-5.45L159,31.08l6.86-6.85-5.45-5.45,3.6-3.61a5.1,5.1,0,1,1,7.21,7.21L153.57,40.05,135.9,22.38M160.42,46.9,178.1,29.23A14.79,14.79,0,0,0,157.18,8.31l-3.6,3.6L150,8.31a14.79,14.79,0,1,0-20.92,20.92L146.73,46.9,129.06,64.57A14.79,14.79,0,1,0,150,85.49c2.27-2.26,3.6-3.61,3.6-3.61s1.33,1.35,3.6,3.61A14.79,14.79,0,0,0,178.1,64.57L160.42,46.9"/><path class="cls-4" d="M306.71,105.05a1.47,1.47,0,1,0,1.46,1.46,1.46,1.46,0,0,0-1.46-1.46"/><rect class="cls-4" x="305.55" y="108.81" width="2.39" height="10.05"/><path class="cls-3" d="M300.5,108.78v.93a4.65,4.65,0,0,0-2.62-1.16,5.4,5.4,0,0,0-5.8,5.36,5.27,5.27,0,0,0,5.25,5.39,5.07,5.07,0,0,0,.55,0,4.78,4.78,0,0,0,2.6-1.13c-.1,1.69-.74,2.76-1.91,3.22a5.19,5.19,0,0,1-4.87-1.15l-.24-.26-1.4,1.89.21.18a8,8,0,0,0,5,2,5.6,5.6,0,0,0,5.64-6v-9.26Zm.16,5.71a3.87,3.87,0,0,1-.15.53,3.12,3.12,0,0,1-6.06-1.11,3.18,3.18,0,0,1,3.13-3.2,3.14,3.14,0,0,1,2.93,2.09,3.79,3.79,0,0,1,.14.53,3.17,3.17,0,0,1,.06.58A2.4,2.4,0,0,1,300.66,114.49Z"/><path class="cls-3" d="M280.29,105.07h-5V118.9h5a6.92,6.92,0,1,0,0-13.83Zm0,11.34h-2.54v-8.85h2.54a4.43,4.43,0,1,1,0,8.85Z"/><path class="cls-3" d="M289.68,105.05a1.47,1.47,0,1,0,1.46,1.46A1.47,1.47,0,0,0,289.68,105.05Z"/><rect class="cls-3" x="288.52" y="108.81" width="2.39" height="10.05"/><path class="cls-3" d="M325.92,109.72a4.69,4.69,0,0,0-2.62-1.17,5.38,5.38,0,0,0-5.79,5.36,5.27,5.27,0,0,0,5.24,5.38l.55,0a4.82,4.82,0,0,0,2.62-1.14v.9h2.4V108.78h-2.4v.94Zm.1,4.19a4,4,0,0,1,0,.56,3.75,3.75,0,0,1-.15.52,3.08,3.08,0,1,1,0-2.15,3.55,3.55,0,0,1,.14.51A2.9,2.9,0,0,1,326,113.91Z"/><path class="cls-3" d="M314,106.45h-2.31v2.67h-2.38v2.31h2.38v5a2.74,2.74,0,0,0,2.49,2.86,6.37,6.37,0,0,0,2.53-.27v-2.31a2.68,2.68,0,0,1-1.92.32,1,1,0,0,1-.8-1.17v-4.4h2.94v-2.31h-2.94v-2.67Z"/><rect class="cls-3" x="330.46" y="104.82" width="2.3" height="14.04"/><path class="cls-3" d="M379.26,112.62a4.14,4.14,0,0,0-4.12-4,4.74,4.74,0,0,0-3,1.12v-4.67h-2.39v13.84h2.39v-5.65a2.38,2.38,0,0,1,2.37-2.38,2.24,2.24,0,0,1,2.39,2.36v5.66h2.39v-6.29Z"/><path class="cls-3" d="M364.4,110.79a3.13,3.13,0,0,1,2.62,1.44l.17.28,1.65-1.66-.14-.18a5.39,5.39,0,1,0,0,6.49l.14-.18-1.65-1.66-.17.28a3.12,3.12,0,1,1-2.62-4.81Z"/><path class="cls-3" d="M353.16,108.53a5.39,5.39,0,1,0,0,10.77,5.64,5.64,0,0,0,4.53-2.26l-1.57-1.58a3.42,3.42,0,0,1-3,1.69,2.78,2.78,0,0,1-3.07-2.47h8a6.31,6.31,0,0,0,.08-.76A5,5,0,0,0,353.16,108.53Zm0,2.14A2.68,2.68,0,0,1,356,112.9h-5.82A3.22,3.22,0,0,1,353.17,110.67Z"/><polygon class="cls-3" points="349.76 107.14 349.76 105.08 339.17 105.08 339.17 107.14 343.27 107.14 343.27 118.76 345.75 118.76 345.75 107.14 349.76 107.14"/><path class="cls-3" d="M392.86,111.73l-1.27.37V101.41a1.74,1.74,0,0,0-1.64-2h-6.78v2h5.69v3h-2.33v-2H384v11.86l-1.13.35v2.11l6-1.7v3.89H390c.84,0,1.39-.53,1.64-1.56v-3.07l1.27-.37Zm-4,1.11-2.33.65v-3h2.33Zm0-4.24h-2.33v-2.33h2.33Z"/><path class="cls-3" d="M402.67,110.05v-1.93h-3.73v-2.91h3.73V103.3h-2.44l2.19-2.77L400.33,99l-2.7,4.26h-2l1.62-1.17a26.18,26.18,0,0,0-2.56-3.07l-1.52.94,2,3.32h-2.44v1.9h3.2v2.91h-3.2v1.93h2.83l-3.32,8.56h1.41a2.1,2.1,0,0,0,1.84-1.21l2.05-5.1,2.81,6.33h2.81l-3.83-8.6h3.34Z"/><path class="cls-3" d="M410.2,115.46v-9.89h-4.32v1.92h1.43v8.73a2.43,2.43,0,0,0,2.32,2.4H426v-1.91H411.45A1.25,1.25,0,0,1,410.2,115.46Z"/><path class="cls-3" d="M418.27,103.6a18.4,18.4,0,0,0-2.62-1.43l-1,1.29,1,.9h-3.89v11.47h.78a1.74,1.74,0,0,0,1.83-1.72v-1.58h3v3.3h.84a1.62,1.62,0,0,0,1.76-1.74v-1.56h3v.78c0,.35-.45.6-.78.6H421l.51,1.94h1.88a2.3,2.3,0,0,0,2.32-2.31V106a1.59,1.59,0,0,0-1.58-1.58h-3l4-2.4V99.79H411.61v1.88h9.89Zm-.9,7.07h-3v-1.29h3Zm0-3.11h-3v-1.29h3Zm5.63,3.11h-3v-1.29h3Zm0-4.4v1.29h-3v-1.29Z"/><path class="cls-3" d="M410.57,103.26a13.2,13.2,0,0,0-3-3.05l-1.52,1.08,2.56,3.42Z"/><path class="cls-3" d="M471.35,111.65V98.9h-2.87v12.75h-5.42v1.9h5.42v5l1.19.12a1.71,1.71,0,0,0,1.68-1.8v-3.27H473v-1.9Z"/><polygon class="cls-3" points="467.9 102.8 463.07 101.47 463.07 103.35 467.9 104.67 467.9 102.8"/><polygon class="cls-3" points="467.9 107.8 463.07 106.47 463.07 108.35 467.9 109.67 467.9 107.8"/><rect class="cls-3" x="459.9" y="106.5" width="2.1" height="12.12"/><path class="cls-3" d="M452.87,118.62H455a91.22,91.22,0,0,0,.74-12.11h-2.09A96.47,96.47,0,0,1,452.87,118.62Z"/><path class="cls-3" d="M459,101.17l3.13-.17,0-2-8.89.53,0,2,3.15-.2v2.07h-3.44v1.94h3.44v13.2l1.08-.05a1.54,1.54,0,0,0,1.52-1.6V105.34h3.44V103.4H459v-2.23Z"/><path class="cls-3" d="M440.79,99.53,438.62,99c-.41,1.45-.94,3-1.08,3.34l2.07.59C439.71,102.7,440.36,101,440.79,99.53Z"/><path class="cls-3" d="M433.84,102.14a28.65,28.65,0,0,0-1.9-3.12l-1.72.82c.57,1,1.45,2.92,1.57,3.22Z"/><path class="cls-3" d="M432,109.27a29.41,29.41,0,0,0,2.34-3.9v3.92h1.08a1.52,1.52,0,0,0,1.52-1.52v-2.65c.68,1.28,2,4,2.09,4.28l2-1c-.13-.23-1.22-2.08-2.08-3.47h1.7v-1.78h-3.75V99h-2.6v4.16h-4.08V105h2.17a26.13,26.13,0,0,1-2.22,3Z"/><path class="cls-3" d="M439.7,112.44h1.76v-1.78h-1.68c0-.31,0-.62,0-1h-2.4v1h-3.33v-1h-2.4c0,.34,0,.66,0,1H430v1.78h1.72a4.12,4.12,0,0,0,1.39,3.17c-.76.23-1.65.48-2.71.78v2.23c2.28-.71,4-1.22,5.3-1.69,1.31.48,3,1,5.3,1.69v-2.23c-1.06-.3-1.95-.55-2.71-.78A4.1,4.1,0,0,0,439.7,112.44Zm-4,2.23a2.55,2.55,0,0,1-1.58-2.24h3.16A2.51,2.51,0,0,1,435.72,114.67Z"/><path class="cls-3" d="M449.14,103.32h.8v-1.78h-5.85c.38-1.21.8-2.45.8-2.45h-2.61c-.51,1.5-1.28,4-1.28,4l-.06.19h5.74a45.46,45.46,0,0,1-1.42,5.76,34.56,34.56,0,0,1-1.56-4.66h-2.5a45.38,45.38,0,0,0,2.91,8,59.8,59.8,0,0,1-2.77,6.21H443a1.65,1.65,0,0,0,1.53-1c.25-.58.6-1.38,1-2.34,1,2,1.78,3.34,1.78,3.34H450a68.7,68.7,0,0,1-3.39-6.35A52.62,52.62,0,0,0,449.14,103.32Z"/><path class="cls-4" d="M306.68,77.76a1.81,1.81,0,1,0,1.81,1.8,1.81,1.81,0,0,0-1.81-1.8"/><rect class="cls-4" x="305.25" y="82.39" width="2.94" height="12.4"/><path class="cls-3" d="M329.16,82.05a6.65,6.65,0,1,0,6.65,6.65A6.65,6.65,0,0,0,329.16,82.05Zm0,10.79A4.16,4.16,0,1,1,333,88.69,4,4,0,0,1,329.16,92.84Z"/><path class="cls-3" d="M350.81,82.13a5.21,5.21,0,0,0-4,1.85,4.42,4.42,0,0,0-3.58-1.85,4.86,4.86,0,0,0-3.19,1.24V82.5h-2.94V94.78h2.94v-7.3a2.52,2.52,0,0,1,2.48-2.57c1.48,0,2.33,1,2.34,2.7v7.16h3V87a2.26,2.26,0,0,1,2.24-2.12c1.48,0,2.33,1,2.33,2.7v7.16h2.95V87A4.74,4.74,0,0,0,350.81,82.13Z"/><path class="cls-3" d="M316.75,84.84A3.8,3.8,0,0,1,320,86.62l.22.34,2-2-.16-.22a6.65,6.65,0,1,0,0,8l.16-.23-2-2-.22.34a3.84,3.84,0,1,1-3.22-5.92Z"/><path class="cls-3" d="M302.81,87a5.1,5.1,0,0,0-5.08-4.91A5.81,5.81,0,0,0,294,83.51v-1h-2.95V94.79H294v-7a2.92,2.92,0,0,1,2.91-2.92,2.74,2.74,0,0,1,2.94,2.91v7h2.94V87Z"/><path class="cls-3" d="M285.64,88.74a3.6,3.6,0,1,1-7.2,0v-11h-3.17V89.43c0,3.44,3.3,6.08,6.77,6.08s6.76-2.61,6.76-6.08V77.76h-3.17v11Z"/><g class="cls-5"><rect class="cls-6" x="385.3" y="60.12" width="84.92" height="7.99"/></g><g class="cls-7"><rect class="cls-8" x="399.51" y="9.73" width="56.53" height="7.98"/></g><g class="cls-9"><rect class="cls-10" x="399.51" y="76.92" width="56.53" height="7.98"/></g><g class="cls-11"><rect class="cls-12" x="448.66" y="43.32" width="35.95" height="7.99"/></g><g class="cls-13"><rect class="cls-14" x="371.2" y="43.32" width="34.37" height="7.99"/></g><g class="cls-15"><polygon class="cls-16" points="391.83 7.61 450.99 29.59 435.7 70.74 376.54 48.76 391.83 7.61"/></g><g class="cls-17"><rect class="cls-18" x="385.3" y="26.52" width="84.92" height="7.99"/></g><g class="cls-19"><polygon class="cls-20" points="436.61 25.5 377.03 45.97 390.93 86.4 450.51 65.93 436.61 25.5"/></g></g></g></svg>