<svg xmlns="http://www.w3.org/2000/svg" xmlns:xlink="http://www.w3.org/1999/xlink" viewBox="0 0 346.05 225.59"><defs><style>.cls-1{fill:none;}.cls-2{fill:#231f20;}.cls-3{clip-path:url(#clip-path);}.cls-4{clip-path:url(#clip-path-2);}.cls-5{clip-path:url(#clip-path-3);}.cls-6{fill:#27963c;}</style><clipPath id="clip-path" transform="translate(0 0)"><rect class="cls-1" width="276" height="225.59"/></clipPath><clipPath id="clip-path-2" transform="translate(0 0)"><rect class="cls-1" x="32" width="314.06" height="225.59"/></clipPath><clipPath id="clip-path-3" transform="translate(0 0)"><rect class="cls-1" x="126" width="220.06" height="225.59"/></clipPath></defs><g id="图层_2" data-name="图层 2"><g id="图层_1-2" data-name="图层 1"><g id="surface1"><path class="cls-2" d="M59.43,191.49c0-8.77-6.55-16.11-15.9-16.11s-15.91,7.34-15.91,16.11a15.91,15.91,0,1,0,31.81,0Zm5,0a20.59,20.59,0,0,1-20.87,20.78,20.6,20.6,0,0,1-20.88-20.78,20.88,20.88,0,0,1,41.75,0" transform="translate(0 0)"/><path class="cls-2" d="M88.66,199.05c0-4.8-2.91-8.88-8-8.88-4.91,0-7.82,4.29-7.82,8.88s2.81,9,7.82,9C85.8,208,88.66,203.92,88.66,199.05Zm-15.59-8.24h.1A10.15,10.15,0,0,1,81.79,186c7.13,0,11.63,6.18,11.63,12.94,0,7.09-4.23,13.38-11.84,13.38a10.22,10.22,0,0,1-8.41-4.71h-.1v18H68.31V186.68h4.76v4.13" transform="translate(0 0)"/><path class="cls-2" d="M115,196.25c-.58-3.7-3-6.18-6.82-6.18a7.08,7.08,0,0,0-7,6.18Zm-14.11,3.59c0,4.23,2.9,8.2,7.45,8.2,3.65,0,5.6-1.85,7.4-4.81l4,2.27a12.88,12.88,0,0,1-11.47,6.77c-7.56,0-12.16-5.71-12.16-13,0-7.62,4.07-13.32,12-13.32s11.58,5.81,11.58,13.16v.73H100.92" transform="translate(0 0)"/><path class="cls-2" d="M128.61,190h.1a8.45,8.45,0,0,1,7.46-4.07c7,0,8.77,4.7,8.77,10.73v14.74h-4.76V197.25c0-4.22-.57-7.08-5.44-7.08-6.13,0-6.13,5.4-6.13,9.88v11.37h-4.75V186.68h4.75V190" transform="translate(0 0)"/><path class="cls-2" d="M175.23,202.12l7.13-15.44h5.34l-12.47,25.59L162.8,186.68h5.34l7.09,15.44" transform="translate(0 0)"/><path class="cls-2" d="M208.52,179.13a6.81,6.81,0,0,0-6.4-3.75c-3.17,0-6.66,2.16-6.66,5.65,0,3.12,3.07,4.76,5.56,5.7l2.85,1.12c5.65,2.22,9.88,5.34,9.88,12,0,7.25-5.6,12.43-12.73,12.43a12.42,12.42,0,0,1-12.32-11.16l5-1.06a7.54,7.54,0,1,0,15.07-.21c0-4.27-3.44-6.12-6.88-7.55l-2.74-1.17c-4.55-2-8.67-4.55-8.67-10.09,0-6.45,5.7-10.31,11.73-10.31a11.36,11.36,0,0,1,10.25,6l-4,2.38" transform="translate(0 0)"/><path class="cls-2" d="M227.12,202.44l7.29-17.13,7.24,17.13,7.19-15.76h5.39l-12.58,25.59-7.24-16.54-7.29,16.54-12.58-25.59h5.39l7.19,15.76" transform="translate(0 0)"/><path class="cls-2" d="M262.42,211.42h-4.76V186.68h4.76Zm.9-36a3.28,3.28,0,0,1-6.55,0,3.28,3.28,0,1,1,6.55,0" transform="translate(0 0)"/><path class="cls-2" d="M275.48,211.42h-4.76v-20.3h-2.59v-4.44h2.59v-9.45h4.76v9.45h4.64v4.44h-4.64v20.3" transform="translate(0 0)"/><path class="cls-2" d="M300.89,193.72a9,9,0,0,0-7.08-3.33c-4.65,0-8.24,4.12-8.24,8.66,0,5.08,3.54,8.77,8.56,8.77a8.86,8.86,0,0,0,6.76-3.27v6.08a13.82,13.82,0,0,1-6.81,1.64,13.16,13.16,0,1,1,.26-26.32,13.45,13.45,0,0,1,6.55,1.63v6.14" transform="translate(0 0)"/><path class="cls-2" d="M310.78,165.55V190h.11a8.4,8.4,0,0,1,7.45-4.07c7,0,8.77,4.7,8.77,10.73v14.74h-4.75V197.25c0-4.22-.59-7.08-5.45-7.08-6.13,0-6.13,5.4-6.13,9.88v11.37H306V165.55h4.76" transform="translate(0 0)"/><path class="cls-2" d="M127.69,74.13c0-29.35-21.92-53.92-53.21-53.92S21.27,44.78,21.27,74.13c0,30.41,24.39,53.92,53.21,53.92S127.69,104.54,127.69,74.13Zm16.62,0c0,39.6-31.29,69.48-69.83,69.48S4.65,113.73,4.65,74.13c0-38.19,31.64-69.48,69.83-69.48s69.83,31.29,69.83,69.48" transform="translate(0 0)"/><g class="cls-3"><path class="cls-2" d="M74.48,148.26C32.72,148.26,0,115.7,0,74.13A73.36,73.36,0,0,1,22,21.77a74.21,74.21,0,0,1,105,0,73.37,73.37,0,0,1,22,52.36C149,115.7,116.25,148.26,74.48,148.26Zm0-139a64.93,64.93,0,0,0-46,19.07A64.16,64.16,0,0,0,9.3,74.13C9.3,110.48,37.93,139,74.48,139s65.18-28.47,65.18-64.82a64.16,64.16,0,0,0-19.22-45.76A64.93,64.93,0,0,0,74.48,9.3Zm0,123.4c-31.91,0-57.86-26.27-57.86-58.57A59.13,59.13,0,0,1,32.78,33c10.74-11.22,25.54-17.39,41.7-17.39s31,6.17,41.7,17.39a59.13,59.13,0,0,1,16.16,41.18C132.34,106.43,106.39,132.7,74.48,132.7Zm0-107.84C46.8,24.86,25.92,46,25.92,74.13c0,27.17,21.79,49.26,48.56,49.26S123,101.3,123,74.13C123,46,102.16,24.86,74.48,24.86Z" transform="translate(0 0)"/></g><path class="cls-2" d="M205.46,105.12,229.33,53.5h17.86l-41.73,85.56L163.92,53.5h17.85l23.69,51.62" transform="translate(0 0)"/><g class="cls-4"><path class="cls-2" d="M209.65,141.1h-8.37L159.73,55.53l4.19-6.68h17.85L186,51.56,205.48,94l19.63-42.45,4.22-2.7h17.86l4.18,6.69Zm-38.3-82.95,34.12,70.28,34.27-70.28H232.3l-22.61,48.92h-8.45L178.79,58.15Z" transform="translate(0 0)"/></g><path class="cls-2" d="M323.9,32.76c-4.95-8.31-11.31-12.55-21.39-12.55-10.6,0-22.28,7.25-22.28,18.92,0,10.43,10.26,15.91,18.57,19.09l9.54,3.71c18.92,7.43,33.06,17.86,33.06,40.13,0,24.22-18.74,41.55-42.6,41.55-21.57,0-38.36-15.91-41.19-37.31l16.79-3.53c-.17,14.67,11.49,25.28,25.81,25.28s24.58-12,24.58-26c0-14.32-11.49-20.51-23-25.28l-9.19-3.89c-15.2-6.54-29-15.2-29-33.76,0-21.57,19.09-34.48,39.25-34.48,14.84,0,27,7.25,34.29,20.15l-13.26,8" transform="translate(0 0)"/><g class="cls-5"><path class="cls-2" d="M298.8,148.26c-23.37,0-42.63-17.39-45.8-41.35l3.65-5.16,16.79-3.53,5.61,4.6a19.93,19.93,0,0,0,5.65,14.35,21.57,21.57,0,0,0,15.51,6.22c11.17,0,19.92-9.37,19.92-21.33,0-10.52-7.69-15.83-20.11-21l-9.22-3.91C275.05,70.4,259,60.59,259,39.13a36.68,36.68,0,0,1,13.78-28.94A47.75,47.75,0,0,1,302.87,0c16.57,0,30.19,8,38.35,22.53l-1.66,6.26-13.26,8-6.39-1.61c-4.36-7.3-9.4-10.28-17.4-10.28-8.51,0-17.62,5.73-17.62,14.27,0,6,4.95,10.67,15.57,14.75L310,57.59c11.55,4.54,19.59,9.51,25.34,15.66,7.19,7.71,10.68,17.13,10.68,28.81C346.05,128.4,325.74,148.26,298.8,148.26ZM263,109.93c4.06,17.29,18.26,29,35.81,29,21.64,0,37.95-15.86,37.95-36.89,0-17-8.72-27.4-30.11-35.8l-9.52-3.71c-5.31-2-21.54-8.25-21.54-23.42,0-14.56,14-23.57,26.93-23.57,9.74,0,17.07,3.5,22.78,11l5.38-3.24c-6.55-9-16.27-14-27.8-14-16.77,0-34.6,10.46-34.6,29.83,0,15.13,10.47,22.73,26.18,29.49l9.17,3.88c9,3.73,25.82,10.71,25.82,29.56,0,17.18-12.84,30.64-29.23,30.64a30.79,30.79,0,0,1-22.13-9,28.87,28.87,0,0,1-7.87-15.3Z" transform="translate(0 0)"/></g><path class="cls-6" d="M53.29,93H90.55V79.1H53.29Z" transform="translate(0 0)"/><path class="cls-6" d="M31,85.38l22.85,19.05V66.68L31,85.38" transform="translate(0 0)"/><path class="cls-6" d="M58.7,70.9H96V57H58.7Z" transform="translate(0 0)"/><path class="cls-6" d="M118.21,63.27l-22.84,19V44.57l22.84,18.7" transform="translate(0 0)"/></g></g></g></svg>