<?xml version="1.0" encoding="utf-8"?>
<!-- Generator: Adobe Illustrator 26.0.3, SVG Export Plug-In . SVG Version: 6.00 Build 0)  -->
<svg version="1.1" id="图层_1" xmlns="http://www.w3.org/2000/svg" xmlns:xlink="http://www.w3.org/1999/xlink" x="0px" y="0px"
	 viewBox="0 0 240 210" style="enable-background:new 0 0 240 210;" xml:space="preserve">
<style type="text/css">
	.st0{fill:#00BEE5;}
	.st1{fill:#025DFE;}
	.st2{fill:#01AEF4;}
	.st3{fill:#017EFE;}
	.st4{fill:#0287FD;}
	.st5{fill:#016EFC;}
</style>
<g id="图层_2_00000112626126986804939050000015925008474013660834_">
	<g id="图层_1-2">
		<path class="st0" d="M18,128c-0.1-23.5-0.4-46.9,0.1-70.4c0.1-3.3,2.9-7.7,5.8-9.6C35,40.8,46.6,34.3,58.2,27.7
			c4.8-2.7,9.6-2.2,14.2,0.4c11.8,6.8,23.4,13.9,35.3,20.5c3.9,2.2,3.1,3.1,0,4.9C82.6,67.9,57.5,82.4,32.5,96.9
			c-0.1,0.1-0.3,0.1-0.5,0.2c-10.2,5.8-10.5,9.9-1,16.8c-0.5,2.2,2.9,2.5,1.9,5.8c-1.3,4.6-3.7,6.2-7.4,6
			C22.6,125.7,21.1,129.6,18,128z"/>
		<path class="st1" d="M206,87c0.1,22.3,0.4,44.6-0.1,66.8c-0.1,3.5-3,8.1-6,10c-11,7.1-22.5,13.5-33.9,20
			c-4.7,2.7-9.5,2.4-14.2-0.3c-12.2-7.1-24.4-14.2-36.6-21.2c-2.8-1.6-2.8-2,0-3.7c25.5-14.6,50.9-29.3,76.3-44.2
			c3.6-2.1,7.5-3.8,8.5-8.5c3.9-3.1,3.5-7.5,3.7-11.9C203.7,91.7,202.1,88.3,206,87z"/>
		<path class="st2" d="M18,128c3.4-2.8,7.5-3.5,11.7-4.2c0.5-0.1,0.8-1.7,1.1-2.6c0-0.1-0.3-0.3-0.3-0.3c0.5-1.2,1.8-2.6,1.5-3.6
			s-4.8-0.8-0.9-3.3c9.5,5.3,18.8,10.8,28.5,15.8c4.2,2.2,8.6,1.4,12.8-1c11.7-6.9,23.6-13.7,35.4-20.5c0.9-0.4,1.7-0.8,2.6-1.1
			c-0.2,1-0.6,2-1,2.9c-13.4,23.3-26.8,46.7-40.2,70c-3.2,5.6-6.2,6.5-11.9,3.3c-11-6.2-21.9-12.5-32.8-19
			c-4.2-2.3-6.8-6.7-6.8-11.5C17.5,144.6,17.8,136.3,18,128z"/>
		<path class="st3" d="M117.1,97l11.1-19c6.8,2,11.5-1.3,16.8-5.4c9.9-7.5,20.7-13.7,32.2-18.4c2.3-0.9,4.3-2.5,5.7-4.6
			c1.2-1.9,2.8-3.7,5.2-3.1c2.7,0.6,3-2.9,5.3-2.6c6.5,3.1,13.2,6.1,12.6,15.1c-1.7,10-10,13.6-17.3,18.2
			c-4.4,2.7-10.1,3.1-13.1,8.2c-1.1,1.8-2.6-0.3-4-0.3c-6-3.1-12-6.9-19.1-3.2c-5.3,2.8-10.4,6-15.6,8.9c-5.6,3.2-11.2,6.2-16.8,9.3
			C118.8,99.3,117.8,98.3,117.1,97z"/>
		<path class="st4" d="M193.3,43.9c-0.6,3.1-1.8,5.1-5.6,3.7c-1.1-0.1-2.2,0.3-2.8,1.2c-2,5.7-7.7,6.4-11.9,9
			c-7.4,4.6-15,8.7-22.5,13.2c-3.6,2.2-6.9,4.9-10.4,7.2c-3.9,2.6-8,2.9-11.9-0.2c9.1-16,18.2-32,27.5-47.9
			c2.6-4.4,5.5-5.2,10.1-2.6c7.8,4.4,15.3,9.1,23,13.7C190.2,42.2,191.8,43,193.3,43.9z"/>
		<path class="st5" d="M171.5,85.1c1.1-0.1,3,0.2,3.2-0.2c2.2-6.4,8.9-5.7,13.2-8.7c6.1-4.2,13.6-6.9,16.4-14.8
			c0.4-0.9,1-1.7,1.7-2.4l0.1,28c-0.4,4.2-1,8.4-1,12.6c0.1,3.8-1.2,6-5.1,6.4c-2-2.5-3.5-5.6-6.1-7.3
			C186.6,93.9,179,89.6,171.5,85.1z"/>
		<path class="st4" d="M117.1,97l2.9,3.1c-0.6,0.5-1.2,0.9-1.8,1.3c-1,0.5-2.1,0.8-3.2,1.2c0.2-1.2,0.5-2.4,0.8-3.6
			C116.2,98.3,116.6,97.6,117.1,97z"/>
	</g>
</g>
</svg>
