<svg xmlns="http://www.w3.org/2000/svg" viewBox="0 0 240 210"><defs><style>.cls-1{fill:#fefefe;}.cls-2{fill:#00bee5;}.cls-3{fill:#025dfe;}.cls-4{fill:#01aef4;}.cls-5{fill:#017efe;}.cls-6{fill:#0287fd;}.cls-7{fill:#016efc;}</style></defs><g id="图层_2" data-name="图层 2"><g id="图层_1-2" data-name="图层 1"><path class="cls-1" d="M120,209.92c-38.81,0-77.61,0-116.42.08-3,0-3.58-.6-3.58-3.58Q.17,105,0,3.58C0,.6.6,0,3.58,0Q120,.15,236.42,0c3,0,3.58.6,3.58,3.58q-.17,101.42,0,202.84c0,3-.6,3.59-3.58,3.58C197.61,209.87,158.81,209.92,120,209.92Z"/><path class="cls-2" d="M18,128c-.07-23.47-.37-46.94.06-70.4.06-3.31,2.93-7.73,5.81-9.6C35,40.75,46.63,34.31,58.15,27.68c4.76-2.73,9.62-2.24,14.23.43C84.17,34.94,95.83,42,107.73,48.64c3.87,2.16,3.1,3.06,0,4.88Q70.06,75.15,32.52,96.93c-.14.08-.3.14-.45.22-10.21,5.84-10.46,9.94-1,16.84-.53,2.19,2.87,2.47,1.91,5.83-1.28,4.55-3.66,6.15-7.4,6C22.57,125.65,21.12,129.64,18,128Z"/><path class="cls-3" d="M206,87c.07,22.27.41,44.55-.06,66.81-.07,3.47-3,8.09-6,10-11,7.15-22.48,13.48-33.88,20-4.68,2.66-9.52,2.42-14.22-.32-12.2-7.11-24.37-14.25-36.64-21.21-2.75-1.55-2.85-2,0-3.66q38.22-21.94,76.29-44.15c3.59-2.08,7.48-3.85,8.52-8.48,3.94-3.13,3.46-7.52,3.66-11.86C203.74,91.67,202.1,88.3,206,87Z"/><path class="cls-4" d="M18,128c3.4-2.78,7.49-3.53,11.67-4.16.51-.07.79-1.67,1.14-2.58,0-.07-.32-.29-.29-.35.54-1.22,1.79-2.63,1.5-3.57s-4.77-.81-.93-3.32c9.47,5.3,18.85,10.77,28.45,15.83,4.22,2.23,8.61,1.42,12.79-1,11.74-6.92,23.56-13.7,35.36-20.5a22.06,22.06,0,0,1,2.64-1.13,14.91,14.91,0,0,1-1,2.94q-20.07,35-40.2,70c-3.2,5.56-6.23,6.47-11.93,3.26q-16.51-9.31-32.82-19a13.07,13.07,0,0,1-6.8-11.52C17.51,144.59,17.81,136.28,18,128Z"/><path class="cls-5" d="M117.09,97l11.1-19C135,80,139.69,76.72,145,72.64a140.69,140.69,0,0,1,32.17-18.43,11.65,11.65,0,0,0,5.7-4.59c1.19-1.9,2.79-3.68,5.18-3.13,2.72.62,3-2.94,5.27-2.63C199.83,47,206.54,50,205.94,59c-1.69,10-10,13.62-17.34,18.2-4.37,2.74-10.13,3.14-13.14,8.23-1.07,1.81-2.63-.29-4-.34-6-3.14-12-6.92-19.06-3.15-5.26,2.82-10.35,6-15.56,8.89C131.28,94,125.65,97,120,100.13A9.15,9.15,0,0,1,117.09,97Z"/><path class="cls-6" d="M193.32,43.86c-.6,3.09-1.77,5.13-5.55,3.74a3.12,3.12,0,0,0-2.83,1.17c-2,5.66-7.71,6.43-11.92,9C165.64,62.4,158,66.5,150.53,71c-3.6,2.19-6.85,4.94-10.39,7.24-3.95,2.57-8,2.88-11.95-.18,9.14-16,18.21-32,27.46-47.86,2.56-4.4,5.52-5.17,10.08-2.59,7.77,4.39,15.34,9.12,23,13.69C190.23,42.2,191.79,43,193.32,43.86Z"/><path class="cls-7" d="M171.48,85.11c1.1-.06,3,.16,3.17-.23,2.16-6.38,8.88-5.66,13.17-8.65,6.12-4.25,13.61-6.89,16.45-14.8A11.21,11.21,0,0,1,205.94,59L206,87c-.36,4.19-1,8.38-1,12.55.07,3.84-1.22,6-5.07,6.45-2-2.46-3.53-5.59-6.05-7.26C186.64,93.88,179,89.61,171.48,85.11Z"/><path class="cls-6" d="M117.09,97l2.94,3.12a12.21,12.21,0,0,1-1.79,1.28c-1,.48-2.12.81-3.18,1.2a32.75,32.75,0,0,1,.8-3.56A10.54,10.54,0,0,1,117.09,97Z"/></g></g></svg>