<svg xmlns="http://www.w3.org/2000/svg" role="img" viewBox="406.78 279.78 1103.44 518.44"><title>4 Paradigm (collaborator) logo</title><style>svg {enable-background:new 0 0 1920 1080}</style><style>.st0{fill:#fefefe}.st2{fill:#053a58}.st5{fill:#043a58}</style><ellipse cx="959.28" cy="539.51" class="st0" rx="530.33" ry="238.29"/><path fill="#033957" d="M710.1 485.68l1.67-1.67c15.23 0 30.56-.16 45.87.13 3.09.06 6.45.33 9.41 1.32 2.89.97 5.86 1.75 8.64 3.3 5.05 2.81 8.85 6.54 11.63 11.58 2.52 4.56 4.31 9.19 5.16 14.42.5 3.07.73 6.07.76 9.12.03 3.98-1.37 7.79-2.19 11.62-.75 3.51-2.64 7.05-4.88 9.9-4.5 5.71-9.98 10.68-17.29 12.28-3.03.67-6.24 1.38-9.48 1.35-8.83-.07-17.66-.03-26.5-.03h-3.57v35.81h-17.78c-.22-.25-.66-.74-1.33-1.5v-34.17h-13.88v35.75h-18.68l-1.26-1.26V559.1h-53v-13.86c4.99-3.92 8.5-9.4 12.91-14.05 2.43-2.57 4.89-5.22 7.19-7.96 5.14-6.12 10.51-12.02 15.8-18 2.59-2.93 5.73-5.49 7.78-8.74 2.45-3.89 6.52-6.26 8.71-10.35.86-1.61 2.96-2.2 5.04-2.16 4.66.08 9.32.03 13.95.03l1.62 1.62v56.27h13.7v-56.22zm479.35 35.96c1.35-4.16 4.96-5.25 8.52-6.69 6.89-2.79 14.05-3.48 21.27-2.83 4.45.4 8.82 1.74 13.07 3.36 3.34 1.27 6.7 2.41 9.2 5.09 2.62-1.77 4.61-3.33 6.79-4.54 5.68-3.16 11.89-4.85 18.31-3.89 4.44.66 9.04 1.07 13.28 2.86 6.24 2.63 11.16 6.65 13.35 13.27 1.3 3.92 2.14 7.92 2.1 12.16-.15 16.67-.06 33.33-.06 50v4.47h-14v-4.92c0-16.83-.02-33.67.03-50.5.01-2.12-.32-4.09-.99-6.1-.89-2.69-2.32-4.65-4.99-5.88-5.88-2.72-8.99-3.23-15.58-1.63-2.01.48-3.87.98-5.77 1.82-3.4 1.52-4.72 3.99-4.71 7.53.02 18.5.01 37 .01 55.5v2.79l-1.36 1.36h-12.29l-1.35-1.35v-61.97c-6.2-7.44-24.02-8.92-30.01-3.04 0 20.53.01 41.18-.02 61.83 0 1.58.6 3.4-1.52 4.57h-13.29c.01-24.5.01-48.95.01-73.27zm-18.18 85.49c.48 2.94-.09 5.89-1.08 8.54-1.65 4.4-3.57 8.85-8.02 11.29-1.24.68-2.31 1.62-3.48 2.36-2.83 1.79-6.01 3.13-9.02 3.45-3.35.35-6.68 2.07-10.03 1.17-4.11-1.1-8.4-.78-12.49-2.39-3.92-1.55-7.63-3.39-11.17-5.58-1.38-.85-2.44-2.2-4.12-3.77 1.3-3.87 4.98-5.39 6.72-8.12 2.11-.36 3.32.88 4.73 1.49 1.7.73 3.52 1.38 4.93 2.51 1.64 1.31 3.67 1.17 5.35 1.5 3.41.68 6.95 2.35 10.41 1.31 2.61-.78 5.5-.84 7.89-2.75.97-.78 1.78-1.32 2.47-2.47 1.84-3.06 2.47-6.3 3.1-9.76.68-3.73.76-7.39.82-11.11.01-.63.23-1.35-.76-1.91-3.02 1.5-6.27 2.79-9.88 3.4-4.13.7-8.17.86-12.79-.16-3.35-.74-6.63-1.36-9.86-2.76-4.44-1.92-7.92-4.79-11.06-8.26-1.93-2.13-3.16-4.56-3.71-7.47-.38-2.03-.72-4.04-1.05-6.08-.3-1.85-.94-3.66-.88-5.6.06-2.16.01-4.33.01-6.49 0-6.5-.12-12.99.03-19.48.16-6.78 2.57-12.92 6.76-18.14 3.1-3.86 7.55-6.19 12.21-7.79 5.25-1.8 15.71-3.07 20.61-1.94 5.78 1.34 11.73 1.72 17.4 3.75 2.38.85 4.32 1.88 5.98 3.65 0 12.32.08 24.65-.04 36.97m-123.9-40.51v-29.85h13.73v103.54c-.97 1.35-2.59 2.02-4.51 2.68-5.06 1.73-10.16 2.93-15.45 3.82-3.74.63-7.4.65-11.11.85-5.67.3-11.1-1.26-16.17-3.22-4.74-1.83-8.56-5.53-11.59-9.86-2.32-3.31-3.44-6.83-4.2-10.82-.52-2.75-.7-5.42-.73-8.13-.1-7.83-.03-15.66-.04-23.49 0-1.92.21-3.73.86-5.63.53-1.55.62-3.36 1.03-5.06.48-1.98 1.63-3.33 2.64-4.94 3.55-5.62 8.42-9.49 14.67-11.53 5.18-1.7 10.57-3.11 16.01-2.22 4.4.72 8.95 1.37 12.97 3.6.49.28.89.24 1.89.26zM846.03 547.9c.98-5.11-.68-11.5-2.7-15.35-2.6-4.95-6.6-7.49-12.27-7.58-6.13-.09-11.96.73-17.35 3.98-2.15 1.29-4.43 2.35-6.45 4.64-1.97-3.38-4.62-5.68-7.24-8.35 3.27-4.85 7.81-8.18 13.01-10.1 5.45-2.01 11.24-3.2 17.18-3.18 2.6.01 4.93 1.15 7.57 1.21 2.51.06 5.05 1.33 7.45 2.35 2.27.97 4.69 1.95 6.48 3.55 4.36 3.9 7.56 8.58 7.56 14.8v55.26c-2.3 4.27-6.54 5.04-10.53 5.7-1.59.26-2.82 1.47-4.56 1.22-1.63-.24-3.47-.47-4.96.04-3.18 1.09-6.39.98-9.6.88-5.43-.17-10.92-.65-16.11-2.11-4.89-1.38-9.26-4.31-12.2-8.65-3.31-4.89-5.47-10.27-5.05-16.37.52-7.5 3.62-13.79 9.33-18.57 3.83-3.21 8.67-4.87 13.4-6.12 3.11-.82 6.64.12 9.94-.22 5.27-.54 10.04 1.58 15.05 2.35.52.09.95.89 2.05.62zm85.27-14.27c-2.83-3.22-6.01-5.18-7.11-9.09 2.45-2.02 4.31-4.74 7.13-6.56 3.56-2.29 7.6-3.93 11.5-4.69 4.18-.82 8.6-2.14 13.02-1.25 4.28.86 8.68 1.53 12.72 3.09 4.39 1.69 7.83 5.05 10.92 8.6 1.97 2.27 2.37 5.35 3.77 7.93.28.52.04 1.31.04 1.98v55.87l-3.27 3.27c-.79.68-1.79.22-2.75.61-3.79 1.54-7.79 2.43-11.91 2.62-5.2.24-10.34 1.67-15.58.98-5.74-.75-11.63-1.1-16.82-4.01-5.61-3.15-9.66-7.78-11.65-13.97-2.09-6.51-1.58-13.12 1.14-19.18 1.81-4.03 5.08-7.38 9.04-9.86 3.46-2.17 7.36-3.16 11.07-4.68.71-.29 1.59-.26 2.38-.27 4.17-.02 8.34.18 12.49-.09 1.91-.12 3.33.95 5.07 1.21 2.41.36 4.94.71 7.07 2.01.32-.37.6-.57.7-.84.81-2.2-1.26-3.89-1.06-6.09.19-2.03-.36-4.07-.75-6.11-1.08-5.69-7.77-9.83-13.43-10.17-6.42-.39-12.2 1.3-17.86 4.03-2.19 1.05-4.04 2.48-5.87 4.66zm-11.1 80.54v44.66h-48.42c-.71-3.94-.93-30.3-.33-44.66h48.75zm-7.17-102.25c.88 1.49 1.51 2.57 2.25 3.82v8.79c-.96.97-2.22.56-3.26.43-3.95-.47-7.63 1.67-11.57 1.05-4.49 1.81-8.89 3.72-10.17 9.1-.51 2.16-1.07 4.26-1.06 6.57.1 17.62.05 35.25.05 53.1h-13v-4.38c0-16.96.2-33.93-.09-50.89-.13-7.6 2.08-13.74 7.79-18.8 2.29-2.03 4.44-4.07 7.32-5.27 2.74-1.14 5.57-1.84 8.42-2.62 4.43-1.22 8.76-.39 13.32-.9z"/><path d="M1093.1 593.68l-1.28 1.28h-12.04c-.39-.37-.86-.82-1.42-1.35v-79.17c.84-1.06 1.74-1.51 3.04-1.47 3.48.1 6.97.04 10.37.04l1.32 1.32c.01 26.27.01 52.72.01 79.35z" class="st2"/><path fill="#08aeb0" d="M676.44 420.09h19.67v52.74c-6.38.39-12.95.05-19.67.21v-52.95zm32.99 187.25c.31-.3.79-.76 1.28-1.22h18.43v52.64h-19.71v-51.42z"/><path fill="#043a57" d="M831.38 635.84v3.04h18.67v19.99h-8.69v-14.75h-10.04v14.78h-9.87v-14.2c-.29-.31-.39-.45-.52-.54-.12-.08-.28-.16-.43-.16-5.97-.01-11.94-.01-17.73-.01l-1.37-1.37v-10.56h19.46c.61-1.11.4-1.9.28-2.89h-19.13c-1.39-1.29-.35-2.64-.96-4.02h48c.57 1.5.11 3.31.19 5.06.09 1.8.02 3.62.02 5.59-5.92.04-11.7.04-17.88.04z"/><path d="M959.45 625.09h30.66v18.67h-15.35c-1.81-2-1.81-2-.2-4.61h5.48v-10.01h-10.55v25.81h22.47c.47 1.39.41 2.63.11 3.97h-32.62v-33.83zm91.83-11.08h9.65c.83 2.43 2.23 4.73 2.42 7.89-1.97.04-3.89.09-5.81.11-1.98.02-3.95 0-6.43 0 4.13 12.37 8.16 24.44 12.28 36.76h-10.69c-4.2-12.29-8-24.68-12.36-36.63-.65-.09-.81-.13-.97-.13h-26.48c-1.35-.89-2.02-2.05-1.42-3.86h26.18c1.27-1.24.1-2.74.95-4.01h9.31c.82.74 1.76 1.48 1.37 2.87.67.61 1.33.61 2 0v-1c-.59-.67-.56-1.34 0-2z" class="st5"/><path fill="#3b82c3" d="M709.44 442.34l1.23-1.23h18.45v31.81c-6.4.19-12.96.03-19.69.1.01-10.28.01-20.38.01-30.68z"/><path fill="#3c82c4" d="M696.11 637.9h-18.44l-1.23-1.23v-29.38c.26-.22.76-.64 1.44-1.21h18.22c.01 10.63.01 21.18.01 31.82z"/><path d="M1041.28 655.15v3.35c-.68.68-19.09.86-29.72.29-.55-1.08-.22-2.23-.22-3.71h9.83v-24.9h-7.27c-.99-1.34-.56-2.62-.48-4.03h26.53c.96 1.04-.06 2.34.53 3.75h-7.99v25.24c2.99.01 5.9.01 8.79.01z" class="st5"/><path fill="#0bafb1" d="M1078.43 486.09h14.66v19.6l-1.22 1.22h-12.18l-1.25-1.25c-.01-6.26-.01-12.69-.01-19.57z"/><path fill="#093d5b" d="M984.14 614.17c.11.96.19 1.75.3 2.69h7.21c1.28 1.33.23 2.64.82 4.03h-7.8c-.25.71-.46 1.29-.7 1.99h-9.38c-.19-.52-.4-1.1-.65-1.78h-15.25c-.57.33-.37.87-.44 1.62-1.63.64-3.45.17-5.19.26-1.8.09-3.62.02-5.17.02-.82-.47-.55-1.02-.67-1.83h-6.39c-.94-1.41-.26-2.59-.8-4.04h7.14c.07-1.12.12-1.9.18-2.91h9.57c.62.45 1.51 1.13 1.5 2.61h15.59c.8-.48-.12-1.68.53-2.66h9.6z"/><path d="M951.05 658.86H940.4c2-5.11 3.95-10.06 5.96-15.2-2.65-2.6-4.22-5.99-6.08-9.46h10.52c1.8 3.36 4.75 6.28 6.13 10.37-1.91 4.63-3.93 9.55-5.88 14.29zm-126.77-36.85h1.44c1.69-2.63 3.37-5.23 5.15-8 2.77 0 5.92-.63 8.66.15 3.84 1.09 7.67.52 11.39.96.59.86.28 1.67.28 2.46-.7 1.11-2.36-.36-3.03 1.32.38 1.56 2.06 2.26 3.12 3.75-1.54.73-3.15.27-4.68.34-1.64.08-3.29.02-4.75.02-1.84-.91-1.41-3.48-3.82-4.1-1.15.95-2.65 1.84-3.02 4.1h-10.76c-.25-.22-.33-.44-.25-.67.1-.22.18-.33.27-.33z" class="st2"/><path d="M824.28 622.01v1h-8.47c-.67-1.67-1.72-3.02-3.24-4-2.48-.07-1.85 2.8-3.81 3.8h-9.57c2.62-2.82 3.79-6.39 6.41-8.64 6.57-1.1 12.77 1.78 19.02.73 1.21.89.28 1.92.87 2.85-1.3.19-2.22.33-3.18.47.62 1.42 2.55 1.94 1.97 3.79z" class="st5"/><path d="M806.33 645.12h9.87c-2.09 4.74-3.58 9.55-6 13.76h-9.79c2.04-4.73 4.01-9.32 5.92-13.76z" class="st2"/><path fill="#063b59" d="M946.7 632.84c-2.53-1.96-4.44-4.69-6.37-7.66h10.62c2.37 2.01 3.52 5.37 6.93 7.66H946.7z"/><path fill="#c0ced5" d="M1051.28 614.01v2c-.94.07-1.06-.57-.98-1.24.05-.51.37-.88.98-.76zm0 3c.07.94-.57 1.06-1.24.98-.5-.06-.87-.37-.76-.98h2z"/><path d="M763.88 541.9h-35.46v-40.57c1.25-.69 2.75-.29 4.19-.3 7.66-.05 15.31-.01 22.97-.02 11.4-.02 18.67 8.29 18.7 18.41.01 2.16.14 4.34-.02 6.49-.51 6.78-2.7 12.55-9.66 15.31-.29.1-.48.44-.72.68z" class="st0"/><path fill="#fbfcfc" d="M677.12 541.93h-25.07c8.21-9.39 16.1-18.48 25.07-27.25v27.25z"/><path d="M1157.14 581.59c-3.95 1.6-8.03.91-11.82 2.33-2.25.84-12.23-.2-14.52-.92-2.01-.63-5.32-3.94-7.52-7.61 0-1.52-.05-3.33.01-5.14.27-8.37-1.71-16.64-1.03-25.03.32-3.95.92-7.84 2.03-11.64 1.28-4.4 4.05-6.29 8.57-7.71 3.58-1.12 7.07-.66 10.6-.85 1.75-.1 3.12 1.47 5.09 1.06 1.5-.31 3.08-.16 4.63.82.93.59 2.53.11 3.97.11-.01 18.31-.01 36.4-.01 54.58zm-109.96-52.51v53.97c-6.11-.52-11.94 1.48-18.01 1.04-2.73-.2-5.42-.65-7.82-1.64-5.01-2.07-6.21-1.8-8.33-7.18-.11-.28-.45-.48-.86-.88 1.03-9.7-1.3-19.44-1.01-29.32.1-3.43.59-6.83 1.33-10.01 1.05-4.5 4.56-7.52 9.07-9.05 2.13-.72 4.28-1.21 6.57-1.02 3.85.32 7.69-.24 11.6.85 2.64.75 4.86 1.95 7.46 3.24zm-200.96 30.23v24.76c-3.32-.84-6.15 1.34-9.49 1.01-3.13-.31-6.36-.35-9.48.02-2.87.34-5.43-.74-8.07-1.22-3.11-.56-5.05-3.38-7.11-5.64-1.28-1.41-1.81-3.18-1.87-5.23-.14-4.79.15-5.72 1.53-9.06 1.57-3.79 5.37-4.67 8.09-6.94 5.72-.52 11.44-2.4 17.16 0 2.51-.74 4.65 1.24 7.08.99 1.05-.11 1.33.86 2.16 1.31zm122.48-1.38l1.46 1.46v24.25c-7 1.86-14.03 1.2-21.01 1.41-3.98.12-7.4-1.53-10.53-3.41-2.36-1.42-3.92-4.01-4.39-7.06-.37-2.42-2.21-4.77.05-7.15.88-6.06 5.43-8.4 10.39-10.46 2.48-1.03 5.01-1.14 7.57-.93 2.53.22 5.26-1.03 7.56.96 3.12-.7 5.89 1.79 8.9.93z" class="st0"/><path fill="#fdfdfd" d="M894.1 618.11h4.06v24.68h9.06V618.5c1.22-.88 2.41-.32 3.52-.49.71.63.95 24.97.35 38h-30.57v-37.87h4.71v24.76h8.88c-.01-8.16-.01-16.27-.01-24.79z"/><path d="M819.82 639.92h-9.38v-4.83h9.39m20.36-6.92v3.66h-8.85c-.03-.99-.01-2.25.06-3.66h8.79z" class="st0"/></svg>