<svg xmlns="http://www.w3.org/2000/svg" role="img" viewBox="296.50 380.50 1326.00 318.00"><title>Agora (collaborator) logo</title><style>svg {enable-background:new 0 0 1920 1080}</style><style>.st0{fill:#099dfd}</style><path d="M1302.54 549.72c-20.81 0-37.73-16.93-37.73-37.73s16.93-37.73 37.73-37.73 37.73 16.93 37.73 37.73-16.93 37.73-37.73 37.73m0-106.16c-37.73 0-68.43 30.7-68.43 68.43 0 37.73 30.7 68.43 68.43 68.43 37.73 0 68.43-30.7 68.43-68.43 0-37.73-30.7-68.43-68.43-68.43m113.86 17.63l-.86.83-.91.88-.6-1.12-.57-1.06c-4.93-9.16-14.01-15.47-24.29-16.87l-2.54-.35v136.95l2.56-.37c14.01-2.03 28.14-12.79 28.14-32.21V512c0-19.1 14.87-35.59 33.86-37.53l2.01-.2v-30.72l-2.46.24c-11.91 1.16-23.78 7.18-34.34 17.4m-420.73 88.58c-20.81 0-37.73-16.93-37.73-37.73 0-20.81 16.93-37.73 37.73-37.73s37.73 16.93 37.73 37.73c0 20.8-16.93 37.73-37.73 37.73m43.92-92.65l-.54.75-.58.8-.78-.59-.74-.56c-11.98-9.1-26.26-13.9-41.29-13.9-37.73 0-68.43 30.7-68.43 68.43s30.7 68.43 68.43 68.43c15.03 0 29.3-4.81 41.28-13.91l.74-.56.78-.59.58.79.55.75c5.2 7.18 13.2 12 21.96 13.21l2.54.35V443.56l-2.54.35c-8.75 1.21-16.76 6.02-21.96 13.21m489.71 92.65c-20.81 0-37.73-16.93-37.73-37.73 0-20.81 16.93-37.73 37.73-37.73 20.81 0 37.73 16.93 37.73 37.73 0 20.8-16.93 37.73-37.73 37.73m65.88-105.86c-8.76 1.21-16.76 6.02-21.96 13.21l-.54.75-.58.8-.78-.59-.74-.56c-11.98-9.1-26.26-13.9-41.29-13.9-37.73 0-68.43 30.7-68.43 68.43 0 37.73 30.7 68.43 68.43 68.43 15.03 0 29.3-4.81 41.29-13.9l.74-.56.78-.59.58.79.54.75c5.2 7.19 13.2 12 21.96 13.21l2.54.35V443.56l-2.54.35zm-445.02 30.35h.05c20.79.01 37.7 16.94 37.7 37.73 0 20.81-16.93 37.73-37.73 37.73s-37.73-16.93-37.73-37.73c.01-20.8 16.92-37.72 37.71-37.73m42.77 91.11c15.64-12.55 25.68-31.81 25.68-53.38 0-14.2-4.35-27.41-11.79-38.35-.99-1.46-2.06-2.86-3.16-4.24 8.41-5.33 13.27-14.33 14.57-23.28l.37-2.56h-68.73v.01c-37.59.16-68.13 30.79-68.13 68.42 0 21.57 10.04 40.83 25.69 53.38-2.94 2.36-5.68 4.94-8.2 7.74l20.87 22.87c6.9-9.08 17.81-14.97 30.07-14.97 20.81 0 37.73 16.93 37.73 37.73 0 13.49-7.12 25.35-17.8 32.02l20.88 22.88c16.75-12.49 27.62-32.44 27.62-54.89.02-21.57-10.02-40.83-25.67-53.38" class="st0"/><path d="M542.66 446.11v-24.84h-94.27v-14.91l-2.37.34c-8.68 1.26-17.4 6.12-22.21 14.57h-98.2v24.84h94.41v16.56H338.7v24.84h191.01v-24.84H448.4v-16.56h94.26zm248.58.78c-1.63-13.52-12.55-24.24-26.21-25.62H574.19v219.84l2.37-.34c12.95-1.87 26.01-11.76 26.01-29.64V446.12H756.3c3.63 0 6.56 2.92 6.56 6.53l.01 148.31c0 12.41-6.58 23.3-16.44 29.43l19.29 21.03c15.48-11.47 25.52-29.82 25.52-50.46V446.89z" class="st0"/><path d="M755.74 474.04l-1.99-.67c-10.9-3.68-25.12-1.11-32.3 12.91l-8.46 16.52-8.72-17.02c-.01-.01-.01-.01-.01-.02-2.4-4.69-5.6-8.09-9.18-10.41-.04-.03-.09-.05-.13-.08-3.57-2.16-7.76-3.41-12.23-3.41-4.47 0-8.66 1.25-12.23 3.41-.14.08-.28.18-.42.27-3.45 2.3-6.52 5.62-8.86 10.15-.01.01-.01.02-.01.02-.01.02-.01.03-.02.05l-8.73 17.04-8.46-16.52c-7.18-14.02-21.39-16.58-32.3-12.91l-1.99.67 28.74 56.12-28.74 56.12 1.99.67c10.91 3.68 25.12 1.11 32.3-12.91l8.46-16.52 8.73 17.04c.01.02.02.03.02.05.01.01.01.01.01.02 2.34 4.53 5.41 7.85 8.86 10.15l.42.27c3.57 2.16 7.76 3.41 12.23 3.41 4.47 0 8.66-1.25 12.23-3.41.05-.03.09-.05.13-.08 3.59-2.31 6.78-5.72 9.18-10.41.01-.01.01-.01.01-.02l8.72-17.02 8.46 16.52c7.17 14.02 21.39 16.58 32.3 12.91l1.99-.67L727 530.16l28.74-56.12zm-73.03 87.87l-16.26-31.75 16.26-31.75 16.26 31.75-16.26 31.75zm-153-57.83H338.7s.01 96.75.01 96.88c0 12.41-6.58 23.3-16.44 29.43l19.29 21.03c15.48-11.47 25.52-29.82 25.52-50.46V577.4h136.35c13.62-1.38 24.54-12.05 26.21-25.52l.07-47.8zm-162.63 24.84h52.94v23.64h-52.94v-23.64zm134.19 17.42c0 3.43-2.8 6.21-6.25 6.21H448.4v-23.64h52.87v17.43z" class="st0"/></svg>