<svg xmlns="http://www.w3.org/2000/svg" role="img" viewBox="-5.23 -5.23 272.22 194.47"><title>Allegro Networks logo</title><defs><style>.cls-1{fill:#0008e6}</style></defs><g id="Layer_2" data-name="Layer 2"><g id="图层_1" data-name="图层 1"><path d="M137.57 124.85a10.14 10.14 0 0 1-7-17.47L238.89 3.76a13.55 13.55 0 0 1 22.91 9.79v98.06a10.15 10.15 0 0 1-20.29 0v-82.3L144.58 122a10.11 10.11 0 0 1-7.01 2.85z" class="cls-1"/><path d="M135 184.26H12.69a12.67 12.67 0 0 1-8.77-21.83l122.35-117a12.68 12.68 0 0 1 21.44 9.16v117A12.69 12.69 0 0 1 135 184.26zM31.64 164h95.79V72.36zM140.29 60.06z"/><path d="M248.25 184.27H83.94a13.55 13.55 0 0 1-9.37-23.34L102 134.66a10.14 10.14 0 0 1 14 14.66L100.72 164h140.79v-52.39a10.15 10.15 0 1 1 20.29 0v59.11a13.57 13.57 0 0 1-13.55 13.55z" class="cls-1"/></g></g></svg>