<svg xmlns="http://www.w3.org/2000/svg" role="img" viewBox="4.76 7.26 480.48 85.48"><title>API7 (collaborator) logo</title><path fill="red" d="M105.5 38.369v45.41H85.47v-4.66c-.527 1.153-1.58 2.22-3.16 3.2-1.587.973-3.017 1.46-4.29 1.46H23.75c-1.46 0-2.927-.38-4.4-1.14-1.473-.76-2.677-1.823-3.61-3.19-.933-1.367-1.413-2.903-1.44-4.61-.033-3.293-.073-7.453-.12-12.48-.047-5.033-.07-7.69-.07-7.97 0-3.76 1-6.717 3-8.87 2.007-2.16 4.343-3.24 7.01-3.24h51.34c2.36 0 4.423.607 6.19 1.82 1.773 1.207 3.047 2.417 3.82 3.63v-6.1c0-1.273-.38-2.57-1.14-3.89-.76-1.32-1.84-2.417-3.24-3.29-1.393-.867-3.023-1.3-4.89-1.3H14.76v-16.17h69.27c2.92 0 5.683.717 8.29 2.15 2.607 1.427 4.907 3.28 6.9 5.56 1.987 2.287 3.53 4.657 4.63 7.11 1.1 2.453 1.65 4.643 1.65 6.57zm-23.85 24.64c0-.84-.31-1.61-.93-2.31-.62-.7-1.387-1.26-2.3-1.68-.92-.413-1.66-.62-2.22-.62H38.33c-1.74 0-2.95.59-3.63 1.77-.687 1.18-1.03 2.093-1.03 2.74 0 1.367.443 2.47 1.33 3.31.887.84 1.78 1.26 2.68 1.26h39.59c.873 0 1.823-.457 2.85-1.37 1.02-.92 1.53-1.953 1.53-3.1zm118.643-33.22v15.66c0 3.727-.9 6.877-2.7 9.45-1.8 2.58-4.814 3.87-9.04 3.87h-54.64v25.01h-19.19v-41.13h62.42c.84 0 1.68-.48 2.52-1.44.84-.967 1.26-2.04 1.26-3.22 0-1.147-.35-2.11-1.05-2.89-.7-.773-1.64-1.347-2.82-1.72s-2.36-.56-3.54-.56h-58.79v-15.84h72.02c5 0 8.51 1.213 10.53 3.64 2.013 2.42 3.02 5.477 3.02 9.17zm29.301-12.81v66.71h-19.19v-66.71h19.19zm88.736-.09v15.75h-80.35v-15.75h80.35zm-33.21 25.95h23.2l-35.68 40.94h-24.32l36.8-40.94zm56.646 24.55v16.39h-16.31v-16.39h16.31zm103.73-29.02v45.41h-20.03v-4.66c-.527 1.153-1.58 2.22-3.16 3.2-1.587.973-3.017 1.46-4.29 1.46h-54.27c-1.46 0-2.927-.38-4.4-1.14-1.474-.76-2.677-1.823-3.61-3.19-.934-1.367-1.414-2.903-1.44-4.61-.034-3.293-.074-7.453-.12-12.48-.047-5.033-.07-7.69-.07-7.97 0-3.76 1-6.717 3-8.87 2.006-2.16 4.343-3.24 7.01-3.24h51.34c2.36 0 4.423.607 6.19 1.82 1.773 1.207 3.046 2.417 3.82 3.63v-6.1c0-1.273-.38-2.57-1.14-3.89-.76-1.32-1.84-2.417-3.24-3.29-1.394-.867-3.024-1.3-4.89-1.3h-61.44v-16.17h69.27c2.92 0 5.683.717 8.29 2.15 2.606 1.427 4.906 3.28 6.9 5.56 1.986 2.287 3.53 4.657 4.63 7.11 1.1 2.453 1.65 4.643 1.65 6.57zm-23.85 24.64c0-.84-.31-1.61-.93-2.31-.62-.7-1.387-1.26-2.3-1.68-.92-.413-1.66-.62-2.22-.62h-37.87c-1.74 0-2.95.59-3.63 1.77-.687 1.18-1.03 2.093-1.03 2.74 0 1.367.443 2.47 1.33 3.31.886.84 1.78 1.26 2.68 1.26h39.59c.873 0 1.823-.457 2.85-1.37 1.02-.92 1.53-1.953 1.53-3.1zm54.362-46.03v66.71h-19.19v-66.71h19.19z"/></svg>