<svg xmlns="http://www.w3.org/2000/svg" role="img" viewBox="-3.81 -10.81 822.12 162.12"><title>Crate.io logo</title><style>svg {enable-background:new 0 0 813 141.1}</style><style/><g id="TdI2jd.tif"><g><path fill="#55d4f5" d="M143.3,5c0,13.3,0,26.6,0,39.9c0,3.5,0.1,3.6,3.5,3.6c12.1,0,24.2,0,36.3,0c4.1,0,4.7,0.6,4.7,4.6 c0,11.9,0,23.8,0,35.8c0,4.2,0,4.2-4.1,4.2c-26.4,0-52.8,0-79.2,0c-4.1,0-4.1,0-4.1,4.1c0,12.9,0,25.9,0,38.8 c-14.9,0-29.7,0-44.6,0c0-13.1,0-26.2,0-39.2c0-3.6-0.1-3.7-3.7-3.7c-13.3,0-26.5,0-39.8,0c0-14.9,0-29.7,0-44.6 c27.7,0,55.5,0,83.2,0.1c2.3,0,3.3-0.8,3.2-3.2C98.7,31.9,98.8,18.5,98.7,5C113.6,5,128.5,5,143.3,5z"/><path d="M802.6 93.1c-1.6 1.6-2.9 3.5-4.4 5.2-3.6 4.2-8.3 6.1-13.6 6.3-4.6.2-9.2.1-13.7 0-5.5-.1-10.2-2-13.7-6.4-1.7-2.2-4.2-3.7-4.9-6.7-.3-1.2-.5-2.3-.5-3.5 0-11.9 0-23.8 0-35.7 0-3.6 2-6.2 4-8.9 2.9-4.1 7.5-4.8 11.5-6.9.5-.2 1.1-.2 1.6-.2 6 0 12.1-.4 18.1.1 3.6.3 7 2.2 9.7 4.8 2 1.8 3.6 4 5.9 5.6C802.6 62.2 802.6 77.6 802.6 93.1zM766.4 70.3c0 4.7 0 9.3 0 14 0 3.9 2 5.8 5.8 5.8 3.7 0 7.3 0 11 0 2.9-.1 6.6-3.9 6.6-6.7 0-8.2 0-16.3 0-24.5 0-4.6-3.5-8.1-8.1-8.1-3 0-6 0-9.1 0-4.5 0-6.1 1.7-6.2 6.3C766.4 61.5 766.4 65.9 766.4 70.3zM334.7 70.6c0-9.5 0-19.1 0-28.6 0-4.2 0-4.2 4.3-4.2 9.4 0 18.7.3 28.1-.1 5.9-.3 9.8 2.5 13.3 6.5 2.3 2.7 3.3 5.7 3.1 9.3-.2 3-.3 6.1 0 9.1.5 5-2.1 8.3-5.3 11.4-1.2 1.2-2.3 2.8-4.3 3.3-1.3.3-1.2 1.6-.4 2.4 4.5 4.7 6.6 11.1 11 16 1.6 1.8 2.3 4.5 3.9 6.5.7.9-.3 1.4-1 1.4-4.8 0-9.5.1-14.3 0-1.4 0-2-1.3-2.6-2.2-3.2-4.9-6.1-10-9.3-14.9-1.3-2-2.6-3.8-3.8-5.8-1.5-2.4-4-2.5-6.6-2.2-1.8.2-1.5 1.6-1.5 2.7 0 6.2 0 12.5 0 18.7 0 3.7-.1 3.8-3.9 3.8-2.5 0-5-.1-7.4 0-2.6.2-3.3-1-3.3-3.4C334.7 90.4 334.7 80.5 334.7 70.6zM357.3 65.3c2.5 0 4.5 0 6.5 0 3-.1 5-2.2 5.1-5.2 0-1.8.1-3.7 0-5.5-.1-2.7-1.3-3.8-3.9-3.8-3.2 0-6.4 0-9.6 0-7 .1-6.1-1-6.1 6.1 0 2.6-1.1 5.9.5 7.7C351.6 66.6 355 65 357.3 65.3zM573.5 70.8c0-9.8.1-19.6 0-29.4 0-2.5.6-3.6 3.3-3.6 12.3.1 24.6.1 36.9 0 2.4 0 3.3.7 3.2 3.1-.2 2.2-.2 4.4 0 6.6.2 2.7-1 3.4-3.5 3.4-7.3-.1-14.7.1-22-.1-2.6-.1-3.5.8-3.3 3.3.2 1.7.2 3.5 0 5.2-.2 2.6.7 3.6 3.4 3.5 6.9-.2 13.8-.1 20.6 0 3.9 0 4.5.6 4.5 4.4 0 2.3-.1 4.6 0 6.9.1 2.4-.9 3.2-3.2 3.2-7.3-.1-14.7.1-22-.1-2.4 0-3.4.6-3.4 3.2.1 8.2 0 8.2 8.3 8.2 5.8 0 11.6.1 17.3 0 2.2 0 3.2.8 3.2 3-.1 3.2-.1 6.4 0 9.6 0 1.8-.7 2.4-2.5 2.4-12.7 0-25.5-.1-38.2 0-2.4 0-2.6-1.4-2.6-3.2C573.5 90.6 573.5 80.7 573.5 70.8zM464.6 103.7c-1.1 0-2.2 0-3.3 0-3.8 0-5.3-1.2-6.1-4.9-.3-1.6-.6-3.3-1.3-4.7-.8-1.5-1.9-2.7-4-2.7-5 .1-10.1 0-15.1 0-3.8 0-4.3.3-5 3.9-.5 2.3-2 4.2-2.5 6.5-.3 1.3-1.3 1.9-2.7 1.8-3.8-.1-7.5 0-11.3-.1-1.4 0-2.7.1-1.4-2.3 1.4-2.7 1.5-6 2.7-8.8 1.9-4.3 2.6-9 5-13.1.7-1.2.8-2.6 1.2-3.9 1.2-4.7 3-9.3 4.5-13.9 1.3-4 2.7-8 4.4-11.8 1.5-3.2 2.1-6.8 3.5-10.1.5-1.1.9-1.8 2.1-1.8 4.4 0 8.8 0 13.2 0 1.1 0 1.8.5 2.2 1.7.5 1.7 1.3 3.4 1.7 5.2 1.8 7.2 4.8 13.9 7.1 20.9 2.2 6.7 4.1 13.5 6.7 19.9 2.1 5.1 2.8 10.6 5.6 15.4 1.1 1.9.2 2.7-1.8 2.8C468.3 103.7 466.4 103.7 464.6 103.7 464.6 103.7 464.6 103.7 464.6 103.7zM441.3 59.5c-.1 4.1-2.4 7.2-3.4 10.7-.5 1.6-.6 3.3-1.9 4.8-1 1.1.2 1.9 1.6 1.9 2.7 0 5.3.1 8 0 1.8-.1 2.5-1.4 1.6-3C444.6 69.5 444.3 64.2 441.3 59.5zM252.3 70.3c0-4.3.2-8.6-.1-12.9-.2-3.1 1-5.9 1.2-8.9.1-1.6 1.7-2.3 2.6-3.4 4.5-5.3 9.7-9.2 17.2-8.8 2.7.1 5.3.1 8 0 7.1-.2 12.4 3.1 17 8.3 2.3 2.6 3.1 5.9 5 8.6.9 1.2.4 2.8-1.5 3.1-3.1.4-6 1-8.8 2.6-2 1.1-3.7 0-5.4-3.5-1.6-3.3-3.8-4.9-7.4-4.6-2.1.2-4.2 0-6.3 0-3.6 0-5.6 1.9-5.6 5.5 0 9.5 0 19.1 0 28.6 0 3.2 2.1 5.2 5.3 5.2 2.4 0 4.8-.2 7.1 0 2.9.3 4.6-1.1 6-3.3 3.1-5 3.8-5.2 9.5-3.5 1.8.5 3.7 1 5.6 1.3 1.8.3 2.2 1.6 1.6 2.8-2.3 5-5 9.8-9.5 13.2-3.5 2.6-7.4 4.1-11.8 4-3.4-.1-6.8 0-10.2 0-6.8-.1-11.8-3.5-15.8-8.7-2.9-3.8-3.8-8.1-3.8-12.7C252.3 78.9 252.3 74.6 252.3 70.3zM524.9 77.2c0 7.8-.1 15.6 0 23.4 0 2.4-.8 3.3-3.2 3.1-2.6-.2-5.3-.2-8 0-2.6.1-3.5-.9-3.5-3.5.1-14.7.1-29.3 0-44 0-6.1.6-5.3-5.5-5.4-2.9 0-5.9-.1-8.8 0-1.9 0-2.9-.6-2.8-2.7.1-2.6.1-5.1 0-7.7-.1-1.8.6-2.6 2.5-2.6 14.9 0 29.9 0 44.8 0 2.1 0 3 .8 2.9 3-.1 2.3-.1 4.6 0 6.9.1 2.5-1 3.2-3.3 3.2-4.1-.1-8.3.1-12.4-.1-2.3-.1-3 .8-2.9 3C525 61.6 524.9 69.4 524.9 77.2zM718 70.5c0 9.9-.1 19.8 0 29.7 0 2.6-.8 3.7-3.5 3.5-2.9-.2-5.9-.1-8.8 0-2.1.1-3-.8-2.9-2.9.1-4.3 0-8.6 0-12.9 0-15.5.1-31-.1-46.5 0-2.7.7-3.8 3.6-3.6 2.8.2 5.7.1 8.5 0 2.4-.1 3.2.9 3.1 3.3C717.9 50.9 718 60.7 718 70.5zM651.7 95c0-2 0-4 0-6 0-1.7.8-2.5 2.5-2.5 3.8 0 7.7 0 11.5 0 2 0 3.1 1 3.1 3 0 3.9 0 7.9 0 11.8 0 1.6-.8 2.4-2.4 2.4-4.1 0-8.2 0-12.4 0-1.7 0-2.5-.9-2.4-2.6C651.8 99.1 651.7 97.1 651.7 95z"/></g></g></svg>