<svg xmlns="http://www.w3.org/2000/svg" role="img" viewBox="78.96 79.71 405.08 95.33"><title>Elasticsearch logo</title><style>svg {enable-background:new 0 0 550 250}</style><path fill="none" d="M178 102.5H491V143.5H178z"/><g><path d="M193.3 139.4c-4 0-7.2-1.2-9.5-3.5s-3.4-5.6-3.4-9.7c0-4.2 1.1-7.6 3.2-10s5-3.6 8.7-3.6c3.4 0 6.1 1 8.1 3.1s3 4.9 3 8.6v3h-17.3c.1 2.5.8 4.4 2 5.8s3.1 2 5.4 2c1.5 0 3-.1 4.3-.4s2.7-.8 4.3-1.4v4.5c-1.3.6-2.7 1.1-4.1 1.4S195 139.4 193.3 139.4zM192.2 116.8c-1.8 0-3.2.6-4.2 1.7s-1.7 2.7-1.9 4.9h11.8c0-2.1-.5-3.8-1.5-4.9S194 116.8 192.2 116.8zM215.1 139h-5.5v-36.5h5.5V139zM239.2 139l-1.1-3.6h-.2c-1.2 1.6-2.5 2.7-3.8 3.2s-2.9.9-4.9.9c-2.5 0-4.5-.7-6-2.1s-2.1-3.3-2.1-5.8c0-2.7 1-4.7 3-6s5-2.1 9.1-2.2l4.5-.1v-1.4c0-1.7-.4-2.9-1.2-3.7s-2-1.2-3.6-1.2c-1.3 0-2.6.2-3.8.6s-2.4.9-3.5 1.4l-1.8-3.9c1.4-.7 2.9-1.3 4.6-1.7s3.2-.6 4.7-.6c3.3 0 5.8.7 7.5 2.2s2.5 3.7 2.5 6.8V139H239.2zM231 135.2c2 0 3.6-.6 4.8-1.7s1.8-2.7 1.8-4.7v-2.2l-3.3.1c-2.6.1-4.5.5-5.7 1.3-1.2.8-1.8 2-1.8 3.6 0 1.2.3 2.1 1 2.7S229.6 135.2 231 135.2zM268.2 131.6c0 2.5-.9 4.5-2.8 5.8s-4.5 2-7.9 2c-3.5 0-6.2-.5-8.3-1.6v-4.8c3 1.4 5.9 2.1 8.5 2.1 3.4 0 5.1-1 5.1-3.1 0-.7-.2-1.2-.6-1.6s-1-.9-1.9-1.4-2.1-1-3.6-1.6c-3-1.2-5-2.3-6.1-3.5s-1.6-2.7-1.6-4.5c0-2.2.9-3.9 2.7-5.2s4.2-1.8 7.3-1.8c3 0 5.9.6 8.6 1.9l-1.8 4.1c-2.8-1.2-5.1-1.7-7.1-1.7-2.9 0-4.4.8-4.4 2.5 0 .8.4 1.5 1.1 2.1s2.4 1.3 5 2.3c2.1.8 3.7 1.6 4.7 2.3s1.7 1.5 2.2 2.4C268 129.3 268.2 130.3 268.2 131.6zM283.8 135c1.3 0 2.7-.2 4-.6v4.1c-.6.3-1.4.5-2.4.7s-2 .3-3 .3c-5.2 0-7.8-2.8-7.8-8.2v-14h-3.5v-2.4l3.8-2 1.9-5.5h3.4v5.8h7.4v4.2h-7.4v13.9c0 1.3.3 2.3 1 2.9S282.8 135 283.8 135zM292.7 106.2c0-1 .3-1.7.8-2.3s1.3-.8 2.3-.8c1 0 1.7.3 2.3.8s.8 1.3.8 2.3c0 .9-.3 1.7-.8 2.2s-1.3.8-2.3.8c-1 0-1.8-.3-2.3-.8S292.7 107.1 292.7 106.2zM298.6 139h-5.5v-25.9h5.5V139zM316.9 139.4c-3.9 0-6.9-1.1-8.9-3.4s-3.1-5.6-3.1-9.9c0-4.4 1.1-7.7 3.2-10.1s5.2-3.5 9.2-3.5c2.7 0 5.2.5 7.4 1.5l-1.7 4.4c-2.3-.9-4.2-1.4-5.8-1.4-4.5 0-6.7 3-6.7 8.9 0 2.9.6 5.1 1.7 6.6s2.8 2.2 4.9 2.2c2.5 0 4.8-.6 7-1.8v4.8c-1 .6-2 1-3.2 1.2S318.5 139.4 316.9 139.4zM347.6 131.6c0 2.5-.9 4.5-2.8 5.8s-4.5 2-7.9 2c-3.5 0-6.2-.5-8.3-1.6v-4.8c3 1.4 5.9 2.1 8.5 2.1 3.4 0 5.1-1 5.1-3.1 0-.7-.2-1.2-.6-1.6s-1-.9-1.9-1.4-2.1-1-3.6-1.6c-3-1.2-5-2.3-6.1-3.5s-1.6-2.7-1.6-4.5c0-2.2.9-3.9 2.7-5.2s4.2-1.8 7.3-1.8c3 0 5.9.6 8.6 1.9l-1.8 4.1c-2.8-1.2-5.1-1.7-7.1-1.7-2.9 0-4.4.8-4.4 2.5 0 .8.4 1.5 1.1 2.1s2.4 1.3 5 2.3c2.1.8 3.7 1.6 4.7 2.3s1.7 1.5 2.2 2.4C347.4 129.3 347.6 130.3 347.6 131.6zM364.9 139.4c-4 0-7.2-1.2-9.5-3.5s-3.4-5.6-3.4-9.7c0-4.2 1.1-7.6 3.2-10s5-3.6 8.7-3.6c3.4 0 6.1 1 8.1 3.1s3 4.9 3 8.6v3h-17.3c.1 2.5.8 4.4 2 5.8s3.1 2 5.4 2c1.5 0 3-.1 4.3-.4s2.7-.8 4.3-1.4v4.5c-1.3.6-2.7 1.1-4.1 1.4S366.7 139.4 364.9 139.4zM363.9 116.8c-1.8 0-3.2.6-4.2 1.7s-1.7 2.7-1.9 4.9h11.8c0-2.1-.5-3.8-1.5-4.9S365.6 116.8 363.9 116.8zM397.4 139l-1.1-3.6h-.2c-1.2 1.6-2.5 2.7-3.8 3.2s-2.9.9-4.9.9c-2.5 0-4.5-.7-6-2.1s-2.1-3.3-2.1-5.8c0-2.7 1-4.7 3-6s5-2.1 9.1-2.2l4.5-.1v-1.4c0-1.7-.4-2.9-1.2-3.7s-2-1.2-3.6-1.2c-1.3 0-2.6.2-3.8.6s-2.4.9-3.5 1.4l-1.8-3.9c1.4-.7 2.9-1.3 4.6-1.7s3.2-.6 4.7-.6c3.3 0 5.8.7 7.5 2.2s2.5 3.7 2.5 6.8V139H397.4zM389.2 135.2c2 0 3.6-.6 4.8-1.7s1.8-2.7 1.8-4.7v-2.2l-3.3.1c-2.6.1-4.5.5-5.7 1.3-1.2.8-1.8 2-1.8 3.6 0 1.2.3 2.1 1 2.7S387.9 135.2 389.2 135.2zM422.2 112.6c1.1 0 2 .1 2.7.2l-.5 5.1c-.8-.2-1.6-.3-2.4-.3-2.2 0-4 .7-5.4 2.2s-2.1 3.3-2.1 5.6V139h-5.5v-25.9h4.3l.7 4.6h.3c.9-1.5 2-2.8 3.4-3.7S420.6 112.6 422.2 112.6zM440.2 139.4c-3.9 0-6.9-1.1-8.9-3.4s-3.1-5.6-3.1-9.9c0-4.4 1.1-7.7 3.2-10.1s5.2-3.5 9.2-3.5c2.7 0 5.2.5 7.4 1.5l-1.7 4.4c-2.3-.9-4.2-1.4-5.8-1.4-4.5 0-6.7 3-6.7 8.9 0 2.9.6 5.1 1.7 6.6s2.8 2.2 4.9 2.2c2.5 0 4.8-.6 7-1.8v4.8c-1 .6-2 1-3.2 1.2S441.8 139.4 440.2 139.4zM476.3 139h-5.5V123c0-2-.4-3.5-1.2-4.5s-2.1-1.5-3.8-1.5c-2.3 0-4 .7-5.1 2.1s-1.6 3.7-1.6 6.9V139h-5.5v-36.5h5.5v9.3c0 1.5-.1 3.1-.3 4.8h.4c.8-1.2 1.8-2.2 3.1-2.9s2.9-1 4.7-1c6.3 0 9.4 3.2 9.4 9.5V139z"/></g><g id="Elasticsearch_1_"><g><path fill="#00a9e5" d="M141.8,115.5h-20.9c0.1,0.5,0.3,1,0.4,1.4c0.7,2.4,1.1,4.9,1.3,7.5c0.1,1,0.1,2.1,0.1,3.1c0,1,0,2.1-0.1,3.1 c-0.2,2.6-0.6,5.1-1.3,7.5c-0.1,0.5-0.3,1-0.4,1.4h20.9c6.6,0,11.9-5.4,11.9-12S148.4,115.5,141.8,115.5z"/><path fill="#353535" d="M122.6,130.6c0.1-1,0.1-2.1,0.1-3.1c0-1,0-2.1-0.1-3.1c-0.2-2.6-0.6-5.1-1.3-7.5c-0.1-0.5-0.3-1-0.4-1.4H88.6 c-1.2,3.8-1.8,7.8-1.8,12s0.6,8.2,1.8,12h32.3c0.1-0.5,0.3-1,0.4-1.4C122,135.7,122.4,133.2,122.6,130.6z"/></g><g><path fill="#00bfb3" d="M145.4,143.5h-26c-0.8,1.8-1.7,3.5-2.7,5.1c-1.5,2.5-3.3,4.7-5.3,6.8c-0.7,0.7-1.4,1.3-2.1,2 c-1.4,1.3-3,2.4-4.6,3.5c6.3,4.2,13.9,6.6,22,6.6c13.9,0,26.1-7.1,33.3-17.8C156.3,145.9,151.1,143.5,145.4,143.5z"/><path fill="#019b8f" d="M116.7,148.6c1-1.6,1.9-3.3,2.7-5.1H90.1c3.1,7.1,8.2,13.2,14.7,17.4c1.6-1.1,3.1-2.2,4.6-3.5 c0.7-0.6,1.4-1.3,2.1-2C113.4,153.4,115.2,151.1,116.7,148.6z"/></g><g><path fill="#f9b110" d="M111.4,99.6c-0.7-0.7-1.4-1.3-2.1-2c-1.4-1.3-3-2.4-4.6-3.5c-6.4,4.2-11.5,10.3-14.7,17.4h29.3 c-0.8-1.8-1.7-3.5-2.7-5.1C115.2,103.9,113.4,101.6,111.4,99.6z"/><path fill="#fed10a" d="M126.7,87.5c-8.1,0-15.7,2.4-22,6.6c1.6,1.1,3.1,2.2,4.6,3.5c0.7,0.6,1.4,1.3,2.1,2c2,2.1,3.8,4.3,5.3,6.8 c1,1.6,1.9,3.3,2.7,5.1h26c5.7,0,10.9-2.4,14.6-6.2C152.8,94.6,140.6,87.5,126.7,87.5z"/></g></g></svg>