<svg xmlns="http://www.w3.org/2000/svg" role="img" viewBox="-9.99 -9.99 519.48 160.48"><title>Qihoo 360 logo</title><defs><linearGradient id="a" x1="11.714%" x2="88.313%" y1="17.858%" y2="82.132%"><stop offset="0%" stop-color="#F5E55A"/><stop offset="22.42%" stop-color="#F5E153"/><stop offset="53.47%" stop-color="#F5D53E"/><stop offset="75%" stop-color="#F5CA27"/></linearGradient><linearGradient id="b" x1="49.987%" x2="49.987%" y1=".083%" y2="100.121%"><stop offset="0%" stop-color="#43B152"/><stop offset="27.75%" stop-color="#3EAF54"/><stop offset="61.72%" stop-color="#32A657"/><stop offset="98.83%" stop-color="#11985C"/><stop offset="100%" stop-color="#0F975C"/></linearGradient><linearGradient id="c" x1="50.02%" x2="50.02%" y1="-.002%" y2="100.035%"><stop offset="0%" stop-color="#43B152"/><stop offset="27.75%" stop-color="#3EAF54"/><stop offset="61.72%" stop-color="#32A657"/><stop offset="98.83%" stop-color="#11985C"/><stop offset="100%" stop-color="#0F975C"/></linearGradient></defs><g fill="none" fill-rule="evenodd" stroke="none" stroke-width="1"><g fill="#37B057" fill-rule="nonzero" transform="translate(155.816 25.121)"><path d="M107.79082 32.42755c0-16.6653-14.53082-32.3865-32.3865-32.3865H0v5.54141c0 4.55628 3.69428 8.2916 8.2916 8.2916h66.94853c10.34398 0 18.71767 8.3737 18.71767 18.71768v5.70561l-1.19038.04105H9.35884V52.1714H93.9578l.04105 1.19038v6.97808c0 10.30293-8.33265 18.63558-18.63558 18.63558H8.41474c-4.59732 0-8.33264 3.73533-8.33264 8.33265v5.45932h74.95279c8.04532 0 15.1055-2.87332 21.26262-8.04531 7.79903-6.48551 11.49331-16.87054 11.49331-24.05386v-28.2407z"/><path d="M119.98194 32.4686v27.91232c0 17.89673 14.53083 32.42755 32.42755 32.42755h50.40637c12.84788 0 23.27395-10.42607 23.27395-23.27395V61.5713c0-12.84788-10.42607-23.27395-23.27395-23.27395h-69.0009V32.4686c0-10.26188 8.33265-18.59453 18.59453-18.59453h65.34767c4.59733 0 8.2916-3.73533 8.2916-8.2916V.04104H152.4095c-17.89672 0-32.42755 14.48978-32.42755 32.42755zm14.98235 19.66177h67.81052c5.21304 0 9.44094 4.2279 9.44094 9.44093v7.96322c0 5.21304-4.2279 9.44093-9.44094 9.44093h-50.40637c-10.26188 0-18.59453-8.33265-18.59453-18.59453v-8.25055h1.19038z"/><path d="M238.19883 60.33987c0 17.85568 14.53083 32.42755 32.42756 32.42755H311.756c17.85568 0 32.42755-14.53082 32.42755-32.42755V32.42755C344.18356 14.57187 329.65274 0 311.75601 0H270.6264c-17.85568 0-32.42756 14.53083-32.42756 32.42755v27.91232zm13.83302-27.87127c0-10.26188 8.33265-18.59453 18.59454-18.59453H311.756c10.26189 0 18.59454 8.33265 18.59454 18.59453v27.91232c0 10.26188-8.33265 18.59453-18.59454 18.59453H270.6264c-10.26189 0-18.59454-8.33265-18.59454-18.59453V32.4686z"/></g><circle cx="70.438" cy="70.438" r="70.438" fill="url(#a)" fill-rule="nonzero"/><path fill="#329C49" fill-rule="nonzero" d="M70.43757 39.77506c3.85846 0 6.93703 3.11961 6.93703 6.93703v16.7474H94.122c3.85846 0 6.93703 3.1196 6.93703 6.93703 0 3.85847-3.11962 6.93703-6.93704 6.93703H77.3746v16.7474c0 3.85846-3.11961 6.93703-6.93703 6.93703s-6.93704-3.11961-6.93704-6.93703v-16.7474H46.75314c-3.85847 0-6.93703-3.11961-6.93703-6.93703 0-3.85847 3.11961-6.93703 6.93703-6.93703h16.7474v-16.7474c-.04105-3.81742 3.07856-6.93703 6.93703-6.93703m0-.6978c-4.2279 0-7.63484 3.40694-7.63484 7.63483v16.04959H46.75314c-4.2279 0-7.63484 3.40694-7.63484 7.63484s3.40694 7.63484 7.63484 7.63484h16.04959v16.04959c0 4.2279 3.40694 7.63484 7.63484 7.63484s7.63484-3.40695 7.63484-7.63484V78.03136h16.04958c4.2279 0 7.63484-3.40694 7.63484-7.63484s-3.40694-7.63484-7.63484-7.63484H78.07241V46.71209c0-4.18685-3.448-7.63484-7.63484-7.63484z"/><path fill="#37B057" fill-rule="nonzero" d="M94.16304 63.45949H77.3746V46.67105c0-3.85847-3.11961-6.97809-6.97808-6.97809s-6.97808 3.11962-6.97808 6.97809v16.78844H46.63c-3.85847 0-6.97808 3.1196-6.97808 6.97808 0 3.85846 3.1196 6.97808 6.97808 6.97808h16.78844v16.78844c0 3.85847 3.11961 6.97808 6.97808 6.97808s6.97808-3.11961 6.97808-6.97808V77.41565h16.78844c3.85847 0 6.97808-3.11962 6.97808-6.97808 0-3.85847-3.11961-6.97808-6.97808-6.97808z"/><path fill="#0C8F51" d="M133.73286 100.81274c-3.85846 5.17199-17.56834 20.93424-37.92792 23.3971-24.34118 2.91437-40.34972-6.11609-58.94426-24.50538-2.46285-2.4218-6.5676-4.9257-8.53788-5.62351-8.08637-2.87333-13.17626.49257-15.59806 2.3397 0 0-2.62705 1.8882-5.04885 6.034 1.23142-3.32486 3.65323-6.07504 4.88466-6.97809 2.54494-1.84714 7.96322-5.21303 15.84434-2.3397 1.97028.6978 6.07504 3.24275 8.49684 5.7056 18.4714 18.55348 34.43888 27.66604 58.73902 24.91585 20.40063-2.3397 33.98736-17.89672 37.88688-23.02766.12314-.1642.57466-.04105.41047.28733 0 .04105-.04105.04105-.04105.0821-.04104-.1642-.12314-.36943-.16419-.28734z"/><path d="M126.293 8.23668c.0821-.1642-.1642-.36943-.28734-.20524-3.89951 5.0899-17.60939 21.01634-38.01001 23.27395-24.34119 2.75018-40.26763-6.28027-58.73902-24.58747-2.4218-2.4218-6.52656-4.9257-8.49684-5.62351-8.04532-2.87333-13.58673.6157-16.00854 2.4218-.0821.0821-3.16066 2.87333-4.72046 6.07504-.04105.04104-.04105.12314 0 .16419 11.61645 22.90452 35.38297 38.42049 62.84377 38.42049 1.23142 0 2.4218-.04105 3.61218-.0821C92.88031 46.78031 115.4154 30.85387 126.293 8.23668z" fill="url(#b)" fill-rule="nonzero" transform="translate(7.686 92.658)"/><path fill="#0C8F51" d="M7.14227 40.18553c3.85847-5.17198 17.56834-20.93424 37.92792-23.39709 24.34119-2.91437 40.34973 6.11608 58.94426 24.50538 2.46285 2.4218 6.5676 4.9257 8.53789 5.62351 8.08636 2.87333 13.17625-.49257 15.59806-2.3397 0 0 2.62704-1.8882 5.04885-6.034-1.23143 3.32485-3.65324 6.07504-4.88466 6.97808-2.54495 1.84714-7.96322 5.21304-15.84435 2.33971-1.97028-.6978-6.07503-3.24275-8.49684-5.7056-18.47139-18.55349-34.43888-27.66604-58.73902-24.91586C24.83376 19.57967 11.24702 35.1367 7.34751 40.26763c-.12314.16419-.61571.0821-.45152-.24629 0-.04104.04104-.04104.04104-.08209.04105.16419.12315.36943.20524.24628z"/><path d="M.01641 40.02134c-.0821.1642.1642.32838.28734.1642 3.85846-5.04885 17.56834-21.01634 38.01001-23.315C62.65495 14.12035 78.5814 23.1508 97.05278 41.458c2.4218 2.4218 6.52656 4.9257 8.49684 5.62351 8.04532 2.87333 13.58673-.61571 16.00854-2.4218.0821-.0821 3.16066-2.87333 4.72047-6.07504.04104-.04105.04104-.12314 0-.16419C114.66217 15.51597 90.89565 0 63.43485 0c-1.23142 0-2.4218.04105-3.61218.0821C33.4291 1.43666 10.894 17.3631.0164 40.02134z" fill="url(#c)" fill-rule="nonzero" transform="translate(6.88)"/></g></svg>