<svg xmlns="http://www.w3.org/2000/svg" role="img" viewBox="-6.72 -6.22 362.44 132.69"><title>Swoole (collaborator) logo</title><g transform="translate(-4 -33)" fill="none" fill-rule="evenodd" stroke="none" stroke-width="1"><path fill="#000" d="M53.1558 72.17591H32.61766V64.9103c0-3.39065-.26264-5.55013-.78791-6.47852-.52528-.92839-1.40072-1.39258-2.62636-1.39258-1.3307 0-2.33746.62565-3.02032 1.87696-.68286 1.2513-1.02428 3.14842-1.02428 5.6914 0 3.26955.3852 5.73176 1.1556 7.38672.73538 1.65496 2.81894 3.65298 6.25074 5.99414 9.84015 6.74092 16.0383 12.27081 18.59464 16.58985 2.55633 4.31903 3.83448 11.28185 3.83448 20.88867 0 6.9831-.7091 12.12954-2.12735 15.43945-1.41824 3.30991-4.15838 6.08495-8.2205 8.3252-4.06214 2.24024-8.78954 3.36035-14.18236 3.36035-5.9181 0-10.96941-1.29166-15.1541-3.875-4.1847-2.58335-6.92484-5.87303-8.22052-9.86914-1.29567-3.99612-1.9435-9.66729-1.9435-17.01368v-6.41796h20.53814v11.92773c0 3.6732.2889 6.0345.8667 7.08398.5778 1.04949 1.60207 1.57422 3.07284 1.57422 1.47077 0 2.56508-.666 3.28296-1.99804.71787-1.33204 1.0768-3.30989 1.0768-5.9336 0-5.77216-.68284-9.54621-2.04856-11.32226-1.40073-1.77605-4.84998-4.74282-10.34786-8.9004-5.49788-4.19793-9.13973-7.24543-10.92566-9.14257-1.78594-1.89715-3.26544-4.52082-4.43855-7.8711-1.17312-3.35027-1.75967-7.62888-1.75967-12.83593 0-7.50785.83168-12.99738 2.49505-16.46875 1.66337-3.47137 4.35098-6.18587 8.06293-8.14356 3.71194-1.95769 8.19422-2.93652 13.44697-2.93652 5.743 0 10.63674 1.06965 14.68135 3.20898 4.04462 2.13934 6.72348 4.83365 8.03667 8.08301 1.31319 3.24937 1.96977 8.76917 1.96977 16.55957v3.875zm91.97517-29.66797l-9.82259 98.0254h-27.62932c-2.52132-15.05607-4.74495-32.17048-6.67096-51.34376-.87546 8.19405-2.924 25.30847-6.14568 51.34375H67.39068l-9.87512-98.02539H78.9992l2.25867 34.20899 2.3112 32.99804c.80542-17.0743 2.83645-39.47642 6.09315-67.20703h23.00693c.31516 2.8659 1.12057 13.64314 2.41625 32.33203l2.41625 37.23633c1.22564-23.69413 3.27419-46.88335 6.14569-69.56836h21.48363z"/><path fill="#000" d="M295.68626 38.3746v78.40821h13.44697V136.4h-35.56094V38.3746h22.11397zm18.80474 0h36.87412v19.6172h-14.76015v18.58789h13.81466v18.64844h-13.81466v21.55468h16.2309V136.4H314.491V38.3746z"/><path fill="#008DDF" d="M207.46975 103.69118c2.54912 9.51341 4.15935 16.30084 4.83075 20.3625.6714 4.06165.42267 8.00413-.74619 11.82758-1.16885 3.82344-3.26018 7.07914-6.27404 9.7672-3.01387 2.68805-6.83776 4.6529-11.4718 5.89458-4.39726 1.17824-8.56828 1.40787-12.51319.68888-3.9449-.71898-7.4268-2.45-10.44579-5.1931-3.01899-2.7431-5.25376-6.0097-6.70438-9.79988-1.45062-3.79018-3.4818-10.55884-6.09359-20.30618l-4.34078-16.20001c-2.5491-9.51342-4.15934-16.30085-4.83074-20.3625-.6714-4.06165-.42267-8.00414.74618-11.82758 1.16886-3.82345 3.26019-7.07915 6.27405-9.7672 3.01386-2.68806 6.83776-4.6529 11.4718-5.89458 4.39726-1.17825 8.56828-1.40787 12.51318-.68889 3.9449.71899 7.4268 2.45 10.4458 5.19311 3.01899 2.7431 5.25376 6.0097 6.70438 9.79987 1.45062 3.79018 3.4818 10.55884 6.09358 20.30619l4.34078 16.20001zM177.7725 78.30132c-1.18053-4.4058-2.14673-7.1661-2.89863-8.28097-.7519-1.11487-1.78742-1.49557-3.1066-1.1421-1.11623.2991-1.8371 1.02505-2.16264 2.1779-.32553 1.15283.16464 4.16604 1.47054 9.03971l11.84703 44.21375c1.47306 5.4975 2.57644 8.83742 3.31018 10.01984.73375 1.18242 1.81093 1.58329 3.23159 1.20263 1.45448-.38973 2.18616-1.37976 2.19507-2.97011.0089-1.59036-.7336-5.17323-2.22755-10.74871L177.7725 78.30132z"/><path fill="#008DDF" d="M254.27239 101.60976c-4.31752 8.85223-7.55522 15.03118-9.7132 18.53702-2.15796 3.50585-4.93218 6.3181-8.32274 8.43686-3.39055 2.11875-7.10483 3.20382-11.14294 3.25525-4.03811.05143-8.2131-.97439-12.52507-3.07748-4.09165-1.99563-7.3902-4.55877-9.89577-7.68948-2.50555-3.13072-3.99772-6.72146-4.47655-10.77235-.47882-4.05088-.02235-7.98235 1.36944-11.79452 1.39178-3.81218 4.29947-10.25312 8.72316-19.32303l7.35214-15.07411c4.31752-8.85223 7.55522-15.03118 9.71319-18.53702 2.15797-3.50585 4.93219-6.3181 8.32274-8.43686 3.39056-2.11875 7.10483-3.20382 11.14294-3.25525 4.03812-.05143 8.2131.97439 12.52507 3.07748 4.09166 1.99563 7.39021 4.55877 9.89577 7.68948 2.50556 3.13072 3.99773 6.72146 4.47656 10.77235.47882 4.05088.02235 7.98235-1.36944 11.79452-1.39178 3.81218-4.29948 10.25312-8.72317 19.32303l-7.35213 15.07411zm-5.75555-38.64512c1.9995-4.0996 3.08122-6.8167 3.24518-8.1514.16395-1.3347-.3678-2.30137-1.5953-2.90006-1.03865-.50659-2.05897-.43164-3.06099.22485-1.00201.65649-2.60892 3.25217-4.82076 7.78712l-20.06576 41.1409c-2.49496 5.11542-3.8534 8.35997-4.07538 9.73374-.22197 1.37376.328 2.383 1.64991 3.02774 1.3534.6601 2.55512.39294 3.60521-.80147 1.0501-1.19442 2.84029-4.38557 5.37064-9.57356l19.74725-40.48786z"/></g></svg>