<svg xmlns="http://www.w3.org/2000/svg" role="img" viewBox="-7.28 -7.28 378.56 141.56"><title>TarsJMeter logo</title><g data-name="图层 2"><path fill="#1649dc" d="M0 98.6q38.4-9 78.2-14.2c4.8-.6 9.6-1.2 14.5-1.7V32.1l20.2-.1a1.43 1.43 0 0 0 1.4-1.4V18.9a1.37 1.37 0 0 0-1.4-1.4l-54.9.1a1.43 1.43 0 0 0-1.4 1.4v11.6A1.37 1.37 0 0 0 58 32h20.2v43.4A514.39 514.39 0 0 0 0 98.6zm304.2-18.9a21 21 0 0 0 3.4-11.6 21.68 21.68 0 0 0-21.7-21.7h-14.3a7.2 7.2 0 0 1 0-14.4h25.7a2.9 2.9 0 0 0 2.9-2.9v-8.7a2.9 2.9 0 0 0-2.9-2.9h-25.6a21.74 21.74 0 0 0-21.2 26.3c2.1 10.2 11.7 17.1 22.1 17.1h13.5a7.2 7.2 0 0 1 0 14.4h-34.7a1.37 1.37 0 0 0-1.4 1.4v3.9c16.2 1.3 32.3 3.2 48.2 5.5 22.4 3.3 44.4 7.5 66.2 12.5a506.08 506.08 0 0 0-60.2-18.9zm-64 .2l-5.7-12.4-4.1-8.9a21.63 21.63 0 0 0-9.5-41.1h-32.3a1.54 1.54 0 0 0-1.5 1.5v45.8h-4.9c-2.5 0-5 0-7.5.1l-18.3-46.4a1.57 1.57 0 0 0-1.4-.9h-14.7a1.22 1.22 0 0 0-1.3.9l-19.9 50.1-4.7 12c5.4-.4 10.7-.9 16-1.2l5-12.6 10.8-27.5 1.4-3.6.8 2.1.6 1.4L159.2 65l5.1 12.8c5.1-.1 10.3-.2 15.4-.2h7.3c4.8 0 9.6 0 14.5.2V31.9h19.4a7.17 7.17 0 0 1 7.2 7.2 7.33 7.33 0 0 1-6.4 7.2h-10.8a1.43 1.43 0 0 0-1.4 1.4 1.27 1.27 0 0 0 .1.6l8.2 17.6 6 12.9c5.5.3 11 .6 16.4 1.1zm65.7-65.5h8.7a2.9 2.9 0 0 0 2.9-2.9V2.9a2.9 2.9 0 0 0-2.9-2.9h-8.7a2.9 2.9 0 0 0-2.9 2.9v8.7a2.88 2.88 0 0 0 2.9 2.8zM192.49 118.93v.82a.47.47 0 0 1-.13.32.43.43 0 0 1-.31.12h-9.35v-2.48h6.34v-.25a3.15 3.15 0 0 0-.66-2.36c-.79-.81-2.11-.81-3.52-.8h-.8c-1.62 0-2.52 0-3.32.89-.6.65-.65 1.32-.63 2.7v2.68a3.38 3.38 0 0 0 .69 2.73c.65.76 2.45.76 3.8.76h7.6v3h-8.11c-2.17 0-4.88 0-6-1.19-1.29-1.35-1.29-4-1.28-6.4V119c0-2.56.11-5 1.42-6.39 1.15-1.25 3.73-1.29 5.9-1.29h1.17c2.33 0 4.37 0 5.95 1.46 1.28 1.22 1.26 3.72 1.24 6.15zm31.51 0v.82a.49.49 0 0 1-.14.32.43.43 0 0 1-.31.12h-9.35v-2.48h6.34v-.25a3.11 3.11 0 0 0-.66-2.36c-.78-.81-2.1-.81-3.52-.8h-.8c-1.61 0-2.52 0-3.32.89-.6.65-.65 1.32-.63 2.7v2.68a3.46 3.46 0 0 0 .69 2.73c.65.76 2.45.76 3.8.76H223.7v3h-8.11c-2.16 0-4.88 0-6-1.19-1.29-1.35-1.29-4-1.28-6.4V119c0-2.56.11-5 1.41-6.39 1.16-1.25 3.74-1.29 5.9-1.29h1.17c2.34 0 4.37 0 6 1.46 1.28 1.22 1.26 3.72 1.21 6.15zm12.68-9.81v3.09c-1 0-3.36.26-4.7 1.5a5 5 0 0 0-1.45 3.92v9.43h-3.12v-9.43a8 8 0 0 1 2.48-6.25 9.85 9.85 0 0 1 6.55-2.26zm-108.96 17.94v-2.94h4.46a18.27 18.27 0 0 0 3.46-.25 3.54 3.54 0 0 0 1.81-.87 3.23 3.23 0 0 0 .84-1.78 22.34 22.34 0 0 0 .23-3.76V104h3.68v13.47a21.44 21.44 0 0 1-.4 5 5.8 5.8 0 0 1-2.39 3.21 7.17 7.17 0 0 1-2.72 1.12 25.92 25.92 0 0 1-4.51.29zM153 104l7.57 18.81 7-18.81H173v23.07h-3.58v-19.62l-7.19 19.61h-3.63l-7.44-19.61v19.61h-3.58V104zm44.8 6.21V104h3.35v6.22h4.91v2.65h-4.91v8.86a7.75 7.75 0 0 0 .1 1.53 1.14 1.14 0 0 0 .4.7 4.23 4.23 0 0 0 2.44.45h2v2.66h-3.24a10.48 10.48 0 0 1-2.46-.21 3 3 0 0 1-1.41-.79 3.29 3.29 0 0 1-.9-1.5 9.92 9.92 0 0 1-.25-2.56v-9.14h-3.21v-2.65z" data-name="图层 1"/></g></svg>