<svg xmlns="http://www.w3.org/2000/svg" role="img" xmlns:xlink="http://www.w3.org/1999/xlink" viewBox="-9.69 -9.69 503.88 142.88"><title>Unicom Digital Tech (collaborator) logo</title><defs><linearGradient id="未命名的渐变_8" x1="-647.03" x2="-645.38" y1="133.31" y2="133.31" gradientTransform="matrix(51.8 0 0 51.8 33901.09 -6841.5)" gradientUnits="userSpaceOnUse"><stop offset="0" stop-color="#00dfff"/><stop offset=".17" stop-color="#00d4ff"/><stop offset=".46" stop-color="#00b6ff"/><stop offset=".85" stop-color="#0085ff"/><stop offset="1" stop-color="#0070ff"/></linearGradient><linearGradient id="未命名的渐变_8-2" x1="-679.28" x2="-677.63" y1="126.81" y2="126.81" gradientTransform="rotate(180 -11185.77 2137.52) scale(33.61)" xlink:href="#未命名的渐变_8"/><linearGradient id="未命名的渐变_8-3" x1="-679.28" x2="-677.63" y1="126.02" y2="126.02" gradientTransform="rotate(180 -11185.77 2157.865) scale(33.61)" xlink:href="#未命名的渐变_8"/><linearGradient id="未命名的渐变_8-4" x1="-691.18" x2="-689.53" y1="124.05" y2="124.05" gradientTransform="rotate(180 -7142.475 1348.97) scale(21.37)" xlink:href="#未命名的渐变_8"/><linearGradient id="未命名的渐变_8-5" x1="-691.11" x2="-689.46" y1="123.75" y2="123.75" gradientTransform="rotate(180 -6858.32 1287.98) scale(20.43)" xlink:href="#未命名的渐变_8"/><linearGradient id="未命名的渐变_8-6" x1="-640.49" x2="-638.84" y1="127.6" y2="127.6" gradientTransform="rotate(20.38 1288.377 64201.418) scale(34.2)" xlink:href="#未命名的渐变_8"/><linearGradient id="未命名的渐变_8-7" x1="-672.74" x2="-671.08" y1="127.91" y2="127.91" gradientTransform="rotate(180 -16746.27 3244) scale(50.48)" xlink:href="#未命名的渐变_8"/><linearGradient id="未命名的渐变_8-8" x1="-675.79" x2="-674.14" y1="140.83" y2="140.83" gradientTransform="matrix(-33.58 11.54 10.92 31.78 -23790.14 3369.37)" xlink:href="#未命名的渐变_8"/><clipPath id="clip-path"><path d="M389.3 60.12a4 4 0 1 0 0 8h76.94a4 4 0 0 0 0-8z" class="cls-1"/></clipPath><clipPath id="clip-path-2"><path d="M403.5 9.73a4 4 0 0 0 0 8H452a4 4 0 1 0 0-8z" class="cls-1"/></clipPath><clipPath id="clip-path-3"><path d="M403.5 76.92a4 4 0 0 0 0 8H452a4 4 0 1 0 0-8z" class="cls-1"/></clipPath><clipPath id="clip-path-4"><path d="M452.66 43.32a4 4 0 0 0 0 8h27.95a4 4 0 1 0 0-8z" class="cls-1"/></clipPath><clipPath id="clip-path-5"><path d="M375.2 43.32a4 4 0 1 0 0 8h26.38a4 4 0 1 0 0-8z" class="cls-1"/></clipPath><clipPath id="clip-path-6"><path d="M385.52 29.22a4 4 0 0 0 2.48 5.07l48.93 16.82a4 4 0 0 0 2.6-7.55l-49-16.82a3.9 3.9 0 0 0-1.3-.22 4 4 0 0 0-3.77 2.7" class="cls-1"/></clipPath><clipPath id="clip-path-7"><path d="M389.3 26.52a4 4 0 1 0 0 8h76.94a4 4 0 0 0 0-8z" class="cls-1"/></clipPath><clipPath id="clip-path-8"><path d="M436.94 43.51L388 60.33a4 4 0 1 0 2.59 7.55l48.95-16.82a4 4 0 0 0-1.3-7.77 4.24 4.24 0 0 0-1.31.22" class="cls-1"/></clipPath><style>.cls-1{fill:none}.cls-3{fill:#231815}.cls-4{fill:#e60027}</style></defs><g id="图层_2" data-name="图层 2"><g id="图层_1-2" data-name="图层 1"><path fill="#9e9e9f" d="M242.6 64.28a2.6 2.6 0 0 1-2.71-2.64 2.72 2.72 0 0 1 2.76-2.79 2.72 2.72 0 1 1 0 5.43zm.51 58.8h-.91V82.65h.91zm0-82.75h-.91V0h.91z"/><path d="M30.19 102.05c-3.9 0-5.21 2.16-5.21 2.16l-.18-1.91h-3.54v16.36h4.09v-9.89c0-2.17 1.24-3.84 3.52-3.84 2.47 0 3.15 2.11 3.15 3.84v9.89h3.86v-9.61c0-5-2.73-6.92-5.69-7" class="cls-3"/><path d="M40.84 76.38A2.2 2.2 0 1 1 40.9 72a2.12 2.12 0 0 1 2.24 2.21 2.15 2.15 0 0 1-2.24 2.19zm0 24.2a2.13 2.13 0 0 1-2.21-2.14 2.21 2.21 0 0 1 2.27-2.27 2.21 2.21 0 1 1 0 4.41z" class="cls-4"/><path d="M99.26 102.13a7 7 0 0 0-5.57 2.56 4.91 4.91 0 0 0-4.27-2.56 5.78 5.78 0 0 0-5 2.12l-.16-2h-3.67v16.36h4.15v-9.81c0-2.13 1.12-3.83 3.27-3.83s2.85 2.12 2.85 3.83v9.86h3.77v-9.61c.05-2.78 1.3-4.08 3.21-4.08 2.21 0 2.87 2.12 2.87 3.83v9.86h3.77v-9.58c0-5-2.49-6.87-5.22-7" class="cls-3"/><path d="M38.96 102.3h3.85v16.36h-3.85z" class="cls-4"/><path d="M70.36 104.77a3.92 3.92 0 0 0-3.24 1.61 6.12 6.12 0 0 0-1.33 4.07 6.47 6.47 0 0 0 1.29 4.21 4 4 0 0 0 3.27 1.54 4 4 0 0 0 3.27-1.57 6.22 6.22 0 0 0 1.38-4.18 6.59 6.59 0 0 0-1.31-4.12 4.16 4.16 0 0 0-3.33-1.56m-.29-2.85a8.37 8.37 0 0 1 4.31 1.16 7.9 7.9 0 0 1 3.16 3.09 8.79 8.79 0 0 1 1.17 4.27 8.56 8.56 0 0 1-1.17 4.32 7.85 7.85 0 0 1-3.1 3.13 8.37 8.37 0 0 1-4.35 1.11 8 8 0 0 1-6-2.46 8.16 8.16 0 0 1-2.48-6.09 8.62 8.62 0 0 1 8.43-8.54m-8.7 13.55a7.67 7.67 0 0 1-2.74 2.47 8.75 8.75 0 0 1-4.42 1.15 8.41 8.41 0 0 1-6-2.5 8.09 8.09 0 0 1-2.55-6 8.3 8.3 0 0 1 2.85-6.37 8.43 8.43 0 0 1 5.7-2.21 8.76 8.76 0 0 1 4.37 1.17 8.32 8.32 0 0 1 2.76 2.43l-3.05 2.21a3.77 3.77 0 0 0-.75-1.19 4.17 4.17 0 0 0-6.47 0 5.76 5.76 0 0 0-1.32 4 5.85 5.85 0 0 0 1.32 4 4.2 4.2 0 0 0 6.43 0 4.36 4.36 0 0 0 .8-1.25zM75.05 90a4.6 4.6 0 0 1-3.56 1.46A4.48 4.48 0 0 1 68.1 90a5.31 5.31 0 0 1-1.3-3.77 5.11 5.11 0 0 1 1.32-3.64 4.42 4.42 0 0 1 3.43-1.5 4.47 4.47 0 0 1 3.5 1.5 5.11 5.11 0 0 1 1.38 3.71 5.37 5.37 0 0 1-1.38 3.7m1.12-11.9V80a7.38 7.38 0 0 0-5.37-2.33 7.61 7.61 0 0 0-5.8 2.45 8.56 8.56 0 0 0-2.33 6.1 8.75 8.75 0 0 0 2.33 6.2 7.82 7.82 0 0 0 11.13.25v1.75h4V78.14zm-54.88-7.33h4.18V80a5.89 5.89 0 0 1 4.72-2.12c2.95 0 5.7 2 5.7 7v9.66h-3.82v-10c0-1.71-.66-3.83-3.08-3.83s-3.52 1.73-3.52 3.83v10h-4.18V70.77zm-1.5 19.69a11 11 0 0 1-3.46 3.15A11.18 11.18 0 0 1 10.79 95a10.67 10.67 0 0 1-7.62-3.13A10.43 10.43 0 0 1 0 84.2a10.24 10.24 0 0 1 3.59-8 10.5 10.5 0 0 1 7.19-2.83 11.63 11.63 0 0 1 5.53 1.47A11 11 0 0 1 19.79 78l-3.53 2.55a5.67 5.67 0 0 0-1-1.65 5.77 5.77 0 0 0-4.51-2 5.66 5.66 0 0 0-4.45 2.08 7.74 7.74 0 0 0-1.81 5.22 8 8 0 0 0 1.79 5.42 5.58 5.58 0 0 0 4.45 2 5.75 5.75 0 0 0 4.51-2.06 8.73 8.73 0 0 0 1-1.66l3.53 2.55m35.34-12.57c-3.94-.09-5.19 2.12-5.19 2.12l-.2-1.91H46.2v16.4h4.08v-9.95a3.55 3.55 0 0 1 3.56-3.86c2.43 0 3.17 2.16 3.17 3.86v9.95h3.77v-9.64c0-5-2.71-7-5.67-7" class="cls-3"/><path d="M38.96 78.02h3.85v16.46h-3.85z" class="cls-4"/><path d="M9 118.87c3.91.06 5.2-2.12 5.2-2.12l.22 1.9H18V102.3h-4.17v9.93c0 2.11-1.19 3.85-3.54 3.85s-3.38-2.16-3.38-3.85v-9.93H2.76v9.6c0 5 3.28 6.94 6.24 7m173.76-16.23a13.57 13.57 0 0 0-3.06-3.13l-1.56 1.11 2.63 3.53zm12.79 4.41h-3.12v-1.33h3.12zm0 3.22h-3.12V109h3.12zm-5.79-3.22h-3.08v-1.33h3.08zm0 3.22h-3.08V109h3.08zm.92-7.27a19.58 19.58 0 0 0-2.7-1.48l-1 1.33 1 .91h-4v11.79h.81a1.77 1.77 0 0 0 1.87-1.76v-1.63h3.08v3.39h.86a1.67 1.67 0 0 0 1.81-1.79v-1.6h3.12v.81c0 .35-.45.6-.8.6h-1.21l.53 2H196a2.36 2.36 0 0 0 2.38-2.37v-7.79a1.64 1.64 0 0 0-1.62-1.62h-3.12l4.13-2.46V99.1h-13.93v1.9H194zm-7 13.48a1.3 1.3 0 0 1-1.29-1.3V105H178v2h1.48v9a2.49 2.49 0 0 0 2.38 2.46h16.87v-2h-15zM172 110h3.45v-2h-3.84v-3h3.84v-2H173l2.26-2.83-2.15-1.54-2.78 4.37h-2l1.66-1.2a28.16 28.16 0 0 0-2.62-3.17l-1.56 1 2 3.41h-2.5v2h3.29v3h-3.29v2h2.91l-3.42 8.82h1.46a2.15 2.15 0 0 0 1.89-1.25l2.11-5.25 2.88 6.5H176zm-10.78-1.5h-2.41v-2.4h2.41zm0 4.37l-2.41.66v-3h2.41zm4.12-1.14l-1.32.37v-11a1.77 1.77 0 0 0-1.68-2h-7v2h5.86v3h-2.41v-2h-2.63v12.19l-1.15.35v2.17l6.19-1.75v4h1.11c.86 0 1.45-.55 1.68-1.61v-3.15l1.32-.37v-2.21zm-40.02-1.54a1.27 1.27 0 0 1-1.28 1.27h-3.91v-8h5.19zm1.23-8.73h-6.42v-2.75h-3.38v2.75h-4.2v2h4.2v8h-5.2v-10h-3.37v12h8.58v5.68h.53c1.91-.08 2.77-.91 2.85-2.33v-3.35h5.67a2.91 2.91 0 0 0 2.88-2.78v-7.15a2.18 2.18 0 0 0-2.14-2m21.21 11.14h-1.5l1-1.26a15.54 15.54 0 0 0-2.35-1.81l-1.17 1.17 1.69 1.9h-2.3v-3.3h4.55v-2h-4.55V105h4.55v-2h-11.75v2H140v2.44h-4.11v2H140v3.3h-4.19v2h11.92v-2zm2-13.58h-13.92V101h13v14.3a1.24 1.24 0 0 1-1.25 1.25H134.8V99.09h-3.09v19.43h17.38a2.82 2.82 0 0 0 2.82-2.82v-14.49a2.13 2.13 0 0 0-2.15-2.12" class="cls-3"/><path d="M199.37 50.5a5.08 5.08 0 0 1-7.21 0l-3.6-3.6 3.6-3.6a5.1 5.1 0 0 1 7.21 0 5.12 5.12 0 0 1 0 7.2m6.85-14a14.78 14.78 0 0 0-20.93 0l-3.6 3.61-5.45-5.45-6.85 6.85 5.45 5.45-5.45 5.45 6.85 6.86 5.45-5.45 3.6 3.6a14.8 14.8 0 0 0 20.93-20.92m-99.94 10.4a5.1 5.1 0 0 1 8.72-3.6l3.6 3.6-3.6 3.6a5.1 5.1 0 0 1-8.71-3.6m-9.69 0a14.79 14.79 0 0 0 25.25 10.45l3.61-3.59 5.45 5.45 6.86-6.86-5.47-5.45 5.47-5.45-6.86-6.84-5.45 5.45-3.61-3.61A14.79 14.79 0 0 0 96.59 46.9" class="cls-4"/><path d="M171.24 78.63a5.1 5.1 0 0 1-7.21 0l-3.6-3.63 5.45-5.45-6.88-6.83-5.45 5.45-5.45-5.45-6.85 6.85 5.47 5.43-3.6 3.61a5.1 5.1 0 1 1-7.21-7.21l17.67-17.66 17.66 17.66a5.1 5.1 0 0 1 0 7.21M135.9 22.38a5.1 5.1 0 1 1 7.21-7.21l3.6 3.61-5.45 5.45 6.85 6.85 5.45-5.45 5.44 5.45 6.86-6.85-5.45-5.45 3.6-3.61a5.1 5.1 0 1 1 7.21 7.21l-17.65 17.67-17.67-17.67m24.52 24.52l17.68-17.67a14.79 14.79 0 0 0-20.92-20.92l-3.6 3.6-3.58-3.6a14.79 14.79 0 1 0-20.92 20.92l17.65 17.67-17.67 17.67A14.79 14.79 0 1 0 150 85.49c2.27-2.26 3.6-3.61 3.6-3.61s1.33 1.35 3.6 3.61a14.79 14.79 0 0 0 20.9-20.92L160.42 46.9m146.29 58.15a1.47 1.47 0 1 0 1.46 1.46 1.46 1.46 0 0 0-1.46-1.46m-1.16 3.76h2.39v10.05h-2.39z" class="cls-4"/><path d="M300.5 108.78v.93a4.65 4.65 0 0 0-2.62-1.16 5.4 5.4 0 0 0-5.8 5.36 5.27 5.27 0 0 0 5.25 5.39 5.07 5.07 0 0 0 .55 0 4.78 4.78 0 0 0 2.6-1.13c-.1 1.69-.74 2.76-1.91 3.22a5.19 5.19 0 0 1-4.87-1.15l-.24-.26-1.4 1.89.21.18a8 8 0 0 0 5 2 5.6 5.6 0 0 0 5.64-6v-9.26zm.16 5.71a3.87 3.87 0 0 1-.15.53 3.12 3.12 0 0 1-6.06-1.11 3.18 3.18 0 0 1 3.13-3.2 3.14 3.14 0 0 1 2.93 2.09 3.79 3.79 0 0 1 .14.53 3.17 3.17 0 0 1 .06.58 2.4 2.4 0 0 1-.05.58zm-20.37-9.42h-5v13.83h5a6.92 6.92 0 1 0 0-13.83zm0 11.34h-2.54v-8.85h2.54a4.43 4.43 0 1 1 0 8.85zm9.39-11.36a1.47 1.47 0 1 0 1.46 1.46 1.47 1.47 0 0 0-1.46-1.46zm-1.16 3.76h2.39v10.05h-2.39zm37.4.91a4.69 4.69 0 0 0-2.62-1.17 5.38 5.38 0 0 0-5.79 5.36 5.27 5.27 0 0 0 5.24 5.38h.55a4.82 4.82 0 0 0 2.62-1.14v.9h2.4v-10.27h-2.4v.94zm.1 4.19a4 4 0 0 1 0 .56 3.75 3.75 0 0 1-.15.52 3.08 3.08 0 1 1 0-2.15 3.55 3.55 0 0 1 .14.51 2.9 2.9 0 0 1-.01.56zM314 106.45h-2.31v2.67h-2.38v2.31h2.38v5a2.74 2.74 0 0 0 2.49 2.86 6.37 6.37 0 0 0 2.53-.27v-2.31a2.68 2.68 0 0 1-1.92.32 1 1 0 0 1-.8-1.17v-4.4h2.94v-2.31h-2.94v-2.67zm16.46-1.63h2.3v14.04h-2.3zm48.8 7.8a4.14 4.14 0 0 0-4.12-4 4.74 4.74 0 0 0-3 1.12v-4.67h-2.39v13.84h2.39v-5.65a2.38 2.38 0 0 1 2.37-2.38 2.24 2.24 0 0 1 2.39 2.36v5.66h2.39v-6.29zm-14.86-1.83a3.13 3.13 0 0 1 2.62 1.44l.17.28 1.65-1.66-.14-.18a5.39 5.39 0 1 0 0 6.49l.14-.18-1.65-1.66-.17.28a3.12 3.12 0 1 1-2.62-4.81zm-11.24-2.26a5.39 5.39 0 1 0 0 10.77 5.64 5.64 0 0 0 4.53-2.26l-1.57-1.58a3.42 3.42 0 0 1-3 1.69 2.78 2.78 0 0 1-3.07-2.47h8a6.31 6.31 0 0 0 .08-.76 5 5 0 0 0-4.97-5.39zm0 2.14a2.68 2.68 0 0 1 2.84 2.23h-5.82a3.22 3.22 0 0 1 2.99-2.23z" class="cls-3"/><path d="M349.76 107.14v-2.06h-10.59v2.06h4.1v11.62h2.48v-11.62h4.01zm43.1 4.59l-1.27.37v-10.69a1.74 1.74 0 0 0-1.64-2h-6.78v2h5.69v3h-2.33v-2H384v11.86l-1.13.35v2.11l6-1.7v3.89H390c.84 0 1.39-.53 1.64-1.56v-3.07l1.27-.37zm-4 1.11l-2.33.65v-3h2.33zm0-4.24h-2.33v-2.33h2.33z" class="cls-3"/><path d="M402.67 110.05v-1.93h-3.73v-2.91h3.73v-1.91h-2.44l2.19-2.77-2.09-1.53-2.7 4.26h-2l1.62-1.17a26.18 26.18 0 0 0-2.56-3.07l-1.52.94 2 3.32h-2.44v1.9h3.2v2.91h-3.2v1.93h2.83l-3.32 8.56h1.41a2.1 2.1 0 0 0 1.84-1.21l2.05-5.1 2.81 6.33h2.81l-3.83-8.6h3.34zm7.53 5.41v-9.89h-4.32v1.92h1.43v8.73a2.43 2.43 0 0 0 2.32 2.4H426v-1.91h-14.55a1.25 1.25 0 0 1-1.25-1.25z" class="cls-3"/><path d="M418.27 103.6a18.4 18.4 0 0 0-2.62-1.43l-1 1.29 1 .9h-3.89v11.47h.78a1.74 1.74 0 0 0 1.83-1.72v-1.58h3v3.3h.84a1.62 1.62 0 0 0 1.76-1.74v-1.56h3v.78c0 .35-.45.6-.78.6H421l.51 1.94h1.88a2.3 2.3 0 0 0 2.32-2.31V106a1.59 1.59 0 0 0-1.58-1.58h-3l4-2.4v-2.23h-13.52v1.88h9.89zm-.9 7.07h-3v-1.29h3zm0-3.11h-3v-1.29h3zm5.63 3.11h-3v-1.29h3zm0-4.4v1.29h-3v-1.29zm-12.43-3.01a13.2 13.2 0 0 0-3-3.05l-1.52 1.08 2.56 3.42zm60.78 8.39V98.9h-2.87v12.75h-5.42v1.9h5.42v5l1.19.12a1.71 1.71 0 0 0 1.68-1.8v-3.27H473v-1.9z" class="cls-3"/><path d="M467.9 102.8l-4.83-1.33v1.88l4.83 1.32v-1.87zm0 5l-4.83-1.33v1.88l4.83 1.32v-1.87zm-8-1.3h2.1v12.12h-2.1zm-7.03 12.12H455a91.22 91.22 0 0 0 .74-12.11h-2.09a96.47 96.47 0 0 1-.78 12.11z" class="cls-3"/><path d="M459 101.17l3.13-.17v-2l-8.89.53v2l3.15-.2v2.07h-3.44v1.94h3.44v13.2l1.08-.05a1.54 1.54 0 0 0 1.52-1.6v-11.55h3.44v-1.94H459v-2.23zm-18.21-1.64l-2.17-.53c-.41 1.45-.94 3-1.08 3.34l2.07.59c.1-.23.75-1.93 1.18-3.4zm-6.95 2.61a28.65 28.65 0 0 0-1.9-3.12l-1.72.82c.57 1 1.45 2.92 1.57 3.22z" class="cls-3"/><path d="M432 109.27a29.41 29.41 0 0 0 2.34-3.9v3.92h1.08a1.52 1.52 0 0 0 1.52-1.52v-2.65c.68 1.28 2 4 2.09 4.28l2-1c-.13-.23-1.22-2.08-2.08-3.47h1.7v-1.78h-3.75V99h-2.6v4.16h-4.08V105h2.17a26.13 26.13 0 0 1-2.22 3zm7.7 3.17h1.76v-1.78h-1.68v-1h-2.4v1h-3.33v-1h-2.4v1H430v1.78h1.72a4.12 4.12 0 0 0 1.39 3.17c-.76.23-1.65.48-2.71.78v2.23c2.28-.71 4-1.22 5.3-1.69 1.31.48 3 1 5.3 1.69v-2.23c-1.06-.3-1.95-.55-2.71-.78a4.1 4.1 0 0 0 1.41-3.17zm-4 2.23a2.55 2.55 0 0 1-1.58-2.24h3.16a2.51 2.51 0 0 1-1.56 2.24z" class="cls-3"/><path d="M449.14 103.32h.8v-1.78h-5.85c.38-1.21.8-2.45.8-2.45h-2.61c-.51 1.5-1.28 4-1.28 4l-.06.19h5.74a45.46 45.46 0 0 1-1.42 5.76 34.56 34.56 0 0 1-1.56-4.66h-2.5a45.38 45.38 0 0 0 2.91 8 59.8 59.8 0 0 1-2.77 6.21H443a1.65 1.65 0 0 0 1.53-1c.25-.58.6-1.38 1-2.34 1 2 1.78 3.34 1.78 3.34H450a68.7 68.7 0 0 1-3.39-6.35 52.62 52.62 0 0 0 2.53-8.92z" class="cls-3"/><path d="M306.68 77.76a1.81 1.81 0 1 0 1.81 1.8 1.81 1.81 0 0 0-1.81-1.8m-1.43 4.63h2.94v12.4h-2.94z" class="cls-4"/><path d="M329.16 82.05a6.65 6.65 0 1 0 6.65 6.65 6.65 6.65 0 0 0-6.65-6.65zm0 10.79a4.16 4.16 0 1 1 3.84-4.15 4 4 0 0 1-3.84 4.15zm21.65-10.71a5.21 5.21 0 0 0-4 1.85 4.42 4.42 0 0 0-3.58-1.85 4.86 4.86 0 0 0-3.19 1.24v-.87h-2.94v12.28h2.94v-7.3a2.52 2.52 0 0 1 2.48-2.57c1.48 0 2.33 1 2.34 2.7v7.16h3V87a2.26 2.26 0 0 1 2.24-2.12c1.48 0 2.33 1 2.33 2.7v7.16h2.95V87a4.74 4.74 0 0 0-4.57-4.87z" class="cls-3"/><path d="M316.75 84.84a3.8 3.8 0 0 1 3.25 1.78l.22.34 2-2-.16-.22a6.65 6.65 0 1 0 0 8l.16-.23-2-2-.22.34a3.84 3.84 0 1 1-3.22-5.92zM302.81 87a5.1 5.1 0 0 0-5.08-4.91 5.81 5.81 0 0 0-3.73 1.42v-1h-2.95v12.28H294v-7a2.92 2.92 0 0 1 2.91-2.92 2.74 2.74 0 0 1 2.94 2.91v7h2.94V87zm-17.17 1.74a3.6 3.6 0 1 1-7.2 0v-11h-3.17v11.69c0 3.44 3.3 6.08 6.77 6.08s6.76-2.61 6.76-6.08V77.76h-3.17v11z" class="cls-3"/><g clip-path="url(#clip-path)"><path fill="url(#未命名的渐变_8)" d="M385.3 60.12h84.92v7.99H385.3z"/></g><g clip-path="url(#clip-path-2)"><path fill="url(#未命名的渐变_8-2)" d="M399.51 9.73h56.53v7.98h-56.53z"/></g><g clip-path="url(#clip-path-3)"><path fill="url(#未命名的渐变_8-3)" d="M399.51 76.92h56.53v7.98h-56.53z"/></g><g clip-path="url(#clip-path-4)"><path fill="url(#未命名的渐变_8-4)" d="M448.66 43.32h35.95v7.99h-35.95z"/></g><g clip-path="url(#clip-path-5)"><path fill="url(#未命名的渐变_8-5)" d="M371.2 43.32h34.37v7.99H371.2z"/></g><g clip-path="url(#clip-path-6)"><path fill="url(#未命名的渐变_8-6)" d="M391.83 7.61l59.16 21.98-15.29 41.15-59.16-21.98 15.29-41.15z"/></g><g clip-path="url(#clip-path-7)"><path fill="url(#未命名的渐变_8-7)" d="M385.3 26.52h84.92v7.99H385.3z"/></g><g clip-path="url(#clip-path-8)"><path fill="url(#未命名的渐变_8-8)" d="M436.61 25.5l-59.58 20.47 13.9 40.43 59.58-20.47-13.9-40.43z"/></g></g></g></svg>