<?xml version="1.0" encoding="utf-8"?>
<!-- Generator: Adobe Illustrator 26.0.3, SVG Export Plug-In . SVG Version: 6.00 Build 0)  -->
<svg version="1.1" id="图层_1" xmlns="http://www.w3.org/2000/svg" xmlns:xlink="http://www.w3.org/1999/xlink" x="0px" y="0px"
	 viewBox="0 0 365 138" style="enable-background:new 0 0 365 138;" xml:space="preserve">
<style type="text/css">
	.st0{fill:#009ADE;}
	.st1{fill:#CAE7FC;}
	.st2{fill:none;}
	.st3{clip-path:url(#SVGID_00000078762979530245265310000008166973235277943939_);fill:#009ADE;}
	.st4{clip-path:url(#SVGID_00000176735535410383794100000017193886941459646336_);fill:#009ADE;}
	.st5{clip-path:url(#SVGID_00000043439938820230869030000004808101946464696491_);fill:#009ADE;}
	.st6{display:none;fill:#CAE7FC;}
	.st7{fill:#00B34E;}
	.st8{fill:#FFCB00;}
	.st9{display:none;fill:#00B34E;}
	.st10{display:none;}
	.st11{display:inline;}
	.st12{display:inline;fill:#009ADE;}
</style>
<path class="st0" d="M73.6,83.9c-0.6,4.4-1.4,8.6-2.5,12.5c1.8,0.2,3.4,0.3,5,0.3c6.1,0,10.5-1.6,12.2-4.6c2.1-3.7,0.4-9.9-4.7-16.8
	C80.7,78.3,77.3,81.1,73.6,83.9"/>
<path d="M37.4,91.2c-1.3-0.7-2.5-1.5-3.8-2.3c0.4,2,0.9,4,1.4,5.8c1.9-0.4,3.8-1,5.8-1.6C39.7,92.5,38.6,91.9,37.4,91.2"/>
<path class="st0" d="M15.8,74.7c-0.1,0.1-0.2,0.2-0.3,0.4c-5,6.7-6.8,12.6-4.7,16.3c2,3.7,8,5.4,16.3,4.7c0.4,0,0.8-0.1,1.2-0.1
	c-1.1-3.8-1.9-8-2.4-12.3C22.2,80.7,18.8,77.7,15.8,74.7"/>
<path class="st0" d="M62.2,38.4c-3.5-8.3-8.1-13.1-12.5-13.1c-4.3,0-8.9,4.7-12.3,12.8c4.1,1,8.3,2.5,12.6,4.3
	C54.2,40.7,58.3,39.4,62.2,38.4"/>
<path d="M41.3,46.3c-2.1-0.7-4.2-1.3-6.2-1.8c-0.6,1.9-1.1,3.9-1.5,6c1.3-0.8,2.7-1.6,4.1-2.4C39,47.5,40.1,46.9,41.3,46.3"/>
<path d="M62.1,48.4c1.3,0.7,2.5,1.5,3.8,2.3c-0.4-2-0.9-4-1.4-5.8c-1.9,0.4-3.8,0.9-5.8,1.6C59.8,47.1,61,47.7,62.1,48.4"/>
<path d="M11.2,47.5c-2.1,3.7-0.4,9.9,4.7,16.8c3-3,6.3-5.8,10-8.6c0.6-4.4,1.4-8.6,2.5-12.5c-1.8-0.2-3.4-0.3-5-0.3
	C17.3,42.9,12.9,44.6,11.2,47.5"/>
<path d="M58.2,93.3c2.1,0.7,4.2,1.3,6.2,1.8c0.6-1.9,1.1-3.9,1.5-6c-1.3,0.8-2.7,1.6-4.1,2.4C60.6,92.1,59.4,92.7,58.2,93.3"/>
<path d="M79.2,70.1c-1.5-1.5-3.1-3.1-4.8-4.7c0.1,1.4,0.1,2.9,0.1,4.4c0,1.6,0,3.2-0.1,4.8C76.2,73.1,77.8,71.6,79.2,70.1"/>
<path d="M88.7,48.3c-1.7-3.1-6.3-4.8-12.8-4.8c-1.5,0-3,0.1-4.7,0.3c1.1,3.8,1.9,8,2.4,12.3c3.7,2.8,7.1,5.8,10.1,8.9
	C89,58.2,90.8,52,88.7,48.3"/>
<path d="M20.3,69.5c1.5,1.5,3.1,3.1,4.8,4.7C25,72.7,25,71.3,25,69.8c0-1.6,0-3.2,0.1-4.8C23.4,66.5,21.8,68,20.3,69.5"/>
<path class="st1" d="M67.7,69.8c0,3.6-0.2,7-0.5,10.3c-0.2,0.1-0.4,0.3-0.6,0.4c-2.5,1.7-5.3,3.4-8.2,5c-3,1.6-5.9,3.1-8.9,4.4
	c-2.9-1.3-5.8-2.8-8.8-4.5c-0.1-0.1-0.3-0.2-0.4-0.2c-2.9-1.7-5.6-3.4-8.1-5.2c-0.3-3-0.5-6.2-0.5-9.5c0-0.2,0-0.4,0-0.6
	c0-3.6,0.2-7,0.5-10.3c2.8-1.9,5.7-3.7,8.8-5.4c3-1.7,6-3.1,8.9-4.4c2.9,1.3,5.8,2.8,8.8,4.5c3,1.7,5.9,3.6,8.5,5.5
	C67.6,62.9,67.7,66.3,67.7,69.8z"/>
<path d="M44.2,99.2c-2.3,0.8-4.7,1.4-6.9,2c3.5,8.3,8.1,13.1,12.5,13.1c4.3,0,8.9-4.7,12.3-12.8c-4.1-1-8.3-2.5-12.6-4.3
	C47.7,98,46,98.6,44.2,99.2"/>
<rect x="-79.7" y="-117.1" class="st2" width="569" height="736.4"/>
<polygon points="151.4,67.2 142.1,67.2 125.3,39.3 125.3,67.2 115.9,67.2 115.9,23.9 125.3,23.9 142.1,51.8 142.1,23.9 151.4,23.9 
	"/>
<rect x="-79.7" y="-117.1" class="st2" width="569" height="736.4"/>
<path d="M169.8,67.8c-3.4,0-6.3-0.7-8.7-2.1c-2.4-1.4-4.3-3.3-5.5-5.7c-1.3-2.4-1.9-5-1.9-7.8V51c0-3.2,0.6-6.1,1.8-8.6
	c1.2-2.5,3-4.5,5.2-5.9c2.3-1.4,5-2.1,8.1-2.1c3.1,0,5.7,0.7,7.9,2c2.1,1.3,3.7,3.2,4.8,5.5c1.1,2.4,1.6,5.2,1.6,8.3V54h-25.7v-6
	h16.9v-0.7c0-1.1-0.2-2.1-0.6-2.9c-0.4-0.9-1-1.5-1.8-2c-0.8-0.5-1.9-0.7-3.1-0.7c-1.5,0-2.6,0.4-3.5,1.3c-0.9,0.8-1.5,2-2,3.4
	c-0.4,1.4-0.6,3-0.6,4.8v1.2c0,1.6,0.3,3.1,0.9,4.4c0.6,1.2,1.5,2.2,2.6,2.9c1.2,0.7,2.5,1.1,4.2,1.1c1.5,0,3-0.3,4.3-0.8
	s2.5-1.5,3.4-2.7l4.4,5c-1,1.5-2.6,2.8-4.7,4C175.6,67.2,173,67.8,169.8,67.8"/>
<rect x="-79.7" y="-117.1" class="st2" width="569" height="736.4"/>
<polygon points="197.8,44.3 203,35 212.6,35 203.6,50.7 213,67.2 203.4,67.2 197.8,57.3 192.4,67.2 182.7,67.2 192.1,50.7 183.1,35 
	192.8,35 "/>
<rect x="-79.7" y="-117.1" class="st2" width="569" height="736.4"/>
<path d="M232.6,41.5h-19V35h19V41.5z M227.2,27v30.1c0,0.9,0.1,1.5,0.3,2c0.2,0.5,0.6,0.8,1.1,1s1.1,0.3,1.9,0.3c0.5,0,1,0,1.4-0.1
	c0.4,0,0.8-0.1,1.1-0.1l0,6.8c-0.7,0.3-1.5,0.5-2.4,0.6s-1.8,0.2-2.9,0.2c-1.9,0-3.6-0.3-5-1c-1.4-0.6-2.5-1.7-3.3-3.1
	c-0.8-1.4-1.1-3.3-1.1-5.6V27H227.2z"/>
<path class="st0" d="M244.1,67.2h-10l16.1-43.4h6.3l-0.9,8.2L244.1,67.2z M264.9,58.6h-23V51h23V58.6z M253.6,32.1l-1-8.2h6.3
	l16.2,43.4h-10L253.6,32.1z"/>
<g>
	<defs>
		<rect id="SVGID_1_" x="-79.7" y="-117.1" width="569" height="736.4"/>
	</defs>
	<clipPath id="SVGID_00000011726783470005645510000016948623042596253107_">
		<use xlink:href="#SVGID_1_"  style="overflow:visible;"/>
	</clipPath>
	<path style="clip-path:url(#SVGID_00000011726783470005645510000016948623042596253107_);fill:#009ADE;" d="M286.2,67.2h-9V35h8.5
		l0.5,7.4L286.2,67.2L286.2,67.2z M295.7,43.4c-0.4-0.1-0.9-0.1-1.6-0.2c-0.6,0-1.1-0.1-1.6-0.1c-1.6,0-2.9,0.2-3.9,0.7
		c-1,0.5-1.8,1.2-2.3,2.2c-0.5,0.9-0.8,2.1-0.8,3.5l-1.8-0.8c0-2.8,0.4-5.3,1.1-7.5c0.7-2.2,1.8-3.9,3.2-5.1
		c1.4-1.2,3.1-1.9,5.1-1.9c0.5,0,0.9,0,1.4,0.1c0.5,0.1,0.9,0.2,1.2,0.3L295.7,43.4z"/>
</g>
<g>
	<defs>
		<rect id="SVGID_00000147934500628061746770000018040831224512575379_" x="-79.7" y="-117.1" width="569" height="736.4"/>
	</defs>
	<clipPath id="SVGID_00000003798156081954156260000002131584698755552145_">
		<use xlink:href="#SVGID_00000147934500628061746770000018040831224512575379_"  style="overflow:visible;"/>
	</clipPath>
	<path style="clip-path:url(#SVGID_00000003798156081954156260000002131584698755552145_);fill:#009ADE;" d="M311.8,60.6
		c1,0,1.9-0.2,2.7-0.6c0.8-0.4,1.4-0.9,1.8-1.6c0.4-0.7,0.7-1.5,0.7-2.5h8.5c0,2.3-0.6,4.4-1.8,6.2c-1.2,1.8-2.8,3.2-4.8,4.2
		c-2,1-4.3,1.5-6.8,1.5c-3.3,0-6.1-0.7-8.3-2.2s-3.9-3.4-5-5.9c-1.1-2.5-1.7-5.2-1.7-8.2v-0.8c0-3.1,0.5-5.8,1.7-8.3
		c1.1-2.5,2.8-4.4,5-5.9c2.2-1.5,5-2.2,8.3-2.2c2.7,0,5,0.5,7,1.5c2,1,3.6,2.5,4.7,4.4c1.1,1.9,1.7,4.2,1.7,6.8H317
		c0-1-0.2-1.9-0.6-2.8c-0.4-0.8-1-1.5-1.7-2c-0.8-0.5-1.7-0.7-2.9-0.7c-1.6,0-2.8,0.4-3.6,1.3c-0.8,0.9-1.4,2-1.7,3.3
		c-0.3,1.4-0.4,2.9-0.4,4.5v0.8c0,1.6,0.1,3.1,0.4,4.5c0.3,1.4,0.9,2.5,1.7,3.3C309,60.2,310.2,60.6,311.8,60.6"/>
</g>
<g>
	<defs>
		<rect id="SVGID_00000053523129185988570840000017071119823775536016_" x="-79.7" y="-117.1" width="569" height="736.4"/>
	</defs>
	<clipPath id="SVGID_00000079478763320028966990000002934363559978822563_">
		<use xlink:href="#SVGID_00000053523129185988570840000017071119823775536016_"  style="overflow:visible;"/>
	</clipPath>
	<path style="clip-path:url(#SVGID_00000079478763320028966990000002934363559978822563_);fill:#009ADE;" d="M337.8,67.2h-9V21.5h9
		V67.2z M334.1,50.1c0-3.1,0.5-5.8,1.5-8.1c1-2.4,2.4-4.2,4.2-5.6c1.8-1.4,4-2,6.4-2c2.1,0,4,0.4,5.6,1.2c1.6,0.8,2.8,2.2,3.8,4
		c0.9,1.8,1.4,4.3,1.4,7.4v20.2h-9V46.9c0-1.3-0.2-2.4-0.6-3.2c-0.4-0.8-0.9-1.3-1.7-1.6c-0.7-0.3-1.7-0.5-2.7-0.5
		c-1.2,0-2.2,0.2-3,0.6c-0.8,0.4-1.5,1-2,1.7c-0.5,0.8-0.9,1.6-1.1,2.7c-0.2,1-0.3,2.1-0.3,3.3L334.1,50.1z"/>
</g>
<polygon class="st6" points="79.2,70.1 67.9,89.1 66.6,91.3 64.4,95.1 35,94.7 30.1,86.3 23.8,75.6 20.3,69.5 35.1,44.5 64.5,44.9 
	"/>
<path class="st7" d="M47.9,78.7L46,80.3l-3.9,3.3l0,0l-1.8,1.5c-2.9-1.7-5.6-3.4-8.1-5.2c-0.3-3-0.5-6.2-0.5-9.5l3.4-2.8
	c0.2-0.2,0.6-0.2,0.8,0L47.9,78.7z"/>
<path class="st7" d="M66.7,80.5c-2.5,1.7-5.3,3.4-8.2,5c-3,1.6-5.9,3.1-8.9,4.4c-2.9-1.3-5.8-2.8-8.8-4.5c-0.1-0.1-0.3-0.2-0.4-0.2
	l1.8-1.5l0,0l3.9-3.3l1.9-1.6l0,0l7.9-6.8c0.2-0.2,0.5-0.2,0.8,0L66.7,80.5z"/>
<circle class="st8" cx="54.9" cy="59" r="5"/>
<polygon class="st9" points="35,94.7 64.4,95.1 72.5,81.4 43.1,84.5 29.7,85.5 "/>
<rect x="-203" y="-435.1" class="st2" width="937" height="1212.6"/>
<g class="st10">
	<path class="st11" d="M37.4-146.1c-1.3-0.7-2.5-1.5-3.8-2.3c0.4,2,0.9,4,1.4,5.8c1.9-0.4,3.8-1,5.8-1.6
		C39.7-144.8,38.6-145.4,37.4-146.1"/>
	<path class="st11" d="M41.3-191c-2.1-0.7-4.2-1.3-6.2-1.8c-0.6,1.9-1.1,3.9-1.5,6c1.3-0.8,2.7-1.6,4.1-2.4
		C39-189.8,40.1-190.5,41.3-191"/>
	<path class="st11" d="M62.1-189c1.3,0.7,2.5,1.5,3.8,2.3c-0.4-2-0.9-4-1.4-5.8c-1.9,0.4-3.8,0.9-5.8,1.6
		C59.8-190.3,61-189.6,62.1-189"/>
	<path class="st11" d="M58.2-144c2.1,0.7,4.2,1.3,6.2,1.8c0.6-1.9,1.1-3.9,1.5-6c-1.3,0.8-2.7,1.6-4.1,2.4
		C60.6-145.2,59.4-144.6,58.2-144"/>
	<path class="st11" d="M79.2-167.2c-1.5-1.5-3.1-3.1-4.8-4.7c0.1,1.4,0.1,2.9,0.1,4.4c0,1.6,0,3.2-0.1,4.8
		C76.2-164.2,77.8-165.8,79.2-167.2"/>
	<path class="st11" d="M20.3-167.8c1.5,1.5,3.1,3.1,4.8,4.7c-0.1-1.4-0.1-2.9-0.1-4.4c0-1.6,0-3.2,0.1-4.8
		C23.4-170.8,21.8-169.3,20.3-167.8"/>
	<path class="st12" d="M58.7-183.1c-3-1.7-5.9-3.2-8.8-4.5c-2.9,1.3-5.9,2.7-8.9,4.4c-3.1,1.7-6,3.5-8.8,5.4
		c-0.3,3.3-0.5,6.7-0.5,10.3c0,3.5,0.2,6.9,0.5,10.1c2.6,1.9,5.5,3.7,8.5,5.5c3,1.7,5.9,3.2,8.8,4.5c3-1.3,5.9-2.7,8.9-4.4
		c3.1-1.7,6.1-3.6,8.8-5.4c0.3-3.3,0.5-6.7,0.5-10.3c0-3.5-0.2-6.9-0.5-10.1C64.6-179.5,61.8-181.3,58.7-183.1"/>
</g>
<g>
	<path d="M116.2,114.3V81h4.5v29.4H137v3.9L116.2,114.3z"/>
	<path d="M159.7,111.3c-1.3,1.1-2.8,2.1-4.3,2.8c-1.4,0.5-3,0.8-4.5,0.8c-2.2,0.1-4.4-0.6-6.1-2c-1.4-1.2-2.2-3-2.2-4.9
		c0-1.1,0.2-2.3,0.7-3.3c0.5-0.9,1.2-1.7,2.1-2.4c0.9-0.6,1.9-1,3-1.4c1.3-0.3,2.6-0.4,3.8-0.5c2.5-0.3,4.9-0.7,7.3-1.4V98
		c0.1-1.3-0.3-2.6-1.2-3.6c-1.3-1-3-1.5-4.6-1.4c-1.5-0.1-3,0.2-4.2,1c-1.1,0.9-1.8,2.2-2.1,3.6l-4-0.7c0.3-1.5,0.9-2.9,1.8-4.1
		c1-1.2,2.2-2,3.7-2.5c1.7-0.6,3.6-0.9,5.4-0.9c1.7-0.1,3.4,0.2,5,0.7c1.1,0.3,2.1,1,3,1.8c0.6,0.8,1.1,1.8,1.3,2.8
		c0.1,1.2,0.2,2.5,0.2,3.8v5.4c-0.1,2.4,0,4.8,0.3,7.2c0.2,1,0.5,2,1,3h-4.3C160,113.2,159.8,112.3,159.7,111.3z M159.4,102.2
		c-2.2,0.7-4.4,1.3-6.7,1.6c-1.2,0.1-2.4,0.4-3.6,0.8c-0.6,0.3-1.2,0.7-1.6,1.3c-0.4,0.6-0.6,1.3-0.6,2c0,1.1,0.5,2.1,1.3,2.8
		c1.1,0.8,2.3,1.1,3.6,1.1c1.5,0,2.9-0.3,4.3-1c1.2-0.7,2.1-1.7,2.7-3c0.5-1.3,0.7-2.7,0.7-4.1L159.4,102.2L159.4,102.2z"/>
	<path d="M172.2,114.3V90.2h3.6v3.5c1.7-2.6,4.6-4.1,7.7-4c1.4,0,2.8,0.3,4.1,0.8c1.1,0.4,2.1,1.1,2.8,2.1c0.6,0.9,1,1.9,1.3,3
		c0.2,1.3,0.3,2.6,0.2,4v14.8h-4V99.8c0-1.3-0.1-2.5-0.5-3.8c-0.3-0.8-0.9-1.5-1.7-2c-0.9-0.5-1.9-0.7-3-0.7c-1.7,0-3.3,0.6-4.5,1.7
		c-1.5,1.7-2.2,4-1.9,6.3v13.1h-4.1L172.2,114.3z"/>
	<path d="M216,114.3v-3c-1.4,2.3-4,3.7-6.7,3.6c-1.9,0-3.8-0.5-5.4-1.6c-1.6-1.1-2.9-2.6-3.7-4.4c-0.9-2-1.4-4.3-1.3-6.5
		c0-2.2,0.4-4.4,1.2-6.5c0.7-1.9,2-3.5,3.7-4.6c1.6-1.1,3.4-1.6,5.3-1.6c2.6-0.1,5.1,1.2,6.6,3.3V81.1h4v33.1L216,114.3L216,114.3z
		 M203.1,102.2c-0.2,2.5,0.5,4.9,2,6.9c1.1,1.4,2.8,2.2,4.6,2.2c1.7,0,3.4-0.7,4.5-2c1.4-1.9,2.1-4.3,1.9-6.7
		c0.2-2.6-0.4-5.1-1.9-7.3c-1.1-1.5-2.9-2.3-4.7-2.3c-1.8,0-3.5,0.8-4.6,2.3C203.6,97.4,202.9,99.8,203.1,102.2z"/>
	<path d="M226.9,107.1l4.1-0.6c0.1,1.4,0.8,2.8,1.9,3.8c1.2,0.9,2.8,1.4,4.3,1.3c1.5,0.1,2.9-0.3,4.1-1.2c0.8-0.6,1.3-1.6,1.4-2.7
		c0-0.9-0.4-1.7-1.2-2.2c-1.3-0.6-2.7-1.1-4.1-1.4c-2.1-0.5-4.2-1.1-6.2-2c-2.2-0.9-3.6-3.1-3.6-5.5c0-1,0.2-2.1,0.7-3
		c0.5-0.9,1.2-1.7,2-2.3c0.8-0.6,1.6-1,2.5-1.2c1.2-0.3,2.4-0.5,3.6-0.5c1.7,0,3.4,0.2,4.9,0.8c2.6,0.8,4.5,3.2,4.6,5.9l-4,0.6
		c-0.1-1.2-0.7-2.2-1.6-3c-1.1-0.8-2.4-1.1-3.7-1.1c-1.4-0.1-2.8,0.2-4,0.9c-0.7,0.5-1.2,1.3-1.2,2.2c0,0.5,0.2,1.1,0.5,1.5
		c0.4,0.5,1,0.8,1.6,1.1c1.2,0.4,2.4,0.8,3.6,1.1c2,0.5,4,1.1,5.9,1.9c1.1,0.4,2,1.2,2.7,2.2c0.7,1,1,2.2,1,3.5
		c0,1.4-0.4,2.7-1.2,3.8c-0.8,1.3-2.1,2.2-3.5,2.8c-1.6,0.7-3.3,1.1-5,1c-2.5,0.2-5.1-0.5-7.2-2
		C228.2,111.4,227.1,109.3,226.9,107.1z"/>
	<path d="M269.8,105.5l4,0.5c-0.3,2.5-1.5,4.8-3.3,6.5c-1.8,1.6-4.2,2.4-6.6,2.4c-3,0.1-5.9-1.1-8-3.3c-2.1-2.6-3.2-5.9-3-9.3
		c-0.1-2.3,0.4-4.7,1.3-6.8c0.8-1.9,2.2-3.4,4-4.3c1.7-1,3.7-1.5,5.7-1.5c2.3-0.1,4.6,0.6,6.4,2c1.8,1.4,2.9,3.4,3.2,5.6l-3.9,0.6
		c-0.3-1.4-1-2.6-2-3.6c-1-0.8-2.2-1.2-3.5-1.2c-1.9-0.1-3.8,0.7-5,2.2c-1.5,2-2.2,4.5-2,7c-0.2,2.5,0.4,5,1.9,7
		c1.2,1.4,3,2.2,4.9,2.2c1.5,0,2.9-0.5,4.1-1.5C269,108.8,269.7,107.2,269.8,105.5z"/>
	<path d="M295.3,111.3c-1.3,1.1-2.8,2.1-4.3,2.8c-1.4,0.6-3,0.9-4.5,0.8c-2.2,0.1-4.4-0.6-6.1-2c-1.4-1.2-2.2-3-2.2-4.9
		c0-1.1,0.3-2.3,0.8-3.3c0.5-0.9,1.2-1.7,2.1-2.4c0.9-0.6,1.9-1,3-1.4c1.2-0.3,2.4-0.5,3.7-0.6c2.5-0.3,4.9-0.7,7.3-1.4v-1.1
		c0.1-1.3-0.3-2.6-1.2-3.6c-1.3-1-3-1.5-4.6-1.4c-1.5-0.1-3,0.2-4.3,1c-1,0.9-1.8,2.2-2.1,3.6l-3.9-0.6c0.3-1.5,0.9-2.9,1.8-4.1
		c0.9-1.2,2.2-2,3.6-2.5c1.7-0.6,3.6-0.9,5.4-0.9c1.7-0.1,3.4,0.2,5,0.7c1.1,0.4,2.1,1,3,1.8c0.6,0.8,1,1.8,1.3,2.8
		c0.2,1.2,0.2,2.5,0.2,3.8v5.4c-0.1,2.4,0,4.8,0.3,7.2c0.2,1,0.5,2,1,3h-4.2C295.7,113.2,295.4,112.3,295.3,111.3z M295,102.2
		c-2.2,0.7-4.4,1.3-6.7,1.6c-1.2,0.1-2.4,0.4-3.6,0.8c-0.6,0.3-1.2,0.7-1.6,1.3c-0.4,0.6-0.6,1.3-0.6,2c0,1.1,0.4,2.1,1.3,2.8
		c1,0.8,2.3,1.2,3.6,1.1c1.5,0,2.9-0.3,4.3-1c1.2-0.7,2.1-1.7,2.7-3c0.5-1.3,0.7-2.7,0.7-4.1L295,102.2L295,102.2z"/>
	<path d="M307.8,123.6V90.2h3.8v3.2c0.8-1.1,1.8-2.1,3-2.8c1.2-0.6,2.6-0.9,4-0.9c1.9-0.1,3.8,0.5,5.4,1.6c1.6,1.1,2.8,2.7,3.6,4.5
		c0.8,2,1.2,4.1,1.2,6.3c0.1,2.3-0.4,4.5-1.3,6.6c-0.8,1.9-2.1,3.4-3.8,4.5c-1.6,1.1-3.5,1.6-5.4,1.6c-1.3,0-2.5-0.3-3.6-0.9
		c-1-0.5-1.9-1.3-2.7-2.2v11.8L307.8,123.6L307.8,123.6z M311.6,102.3c-0.2,2.5,0.5,4.9,1.9,6.9c1.1,1.4,2.8,2.2,4.5,2.3
		c1.8,0,3.5-0.8,4.6-2.3c1.5-2.1,2.2-4.6,2-7.1c0.2-2.5-0.5-4.9-1.9-6.9c-1.1-1.4-2.8-2.2-4.6-2.3c-1.9,0.1-3.6,1-4.6,2.5
		C312.1,97.4,311.4,99.9,311.6,102.3z"/>
	<path d="M352.5,106.6l4.2,0.5c-0.5,2.3-1.8,4.3-3.6,5.7c-4.8,3.1-11.1,2.7-15.3-1.2c-2.2-2.6-3.2-5.8-3-9.2
		c-0.2-3.5,0.9-6.8,3.2-9.5c2.1-2.2,5-3.5,8.1-3.3c3-0.1,5.9,1.1,7.9,3.3c2.2,2.6,3.2,5.9,3,9.3v1.1h-18.1c0,2.3,0.8,4.4,2.3,6.2
		c1.3,1.4,3.1,2.2,5,2.1c1.4,0,2.7-0.4,3.8-1.2C351.2,109.3,352.1,108,352.5,106.6z M339.1,100h13.4c0-1.6-0.6-3.2-1.6-4.5
		c-1.2-1.6-3.1-2.4-5-2.4c-1.8-0.1-3.5,0.6-4.7,1.9C339.8,96.3,339.1,98.1,339.1,100L339.1,100z"/>
</g>
</svg>
