<?xml version="1.0" encoding="utf-8"?>
<!-- Generator: Adobe Illustrator 26.0.3, SVG Export Plug-In . SVG Version: 6.00 Build 0)  -->
<svg version="1.1" id="图层_1" xmlns="http://www.w3.org/2000/svg" xmlns:xlink="http://www.w3.org/1999/xlink" x="0px" y="0px"
	 viewBox="0 0 338.7 79.1" style="enable-background:new 0 0 338.7 79.1;" xml:space="preserve">
<style type="text/css">
	.st0{fill:none;}
	.st1{clip-path:url(#SVGID_00000153696896961032677950000011955620864379358366_);fill:#009ADE;}
	.st2{clip-path:url(#SVGID_00000120542518229297181870000006205306603030583467_);}
	.st3{clip-path:url(#SVGID_00000121278992314998897120000006236945316235576511_);fill:#009ADE;}
	.st4{clip-path:url(#SVGID_00000036239415631234065120000011733396764695613058_);fill:#009ADE;}
	.st5{clip-path:url(#SVGID_00000070803569223395509820000005966029996438704260_);}
	.st6{clip-path:url(#SVGID_00000076588377085563234530000011323086195441035180_);}
	.st7{clip-path:url(#SVGID_00000031181778690296373580000004994561805443656586_);}
	.st8{clip-path:url(#SVGID_00000036210749584861508760000014492377859378996153_);}
	.st9{clip-path:url(#SVGID_00000030458618707555562590000007556495936932002977_);}
	.st10{clip-path:url(#SVGID_00000114773084991192478370000017442885222089038469_);}
	.st11{clip-path:url(#SVGID_00000090257198437737079500000013018444212358344841_);}
	.st12{clip-path:url(#SVGID_00000036971414226025093160000015996426101429844633_);fill:#009ADE;}
	.st13{clip-path:url(#SVGID_00000146483631432548161320000013957046621979650712_);}
	.st14{clip-path:url(#SVGID_00000082355119845725090800000016640649773596799163_);}
	.st15{clip-path:url(#SVGID_00000005960272774285982120000008284522436191603099_);}
	.st16{clip-path:url(#SVGID_00000146480137991438222040000004154535449003722935_);}
	.st17{clip-path:url(#SVGID_00000022553118772465000150000000162202484692660903_);}
	.st18{clip-path:url(#SVGID_00000008865825923615566670000018189224071424751750_);fill:#009ADE;}
	.st19{clip-path:url(#SVGID_00000114790742706536166390000004876657195536753819_);fill:#009ADE;}
	.st20{clip-path:url(#SVGID_00000129186732796664208360000014065565524674018950_);fill:#009ADE;}
	.st21{clip-path:url(#SVGID_00000080173902693807604420000005549831226683707047_);fill:#009ADE;}
	.st22{clip-path:url(#SVGID_00000005251390277122855800000001944249281915293078_);fill:#231F20;}
	.st23{clip-path:url(#SVGID_00000065752612420070881100000005385579863440875923_);fill:#231F20;}
	.st24{clip-path:url(#SVGID_00000018201563940795022430000015303626994279521459_);fill:#231F20;}
	.st25{clip-path:url(#SVGID_00000054954523836723858310000000494529860837040791_);fill:#231F20;}
	.st26{clip-path:url(#SVGID_00000003099859582647452630000014139810973732776124_);fill:#231F20;}
	.st27{clip-path:url(#SVGID_00000113351014352896179030000009623013385595668403_);fill:#231F20;}
	.st28{clip-path:url(#SVGID_00000134220499466706717540000014754466026018601643_);fill:#231F20;}
	.st29{clip-path:url(#SVGID_00000105389716599726056190000006380005403295934884_);fill:#231F20;}
	.st30{clip-path:url(#SVGID_00000138561809544816134060000003798748846444504994_);fill:#231F20;}
	.st31{clip-path:url(#SVGID_00000158727224282518773810000004576334328017321116_);fill:#231F20;}
	.st32{fill:#231F20;}
	.st33{fill:#939598;}
	.st34{clip-path:url(#SVGID_00000071517727060833864510000017550796680231460761_);fill:#939598;}
	.st35{clip-path:url(#SVGID_00000168818358337731138170000012769985715962575285_);fill:#939598;}
	.st36{clip-path:url(#SVGID_00000111908172894489672830000000816266615815796613_);fill:#939598;}
	.st37{clip-path:url(#SVGID_00000139273267167557489340000015455838572426681759_);fill:#939598;}
	.st38{clip-path:url(#SVGID_00000083791364350211237230000012635829687460361381_);fill:#231F20;}
	.st39{clip-path:url(#SVGID_00000108303371590734162420000008767629070672996737_);fill:#231F20;}
	.st40{clip-path:url(#SVGID_00000036212734305195224450000003994125051809100718_);fill:#231F20;}
	.st41{clip-path:url(#SVGID_00000031895275440632760150000012619136370010894228_);fill:#939598;}
	.st42{clip-path:url(#SVGID_00000023261830040906072250000012565825392722866107_);fill:#939598;}
	.st43{clip-path:url(#SVGID_00000091000726859270581830000013919875735264962203_);fill:#939598;}
	.st44{clip-path:url(#SVGID_00000006672053013372018220000000782288720434089610_);fill:#939598;}
	.st45{clip-path:url(#SVGID_00000150785241663660039360000005974088855377698730_);fill:#939598;}
	.st46{clip-path:url(#SVGID_00000033363174774722543530000011747950629693384836_);fill:#939598;}
	.st47{clip-path:url(#SVGID_00000076572350396755959390000009090125869457894830_);fill:#939598;}
	.st48{clip-path:url(#SVGID_00000084512828445620192040000004926341405687072938_);fill:#939598;}
</style>
<rect x="-134.4" y="-142.7" class="st0" width="612" height="792"/>
<g>
	<defs>
		<rect id="SVGID_1_" x="-134.4" y="-142.7" width="612" height="792"/>
	</defs>
	<clipPath id="SVGID_00000124119242310924677100000015864985964090306186_">
		<use xlink:href="#SVGID_1_"  style="overflow:visible;"/>
	</clipPath>
	<path style="clip-path:url(#SVGID_00000124119242310924677100000015864985964090306186_);fill:#009ADE;" d="M46.2,41.3
		c-0.4,2.9-0.9,5.6-1.6,8.1c1.2,0.1,2.2,0.2,3.3,0.2c4,0,6.9-1.1,8-3c1.4-2.4,0.3-6.4-3.1-10.9C50.8,37.6,48.6,39.5,46.2,41.3"/>
</g>
<g>
	<defs>
		<rect id="SVGID_00000025403661863399351790000013305315484485408390_" x="-134.4" y="-142.7" width="612" height="792"/>
	</defs>
	<clipPath id="SVGID_00000071552100854384657400000007661953955850595985_">
		<use xlink:href="#SVGID_00000025403661863399351790000013305315484485408390_"  style="overflow:visible;"/>
	</clipPath>
	<path style="clip-path:url(#SVGID_00000071552100854384657400000007661953955850595985_);" d="M22.6,46.1c-0.8-0.5-1.6-1-2.4-1.5
		c0.3,1.3,0.6,2.6,0.9,3.8c1.2-0.3,2.5-0.6,3.8-1C24.1,47,23.3,46.5,22.6,46.1"/>
</g>
<g>
	<defs>
		<rect id="SVGID_00000065780614824374142020000001088949930256421040_" x="-134.4" y="-142.7" width="612" height="792"/>
	</defs>
	<clipPath id="SVGID_00000039126668624851191290000018146239610136345002_">
		<use xlink:href="#SVGID_00000065780614824374142020000001088949930256421040_"  style="overflow:visible;"/>
	</clipPath>
	<path style="clip-path:url(#SVGID_00000039126668624851191290000018146239610136345002_);fill:#009ADE;" d="M8.5,35.3
		c-0.1,0.1-0.1,0.2-0.2,0.2C5,39.9,3.9,43.8,5.2,46.2c1.3,2.4,5.2,3.5,10.7,3.1c0.3,0,0.5-0.1,0.8-0.1c-0.7-2.5-1.2-5.2-1.6-8
		C12.6,39.3,10.4,37.3,8.5,35.3"/>
</g>
<g>
	<defs>
		<rect id="SVGID_00000129920221225926298750000007529664408851230358_" x="-134.4" y="-142.7" width="612" height="792"/>
	</defs>
	<clipPath id="SVGID_00000036238342946157390600000018284781228577576352_">
		<use xlink:href="#SVGID_00000129920221225926298750000007529664408851230358_"  style="overflow:visible;"/>
	</clipPath>
	<path style="clip-path:url(#SVGID_00000036238342946157390600000018284781228577576352_);fill:#009ADE;" d="M38.8,11.6
		C36.5,6.2,33.5,3,30.7,3c-2.8,0-5.8,3.1-8.1,8.4c2.7,0.7,5.4,1.6,8.2,2.8C33.5,13.1,36.2,12.2,38.8,11.6"/>
</g>
<g>
	<defs>
		<rect id="SVGID_00000168803637686160400270000009001024715288805523_" x="-134.4" y="-142.7" width="612" height="792"/>
	</defs>
	<clipPath id="SVGID_00000008112956492164301540000012809429977802634934_">
		<use xlink:href="#SVGID_00000168803637686160400270000009001024715288805523_"  style="overflow:visible;"/>
	</clipPath>
	<path style="clip-path:url(#SVGID_00000008112956492164301540000012809429977802634934_);" d="M25.1,16.8c-1.4-0.5-2.7-0.9-4-1.2
		c-0.4,1.2-0.7,2.6-1,3.9c0.9-0.5,1.8-1.1,2.7-1.6C23.6,17.6,24.4,17.1,25.1,16.8"/>
</g>
<g>
	<defs>
		<rect id="SVGID_00000016761810476248007040000007422357924258284981_" x="-134.4" y="-142.7" width="612" height="792"/>
	</defs>
	<clipPath id="SVGID_00000160187444167413015050000017621448325551722662_">
		<use xlink:href="#SVGID_00000016761810476248007040000007422357924258284981_"  style="overflow:visible;"/>
	</clipPath>
	<path style="clip-path:url(#SVGID_00000160187444167413015050000017621448325551722662_);" d="M38.7,18.1c0.8,0.5,1.6,1,2.4,1.5
		c-0.3-1.3-0.6-2.6-0.9-3.8c-1.2,0.3-2.5,0.6-3.8,1C37.2,17.3,38,17.7,38.7,18.1"/>
</g>
<g>
	<defs>
		<rect id="SVGID_00000170265028826155752740000000369725727056633260_" x="-134.4" y="-142.7" width="612" height="792"/>
	</defs>
	<clipPath id="SVGID_00000165939574439979125520000009738717884014683540_">
		<use xlink:href="#SVGID_00000170265028826155752740000000369725727056633260_"  style="overflow:visible;"/>
	</clipPath>
	<path style="clip-path:url(#SVGID_00000165939574439979125520000009738717884014683540_);" d="M5.5,17.6C4.1,20,5.2,24,8.5,28.5
		c1.9-1.9,4.1-3.8,6.6-5.6c0.4-2.9,0.9-5.6,1.6-8.1c-1.2-0.1-2.2-0.2-3.3-0.2C9.5,14.6,6.6,15.6,5.5,17.6"/>
</g>
<g>
	<defs>
		<rect id="SVGID_00000182489167770989670070000006805589762158648995_" x="-134.4" y="-142.7" width="612" height="792"/>
	</defs>
	<clipPath id="SVGID_00000138531893041677490750000013605344556985200289_">
		<use xlink:href="#SVGID_00000182489167770989670070000006805589762158648995_"  style="overflow:visible;"/>
	</clipPath>
	<path style="clip-path:url(#SVGID_00000138531893041677490750000013605344556985200289_);" d="M36.2,47.5c1.4,0.5,2.7,0.9,4,1.2
		c0.4-1.2,0.7-2.6,1-3.9c-0.9,0.5-1.8,1.1-2.7,1.6C37.7,46.7,36.9,47.1,36.2,47.5"/>
</g>
<g>
	<defs>
		<rect id="SVGID_00000025426999391044113440000001249696501844993159_" x="-134.4" y="-142.7" width="612" height="792"/>
	</defs>
	<clipPath id="SVGID_00000142143974806712128680000007133127101961404803_">
		<use xlink:href="#SVGID_00000025426999391044113440000001249696501844993159_"  style="overflow:visible;"/>
	</clipPath>
	<path style="clip-path:url(#SVGID_00000142143974806712128680000007133127101961404803_);" d="M49.9,32.3c-0.9-1-2-2-3.1-3
		c0,0.9,0.1,1.9,0.1,2.9c0,1.1,0,2.1-0.1,3.1C47.9,34.3,48.9,33.3,49.9,32.3"/>
</g>
<g>
	<defs>
		<rect id="SVGID_00000134965256889461938640000017375219396830175366_" x="-134.4" y="-142.7" width="612" height="792"/>
	</defs>
	<clipPath id="SVGID_00000025421493880013882930000015388878008313670326_">
		<use xlink:href="#SVGID_00000134965256889461938640000017375219396830175366_"  style="overflow:visible;"/>
	</clipPath>
	<path style="clip-path:url(#SVGID_00000025421493880013882930000015388878008313670326_);" d="M56.1,18.1c-1.1-2-4.1-3.2-8.4-3.2
		c-1,0-2,0.1-3.1,0.2c0.7,2.5,1.2,5.2,1.6,8c2.4,1.9,4.7,3.8,6.6,5.8C56.2,24.5,57.4,20.5,56.1,18.1"/>
</g>
<g>
	<defs>
		<rect id="SVGID_00000124857416364170177140000001290670975215157682_" x="-134.4" y="-142.7" width="612" height="792"/>
	</defs>
	<clipPath id="SVGID_00000002361706576028622470000012795601101961586365_">
		<use xlink:href="#SVGID_00000124857416364170177140000001290670975215157682_"  style="overflow:visible;"/>
	</clipPath>
	<path style="clip-path:url(#SVGID_00000002361706576028622470000012795601101961586365_);" d="M11.4,31.9c0.9,1,2,2,3.1,3
		c0-0.9-0.1-1.9-0.1-2.9c0-1.1,0-2.1,0.1-3.1C13.4,30,12.4,30.9,11.4,31.9"/>
</g>
<g>
	<defs>
		<rect id="SVGID_00000075132350871829494460000009191981388732905102_" x="-134.4" y="-142.7" width="612" height="792"/>
	</defs>
	<clipPath id="SVGID_00000024687228092509147340000011807467539663664563_">
		<use xlink:href="#SVGID_00000075132350871829494460000009191981388732905102_"  style="overflow:visible;"/>
	</clipPath>
	<path style="clip-path:url(#SVGID_00000024687228092509147340000011807467539663664563_);fill:#009ADE;" d="M36.5,22
		c-1.9-1.1-3.9-2.1-5.7-3c-1.9,0.8-3.8,1.8-5.8,2.9c-2,1.1-3.9,2.3-5.7,3.5c-0.2,2.1-0.3,4.4-0.3,6.7c0,2.3,0.1,4.5,0.3,6.6
		c1.7,1.2,3.6,2.4,5.6,3.6c1.9,1.1,3.9,2.1,5.7,3c1.9-0.8,3.9-1.8,5.8-2.9c2.1-1.1,4-2.3,5.7-3.5c0.2-2.1,0.3-4.4,0.3-6.7
		c0-2.3-0.1-4.5-0.3-6.6C40.3,24.3,38.5,23.1,36.5,22"/>
</g>
<g>
	<defs>
		<rect id="SVGID_00000142164993117221908580000003012632366006323371_" x="-134.4" y="-142.7" width="612" height="792"/>
	</defs>
	<clipPath id="SVGID_00000156589871575208701230000012190951200118928566_">
		<use xlink:href="#SVGID_00000142164993117221908580000003012632366006323371_"  style="overflow:visible;"/>
	</clipPath>
	<path style="clip-path:url(#SVGID_00000156589871575208701230000012190951200118928566_);" d="M27,51.3c-1.5,0.5-3.1,0.9-4.5,1.3
		c2.3,5.4,5.3,8.6,8.1,8.6c2.8,0,5.8-3.1,8.1-8.4c-2.7-0.7-5.4-1.6-8.2-2.8C29.3,50.5,28.2,50.9,27,51.3"/>
</g>
<g>
	<defs>
		<rect id="SVGID_00000008147609155543482180000007762306081837890736_" x="-134.4" y="-142.7" width="612" height="792"/>
	</defs>
	<clipPath id="SVGID_00000135666902708631710530000008609975366229343897_">
		<use xlink:href="#SVGID_00000008147609155543482180000007762306081837890736_"  style="overflow:visible;"/>
	</clipPath>
	<polygon style="clip-path:url(#SVGID_00000135666902708631710530000008609975366229343897_);" points="114.1,55.6 104.1,55.6 
		86,25.6 86,55.6 75.9,55.6 75.9,9 86,9 104.1,39 104.1,9 114.1,9 	"/>
</g>
<g>
	<defs>
		<rect id="SVGID_00000024721446688401944800000010536479702378897797_" x="-134.4" y="-142.7" width="612" height="792"/>
	</defs>
	<clipPath id="SVGID_00000057868148820711630790000006405108272358442427_">
		<use xlink:href="#SVGID_00000024721446688401944800000010536479702378897797_"  style="overflow:visible;"/>
	</clipPath>
	<path style="clip-path:url(#SVGID_00000057868148820711630790000006405108272358442427_);" d="M133.9,56.3c-3.6,0-6.8-0.8-9.4-2.3
		c-2.6-1.5-4.6-3.5-6-6.1c-1.4-2.5-2.1-5.4-2.1-8.4v-1.2c0-3.5,0.7-6.5,2-9.2c1.3-2.7,3.2-4.8,5.6-6.4c2.4-1.5,5.3-2.3,8.7-2.3
		c3.4,0,6.2,0.7,8.5,2.1c2.3,1.4,4,3.4,5.2,5.9c1.2,2.6,1.8,5.6,1.8,9v4.1h-27.6V35h18.1v-0.8c0-1.2-0.2-2.2-0.6-3.2
		c-0.4-0.9-1.1-1.6-1.9-2.1c-0.9-0.5-2-0.8-3.4-0.8c-1.6,0-2.9,0.4-3.8,1.4c-1,0.9-1.7,2.1-2.1,3.6c-0.4,1.5-0.7,3.2-0.7,5.2v1.2
		c0,1.8,0.3,3.3,1,4.7c0.7,1.3,1.6,2.4,2.9,3.1c1.2,0.8,2.7,1.1,4.5,1.1c1.6,0,3.2-0.3,4.6-0.9s2.6-1.6,3.6-2.9l4.7,5.4
		c-1.1,1.6-2.8,3-5,4.3C140.1,55.6,137.3,56.3,133.9,56.3"/>
</g>
<g>
	<defs>
		<rect id="SVGID_00000064355569053568160590000007194075538803661747_" x="-134.4" y="-142.7" width="612" height="792"/>
	</defs>
	<clipPath id="SVGID_00000154416728186085999750000014856106278740657798_">
		<use xlink:href="#SVGID_00000064355569053568160590000007194075538803661747_"  style="overflow:visible;"/>
	</clipPath>
	<polygon style="clip-path:url(#SVGID_00000154416728186085999750000014856106278740657798_);" points="164.1,31 169.6,21 179.9,21 
		170.2,37.9 180.3,55.6 170,55.6 164.1,45 158.2,55.6 147.8,55.6 157.9,37.9 148.3,21 158.6,21 	"/>
</g>
<g>
	<defs>
		<rect id="SVGID_00000015341074691321492100000014715837074794992550_" x="-134.4" y="-142.7" width="612" height="792"/>
	</defs>
	<clipPath id="SVGID_00000114794739316363966680000002532657676761499780_">
		<use xlink:href="#SVGID_00000015341074691321492100000014715837074794992550_"  style="overflow:visible;"/>
	</clipPath>
	<path style="clip-path:url(#SVGID_00000114794739316363966680000002532657676761499780_);" d="M201.5,28H181V21h20.5V28z
		 M195.6,12.4v32.4c0,0.9,0.1,1.7,0.4,2.2c0.2,0.5,0.6,0.9,1.2,1.1s1.2,0.3,2,0.3c0.6,0,1.1,0,1.5-0.1s0.8-0.1,1.1-0.2l0,7.3
		c-0.8,0.3-1.6,0.5-2.6,0.6s-2,0.2-3.1,0.2c-2.1,0-3.9-0.4-5.4-1c-1.5-0.7-2.7-1.8-3.5-3.3c-0.8-1.5-1.2-3.5-1.2-6V12.4H195.6z"/>
</g>
<g>
	<defs>
		<rect id="SVGID_00000000194864415515015640000012407044057967308429_" x="-134.4" y="-142.7" width="612" height="792"/>
	</defs>
	<clipPath id="SVGID_00000163070420162588292130000014745856699729888658_">
		<use xlink:href="#SVGID_00000000194864415515015640000012407044057967308429_"  style="overflow:visible;"/>
	</clipPath>
	<path style="clip-path:url(#SVGID_00000163070420162588292130000014745856699729888658_);fill:#009ADE;" d="M213.9,55.6h-10.7
		L220.5,9h6.8l-1,8.8L213.9,55.6z M236.2,46.3h-24.7v-8.1h24.7V46.3z M224,17.8L223,9h6.8l17.4,46.6h-10.7L224,17.8z"/>
</g>
<g>
	<defs>
		<rect id="SVGID_00000167390619277024184390000000228326716963149200_" x="-134.4" y="-142.7" width="612" height="792"/>
	</defs>
	<clipPath id="SVGID_00000160877636259538933370000013164743025550282889_">
		<use xlink:href="#SVGID_00000167390619277024184390000000228326716963149200_"  style="overflow:visible;"/>
	</clipPath>
	<path style="clip-path:url(#SVGID_00000160877636259538933370000013164743025550282889_);fill:#009ADE;" d="M259.2,55.6h-9.7V21
		h9.1l0.6,8L259.2,55.6L259.2,55.6z M269.3,30.1c-0.5-0.1-1-0.1-1.7-0.2c-0.6-0.1-1.2-0.1-1.7-0.1c-1.7,0-3.1,0.3-4.2,0.8
		s-1.9,1.3-2.4,2.3c-0.5,1-0.8,2.3-0.9,3.8l-1.9-0.8c0-3,0.4-5.7,1.1-8c0.8-2.4,1.9-4.2,3.4-5.5c1.5-1.3,3.3-2,5.4-2
		c0.5,0,1,0,1.5,0.1c0.5,0.1,1,0.2,1.3,0.3L269.3,30.1z"/>
</g>
<g>
	<defs>
		<rect id="SVGID_00000101078228497526220670000008213434125925761938_" x="-134.4" y="-142.7" width="612" height="792"/>
	</defs>
	<clipPath id="SVGID_00000041979996800618551860000010948529929570007229_">
		<use xlink:href="#SVGID_00000101078228497526220670000008213434125925761938_"  style="overflow:visible;"/>
	</clipPath>
	<path style="clip-path:url(#SVGID_00000041979996800618551860000010948529929570007229_);fill:#009ADE;" d="M286.7,48.5
		c1.1,0,2-0.2,2.9-0.6c0.8-0.4,1.5-1,1.9-1.7s0.7-1.6,0.7-2.7h9.1c0,2.5-0.7,4.7-2,6.6s-3,3.4-5.2,4.5c-2.2,1.1-4.6,1.6-7.3,1.6
		c-3.6,0-6.6-0.8-9-2.3s-4.2-3.7-5.4-6.3s-1.8-5.6-1.8-8.9v-0.9c0-3.3,0.6-6.3,1.8-8.9c1.2-2.6,3-4.8,5.4-6.3s5.4-2.3,8.9-2.3
		c2.9,0,5.4,0.6,7.5,1.6c2.2,1.1,3.9,2.7,5.1,4.7c1.2,2,1.9,4.5,1.9,7.3h-9.1c0-1.1-0.2-2.1-0.7-3c-0.4-0.9-1-1.6-1.9-2.1
		s-1.9-0.8-3.1-0.8c-1.7,0-3,0.5-3.9,1.4c-0.9,0.9-1.5,2.1-1.8,3.6c-0.3,1.5-0.5,3.1-0.5,4.8v0.9c0,1.7,0.1,3.3,0.5,4.8
		c0.3,1.5,0.9,2.7,1.8,3.6C283.6,48,284.9,48.5,286.7,48.5"/>
</g>
<g>
	<defs>
		<rect id="SVGID_00000118384468110571344820000011559908818028321454_" x="-134.4" y="-142.7" width="612" height="792"/>
	</defs>
	<clipPath id="SVGID_00000039113462496287418400000008240946064335719325_">
		<use xlink:href="#SVGID_00000118384468110571344820000011559908818028321454_"  style="overflow:visible;"/>
	</clipPath>
	<path style="clip-path:url(#SVGID_00000039113462496287418400000008240946064335719325_);fill:#009ADE;" d="M314.6,55.6h-9.7V6.4
		h9.7V55.6z M310.6,37.3c0-3.3,0.5-6.2,1.6-8.7c1.1-2.5,2.6-4.5,4.6-6c2-1.5,4.3-2.2,6.9-2.2c2.3,0,4.3,0.4,6,1.3s3.1,2.3,4,4.3
		c1,2,1.5,4.6,1.5,7.9v21.8h-9.7V33.8c0-1.4-0.2-2.6-0.6-3.4s-1-1.4-1.8-1.7c-0.8-0.3-1.8-0.5-2.9-0.5c-1.3,0-2.4,0.2-3.2,0.7
		c-0.9,0.4-1.6,1.1-2.1,1.9s-0.9,1.8-1.2,2.9c-0.2,1.1-0.4,2.3-0.4,3.6L310.6,37.3z"/>
</g>
<g>
	<defs>
		<rect id="SVGID_00000096759287095307460750000015913203245854615945_" x="-134.4" y="-142.7" width="612" height="792"/>
	</defs>
	<clipPath id="SVGID_00000005963544567535743220000012228331852908874905_">
		<use xlink:href="#SVGID_00000096759287095307460750000015913203245854615945_"  style="overflow:visible;"/>
	</clipPath>
	<path style="clip-path:url(#SVGID_00000005963544567535743220000012228331852908874905_);fill:#231F20;" d="M161.7,75.9h-1.1V63.2
		h1.1V75.9z M168.5,64.1h-7.2v-0.9h7.2V64.1z M167.6,69.9h-6.3V69h6.3V69.9z"/>
</g>
<g>
	<defs>
		<rect id="SVGID_00000042005140311345962760000003693554563028424849_" x="-134.4" y="-142.7" width="612" height="792"/>
	</defs>
	<clipPath id="SVGID_00000142885530375526940090000011268837178963946658_">
		<use xlink:href="#SVGID_00000042005140311345962760000003693554563028424849_"  style="overflow:visible;"/>
	</clipPath>
	<path style="clip-path:url(#SVGID_00000142885530375526940090000011268837178963946658_);fill:#231F20;" d="M185.4,70.2
		c0,1.2-0.2,2.2-0.6,3.1c-0.4,0.9-1,1.6-1.7,2s-1.6,0.7-2.6,0.7c-1,0-1.9-0.2-2.6-0.7s-1.3-1.2-1.8-2c-0.4-0.9-0.6-1.9-0.6-3.1v-1.4
		c0-1.2,0.2-2.2,0.6-3.1s1-1.6,1.7-2c0.7-0.5,1.6-0.7,2.6-0.7c1,0,1.9,0.2,2.6,0.7c0.7,0.5,1.3,1.2,1.7,2c0.4,0.9,0.6,1.9,0.6,3.1
		V70.2z M184.4,68.8c0-1-0.1-1.9-0.5-2.6c-0.3-0.7-0.8-1.3-1.3-1.7s-1.3-0.6-2.1-0.6c-0.8,0-1.5,0.2-2.1,0.6c-0.6,0.4-1,1-1.3,1.7
		c-0.3,0.7-0.5,1.6-0.5,2.6v1.4c0,1,0.2,1.9,0.5,2.6c0.3,0.7,0.8,1.3,1.4,1.7c0.6,0.4,1.3,0.6,2.1,0.6c0.8,0,1.5-0.2,2.1-0.6
		c0.6-0.4,1-1,1.3-1.7c0.3-0.7,0.5-1.6,0.5-2.6L184.4,68.8L184.4,68.8z"/>
</g>
<g>
	<defs>
		<rect id="SVGID_00000080895304946987490220000013639995158812952474_" x="-134.4" y="-142.7" width="612" height="792"/>
	</defs>
	<clipPath id="SVGID_00000034774156280532354350000004362425349580885634_">
		<use xlink:href="#SVGID_00000080895304946987490220000013639995158812952474_"  style="overflow:visible;"/>
	</clipPath>
	<path style="clip-path:url(#SVGID_00000034774156280532354350000004362425349580885634_);fill:#231F20;" d="M202.3,63.1v8.6
		c0,1-0.2,1.8-0.6,2.4s-0.9,1.1-1.6,1.4c-0.7,0.3-1.4,0.5-2.2,0.5c-0.8,0-1.6-0.2-2.3-0.5c-0.7-0.3-1.2-0.8-1.6-1.4
		s-0.6-1.4-0.6-2.4v-8.6h1.1v8.6c0,0.7,0.1,1.4,0.4,1.9c0.3,0.5,0.7,0.9,1.2,1.1c0.5,0.2,1.1,0.4,1.8,0.4s1.2-0.1,1.8-0.4
		s0.9-0.6,1.2-1.1c0.3-0.5,0.4-1.1,0.4-1.9v-8.6H202.3z"/>
</g>
<g>
	<defs>
		<rect id="SVGID_00000171686810388544635570000003237833020855348119_" x="-134.4" y="-142.7" width="612" height="792"/>
	</defs>
	<clipPath id="SVGID_00000057835762478103263060000011854560487970486421_">
		<use xlink:href="#SVGID_00000171686810388544635570000003237833020855348119_"  style="overflow:visible;"/>
	</clipPath>
	<polygon style="clip-path:url(#SVGID_00000057835762478103263060000011854560487970486421_);fill:#231F20;" points="220.2,75.9 
		219.1,75.9 211.8,65 211.8,75.9 210.7,75.9 210.7,63.1 211.8,63.1 219.1,74 219.1,63.1 220.2,63.1 	"/>
</g>
<g>
	<defs>
		<rect id="SVGID_00000109749960306399365250000004428815366857440166_" x="-134.4" y="-142.7" width="612" height="792"/>
	</defs>
	<clipPath id="SVGID_00000109714622677670723480000001623058240631693989_">
		<use xlink:href="#SVGID_00000109749960306399365250000004428815366857440166_"  style="overflow:visible;"/>
	</clipPath>
	<path style="clip-path:url(#SVGID_00000109714622677670723480000001623058240631693989_);fill:#231F20;" d="M229.9,75.9h-1.1V63.2
		h1.1V75.9z M229.4,75.9l0-0.9h2.9c0.9,0,1.7-0.2,2.4-0.6c0.7-0.4,1.2-1,1.5-1.7c0.4-0.7,0.5-1.6,0.5-2.5v-1.2c0-1-0.2-1.8-0.5-2.6
		c-0.4-0.7-0.9-1.3-1.5-1.7s-1.4-0.6-2.3-0.6h-3v-0.9h3c1.1,0,2,0.2,2.8,0.7c0.8,0.5,1.5,1.1,1.9,2c0.5,0.9,0.7,1.9,0.7,3.1v1.2
		c0,1.2-0.2,2.2-0.7,3.1c-0.5,0.9-1.1,1.5-1.9,2c-0.8,0.5-1.8,0.7-2.9,0.7L229.4,75.9L229.4,75.9z"/>
</g>
<g>
	<defs>
		<rect id="SVGID_00000006672176358055688780000014294758295744580780_" x="-134.4" y="-142.7" width="612" height="792"/>
	</defs>
	<clipPath id="SVGID_00000181072380678706734920000005899840071885185699_">
		<use xlink:href="#SVGID_00000006672176358055688780000014294758295744580780_"  style="overflow:visible;"/>
	</clipPath>
	<path style="clip-path:url(#SVGID_00000181072380678706734920000005899840071885185699_);fill:#231F20;" d="M245.7,75.9h-1.1
		l4.8-12.7h0.8l-0.1,0.8L245.7,75.9z M253.3,72.3h-6.8v-0.9h6.8V72.3z M249.7,63.9l0-0.8h0.8l4.8,12.7h-1.1L249.7,63.9z"/>
</g>
<g>
	<defs>
		<rect id="SVGID_00000083804734195300080510000016108298600727789751_" x="-134.4" y="-142.7" width="612" height="792"/>
	</defs>
	<clipPath id="SVGID_00000052791201144879688210000004987113316455502266_">
		<use xlink:href="#SVGID_00000083804734195300080510000016108298600727789751_"  style="overflow:visible;"/>
	</clipPath>
	<path style="clip-path:url(#SVGID_00000052791201144879688210000004987113316455502266_);fill:#231F20;" d="M270,64.1h-9.8v-0.9
		h9.8V64.1z M265.6,75.9h-1.1V63.2h1.1V75.9z"/>
</g>
<g>
	<defs>
		<rect id="SVGID_00000013190202337426925070000010176146444283106977_" x="-134.4" y="-142.7" width="612" height="792"/>
	</defs>
	<clipPath id="SVGID_00000079467763149193746780000011793766601564856491_">
		<use xlink:href="#SVGID_00000013190202337426925070000010176146444283106977_"  style="overflow:visible;"/>
	</clipPath>
	
		<rect x="277.7" y="63.1" style="clip-path:url(#SVGID_00000079467763149193746780000011793766601564856491_);fill:#231F20;" width="1.1" height="12.7"/>
</g>
<g>
	<defs>
		<rect id="SVGID_00000035530976781561733470000017576094031725395627_" x="-134.4" y="-142.7" width="612" height="792"/>
	</defs>
	<clipPath id="SVGID_00000183233829622205403160000004019651362934667393_">
		<use xlink:href="#SVGID_00000035530976781561733470000017576094031725395627_"  style="overflow:visible;"/>
	</clipPath>
	<path style="clip-path:url(#SVGID_00000183233829622205403160000004019651362934667393_);fill:#231F20;" d="M297,70.2
		c0,1.2-0.2,2.2-0.6,3.1c-0.4,0.9-1,1.6-1.7,2s-1.6,0.7-2.6,0.7c-1,0-1.9-0.2-2.6-0.7s-1.3-1.2-1.7-2c-0.4-0.9-0.6-1.9-0.6-3.1v-1.4
		c0-1.2,0.2-2.2,0.6-3.1s1-1.6,1.7-2c0.7-0.5,1.6-0.7,2.6-0.7c1,0,1.9,0.2,2.6,0.7c0.7,0.5,1.3,1.2,1.7,2c0.4,0.9,0.6,1.9,0.6,3.1
		V70.2z M295.9,68.8c0-1-0.1-1.9-0.5-2.6c-0.3-0.7-0.8-1.3-1.3-1.7s-1.3-0.6-2.1-0.6c-0.8,0-1.5,0.2-2.1,0.6c-0.6,0.4-1,1-1.3,1.7
		c-0.3,0.7-0.5,1.6-0.5,2.6v1.4c0,1,0.2,1.9,0.5,2.6c0.3,0.7,0.8,1.3,1.4,1.7c0.6,0.4,1.3,0.6,2.1,0.6c0.8,0,1.5-0.2,2.1-0.6
		c0.6-0.4,1-1,1.3-1.7c0.3-0.7,0.5-1.6,0.5-2.6L295.9,68.8L295.9,68.8z"/>
</g>
<g>
	<defs>
		<rect id="SVGID_00000016054995854238031150000013467767264410345104_" x="-134.4" y="-142.7" width="612" height="792"/>
	</defs>
	<clipPath id="SVGID_00000026848724460393609240000011239014088308505766_">
		<use xlink:href="#SVGID_00000016054995854238031150000013467767264410345104_"  style="overflow:visible;"/>
	</clipPath>
	<polygon style="clip-path:url(#SVGID_00000026848724460393609240000011239014088308505766_);fill:#231F20;" points="314.6,75.9 
		313.5,75.9 306.2,65 306.2,75.9 305.1,75.9 305.1,63.1 306.2,63.1 313.5,74 313.5,63.1 314.6,63.1 	"/>
</g>
<rect x="-134.4" y="-142.7" class="st0" width="612" height="792"/>
<polygon class="st32" points="124.2,500.6 122.1,500.6 118.3,494.4 118.3,500.6 116.2,500.6 116.2,490.9 118.3,490.9 122.1,497.1 
	122.1,490.9 124.2,490.9 "/>
<rect x="-134.4" y="-142.7" class="st0" width="612" height="792"/>
<path class="st32" d="M127.9,500.6h-2.1v-9.7h2.1V500.6z M132.4,492.6h-5.1v-1.7h5.1V492.6z M131.7,496.4h-4.5v-1.6h4.5V496.4z
	 M132.4,500.6h-5.1v-1.7h5.1V500.6z"/>
<rect x="-134.4" y="-142.7" class="st0" width="612" height="792"/>
<polygon class="st32" points="137,494.2 138.7,490.9 141.1,490.9 138.4,495.7 141.2,500.6 138.8,500.6 137,497.3 135.2,500.6 
	132.8,500.6 135.6,495.7 132.9,490.9 135.3,490.9 "/>
<rect x="-134.4" y="-142.7" class="st0" width="612" height="792"/>
<path class="st32" d="M149.5,492.6h-7.9v-1.7h7.9V492.6z M146.6,500.6h-2.1v-9.7h2.1V500.6z"/>
<rect x="-134.4" y="-142.7" class="st0" width="612" height="792"/>
<path class="st32" d="M151.2,500.6H149l3.6-9.7h1.4l-0.2,1.8L151.2,500.6z M155.8,498.7h-5.1V497h5.1V498.7z M153.3,492.7l-0.2-1.8
	h1.4l3.6,9.7h-2.2L153.3,492.7z"/>
<rect x="-134.4" y="-142.7" class="st0" width="612" height="792"/>
<path class="st32" d="M162.6,490.9c0.8,0,1.4,0.1,1.9,0.3c0.5,0.2,1,0.5,1.2,1c0.3,0.4,0.4,1,0.4,1.6c0,0.5-0.1,1-0.3,1.3
	s-0.4,0.7-0.7,0.9c-0.3,0.2-0.7,0.4-1.1,0.6l-0.7,0.4h-3.1l0-1.7h2.3c0.3,0,0.6-0.1,0.9-0.2s0.4-0.3,0.5-0.5
	c0.1-0.2,0.2-0.5,0.2-0.7c0-0.4-0.1-0.8-0.4-1s-0.6-0.4-1.1-0.4h-1.5v8H159v-9.7L162.6,490.9L162.6,490.9z M162.2,496.3l2.2,0
	l2.2,4.2v0.1h-2.2L162.2,496.3z"/>
<rect x="-134.4" y="-142.7" class="st0" width="612" height="792"/>
<path class="st32" d="M175.3,497.3c0,0.7-0.2,1.2-0.5,1.8s-0.8,0.9-1.3,1.2c-0.6,0.3-1.2,0.4-2,0.4c-0.8,0-1.5-0.2-2.1-0.6
	s-1.1-0.9-1.4-1.6s-0.5-1.5-0.5-2.5v-0.6c0-1,0.2-1.8,0.5-2.5s0.8-1.2,1.4-1.6s1.3-0.6,2.1-0.6s1.5,0.2,2.1,0.5s1,0.7,1.3,1.2
	c0.3,0.5,0.5,1.1,0.5,1.8h-2.1c0-0.6-0.2-1-0.5-1.3c-0.3-0.3-0.7-0.4-1.4-0.4c-0.4,0-0.8,0.1-1.1,0.3s-0.5,0.5-0.6,1
	c-0.1,0.4-0.2,1-0.2,1.7v0.6c0,0.7,0.1,1.2,0.2,1.7s0.3,0.8,0.6,1c0.3,0.2,0.6,0.3,1.1,0.3c0.4,0,0.7-0.1,1-0.2s0.5-0.3,0.6-0.6
	s0.2-0.6,0.2-0.9L175.3,497.3L175.3,497.3z"/>
<rect x="-134.4" y="-142.7" class="st0" width="612" height="792"/>
<path class="st32" d="M178.7,500.6h-2.1v-9.7h2.1V500.6z M183.1,496.5h-5v-1.7h5V496.5z M184.5,500.6h-2.1v-9.7h2.1V500.6z"/>
<rect x="-134.4" y="-142.7" class="st0" width="612" height="792"/>
<path class="st32" d="M191.7,500.6h-2.1v-9.7h2.1V500.6z M195.9,500.6H191v-1.7h4.9V500.6z"/>
<rect x="-134.4" y="-142.7" class="st0" width="612" height="792"/>
<path class="st32" d="M204.5,496c0,1-0.2,1.8-0.5,2.6c-0.4,0.7-0.8,1.3-1.5,1.6c-0.6,0.4-1.3,0.6-2.1,0.6c-0.8,0-1.5-0.2-2.2-0.6
	c-0.6-0.4-1.1-0.9-1.5-1.6c-0.4-0.7-0.5-1.6-0.5-2.6v-0.4c0-1,0.2-1.8,0.5-2.6c0.4-0.7,0.8-1.3,1.5-1.6c0.6-0.4,1.4-0.6,2.2-0.6
	s1.5,0.2,2.2,0.6c0.6,0.4,1.1,0.9,1.5,1.6s0.5,1.6,0.5,2.6L204.5,496L204.5,496z M202.4,495.5c0-0.7-0.1-1.2-0.2-1.7s-0.4-0.8-0.7-1
	c-0.3-0.2-0.7-0.3-1.1-0.3c-0.4,0-0.8,0.1-1.1,0.3c-0.3,0.2-0.5,0.6-0.7,1s-0.2,1-0.2,1.7v0.4c0,0.7,0.1,1.2,0.2,1.7s0.4,0.8,0.7,1
	c0.3,0.2,0.7,0.3,1.1,0.3c0.4,0,0.8-0.1,1.1-0.3c0.3-0.2,0.5-0.6,0.7-1s0.2-1,0.2-1.7L202.4,495.5L202.4,495.5z"/>
<rect x="-134.4" y="-142.7" class="st0" width="612" height="792"/>
<path class="st32" d="M213.7,499.4c-0.1,0.2-0.4,0.4-0.7,0.6c-0.3,0.2-0.7,0.4-1.2,0.5c-0.5,0.2-1.1,0.2-1.8,0.2
	c-0.8,0-1.6-0.2-2.2-0.5c-0.6-0.4-1.1-0.9-1.5-1.6c-0.4-0.7-0.5-1.5-0.5-2.5v-0.5c0-1,0.2-1.8,0.5-2.5s0.8-1.2,1.4-1.6
	c0.6-0.4,1.3-0.5,2.1-0.5c0.9,0,1.6,0.1,2.1,0.4c0.5,0.3,1,0.7,1.2,1.2c0.3,0.5,0.5,1,0.5,1.7h-2c0-0.3-0.1-0.6-0.3-0.8
	c-0.1-0.2-0.3-0.4-0.6-0.5c-0.2-0.1-0.6-0.2-1-0.2c-0.4,0-0.8,0.1-1.1,0.3c-0.3,0.2-0.5,0.6-0.7,1s-0.2,1-0.2,1.7v0.6
	c0,0.7,0.1,1.2,0.2,1.7c0.2,0.5,0.4,0.8,0.8,1s0.7,0.3,1.2,0.3c0.3,0,0.5,0,0.8-0.1c0.2,0,0.4-0.1,0.5-0.2c0.1-0.1,0.2-0.1,0.3-0.2
	V497h-1.8v-1.5h3.9L213.7,499.4L213.7,499.4z"/>
<rect x="-134.4" y="-142.7" class="st0" width="612" height="792"/>
<path class="st32" d="M223.2,496c0,1-0.2,1.8-0.5,2.6c-0.4,0.7-0.8,1.3-1.5,1.6c-0.6,0.4-1.3,0.6-2.1,0.6c-0.8,0-1.5-0.2-2.2-0.6
	c-0.6-0.4-1.1-0.9-1.5-1.6c-0.4-0.7-0.5-1.6-0.5-2.6v-0.4c0-1,0.2-1.8,0.5-2.6c0.4-0.7,0.8-1.3,1.5-1.6c0.6-0.4,1.4-0.6,2.2-0.6
	s1.5,0.2,2.2,0.6c0.6,0.4,1.1,0.9,1.5,1.6s0.5,1.6,0.5,2.6L223.2,496L223.2,496z M221.1,495.5c0-0.7-0.1-1.2-0.2-1.7s-0.4-0.8-0.7-1
	c-0.3-0.2-0.7-0.3-1.1-0.3c-0.4,0-0.8,0.1-1.1,0.3c-0.3,0.2-0.5,0.6-0.7,1s-0.2,1-0.2,1.7v0.4c0,0.7,0.1,1.2,0.2,1.7s0.4,0.8,0.7,1
	c0.3,0.2,0.7,0.3,1.1,0.3c0.4,0,0.8-0.1,1.1-0.3c0.3-0.2,0.5-0.6,0.7-1s0.2-1,0.2-1.7L221.1,495.5L221.1,495.5z"/>
<rect x="-134.4" y="-142.7" class="st0" width="612" height="792"/>
<path class="st32" d="M224.6,499.6c0-0.3,0.1-0.5,0.3-0.8c0.2-0.2,0.5-0.3,0.8-0.3c0.4,0,0.6,0.1,0.8,0.3c0.2,0.2,0.3,0.5,0.3,0.8
	s-0.1,0.5-0.3,0.8c-0.2,0.2-0.5,0.3-0.8,0.3s-0.6-0.1-0.8-0.3S224.6,499.9,224.6,499.6 M224.6,494.2c0-0.3,0.1-0.5,0.3-0.8
	c0.2-0.2,0.5-0.3,0.8-0.3c0.4,0,0.6,0.1,0.8,0.3c0.2,0.2,0.3,0.5,0.3,0.8s-0.1,0.5-0.3,0.8c-0.2,0.2-0.5,0.3-0.8,0.3
	s-0.6-0.1-0.8-0.3C224.7,494.8,224.6,494.5,224.6,494.2"/>
<rect x="-134.4" y="-142.7" class="st0" width="612" height="792"/>
<path class="st33" d="M28.4,516.9h-6.7v-1.4l3.1-3.3c0.3-0.3,0.6-0.6,0.7-0.9c0.2-0.2,0.3-0.5,0.4-0.7c0.1-0.2,0.1-0.4,0.1-0.6
	c0-0.4-0.1-0.8-0.3-1c-0.2-0.2-0.5-0.3-0.9-0.3c-0.3,0-0.5,0.1-0.7,0.2s-0.4,0.3-0.5,0.6c-0.1,0.2-0.2,0.5-0.2,0.8h-2
	c0-0.6,0.1-1.1,0.4-1.6c0.3-0.5,0.7-0.9,1.2-1.2c0.5-0.3,1.1-0.4,1.8-0.4c1,0,1.8,0.2,2.4,0.7s0.8,1.2,0.8,2c0,0.4-0.1,0.9-0.3,1.3
	c-0.2,0.4-0.4,0.8-0.8,1.2c-0.3,0.4-0.7,0.8-1.1,1.3l-1.6,1.7h4.1L28.4,516.9L28.4,516.9z"/>
<rect x="-134.4" y="-142.7" class="st0" width="612" height="792"/>
<rect x="29.7" y="512" class="st33" width="3.8" height="1.6"/>
<rect x="-134.4" y="-142.7" class="st0" width="612" height="792"/>
<path class="st33" d="M42.9,513.7c0,0.7-0.2,1.2-0.5,1.8c-0.3,0.5-0.8,0.9-1.3,1.2c-0.6,0.3-1.2,0.4-2.1,0.4c-0.8,0-1.6-0.2-2.1-0.6
	c-0.6-0.4-1.1-0.9-1.4-1.6c-0.3-0.7-0.5-1.5-0.5-2.5v-0.6c0-1,0.2-1.8,0.5-2.5s0.8-1.2,1.4-1.6c0.6-0.4,1.3-0.6,2.1-0.6
	s1.5,0.2,2.1,0.5s1,0.7,1.3,1.2c0.3,0.5,0.5,1.1,0.6,1.8h-2.1c0-0.6-0.2-1-0.5-1.3s-0.7-0.4-1.4-0.4c-0.4,0-0.8,0.1-1.1,0.3
	c-0.3,0.2-0.5,0.5-0.6,1c-0.1,0.4-0.2,1-0.2,1.7v0.6c0,0.7,0.1,1.2,0.2,1.7s0.3,0.8,0.6,1c0.3,0.2,0.6,0.3,1.1,0.3
	c0.4,0,0.7-0.1,1-0.2s0.5-0.3,0.6-0.5c0.1-0.2,0.2-0.6,0.2-0.9L42.9,513.7L42.9,513.7z"/>
<rect x="-134.4" y="-142.7" class="st0" width="612" height="792"/>
<path class="st33" d="M52.2,512.3c0,1-0.2,1.8-0.5,2.6c-0.4,0.7-0.8,1.3-1.5,1.6c-0.6,0.4-1.3,0.6-2.1,0.6c-0.8,0-1.5-0.2-2.2-0.6
	c-0.6-0.4-1.1-0.9-1.5-1.6s-0.5-1.6-0.5-2.6v-0.4c0-1,0.2-1.8,0.5-2.6s0.8-1.3,1.5-1.6c0.6-0.4,1.4-0.6,2.2-0.6
	c0.8,0,1.5,0.2,2.2,0.6c0.6,0.4,1.1,0.9,1.5,1.6s0.5,1.6,0.5,2.6L52.2,512.3L52.2,512.3z M50,511.9c0-0.7-0.1-1.2-0.2-1.7
	c-0.2-0.5-0.4-0.8-0.7-1c-0.3-0.2-0.7-0.3-1.1-0.3c-0.4,0-0.8,0.1-1.1,0.3s-0.5,0.6-0.7,1s-0.2,1-0.2,1.7v0.4c0,0.7,0.1,1.2,0.2,1.7
	c0.2,0.5,0.4,0.8,0.7,1c0.3,0.2,0.7,0.3,1.1,0.3c0.4,0,0.8-0.1,1.1-0.3s0.5-0.6,0.7-1s0.2-1,0.2-1.7L50,511.9L50,511.9z"/>
<rect x="-134.4" y="-142.7" class="st0" width="612" height="792"/>
<path class="st33" d="M55.6,516.9h-2.1v-9.7h2.1V516.9z M59.8,516.9H55v-1.7h4.9V516.9z"/>
<rect x="-134.4" y="-142.7" class="st0" width="612" height="792"/>
<path class="st33" d="M68.5,512.3c0,1-0.2,1.8-0.5,2.6c-0.4,0.7-0.8,1.3-1.5,1.6c-0.6,0.4-1.3,0.6-2.1,0.6c-0.8,0-1.5-0.2-2.2-0.6
	c-0.6-0.4-1.1-0.9-1.5-1.6s-0.5-1.6-0.5-2.6v-0.4c0-1,0.2-1.8,0.5-2.6s0.8-1.3,1.5-1.6c0.6-0.4,1.4-0.6,2.2-0.6
	c0.8,0,1.5,0.2,2.2,0.6c0.6,0.4,1.1,0.9,1.5,1.6s0.5,1.6,0.5,2.6L68.5,512.3L68.5,512.3z M66.4,511.9c0-0.7-0.1-1.2-0.2-1.7
	c-0.2-0.5-0.4-0.8-0.7-1c-0.3-0.2-0.7-0.3-1.1-0.3c-0.4,0-0.8,0.1-1.1,0.3s-0.5,0.6-0.7,1s-0.2,1-0.2,1.7v0.4c0,0.7,0.1,1.2,0.2,1.7
	c0.2,0.5,0.4,0.8,0.7,1c0.3,0.2,0.7,0.3,1.1,0.3c0.4,0,0.8-0.1,1.1-0.3s0.5-0.6,0.7-1s0.2-1,0.2-1.7L66.4,511.9L66.4,511.9z"/>
<rect x="-134.4" y="-142.7" class="st0" width="612" height="792"/>
<path class="st33" d="M73.5,507.3c0.8,0,1.4,0.1,1.9,0.3c0.5,0.2,0.9,0.5,1.2,1c0.3,0.4,0.4,1,0.4,1.6c0,0.5-0.1,1-0.3,1.4
	c-0.2,0.4-0.4,0.7-0.7,0.9c-0.3,0.2-0.7,0.4-1.1,0.6l-0.7,0.4h-3.1l0-1.7h2.3c0.3,0,0.6-0.1,0.9-0.2c0.2-0.1,0.4-0.3,0.5-0.5
	c0.1-0.2,0.2-0.5,0.2-0.7c0-0.4-0.1-0.8-0.4-1s-0.6-0.4-1.1-0.4H72v8h-2.1v-9.7H73.5z M73,512.6l2.2,0l2.2,4.2v0.1h-2.2L73,512.6z"
	/>
<rect x="-134.4" y="-142.7" class="st0" width="612" height="792"/>
<path class="st33" d="M80.4,516.6c0,0.5-0.1,1-0.4,1.5c-0.2,0.5-0.6,0.9-1,1.3l-1-0.5c0.1-0.2,0.2-0.4,0.3-0.6
	c0.1-0.2,0.2-0.4,0.3-0.7s0.1-0.5,0.1-0.9v-1.5h1.7V516.6z"/>
<rect x="-134.4" y="-142.7" class="st0" width="612" height="792"/>
<polygon class="st33" points="89.9,516.9 87.9,516.9 87.9,509.6 85.7,510.3 85.7,508.7 89.7,507.2 89.9,507.2 "/>
<rect x="-134.4" y="-142.7" class="st0" width="612" height="792"/>
<rect x="93.2" y="512" class="st33" width="3.8" height="1.6"/>
<rect x="-134.4" y="-142.7" class="st0" width="612" height="792"/>
<path class="st33" d="M106.3,513.7c0,0.7-0.2,1.2-0.5,1.8c-0.3,0.5-0.8,0.9-1.3,1.2c-0.6,0.3-1.2,0.4-2.1,0.4
	c-0.8,0-1.6-0.2-2.1-0.6c-0.6-0.4-1.1-0.9-1.4-1.6c-0.3-0.7-0.5-1.5-0.5-2.5v-0.6c0-1,0.2-1.8,0.5-2.5s0.8-1.2,1.4-1.6
	c0.6-0.4,1.3-0.6,2.1-0.6s1.5,0.2,2.1,0.5s1,0.7,1.3,1.2c0.3,0.5,0.5,1.1,0.6,1.8h-2.1c0-0.6-0.2-1-0.5-1.3s-0.7-0.4-1.4-0.4
	c-0.4,0-0.8,0.1-1.1,0.3c-0.3,0.2-0.5,0.5-0.6,1c-0.1,0.4-0.2,1-0.2,1.7v0.6c0,0.7,0.1,1.2,0.2,1.7s0.3,0.8,0.6,1
	c0.3,0.2,0.6,0.3,1.1,0.3c0.4,0,0.7-0.1,1-0.2s0.5-0.3,0.6-0.5c0.1-0.2,0.2-0.6,0.2-0.9L106.3,513.7L106.3,513.7z"/>
<rect x="-134.4" y="-142.7" class="st0" width="612" height="792"/>
<path class="st33" d="M115.6,512.3c0,1-0.2,1.8-0.5,2.6c-0.4,0.7-0.8,1.3-1.5,1.6c-0.6,0.4-1.3,0.6-2.1,0.6c-0.8,0-1.5-0.2-2.2-0.6
	c-0.6-0.4-1.1-0.9-1.5-1.6s-0.5-1.6-0.5-2.6v-0.4c0-1,0.2-1.8,0.5-2.6s0.8-1.3,1.5-1.6c0.6-0.4,1.4-0.6,2.2-0.6
	c0.8,0,1.5,0.2,2.2,0.6c0.6,0.4,1.1,0.9,1.5,1.6s0.5,1.6,0.5,2.6L115.6,512.3L115.6,512.3z M113.5,511.9c0-0.7-0.1-1.2-0.2-1.7
	c-0.2-0.5-0.4-0.8-0.7-1c-0.3-0.2-0.7-0.3-1.1-0.3c-0.4,0-0.8,0.1-1.1,0.3s-0.5,0.6-0.7,1s-0.2,1-0.2,1.7v0.4c0,0.7,0.1,1.2,0.2,1.7
	c0.2,0.5,0.4,0.8,0.7,1c0.3,0.2,0.7,0.3,1.1,0.3c0.4,0,0.8-0.1,1.1-0.3s0.5-0.6,0.7-1s0.2-1,0.2-1.7L113.5,511.9L113.5,511.9z"/>
<rect x="-134.4" y="-142.7" class="st0" width="612" height="792"/>
<path class="st33" d="M119.1,516.9H117v-9.7h2.1V516.9z M123.3,516.9h-4.9v-1.7h4.9V516.9z"/>
<rect x="-134.4" y="-142.7" class="st0" width="612" height="792"/>
<path class="st33" d="M131.9,512.3c0,1-0.2,1.8-0.5,2.6c-0.4,0.7-0.8,1.3-1.5,1.6c-0.6,0.4-1.3,0.6-2.1,0.6c-0.8,0-1.5-0.2-2.2-0.6
	c-0.6-0.4-1.1-0.9-1.5-1.6s-0.5-1.6-0.5-2.6v-0.4c0-1,0.2-1.8,0.5-2.6s0.8-1.3,1.5-1.6c0.6-0.4,1.4-0.6,2.2-0.6
	c0.8,0,1.5,0.2,2.2,0.6c0.6,0.4,1.1,0.9,1.5,1.6s0.5,1.6,0.5,2.6L131.9,512.3L131.9,512.3z M129.8,511.9c0-0.7-0.1-1.2-0.2-1.7
	c-0.2-0.5-0.4-0.8-0.7-1c-0.3-0.2-0.7-0.3-1.1-0.3c-0.4,0-0.8,0.1-1.1,0.3s-0.5,0.6-0.7,1s-0.2,1-0.2,1.7v0.4c0,0.7,0.1,1.2,0.2,1.7
	c0.2,0.5,0.4,0.8,0.7,1c0.3,0.2,0.7,0.3,1.1,0.3c0.4,0,0.8-0.1,1.1-0.3c0.3-0.2,0.5-0.6,0.7-1s0.2-1,0.2-1.7L129.8,511.9
	L129.8,511.9z"/>
<rect x="-134.4" y="-142.7" class="st0" width="612" height="792"/>
<path class="st33" d="M137,507.3c0.8,0,1.4,0.1,1.9,0.3c0.5,0.2,1,0.5,1.2,1c0.3,0.4,0.4,1,0.4,1.6c0,0.5-0.1,1-0.3,1.4
	c-0.2,0.4-0.4,0.7-0.7,0.9c-0.3,0.2-0.7,0.4-1.1,0.6l-0.7,0.4h-3.1l0-1.7h2.3c0.3,0,0.6-0.1,0.9-0.2s0.4-0.3,0.5-0.5
	c0.1-0.2,0.2-0.5,0.2-0.7c0-0.4-0.1-0.8-0.4-1s-0.6-0.4-1.1-0.4h-1.5v8h-2.1v-9.7H137z M136.5,512.6l2.2,0l2.2,4.2v0.1h-2.2
	L136.5,512.6z"/>
<rect x="-134.4" y="-142.7" class="st0" width="612" height="792"/>
<path class="st33" d="M145.4,513c0-0.9,0.1-1.8,0.3-2.5c0.2-0.8,0.5-1.4,0.8-2c0.3-0.6,0.7-1,1.1-1.4c0.4-0.4,0.8-0.7,1.2-0.8
	l0.4,1.1c-0.2,0.2-0.5,0.4-0.7,0.8c-0.2,0.3-0.5,0.7-0.7,1.2c-0.2,0.5-0.4,1-0.5,1.6c-0.1,0.6-0.2,1.3-0.2,2.1v0.2
	c0,0.8,0.1,1.5,0.2,2.2c0.1,0.6,0.3,1.2,0.5,1.6c0.2,0.5,0.4,0.8,0.7,1.2s0.5,0.6,0.7,0.8l-0.4,1.1c-0.4-0.2-0.8-0.4-1.2-0.8
	s-0.8-0.9-1.1-1.4s-0.6-1.2-0.8-2c-0.2-0.8-0.3-1.6-0.3-2.5V513z"/>
<rect x="-134.4" y="-142.7" class="st0" width="612" height="792"/>
<path class="st33" d="M151.6,512.7l0-1.5h2.1c0.5,0,0.9-0.1,1.2-0.3c0.2-0.2,0.4-0.5,0.4-0.9c0-0.4-0.1-0.7-0.4-0.9
	s-0.6-0.3-1.2-0.3h-1.3v8h-2.1v-9.7h3.4c1.1,0,2,0.2,2.7,0.7c0.6,0.4,1,1.1,1,2c0,0.4-0.1,0.8-0.3,1.1c-0.2,0.3-0.5,0.6-0.9,0.8
	c-0.4,0.2-0.9,0.3-1.5,0.3l-0.6,0.5L151.6,512.7L151.6,512.7z M151,516.9l0.8-1.7h2.1c0.5,0,0.9-0.1,1.1-0.3
	c0.2-0.2,0.4-0.5,0.4-0.8c0-0.3,0-0.5-0.1-0.7c-0.1-0.2-0.2-0.3-0.4-0.5c-0.2-0.1-0.5-0.2-0.8-0.2h-1.9l0-1.5h2.4l0.5,0.6
	c0.6,0,1.1,0.1,1.4,0.3c0.4,0.2,0.6,0.5,0.8,0.8s0.2,0.7,0.2,1.1c0,0.9-0.3,1.7-0.9,2.1c-0.6,0.5-1.5,0.7-2.6,0.7L151,516.9
	L151,516.9z"/>
<rect x="-134.4" y="-142.7" class="st0" width="612" height="792"/>
<path class="st33" d="M161,516.9h-2.1v-9.7h2.1V516.9z M165.2,516.9h-4.9v-1.7h4.9V516.9z"/>
<rect x="-134.4" y="-142.7" class="st0" width="612" height="792"/>
<path class="st33" d="M167.9,516.9h-2.2l3.6-9.7h1.4l-0.2,1.8L167.9,516.9z M172.5,515h-5.1v-1.7h5.1V515z M170,509.1l-0.2-1.8h1.4
	l3.6,9.7h-2.2L170,509.1z"/>
<rect x="-134.4" y="-142.7" class="st0" width="612" height="792"/>
<path class="st33" d="M183.3,513.7c0,0.7-0.2,1.2-0.5,1.8s-0.8,0.9-1.3,1.2c-0.6,0.3-1.2,0.4-2,0.4c-0.8,0-1.5-0.2-2.1-0.6
	s-1.1-0.9-1.4-1.6s-0.5-1.5-0.5-2.5v-0.6c0-1,0.2-1.8,0.5-2.5s0.8-1.2,1.4-1.6c0.6-0.4,1.3-0.6,2.1-0.6s1.5,0.2,2.1,0.5
	s1,0.7,1.3,1.2c0.3,0.5,0.5,1.1,0.5,1.8h-2.1c0-0.6-0.2-1-0.5-1.3c-0.3-0.3-0.7-0.4-1.4-0.4c-0.4,0-0.8,0.1-1.1,0.3s-0.5,0.5-0.6,1
	c-0.1,0.4-0.2,1-0.2,1.7v0.6c0,0.7,0.1,1.2,0.2,1.7s0.3,0.8,0.6,1c0.3,0.2,0.6,0.3,1.1,0.3c0.4,0,0.7-0.1,1-0.2s0.5-0.3,0.6-0.5
	c0.1-0.2,0.2-0.6,0.2-0.9L183.3,513.7L183.3,513.7z"/>
<rect x="-134.4" y="-142.7" class="st0" width="612" height="792"/>
<path class="st33" d="M186.7,516.9h-2.1v-9.7h2.1V516.9z M188.7,512.1l-2.2,2.4l-0.4-2l1.5-2.1l2.4-3.1h2.6L188.7,512.1z
	 M187.3,512.5l1.5-1.3l3.7,5.7h-2.5L187.3,512.5z"/>
<rect x="-134.4" y="-142.7" class="st0" width="612" height="792"/>
<path class="st33" d="M196.5,513.2c0,0.9-0.1,1.7-0.3,2.5c-0.2,0.8-0.5,1.4-0.8,2c-0.3,0.6-0.7,1.1-1.1,1.5
	c-0.4,0.4-0.8,0.7-1.2,0.8l-0.4-1.1c0.2-0.2,0.5-0.4,0.7-0.8c0.2-0.3,0.5-0.7,0.6-1.2c0.2-0.5,0.4-1,0.5-1.6
	c0.1-0.6,0.2-1.3,0.2-2.2V513c0-0.8-0.1-1.5-0.2-2.1s-0.3-1.2-0.5-1.7c-0.2-0.5-0.4-0.9-0.7-1.2s-0.5-0.6-0.7-0.8l0.4-1.1
	c0.4,0.2,0.8,0.4,1.2,0.8c0.4,0.4,0.8,0.9,1.1,1.5c0.3,0.6,0.6,1.3,0.8,2c0.2,0.8,0.3,1.6,0.3,2.5L196.5,513.2L196.5,513.2z"/>
<rect x="-134.4" y="-142.7" class="st0" width="612" height="792"/>
<path class="st33" d="M199.8,516.6c0,0.5-0.1,1-0.4,1.5c-0.2,0.5-0.6,0.9-1,1.3l-1-0.5c0.1-0.2,0.2-0.4,0.3-0.6
	c0.1-0.2,0.2-0.4,0.3-0.7c0.1-0.2,0.1-0.5,0.1-0.9v-1.5h1.7L199.8,516.6z"/>
<rect x="-134.4" y="-142.7" class="st0" width="612" height="792"/>
<path class="st33" d="M211.3,516.9h-6.7v-1.4l3.1-3.3c0.3-0.3,0.6-0.6,0.7-0.9c0.2-0.2,0.3-0.5,0.4-0.7c0.1-0.2,0.1-0.4,0.1-0.6
	c0-0.4-0.1-0.8-0.3-1s-0.5-0.3-0.9-0.3c-0.3,0-0.5,0.1-0.7,0.2s-0.4,0.3-0.5,0.6c-0.1,0.2-0.2,0.5-0.2,0.8h-2c0-0.6,0.1-1.1,0.4-1.6
	c0.3-0.5,0.7-0.9,1.2-1.2s1.1-0.4,1.8-0.4c1,0,1.8,0.2,2.4,0.7c0.5,0.5,0.8,1.2,0.8,2c0,0.4-0.1,0.9-0.3,1.3
	c-0.2,0.4-0.4,0.8-0.8,1.2c-0.3,0.4-0.7,0.8-1.1,1.3l-1.6,1.7h4.1L211.3,516.9L211.3,516.9z"/>
<rect x="-134.4" y="-142.7" class="st0" width="612" height="792"/>
<rect x="212.6" y="512" class="st33" width="3.8" height="1.6"/>
<rect x="-134.4" y="-142.7" class="st0" width="612" height="792"/>
<path class="st33" d="M225.8,513.7c0,0.7-0.2,1.2-0.5,1.8s-0.8,0.9-1.3,1.2c-0.6,0.3-1.2,0.4-2,0.4c-0.8,0-1.5-0.2-2.1-0.6
	s-1.1-0.9-1.4-1.6s-0.5-1.5-0.5-2.5v-0.6c0-1,0.2-1.8,0.5-2.5s0.8-1.2,1.4-1.6s1.3-0.6,2.1-0.6s1.5,0.2,2.1,0.5s1,0.7,1.3,1.2
	c0.3,0.5,0.5,1.1,0.5,1.8h-2.1c0-0.6-0.2-1-0.5-1.3s-0.7-0.4-1.4-0.4c-0.4,0-0.8,0.1-1.1,0.3s-0.5,0.5-0.6,1c-0.1,0.4-0.2,1-0.2,1.7
	v0.6c0,0.7,0.1,1.2,0.2,1.7s0.3,0.8,0.6,1c0.3,0.2,0.6,0.3,1.1,0.3c0.4,0,0.7-0.1,1-0.2c0.3-0.1,0.5-0.3,0.6-0.5
	c0.1-0.2,0.2-0.6,0.2-0.9L225.8,513.7L225.8,513.7z"/>
<rect x="-134.4" y="-142.7" class="st0" width="612" height="792"/>
<path class="st33" d="M235.1,512.3c0,1-0.2,1.8-0.5,2.6c-0.4,0.7-0.8,1.3-1.5,1.6c-0.6,0.4-1.3,0.6-2.1,0.6c-0.8,0-1.5-0.2-2.2-0.6
	c-0.6-0.4-1.1-0.9-1.5-1.6c-0.4-0.7-0.5-1.6-0.5-2.6v-0.4c0-1,0.2-1.8,0.5-2.6s0.8-1.3,1.5-1.6c0.6-0.4,1.4-0.6,2.2-0.6
	s1.5,0.2,2.2,0.6c0.6,0.4,1.1,0.9,1.5,1.6s0.5,1.6,0.5,2.6L235.1,512.3L235.1,512.3z M233,511.9c0-0.7-0.1-1.2-0.2-1.7
	c-0.2-0.5-0.4-0.8-0.7-1c-0.3-0.2-0.7-0.3-1.1-0.3c-0.4,0-0.8,0.1-1.1,0.3s-0.5,0.6-0.7,1s-0.2,1-0.2,1.7v0.4c0,0.7,0.1,1.2,0.2,1.7
	c0.2,0.5,0.4,0.8,0.7,1c0.3,0.2,0.7,0.3,1.1,0.3c0.4,0,0.8-0.1,1.1-0.3c0.3-0.2,0.5-0.6,0.7-1s0.2-1,0.2-1.7L233,511.9L233,511.9z"
	/>
<rect x="-134.4" y="-142.7" class="st0" width="612" height="792"/>
<path class="st33" d="M238.6,516.9h-2.1v-9.7h2.1V516.9z M242.8,516.9h-4.9v-1.7h4.9V516.9z"/>
<rect x="-134.4" y="-142.7" class="st0" width="612" height="792"/>
<path class="st33" d="M251.4,512.3c0,1-0.2,1.8-0.5,2.6c-0.4,0.7-0.8,1.3-1.5,1.6c-0.6,0.4-1.3,0.6-2.1,0.6c-0.8,0-1.5-0.2-2.2-0.6
	c-0.6-0.4-1.1-0.9-1.5-1.6c-0.4-0.7-0.5-1.6-0.5-2.6v-0.4c0-1,0.2-1.8,0.5-2.6s0.8-1.3,1.5-1.6c0.6-0.4,1.4-0.6,2.2-0.6
	s1.5,0.2,2.2,0.6c0.6,0.4,1.1,0.9,1.5,1.6s0.5,1.6,0.5,2.6L251.4,512.3L251.4,512.3z M249.3,511.9c0-0.7-0.1-1.2-0.2-1.7
	c-0.2-0.5-0.4-0.8-0.7-1c-0.3-0.2-0.7-0.3-1.1-0.3c-0.4,0-0.8,0.1-1.1,0.3s-0.5,0.6-0.7,1s-0.2,1-0.2,1.7v0.4c0,0.7,0.1,1.2,0.2,1.7
	c0.2,0.5,0.4,0.8,0.7,1c0.3,0.2,0.7,0.3,1.1,0.3c0.4,0,0.8-0.1,1.1-0.3c0.3-0.2,0.5-0.6,0.7-1s0.2-1,0.2-1.7L249.3,511.9
	L249.3,511.9z"/>
<rect x="-134.4" y="-142.7" class="st0" width="612" height="792"/>
<path class="st33" d="M256.4,507.3c0.8,0,1.4,0.1,1.9,0.3c0.5,0.2,1,0.5,1.2,1c0.3,0.4,0.4,1,0.4,1.6c0,0.5-0.1,1-0.3,1.4
	c-0.2,0.4-0.4,0.7-0.7,0.9s-0.7,0.4-1.1,0.6l-0.7,0.4h-3.1l0-1.7h2.3c0.3,0,0.6-0.1,0.8-0.2c0.2-0.1,0.4-0.3,0.5-0.5
	c0.1-0.2,0.2-0.5,0.2-0.7c0-0.4-0.1-0.8-0.4-1s-0.6-0.4-1.1-0.4h-1.6v8h-2.1v-9.7H256.4z M256,512.6l2.2,0l2.2,4.2v0.1h-2.2
	L256,512.6z"/>
<rect x="-134.4" y="-142.7" class="st0" width="612" height="792"/>
<path class="st33" d="M268.6,507.3c0.8,0,1.4,0.1,1.9,0.3c0.5,0.2,1,0.5,1.2,1c0.3,0.4,0.4,1,0.4,1.6c0,0.5-0.1,1-0.3,1.4
	c-0.2,0.4-0.4,0.7-0.7,0.9s-0.7,0.4-1.1,0.6l-0.7,0.4h-3.1l0-1.7h2.3c0.3,0,0.6-0.1,0.8-0.2c0.2-0.1,0.4-0.3,0.5-0.5
	c0.1-0.2,0.2-0.5,0.2-0.7c0-0.4-0.1-0.8-0.4-1s-0.6-0.4-1.1-0.4H267v8h-2.1v-9.7H268.6z M268.1,512.6l2.2,0l2.2,4.2v0.1h-2.2
	L268.1,512.6z"/>
<rect x="-134.4" y="-142.7" class="st0" width="612" height="792"/>
<path class="st33" d="M275.7,516.9h-2.1v-9.7h2.1V516.9z M280.1,508.9H275v-1.7h5.1V508.9z M279.5,512.8H275v-1.6h4.5V512.8z
	 M280.2,516.9H275v-1.7h5.1V516.9z"/>
<rect x="-134.4" y="-142.7" class="st0" width="612" height="792"/>
<path class="st33" d="M285.2,514.8l0.3,2.2H284l-3.3-9.7h2.3L285.2,514.8z M287.2,507.3h2.3l-3.3,9.7h-1.5l0.3-2.2L287.2,507.3z"/>
<g>
	<defs>
		<rect id="SVGID_00000025431584706229347660000016452422652553263247_" x="-134.4" y="-142.7" width="612" height="792"/>
	</defs>
	<clipPath id="SVGID_00000008111775908021112530000007460476106630724265_">
		<use xlink:href="#SVGID_00000025431584706229347660000016452422652553263247_"  style="overflow:visible;"/>
	</clipPath>
	<path style="clip-path:url(#SVGID_00000008111775908021112530000007460476106630724265_);fill:#939598;" d="M292.5,516.9h-2.1v-9.7
		h2.1V516.9z M296.9,508.9h-5.1v-1.7h5.1V508.9z M296.3,512.8h-4.5v-1.6h4.5V512.8z M297,516.9h-5.1v-1.7h5.1V516.9z"/>
</g>
<g>
	<defs>
		<rect id="SVGID_00000031165573497785497200000002679643912350370205_" x="-134.4" y="-142.7" width="612" height="792"/>
	</defs>
	<clipPath id="SVGID_00000054947046316186572340000011717376390439637167_">
		<use xlink:href="#SVGID_00000031165573497785497200000002679643912350370205_"  style="overflow:visible;"/>
	</clipPath>
	<path style="clip-path:url(#SVGID_00000054947046316186572340000011717376390439637167_);fill:#939598;" d="M301.7,507.3
		c0.8,0,1.4,0.1,1.9,0.3c0.5,0.2,1,0.5,1.2,1c0.3,0.4,0.4,1,0.4,1.6c0,0.5-0.1,1-0.3,1.4c-0.2,0.4-0.4,0.7-0.7,0.9s-0.7,0.4-1.1,0.6
		l-0.7,0.4h-3.1l0-1.7h2.3c0.3,0,0.6-0.1,0.8-0.2c0.2-0.1,0.4-0.3,0.5-0.5c0.1-0.2,0.2-0.5,0.2-0.7c0-0.4-0.1-0.8-0.4-1
		s-0.6-0.4-1.1-0.4h-1.6v8h-2.1v-9.7H301.7z M301.3,512.6l2.2,0l2.2,4.2v0.1h-2.2L301.3,512.6z"/>
</g>
<g>
	<defs>
		<rect id="SVGID_00000003085529331052295230000010285760323176103305_" x="-134.4" y="-142.7" width="612" height="792"/>
	</defs>
	<clipPath id="SVGID_00000088832155495364472610000000634344709626227865_">
		<use xlink:href="#SVGID_00000003085529331052295230000010285760323176103305_"  style="overflow:visible;"/>
	</clipPath>
	<path style="clip-path:url(#SVGID_00000088832155495364472610000000634344709626227865_);fill:#939598;" d="M311.8,514.4
		c0-0.2,0-0.4-0.1-0.6c-0.1-0.2-0.3-0.3-0.5-0.5c-0.3-0.1-0.6-0.3-1.2-0.5c-0.4-0.1-0.9-0.3-1.2-0.5c-0.4-0.2-0.7-0.4-1-0.6
		c-0.3-0.2-0.5-0.5-0.7-0.8c-0.2-0.3-0.3-0.7-0.3-1.1c0-0.5,0.1-1,0.5-1.4c0.3-0.4,0.7-0.7,1.3-1c0.5-0.2,1.2-0.3,1.9-0.3
		c0.7,0,1.3,0.1,1.9,0.4s1,0.6,1.2,1c0.3,0.5,0.4,1,0.4,1.6h-2.1c0-0.3-0.1-0.5-0.2-0.7c-0.1-0.2-0.3-0.4-0.5-0.5s-0.5-0.2-0.9-0.2
		c-0.3,0-0.6,0-0.8,0.2c-0.2,0.1-0.4,0.2-0.5,0.4c-0.1,0.2-0.2,0.3-0.2,0.5c0,0.2,0.1,0.4,0.2,0.5c0.1,0.2,0.4,0.3,0.6,0.4
		c0.3,0.1,0.6,0.3,1,0.4c0.7,0.2,1.3,0.5,1.8,0.8c0.5,0.3,0.8,0.6,1.1,1s0.4,0.9,0.4,1.4c0,0.6-0.1,1-0.4,1.5
		c-0.3,0.4-0.7,0.7-1.2,0.9c-0.5,0.2-1.1,0.3-1.9,0.3c-0.5,0-1-0.1-1.4-0.2s-0.9-0.3-1.3-0.6c-0.4-0.3-0.7-0.6-0.9-1
		s-0.3-0.9-0.3-1.4h2.1c0,0.3,0,0.5,0.1,0.7c0.1,0.2,0.2,0.4,0.4,0.5s0.4,0.2,0.6,0.3c0.2,0.1,0.5,0.1,0.8,0.1c0.3,0,0.6,0,0.8-0.1
		c0.2-0.1,0.4-0.2,0.5-0.4C311.7,514.7,311.8,514.6,311.8,514.4"/>
</g>
<g>
	<defs>
		<rect id="SVGID_00000155835333528726294500000000906278367193455790_" x="-134.4" y="-142.7" width="612" height="792"/>
	</defs>
	<clipPath id="SVGID_00000033340997854625097230000018307331542066390158_">
		<use xlink:href="#SVGID_00000155835333528726294500000000906278367193455790_"  style="overflow:visible;"/>
	</clipPath>
	<path style="clip-path:url(#SVGID_00000033340997854625097230000018307331542066390158_);fill:#939598;" d="M317.3,516.9h-2.1v-9.7
		h2.1V516.9z M321.7,508.9h-5.1v-1.7h5.1V508.9z M321.1,512.8h-4.5v-1.6h4.5V512.8z M321.7,516.9h-5.1v-1.7h5.1V516.9z"/>
</g>
<rect x="-134.4" y="-142.7" class="st0" width="612" height="792"/>
<path class="st32" d="M44.8,549.6h-2.1v-9.7h2.1V549.6z M43.6,549.6l0-1.7h2.1c0.5,0,0.9-0.1,1.3-0.3c0.4-0.2,0.6-0.6,0.8-1
	s0.3-1,0.3-1.6v-0.4c0-0.6-0.1-1.2-0.3-1.6c-0.2-0.4-0.4-0.8-0.8-1c-0.4-0.2-0.8-0.3-1.3-0.3h-2.1v-1.7h2.1c0.9,0,1.6,0.2,2.3,0.6
	c0.7,0.4,1.2,0.9,1.6,1.6c0.4,0.7,0.6,1.5,0.6,2.4v0.4c0,0.9-0.2,1.7-0.6,2.4s-0.9,1.2-1.6,1.6c-0.7,0.4-1.4,0.6-2.3,0.6H43.6z"/>
<rect x="-134.4" y="-142.7" class="st0" width="612" height="792"/>
<path class="st32" d="M53.6,549.6h-2.1v-9.7h2.1V549.6z M58.1,541.6H53v-1.7h5.1V541.6z M57.4,545.4H53v-1.6h4.4V545.4z M58.1,549.6
	H53v-1.7h5.1V549.6z"/>
<rect x="-134.4" y="-142.7" class="st0" width="612" height="792"/>
<path class="st32" d="M64.2,547c0-0.2-0.1-0.4-0.1-0.6c-0.1-0.2-0.3-0.3-0.5-0.5c-0.3-0.1-0.6-0.3-1.2-0.5c-0.4-0.1-0.9-0.3-1.2-0.5
	s-0.7-0.4-1-0.6c-0.3-0.2-0.5-0.5-0.7-0.8c-0.2-0.3-0.3-0.7-0.3-1.1c0-0.5,0.1-1,0.5-1.4c0.3-0.4,0.7-0.7,1.3-1s1.2-0.3,1.9-0.3
	c0.7,0,1.3,0.1,1.9,0.4c0.5,0.2,0.9,0.6,1.2,1c0.3,0.5,0.4,1,0.4,1.6h-2.1c0-0.3-0.1-0.5-0.2-0.7c-0.1-0.2-0.3-0.4-0.5-0.5
	s-0.5-0.2-0.9-0.2c-0.3,0-0.6,0-0.8,0.2c-0.2,0.1-0.4,0.2-0.5,0.4c-0.1,0.2-0.2,0.3-0.2,0.5c0,0.2,0.1,0.4,0.2,0.5
	c0.1,0.2,0.4,0.3,0.6,0.4s0.6,0.3,1,0.4c0.7,0.2,1.3,0.5,1.8,0.8s0.8,0.6,1.1,1s0.4,0.9,0.4,1.4c0,0.6-0.1,1-0.4,1.5
	c-0.3,0.4-0.7,0.7-1.2,0.9c-0.5,0.2-1.1,0.3-1.9,0.3c-0.5,0-1-0.1-1.4-0.2c-0.5-0.1-0.9-0.3-1.3-0.6s-0.7-0.6-0.9-1
	c-0.2-0.4-0.3-0.9-0.3-1.4h2.1c0,0.3,0,0.5,0.1,0.7c0.1,0.2,0.2,0.4,0.4,0.5c0.2,0.1,0.4,0.2,0.6,0.3s0.5,0.1,0.8,0.1
	c0.3,0,0.6,0,0.8-0.1c0.2-0.1,0.4-0.2,0.5-0.4C64.1,547.4,64.2,547.2,64.2,547"/>
<rect x="-134.4" y="-142.7" class="st0" width="612" height="792"/>
<rect x="67.7" y="539.9" class="st32" width="2.1" height="9.7"/>
<rect x="-134.4" y="-142.7" class="st0" width="612" height="792"/>
<path class="st32" d="M79.3,548.4c-0.1,0.2-0.4,0.4-0.7,0.6s-0.7,0.4-1.2,0.5c-0.5,0.2-1.1,0.2-1.8,0.2c-0.8,0-1.6-0.2-2.2-0.5
	c-0.6-0.4-1.1-0.9-1.5-1.6c-0.4-0.7-0.5-1.5-0.5-2.5v-0.5c0-1,0.2-1.8,0.5-2.5s0.8-1.2,1.4-1.6c0.6-0.4,1.3-0.5,2.1-0.5
	c0.9,0,1.6,0.1,2.1,0.4c0.6,0.3,1,0.7,1.2,1.2c0.3,0.5,0.5,1,0.5,1.7h-2c0-0.3-0.1-0.6-0.3-0.8c-0.1-0.2-0.3-0.4-0.6-0.5
	s-0.6-0.2-0.9-0.2c-0.4,0-0.8,0.1-1.1,0.3c-0.3,0.2-0.5,0.6-0.7,1s-0.2,1-0.2,1.7v0.6c0,0.7,0.1,1.2,0.2,1.7c0.2,0.5,0.4,0.8,0.8,1
	s0.7,0.3,1.2,0.3c0.3,0,0.6,0,0.8-0.1s0.4-0.1,0.5-0.2c0.1-0.1,0.2-0.1,0.3-0.2V546h-1.8v-1.5h3.9L79.3,548.4L79.3,548.4z"/>
<rect x="-134.4" y="-142.7" class="st0" width="612" height="792"/>
<polygon class="st32" points="88.8,549.6 86.7,549.6 83,543.4 83,549.6 80.9,549.6 80.9,539.9 83,539.9 86.7,546.2 86.7,539.9 
	88.8,539.9 "/>
<rect x="-134.4" y="-142.7" class="st0" width="612" height="792"/>
<path class="st32" d="M101.5,546.4c0,0.7-0.2,1.2-0.5,1.8c-0.3,0.5-0.8,0.9-1.3,1.2c-0.6,0.3-1.2,0.4-2.1,0.4
	c-0.8,0-1.6-0.2-2.1-0.6c-0.6-0.4-1.1-0.9-1.4-1.6c-0.3-0.7-0.5-1.5-0.5-2.5v-0.6c0-1,0.2-1.8,0.5-2.5s0.8-1.2,1.4-1.6
	c0.6-0.4,1.3-0.6,2.1-0.6s1.5,0.2,2.1,0.5s1,0.7,1.3,1.2c0.3,0.5,0.5,1.1,0.6,1.8h-2.1c0-0.6-0.2-1-0.5-1.3s-0.7-0.4-1.4-0.4
	c-0.4,0-0.8,0.1-1.1,0.3c-0.3,0.2-0.5,0.5-0.6,1c-0.1,0.4-0.2,1-0.2,1.7v0.6c0,0.7,0.1,1.2,0.2,1.7s0.3,0.8,0.6,1
	c0.3,0.2,0.6,0.3,1.1,0.3c0.4,0,0.7-0.1,1-0.2s0.5-0.3,0.6-0.5c0.1-0.2,0.2-0.6,0.2-0.9L101.5,546.4L101.5,546.4z"/>
<rect x="-134.4" y="-142.7" class="st0" width="612" height="792"/>
<path class="st32" d="M110.8,545c0,1-0.2,1.8-0.5,2.6c-0.4,0.7-0.8,1.3-1.5,1.6c-0.6,0.4-1.3,0.6-2.1,0.6c-0.8,0-1.5-0.2-2.2-0.6
	s-1.1-0.9-1.5-1.6s-0.5-1.6-0.5-2.6v-0.4c0-1,0.2-1.8,0.5-2.6s0.8-1.3,1.5-1.6c0.6-0.4,1.4-0.6,2.2-0.6c0.8,0,1.5,0.2,2.2,0.6
	c0.6,0.4,1.1,0.9,1.5,1.6s0.5,1.6,0.5,2.6L110.8,545L110.8,545z M108.7,544.6c0-0.7-0.1-1.2-0.2-1.7s-0.4-0.8-0.7-1
	c-0.3-0.2-0.7-0.3-1.1-0.3c-0.4,0-0.8,0.1-1.1,0.3c-0.3,0.2-0.5,0.6-0.7,1s-0.2,1-0.2,1.7v0.4c0,0.7,0.1,1.2,0.2,1.7
	c0.2,0.5,0.4,0.8,0.7,1c0.3,0.2,0.7,0.3,1.1,0.3c0.4,0,0.8-0.1,1.1-0.3s0.5-0.6,0.7-1s0.2-1,0.2-1.7L108.7,544.6L108.7,544.6z"/>
<rect x="-134.4" y="-142.7" class="st0" width="612" height="792"/>
<polygon class="st32" points="120.1,549.6 118,549.6 114.3,543.4 114.3,549.6 112.2,549.6 112.2,539.9 114.3,539.9 118.1,546.2 
	118.1,539.9 120.1,539.9 "/>
<rect x="-134.4" y="-142.7" class="st0" width="612" height="792"/>
<path class="st32" d="M126.8,547c0-0.2,0-0.4-0.1-0.6c-0.1-0.2-0.3-0.3-0.5-0.5c-0.3-0.1-0.6-0.3-1.2-0.5c-0.4-0.1-0.9-0.3-1.2-0.5
	c-0.4-0.2-0.7-0.4-1-0.6c-0.3-0.2-0.5-0.5-0.7-0.8c-0.2-0.3-0.3-0.7-0.3-1.1c0-0.5,0.1-1,0.5-1.4c0.3-0.4,0.7-0.7,1.3-1
	c0.5-0.2,1.2-0.3,1.9-0.3c0.7,0,1.3,0.1,1.9,0.4s1,0.6,1.2,1s0.4,1,0.4,1.6h-2.1c0-0.3-0.1-0.5-0.2-0.7c-0.1-0.2-0.3-0.4-0.5-0.5
	s-0.5-0.2-0.9-0.2c-0.3,0-0.6,0-0.8,0.2c-0.2,0.1-0.4,0.2-0.5,0.4c-0.1,0.2-0.2,0.3-0.2,0.5c0,0.2,0.1,0.4,0.2,0.5
	c0.1,0.2,0.4,0.3,0.6,0.4c0.3,0.1,0.6,0.3,1,0.4c0.7,0.2,1.3,0.5,1.8,0.8c0.5,0.3,0.8,0.6,1.1,1s0.4,0.9,0.4,1.4
	c0,0.6-0.1,1-0.4,1.5c-0.3,0.4-0.7,0.7-1.2,0.9c-0.5,0.2-1.1,0.3-1.9,0.3c-0.5,0-1-0.1-1.4-0.2s-0.9-0.3-1.3-0.6s-0.7-0.6-0.9-1
	c-0.2-0.4-0.3-0.9-0.3-1.4h2.1c0,0.3,0,0.5,0.1,0.7c0.1,0.2,0.2,0.4,0.4,0.5s0.4,0.2,0.6,0.3c0.2,0.1,0.5,0.1,0.8,0.1
	c0.3,0,0.6,0,0.8-0.1s0.4-0.2,0.5-0.4C126.8,547.4,126.8,547.2,126.8,547"/>
<rect x="-134.4" y="-142.7" class="st0" width="612" height="792"/>
<rect x="130.3" y="539.9" class="st32" width="2.1" height="9.7"/>
<rect x="-134.4" y="-142.7" class="st0" width="612" height="792"/>
<path class="st32" d="M136.3,549.6h-2.1v-9.7h2.1V549.6z M135.1,549.6l0-1.7h2.1c0.5,0,0.9-0.1,1.3-0.3c0.4-0.2,0.6-0.6,0.8-1
	c0.2-0.4,0.3-1,0.3-1.6v-0.4c0-0.6-0.1-1.2-0.3-1.6s-0.4-0.8-0.8-1c-0.4-0.2-0.8-0.3-1.3-0.3h-2.1v-1.7h2.1c0.9,0,1.6,0.2,2.3,0.6
	c0.7,0.4,1.2,0.9,1.6,1.6c0.4,0.7,0.6,1.5,0.6,2.4v0.4c0,0.9-0.2,1.7-0.6,2.4s-0.9,1.2-1.6,1.6c-0.7,0.4-1.4,0.6-2.3,0.6H135.1z"/>
<rect x="-134.4" y="-142.7" class="st0" width="612" height="792"/>
<path class="st32" d="M145.2,549.6h-2.1v-9.7h2.1V549.6z M149.6,541.6h-5.1v-1.7h5.1V541.6z M148.9,545.4h-4.5v-1.6h4.5V545.4z
	 M149.6,549.6h-5.1v-1.7h5.1V549.6z"/>
<rect x="-134.4" y="-142.7" class="st0" width="612" height="792"/>
<path class="st32" d="M154.4,539.9c0.8,0,1.4,0.1,1.9,0.3c0.5,0.2,1,0.5,1.2,1c0.3,0.4,0.4,1,0.4,1.6c0,0.5-0.1,1-0.3,1.4
	c-0.2,0.4-0.4,0.7-0.7,0.9c-0.3,0.2-0.7,0.4-1.1,0.6l-0.7,0.4h-3.1l0-1.7h2.3c0.3,0,0.6-0.1,0.9-0.2s0.4-0.3,0.5-0.5
	c0.1-0.2,0.2-0.5,0.2-0.7c0-0.4-0.1-0.8-0.4-1s-0.6-0.4-1.1-0.4h-1.5v8h-2.1v-9.7H154.4z M153.9,545.3l2.2,0l2.2,4.2v0.1h-2.2
	L153.9,545.3z"/>
<rect x="-134.4" y="-142.7" class="st0" width="612" height="792"/>
<path class="st32" d="M160.9,549.6h-2.2l3.6-9.7h1.4l-0.2,1.8L160.9,549.6z M165.5,547.7h-5.1V546h5.1V547.7z M163,541.8l-0.2-1.8
	h1.4l3.6,9.7h-2.2L163,541.8z"/>
<rect x="-134.4" y="-142.7" class="st0" width="612" height="792"/>
<path class="st32" d="M175.2,541.6h-7.9v-1.7h7.9V541.6z M172.3,549.6h-2.1v-9.7h2.1V549.6z"/>
<rect x="-134.4" y="-142.7" class="st0" width="612" height="792"/>
<rect x="176.4" y="539.9" class="st32" width="2.1" height="9.7"/>
<rect x="-134.4" y="-142.7" class="st0" width="612" height="792"/>
<path class="st32" d="M188.3,545c0,1-0.2,1.8-0.5,2.6c-0.4,0.7-0.8,1.3-1.5,1.6s-1.3,0.6-2.1,0.6c-0.8,0-1.5-0.2-2.2-0.6
	c-0.6-0.4-1.1-0.9-1.5-1.6c-0.4-0.7-0.5-1.6-0.5-2.6v-0.4c0-1,0.2-1.8,0.5-2.6s0.8-1.3,1.5-1.6c0.6-0.4,1.4-0.6,2.2-0.6
	s1.5,0.2,2.2,0.6c0.6,0.4,1.1,0.9,1.5,1.6s0.5,1.6,0.5,2.6L188.3,545L188.3,545z M186.2,544.6c0-0.7-0.1-1.2-0.2-1.7s-0.4-0.8-0.7-1
	c-0.3-0.2-0.7-0.3-1.1-0.3c-0.4,0-0.8,0.1-1.1,0.3c-0.3,0.2-0.5,0.6-0.7,1s-0.2,1-0.2,1.7v0.4c0,0.7,0.1,1.2,0.2,1.7
	c0.2,0.5,0.4,0.8,0.7,1c0.3,0.2,0.7,0.3,1.1,0.3c0.4,0,0.8-0.1,1.1-0.3c0.3-0.2,0.5-0.6,0.7-1s0.2-1,0.2-1.7V544.6z"/>
<rect x="-134.4" y="-142.7" class="st0" width="612" height="792"/>
<polygon class="st32" points="197.6,549.6 195.5,549.6 191.8,543.4 191.8,549.6 189.7,549.6 189.7,539.9 191.8,539.9 195.6,546.2 
	195.6,539.9 197.6,539.9 "/>
<rect x="-134.4" y="-142.7" class="st0" width="612" height="792"/>
<path class="st32" d="M204.3,547c0-0.2,0-0.4-0.1-0.6c-0.1-0.2-0.3-0.3-0.5-0.5c-0.3-0.1-0.6-0.3-1.2-0.5c-0.4-0.1-0.9-0.3-1.2-0.5
	c-0.4-0.2-0.7-0.4-1-0.6c-0.3-0.2-0.5-0.5-0.7-0.8c-0.2-0.3-0.3-0.7-0.3-1.1c0-0.5,0.1-1,0.5-1.4s0.7-0.7,1.3-1s1.2-0.3,1.9-0.3
	c0.7,0,1.3,0.1,1.9,0.4s1,0.6,1.2,1c0.3,0.5,0.4,1,0.4,1.6h-2.1c0-0.3-0.1-0.5-0.2-0.7c-0.1-0.2-0.3-0.4-0.5-0.5s-0.5-0.2-0.9-0.2
	c-0.3,0-0.6,0-0.8,0.2c-0.2,0.1-0.4,0.2-0.5,0.4c-0.1,0.2-0.2,0.3-0.2,0.5c0,0.2,0.1,0.4,0.2,0.5c0.1,0.2,0.4,0.3,0.6,0.4
	c0.3,0.1,0.6,0.3,1,0.4c0.7,0.2,1.3,0.5,1.8,0.8s0.8,0.6,1.1,1s0.4,0.9,0.4,1.4c0,0.6-0.1,1-0.4,1.5c-0.3,0.4-0.7,0.7-1.2,0.9
	c-0.5,0.2-1.1,0.3-1.9,0.3c-0.5,0-1-0.1-1.4-0.2s-0.9-0.3-1.3-0.6s-0.7-0.6-0.9-1s-0.3-0.9-0.3-1.4h2.1c0,0.3,0,0.5,0.1,0.7
	c0.1,0.2,0.2,0.4,0.4,0.5s0.4,0.2,0.6,0.3c0.2,0.1,0.5,0.1,0.8,0.1c0.3,0,0.6,0,0.8-0.1c0.2-0.1,0.4-0.2,0.5-0.4
	C204.3,547.4,204.3,547.2,204.3,547"/>
<rect x="-134.4" y="-142.7" class="st0" width="612" height="792"/>
<path class="st32" d="M211.1,545.7c0-0.9,0.1-1.8,0.3-2.5c0.2-0.8,0.5-1.4,0.8-2c0.3-0.6,0.7-1,1.1-1.4c0.4-0.4,0.8-0.7,1.2-0.8
	l0.4,1.1c-0.2,0.2-0.5,0.4-0.7,0.8s-0.5,0.7-0.7,1.2c-0.2,0.5-0.4,1-0.5,1.6s-0.2,1.3-0.2,2.2v0.2c0,0.8,0.1,1.5,0.2,2.2
	c0.1,0.6,0.3,1.2,0.5,1.6c0.2,0.5,0.4,0.8,0.7,1.2s0.5,0.6,0.7,0.8l-0.4,1.1c-0.4-0.2-0.8-0.4-1.2-0.8c-0.4-0.4-0.8-0.9-1.1-1.4
	s-0.6-1.2-0.8-2c-0.2-0.8-0.3-1.6-0.3-2.5V545.7z"/>
<rect x="-134.4" y="-142.7" class="st0" width="612" height="792"/>
<path class="st32" d="M218,549.6h-2.1v-9.7h2.1V549.6z M222.3,541.6h-4.8v-1.7h4.8V541.6z M221.8,545.7h-4.4V544h4.4V545.7z"/>
<rect x="-134.4" y="-142.7" class="st0" width="612" height="792"/>
<path class="st32" d="M227,539.9c0.8,0,1.4,0.1,1.9,0.3s1,0.5,1.2,1c0.3,0.4,0.4,1,0.4,1.6c0,0.5-0.1,1-0.3,1.4
	c-0.2,0.4-0.4,0.7-0.7,0.9s-0.7,0.4-1.1,0.6l-0.7,0.4h-3.1l0-1.7h2.3c0.3,0,0.6-0.1,0.9-0.2s0.4-0.3,0.5-0.5
	c0.1-0.2,0.2-0.5,0.2-0.7c0-0.4-0.1-0.8-0.4-1c-0.2-0.2-0.6-0.4-1.1-0.4h-1.6v8h-2.1v-9.7H227z M226.5,545.3l2.2,0l2.2,4.2v0.1h-2.2
	L226.5,545.3z"/>
<rect x="-134.4" y="-142.7" class="st0" width="612" height="792"/>
<path class="st32" d="M240.1,545c0,1-0.2,1.8-0.5,2.6c-0.4,0.7-0.8,1.3-1.5,1.6c-0.6,0.4-1.3,0.6-2.1,0.6c-0.8,0-1.5-0.2-2.2-0.6
	c-0.6-0.4-1.1-0.9-1.5-1.6c-0.4-0.7-0.5-1.6-0.5-2.6v-0.4c0-1,0.2-1.8,0.5-2.6s0.8-1.3,1.5-1.6c0.6-0.4,1.4-0.6,2.2-0.6
	s1.5,0.2,2.2,0.6c0.6,0.4,1.1,0.9,1.5,1.6s0.5,1.6,0.5,2.6L240.1,545L240.1,545z M238,544.6c0-0.7-0.1-1.2-0.2-1.7s-0.4-0.8-0.7-1
	c-0.3-0.2-0.7-0.3-1.1-0.3c-0.4,0-0.8,0.1-1.1,0.3c-0.3,0.2-0.5,0.6-0.7,1s-0.2,1-0.2,1.7v0.4c0,0.7,0.1,1.2,0.2,1.7
	c0.2,0.5,0.4,0.8,0.7,1c0.3,0.2,0.7,0.3,1.1,0.3c0.4,0,0.8-0.1,1.1-0.3c0.3-0.2,0.5-0.6,0.7-1s0.2-1,0.2-1.7L238,544.6L238,544.6z"
	/>
<rect x="-134.4" y="-142.7" class="st0" width="612" height="792"/>
<path class="st32" d="M243.2,539.9l0.3,7.2v2.5h-2.1v-9.7H243.2z M244.2,539.9l2.4,6.9l2.4-6.9h1.8l-3.5,9.7h-1.4l-3.4-9.7H244.2z
	 M251.7,539.9v9.7h-2.1v-2.5l0.3-7.2H251.7z"/>
<rect x="-134.4" y="-142.7" class="st0" width="612" height="792"/>
<path class="st32" d="M258.2,545.4l0-1.5h2.1c0.5,0,0.9-0.1,1.2-0.3c0.2-0.2,0.4-0.5,0.4-0.8c0-0.4-0.1-0.7-0.4-0.9
	s-0.6-0.3-1.2-0.3h-1.3v8h-2.1v-9.7h3.4c1.1,0,2,0.2,2.7,0.7c0.6,0.4,1,1.1,1,2c0,0.4-0.1,0.8-0.3,1.1s-0.5,0.6-0.9,0.8
	s-0.9,0.3-1.5,0.3l-0.6,0.5L258.2,545.4L258.2,545.4z M257.6,549.6l0.8-1.7h2.1c0.5,0,0.9-0.1,1.1-0.3c0.2-0.2,0.4-0.5,0.4-0.8
	c0-0.3,0-0.5-0.1-0.7c-0.1-0.2-0.2-0.3-0.4-0.5c-0.2-0.1-0.5-0.2-0.8-0.2h-1.9l0-1.5h2.4l0.5,0.6c0.6,0,1.1,0.1,1.4,0.3
	c0.4,0.2,0.6,0.5,0.8,0.8s0.2,0.7,0.2,1.1c0,0.9-0.3,1.7-0.9,2.1c-0.6,0.5-1.5,0.7-2.6,0.7L257.6,549.6L257.6,549.6z"/>
<rect x="-134.4" y="-142.7" class="st0" width="612" height="792"/>
<path class="st32" d="M269.2,539.9c0.8,0,1.4,0.1,1.9,0.3s1,0.5,1.2,1c0.3,0.4,0.4,1,0.4,1.6c0,0.5-0.1,1-0.3,1.4
	c-0.2,0.4-0.4,0.7-0.7,0.9s-0.7,0.4-1.1,0.6l-0.7,0.4h-3.1l0-1.7h2.3c0.3,0,0.6-0.1,0.9-0.2s0.4-0.3,0.5-0.5
	c0.1-0.2,0.2-0.5,0.2-0.7c0-0.4-0.1-0.8-0.4-1c-0.2-0.2-0.6-0.4-1.1-0.4h-1.6v8h-2.1v-9.7H269.2z M268.7,545.3l2.2,0l2.2,4.2v0.1
	h-2.2L268.7,545.3z"/>
<rect x="-134.4" y="-142.7" class="st0" width="612" height="792"/>
<rect x="274.4" y="539.9" class="st32" width="2.1" height="9.7"/>
<rect x="-134.4" y="-142.7" class="st0" width="612" height="792"/>
<path class="st32" d="M280.3,549.6h-2.1v-9.7h2.1V549.6z M284.8,541.6h-5.1v-1.7h5.1V541.6z M284.1,545.4h-4.5v-1.6h4.5V545.4z
	 M284.8,549.6h-5.1v-1.7h5.1V549.6z"/>
<g>
	<defs>
		<rect id="SVGID_00000051384581117431522090000011113660717789156751_" x="-134.4" y="-142.7" width="612" height="792"/>
	</defs>
	<clipPath id="SVGID_00000019637090845266474240000014521055034565777051_">
		<use xlink:href="#SVGID_00000051384581117431522090000011113660717789156751_"  style="overflow:visible;"/>
	</clipPath>
	<path style="clip-path:url(#SVGID_00000019637090845266474240000014521055034565777051_);fill:#231F20;" d="M288,549.6h-2.1v-9.7
		h2.1V549.6z M292.2,541.6h-4.8v-1.7h4.8V541.6z M291.8,545.7h-4.4V544h4.4V545.7z"/>
</g>
<g>
	<defs>
		<rect id="SVGID_00000134230926807526763170000000827723502678440326_" x="-134.4" y="-142.7" width="612" height="792"/>
	</defs>
	<clipPath id="SVGID_00000026158401036601860100000004965690308280137405_">
		<use xlink:href="#SVGID_00000134230926807526763170000000827723502678440326_"  style="overflow:visible;"/>
	</clipPath>
	<path style="clip-path:url(#SVGID_00000026158401036601860100000004965690308280137405_);fill:#231F20;" d="M296.6,545.8
		c0,0.9-0.1,1.7-0.3,2.5c-0.2,0.8-0.5,1.4-0.8,2c-0.3,0.6-0.7,1.1-1.1,1.5c-0.4,0.4-0.8,0.7-1.2,0.8l-0.4-1.1
		c0.2-0.2,0.5-0.4,0.7-0.8c0.2-0.3,0.5-0.7,0.6-1.2c0.2-0.5,0.4-1,0.5-1.6c0.1-0.6,0.2-1.3,0.2-2.2v-0.2c0-0.8-0.1-1.5-0.2-2.2
		s-0.3-1.2-0.5-1.7c-0.2-0.5-0.4-0.9-0.6-1.2c-0.2-0.3-0.5-0.6-0.7-0.8l0.4-1.1c0.4,0.2,0.8,0.4,1.2,0.8c0.4,0.4,0.8,0.9,1.1,1.5
		c0.3,0.6,0.6,1.3,0.8,2c0.2,0.8,0.3,1.6,0.3,2.5V545.8z"/>
</g>
<g>
	<defs>
		<rect id="SVGID_00000145017336791863410120000010753217082015931024_" x="-134.4" y="-142.7" width="612" height="792"/>
	</defs>
	<clipPath id="SVGID_00000005946556309886840740000012813953690196819364_">
		<use xlink:href="#SVGID_00000145017336791863410120000010753217082015931024_"  style="overflow:visible;"/>
	</clipPath>
	<path style="clip-path:url(#SVGID_00000005946556309886840740000012813953690196819364_);fill:#231F20;" d="M298.1,548.6
		c0-0.3,0.1-0.5,0.3-0.8c0.2-0.2,0.5-0.3,0.8-0.3c0.4,0,0.6,0.1,0.8,0.3c0.2,0.2,0.3,0.5,0.3,0.8s-0.1,0.5-0.3,0.8
		c-0.2,0.2-0.5,0.3-0.8,0.3s-0.6-0.1-0.8-0.3C298.2,549.2,298.1,548.9,298.1,548.6 M298.1,543.2c0-0.3,0.1-0.5,0.3-0.8
		c0.2-0.2,0.5-0.3,0.8-0.3c0.4,0,0.6,0.1,0.8,0.3s0.3,0.5,0.3,0.8s-0.1,0.5-0.3,0.8c-0.2,0.2-0.5,0.3-0.8,0.3s-0.6-0.1-0.8-0.3
		C298.3,543.8,298.1,543.5,298.1,543.2"/>
</g>
<rect x="-134.4" y="-142.7" class="st0" width="612" height="792"/>
<path class="st33" d="M-19,556.3l0.3,7.2v2.5h-2.1v-9.7H-19z M-18.1,556.3l2.4,6.9l2.4-6.9h1.8l-3.4,9.7h-1.4l-3.4-9.7H-18.1z
	 M-10.6,556.3v9.7h-2.1v-2.5l0.3-7.2H-10.6z"/>
<rect x="-134.4" y="-142.7" class="st0" width="612" height="792"/>
<path class="st33" d="M-1.5,556.3v6.4c0,0.8-0.2,1.4-0.5,1.9c-0.3,0.5-0.8,0.9-1.3,1.2c-0.6,0.3-1.2,0.4-1.9,0.4s-1.4-0.1-1.9-0.4
	c-0.6-0.3-1-0.7-1.3-1.2c-0.3-0.5-0.5-1.2-0.5-1.9v-6.4h2.1v6.4c0,0.4,0.1,0.8,0.2,1c0.1,0.3,0.3,0.5,0.6,0.6s0.5,0.2,0.9,0.2
	s0.6-0.1,0.9-0.2s0.4-0.3,0.6-0.6c0.1-0.3,0.2-0.6,0.2-1v-6.4H-1.5z"/>
<rect x="-134.4" y="-142.7" class="st0" width="612" height="792"/>
<path class="st33" d="M2.2,565.9H0.1v-9.7h2.1V565.9z M6.4,565.9H1.5v-1.7h4.9V565.9z"/>
<rect x="-134.4" y="-142.7" class="st0" width="612" height="792"/>
<path class="st33" d="M13.4,557.9H5.5v-1.7h7.9V557.9z M10.5,565.9H8.4v-9.7h2.1V565.9z"/>
<rect x="-134.4" y="-142.7" class="st0" width="612" height="792"/>
<rect x="14.7" y="556.3" class="st33" width="2.1" height="9.7"/>
<rect x="-134.4" y="-142.7" class="st0" width="612" height="792"/>
<rect x="18.5" y="561" class="st33" width="3.8" height="1.6"/>
<rect x="-134.4" y="-142.7" class="st0" width="612" height="792"/>
<path class="st33" d="M31.6,562.7c0,0.7-0.2,1.2-0.5,1.8s-0.8,0.9-1.3,1.2c-0.6,0.3-1.2,0.4-2.1,0.4c-0.8,0-1.6-0.2-2.1-0.6
	c-0.6-0.4-1.1-0.9-1.4-1.6c-0.3-0.7-0.5-1.5-0.5-2.5v-0.6c0-1,0.2-1.8,0.5-2.5s0.8-1.2,1.4-1.6c0.6-0.4,1.3-0.6,2.1-0.6
	s1.5,0.2,2.1,0.5s1,0.7,1.3,1.2c0.3,0.5,0.5,1.1,0.6,1.8h-2.1c0-0.6-0.2-1-0.5-1.3s-0.7-0.4-1.4-0.4c-0.4,0-0.8,0.1-1.1,0.3
	c-0.3,0.2-0.5,0.5-0.6,1c-0.1,0.4-0.2,1-0.2,1.7v0.6c0,0.7,0.1,1.2,0.2,1.7s0.3,0.8,0.6,1c0.3,0.2,0.6,0.3,1.1,0.3
	c0.4,0,0.7-0.1,1-0.2s0.5-0.3,0.6-0.5c0.1-0.2,0.2-0.6,0.2-0.9L31.6,562.7L31.6,562.7z"/>
<rect x="-134.4" y="-142.7" class="st0" width="612" height="792"/>
<path class="st33" d="M40.9,561.3c0,1-0.2,1.8-0.5,2.6c-0.4,0.7-0.8,1.3-1.5,1.6c-0.6,0.4-1.3,0.6-2.1,0.6c-0.8,0-1.5-0.2-2.2-0.6
	c-0.6-0.4-1.1-0.9-1.5-1.6s-0.5-1.6-0.5-2.6v-0.4c0-1,0.2-1.8,0.5-2.6c0.4-0.7,0.8-1.3,1.5-1.6c0.6-0.4,1.4-0.6,2.2-0.6
	c0.8,0,1.5,0.2,2.2,0.6c0.6,0.4,1.1,0.9,1.5,1.6s0.5,1.6,0.5,2.6L40.9,561.3L40.9,561.3z M38.8,560.9c0-0.7-0.1-1.2-0.2-1.7
	s-0.4-0.8-0.7-1c-0.3-0.2-0.7-0.3-1.1-0.3c-0.4,0-0.8,0.1-1.1,0.3c-0.3,0.2-0.5,0.6-0.7,1s-0.2,1-0.2,1.7v0.4c0,0.7,0.1,1.2,0.2,1.7
	s0.4,0.8,0.7,1c0.3,0.2,0.7,0.3,1.1,0.3c0.4,0,0.8-0.1,1.1-0.3s0.5-0.6,0.7-1s0.2-1,0.2-1.7L38.8,560.9L38.8,560.9z"/>
<rect x="-134.4" y="-142.7" class="st0" width="612" height="792"/>
<path class="st33" d="M44.1,556.3l0.3,7.2v2.5h-2.1v-9.7H44.1z M45,556.3l2.4,6.9l2.4-6.9h1.8l-3.4,9.7h-1.4l-3.4-9.7H45z
	 M52.6,556.3v9.7h-2.1v-2.5l0.3-7.2H52.6z"/>
<rect x="-134.4" y="-142.7" class="st0" width="612" height="792"/>
<path class="st33" d="M55.6,562.6v-1.7H58c0.4,0,0.7-0.1,0.9-0.2c0.2-0.1,0.4-0.3,0.5-0.5c0.1-0.2,0.2-0.5,0.2-0.7
	c0-0.3-0.1-0.5-0.2-0.8s-0.3-0.4-0.5-0.6s-0.5-0.2-0.9-0.2h-1.7v8h-2.1v-9.7h3.8c0.8,0,1.4,0.1,2,0.4c0.6,0.3,1,0.7,1.3,1.2
	c0.3,0.5,0.4,1,0.4,1.7c0,0.6-0.1,1.2-0.4,1.6c-0.3,0.5-0.7,0.8-1.3,1.1c-0.6,0.2-1.2,0.4-2,0.4L55.6,562.6L55.6,562.6z"/>
<rect x="-134.4" y="-142.7" class="st0" width="612" height="792"/>
<path class="st33" d="M71.1,561.3c0,1-0.2,1.8-0.5,2.6c-0.4,0.7-0.8,1.3-1.5,1.6c-0.6,0.4-1.3,0.6-2.1,0.6c-0.8,0-1.5-0.2-2.2-0.6
	c-0.6-0.4-1.1-0.9-1.5-1.6s-0.5-1.6-0.5-2.6v-0.4c0-1,0.2-1.8,0.5-2.6c0.4-0.7,0.8-1.3,1.5-1.6c0.6-0.4,1.4-0.6,2.2-0.6
	c0.8,0,1.5,0.2,2.2,0.6c0.6,0.4,1.1,0.9,1.5,1.6s0.5,1.6,0.5,2.6L71.1,561.3L71.1,561.3z M69,560.9c0-0.7-0.1-1.2-0.2-1.7
	s-0.4-0.8-0.7-1c-0.3-0.2-0.7-0.3-1.1-0.3c-0.4,0-0.8,0.1-1.1,0.3c-0.3,0.2-0.5,0.6-0.7,1s-0.2,1-0.2,1.7v0.4c0,0.7,0.1,1.2,0.2,1.7
	s0.4,0.8,0.7,1c0.3,0.2,0.7,0.3,1.1,0.3c0.4,0,0.8-0.1,1.1-0.3s0.5-0.6,0.7-1s0.2-1,0.2-1.7L69,560.9L69,560.9z"/>
<rect x="-134.4" y="-142.7" class="st0" width="612" height="792"/>
<polygon class="st33" points="80.4,565.9 78.3,565.9 74.6,559.7 74.6,565.9 72.5,565.9 72.5,556.3 74.6,556.3 78.3,562.5 
	78.3,556.3 80.4,556.3 "/>
<rect x="-134.4" y="-142.7" class="st0" width="612" height="792"/>
<path class="st33" d="M84.2,565.9h-2.1v-9.7h2.1V565.9z M88.6,557.9h-5.1v-1.7h5.1V557.9z M87.9,561.8h-4.4v-1.6h4.4V561.8z
	 M88.6,565.9h-5.1v-1.7h5.1V565.9z"/>
<rect x="-134.4" y="-142.7" class="st0" width="612" height="792"/>
<polygon class="st33" points="97.7,565.9 95.6,565.9 91.8,559.7 91.8,565.9 89.7,565.9 89.7,556.3 91.8,556.3 95.6,562.5 
	95.6,556.3 97.7,556.3 "/>
<rect x="-134.4" y="-142.7" class="st0" width="612" height="792"/>
<path class="st33" d="M106.7,557.9h-7.9v-1.7h7.9V557.9z M103.7,565.9h-2.1v-9.7h2.1V565.9z"/>
<rect x="-134.4" y="-142.7" class="st0" width="612" height="792"/>
<path class="st33" d="M109.6,565.6c0,0.5-0.1,1-0.4,1.5c-0.2,0.5-0.6,0.9-1,1.3l-1-0.5c0.1-0.2,0.2-0.4,0.3-0.6
	c0.1-0.2,0.2-0.4,0.3-0.7s0.1-0.5,0.1-0.9v-1.5h1.7V565.6z"/>
<rect x="-134.4" y="-142.7" class="st0" width="612" height="792"/>
<path class="st33" d="M116.7,565.9h-2.1v-9.7h2.1V565.9z M121,561.8h-5v-1.7h5V561.8z M122.5,565.9h-2.1v-9.7h2.1V565.9z"/>
<rect x="-134.4" y="-142.7" class="st0" width="612" height="792"/>
<path class="st33" d="M126.3,565.9h-2.1v-9.7h2.1V565.9z M130.7,557.9h-5.1v-1.7h5.1V557.9z M130.1,561.8h-4.5v-1.6h4.5V561.8z
	 M130.7,565.9h-5.1v-1.7h5.1V565.9z"/>
<rect x="-134.4" y="-142.7" class="st0" width="612" height="792"/>
<path class="st33" d="M139.3,557.9h-7.9v-1.7h7.9V557.9z M136.4,565.9h-2.1v-9.7h2.1V565.9z"/>
<rect x="-134.4" y="-142.7" class="st0" width="612" height="792"/>
<path class="st33" d="M142.5,565.9h-2.1v-9.7h2.1V565.9z M147,557.9h-5.1v-1.7h5.1V557.9z M146.3,561.8h-4.5v-1.6h4.5V561.8z
	 M147,565.9h-5.1v-1.7h5.1V565.9z"/>
<rect x="-134.4" y="-142.7" class="st0" width="612" height="792"/>
<path class="st33" d="M151.7,556.3c0.8,0,1.4,0.1,1.9,0.3c0.5,0.2,1,0.5,1.2,1c0.3,0.4,0.4,1,0.4,1.6c0,0.5-0.1,1-0.3,1.3
	s-0.4,0.7-0.7,0.9c-0.3,0.2-0.7,0.4-1.1,0.6l-0.7,0.4h-3.1l0-1.7h2.3c0.3,0,0.6-0.1,0.9-0.2s0.4-0.3,0.5-0.5
	c0.1-0.2,0.2-0.5,0.2-0.7c0-0.4-0.1-0.8-0.4-1s-0.6-0.4-1.1-0.4h-1.5v8h-2.1v-9.7L151.7,556.3L151.7,556.3z M151.3,561.6l2.2,0
	l2.2,4.2v0.1h-2.2L151.3,561.6z"/>
<rect x="-134.4" y="-142.7" class="st0" width="612" height="792"/>
<path class="st33" d="M164.8,561.3c0,1-0.2,1.8-0.5,2.6c-0.4,0.7-0.8,1.3-1.5,1.6c-0.6,0.4-1.3,0.6-2.1,0.6c-0.8,0-1.5-0.2-2.2-0.6
	c-0.6-0.4-1.1-0.9-1.5-1.6s-0.5-1.6-0.5-2.6v-0.4c0-1,0.2-1.8,0.5-2.6c0.4-0.7,0.8-1.3,1.5-1.6c0.6-0.4,1.4-0.6,2.2-0.6
	c0.8,0,1.5,0.2,2.2,0.6c0.6,0.4,1.1,0.9,1.5,1.6s0.5,1.6,0.5,2.6L164.8,561.3L164.8,561.3z M162.7,560.9c0-0.7-0.1-1.2-0.2-1.7
	s-0.4-0.8-0.7-1c-0.3-0.2-0.7-0.3-1.1-0.3c-0.4,0-0.8,0.1-1.1,0.3c-0.3,0.2-0.5,0.6-0.7,1s-0.2,1-0.2,1.7v0.4c0,0.7,0.1,1.2,0.2,1.7
	s0.4,0.8,0.7,1c0.3,0.2,0.7,0.3,1.1,0.3c0.4,0,0.8-0.1,1.1-0.3c0.3-0.2,0.5-0.6,0.7-1s0.2-1,0.2-1.7L162.7,560.9L162.7,560.9z"/>
<rect x="-134.4" y="-142.7" class="st0" width="612" height="792"/>
<path class="st33" d="M173.9,564.7c-0.1,0.2-0.4,0.4-0.7,0.6c-0.3,0.2-0.7,0.4-1.2,0.5c-0.5,0.2-1.1,0.2-1.8,0.2
	c-0.8,0-1.6-0.2-2.2-0.5c-0.6-0.4-1.1-0.9-1.5-1.6c-0.4-0.7-0.5-1.5-0.5-2.5v-0.5c0-1,0.2-1.8,0.5-2.5s0.8-1.2,1.4-1.6
	s1.3-0.5,2.1-0.5c0.9,0,1.5,0.1,2.1,0.4c0.5,0.3,1,0.7,1.2,1.2c0.3,0.5,0.5,1,0.5,1.7h-2c0-0.3-0.1-0.6-0.3-0.8
	c-0.1-0.2-0.3-0.4-0.6-0.5c-0.2-0.1-0.6-0.2-1-0.2c-0.4,0-0.8,0.1-1.1,0.3c-0.3,0.2-0.5,0.6-0.7,1s-0.2,1-0.2,1.7v0.6
	c0,0.7,0.1,1.2,0.2,1.7c0.2,0.5,0.4,0.8,0.8,1s0.7,0.3,1.2,0.3c0.3,0,0.5,0,0.8-0.1c0.2,0,0.4-0.1,0.5-0.2c0.1-0.1,0.2-0.1,0.3-0.2
	v-1.6h-1.8v-1.5h3.9L173.9,564.7L173.9,564.7z"/>
<rect x="-134.4" y="-142.7" class="st0" width="612" height="792"/>
<path class="st33" d="M177.6,565.9h-2.1v-9.7h2.1V565.9z M182,557.9h-5.1v-1.7h5.1V557.9z M181.4,561.8h-4.5v-1.6h4.5V561.8z
	 M182,565.9h-5.1v-1.7h5.1V565.9z"/>
<rect x="-134.4" y="-142.7" class="st0" width="612" height="792"/>
<polygon class="st33" points="191.1,565.9 189,565.9 185.2,559.7 185.2,565.9 183.1,565.9 183.1,556.3 185.2,556.3 189,562.5 
	189,556.3 191.1,556.3 "/>
<rect x="-134.4" y="-142.7" class="st0" width="612" height="792"/>
<path class="st33" d="M194.8,565.9h-2.1v-9.7h2.1V565.9z M199.3,557.9h-5.1v-1.7h5.1V557.9z M198.6,561.8h-4.5v-1.6h4.5V561.8z
	 M199.3,565.9h-5.1v-1.7h5.1V565.9z"/>
<rect x="-134.4" y="-142.7" class="st0" width="612" height="792"/>
<path class="st33" d="M208.4,561.3c0,1-0.2,1.8-0.5,2.6c-0.4,0.7-0.8,1.3-1.5,1.6c-0.6,0.4-1.3,0.6-2.1,0.6c-0.8,0-1.5-0.2-2.2-0.6
	c-0.6-0.4-1.1-0.9-1.5-1.6c-0.4-0.7-0.5-1.6-0.5-2.6v-0.4c0-1,0.2-1.8,0.5-2.6c0.4-0.7,0.8-1.3,1.5-1.6c0.6-0.4,1.4-0.6,2.2-0.6
	s1.5,0.2,2.2,0.6c0.6,0.4,1.1,0.9,1.5,1.6s0.5,1.6,0.5,2.6L208.4,561.3L208.4,561.3z M206.3,560.9c0-0.7-0.1-1.2-0.2-1.7
	s-0.4-0.8-0.7-1c-0.3-0.2-0.7-0.3-1.1-0.3c-0.4,0-0.8,0.1-1.1,0.3c-0.3,0.2-0.5,0.6-0.7,1s-0.2,1-0.2,1.7v0.4c0,0.7,0.1,1.2,0.2,1.7
	s0.4,0.8,0.7,1c0.3,0.2,0.7,0.3,1.1,0.3c0.4,0,0.8-0.1,1.1-0.3c0.3-0.2,0.5-0.6,0.7-1s0.2-1,0.2-1.7L206.3,560.9L206.3,560.9z"/>
<rect x="-134.4" y="-142.7" class="st0" width="612" height="792"/>
<path class="st33" d="M217.2,556.3v6.4c0,0.8-0.2,1.4-0.5,1.9s-0.8,0.9-1.3,1.2c-0.6,0.3-1.2,0.4-1.9,0.4c-0.7,0-1.4-0.1-1.9-0.4
	c-0.6-0.3-1-0.7-1.3-1.2c-0.3-0.5-0.5-1.2-0.5-1.9v-6.4h2.1v6.4c0,0.4,0.1,0.8,0.2,1s0.3,0.5,0.6,0.6s0.5,0.2,0.9,0.2
	s0.6-0.1,0.9-0.2c0.2-0.1,0.4-0.3,0.6-0.6s0.2-0.6,0.2-1v-6.4H217.2z"/>
<rect x="-134.4" y="-142.7" class="st0" width="612" height="792"/>
<path class="st33" d="M223.8,563.4c0-0.2,0-0.4-0.1-0.6c-0.1-0.2-0.3-0.3-0.5-0.5c-0.3-0.1-0.6-0.3-1.2-0.5
	c-0.4-0.1-0.9-0.3-1.2-0.5c-0.4-0.2-0.7-0.4-1-0.6c-0.3-0.2-0.5-0.5-0.7-0.8c-0.2-0.3-0.3-0.7-0.3-1.1c0-0.5,0.1-1,0.5-1.4
	s0.7-0.7,1.3-1c0.5-0.2,1.2-0.3,1.9-0.3c0.7,0,1.3,0.1,1.9,0.4s1,0.6,1.2,1c0.3,0.5,0.4,1,0.4,1.6h-2.1c0-0.3-0.1-0.5-0.2-0.7
	c-0.1-0.2-0.3-0.4-0.5-0.5s-0.5-0.2-0.9-0.2c-0.3,0-0.6,0-0.8,0.2c-0.2,0.1-0.4,0.2-0.5,0.4c-0.1,0.2-0.2,0.3-0.2,0.5
	c0,0.2,0.1,0.4,0.2,0.5c0.1,0.2,0.4,0.3,0.6,0.4c0.3,0.1,0.6,0.3,1,0.4c0.7,0.2,1.3,0.5,1.8,0.8s0.8,0.6,1.1,1s0.4,0.9,0.4,1.4
	c0,0.6-0.1,1-0.4,1.5c-0.3,0.4-0.7,0.7-1.2,0.9c-0.5,0.2-1.1,0.3-1.9,0.3c-0.5,0-1-0.1-1.4-0.2s-0.9-0.3-1.3-0.6
	c-0.4-0.3-0.7-0.6-0.9-1s-0.3-0.9-0.3-1.4h2.1c0,0.3,0,0.5,0.1,0.7s0.2,0.4,0.4,0.5s0.4,0.2,0.6,0.3c0.2,0.1,0.5,0.1,0.8,0.1
	c0.3,0,0.6,0,0.8-0.1c0.2-0.1,0.4-0.2,0.5-0.4C223.7,563.8,223.8,563.6,223.8,563.4"/>
<rect x="-134.4" y="-142.7" class="st0" width="612" height="792"/>
<path class="st33" d="M229,565.6c0,0.5-0.1,1-0.4,1.5c-0.2,0.5-0.6,0.9-1,1.3l-1-0.5c0.1-0.2,0.2-0.4,0.3-0.6
	c0.1-0.2,0.2-0.4,0.3-0.7c0.1-0.2,0.1-0.5,0.1-0.9v-1.5h1.7L229,565.6z"/>
<rect x="-134.4" y="-142.7" class="st0" width="612" height="792"/>
<polygon class="st33" points="241.9,565.9 239.8,565.9 236.1,559.7 236.1,565.9 234,565.9 234,556.3 236.1,556.3 239.8,562.5 
	239.8,556.3 241.9,556.3 "/>
<rect x="-134.4" y="-142.7" class="st0" width="612" height="792"/>
<path class="st33" d="M245.7,565.9h-2.1v-9.7h2.1V565.9z M250.1,557.9H245v-1.7h5.1V557.9z M249.4,561.8H245v-1.6h4.5V561.8z
	 M250.1,565.9H245v-1.7h5.1V565.9z"/>
<rect x="-134.4" y="-142.7" class="st0" width="612" height="792"/>
<path class="st33" d="M254.3,564.7l-0.2,1.3h-1.3l-2.1-9.7h2.1L254.3,564.7z M255.5,556.3h1.1l0.3,1.1l-2,8.5h-1.2l-0.1-1.3
	L255.5,556.3z M259.2,564.7l-0.1,1.2h-1.2l-2-8.5l0.3-1.1h1.1L259.2,564.7z M260,556.3h2.1l-2.1,9.7h-1.3l-0.2-1.3L260,556.3z"/>
<rect x="-134.4" y="-142.7" class="st0" width="612" height="792"/>
<path class="st33" d="M273.6,557.9h-7.9v-1.7h7.9V557.9z M270.7,565.9h-2.1v-9.7h2.1V565.9z"/>
<rect x="-134.4" y="-142.7" class="st0" width="612" height="792"/>
<path class="st33" d="M276.8,565.9h-2.1v-9.7h2.1V565.9z M281.3,557.9h-5.1v-1.7h5.1V557.9z M280.6,561.8h-4.5v-1.6h4.5V561.8z
	 M281.3,565.9h-5.1v-1.7h5.1V565.9z"/>
<rect x="-134.4" y="-142.7" class="st0" width="612" height="792"/>
<path class="st33" d="M290,562.7c0,0.7-0.2,1.2-0.5,1.8s-0.8,0.9-1.3,1.2c-0.6,0.3-1.2,0.4-2,0.4c-0.8,0-1.5-0.2-2.1-0.6
	s-1.1-0.9-1.4-1.6s-0.5-1.5-0.5-2.5v-0.6c0-1,0.2-1.8,0.5-2.5s0.8-1.2,1.4-1.6s1.3-0.6,2.1-0.6s1.5,0.2,2.1,0.5s1,0.7,1.3,1.2
	c0.3,0.5,0.5,1.1,0.5,1.8h-2.1c0-0.6-0.2-1-0.5-1.3s-0.7-0.4-1.4-0.4c-0.4,0-0.8,0.1-1.1,0.3s-0.5,0.5-0.6,1c-0.1,0.4-0.2,1-0.2,1.7
	v0.6c0,0.7,0.1,1.2,0.2,1.7s0.3,0.8,0.6,1c0.3,0.2,0.6,0.3,1.1,0.3c0.4,0,0.7-0.1,1-0.2c0.3-0.1,0.5-0.3,0.6-0.5
	c0.1-0.2,0.2-0.6,0.2-0.9L290,562.7L290,562.7z"/>
<g>
	<defs>
		<rect id="SVGID_00000130619656724622997430000012240322076512070017_" x="-134.4" y="-142.7" width="612" height="792"/>
	</defs>
	<clipPath id="SVGID_00000138573446677921656400000004195682002994912424_">
		<use xlink:href="#SVGID_00000130619656724622997430000012240322076512070017_"  style="overflow:visible;"/>
	</clipPath>
	<path style="clip-path:url(#SVGID_00000138573446677921656400000004195682002994912424_);fill:#939598;" d="M293.4,565.9h-2.1v-9.7
		h2.1V565.9z M297.7,561.8h-5v-1.7h5V561.8z M299.2,565.9h-2.1v-9.7h2.1V565.9z"/>
</g>
<g>
	<defs>
		<rect id="SVGID_00000116955317767501817480000007950790906743355781_" x="-134.4" y="-142.7" width="612" height="792"/>
	</defs>
	<clipPath id="SVGID_00000068637501623929758050000007916966283392684981_">
		<use xlink:href="#SVGID_00000116955317767501817480000007950790906743355781_"  style="overflow:visible;"/>
	</clipPath>
	<polygon style="clip-path:url(#SVGID_00000068637501623929758050000007916966283392684981_);fill:#939598;" points="308.8,565.9 
		306.8,565.9 303,559.7 303,565.9 300.9,565.9 300.9,556.3 303,556.3 306.8,562.5 306.8,556.3 308.8,556.3 	"/>
</g>
<g>
	<defs>
		<rect id="SVGID_00000177458411451922351580000003929642184561992328_" x="-134.4" y="-142.7" width="612" height="792"/>
	</defs>
	<clipPath id="SVGID_00000005988816760491093230000001749852477019836805_">
		<use xlink:href="#SVGID_00000177458411451922351580000003929642184561992328_"  style="overflow:visible;"/>
	</clipPath>
	<path style="clip-path:url(#SVGID_00000005988816760491093230000001749852477019836805_);fill:#939598;" d="M318.5,561.3
		c0,1-0.2,1.8-0.5,2.6c-0.4,0.7-0.8,1.3-1.5,1.6c-0.6,0.4-1.3,0.6-2.1,0.6c-0.8,0-1.5-0.2-2.2-0.6c-0.6-0.4-1.1-0.9-1.5-1.6
		c-0.4-0.7-0.5-1.6-0.5-2.6v-0.4c0-1,0.2-1.8,0.5-2.6c0.4-0.7,0.8-1.3,1.5-1.6c0.6-0.4,1.4-0.6,2.2-0.6s1.5,0.2,2.2,0.6
		c0.6,0.4,1.1,0.9,1.5,1.6s0.5,1.6,0.5,2.6L318.5,561.3L318.5,561.3z M316.4,560.9c0-0.7-0.1-1.2-0.2-1.7s-0.4-0.8-0.7-1
		c-0.3-0.2-0.7-0.3-1.1-0.3c-0.4,0-0.8,0.1-1.1,0.3c-0.3,0.2-0.5,0.6-0.7,1s-0.2,1-0.2,1.7v0.4c0,0.7,0.1,1.2,0.2,1.7s0.4,0.8,0.7,1
		c0.3,0.2,0.7,0.3,1.1,0.3c0.4,0,0.8-0.1,1.1-0.3c0.3-0.2,0.5-0.6,0.7-1s0.2-1,0.2-1.7L316.4,560.9L316.4,560.9z"/>
</g>
<path class="st33" d="M-228,410.7h-2.1V401h2.1V410.7z M-223.8,410.7h-4.9V409h4.9V410.7z"/>
<g>
	<defs>
		<rect id="SVGID_00000154397244812580283980000017111285511912940172_" x="-134.4" y="-142.7" width="612" height="792"/>
	</defs>
	<clipPath id="SVGID_00000002359239125153220190000014163840840999046797_">
		<use xlink:href="#SVGID_00000154397244812580283980000017111285511912940172_"  style="overflow:visible;"/>
	</clipPath>
	<path style="clip-path:url(#SVGID_00000002359239125153220190000014163840840999046797_);fill:#939598;" d="M334.9,561.3
		c0,1-0.2,1.8-0.5,2.6c-0.4,0.7-0.8,1.3-1.5,1.6s-1.3,0.6-2.1,0.6c-0.8,0-1.5-0.2-2.2-0.6c-0.6-0.4-1.1-0.9-1.5-1.6
		c-0.4-0.7-0.5-1.6-0.5-2.6v-0.4c0-1,0.2-1.8,0.5-2.6c0.4-0.7,0.8-1.3,1.5-1.6c0.6-0.4,1.4-0.6,2.2-0.6s1.5,0.2,2.2,0.6
		c0.6,0.4,1.1,0.9,1.5,1.6s0.5,1.6,0.5,2.6L334.9,561.3L334.9,561.3z M332.7,560.9c0-0.7-0.1-1.2-0.2-1.7s-0.4-0.8-0.7-1
		c-0.3-0.2-0.7-0.3-1.1-0.3c-0.4,0-0.8,0.1-1.1,0.3c-0.3,0.2-0.5,0.6-0.7,1s-0.2,1-0.2,1.7v0.4c0,0.7,0.1,1.2,0.2,1.7s0.4,0.8,0.7,1
		c0.3,0.2,0.7,0.3,1.1,0.3c0.4,0,0.8-0.1,1.1-0.3c0.3-0.2,0.5-0.6,0.7-1s0.2-1,0.2-1.7V560.9z"/>
</g>
<g>
	<defs>
		<rect id="SVGID_00000026865723494396652210000008884410404606231464_" x="-134.4" y="-142.7" width="612" height="792"/>
	</defs>
	<clipPath id="SVGID_00000055703333348506446280000008485483622494339504_">
		<use xlink:href="#SVGID_00000026865723494396652210000008884410404606231464_"  style="overflow:visible;"/>
	</clipPath>
	<path style="clip-path:url(#SVGID_00000055703333348506446280000008485483622494339504_);fill:#939598;" d="M344,564.7
		c-0.1,0.2-0.4,0.4-0.7,0.6c-0.3,0.2-0.7,0.4-1.2,0.5c-0.5,0.2-1.1,0.2-1.8,0.2c-0.8,0-1.6-0.2-2.2-0.5c-0.6-0.4-1.1-0.9-1.5-1.6
		c-0.4-0.7-0.5-1.5-0.5-2.5v-0.5c0-1,0.2-1.8,0.5-2.5s0.8-1.2,1.4-1.6c0.6-0.4,1.3-0.5,2.1-0.5c0.9,0,1.6,0.1,2.1,0.4
		c0.5,0.3,1,0.7,1.2,1.2c0.3,0.5,0.5,1,0.5,1.7h-2c0-0.3-0.1-0.6-0.3-0.8c-0.1-0.2-0.3-0.4-0.6-0.5c-0.2-0.1-0.6-0.2-1-0.2
		c-0.4,0-0.8,0.1-1.1,0.3c-0.3,0.2-0.5,0.6-0.7,1s-0.2,1-0.2,1.7v0.6c0,0.7,0.1,1.2,0.2,1.7c0.2,0.5,0.4,0.8,0.8,1s0.7,0.3,1.2,0.3
		c0.3,0,0.5,0,0.8-0.1c0.2,0,0.4-0.1,0.5-0.2c0.1-0.1,0.2-0.1,0.3-0.2v-1.6h-1.8v-1.5h3.9L344,564.7L344,564.7z"/>
</g>
<g>
	<defs>
		<rect id="SVGID_00000120554201727528782310000005600350615206142373_" x="-134.4" y="-142.7" width="612" height="792"/>
	</defs>
	<clipPath id="SVGID_00000066505415997184326730000002673117084781131182_">
		<use xlink:href="#SVGID_00000120554201727528782310000005600350615206142373_"  style="overflow:visible;"/>
	</clipPath>
	
		<rect x="345.7" y="556.3" style="clip-path:url(#SVGID_00000066505415997184326730000002673117084781131182_);fill:#939598;" width="2.1" height="9.7"/>
</g>
<g>
	<defs>
		<rect id="SVGID_00000175296142704722004940000006161243398840305800_" x="-134.4" y="-142.7" width="612" height="792"/>
	</defs>
	<clipPath id="SVGID_00000173863474658721794150000002600898746133603975_">
		<use xlink:href="#SVGID_00000175296142704722004940000006161243398840305800_"  style="overflow:visible;"/>
	</clipPath>
	<path style="clip-path:url(#SVGID_00000173863474658721794150000002600898746133603975_);fill:#939598;" d="M351.6,565.9h-2.1v-9.7
		h2.1V565.9z M356.1,557.9H351v-1.7h5.1V557.9z M355.4,561.8H351v-1.6h4.5V561.8z M356.1,565.9H351v-1.7h5.1V565.9z"/>
</g>
<g>
	<defs>
		<rect id="SVGID_00000026148787460673706390000000513687287697603214_" x="-134.4" y="-142.7" width="612" height="792"/>
	</defs>
	<clipPath id="SVGID_00000121973764166508218960000016851366380960905356_">
		<use xlink:href="#SVGID_00000026148787460673706390000000513687287697603214_"  style="overflow:visible;"/>
	</clipPath>
	<path style="clip-path:url(#SVGID_00000121973764166508218960000016851366380960905356_);fill:#939598;" d="M362.2,563.4
		c0-0.2,0-0.4-0.1-0.6c-0.1-0.2-0.3-0.3-0.5-0.5c-0.3-0.1-0.6-0.3-1.2-0.5c-0.4-0.1-0.9-0.3-1.2-0.5c-0.4-0.2-0.7-0.4-1-0.6
		c-0.3-0.2-0.5-0.5-0.7-0.8c-0.2-0.3-0.3-0.7-0.3-1.1c0-0.5,0.1-1,0.5-1.4s0.7-0.7,1.3-1c0.5-0.2,1.2-0.3,1.9-0.3
		c0.7,0,1.3,0.1,1.9,0.4s1,0.6,1.2,1c0.3,0.5,0.4,1,0.4,1.6h-2.1c0-0.3-0.1-0.5-0.2-0.7c-0.1-0.2-0.3-0.4-0.5-0.5s-0.5-0.2-0.9-0.2
		c-0.3,0-0.6,0-0.8,0.2c-0.2,0.1-0.4,0.2-0.5,0.4c-0.1,0.2-0.2,0.3-0.2,0.5c0,0.2,0.1,0.4,0.2,0.5c0.1,0.2,0.4,0.3,0.6,0.4
		c0.3,0.1,0.6,0.3,1,0.4c0.7,0.2,1.3,0.5,1.8,0.8s0.8,0.6,1.1,1s0.4,0.9,0.4,1.4c0,0.6-0.1,1-0.4,1.5c-0.3,0.4-0.7,0.7-1.2,0.9
		c-0.5,0.2-1.1,0.3-1.9,0.3c-0.5,0-1-0.1-1.4-0.2s-0.9-0.3-1.3-0.6c-0.4-0.3-0.7-0.6-0.9-1s-0.3-0.9-0.3-1.4h2.1
		c0,0.3,0,0.5,0.1,0.7s0.2,0.4,0.4,0.5s0.4,0.2,0.6,0.3c0.2,0.1,0.5,0.1,0.8,0.1c0.3,0,0.6,0,0.8-0.1c0.2-0.1,0.4-0.2,0.5-0.4
		C362.1,563.8,362.2,563.6,362.2,563.4"/>
</g>
</svg>
